<?xml version="1.0" encoding="UTF-8"?>
<svg width="88px" height="26px" viewBox="0 0 88 26" version="1.1" xmlns="http://www.w3.org/2000/svg" xmlns:xlink="http://www.w3.org/1999/xlink">
    <title>colorjar</title>
    <g id="v3.0" stroke="none" stroke-width="1" fill="none" fill-rule="evenodd">
        <g id="00-landing-page-light" transform="translate(-601.000000, -1322.000000)" fill="#121212" fill-rule="nonzero">
            <g id="previously" transform="translate(336.000000, 1289.000000)">
                <g id="colorjar" transform="translate(265.000000, 33.000000)">
                    <path d="M5.19508772,19.1747368 C1.57473684,19.1747368 0.030877193,17.6308772 0.030877193,14.6666667 L0.030877193,10.2666667 C0.030877193,7.33333333 1.57473684,5.7354386 5.21824561,5.7354386 C6.62782474,5.70029312 8.03286194,5.90922058 9.37122807,6.35298246 L9.37122807,7.33333333 C8.01845184,6.9533158 6.62306405,6.7458232 5.21824561,6.71578947 C2.13052632,6.71578947 1.06526316,7.82736842 1.06526316,10.2666667 L1.06526316,14.6666667 C1.06526316,17.1136842 2.09964912,18.2175439 5.21824561,18.2175439 C6.62307103,18.1875926 8.01846915,17.9800985 9.37122807,17.6 L9.37122807,18.5803509 C8.02405526,19.0186065 6.6110394,19.2197197 5.19508772,19.1747368 Z" id="Path"></path>
                    <path d="M19.0280702,19.0589474 L16.434386,19.0589474 C13.8407018,19.0589474 12.2814035,17.5922807 12.2814035,15.1529825 L12.2814035,9.74947368 C12.2814035,7.30245614 13.8252632,5.84350877 16.434386,5.84350877 L19.0280702,5.84350877 C21.6217544,5.84350877 23.1810814,7.31017544 23.1810814,9.74947368 L23.1810814,15.1529825 C23.1887719,17.6308772 21.6449123,19.0589474 19.0280702,19.0589474 Z M22.1157895,9.79578947 C22.1157895,7.84023392 21.0865497,6.86245614 19.0280702,6.86245614 L16.434386,6.86245614 C14.3759064,6.86245614 13.3466667,7.84023392 13.3466667,9.79578947 L13.3466667,15.1992982 C13.3466667,17.1548538 14.3759064,18.1326316 16.434386,18.1326316 L19.0280702,18.1326316 C21.0865497,18.1326316 22.1157895,17.1548538 22.1157895,15.1992982 L22.1157895,9.79578947 Z" id="Shape"></path>
                    <polygon id="Path" points="26.6392982 19.0589474 26.6392982 0 27.6736842 0 27.6736842 19.0589474"></polygon>
                    <path d="M37.8554386,19.0589474 L35.2849123,19.0589474 C32.6912281,19.0589474 31.1319298,17.5922807 31.1319298,15.1529825 L31.1319298,9.74947368 C31.1319298,7.30245614 32.6757895,5.84350877 35.2849123,5.84350877 L37.8554386,5.84350877 C40.4491228,5.84350877 42.0084211,7.31017544 42.0084211,9.74947368 L42.0084211,15.1529825 C42.0315789,17.6308772 40.4722807,19.0589474 37.8554386,19.0589474 Z M40.9431579,9.79578947 C40.9431579,7.84023392 39.9139181,6.86245614 37.8554386,6.86245614 L35.2849123,6.86245614 C33.2264327,6.86245614 32.197193,7.84023392 32.197193,9.79578947 L32.197193,15.1992982 C32.197193,17.1548538 33.2264327,18.1326316 35.2849123,18.1326316 L37.8554386,18.1326316 C39.9139181,18.1326316 40.9431579,17.1548538 40.9431579,15.1992982 L40.9431579,9.79578947 Z" id="Shape"></path>
                    <path d="M54.274386,8.8 L53.2322807,8.8 C53.2647374,8.58256686 53.2853526,8.36353037 53.2940351,8.14385965 C53.2940351,7.26385965 52.4680702,6.74666667 51.0477193,6.74666667 C49.4862555,6.7609884 47.94423,7.09461233 46.5164912,7.72701754 L46.5164912,19.0589474 L45.4898246,19.0589474 L45.4898246,5.86666667 L46.5242105,5.86666667 L46.5242105,6.74666667 C47.9800581,6.21151781 49.5069207,5.89418009 51.0554386,5.80491228 C53.162807,5.80491228 54.3438596,6.94736842 54.3438596,8.12070175 C54.3374477,8.34853548 54.3142267,8.57558513 54.274386,8.8 Z" id="Path"></path>
                    <path d="M59.322807,22.154386 C59.322807,24.3698246 58.08,25.805614 55.7564912,25.805614 C54.8412825,25.7931659 53.9281112,25.7157785 53.0238596,25.5740351 L53.0238596,23.165614 C53.8722004,23.2901944 54.7293898,23.3444143 55.5866667,23.3277193 C56.4512281,23.3277193 56.6596491,23.2273684 56.6596491,22.154386 L56.6596491,5.51157895 L59.322807,5.51157895 L59.322807,22.154386 L59.322807,22.154386 Z M56.6596491,3.9754386 L56.6596491,1.79087719 L59.322807,1.79087719 L59.322807,3.9754386 L56.6596491,3.9754386 L56.6596491,3.9754386 Z" id="Shape"></path>
                    <path d="M71.4652632,19.0589474 L71.4652632,18.2870175 C70.2318172,18.8697709 68.8848818,19.1728973 67.5207018,19.1747368 C64.5796491,19.1747368 61.8778947,17.4842105 61.8778947,14.7129825 L61.8778947,14.3038596 C61.8778947,11.9880702 64.0547368,10.4442105 66.9649123,10.4442105 L71.4575439,10.4442105 L71.4575439,9.6722807 C71.4575439,8.33684211 70.8708772,7.64982456 68.6554386,7.64982456 C66.8519872,7.65762117 65.0624023,7.96545064 63.36,8.56070175 L63.36,6.16 C65.0548625,5.5987387 66.8316352,5.32478696 68.6168421,5.34947368 C72.1136842,5.34947368 74.1129825,6.97824561 74.1129825,9.71087719 L74.1129825,19.0589474 L71.4498246,19.0589474 L71.4652632,19.0589474 Z M71.4652632,12.7754386 L67.0035088,12.7754386 C65.2049123,12.7754386 64.5487719,13.4624561 64.5487719,14.3192982 L64.5487719,14.7438596 C64.5487719,16.0484211 65.482807,16.8975439 67.4898246,16.8975439 C68.8542574,16.8807684 70.2031706,16.6057473 71.4652632,16.0870175 L71.4652632,12.7754386 Z" id="Shape"></path>
                    <path d="M87.5136842,9.09333333 L84.9431579,9.09333333 C85.0143436,8.90613776 85.0484271,8.70688004 85.0435088,8.50666667 C85.0435088,7.95087719 84.6961404,7.62666667 83.5536842,7.62666667 C82.2667711,7.71794424 81.0103933,8.06154652 79.8561404,8.63789474 L79.8561404,19.0589474 L77.2238596,19.0589474 L77.2238596,5.47298246 L79.8870175,5.47298246 L79.8870175,6.28350877 C81.0562189,5.76911952 82.3089918,5.47096479 83.5845614,5.40350877 C86.0392982,5.40350877 87.6294737,6.63859649 87.6294737,8.23649123 C87.6413913,8.52668398 87.6021982,8.81671242 87.5136842,9.09333333 L87.5136842,9.09333333 Z" id="Path"></path>
                </g>
            </g>
        </g>
    </g>
</svg>