<?xml version="1.0" encoding="UTF-8"?>
<svg width="80px" height="22px" viewBox="0 0 80 22" version="1.1" xmlns="http://www.w3.org/2000/svg" xmlns:xlink="http://www.w3.org/1999/xlink">
    <title>dose</title>
    <g id="v3.0" stroke="none" stroke-width="1" fill="none" fill-rule="evenodd">
        <g id="00-landing-page-light" transform="translate(-812.000000, -1322.000000)" fill="#121212" fill-rule="nonzero">
            <g id="previously" transform="translate(336.000000, 1289.000000)">
                <g id="dose" transform="translate(476.000000, 33.000000)">
                    <path d="M14.418916,0.01969104 L14.418916,21.0852686 L11.6548413,21.0852686 L11.6548413,19.1169154 C10.6497277,20.5408301 8.89077392,21.3784229 6.83865664,21.3784229 C2.90195136,21.3784229 0.09600096,18.2793189 0.09600096,14.1750891 C0.09600096,10.0708606 2.9438336,6.97174928 6.83865664,6.97174928 C8.76513312,6.97174928 10.3984461,7.68370912 11.4454419,8.9819848 L11.4454419,0.01969104 L14.418916,0.01969104 L14.418916,0.01969104 Z M11.4873254,14.2169715 C11.4873254,11.1178602 9.39333136,9.69394416 7.34122016,9.69394416 C4.95406256,9.69394416 3.1113504,11.5366627 3.1113504,14.1750891 C3.1113504,16.8135155 4.95406256,18.6981165 7.34122016,18.6981165 C9.39333136,18.6981165 11.4873254,17.3579614 11.4873254,14.2169715 Z" id="svg_3"></path>
                    <path d="M35.191333,14.1750891 C35.191333,18.195559 31.9247045,21.3784229 27.8623584,21.3784229 C23.8418848,21.3365478 20.5752637,18.2374354 20.5752637,14.1750891 C20.5752637,10.1546216 23.7581299,6.97174928 27.8623584,6.97174928 C31.9247046,7.01363168 35.191333,10.1546216 35.191333,14.1750891 L35.191333,14.1750891 Z M23.6324877,14.2169715 C23.6324877,16.7716456 25.4333227,18.6981165 27.9042333,18.6981165 C30.333269,18.6981165 32.2178613,16.7716456 32.2178613,14.2169715 C32.2178613,11.6204213 30.3751488,9.73582656 27.9461157,9.69394416 C25.4333227,9.73582288 23.6324877,11.6622974 23.6324877,14.2169715 L23.6324877,14.2169715 Z" id="svg_4"></path>
                    <path d="M50.5612549,9.14950432 L48.9698242,10.9922192 C48.0903418,10.1127416 46.959585,9.5683032 45.7450683,9.5683032 C44.6561914,9.5683032 43.8604736,9.98710208 43.8604736,10.8665784 C43.8604736,11.6204139 44.4049022,11.9973365 45.7031835,12.499895 L47.0014598,13.0443334 C49.5142578,14.0913317 50.7706493,15.1802038 50.7706493,17.1904394 C50.7706493,19.9545117 48.4253808,21.4203075 45.6613035,21.4203075 C43.2322752,21.4203075 41.2639206,20.2895531 40.0912864,18.7399926 L41.7664792,16.8972814 C42.8553562,18.0280358 44.0698728,18.8656334 45.6194333,18.8656334 C46.8339499,18.8656334 47.8390622,18.363076 47.8390622,17.316079 C47.8390622,16.4366003 47.0433445,16.0596838 45.9125827,15.5990026 L44.5305563,15.0126867 C42.3109128,14.0913317 40.9288864,13.0862096 40.9288864,10.9922192 C40.9288864,8.43754448 43.0647605,7.01363152 45.7869528,7.01363152 C47.7971774,7.01363152 49.388608,7.76746752 50.5612546,9.14950432 L50.5612549,9.14950432 Z" id="svg_5"></path>
                    <path d="M69.3653125,15.1802038 L59.1047461,15.1802038 C59.4816602,17.4417139 61.2406202,18.781875 63.5858984,18.781875 C65.1773291,18.781875 66.4337206,18.1536768 67.6063525,17.148556 L69.0302782,19.1587904 C67.5644824,20.5408302 65.7217578,21.378423 63.5440136,21.378423 C59.2722656,21.378423 56.1312694,18.2793117 56.1312694,14.1750893 C56.1312694,10.1546194 59.2303808,6.97174944 63.2508494,6.97174944 C66.936289,6.97174944 69.6165965,9.65205824 69.6165965,13.2956093 C69.5747117,14.0494483 69.4490622,14.8032875 69.3653123,15.180204 L69.3653125,15.1802038 Z M59.1466259,12.8768102 L66.643125,12.8768102 C66.6012402,10.6990576 64.9679248,9.5264208 63.1252149,9.5264208 C61.1568555,9.48454464 59.6072949,10.8246997 59.1466259,12.8768102 L59.1466259,12.8768102 Z" id="svg_6"></path>
                    <path d="M79.583999,19.2425562 C79.583999,20.4989526 78.6207666,21.4203077 77.4062403,21.4203077 C76.1917286,21.4203077 75.1866114,20.540835 75.1866114,19.2425562 C75.1866114,17.986161 76.1498438,17.0648035 77.4062403,17.0648035 C78.6207667,17.0229211 79.583999,17.986161 79.583999,19.2425562 Z" id="svg_7"></path>
                </g>
            </g>
        </g>
    </g>
</svg>