<?xml version="1.0" encoding="UTF-8"?>
<svg width="143px" height="26px" viewBox="0 0 143 26" version="1.1" xmlns="http://www.w3.org/2000/svg" xmlns:xlink="http://www.w3.org/1999/xlink">
    <title>earlybird-logo-dark</title>
    <g id="v3.0" stroke="none" stroke-width="1" fill="none" fill-rule="evenodd">
        <g id="00-landing-page-light" transform="translate(-602.000000, -1321.000000)" fill="#121212">
            <g id="previously" transform="translate(336.000000, 1289.000000)">
                <g id="earlybird-logo-dark" transform="translate(266.000000, 32.000000)">
                    <path d="M45.6974769,20.8625 L36,20.8625 L36,6.345725 L45.6974769,6.345725 L45.6974769,8.024675 L37.8402462,8.024675 L37.8402462,12.447275 L43.7745231,12.447275 L43.7745231,14.167175 L37.8402462,14.167175 L37.8402462,19.18355 L45.6974769,19.18355 L45.6974769,20.8625 Z M58.1420308,20.760125 C57.7698462,20.9444 57.4183385,21.005825 56.9841231,21.005825 C56.0536615,21.005825 55.4333538,20.309675 55.4333538,19.42925 L55.392,19.42925 C54.7716923,20.473475 53.4070154,21.128675 51.9389538,21.128675 C49.4370462,21.128675 48.3204923,19.5521 48.3204923,18.0779 C48.3204923,16.542275 49.3956923,14.84285 52.0630154,14.699525 L55.3299692,14.51525 L55.3299692,13.757675 C55.3299692,13.2458 55.2679385,12.692975 54.7923692,12.263 C54.4408615,11.9354 53.8825846,11.669225 53.0348308,11.669225 C52.0836923,11.669225 51.4840615,11.955875 51.1325538,12.30395 C50.8017231,12.63155 50.6156308,12.979625 50.5742769,13.511975 L48.8374154,13.511975 C48.8580923,12.63155 49.2509538,11.9354 49.8092308,11.382575 C50.5329231,10.66595 51.7528615,10.235975 53.0348308,10.235975 C55.0611692,10.235975 56.2604308,11.15735 56.7566769,12.283475 C56.9634462,12.7544 57.0668308,13.225325 57.0668308,13.8191 L57.0668308,18.835475 C57.0668308,19.3883 57.3356308,19.531625 57.6871385,19.531625 C57.8732308,19.531625 58.1420308,19.4702 58.1420308,19.4702 L58.1420308,20.760125 Z M55.3299692,16.48085 L55.3299692,15.8666 L52.4352,16.0304 C51.3186462,16.091825 50.1193846,16.624175 50.1193846,17.934575 C50.1193846,18.85595 50.7190154,19.654475 52.2077538,19.654475 C53.0141538,19.654475 53.8412308,19.3883 54.3995077,18.815 C55.0198154,18.180275 55.3299692,17.3408 55.3299692,16.48085 Z M70.2084923,14.003375 L68.4096,14.003375 C68.4096,13.430075 68.2235077,12.897725 67.8513231,12.488225 C67.4998154,12.0992 66.9622154,11.81255 66.1971692,11.81255 C65.1426462,11.81255 64.2121846,12.611075 63.7986462,13.5734 C63.4678154,14.35145 63.3437538,15.41615 63.3437538,16.255625 L63.3437538,20.8625 L61.5655385,20.8625 L61.5655385,10.50215 L63.1163077,10.50215 L63.2610462,12.05825 C63.9227077,10.809275 65.2667077,10.235975 66.5693538,10.235975 C67.9753846,10.235975 68.9678769,10.932125 69.5468308,11.751125 C70.0430769,12.46775 70.2084923,13.266275 70.2084923,14.003375 Z M81.0756923,20.8625 L71.9571692,20.8625 L71.9571692,19.3883 L75.6376615,19.3883 L75.6376615,7.533275 L72.2673231,7.533275 L72.2673231,6.07955 L77.4158769,6.07955 L77.4158769,19.3883 L81.0756923,19.3883 L81.0756923,20.8625 Z M93.9293538,10.50215 L88.8014769,22.9919 C88.2638769,24.3023 87.4781538,25.223675 85.9067077,25.223675 C85.0382769,25.223675 84.3145846,24.99845 84.0251077,24.83465 L84.0251077,23.339975 C84.0251077,23.339975 84.8521846,23.6471 85.5345231,23.6471 C86.2788923,23.6471 86.8164923,23.380925 87.1266462,22.602875 L87.8296615,20.8625 L83.2600615,10.50215 L85.4311385,10.50215 L88.8014769,18.7331 L91.9236923,10.50215 L93.9293538,10.50215 Z M106.389115,15.7028 C106.389115,17.4227 105.851515,18.93785 104.859022,19.941125 C104.176684,20.637275 103.122161,21.128675 101.840191,21.128675 C100.661607,21.128675 99.2348992,20.555375 98.6352684,19.51115 L98.5112068,20.8625 L96.9604376,20.8625 L96.9604376,6.07955 L98.7179761,6.07955 L98.7179761,11.710175 C99.2969299,10.850225 100.537545,10.235975 101.840191,10.235975 C103.122161,10.235975 104.114653,10.727375 104.796991,11.3621 C105.851515,12.365375 106.389115,13.921475 106.389115,15.7028 Z M104.590222,15.682325 C104.590222,14.4743 104.259391,13.3277 103.473668,12.54965 C103.018776,12.0992 102.419145,11.751125 101.550715,11.751125 C100.785668,11.751125 100.206715,12.05825 99.7931761,12.4268 C98.9247453,13.184375 98.6145915,14.3924 98.6145915,15.682325 C98.6145915,16.97225 98.9247453,18.180275 99.7931761,18.93785 C100.206715,19.3064 100.785668,19.613525 101.550715,19.613525 C102.419145,19.613525 103.06013,19.326875 103.515022,18.876425 C104.300745,18.098375 104.590222,16.89035 104.590222,15.682325 Z M115.050836,8.53655 L112.548928,8.53655 L112.548928,6.07955 L115.050836,6.07955 L115.050836,8.53655 Z M118.88093,20.8625 L109.514284,20.8625 L109.514284,19.367825 L113.298161,19.367825 L113.298161,11.97635 L109.927822,11.97635 L109.927822,10.50215 L115.076376,10.50215 L115.076376,19.367825 L118.88093,19.367825 L118.88093,20.8625 Z M131.044868,14.003375 L129.245976,14.003375 C129.245976,13.430075 129.059884,12.897725 128.687699,12.488225 C128.336191,12.0992 127.798591,11.81255 127.033545,11.81255 C125.979022,11.81255 125.048561,12.611075 124.635022,13.5734 C124.304191,14.35145 124.18013,15.41615 124.18013,16.255625 L124.18013,20.8625 L122.401915,20.8625 L122.401915,10.50215 L123.952684,10.50215 L124.097422,12.05825 C124.759084,10.809275 126.103084,10.235975 127.40573,10.235975 C128.811761,10.235975 129.804253,10.932125 130.383207,11.751125 C130.879453,12.46775 131.044868,13.266275 131.044868,14.003375 Z M142.677552,20.8625 L141.126783,20.8625 L141.002721,19.51115 C140.403091,20.555375 138.976383,21.128675 137.797798,21.128675 C136.515829,21.128675 135.440629,20.6168 134.758291,19.92065 C133.765798,18.917375 133.248875,17.4227 133.248875,15.7028 C133.248875,13.921475 133.807152,12.406325 134.861675,11.40305 C135.544014,10.768325 136.557183,10.235975 137.839152,10.235975 C139.141798,10.235975 140.34106,10.850225 140.920014,11.710175 L140.920014,6.07955 L142.677552,6.07955 L142.677552,20.8625 Z M141.023398,15.682325 C141.023398,14.3924 140.713244,13.1639 139.844814,12.406325 C139.431275,12.037775 138.852321,11.751125 138.087275,11.751125 C137.218844,11.751125 136.619214,12.0992 136.164321,12.54965 C135.378598,13.3277 135.047768,14.4743 135.047768,15.682325 C135.047768,16.89035 135.357921,18.098375 136.143644,18.876425 C136.598537,19.326875 137.218844,19.613525 138.087275,19.613525 C138.852321,19.613525 139.431275,19.326875 139.844814,18.958325 C140.713244,18.20075 141.023398,16.97225 141.023398,15.682325 Z" id="Earlybird" stroke="#121212" stroke-width="0.25"></path>
                    <path d="M23.2888376,0 C24.2008704,2.299908 24.3368753,4.89880405 23.0968307,7.14504753 C21.7767833,9.39895738 19.8327133,10.0122662 17.2566207,10.9628948 C19.9767185,10.8938976 22.0567933,10.5182459 23.7368538,8.59398957 C23.6408503,10.7559031 22.6168135,12.925483 20.7207453,14.2824287 C17.8726428,16.2833487 14.3445159,17.5406317 10.8003885,17.2263109 C14.040505,18.4145967 17.6886362,17.6709598 20.5927407,15.9996933 C19.6087053,20.3541858 15.1765459,23.3057344 10.8963919,23.5127262 L10.7923882,23.5127262 C11.5524155,24.4480221 12.1604374,24.9923336 12.1844382,25 C9.45634012,24.4710212 7.00025178,23.08341 5.30419078,21.5808034 C5.32019135,21.7954615 5.36019279,22.0254523 5.42419509,22.2554431 C3.79213639,21.0211592 2.76809956,19.6182153 2.91210474,17.8472861 C2.92810532,17.8549525 2.9361056,17.8626188 2.95210618,17.8702852 C2.96010647,17.2569764 3.30411884,16.7893284 4.06414618,16.5746703 C5.68820459,16.1990187 7.05625379,15.7313707 8.05628976,15.33272 C9.02432458,13.5311254 10.5123781,11.9288562 12.1524371,10.5182459 C14.9765387,8.14167433 18.128652,5.98742717 20.936753,3.49586017 C22.0647936,2.49923336 23.0088276,1.341613 23.2888376,0 Z M0,8.86997853 C0.440015826,9.18429929 1.00803626,9.54461822 1.72806215,9.85893898 C2.56009208,10.2269243 3.32011942,10.4109169 3.91214071,10.5182459 C2.84010215,11.3998773 2.60809381,11.6758663 2.63209467,11.7371972 C2.75209899,11.8981907 4.76017121,10.1349279 6.6642397,10.5105796 C7.84828228,10.7482367 8.27229753,10.9628948 8.27229753,10.9628948 C9.65634731,11.6222018 9.59234501,11.3692119 10.3443721,11.2925483 C9.21633149,12.4195032 8.12829235,13.5387918 7.47226876,14.6657467 C6.59223711,15.0873965 5.31219107,15.5933763 3.72813409,15.9536952 L3.70413323,15.9613615 C2.38408575,16.3140141 2.24008057,17.2723091 2.24008057,17.6709598 C2.24008057,17.8626188 2.24008057,17.9239497 2.29608258,18.1309414 C1.66405985,17.5099663 1.60805784,15.9230297 1.60805784,15.8157007 C0.96003453,12.9101503 0.648023308,11.775529 0,8.86997853 Z" id="Combined-Shape" fill-rule="nonzero"></path>
                </g>
            </g>
        </g>
    </g>
</svg>