<?xml version="1.0" encoding="UTF-8"?>
<svg width="192px" height="40px" viewBox="0 0 192 40" version="1.1" xmlns="http://www.w3.org/2000/svg" xmlns:xlink="http://www.w3.org/1999/xlink">
    <title>earlybird-logo</title>
    <g id="v3.0" stroke="none" stroke-width="1" fill="none" fill-rule="evenodd">
        <g id="00-landing-page-light" transform="translate(-336.000000, -769.000000)" fill="#0775ED">
            <g id="earlybird" transform="translate(336.000000, 688.000000)">
                <g id="earlybird-logo" transform="translate(0.000000, 81.000000)">
                    <path d="M61.9638154,33.15 L49.0338462,33.15 L49.0338462,13.7943 L61.9638154,13.7943 L61.9638154,16.0329 L51.4875077,16.0329 L51.4875077,21.9297 L59.3998769,21.9297 L59.3998769,24.2229 L51.4875077,24.2229 L51.4875077,30.9114 L61.9638154,30.9114 L61.9638154,33.15 Z M78.5565538,33.0135 C78.0603077,33.2592 77.5916308,33.3411 77.0126769,33.3411 C75.7720615,33.3411 74.9449846,32.4129 74.9449846,31.239 L74.8898462,31.239 C74.0627692,32.6313 72.2432,33.5049 70.2857846,33.5049 C66.9499077,33.5049 65.4611692,31.4028 65.4611692,29.4372 C65.4611692,27.3897 66.8947692,25.1238 70.4512,24.9327 L74.8071385,24.687 L74.8071385,23.6769 C74.8071385,22.9944 74.7244308,22.2573 74.0903385,21.684 C73.6216615,21.2472 72.8772923,20.8923 71.7469538,20.8923 C70.4787692,20.8923 69.6792615,21.2745 69.2105846,21.7386 C68.7694769,22.1754 68.5213538,22.6395 68.4662154,23.3493 L66.1504,23.3493 C66.1779692,22.1754 66.7017846,21.2472 67.4461538,20.5101 C68.4110769,19.5546 70.0376615,18.9813 71.7469538,18.9813 C74.4487385,18.9813 76.0477538,20.2098 76.7094154,21.7113 C76.9851077,22.3392 77.1229538,22.9671 77.1229538,23.7588 L77.1229538,30.4473 C77.1229538,31.1844 77.4813538,31.3755 77.9500308,31.3755 C78.1981538,31.3755 78.5565538,31.2936 78.5565538,31.2936 L78.5565538,33.0135 Z M74.8071385,27.3078 L74.8071385,26.4888 L70.9474462,26.7072 C69.4587077,26.7891 67.8596923,27.4989 67.8596923,29.2461 C67.8596923,30.4746 68.6592,31.5393 70.6441846,31.5393 C71.7193846,31.5393 72.8221538,31.1844 73.5665231,30.42 C74.3936,29.5737 74.8071385,28.4544 74.8071385,27.3078 Z M94.6451692,24.0045 L92.2466462,24.0045 C92.2466462,23.2401 91.9985231,22.5303 91.5022769,21.9843 C91.0336,21.4656 90.3168,21.0834 89.2967385,21.0834 C87.8907077,21.0834 86.6500923,22.1481 86.0987077,23.4312 C85.6576,24.4686 85.4921846,25.8882 85.4921846,27.0075 L85.4921846,33.15 L83.1212308,33.15 L83.1212308,19.3362 L85.1889231,19.3362 L85.3819077,21.411 C86.2641231,19.7457 88.0561231,18.9813 89.7929846,18.9813 C91.6676923,18.9813 92.9910154,19.9095 93.7629538,21.0015 C94.4246154,21.957 94.6451692,23.0217 94.6451692,24.0045 Z M109.134769,33.15 L96.9767385,33.15 L96.9767385,31.1844 L101.884062,31.1844 L101.884062,15.3777 L97.3902769,15.3777 L97.3902769,13.4394 L104.255015,13.4394 L104.255015,31.1844 L109.134769,31.1844 L109.134769,33.15 Z M126.272985,19.3362 L119.435815,35.9892 C118.719015,37.7364 117.671385,38.9649 115.576123,38.9649 C114.418215,38.9649 113.453292,38.6646 113.067323,38.4462 L113.067323,36.4533 C113.067323,36.4533 114.170092,36.8628 115.079877,36.8628 C116.072369,36.8628 116.789169,36.5079 117.202708,35.4705 L118.140062,33.15 L112.047262,19.3362 L114.942031,19.3362 L119.435815,30.3108 L123.598769,19.3362 L126.272985,19.3362 Z M142.885999,26.2704 C142.885999,28.5636 142.169199,30.5838 140.845876,31.9215 C139.936091,32.8497 138.53006,33.5049 136.820768,33.5049 C135.249322,33.5049 133.347045,32.7405 132.547537,31.3482 L132.382122,33.15 L130.31443,33.15 L130.31443,13.4394 L132.657814,13.4394 L132.657814,20.9469 C133.429753,19.8003 135.083907,18.9813 136.820768,18.9813 C138.53006,18.9813 139.853383,19.6365 140.763168,20.4828 C142.169199,21.8205 142.885999,23.8953 142.885999,26.2704 Z M140.487476,26.2431 C140.487476,24.6324 140.046368,23.1036 138.998737,22.0662 C138.392214,21.4656 137.592707,21.0015 136.434799,21.0015 C135.414737,21.0015 134.642799,21.411 134.091414,21.9024 C132.933507,22.9125 132.519968,24.5232 132.519968,26.2431 C132.519968,27.963 132.933507,29.5737 134.091414,30.5838 C134.642799,31.0752 135.414737,31.4847 136.434799,31.4847 C137.592707,31.4847 138.447353,31.1025 139.053876,30.5019 C140.101507,29.4645 140.487476,27.8538 140.487476,26.2431 Z M154.43496,16.7154 L151.099084,16.7154 L151.099084,13.4394 L154.43496,13.4394 L154.43496,16.7154 Z M159.541753,33.15 L147.052891,33.15 L147.052891,31.1571 L152.09806,31.1571 L152.09806,21.3018 L147.604276,21.3018 L147.604276,19.3362 L154.469014,19.3362 L154.469014,31.1571 L159.541753,31.1571 L159.541753,33.15 Z M175.760337,24.0045 L173.361814,24.0045 C173.361814,23.2401 173.113691,22.5303 172.617445,21.9843 C172.148768,21.4656 171.431968,21.0834 170.411907,21.0834 C169.005876,21.0834 167.76526,22.1481 167.213876,23.4312 C166.772768,24.4686 166.607353,25.8882 166.607353,27.0075 L166.607353,33.15 L164.236399,33.15 L164.236399,19.3362 L166.304091,19.3362 L166.497076,21.411 C167.379291,19.7457 169.171291,18.9813 170.908153,18.9813 C172.78286,18.9813 174.106183,19.9095 174.878122,21.0015 C175.539783,21.957 175.760337,23.0217 175.760337,24.0045 Z M191.270582,33.15 L189.20289,33.15 L189.037475,31.3482 C188.237967,32.7405 186.33569,33.5049 184.764244,33.5049 C183.054952,33.5049 181.621352,32.8224 180.711567,31.8942 C179.388244,30.5565 178.699013,28.5636 178.699013,26.2704 C178.699013,23.8953 179.443382,21.8751 180.849413,20.5374 C181.759198,19.6911 183.11009,18.9813 184.819382,18.9813 C186.556244,18.9813 188.155259,19.8003 188.927198,20.9469 L188.927198,13.4394 L191.270582,13.4394 L191.270582,33.15 Z M189.065044,26.2431 C189.065044,24.5232 188.651505,22.8852 187.493598,21.8751 C186.942213,21.3837 186.170275,21.0015 185.150213,21.0015 C183.992305,21.0015 183.192798,21.4656 182.586275,22.0662 C181.538644,23.1036 181.097536,24.6324 181.097536,26.2431 C181.097536,27.8538 181.511075,29.4645 182.558705,30.5019 C183.165229,31.1025 183.992305,31.4847 185.150213,31.4847 C186.170275,31.4847 186.942213,31.1025 187.493598,30.6111 C188.651505,29.601 189.065044,27.963 189.065044,26.2431 Z" id="Earlybird" stroke="#0775ED" stroke-width="0.787692319"></path>
                    <path d="M35.3512612,0 C36.7356803,3.58785649 36.9421287,7.64213431 35.0598046,11.1462741 C33.0560402,14.6623735 30.1050418,15.6191352 26.1946652,17.1021159 C30.3236343,16.9944802 33.4810812,16.4084637 36.0313267,13.4066237 C35.8855984,16.7792088 34.331163,20.1637534 31.4530287,22.2805888 C27.1297553,25.4020239 21.7742396,27.3633855 16.3944358,26.8730451 C21.3127666,28.7267709 26.8504427,27.5666973 31.2587243,24.9595216 C29.765009,31.7525299 23.0372183,36.3569457 16.5401641,36.6798528 L16.3822918,36.6798528 C17.5359743,38.1389144 18.4589203,38.9880405 18.4953524,39 C14.3542394,38.174793 10.6260232,36.0101196 8.05148959,33.6660534 C8.07577764,34.00092 8.13649778,34.3597056 8.23364999,34.7184913 C5.75626858,32.7930083 4.20183318,30.6044158 4.42042566,27.8417663 C4.44471371,27.8537259 4.45685774,27.8656854 4.48114579,27.8776449 C4.49328982,26.9208832 5.01548296,26.1913523 6.16916548,25.8564857 C8.63440286,25.2704692 10.7110314,24.5409384 12.2290347,23.9190432 C13.6984619,21.1085557 15.9572509,18.6090156 18.4467763,16.4084637 C22.7336177,12.701012 27.5183641,9.34038638 31.7809174,5.45354186 C33.4932252,3.89880405 34.9262203,2.09291628 35.3512612,0 Z M2.13162821e-14,13.8371665 C0.667921459,14.3275069 1.53014734,14.8896044 2.62310973,15.3799448 C3.88608849,15.9540018 5.03977101,16.2410304 5.93842897,16.4084637 C4.31112942,17.7838086 3.95895265,18.2143514 3.99538473,18.3100276 C4.17754513,18.5611776 7.22569579,15.8104876 10.1159741,16.3965041 C11.91329,16.7672493 12.5569234,17.1021159 12.5569234,17.1021159 C14.65784,18.1306348 14.5606878,17.7359706 15.7022263,17.6163753 C13.9899186,19.374425 12.338331,21.1205152 11.3425208,22.8785649 C10.0066779,23.5363385 8.06363362,24.325667 5.65911636,24.8877645 L5.62268428,24.899724 C3.61891991,25.449862 3.40032743,26.9448022 3.40032743,27.5666973 C3.40032743,27.8656854 3.40032743,27.9613615 3.48533561,28.2842686 C2.52595752,27.3155474 2.44094933,24.8399264 2.44094933,24.6724931 C1.45728318,20.1398344 0.983666149,18.3698252 2.13162821e-14,13.8371665 Z" id="Combined-Shape" fill-rule="nonzero"></path>
                </g>
            </g>
        </g>
    </g>
</svg>