<?xml version="1.0" encoding="UTF-8"?>
<svg width="32px" height="32px" viewBox="0 0 32 32" version="1.1" xmlns="http://www.w3.org/2000/svg" xmlns:xlink="http://www.w3.org/1999/xlink">
    <!-- Generator: Sketch 52.2 (67145) - http://www.bohemiancoding.com/sketch -->
    <title>icon-linkedin</title>
    <desc>Created with Sketch.</desc>
    <g id="Symbols" stroke="none" stroke-width="1" fill="none" fill-rule="evenodd">
        <g id="v2.0-/-footer" transform="translate(-716.000000, -80.000000)">
            <g id="footer">
                <g id="social-media-icons" transform="translate(636.000000, 80.000000)">
                    <g id="icon-linkedin" transform="translate(80.000000, 0.000000)">
                        <rect id="Background,-8px" stroke="#FFFFFF" stroke-width="0.666666667" x="0.333333333" y="0.333333333" width="31.3333333" height="31.3333333" rx="5.33333333"></rect>
                        <g id="Linkedin" transform="translate(6.666667, 6.666667)" fill="#FFFFFF">
                            <path d="M0.771637427,18.1004444 L4.65233918,18.1004444 L4.65233918,6.26888889 L0.771637427,6.26888889 L0.771637427,18.1004444 Z M2.7119883,4.65422222 C4.06491228,4.65422222 4.90818713,3.74474074 4.90818713,2.61022222 C4.88260234,1.44977778 4.06491228,0.566222222 2.7375731,0.566222222 C1.41023392,0.566222222 0.542397661,1.44977778 0.542397661,2.61022222 C0.542397661,3.74474074 1.38464912,4.65422222 2.6874269,4.65422222 L2.7119883,4.65422222 L2.7119883,4.65422222 Z" id="Fill-1"></path>
                            <path d="M6.8004386,18.1004444 L10.6811404,18.1004444 L10.6811404,11.4934815 C10.6811404,11.1398519 10.7057018,10.7862222 10.8090643,10.5342222 C11.0894737,9.828 11.7280702,9.09585185 12.7995614,9.09585185 C14.2046784,9.09585185 14.7654971,10.1805926 14.7654971,11.7714074 L14.7654971,18.1004444 L18.6461988,18.1004444 L18.6461988,11.3171852 C18.6461988,7.68237037 16.7314327,5.992 14.1780702,5.992 C12.0852339,5.992 11.1652047,7.17733333 10.6555556,7.98518519 L10.6811404,7.98518519 L10.6811404,6.26888889 L6.8004386,6.26888889 C6.8505848,7.37955556 6.8004386,18.1004444 6.8004386,18.1004444" id="Fill-2"></path>
                        </g>
                    </g>
                </g>
            </g>
        </g>
    </g>
</svg>