<?xml version="1.0" encoding="UTF-8"?>
<svg width="34px" height="34px" viewBox="0 0 34 34" version="1.1" xmlns="http://www.w3.org/2000/svg" xmlns:xlink="http://www.w3.org/1999/xlink">
    <!-- Generator: Sketch 61 (89581) - https://sketch.com -->
    <title>icon-letterboxd</title>
    <desc>Created with Sketch.</desc>
    <defs>
        <rect id="path-1" x="0" y="0" width="9.20922474" height="10.0278225"></rect>
        <rect id="path-3" x="0" y="0" width="9.20922474" height="10.0278225"></rect>
    </defs>
    <g id="Symbols" stroke="none" stroke-width="1" fill="none" fill-rule="evenodd">
        <g id="v2.0-/-footer" transform="translate(-835.000000, -79.000000)">
            <g id="footer">
                <g id="social-media-icons" transform="translate(636.000000, 80.000000)">
                    <g id="icon-letterboxd" transform="translate(200.000000, 0.000000)">
                        <rect id="Background,-8px" stroke="#FFFFFF" stroke-width="0.666666667" x="0" y="0" width="32" height="32.3265306" rx="5.33333333"></rect>
                        <g id="Dots" transform="translate(3.000000, 11.000000)">
                            <ellipse id="Green" fill="#FFFFFF" fill-rule="nonzero" cx="13.4045383" cy="4.96274889" rx="4.97022205" ry="4.96274889"></ellipse>
                            <g id="Blue" transform="translate(17.599852, 0.000000)">
                                <g id="Clipped">
                                    <mask id="mask-2" fill="white">
                                        <use xlink:href="#path-1"></use>
                                    </mask>
                                    <g id="path-1"></g>
                                    <ellipse id="Oval" fill="#FFFFFF" fill-rule="nonzero" mask="url(#mask-2)" cx="4.23900271" cy="4.96274889" rx="4.97022205" ry="4.96274889"></ellipse>
                                </g>
                            </g>
                            <g id="Orange">
                                <g id="Clipped">
                                    <mask id="mask-4" fill="white">
                                        <use xlink:href="#path-3"></use>
                                    </mask>
                                    <g id="path-3"></g>
                                    <ellipse id="Oval" fill="#FFFFFF" fill-rule="nonzero" mask="url(#mask-4)" cx="4.97022205" cy="4.96274889" rx="4.97022205" ry="4.96274889"></ellipse>
                                </g>
                            </g>
                            <path d="M9.18738017,7.59039029 C8.71014789,6.82838298 8.43431619,5.92772947 8.43431619,4.96274889 C8.43431619,3.99776832 8.71014789,3.09711482 9.18738017,2.33510751 C9.66461244,3.09711482 9.94044408,3.99776832 9.94044408,4.96274889 C9.94044408,5.92772947 9.66461244,6.82838298 9.18738017,7.59039029 Z" id="Overlap" fill="#333333" fill-rule="nonzero"></path>
                            <path d="M17.6216964,2.33510751 C18.0989286,3.09711482 18.3747603,3.99776832 18.3747603,4.96274889 C18.3747603,5.92772947 18.0989286,6.82838298 17.6216964,7.59039029 C17.1444641,6.82838298 16.8686324,5.92772947 16.8686324,4.96274889 C16.8686324,3.99776832 17.1444641,3.09711482 17.6216964,2.33510751 Z" id="Overlap" fill="#333333" fill-rule="nonzero"></path>
                        </g>
                    </g>
                </g>
            </g>
        </g>
    </g>
</svg>