<?xml version="1.0" encoding="UTF-8"?>
<svg width="32px" height="32px" viewBox="0 0 32 32" version="1.1" xmlns="http://www.w3.org/2000/svg" xmlns:xlink="http://www.w3.org/1999/xlink">
    <!-- Generator: Sketch 52.2 (67145) - http://www.bohemiancoding.com/sketch -->
    <title>icon-instagram</title>
    <desc>Created with Sketch.</desc>
    <g id="Symbols" stroke="none" stroke-width="1" fill="none" fill-rule="evenodd">
        <g id="v2.0-/-footer" transform="translate(-676.000000, -80.000000)">
            <g id="footer">
                <g id="social-media-icons" transform="translate(636.000000, 80.000000)">
                    <g id="icon-instagram" transform="translate(40.000000, 0.000000)">
                        <rect id="Background,-8px" stroke="#FFFFFF" stroke-width="0.666666667" x="0.333333333" y="0.333333333" width="31.3333333" height="31.3333333" rx="5.33333333"></rect>
                        <path d="M16.0000212,5.33333333 C18.8968927,5.33333333 19.2601396,5.34561234 20.397853,5.3975229 C21.5331953,5.44930643 22.3085934,5.62963845 22.987072,5.89334069 C23.6884996,6.16589228 24.2833539,6.5306211 24.8763876,7.12361241 C25.4693789,7.71664606 25.8341077,8.31150039 26.1067017,9.01292802 C26.3703615,9.69140661 26.5506936,10.4668047 26.6024771,11.602147 C26.6543877,12.7398604 26.6666667,13.1031073 26.6666667,16.0000212 C26.6666667,18.8968927 26.6543877,19.2601396 26.6024771,20.397853 C26.5506936,21.5331953 26.3703615,22.3085934 26.1067017,22.987072 C25.8341077,23.6884996 25.4693789,24.2833539 24.8763876,24.8763876 C24.2833539,25.4693789 23.6884996,25.8341077 22.987072,26.1067017 C22.3085934,26.3703615 21.5331953,26.5506936 20.397853,26.6024771 C19.2601396,26.6543877 18.8968927,26.6666667 16.0000212,26.6666667 C13.1031073,26.6666667 12.7398604,26.6543877 11.602147,26.6024771 C10.4668047,26.5506936 9.69140661,26.3703615 9.01292802,26.1067017 C8.31150039,25.8341077 7.71664606,25.4693789 7.12361241,24.8763876 C6.5306211,24.2833539 6.16589228,23.6884996 5.89334069,22.987072 C5.62963845,22.3085934 5.44930643,21.5331953 5.3975229,20.397853 C5.34561234,19.2601396 5.33333333,18.8968927 5.33333333,16.0000212 C5.33333333,13.1031073 5.34561234,12.7398604 5.3975229,11.602147 C5.44930643,10.4668047 5.62963845,9.69140661 5.89334069,9.01292802 C6.16589228,8.31150039 6.5306211,7.71664606 7.12361241,7.12361241 C7.71664606,6.5306211 8.31150039,6.16589228 9.01292802,5.89334069 C9.69140661,5.62963845 10.4668047,5.44930643 11.602147,5.3975229 C12.7398604,5.34561234 13.1031073,5.33333333 16.0000212,5.33333333 Z M16.0000212,7.25525182 C13.1518846,7.25525182 12.8145083,7.26613356 11.6897513,7.31745134 C10.6497619,7.36487371 10.0849699,7.53864281 9.70910532,7.68472064 C9.2112128,7.87822084 8.85588377,8.10936254 8.48264433,8.48264433 C8.10936254,8.85588377 7.87822084,9.2112128 7.68472064,9.70910532 C7.53864281,10.0849699 7.36487371,10.6497619 7.31745134,11.6897513 C7.26613356,12.8145083 7.25525182,13.1518846 7.25525182,16.0000212 C7.25525182,18.8481154 7.26613356,19.1854917 7.31745134,20.3102487 C7.36487371,21.3502381 7.53864281,21.9150301 7.68472064,22.2908947 C7.87822084,22.7887872 8.10940489,23.1441162 8.48264433,23.5173557 C8.85588377,23.8906375 9.2112128,24.1217792 9.70910532,24.3152794 C10.0849699,24.4613572 10.6497619,24.6351263 11.6897513,24.6825487 C12.8143813,24.7338664 13.1516728,24.7447482 16.0000212,24.7447482 C18.8483272,24.7447482 19.1856611,24.7338664 20.3102487,24.6825487 C21.3502381,24.6351263 21.9150301,24.4613572 22.2908947,24.3152794 C22.7887872,24.1217792 23.1441162,23.8906375 23.5173557,23.5173557 C23.8906375,23.1441162 24.1217792,22.7887872 24.3152794,22.2908947 C24.4613572,21.9150301 24.6351263,21.3502381 24.6825487,20.3102487 C24.7338664,19.1854917 24.7447482,18.8481154 24.7447482,16.0000212 C24.7447482,13.1518846 24.7338664,12.8145083 24.6825487,11.6897513 C24.6351263,10.6497619 24.4613572,10.0849699 24.3152794,9.70910532 C24.1217792,9.2112128 23.8906375,8.85588377 23.5173557,8.48264433 C23.1441162,8.10936254 22.7887872,7.87822084 22.2908947,7.68472064 C21.9150301,7.53864281 21.3502381,7.36487371 20.3102487,7.31745134 C19.1854917,7.26613356 18.8481154,7.25525182 16.0000212,7.25525182 Z M16.0000212,10.522526 C19.0251448,10.522526 21.477474,12.9748552 21.477474,16.0000212 C21.477474,19.0251448 19.0251448,21.477474 16.0000212,21.477474 C12.9748552,21.477474 10.522526,19.0251448 10.522526,16.0000212 C10.522526,12.9748552 12.9748552,10.522526 16.0000212,10.522526 Z M16.0000212,19.5555556 C17.9636883,19.5555556 19.5555556,17.9636883 19.5555556,16.0000212 C19.5555556,14.0363117 17.9636883,12.4444444 16.0000212,12.4444444 C14.0363117,12.4444444 12.4444444,14.0363117 12.4444444,16.0000212 C12.4444444,17.9636883 14.0363117,19.5555556 16.0000212,19.5555556 Z M22.9739038,10.3061191 C22.9739038,11.0130511 22.400813,11.5860996 21.6938809,11.5860996 C20.9869913,11.5860996 20.4139004,11.0130511 20.4139004,10.3061191 C20.4139004,9.59918705 20.9869913,9.0260962 21.6938809,9.0260962 C22.400813,9.0260962 22.9739038,9.59918705 22.9739038,10.3061191 Z" id="Instagram" fill="#FFFFFF"></path>
                    </g>
                </g>
            </g>
        </g>
    </g>
</svg>