<?xml version="1.0" encoding="UTF-8"?>
<svg width="32px" height="32px" viewBox="0 0 32 32" version="1.1" xmlns="http://www.w3.org/2000/svg" xmlns:xlink="http://www.w3.org/1999/xlink">
    <!-- Generator: Sketch 52.2 (67145) - http://www.bohemiancoding.com/sketch -->
    <title>icon-twitter</title>
    <desc>Created with Sketch.</desc>
    <g id="Symbols" stroke="none" stroke-width="1" fill="none" fill-rule="evenodd">
        <g id="v2.0-/-footer" transform="translate(-756.000000, -80.000000)">
            <g id="footer">
                <g id="social-media-icons" transform="translate(636.000000, 80.000000)">
                    <g id="icon-twitter" transform="translate(120.000000, 0.000000)">
                        <rect id="Background,-8px" stroke="#FFFFFF" stroke-width="0.666666667" x="0.333333333" y="0.333333333" width="31.3333333" height="31.3333333" rx="5.33333333"></rect>
                        <path d="M23.5084848,10.4990741 C24.3166667,10.0055556 24.9384848,9.22314815 25.230303,8.29166667 C24.4739394,8.74907407 23.6357576,9.08055556 22.7430303,9.26018519 C22.0284848,8.48425926 21.0112121,8 19.8848485,8 C17.7212121,8 15.9675758,9.78611111 15.9675758,11.9888889 C15.9675758,12.3018519 16.0021212,12.6064815 16.0693939,12.8981481 C12.8139394,12.7324074 9.92757576,11.1435185 7.99575758,8.73055556 C7.65848485,9.31944444 7.46575758,10.0046296 7.46575758,10.7361111 C7.46575758,12.1194444 8.15757576,13.3407407 9.20848485,14.0564815 C8.56575758,14.0351852 7.96212121,13.8564815 7.43393939,13.5574074 L7.43393939,13.6074074 C7.43393939,15.5407407 8.78393939,17.1527778 10.5757576,17.5194444 C10.2466667,17.6101852 9.90121212,17.6592593 9.54393939,17.6592593 C9.29121212,17.6592593 9.04575758,17.6342593 8.80666667,17.587963 C9.30484848,19.1722222 10.7512121,20.3259259 12.4657576,20.3583333 C11.1248485,21.4277778 9.43666667,22.0657407 7.60121212,22.0657407 C7.28484848,22.0657407 6.9730303,22.0472222 6.66666667,22.0101852 C8.40030303,23.1416667 10.4593939,23.8018519 12.6712121,23.8018519 C19.8748485,23.8018519 23.8148485,17.7231481 23.8148485,12.4518519 C23.8148485,12.2787037 23.8112121,12.1064815 23.8039394,11.9361111 C24.5684848,11.3731481 25.2330303,10.6703704 25.7575758,9.87037037 C25.0557576,10.187963 24.300303,10.4027778 23.5084848,10.4990741 Z" id="Twitter-Icon" fill="#FFFFFF"></path>
                    </g>
                </g>
            </g>
        </g>
    </g>
</svg>