<?xml version="1.0" encoding="UTF-8"?>
<svg width="176px" height="41px" viewBox="0 0 176 41" version="1.1" xmlns="http://www.w3.org/2000/svg" xmlns:xlink="http://www.w3.org/1999/xlink">
    <title>keeper-logo</title>
    <defs>
        <polygon id="path-1" points="0.025631068 0.0307572816 175.753942 0.0307572816 175.753942 40.5568932 0.025631068 40.5568932"></polygon>
    </defs>
    <g id="v3.0" stroke="none" stroke-width="1" fill="none" fill-rule="evenodd">
        <g id="00-landing-page-light" transform="translate(-336.000000, -771.000000)">
            <g id="earlybird" transform="translate(336.000000, 688.000000)">
                <g id="keeper-logo" transform="translate(0.000000, 83.000000)">
                    <mask id="mask-2" fill="white">
                        <use xlink:href="#path-1"></use>
                    </mask>
                    <g id="Clip-2"></g>
                    <path d="M22.5818252,28.2924272 L22.5818252,37.9903689 L25.7139417,37.1911068 L25.7139417,32.8039223 L29.2164272,35.6844272 L31.8149903,33.7659417 L25.1427961,28.2791845 L22.5818252,28.2924272 Z M16.4577087,22.1657476 L16.4577087,37.9899417 L19.5898252,37.9899417 L19.5898252,25.2978641 L26.0539806,25.2978641 L33.8321553,31.5044272 L35.7860971,29.056233 L27.1509903,22.1657476 L16.4577087,22.1657476 Z M38.2607767,17.4351068 L36.2671068,15.0193786 L29.8606214,20.3062136 L36.2671068,25.5934757 L38.2607767,23.1773204 L34.7813592,20.3062136 L38.2607767,17.4351068 Z M10.2665243,35.7826796 L13.3986408,33.0576699 L13.3986408,7.82858252 L10.2665243,5.104 L10.2665243,35.7826796 Z M31.8149903,7.2736699 L29.2164272,5.35518447 L25.7139417,8.23526214 L25.7139417,3.84850485 L22.5818252,3.04881553 L22.5818252,12.7471845 L25.1427961,12.7604272 L31.8149903,7.2736699 Z M35.7860971,11.5561942 L33.8321553,9.10842718 L26.0539806,15.3149903 L19.5898252,15.3149903 L19.5898252,2.62248544 L16.4577087,2.62248544 L16.4577087,18.4471068 L27.1509903,18.4471068 L35.7860971,11.5561942 Z M4.13172816,14.728466 L7.26384466,11.8547961 L7.26384466,29.3052816 L4.13172816,26.6392233 L4.13172816,14.728466 L4.13172816,14.728466 Z" id="Fill-1" fill="#F7C224" mask="url(#mask-2)"></path>
                    <path d="M38.2607767,23.1773204 L34.7813592,20.3062136 L38.2607767,17.4351068 L36.2671068,15.0193786 L29.8606214,20.3062136 L36.2671068,25.5934757 L38.2607767,23.1773204 Z M35.7860971,29.056233 L27.1509903,22.1657476 L16.4577087,22.1657476 L16.4577087,37.9899417 L19.5898252,37.9899417 L19.5898252,25.2978641 L26.0539806,25.2978641 L33.8321553,31.5044272 L35.7860971,29.056233 Z M31.8149903,33.7659417 L25.1427961,28.2791845 L22.5818252,28.2924272 L22.5818252,37.9903689 L25.7139417,37.1911068 L25.7139417,32.8039223 L29.2164272,35.6844272 L31.8149903,33.7659417 Z M13.3986408,7.82858252 L10.2665243,5.104 L10.2665243,35.7826796 L13.3986408,33.0576699 L13.3986408,7.82858252 Z M7.26384466,11.8547961 L4.13172816,14.728466 L4.13172816,26.6392233 L7.26384466,29.3052816 L7.26384466,11.8547961 Z M16.4577087,18.4471068 L27.1509903,18.4471068 L35.7860971,11.5561942 L33.8321553,9.10842718 L26.0539806,15.3149903 L19.5898252,15.3149903 L19.5898252,2.62248544 L16.4577087,2.62248544 L16.4577087,18.4471068 Z M22.5818252,12.7471845 L25.1427961,12.7604272 L31.8149903,7.2736699 L29.2164272,5.35518447 L25.7139417,8.23526214 L25.7139417,3.84850485 L22.5818252,3.04881553 L22.5818252,12.7471845 Z M40.5513398,20.3062136 C40.5513398,31.5044272 31.4732427,40.5825243 20.2754563,40.5825243 C9.07724272,40.5825243 0,31.5044272 0,20.3062136 C0,9.10842718 9.07724272,0.0307572816 20.2754563,0.0307572816 C31.4732427,0.0307572816 40.5513398,9.10842718 40.5513398,20.3062136 Z M122.395612,11.5066408 L112.590019,11.5066408 L112.590019,29.1062136 L116.027146,29.1062136 L116.027146,14.4601942 L123.146175,14.4601942 C125.105243,14.4601942 126.825515,14.628932 126.825515,16.8810485 C126.825515,19.1566602 125.105243,19.3253981 123.146175,19.3253981 L119.08835,19.3253981 L117.326641,22.2798058 L122.395612,22.2798058 C125.373087,22.2798058 130.263068,22.2798058 130.263068,16.9049709 C130.263068,11.5066408 125.373087,11.5066408 122.395612,11.5066408 L122.395612,11.5066408 Z M166.841592,21.9410485 C169.431184,21.7953786 171.755922,20.0041942 171.755922,16.7605825 C171.755922,12.4502913 168.754097,11.5066408 164.59033,11.5066408 L154.01068,11.5066408 L154.01068,29.1062136 L157.44866,29.1062136 L157.44866,14.3636505 L164.081553,14.3636505 C166.890291,14.3636505 168.317515,14.7746019 168.317515,16.8323495 C168.317515,18.9148738 166.890291,19.3253981 164.081553,19.3253981 L160.509437,19.3253981 L158.819495,22.1824078 L162.894835,22.1824078 L168.00268,29.1062136 L172.240777,29.1062136 L166.841592,21.9410485 L166.841592,21.9410485 Z M50.6111068,29.1062136 L54.0495146,29.1062136 L54.0495146,11.5066408 L50.6111068,11.5066408 L50.6111068,29.1062136 Z M68.7006602,11.5066408 L64.1554175,11.5066408 L55.3558447,20.3062136 L64.1558447,29.1062136 L68.7006602,29.1062136 C66.5771262,26.9826796 61.4099029,21.8154563 59.9015146,20.3062136 C61.4099029,18.7978252 66.5771262,13.6306019 68.7006602,11.5066408 L68.7006602,11.5066408 Z M137.403456,21.504466 L146.209864,21.504466 L147.971146,18.5513398 L137.403456,18.5513398 L137.403456,14.4601942 L147.928,14.4601942 L149.689282,11.5066408 L133.966757,11.5066408 L133.966757,29.1062136 L150.040854,29.1062136 L150.040854,26.1526602 L137.403456,26.1526602 L137.403456,21.504466 L137.403456,21.504466 Z M95.9832233,21.504466 L104.789631,21.504466 L106.55134,18.5513398 L95.9832233,18.5513398 L95.9832233,14.4601942 L106.506485,14.4601942 L108.269049,11.5066408 L92.5456699,11.5066408 L92.5456699,29.1062136 L108.621049,29.1062136 L108.621049,26.1526602 L95.9832233,26.1526602 L95.9832233,21.504466 L95.9832233,21.504466 Z M75.939301,21.504466 L75.939301,26.1526602 L88.5758447,26.1526602 L88.5758447,29.1062136 L72.5013204,29.1062136 L72.5013204,11.5066408 L88.2238447,11.5066408 L86.4634175,14.4601942 L75.939301,14.4601942 L75.939301,18.5513398 L86.5061359,18.5513398 L84.7444272,21.504466 L75.939301,21.504466 L75.939301,21.504466 Z" id="Fill-3" fill="#0A0B09" mask="url(#mask-2)"></path>
                </g>
            </g>
        </g>
    </g>
</svg>