<?xml version="1.0" encoding="UTF-8"?>
<svg width="256px" height="53px" viewBox="0 0 256 53" version="1.1" xmlns="http://www.w3.org/2000/svg" xmlns:xlink="http://www.w3.org/1999/xlink">
    <!-- Generator: Sketch 52.2 (67145) - http://www.bohemiancoding.com/sketch -->
    <title>logo-white</title>
    <desc>Created with Sketch.</desc>
    <g id="v2.0" stroke="none" stroke-width="1" fill="none" fill-rule="evenodd">
        <g id="Landing-Page" transform="translate(-136.000000, -864.000000)" fill="#FFFFFF">
            <g id="resume-earlybird" transform="translate(0.000000, 768.000000)">
                <g id="logo-white" transform="translate(136.000000, 96.000000)">
                    <path d="M82.6184205,44.2 L65.3784615,44.2 L65.3784615,18.3924 L82.6184205,18.3924 L82.6184205,21.3772 L68.6500103,21.3772 L68.6500103,29.2396 L79.1998359,29.2396 L79.1998359,32.2972 L68.6500103,32.2972 L68.6500103,41.2152 L82.6184205,41.2152 L82.6184205,44.2 Z M104.742072,44.018 C104.08041,44.3456 103.455508,44.4548 102.683569,44.4548 C101.029415,44.4548 99.9266462,43.2172 99.9266462,41.652 L99.8531282,41.652 C98.750359,43.5084 96.3242667,44.6732 93.7143795,44.6732 C89.2665436,44.6732 87.281559,41.8704 87.281559,39.2496 C87.281559,36.5196 89.1930256,33.4984 93.9349333,33.2436 L99.7428513,32.916 L99.7428513,31.5692 C99.7428513,30.6592 99.6325744,29.6764 98.7871179,28.912 C98.1622154,28.3296 97.1697231,27.8564 95.6626051,27.8564 C93.9716923,27.8564 92.9056821,28.366 92.2807795,28.9848 C91.6926359,29.5672 91.3618051,30.186 91.2882872,31.1324 L88.2005333,31.1324 C88.2372923,29.5672 88.9357128,28.3296 89.9282051,27.3468 C91.2147692,26.0728 93.3835487,25.3084 95.6626051,25.3084 C99.2649846,25.3084 101.397005,26.9464 102.279221,28.9484 C102.64681,29.7856 102.830605,30.6228 102.830605,31.6784 L102.830605,40.5964 C102.830605,41.5792 103.308472,41.834 103.933374,41.834 C104.264205,41.834 104.742072,41.7248 104.742072,41.7248 L104.742072,44.018 Z M99.7428513,36.4104 L99.7428513,35.3184 L94.5965949,35.6096 C92.6116103,35.7188 90.4795897,36.6652 90.4795897,38.9948 C90.4795897,40.6328 91.5456,42.0524 94.1922462,42.0524 C95.6258462,42.0524 97.0962051,41.5792 98.0886974,40.56 C99.1914667,39.4316 99.7428513,37.9392 99.7428513,36.4104 Z M126.193559,32.006 L122.995528,32.006 C122.995528,30.9868 122.664697,30.0404 122.003036,29.3124 C121.378133,28.6208 120.4224,28.1112 119.062318,28.1112 C117.18761,28.1112 115.533456,29.5308 114.798277,31.2416 C114.210133,32.6248 113.989579,34.5176 113.989579,36.01 L113.989579,44.2 L110.828308,44.2 L110.828308,25.7816 L113.585231,25.7816 L113.842544,28.548 C115.018831,26.3276 117.408164,25.3084 119.723979,25.3084 C122.22359,25.3084 123.988021,26.546 125.017272,28.002 C125.899487,29.276 126.193559,30.6956 126.193559,32.006 Z M145.513026,44.2 L129.302318,44.2 L129.302318,41.5792 L135.845415,41.5792 L135.845415,20.5036 L129.853703,20.5036 L129.853703,17.9192 L139.006687,17.9192 L139.006687,41.5792 L145.513026,41.5792 L145.513026,44.2 Z M168.363979,25.7816 L159.247754,47.9856 C158.292021,50.3152 156.895179,51.9532 154.101497,51.9532 C152.557621,51.9532 151.271056,51.5528 150.756431,51.2616 L150.756431,48.6044 C150.756431,48.6044 152.22679,49.1504 153.439836,49.1504 C154.763159,49.1504 155.718892,48.6772 156.270277,47.294 L157.520082,44.2 L149.396349,25.7816 L153.256041,25.7816 L159.247754,40.4144 L164.798359,25.7816 L168.363979,25.7816 Z M190.514665,35.0272 C190.514665,38.0848 189.558932,40.7784 187.794501,42.562 C186.581455,43.7996 184.706747,44.6732 182.427691,44.6732 C180.332429,44.6732 177.79606,43.654 176.73005,41.7976 L176.509496,44.2 L173.752573,44.2 L173.752573,17.9192 L176.877086,17.9192 L176.877086,27.9292 C177.906337,26.4004 180.111875,25.3084 182.427691,25.3084 C184.706747,25.3084 186.471178,26.182 187.684224,27.3104 C189.558932,29.094 190.514665,31.8604 190.514665,35.0272 Z M187.316634,34.9908 C187.316634,32.8432 186.728491,30.8048 185.33165,29.4216 C184.522952,28.6208 183.456942,28.002 181.913065,28.002 C180.552983,28.002 179.523732,28.548 178.788552,29.2032 C177.244675,30.55 176.693291,32.6976 176.693291,34.9908 C176.693291,37.284 177.244675,39.4316 178.788552,40.7784 C179.523732,41.4336 180.552983,41.9796 181.913065,41.9796 C183.456942,41.9796 184.59647,41.47 185.405168,40.6692 C186.802009,39.286 187.316634,37.1384 187.316634,34.9908 Z M205.913281,22.2872 L201.465445,22.2872 L201.465445,17.9192 L205.913281,17.9192 L205.913281,22.2872 Z M212.722337,44.2 L196.070522,44.2 L196.070522,41.5428 L202.797414,41.5428 L202.797414,28.4024 L196.805701,28.4024 L196.805701,25.7816 L205.958686,25.7816 L205.958686,41.5428 L212.722337,41.5428 L212.722337,44.2 Z M234.347116,32.006 L231.149086,32.006 C231.149086,30.9868 230.818255,30.0404 230.156593,29.3124 C229.531691,28.6208 228.575957,28.1112 227.215875,28.1112 C225.341168,28.1112 223.687014,29.5308 222.951834,31.2416 C222.363691,32.6248 222.143137,34.5176 222.143137,36.01 L222.143137,44.2 L218.981865,44.2 L218.981865,25.7816 L221.738788,25.7816 L221.996101,28.548 C223.172388,26.3276 225.561722,25.3084 227.877537,25.3084 C230.377147,25.3084 232.141578,26.546 233.170829,28.002 C234.053045,29.276 234.347116,30.6956 234.347116,32.006 Z M255.027443,44.2 L252.27052,44.2 L252.049966,41.7976 C250.983956,43.654 248.447587,44.6732 246.352325,44.6732 C244.073269,44.6732 242.161802,43.7632 240.948756,42.5256 C239.184325,40.742 238.265351,38.0848 238.265351,35.0272 C238.265351,31.8604 239.257843,29.1668 241.132551,27.3832 C242.345597,26.2548 244.146787,25.3084 246.425843,25.3084 C248.741659,25.3084 250.873679,26.4004 251.90293,27.9292 L251.90293,17.9192 L255.027443,17.9192 L255.027443,44.2 Z M252.086725,34.9908 C252.086725,32.6976 251.535341,30.5136 249.991464,29.1668 C249.256284,28.5116 248.227033,28.002 246.866951,28.002 C245.323074,28.002 244.257064,28.6208 243.448366,29.4216 C242.051525,30.8048 241.463382,32.8432 241.463382,34.9908 C241.463382,37.1384 242.014766,39.286 243.411607,40.6692 C244.220305,41.47 245.323074,41.9796 246.866951,41.9796 C248.227033,41.9796 249.256284,41.47 249.991464,40.8148 C251.535341,39.468 252.086725,37.284 252.086725,34.9908 Z" id="Earlybird" stroke="#FFFFFF" stroke-width="1.05025643"></path>
                    <path d="M34.9262203,22.8028212 C40.4315123,22.659307 44.6414415,21.8779515 48.041769,17.8754983 C47.8474645,22.3722784 45.774884,26.8850046 41.9373716,29.7074517 C36.173007,33.8693652 29.0323194,36.484514 21.8592478,35.8307268 C28.4170221,38.3023612 35.8005902,36.7555964 41.6782991,33.2793622 C39.6866787,42.3367065 30.7162911,48.4759276 22.0535522,48.9064704 L21.8430557,48.9064704 C23.3812991,50.8518859 24.6118938,51.984054 24.6604699,52 C19.1389858,50.899724 14.168031,48.0134928 10.7353195,44.8880711 C10.7677035,45.33456 10.8486637,45.8129408 10.9782,46.2913217 C7.67502477,43.724011 5.60244424,40.8058878 5.89390088,37.1223551 C5.92628495,37.1383011 5.94247698,37.1542472 5.97486105,37.1701932 C5.99105309,35.8945109 6.68731061,34.9218031 8.22555397,34.4753143 C11.5125372,33.6939589 14.2813752,32.7212511 16.3053796,31.8920577 C18.2646159,28.1447409 21.2763345,24.8120209 24.5957017,21.8779515 C30.3114902,16.9346826 36.6911522,12.4538485 42.3745566,7.27138914 C44.6576336,5.1984054 46.5682937,2.79055504 47.135015,0 C48.980907,4.78380865 49.2561716,10.1895124 46.7464061,14.8616989 C44.0747203,19.5498313 40.1400557,20.8255136 34.9262203,22.8028212 Z M7.9179053,21.8779515 C5.74817256,23.7117449 5.27860353,24.2858019 5.32717964,24.4133701 C5.57006017,24.7482367 9.63426105,21.0806501 13.4879655,21.8620055 C15.8843867,22.3563324 16.7425646,22.8028212 16.7425646,22.8028212 C19.5437867,24.1741797 19.4142504,23.6479607 20.9363017,23.4885005 C18.6532248,25.8325667 16.4511079,28.1606869 15.123361,30.5047531 C13.3422372,31.3817847 10.7515115,32.4342226 7.54548849,33.183686 L7.49691238,33.199632 C4.82522654,33.9331493 4.53376991,35.9264029 4.53376991,36.7555964 C4.53376991,37.1542472 4.53376991,37.2818154 4.64711415,37.7123582 C3.36794336,36.4207298 3.25459911,33.1199019 3.25459911,32.8966575 C1.94304425,26.8531125 1.31155487,24.4931003 0,18.4495554 C0.890561946,19.1033425 2.04019646,19.8528059 3.49747964,20.5065931 C5.18145132,21.2720025 6.71969468,21.6547071 7.9179053,21.8779515 Z" id="Combined-Shape" fill-rule="nonzero"></path>
                </g>
            </g>
        </g>
    </g>
</svg>