<?xml version="1.0" encoding="UTF-8"?>
<svg width="143px" height="24px" viewBox="0 0 143 24" version="1.1" xmlns="http://www.w3.org/2000/svg" xmlns:xlink="http://www.w3.org/1999/xlink">
    <!-- Generator: Sketch 52.5 (67469) - http://www.bohemiancoding.com/sketch -->
    <title>logo</title>
    <desc>Created with Sketch.</desc>
    <g id="v2.0" stroke="none" stroke-width="1" fill="none" fill-rule="evenodd">
        <g id="wptile" transform="translate(-136.000000, -52.000000)" fill="#FFFFFF">
            <g id="hero">
                <g id="navbar">
                    <g id="logo" transform="translate(136.000000, 52.000000)">
                        <path d="M28.9358922,9.49094373 L21.2417446,9.49094373 C20.6217898,9.49094373 20.1183069,9.99942697 20.1183069,10.6238801 L20.1183069,19.2651215 L17.3023411,19.2651215 L17.641805,22.3241983 L18.9152555,22.5215701 C18.9974493,22.5446154 19.0512623,22.6509211 19.0416791,22.7512796 C19.032096,22.8512665 18.9613283,22.9434477 18.8776602,22.9434477 L10.0578634,22.9434477 C9.97382675,22.9434477 9.9034276,22.8966137 9.89421305,22.7962551 C9.88426134,22.6958966 9.93844288,22.6315928 10.0202681,22.6085475 L11.2937186,22.3379512 L11.6331825,19.2651215 L0.701779975,19.2651215 C0.314031796,19.2651215 0,18.9476912 0,18.5570363 L0,0.707713514 C0,0.316686929 0.313663214,0 0.701779975,0 L28.2337436,0 C28.6218604,0 28.9358922,0.316686929 28.9358922,0.708085212 L28.9358922,9.49094373 Z M32.4012994,15.2396292 C32.7894162,15.2396292 33.1038165,15.5574313 33.103448,15.9480861 L33.103448,22.4639569 C33.103448,22.8549835 32.7897847,23.1724138 32.4012994,23.1724138 L29.4515383,23.1724138 C29.0637901,23.1724138 28.7493897,22.8553552 28.7493897,22.4639569 L28.7493897,15.9480861 C28.7493897,15.5574313 29.0634215,15.2396292 29.4515383,15.2396292 L32.4012994,15.2396292 Z M29.3144258,14.4980912 C28.5979026,14.4980912 28.0155431,15.0857461 28.0155431,15.8086993 L28.0155431,22.32457 C28.0155431,22.4565229 28.0354466,22.5881041 28.0745162,22.7137381 L21.1672911,22.7137381 C20.8772171,22.7137381 20.6405875,22.4758512 20.6405875,22.182953 L20.6405875,10.5670102 C20.6405875,10.274112 20.8772171,10.0358534 21.1672911,10.0358534 L30.016943,10.0358534 C30.3070169,10.0358534 30.5432779,10.274112 30.5432779,10.5670102 L30.5432779,14.4980912 L29.3144258,14.4980912 Z" id="Icon"></path>
                        <path d="M50.7219828,17.137931 L47.3857759,17.137931 L47.3857759,7.80818966 L50.6573276,7.80818966 C52.4224138,7.80818966 53.4827586,8.67456897 53.4827586,10.1228448 C53.4827586,11.137931 52.7909483,11.9849138 51.8340517,12.1400862 L51.8340517,12.2435345 C53.075431,12.3469828 53.9353448,13.2780172 53.9353448,14.5 C53.9353448,16.1357759 52.7262931,17.137931 50.7219828,17.137931 Z M48.924569,9.04310345 L48.924569,11.7262931 L50.1400862,11.7262931 C51.2780172,11.7262931 51.9116379,11.2478448 51.9116379,10.4008621 C51.9116379,9.52801724 51.3168103,9.04310345 50.2564655,9.04310345 L48.924569,9.04310345 Z M48.924569,15.8836207 L50.2823276,15.8836207 C51.6400862,15.8836207 52.3125,15.3922414 52.3125,14.3771552 C52.3125,13.4008621 51.6206897,12.9030172 50.2564655,12.9030172 L48.924569,12.9030172 L48.924569,15.8836207 Z M58.3525862,11.8685345 L58.5724138,11.8685345 C58.8633621,10.5043103 59.6521552,9.87068966 60.9969828,9.87068966 C61.3978448,9.87068966 61.7663793,9.92241379 62.012069,10.0193966 L62.012069,11.6551724 C61.6952586,11.5323276 61.2297414,11.4547414 60.8418103,11.4547414 C59.2060345,11.4547414 58.3461207,12.3469828 58.3461207,13.9827586 L58.3461207,16.012931 L60.4538793,16.012931 L60.4538793,17.137931 L55.5206897,17.137931 L55.5206897,16.012931 L56.8978448,16.012931 L56.8978448,11.1831897 L55.3849138,11.1831897 L55.3849138,10.0581897 L58.3525862,10.0581897 L58.3525862,11.8685345 Z M65.7827586,17.2543103 C64.437931,17.2543103 63.5392241,16.4008621 63.5392241,15.1206897 C63.5392241,13.8534483 64.4573276,13.1034483 66.1512931,13 L67.9228448,12.8965517 L67.9228448,12.3017241 C67.9228448,11.5711207 67.4508621,11.1573276 66.6232759,11.1573276 C65.9314655,11.1573276 65.4271552,11.4547414 65.2719828,11.9719828 L63.7978448,11.9719828 C63.9271552,10.75 65.0715517,9.94181034 66.662069,9.94181034 C68.4142241,9.94181034 69.4099138,10.8017241 69.4099138,12.3146552 L69.4099138,17.137931 L67.9810345,17.137931 L67.9810345,16.1487069 L67.8452586,16.1487069 C67.5025862,16.8534483 66.7461207,17.2543103 65.7827586,17.2543103 Z M66.2676724,16.0258621 C67.224569,16.0258621 67.9228448,15.4116379 67.9228448,14.5581897 L67.9228448,13.9116379 L66.3775862,13.9956897 C65.4918103,14.0474138 65.0327586,14.4030172 65.0327586,15.0301724 C65.0327586,15.6443966 65.5112069,16.0258621 66.2676724,16.0258621 Z M72.9866379,13.0258621 L72.9866379,14.1314655 C72.9866379,15.2435345 73.6202586,15.9353448 74.6288793,15.9353448 C75.6375,15.9353448 76.2711207,15.2435345 76.2711207,14.1314655 L76.2711207,13.0258621 C76.2711207,11.9073276 75.6375,11.2155172 74.6288793,11.2155172 C73.6202586,11.2155172 72.9866379,11.9137931 72.9866379,13.0258621 Z M76.2581897,15.9741379 L76.1288793,15.9741379 C75.837931,16.8017241 75.1202586,17.2478448 74.0922414,17.2478448 C72.462931,17.2478448 71.4607759,16.1099138 71.4607759,14.2219828 L71.4607759,12.9612069 C71.4607759,11.0797414 72.462931,9.93534483 74.0922414,9.93534483 C75.1137931,9.93534483 75.837931,10.3943966 76.1030172,11.2155172 L76.2323276,11.2155172 L76.2323276,7.32327586 L77.7905172,7.32327586 L77.7905172,17.137931 L76.2581897,17.137931 L76.2581897,15.9741379 Z M87.5818965,14.5775862 L89.075431,14.5775862 C89.1659483,15.4762931 89.8900862,16.0064655 91.0280172,16.0064655 C92.1271552,16.0064655 92.8318965,15.4568966 92.8318965,14.5969828 C92.8318965,13.8922414 92.3663793,13.4913793 91.2155172,13.2198276 L90.3168103,13.0064655 C88.6099138,12.5991379 87.7952586,11.7392241 87.7952586,10.3685345 C87.7952586,8.69396552 89.049569,7.62068966 91.0086207,7.62068966 C92.8836207,7.62068966 94.1573276,8.68103448 94.2155172,10.2974138 L92.7284483,10.2974138 C92.6443965,9.44396552 92.0043103,8.93965517 91.0215517,8.93965517 C89.987069,8.93965517 89.3599138,9.42456897 89.3599138,10.2327586 C89.3599138,10.950431 89.8125,11.3577586 90.9051724,11.6099138 L91.8038793,11.8232759 C93.6077586,12.2435345 94.3836207,13.0452586 94.3836207,14.4612069 C94.3836207,16.2327586 93.0905172,17.325431 91.0021552,17.325431 C88.9590517,17.325431 87.6594828,16.2844828 87.5818965,14.5775862 Z M99.162931,8.48706897 C98.5228448,8.48706897 98.0702586,8.06681034 98.0702586,7.45905172 C98.0702586,6.8512931 98.5228448,6.43103448 99.162931,6.43103448 C99.8094828,6.43103448 100.262069,6.8512931 100.262069,7.45905172 C100.262069,8.06681034 99.8094828,8.48706897 99.162931,8.48706897 Z M102.169397,17.137931 L96.1435345,17.137931 L96.1435345,15.9353448 L98.4775862,15.9353448 L98.4775862,11.2607759 L96.2211207,11.2607759 L96.2211207,10.0581897 L99.9452586,10.0581897 L99.9452586,15.9353448 L102.169397,15.9353448 L102.169397,17.137931 Z M107.23319,11.1056034 C106.218103,11.1056034 105.610345,11.7974138 105.610345,12.9547414 L108.817241,12.9547414 C108.817241,11.8038793 108.222414,11.1056034 107.23319,11.1056034 Z M108.836638,15.2176724 L110.265517,15.2176724 C110.097414,16.4331897 108.894828,17.2801724 107.310776,17.2801724 C105.293534,17.2801724 104.129741,16.1228448 104.129741,14.1056034 L104.129741,13 C104.129741,11.1443966 105.377586,9.91594828 107.259052,9.91594828 C109.121121,9.91594828 110.278448,11.137931 110.278448,13.1034483 L110.278448,13.9633621 L105.610345,13.9633621 L105.610345,14.3060345 C105.610345,15.3857759 106.276293,16.0840517 107.30431,16.0840517 C108.086638,16.0840517 108.687931,15.7413793 108.836638,15.2176724 Z M114.113793,17.137931 L114.113793,11.3189655 L112.219397,11.3189655 L112.219397,10.1034483 L114.113793,10.1034483 L114.113793,9.51508621 C114.113793,8.00862069 114.902586,7.38793103 116.751724,7.38793103 C117.01681,7.38793103 118.400431,7.4137931 118.549138,7.43318966 L118.549138,8.56465517 C118.348707,8.54525862 117.042672,8.52586207 116.784052,8.52586207 C115.995259,8.52586207 115.587931,8.8362069 115.587931,9.4375 L115.587931,10.1034483 L118.549138,10.1034483 L118.549138,11.3189655 L115.613793,11.3189655 L115.613793,17.137931 L114.113793,17.137931 Z M123.438362,11.1056034 C122.423276,11.1056034 121.815517,11.7974138 121.815517,12.9547414 L125.022414,12.9547414 C125.022414,11.8038793 124.427586,11.1056034 123.438362,11.1056034 Z M125.04181,15.2176724 L126.47069,15.2176724 C126.302586,16.4331897 125.1,17.2801724 123.515948,17.2801724 C121.498707,17.2801724 120.334914,16.1228448 120.334914,14.1056034 L120.334914,13 C120.334914,11.1443966 121.582759,9.91594828 123.464224,9.91594828 C125.326293,9.91594828 126.483621,11.137931 126.483621,13.1034483 L126.483621,13.9633621 L121.815517,13.9633621 L121.815517,14.3060345 C121.815517,15.3857759 122.481466,16.0840517 123.509483,16.0840517 C124.29181,16.0840517 124.893103,15.7413793 125.04181,15.2176724 Z M131.275862,11.8685345 L131.49569,11.8685345 C131.786638,10.5043103 132.575431,9.87068966 133.920259,9.87068966 C134.321121,9.87068966 134.689655,9.92241379 134.935345,10.0193966 L134.935345,11.6551724 C134.618534,11.5323276 134.153017,11.4547414 133.765086,11.4547414 C132.12931,11.4547414 131.269397,12.3469828 131.269397,13.9827586 L131.269397,16.012931 L133.377155,16.012931 L133.377155,17.137931 L128.443966,17.137931 L128.443966,16.012931 L129.821121,16.012931 L129.821121,11.1831897 L128.30819,11.1831897 L128.30819,10.0581897 L131.275862,10.0581897 L131.275862,11.8685345 Z M138.201724,8.07974138 L139.675862,8.07974138 L139.675862,10.1034483 L142.410776,10.1034483 L142.410776,11.3189655 L139.701724,11.3189655 L139.701724,14.9590517 C139.701724,15.5862069 140.147845,15.9353448 140.949569,15.9353448 C141.20819,15.9353448 142.229741,15.9288793 142.352586,15.9159483 L142.352586,17.1185345 C142.236207,17.137931 141.046552,17.1573276 140.83319,17.1573276 C138.971121,17.1573276 138.201724,16.5237069 138.201724,14.9525862 L138.201724,11.3189655 L136.339655,11.3189655 L136.339655,10.1034483 L138.201724,10.1034483 L138.201724,8.07974138 Z" id="Brad-Siefert"></path>
                    </g>
                </g>
            </g>
        </g>
    </g>
</svg>