<?xml version="1.0" encoding="UTF-8"?>
<svg width="438px" height="112px" viewBox="0 0 438 112" version="1.1" xmlns="http://www.w3.org/2000/svg" xmlns:xlink="http://www.w3.org/1999/xlink">
    <title>nielsen-logo</title>
    <g id="nielsen-logo" stroke="none" stroke-width="1" fill="none" fill-rule="evenodd">
        <g id="Nielsen_logo" transform="translate(2.000000, 1.000000)" fill-rule="nonzero">
            <g id="g3405">
                <path d="M24.7115455,55.4178174 C27.4219746,52.7400601 29.7099992,50.8167849 31.927623,49.4212111 C34.1276466,48.0299985 36.8908763,47.3322116 40.208512,47.3322116 C45.426968,47.3322116 49.1406079,49.0984847 51.3494316,52.6266697 C53.5582554,56.1635771 54.6670673,60.8213047 54.6670673,66.5911302 L54.6670673,104.22365 C54.6670673,105.811115 53.8618586,106.827268 52.2558414,107.280829 C50.6498241,107.725668 48.4894009,108.048395 45.7789718,108.249008 L45.7789718,109.888808 L76.5309022,109.888808 L76.5309022,108.545568 C75.6288925,108.453809 74.6432819,108.327509 73.5916706,108.174869 C72.5356592,108.026589 71.5588487,107.825975 70.652439,107.577389 C69.7504293,107.324441 68.9672209,106.958103 68.320414,106.460929 C67.669207,105.955034 67.3392034,105.361915 67.3392034,104.668489 L67.3392034,60.7689707 C67.3392034,54.0047989 65.7771866,48.4791988 62.6707533,44.1965317 C59.5555198,39.9182257 55.0894718,37.7812533 49.2638092,37.7812533 C46.5533801,37.7812533 43.9441521,38.3045935 41.4317251,39.3512739 C38.9192981,40.393593 36.6092733,41.715027 34.5016506,43.3024922 C32.3984281,44.8986798 30.5108078,46.6605917 28.85639,48.6056727 C27.1975722,50.5463925 25.8159573,52.3606385 24.7159455,54.0527717" id="path3035" fill="#00ADEF"></path>
                <path d="M20.9354249,58.1718776 L20.9354249,104.51365 C21.1378271,105.512358 21.4898309,106.22759 21.9870362,106.672429 C22.4886416,107.12599 23.0958481,107.448717 23.7954556,107.653692 C24.4950631,107.84977 25.3046718,107.976418 26.2066815,108.024391 C27.1130913,108.072189 28.0635015,108.194302 29.0711123,108.399451 L29.0711123,109.88661 L0,109.88661 L0,108.399451 C2.31002482,108.194302 4.29444613,107.745276 5.94886391,107.056211 C7.60328168,106.354063 8.43489061,105.22016 8.43489061,103.619611 L8.43489061,52.2624947 C8.43489061,51.464401 8.35568976,50.8712821 8.20608816,50.4700546 C8.05648655,50.0731883 7.62968196,49.6196268 6.93007445,49.1224537 C6.02366471,48.6252805 4.96765337,48.0539675 3.76644046,47.4085146 C2.56082751,46.7587005 1.35521456,46.1873875 0.149601607,45.6858532 L0.149601607,44.7918137 L19.8838136,37.7834165 L20.9002245,37.7834165 L20.9354249,58.1718776" id="path3039" fill="#00ADEF"></path>
                <path d="M382.185043,55.4178174 C384.895472,52.7400601 387.179097,50.8167849 389.392321,49.4212111 C391.601145,48.0299985 394.364374,47.3322116 397.67321,47.3322116 C402.900466,47.3322116 406.614106,49.0984847 408.82733,52.6266697 C411.031753,56.1635771 412.136165,60.8169435 412.136165,66.5911302 L412.136165,104.22365 C412.136165,105.811115 411.330956,106.827268 409.724939,107.280829 C408.118922,107.725668 405.962899,108.048395 403.24807,108.249008 L403.24807,109.888808 L434,109.888808 L434,108.545568 C433.10239,108.449622 432.11678,108.327509 431.060768,108.170507 C430.009157,108.026763 429.032347,107.821614 428.125937,107.577389 C427.219527,107.324441 426.445119,106.958103 425.793912,106.456568 C425.138305,105.955034 424.817101,105.361915 424.817101,104.668489 L424.817101,60.7689707 C424.817101,54.0047989 423.255085,48.4791988 420.148651,44.1965317 C417.033418,39.9182257 412.55857,37.7812533 406.737307,37.7812533 C404.026878,37.7812533 401.41325,38.3002323 398.900823,39.3469127 C396.392796,40.393593 394.082771,41.715027 391.975149,43.3024922 C389.867526,44.8943186 387.984306,46.6605917 386.325488,48.6056727 C384.66667,50.5420314 383.293855,52.3606385 382.189443,54.0484106" id="path3043" fill="#797A7D"></path>
                <path d="M378.407163,58.1683887 L378.407163,104.514523 C378.609565,105.508869 378.961569,106.228462 379.463174,106.677662 C379.960379,107.126862 380.567586,107.449589 381.267193,107.650203 C381.971201,107.850816 382.77641,107.977116 383.682819,108.029624 C384.584829,108.073236 385.535239,108.195349 386.54285,108.395962 L386.54285,109.887482 L357.471738,109.887482 L357.471738,108.395962 C359.781763,108.195349 361.766184,107.746148 363.420602,107.057084 C365.07942,106.354936 365.906628,105.221032 365.906628,103.620483 L365.906628,52.2590058 C365.906628,51.460912 365.827428,50.8721543 365.686626,50.4709269 C365.528224,50.0740606 365.10582,49.6204991 364.401812,49.1189647 C363.499803,48.6261527 362.448191,48.0504785 361.242578,47.4093868 C360.032565,46.7552116 358.826952,46.1882597 357.621339,45.6910866 L357.621339,44.7926859 L377.355551,37.7799275 L378.380762,37.7799275 L378.405403,58.1683887" id="path3047" fill="#797A7D"></path>
                <path d="M80.2890001,109.892715 L80.2890001,108.37939 C81.5166133,108.274722 82.7398265,108.148422 83.9674397,107.995607 C85.1950528,107.838605 86.2906646,107.585657 87.258675,107.228042 C88.2310855,106.883684 89.0538943,106.39942 89.7139014,105.793217 C90.3827086,105.187015 90.7083121,104.42381 90.7083121,103.512326 L90.7083121,51.3920056 C90.7083121,50.5764671 90.6379113,49.8699579 90.4840857,49.2637555 C90.33026,48.653192 89.8944793,48.0906013 89.1772716,47.5890669 C88.2620618,46.9828646 87.16205,46.3766622 85.8816362,45.7704598 C84.6056225,45.1598963 83.254808,44.6016668 81.8203926,44.0957713 L81.8203926,43.1799259 L102.540215,36.4942552 L103.455425,36.4942552 L103.455425,104.42381 C103.662403,105.435601 104.093432,106.172639 104.757839,106.621839 C105.426646,107.084123 106.214255,107.415572 107.138265,107.611824 C108.057874,107.82116 109.052285,107.943273 110.125897,107.995607 C111.199508,108.043754 112.246719,108.170054 113.26753,108.37939 L113.26753,109.892715 L80.2890001,109.892715" id="path3051" fill="#797A7D"></path>
                <path d="M102.131257,21.393693 C100.595641,22.9157406 98.6904202,23.6789451 96.4199958,23.6789451 C94.2375724,23.6789451 92.3587522,22.8895736 90.7747352,21.3151919 C89.1907182,19.7451714 88.3987097,17.8742303 88.3987097,15.7110908 C88.3987097,13.4432834 89.1687179,11.5767034 90.7043344,10.1069898 C92.2355509,8.62419259 94.1363713,7.88715517 96.4199958,7.88715517 C98.6904202,7.88715517 100.595641,8.62419259 102.131257,10.1069898 C103.662474,11.5767034 104.432482,13.4432834 104.432482,15.7110908 C104.432482,17.970176 103.662474,19.8672841 102.131257,21.393693" id="path3055" fill="#797A7D"></path>
                <path d="M301.572657,59.4496999 C301.77506,58.2372951 302.338266,56.4841055 303.262276,54.2119369 C304.177485,51.931046 305.479899,49.676322 307.160717,47.4434039 C308.850336,45.2235693 310.843557,43.2654048 313.140382,41.5994386 C315.437206,39.9203889 318.015634,39.0917669 320.875665,39.0917669 C325.262512,39.0917669 328.76935,40.4306455 331.374178,43.1171251 C333.970205,45.7992435 335.277019,49.0177856 335.277019,52.7640291 C335.277019,54.1770476 335.101018,55.2498949 334.740214,55.9564042 C334.37941,56.6672746 333.842604,57.4261178 333.129796,58.2372951 C332.104585,58.6385226 330.938573,58.8958315 329.605359,58.9961384 C328.276544,59.0962708 326.850929,59.1486048 325.324113,59.1486048 C322.965687,59.1486048 320.827264,59.1765163 318.882443,59.2229191 C316.942022,59.2752531 315.076402,59.3234004 313.294383,59.3711988 C311.503564,59.4235329 310.434353,59.4496999 308.595133,59.4496999 L307.908725,61.5212547 L350.483583,61.5212547 C350.175579,57.2691158 349.207569,53.5752064 347.575152,50.4395265 C345.933934,47.2951242 343.817511,44.6871457 341.203883,42.6199519 C338.599055,40.5440359 335.532222,38.9958212 332.007784,37.9883914 C328.474546,36.9766004 324.716906,36.4707048 320.730463,36.4707048 C315.82001,36.4707048 311.345162,37.4999405 307.305919,39.5845789 C303.271076,41.660495 299.847839,44.3644192 297.036209,47.7094352 C294.220178,51.0544512 292.050955,54.8268616 290.515339,59.0310277 C288.984122,63.2308327 288.214114,67.4655269 288.214114,71.7133047 C288.214114,76.9815959 289.032523,81.9707722 290.66934,86.685195 C292.301758,91.3908955 294.633783,95.4947547 297.652215,98.9880504 C300.661848,102.485707 304.313887,105.189632 308.608333,107.117268 C312.902779,109.031821 317.66363,110 322.877686,110 C327.070931,110 330.876972,109.241157 334.300209,107.719109 C337.727846,106.201423 340.667077,104.273786 343.117904,101.944922 C345.56873,99.6160586 347.522351,97.0560529 348.947966,94.2736276 C350.382382,91.4868412 351.306392,88.9791695 351.711196,86.7462514 L350.483583,86.4451563 C349.25597,90.1870386 346.725942,93.3576079 342.897901,95.9394194 C339.06106,98.5299533 334.586212,99.8164979 329.482157,99.8164979 C324.774107,99.8164979 320.633662,98.9573478 317.060824,97.2303252 C313.483585,95.5120249 310.513553,93.152633 308.163928,90.1608716 C305.814303,87.1821937 304.019084,83.7325097 302.79147,79.8336254 C301.568257,75.9260187 300.956651,71.8570488 300.956651,67.6005487 C300.956651,66.4840897 301.004875,65.3937976 301.110476,64.3340338 C301.211853,63.2742699 301.264654,62.3322576 301.264654,61.5210803 L301.572657,59.4495254" id="path3059" fill="#797A7D"></path>
                <path d="M131.396852,59.4431407 C131.599254,58.2307359 132.16246,56.4819075 133.08647,54.2053777 C134.00168,51.9201256 135.308494,49.6697628 136.984912,47.4412059 C138.67453,45.2170101 140.667751,43.2588456 142.964576,41.5885182 C145.261401,39.9181908 147.835428,39.0808465 150.704259,39.0808465 C155.091106,39.0808465 158.593544,40.4240863 161.193972,43.1062048 C163.7988,45.7926843 165.101214,49.0112264 165.101214,52.7574699 C165.101214,54.1748495 164.925212,55.2389746 164.564408,55.949845 C164.208004,56.6607154 163.666798,57.4195586 162.958391,58.2307359 C161.92878,58.6319634 160.758367,58.8892723 159.429553,58.9895792 C158.100738,59.0897116 156.675123,59.1423945 155.148307,59.1423945 C152.789881,59.1423945 150.647058,59.1668171 148.706638,59.2167088 C146.766217,59.2690428 144.900597,59.3168412 143.118578,59.3691753 C141.332158,59.4169737 140.254147,59.4434896 138.419327,59.4434896 L137.73732,61.5150444 L180.307777,61.5150444 C179.999774,57.2629055 179.031763,53.5733572 177.399346,50.4333162 C175.762528,47.2932751 173.641705,44.6852965 171.028077,42.6137416 C168.423249,40.5378256 165.356416,38.9852497 161.827578,37.9821811 C158.298741,36.9660289 154.5411,36.4644945 150.554657,36.4644945 C145.644205,36.4644945 141.169357,37.4980914 137.130113,39.5783686 C133.09527,41.6542846 129.672033,44.3625701 126.860403,47.7032249 C124.044373,51.0482409 121.870749,54.8206513 120.343933,59.0248174 C118.803916,63.2246224 118.038308,67.4593166 118.038308,71.7070944 C118.038308,76.9710244 118.856717,81.9645619 120.493534,86.6789847 C122.125952,91.3846852 124.457977,95.4885444 127.476409,98.9774789 C130.486042,102.475136 134.142481,105.183421 138.436927,107.111058 C142.726973,109.029972 147.487824,109.989429 152.70188,109.989429 C156.895126,109.989429 160.701166,109.234946 164.124403,107.712899 C167.55204,106.195212 170.495672,104.271937 172.942098,101.938712 C175.397324,99.6098483 177.346545,97.0454814 178.772161,94.2674173 C180.206576,91.4806309 181.130586,88.9729592 181.53539,86.7400411 L180.307777,86.438946 C179.080164,90.1851895 176.550137,93.3513976 172.717695,95.9332091 C168.889654,98.5193818 164.410406,99.8146488 159.306351,99.8146488 C154.602701,99.8146488 150.457856,98.9467763 146.885018,97.228476 C143.303379,95.5058146 140.337748,93.1464227 137.988122,90.1590225 C135.638497,87.1759834 133.843278,83.7306606 132.615665,79.8274151 C131.392452,75.9241696 130.780845,71.8508385 130.780845,67.5943384 C130.780845,66.4778794 130.829421,65.3875873 130.935023,64.3278235 C131.0364,63.2636984 131.093424,62.3260473 131.093424,61.51487 L131.397204,59.4433151" id="path3063" fill="#797A7D"></path>
                <path d="M184.386198,109.892715 L184.386198,108.218027 C189.085449,107.921467 192.200682,107.433016 193.731899,106.77448 C195.271915,106.120305 196.041924,104.977679 196.041924,103.359685 L196.041924,15.9618755 C196.041924,15.146337 195.962723,14.5401346 195.808897,14.134546 C195.650495,13.7289574 195.223691,13.2753959 194.506483,12.760778 C193.582473,12.2592437 192.200858,11.4742334 190.366039,10.4101084 C188.526819,9.3416222 186.995602,8.56533426 185.767989,8.05507759 L185.767989,7.14359344 L207.711025,0 L208.780236,0 L208.780236,104.12289 C208.780236,105.13032 209.013263,105.889163 209.466644,106.39942 C209.928649,106.909676 210.623856,107.25857 211.539066,107.467906 C212.463076,107.664333 213.637889,107.794819 215.072304,107.838605 C216.502319,107.890939 218.187538,108.017239 220.132358,108.218027 L220.132358,109.892715 L184.386198,109.892715" id="path3067" fill="#797A7D"></path>
                <path d="M276.546491,97.7429194 C274.966874,100.634374 272.846051,102.985044 270.188423,104.812373 C267.535194,106.635341 264.494761,107.948053 261.071525,108.763591 C257.652688,109.57913 254.049049,109.984718 250.265009,109.984718 C245.77696,109.984718 241.535315,109.57913 237.553272,108.763591 C233.566829,107.948053 229.88839,106.792343 226.517953,105.270296 L226.517953,85.2001998 L227.648766,85.2001998 C228.462774,87.6337317 229.492385,90.1937374 230.724399,92.8758558 C231.956412,95.5623354 233.439228,98.0482012 235.181647,100.329092 C236.924065,102.609983 239.027288,104.485285 241.482514,105.950638 C243.946541,107.424713 246.863772,108.157389 250.247408,108.157389 C255.166661,108.157389 259.087103,106.770538 262.008735,103.97939 C264.925966,101.188242 266.386782,96.9099363 266.386782,91.1313885 C266.386782,87.9913474 265.383571,85.3790077 263.39915,83.3030917 C261.397128,81.2184533 258.660299,79.8272406 255.179861,79.1207314 C252.416632,78.6104747 249.754603,78.0522452 247.198176,77.4460428 C244.637348,76.8398405 242.327323,76.1813041 240.290101,75.4660725 C236.40046,74.1489997 233.254426,71.8724699 230.8432,68.6277608 C228.440774,65.3874129 227.235161,61.4841674 227.235161,56.9223855 C227.235161,53.7779832 227.903968,50.9432239 229.241583,48.4093852 C230.579197,45.8755465 232.374416,43.6949625 234.636041,41.8719942 C236.893265,40.0403035 239.502493,38.6534521 242.468125,37.6896339 C245.433757,36.7214546 248.597391,36.2460872 251.972227,36.2460872 C256.262273,36.2460872 260.046314,36.6211477 263.315549,37.3843521 C266.589184,38.1431954 269.708817,39.0808465 272.670049,40.1929444 L274.509269,59.0506355 L273.286056,59.3559173 C271.85164,56.3118219 270.417225,53.5032296 268.99161,50.9170569 C267.557194,48.3308842 265.977577,46.1023273 264.235159,44.2226638 C262.50154,42.3517227 260.530319,40.908176 258.334695,39.8920238 C256.139072,38.8802328 253.604644,38.3743373 250.744614,38.3743373 C249.010995,38.3743373 247.294977,38.6754324 245.609759,39.2858214 C243.92454,39.8920238 242.441725,40.777341 241.165711,41.9417729 C239.889697,43.1105659 238.838086,44.5802796 238.019677,46.3509139 C237.201268,48.1259093 236.792064,50.1800195 236.792064,52.5088833 C236.792064,56.2638491 237.870075,58.9503287 240.012898,60.5726832 C242.155721,62.1950378 244.861751,63.4074425 248.130986,64.2186198 C250.37941,64.7288765 252.834636,65.2565778 255.483465,65.8191685 C258.141093,66.3730369 260.442318,66.9050994 262.382739,67.4109949 C266.976388,68.527454 270.88803,70.8606789 274.100065,74.3975863 C277.316499,77.9562995 278.926916,82.3131065 278.926916,87.4767296 C278.926916,91.4323091 278.130508,94.851465 276.546491,97.7429194" id="path3071" fill="#797A7D"></path>
            </g>
        </g>
    </g>
</svg>