<?xml version="1.0" encoding="UTF-8"?>
<svg width="192px" height="33px" viewBox="0 0 192 33" version="1.1" xmlns="http://www.w3.org/2000/svg" xmlns:xlink="http://www.w3.org/1999/xlink">
    <title>oam-logo-v2</title>
    <g id="v3.0" stroke="none" stroke-width="1" fill="none" fill-rule="evenodd">
        <g id="00-landing-page-light" transform="translate(-336.000000, -1069.000000)">
            <g id="open-arms" transform="translate(336.000000, 989.000000)">
                <g id="oam-logo-v2" transform="translate(0.000000, 80.000000)">
                    <g id="icon">
                        <path d="M33.0083375,17.827 L33.0086678,17.731267 C32.9972582,22.4588642 32.9989171,27.0968726 33.0086678,31.8243426 C33.0095089,32.2810679 32.8582887,32.3957265 32.4226215,32.388091 C31.9392273,32.3796921 32.0097967,32.0826743 32.0097967,31.7897287 C32.0094139,28.8640904 32.0085206,25.9384522 32.0077549,23.0128139 L32.0077549,22.4110156 C31.379266,23.5331678 30.8475069,24.6697 30.1173112,25.7065899 C27.9946136,28.7201628 25.2221159,30.8389917 21.7115105,32.0262994 C18.9887814,32.947131 16.2167942,33.1073476 13.426686,32.5882663 C9.47607451,31.8529754 6.22745651,29.8829099 3.67189914,26.7713492 C1.95462481,24.6803896 0.869667818,22.299793 0.293754983,19.6785535 C0.160513991,19.0720451 0.109432843,18.4466649 0.0401089755,17.8271428 L1.09633746,17.827 L1.1249903,18.1068652 C1.36811224,20.2211943 1.98460512,22.2247792 3.08143854,24.0803728 C4.61558968,26.6755247 6.68826335,28.7022195 9.36785956,30.1093001 C12.0331632,31.5089997 14.8841423,32.0018661 17.8569908,31.7794208 C20.458999,31.5848449 22.859763,30.7281508 25.0262315,29.2760213 C27.8953315,27.3527864 29.9292111,24.7623431 31.0972435,21.5121995 C31.5256502,20.3201397 31.8033619,19.0885456 31.8942726,17.8274428 L33.0083375,17.827 Z M20.6370177,0.466056386 C26.6238058,2.21673082 30.5685471,6.03571315 32.3884215,12.0049569 C32.705992,13.0470247 32.8814083,14.1157109 32.9672046,15.2003915 L31.8803375,15.2 L31.8462244,14.8788931 C31.1208308,8.77084801 27.8554421,4.49912739 22.1360755,2.07878424 C19.0229814,0.76116535 15.74195,0.583132818 12.5346783,1.51185435 C6.66427229,3.21175324 2.91516014,7.08456528 1.39772616,13.0419741 C1.21638653,13.7544347 1.15101728,14.4806601 1.08171662,15.2001181 L0.0243374605,15.2001505 C0.0250544286,15.193221 0.0257076697,15.1863789 0.0262802875,15.179637 C0.24309303,12.6109547 0.979796951,10.2045249 2.31538386,7.98872621 C4.15120971,4.94295736 6.71952828,2.72308639 9.96687016,1.28571867 C11.265322,0.711153352 12.6381716,0.438441619 14.0468802,0.194871736 C16.0836949,-0.157248361 18.5139373,-0.0115391048 20.6370177,0.466056386 Z" id="outer-o" fill="#80CE48"></path>
                        <path d="M28.7066773,17.8268457 L28.7212362,17.7291036 C28.4172645,20.0411087 27.6093531,22.1512841 26.1441124,23.9863299 C24.2499679,26.3586548 21.7954792,27.8369992 18.8265866,28.4511415 C18.0607872,28.6095764 17.2731661,28.6726959 16.5531793,28.6462264 C10.1865337,28.6095588 5.08660521,24.0721282 4.28551506,17.8280735 L6.2508849,17.8262926 C6.30274456,18.0087452 6.35424532,18.2400993 6.42321328,18.532986 C7.26532469,22.1089075 9.38419389,24.6327954 12.8354597,25.9986447 C15.3887201,27.0091925 17.9678857,26.9656706 20.4542773,25.8967119 C23.6675468,24.51521 25.7218444,22.073021 26.5340946,18.6433179 C26.5455584,18.5947323 26.6296135,18.1883757 26.7092132,17.8267249 L28.7066773,17.8268457 Z M16.5165547,4.16694422 C22.5005353,4.15841801 27.6823471,8.56965437 28.6077891,14.4598715 C28.6591539,14.7868397 28.6969976,15.0258472 28.7013099,15.2013697 L26.6911451,15.2001564 C26.6758704,15.1372629 26.6632937,15.0681599 26.6525185,14.9925693 C26.1762706,11.6522005 24.4383231,9.14421969 21.5119254,7.47168105 C16.8591928,4.81239169 10.7694219,6.26299414 7.81673602,10.9038021 C6.99529775,12.1949516 6.46277299,13.5908335 6.30963862,15.1049372 L6.29667733,15.1998457 L4.23667733,15.2013355 C4.26772375,14.9832487 4.3359064,14.6724203 4.42302321,14.2301726 C5.27840627,9.88816407 7.80091214,6.82521553 11.8673953,5.07377755 C13.3345501,4.44194658 14.8988177,4.12240428 16.5165547,4.16694422 Z" id="inner-o" fill="#387595"></path>
                    </g>
                    <g id="logotype" transform="translate(42.152868, 1.501272)">
                        <rect id="frame" x="0" y="0" width="148.852314" height="30.0254357"></rect>
                        <path d="M9.12308492,23.6300179 C11.3210559,23.6300179 13.1878257,22.879382 14.7233945,21.3781102 C16.2589632,19.846813 17.0418022,17.985236 17.0418022,15.7633537 C17.0418022,13.5414715 16.2589632,11.6798945 14.7233945,10.1786227 C13.1878257,8.64732548 11.3210559,7.89668959 9.12308492,7.89668959 C6.92511396,7.89668959 5.02823492,8.64732548 3.49266617,10.1786227 C1.95709742,11.6798945 1.20436765,13.5414715 1.20436765,15.7633537 C1.20436765,17.985236 1.95709742,19.846813 3.49266617,21.3781102 C5.02823492,22.879382 6.92511396,23.6300179 9.12308492,23.6300179 Z M9.12308492,21.70839 C7.4670794,21.70839 6.05194742,21.1379067 4.90779816,19.9969402 C3.76364889,18.8259482 3.19157426,17.4147527 3.19157426,15.7633537 C3.19157426,14.1119548 3.76364889,12.7007593 4.90779816,11.5597927 C6.05194742,10.3888008 7.4670794,9.81831748 9.12308492,9.81831748 C10.7790904,9.81831748 12.1942224,10.3888008 13.3383717,11.5597927 C14.4825209,12.7007593 15.0545956,14.1119548 15.0545956,15.7633537 C15.0545956,17.4147527 14.4825209,18.8259482 13.3383717,19.9969402 C12.1942224,21.1379067 10.7790904,21.70839 9.12308492,21.70839 Z M22.5292023,29.2747998 L22.5292023,20.32722 C23.9142251,22.5190768 25.9315409,23.6300179 28.6112589,23.6300179 C30.7490115,23.6300179 32.5856721,22.879382 34.0911317,21.3480848 C35.6267004,19.8167876 36.3794302,17.9552106 36.3794302,15.7633537 C36.3794302,13.5714969 35.6267004,11.7099199 34.0911317,10.1786227 C32.5856721,8.64732548 30.7490115,7.89668959 28.6112589,7.89668959 C25.9315409,7.89668959 23.9142251,9.00763071 22.5292023,11.1994875 L22.5292023,8.25699482 L20.5419957,8.25699482 L20.5419957,29.2747998 L22.5292023,29.2747998 Z M28.4607129,21.70839 C26.8047074,21.70839 25.3895754,21.1379067 24.2454262,19.9969402 C23.1012769,18.8259482 22.5292023,17.4147527 22.5292023,15.7633537 C22.5292023,14.1119548 23.1012769,12.7007593 24.2454262,11.5597927 C25.3895754,10.3888008 26.8047074,9.81831748 28.4607129,9.81831748 C30.1167184,9.81831748 31.5318504,10.3888008 32.6759997,11.5597927 C33.820149,12.7007593 34.3922236,14.1119548 34.3922236,15.7633537 C34.3922236,17.4147527 33.820149,18.8259482 32.6759997,19.9969402 C31.5318504,21.1379067 30.1167184,21.70839 28.4607129,21.70839 Z M46.9853928,23.6300179 C49.9059843,23.6300179 52.2846104,22.3088987 53.6094148,20.1770928 L51.8630818,19.156228 C51.0200244,20.6875252 49.3038005,21.70839 47.015502,21.70839 C43.7938185,21.70839 41.4151924,19.7867621 41.0237729,16.7541931 L54.2417079,16.7541931 C54.271817,16.3638625 54.3019262,16.0335827 54.3019262,15.8234046 C54.3019262,13.6915987 53.6094148,11.8300217 52.224392,10.268699 C50.8694784,8.67735092 49.062927,7.89668959 46.8348468,7.89668959 C44.5164391,7.89668959 42.6496693,8.64732548 41.1743189,10.1485973 C39.6989685,11.6498691 38.9763479,13.5114461 38.9763479,15.7633537 C38.9763479,18.0452869 39.7290777,19.9368893 41.2044281,21.4081357 C42.6797785,22.879382 44.6067667,23.6300179 46.9853928,23.6300179 Z M52.2545012,14.8325652 L41.0237729,14.8325652 C41.4151924,11.8600471 43.703491,9.81831748 46.8348468,9.81831748 C48.1897604,9.81831748 49.3941281,10.268699 50.4178406,11.1394366 C51.4415531,12.0101743 52.0437369,13.2412171 52.2545012,14.8325652 Z M59.6387804,23.2697127 L59.6387804,15.4030485 C59.6387804,11.5898182 61.625987,9.81831748 64.5164693,9.81831748 C67.135969,9.81831748 68.6113193,11.3796401 68.6113193,14.0519039 L68.6113193,23.2697127 L70.5985259,23.2697127 L70.5985259,14.0519039 C70.5985259,10.2987244 68.3403366,7.89668959 64.6971245,7.89668959 C62.4389351,7.89668959 60.7528204,8.79745266 59.6387804,10.5989788 L59.6387804,8.25699482 L57.6515738,8.25699482 L57.6515738,23.2697127 L59.6387804,23.2697127 Z M89.2210607,23.6300179 C91.9007787,23.6300179 93.9180945,22.5190768 95.3031173,20.32722 L95.3031173,23.2697127 L97.2903239,23.2697127 L97.2903239,8.25699482 L95.3031173,8.25699482 L95.3031173,11.1994875 C93.9180945,9.00763071 91.9007787,7.89668959 89.2210607,7.89668959 C87.0833081,7.89668959 85.2466474,8.64732548 83.7110787,10.1786227 C82.2056191,11.7099199 81.4528894,13.5714969 81.4528894,15.7633537 C81.4528894,17.9552106 82.2056191,19.8167876 83.7110787,21.3480848 C85.2466474,22.879382 87.0833081,23.6300179 89.2210607,23.6300179 Z M89.3716066,21.70839 C87.7156011,21.70839 86.3004691,21.1379067 85.1563199,19.9969402 C84.0121706,18.8259482 83.440096,17.4147527 83.440096,15.7633537 C83.440096,14.1119548 84.0121706,12.7007593 85.1563199,11.5597927 C86.3004691,10.3888008 87.7156011,9.81831748 89.3716066,9.81831748 C91.0276121,9.81831748 92.4427441,10.3888008 93.5868934,11.5597927 C94.7310427,12.7007593 95.3031173,14.1119548 95.3031173,15.7633537 C95.3031173,17.4147527 94.7310427,18.8259482 93.5868934,19.9969402 C92.4427441,21.1379067 91.0276121,21.70839 89.3716066,21.70839 Z M103.681,23.2697127 L103.681,14.9226415 C103.681,11.4697164 105.698316,9.93841922 108.438252,9.93841922 L108.438252,8.01679133 C106.180063,8.01679133 104.614385,8.9175544 103.681,10.749106 L103.681,8.25699482 L101.693793,8.25699482 L101.693793,23.2697127 L103.681,23.2697127 Z M113.323468,23.2697127 L113.323468,14.952667 C113.323468,11.4697164 115.250456,9.81831748 117.659192,9.81831748 C119.827053,9.81831748 121.181967,11.2595384 121.181967,13.9017767 L121.181967,23.2697127 L123.169174,23.2697127 L123.169174,14.952667 C123.169174,11.439691 124.855288,9.81831748 127.354351,9.81831748 C129.552322,9.81831748 131.027673,11.2895638 131.027673,13.9017767 L131.027673,23.2697127 L133.014879,23.2697127 L133.014879,13.9017767 C133.014879,10.2086481 130.75669,7.89668959 127.38446,7.89668959 C125.216599,7.89668959 123.590702,8.79745266 122.506771,10.6290042 C121.633605,8.79745266 120.098036,7.89668959 117.930174,7.89668959 C115.942968,7.89668959 114.407399,8.73740179 113.323468,10.4488516 L113.323468,8.25699482 L111.336262,8.25699482 L111.336262,23.2697127 L113.323468,23.2697127 Z M141.964836,23.6300179 C143.560623,23.6300179 144.885428,23.2396872 145.879031,22.4290005 C146.902744,21.6183137 147.4146,20.5974489 147.4146,19.3063552 C147.4146,16.0636081 144.253135,15.3730231 141.723963,14.7424889 C140.007739,14.2921074 138.622716,13.5414715 138.622716,12.1903269 C138.622716,10.6590297 140.067957,9.81831748 141.784181,9.81831748 C143.620842,9.81831748 144.825209,10.5089025 145.397284,11.920098 L147.05329,10.959284 C146.180123,9.06768158 144.223026,7.89668959 141.784181,7.89668959 C140.308831,7.89668959 139.074354,8.31704569 138.080751,9.12773245 C137.117256,9.93841922 136.635509,10.959284 136.635509,12.1903269 C136.635509,15.433074 139.796975,16.123659 142.326147,16.7541931 C144.04237,17.2045747 145.427393,17.9552106 145.427393,19.3063552 C145.427393,20.9577541 143.921934,21.70839 141.964836,21.70839 C139.94752,21.70839 138.411952,20.7475761 137.839877,19.1862534 L136.153762,20.1770928 C136.966711,22.2188224 139.074354,23.6300179 141.964836,23.6300179 Z" id="openarms" fill="#387595" fill-rule="nonzero"></path>
                    </g>
                </g>
            </g>
        </g>
    </g>
</svg>