<?xml version="1.0" standalone="no"?>
<!DOCTYPE svg PUBLIC "-//W3C//DTD SVG 1.1//EN" "http://www.w3.org/Graphics/SVG/1.1/DTD/svg11.dtd" >
<svg xmlns="http://www.w3.org/2000/svg" xmlns:xlink="http://www.w3.org/1999/xlink" version="1.1">
<metadata>
Created by FontForge 20170731 at Sat Jan  1 08:00:02 2005
 By Aleksey,,,
[c] Copyright 2000-2003, The Font Bureau, Inc. Designed by Cyrus Highsmith, Tobias Frere-Jones, and Font Bureau. All rights reserved.
</metadata>
<defs>
<font id="BentonSans-ExtraLight" horiz-adv-x="500" >
  <font-face 
    font-family="BentonSans"
    font-weight="200"
    font-stretch="normal"
    units-per-em="1000"
    panose-1="2 0 3 3 0 0 0 0 0 0"
    ascent="800"
    descent="-200"
    x-height="525"
    cap-height="740"
    bbox="-84 -205 1266 947"
    underline-thickness="20"
    underline-position="-173"
    unicode-range="U+0020-FFFD"
  />
<missing-glyph 
 />
    <glyph glyph-name=".notdef" unicode="&#xfffd;" 
 />
    <glyph glyph-name=".null" horiz-adv-x="0" 
 />
    <glyph glyph-name="nonmarkingreturn" horiz-adv-x="333" 
 />
    <glyph glyph-name="space" unicode=" " horiz-adv-x="214" 
 />
    <glyph glyph-name="exclam" unicode="!" horiz-adv-x="299" 
d="M139 176l-13 564h47l-13 -564h-21zM122 0v67h56v-67h-56z" />
    <glyph glyph-name="quotedbl" unicode="&#x22;" horiz-adv-x="385" 
d="M267 493l-13 196v51h41v-51l-13 -196h-15zM103 493l-13 196v51h41v-51l-12 -196h-16z" />
    <glyph glyph-name="numbersign" unicode="#" horiz-adv-x="692" 
d="M123 0l47 228h-121v35h129l45 216h-130v34h137l48 227h35l-47 -227h220l47 227h36l-48 -227h122v-34h-129l-45 -216h131v-35h-138l-48 -228h-36l48 228h-220l-48 -228h-35zM213 263h220l45 216h-219z" />
    <glyph glyph-name="dollar" unicode="$" horiz-adv-x="636" 
d="M300 -93v85q-167 9 -230 141l32 19q33 -60 78.5 -91t120.5 -35v350q-110 35 -159 76.5t-49 122.5q0 71 56 121t151 53v70h36v-70q132 -9 197 -120l-31 -21q-30 49 -68.5 75.5t-98.5 30.5v-311q60 -19 96 -34t71.5 -40.5t51.5 -61t16 -85.5q0 -85 -64.5 -136.5
t-169.5 -54.5v-84h-36zM301 414v300q-81 -3 -125 -42t-44 -95q0 -65 39.5 -99t129.5 -64zM335 27q88 2 142 41.5t54 112.5q0 74 -46 112.5t-150 71.5v-338z" />
    <glyph glyph-name="percent" unicode="%" horiz-adv-x="937" 
d="M226 313q-73 0 -114.5 58.5t-41.5 157.5q0 101 43 160t115 59t114.5 -58.5t42.5 -158.5q0 -98 -43 -158t-116 -60zM228 0l441 740h38l-442 -740h-37zM708 -8q-73 0 -114.5 58.5t-41.5 157.5q0 101 43 160t115 59t114.5 -58.5t42.5 -158.5q0 -99 -43 -158.5t-116 -59.5z
M226 347q56 0 88.5 51t32.5 132q0 84 -32 134t-88 50t-88 -51t-32 -132q0 -83 31.5 -133.5t87.5 -50.5zM709 26q56 0 88 51t32 132q0 84 -32 134t-88 50t-87.5 -51t-31.5 -132q0 -84 31.5 -134t87.5 -50z" />
    <glyph glyph-name="ampersand" unicode="&#x26;" horiz-adv-x="714" 
d="M281 -13q-110 0 -171.5 50.5t-61.5 143.5q0 74 47 127.5t130 100.5q-55 94 -55 178q0 71 46 119t117 48q67 0 105.5 -37t38.5 -101q0 -31 -12 -59t-26 -46t-46.5 -41.5t-52 -34.5t-64.5 -36q16 -24 56 -79q89 -123 172 -193q68 86 86 239h39q-19 -162 -99 -261
q80 -64 153 -73v-38q-93 14 -178 83q-90 -90 -224 -90zM259 427q37 20 55 30t46.5 30t42 36.5t24.5 40.5t11 51q0 48 -27.5 76t-78.5 28q-54 0 -88.5 -37t-34.5 -94q0 -75 50 -161zM281 22q121 0 199 78q-82 68 -180 200q-30 40 -57 80q-76 -42 -116 -88t-40 -111
q0 -76 52 -117.5t142 -41.5z" />
    <glyph glyph-name="quotesingle" unicode="'" horiz-adv-x="222" 
d="M103 493l-13 196v51h41v-51l-12 -196h-16z" />
    <glyph glyph-name="parenleft" unicode="(" horiz-adv-x="394" 
d="M319 -205q-248 203 -248 475q0 270 248 475l17 -21q-105 -89 -164 -206.5t-59 -247.5t59 -248t164 -206z" />
    <glyph glyph-name="parenright" unicode=")" horiz-adv-x="394" 
d="M74 -205l-17 21q105 89 164.5 206.5t59.5 247.5t-59.5 248t-164.5 206l17 21q249 -203 249 -475q0 -271 -249 -475z" />
    <glyph glyph-name="asterisk" unicode="*" horiz-adv-x="507" 
d="M169 373l-31 19l102 156l-187 -9v35l187 -9l-102 156l31 19l85 -167l85 167l30 -19l-102 -156l187 9v-35l-187 9l102 -156l-30 -19l-85 167z" />
    <glyph glyph-name="plus" unicode="+" horiz-adv-x="630" 
d="M297 40v233h-232v34h232v233h36v-233h232v-34h-232v-233h-36z" />
    <glyph glyph-name="comma" unicode="," horiz-adv-x="261" 
d="M107 -91l18 91h-23v67h56v-61l-32 -97h-19z" />
    <glyph glyph-name="hyphen" unicode="-" horiz-adv-x="354" 
d="M72 298v37h210v-37h-210z" />
    <glyph glyph-name="period" unicode="." horiz-adv-x="261" 
d="M102 0v67h56v-67h-56z" />
    <glyph glyph-name="slash" unicode="/" horiz-adv-x="524" 
d="M30 0l424 740h40l-424 -740h-40z" />
    <glyph glyph-name="zero" unicode="0" horiz-adv-x="642" 
d="M322 -14q-124 0 -193 105t-69 279t69 279t193 105t192 -105t68 -279t-68 -279t-192 -105zM322 21q106 0 164 93.5t58 255.5q0 161 -58.5 255.5t-163.5 94.5q-107 0 -165 -94t-58 -256q0 -161 59 -255t164 -94z" />
    <glyph glyph-name="one" unicode="1" horiz-adv-x="424" 
d="M67 0v36h144v659q-58 -37 -141 -37v34q93 3 145 48h35v-704h129v-36h-312z" />
    <glyph glyph-name="two" unicode="2" horiz-adv-x="579" 
d="M55 0l1 20q2 91 54 159t202 163q86 54 123 101.5t37 108.5q0 77 -46 122.5t-128 45.5q-133 0 -196 -136l-33 15q33 72 92.5 113.5t138.5 41.5q97 0 154 -54.5t57 -145.5q0 -74 -43 -128.5t-147 -119.5q-126 -78 -174.5 -138t-50.5 -132h415v-36h-456z" />
    <glyph glyph-name="three" unicode="3" horiz-adv-x="582" 
d="M281 -14q-85 0 -147.5 38.5t-98.5 102.5l31 19q76 -126 215 -126q88 0 142 49t54 126q0 183 -243 183h-36v34h38q226 0 226 155q0 70 -44.5 111.5t-131.5 41.5q-112 0 -183 -101l-31 20q81 115 214 115q106 0 160 -52t54 -134q0 -70 -44 -116.5t-118 -56.5
q177 -27 177 -199q0 -91 -64.5 -150.5t-169.5 -59.5z" />
    <glyph glyph-name="four" unicode="4" horiz-adv-x="587" 
d="M396 0v196h-356v29l346 515h48v-509h127v-35h-127v-196h-38zM85 231h311v462z" />
    <glyph glyph-name="five" unicode="5" horiz-adv-x="574" 
d="M278 -14q-82 0 -143 41.5t-90 98.5l33 19q28 -52 78.5 -88t122.5 -36q100 0 153.5 64.5t53.5 156.5q0 96 -52.5 150.5t-134.5 54.5q-117 0 -182 -103l-33 13l29 383h369l-3 -37h-331l-25 -303q63 82 176 82q97 0 161 -64t64 -174q0 -111 -65.5 -184.5t-180.5 -73.5z" />
    <glyph glyph-name="six" unicode="6" horiz-adv-x="599" 
d="M314 -14q-51 0 -95 21t-80 64t-57 116.5t-21 169.5q0 167 75.5 282t199.5 115q98 0 167 -54l-23 -31q-60 51 -144 51q-107 0 -171.5 -102.5t-66.5 -252.5v-18q40 46 97.5 79t125.5 33q116 0 174 -65t58 -164q0 -104 -65.5 -174t-173.5 -70zM315 20q90 0 144.5 58
t54.5 152q0 86 -48.5 140t-146.5 54q-66 0 -124 -36t-95 -89q11 -140 72 -209.5t143 -69.5z" />
    <glyph glyph-name="seven" unicode="7" horiz-adv-x="549" 
d="M134 0l326 703h-399v37h439v-35l-326 -705h-40z" />
    <glyph glyph-name="eight" unicode="8" horiz-adv-x="598" 
d="M301 -14q-115 0 -185.5 53.5t-70.5 137.5q0 77 54 125.5t159 91.5q-87 36 -131.5 76.5t-44.5 106.5q0 75 61.5 126t157.5 51q97 0 158 -51t61 -126q0 -65 -44 -104t-135 -77q106 -45 159.5 -93t53.5 -126q0 -83 -69.5 -137t-183.5 -54zM302 412q97 40 138.5 73.5
t41.5 91.5q0 61 -49.5 102t-131.5 41q-80 0 -130 -41t-50 -100q0 -57 42.5 -92t138.5 -75zM301 21q95 0 155 43t60 115q0 68 -54.5 111t-163.5 87q-111 -47 -163 -89t-52 -109q0 -71 61.5 -114.5t156.5 -43.5z" />
    <glyph glyph-name="nine" unicode="9" horiz-adv-x="599" 
d="M263 -14q-106 0 -185 68l22 29q40 -34 76 -48.5t87 -14.5q108 0 172 102.5t66 253.5v17q-39 -46 -97.5 -79t-125.5 -33q-117 0 -174.5 65t-57.5 164q0 104 65 174t174 70q51 0 95 -21t80 -64t57 -116.5t21 -169.5q0 -167 -75.5 -282t-199.5 -115zM280 316q66 0 123.5 36
t95.5 89q-11 139 -72.5 209t-143.5 70q-90 0 -144 -58t-54 -152q0 -86 48.5 -140t146.5 -54z" />
    <glyph glyph-name="colon" unicode=":" horiz-adv-x="261" 
d="M102 458v67h56v-67h-56zM102 0v67h56v-67h-56z" />
    <glyph glyph-name="semicolon" unicode=";" horiz-adv-x="261" 
d="M102 458v67h56v-67h-56zM107 -91l18 91h-23v67h56v-61l-32 -97h-19z" />
    <glyph glyph-name="less" unicode="&#x3c;" horiz-adv-x="667" 
d="M586 50l-520 224v33l520 223v-38l-476 -202l476 -202v-38z" />
    <glyph glyph-name="equal" unicode="=" horiz-adv-x="668" 
d="M88 386v36h492v-36h-492zM88 160v35h492v-35h-492z" />
    <glyph glyph-name="greater" unicode="&#x3e;" horiz-adv-x="667" 
d="M81 50v38l476 201l-476 203v38l520 -224v-34z" />
    <glyph glyph-name="question" unicode="?" horiz-adv-x="524" 
d="M209 180v40q0 78 22.5 117.5t74.5 71.5q68 42 95.5 74.5t27.5 90.5q0 67 -45.5 106t-123.5 39q-116 0 -186 -109l-30 19q81 125 217 125q93 0 150 -49t57 -130q0 -67 -32 -105.5t-100 -80.5q-62 -38 -76 -74.5t-14 -134.5h-37zM200 0v67h56v-67h-56z" />
    <glyph glyph-name="at" unicode="@" horiz-adv-x="868" 
d="M432 -13q-170 0 -274.5 110t-104.5 272q0 167 109 276t273 109t273 -105t109 -269q0 -106 -46 -163.5t-113 -57.5q-45 0 -75 21t-39 53q-84 -75 -168 -75q-67 0 -109 41.5t-42 122.5q0 114 56 191.5t149 77.5q81 0 143 -58l7 49h35l-43 -297q-7 -42 17 -69t70 -27
q55 0 91 48.5t36 142.5q0 152 -100 248t-251 96t-251 -100.5t-100 -254.5q0 -152 96.5 -252.5t251.5 -100.5q109 0 213 52l12 -26q-110 -55 -225 -55zM375 190q44 0 81 17t79 56q0 1 1.5 14t1.5 15l30 204q-55 62 -144 62q-74 0 -118.5 -68.5t-44.5 -165.5q0 -67 31 -100.5
t83 -33.5z" />
    <glyph glyph-name="A" unicode="A" horiz-adv-x="656" 
d="M40 0l266 743h44l265 -743h-41l-90 256h-313l-91 -256h-40zM183 291h288l-144 408z" />
    <glyph glyph-name="B" unicode="B" horiz-adv-x="673" 
d="M102 0v740h227q256 0 256 -187q0 -73 -44 -116t-107 -56q74 -12 127.5 -57t53.5 -128q0 -89 -62.5 -142.5t-186.5 -53.5h-264zM140 398h199q97 0 152 38.5t55 114.5q0 82 -52.5 117.5t-163.5 35.5h-190v-306zM140 35h229q103 0 155 42t52 119q0 82 -61 124t-172 42h-203
v-327z" />
    <glyph glyph-name="C" unicode="C" horiz-adv-x="692" 
d="M366 -14q-136 0 -218.5 108.5t-82.5 280.5q0 164 83 271.5t215 107.5q196 0 259 -223l-37 -10q-28 96 -79.5 147t-142.5 51q-115 0 -187 -96t-72 -247q0 -160 72 -257.5t190 -97.5q174 0 232 206l36 -8q-25 -99 -92 -166t-176 -67z" />
    <glyph glyph-name="D" unicode="D" horiz-adv-x="695" 
d="M101 0v740h159q370 0 370 -370q0 -182 -93 -276t-277 -94h-159zM140 36h127q324 0 324 334t-325 334h-126v-668z" />
    <glyph glyph-name="E" unicode="E" horiz-adv-x="589" 
d="M101 0v740h424v-36h-385v-293h290v-36h-290v-339h400v-36h-439z" />
    <glyph glyph-name="F" unicode="F" horiz-adv-x="560" 
d="M101 0v740h416v-36h-377v-293h282v-36h-282v-375h-39z" />
    <glyph glyph-name="G" unicode="G" horiz-adv-x="709" 
d="M363 -14q-131 0 -215.5 106t-84.5 283q0 164 83 271.5t216 107.5q197 0 260 -224l-37 -10q-30 99 -82 149t-141 50q-116 0 -188 -96.5t-72 -245.5q0 -164 73.5 -260t188.5 -96q103 0 165 76t58 202h-194v36h232v-335h-38v139q-26 -66 -83 -109.5t-141 -43.5z" />
    <glyph glyph-name="H" unicode="H" horiz-adv-x="723" 
d="M101 0v740h39v-329h443v329h39v-740h-39v375h-443v-375h-39z" />
    <glyph glyph-name="I" unicode="I" horiz-adv-x="255" 
d="M108 0v740h39v-740h-39z" />
    <glyph glyph-name="J" unicode="J" horiz-adv-x="488" 
d="M207 -14q-116 0 -174 109l32 18q52 -92 142 -92q147 0 147 166v553h38v-550q0 -101 -48.5 -152.5t-136.5 -51.5z" />
    <glyph glyph-name="K" unicode="K" horiz-adv-x="654" 
d="M101 0v740h39v-433l395 433h48l-256 -279l296 -461h-45l-277 432l-161 -175v-257h-39z" />
    <glyph glyph-name="L" unicode="L" horiz-adv-x="560" 
d="M101 0v740h39v-704h377v-36h-416z" />
    <glyph glyph-name="M" unicode="M" horiz-adv-x="861" 
d="M101 0v740h46l283 -690l284 690h46v-740h-40v660l-272 -660h-37l-273 660v-660h-37z" />
    <glyph glyph-name="N" unicode="N" horiz-adv-x="733" 
d="M101 0v740h44l449 -667v667h38v-740h-35l-459 682v-682h-37z" />
    <glyph glyph-name="O" unicode="O" horiz-adv-x="732" 
d="M366 -14q-132 0 -216.5 107.5t-84.5 276.5t84.5 276.5t216.5 107.5t216.5 -107.5t84.5 -276.5t-84.5 -276.5t-216.5 -107.5zM366 21q115 0 189 96t74 253t-74 253t-189 96q-116 0 -189 -95.5t-73 -253.5t73 -253.5t189 -95.5z" />
    <glyph glyph-name="P" unicode="P" horiz-adv-x="627" 
d="M101 0v740h231q121 0 185 -51t64 -141q0 -94 -66 -144.5t-187 -50.5h-188v-353h-39zM140 388h191q211 0 211 159q0 157 -212 157h-190v-316z" />
    <glyph glyph-name="Q" unicode="Q" horiz-adv-x="732" 
d="M552 -178q-101 0 -154 43t-53 122q-125 8 -202.5 114t-77.5 269q0 169 84.5 276.5t216.5 107.5t216.5 -107.5t84.5 -276.5q0 -163 -79 -269t-204 -114q4 -129 169 -129h49v-36h-50zM366 21q115 0 189 96t74 253t-74 253t-189 96q-116 0 -189 -95.5t-73 -253.5t73 -253.5
t189 -95.5z" />
    <glyph glyph-name="R" unicode="R" horiz-adv-x="659" 
d="M101 0v740h231q120 0 184.5 -51.5t64.5 -140.5q0 -82 -50.5 -130.5t-142.5 -59.5l199 -358h-45l-197 354h-205v-354h-39zM140 388h191q211 0 211 159q0 157 -212 157h-190v-316z" />
    <glyph glyph-name="S" unicode="S" horiz-adv-x="636" 
d="M326 -14q-210 0 -265 199l38 10q49 -174 228 -174q93 0 148.5 42.5t55.5 113.5t-43 110.5t-167 79.5q-131 42 -179.5 84.5t-48.5 126.5q0 73 60.5 124.5t156.5 51.5t156 -46.5t85 -125.5l-37 -12q-51 149 -204 149q-81 0 -129.5 -40.5t-48.5 -99.5q0 -68 44 -103.5
t167 -75.5q126 -41 176.5 -87t50.5 -135q0 -88 -68.5 -140t-175.5 -52z" />
    <glyph glyph-name="T" unicode="T" horiz-adv-x="609" 
d="M285 0v704h-247v36h533v-36h-247v-704h-39z" />
    <glyph glyph-name="U" unicode="U" horiz-adv-x="712" 
d="M355 -14q-123 0 -191 72t-68 182v500h39v-504q0 -91 58 -153t163 -62q104 0 162.5 61.5t58.5 154.5v503h38v-502q0 -107 -69 -179.5t-191 -72.5z" />
    <glyph glyph-name="V" unicode="V" horiz-adv-x="651" 
d="M307 -3l-266 743h41l244 -691l245 691h39l-266 -743h-37z" />
    <glyph glyph-name="W" unicode="W" horiz-adv-x="914" 
d="M246 0l-201 740h40l182 -678l169 678h44l177 -678l173 678h39l-193 -740h-41l-178 682l-171 -682h-40z" />
    <glyph glyph-name="X" unicode="X" horiz-adv-x="641" 
d="M340 399l266 -399h-43l-244 366l-245 -366h-41l266 396l-229 344h43l207 -311l208 311h41z" />
    <glyph glyph-name="Y" unicode="Y" horiz-adv-x="599" 
d="M280 0v333l-249 407h43l227 -373l226 373h41l-249 -407v-333h-39z" />
    <glyph glyph-name="Z" unicode="Z" horiz-adv-x="614" 
d="M46 0v31l469 675h-441v34h486v-31l-468 -675h467v-34h-513z" />
    <glyph glyph-name="bracketleft" unicode="[" horiz-adv-x="374" 
d="M96 -200v940h223v-30h-185v-880h185v-30h-223z" />
    <glyph glyph-name="backslash" unicode="\" horiz-adv-x="524" 
d="M454 0l-424 740h40l424 -740h-40z" />
    <glyph glyph-name="bracketright" unicode="]" horiz-adv-x="374" 
d="M55 -200v30h185v880h-185v30h223v-940h-223z" />
    <glyph glyph-name="asciicircum" unicode="^" 
d="M103 577l132 156h30l132 -156h-27l-121 113l-120 -113h-26z" />
    <glyph glyph-name="underscore" unicode="_" 
d="M0 -110v35h500v-35h-500z" />
    <glyph glyph-name="grave" unicode="`" 
d="M294 582l-136 151h61l100 -151h-25z" />
    <glyph glyph-name="a" unicode="a" horiz-adv-x="535" 
d="M201 -12q-70 0 -108.5 34t-38.5 95q0 85 86.5 139t278.5 84v37q0 126 -120 126q-107 0 -202 -87l-26 22q100 98 229 98q78 0 117 -41t39 -115v-257q0 -84 14 -123h-39q-11 30 -12 85q-105 -97 -218 -97zM203 21q60 0 117 29.5t99 72.5v188q-182 -30 -255 -77.5
t-73 -114.5q0 -47 29.5 -72.5t82.5 -25.5z" />
    <glyph glyph-name="b" unicode="b" horiz-adv-x="582" 
d="M304 -11q-96 0 -182 92v-81h-37v740h37v-296q86 92 183 92t158 -70t61 -203t-61 -203.5t-159 -70.5zM306 22q80 0 130.5 60.5t50.5 179.5t-51.5 180t-131.5 61q-92 0 -182 -98v-284q49 -51 91 -75t93 -24z" />
    <glyph glyph-name="c" unicode="c" horiz-adv-x="526" 
d="M274 -11q-94 0 -156 77t-62 196q0 132 66 203t159 71q72 0 116.5 -37t73.5 -104l-32 -17q-26 62 -63 93.5t-97 31.5q-75 0 -130.5 -60.5t-55.5 -179.5q0 -106 51.5 -173.5t131.5 -67.5q60 0 97.5 31t70.5 97l30 -15q-36 -74 -82.5 -110t-117.5 -36z" />
    <glyph glyph-name="d" unicode="d" horiz-adv-x="582" 
d="M277 -11q-97 0 -158 70t-61 203t61.5 203.5t158.5 70.5q96 0 182 -92v296h37v-617q0 -84 14 -123h-39q-12 34 -12 81q-86 -92 -183 -92zM278 22q92 0 182 98v284q-49 51 -91 75t-93 24q-80 0 -131 -60.5t-51 -179.5q0 -118 52 -179.5t132 -61.5z" />
    <glyph glyph-name="e" unicode="e" horiz-adv-x="537" 
d="M274 -11q-96 0 -157 77.5t-61 195.5q0 131 65.5 202.5t154.5 71.5q91 0 148 -71t57 -196v-5h-388v-6q0 -102 50.5 -169t131.5 -67q104 0 177 114l27 -18q-78 -129 -205 -129zM94 295h349q-5 95 -49.5 151.5t-117.5 56.5q-69 0 -121.5 -54t-60.5 -154z" />
    <glyph glyph-name="f" unicode="f" horiz-adv-x="309" 
d="M124 0v491h-92v34h92v95q0 117 136 120q8 1 26 1v-34h-29q-97 -3 -97 -84v-98h121v-34h-121v-491h-36z" />
    <glyph glyph-name="g" unicode="g" horiz-adv-x="557" 
d="M267 -200q-117 0 -179 33t-62 96q0 43 30.5 76t75.5 51q-52 18 -52 67q0 43 62 75q-79 52 -79 151q0 80 56.5 133.5t141.5 53.5q81 0 135 -48q64 41 124 50v-39q-60 -5 -104 -31q43 -48 43 -119q0 -82 -56 -133.5t-142 -51.5q-50 0 -91 19q-54 -24 -54 -58
q0 -22 20.5 -32.5t74.5 -15.5q56 -8 94 -8q197 -15 197 -128q0 -63 -63.5 -102t-171.5 -39zM261 197q73 0 117.5 42.5t44.5 109.5q0 68 -44 111.5t-118 43.5q-73 0 -117.5 -44t-44.5 -111t44.5 -109.5t117.5 -42.5zM268 -168q92 0 144.5 30t52.5 77t-43.5 69t-128.5 29
q-32 0 -88 7q-22 2 -33 4q-48 -16 -78.5 -47.5t-30.5 -69.5q0 -99 205 -99z" />
    <glyph glyph-name="h" unicode="h" horiz-adv-x="569" 
d="M85 0v740h37v-304q109 100 209 100q159 0 159 -160v-376h-36v373q0 130 -126 130q-100 0 -206 -103v-400h-37z" />
    <glyph glyph-name="i" unicode="i" horiz-adv-x="217" 
d="M87 660v53h43v-53h-43zM90 0v525h37v-525h-37z" />
    <glyph glyph-name="j" unicode="j" horiz-adv-x="217" 
d="M87 660v53h43v-53h-43zM44 -200q-17 0 -29 2v34q16 -4 28 -4q47 0 47 55v638h37v-632q0 -93 -83 -93z" />
    <glyph glyph-name="k" unicode="k" horiz-adv-x="515" 
d="M85 0v740h37v-529l288 314h45l-173 -185l197 -340h-41l-181 312q-117 -126 -135 -145v-167h-37z" />
    <glyph glyph-name="l" unicode="l" horiz-adv-x="217" 
d="M90 0v740h37v-740h-37z" />
    <glyph glyph-name="m" unicode="m" horiz-adv-x="909" 
d="M85 0v525h37v-89q109 100 202 100q121 0 146 -103q117 103 208 103q152 0 152 -160v-376h-36v373q0 66 -28.5 98t-90.5 32q-93 0 -200 -104q1 -5 1 -27v-372h-37v373q0 66 -28.5 98t-89.5 32q-93 0 -199 -103v-400h-37z" />
    <glyph glyph-name="n" unicode="n" horiz-adv-x="569" 
d="M85 0v525h37v-89q109 100 209 100q159 0 159 -160v-376h-36v373q0 130 -126 130q-100 0 -206 -103v-400h-37z" />
    <glyph glyph-name="o" unicode="o" horiz-adv-x="569" 
d="M284 -11q-96 0 -162 76t-66 197q0 123 65.5 198.5t162.5 75.5q96 0 162 -76t66 -198q0 -121 -66 -197t-162 -76zM284 22q84 0 138 68t54 173q0 102 -53.5 171t-138.5 69q-84 0 -137.5 -67.5t-53.5 -172.5q0 -102 53 -171.5t138 -69.5z" />
    <glyph glyph-name="p" unicode="p" horiz-adv-x="582" 
d="M85 -200v725h37v-81q86 92 183 92t158 -70t61 -203t-61 -203.5t-159 -70.5q-96 0 -182 92v-281h-37zM306 22q80 0 130.5 60.5t50.5 179.5t-51.5 180t-131.5 61q-92 0 -182 -98v-284q49 -51 91 -75t93 -24z" />
    <glyph glyph-name="q" unicode="q" horiz-adv-x="582" 
d="M460 -200v281q-86 -92 -184 -92q-97 0 -158 70t-61 203t61.5 203.5t158.5 70.5q95 0 183 -92v81h37v-725h-37zM278 22q92 0 182 98v284q-48 51 -91 75t-93 24q-81 0 -131.5 -60.5t-50.5 -179.5q0 -118 52 -179.5t132 -61.5z" />
    <glyph glyph-name="r" unicode="r" horiz-adv-x="388" 
d="M85 0v525h37v-116q86 133 220 126l17 -1l-7 -34l-17 1q-67 4 -122 -34.5t-91 -109.5v-357h-37z" />
    <glyph glyph-name="s" unicode="s" 
d="M246 -11q-127 0 -194 97l28 21q62 -85 166 -85q75 0 117 30t42 83q0 50 -39 77.5t-125 49.5q-95 25 -134.5 56t-39.5 91q0 53 45 90t124 37q111 0 184 -78l-27 -25q-62 70 -158 70q-65 0 -98 -27t-33 -66q0 -45 33.5 -68.5t108.5 -43.5q105 -29 150 -62t45 -101
q0 -67 -53.5 -106.5t-141.5 -39.5z" />
    <glyph glyph-name="t" unicode="t" horiz-adv-x="350" 
d="M243 -7q-64 0 -92.5 29.5t-28.5 93.5v375h-92v34h92v191h37v-191h142v-34h-142v-373q0 -46 19.5 -68.5t68.5 -22.5q31 0 56 7v-35q-34 -6 -60 -6z" />
    <glyph glyph-name="u" unicode="u" horiz-adv-x="569" 
d="M238 -11q-160 0 -160 160v376h37v-373q0 -66 30 -98t95 -32q99 0 207 103v400h37v-525h-37v89q-109 -100 -209 -100z" />
    <glyph glyph-name="v" unicode="v" horiz-adv-x="502" 
d="M232 -3l-198 528h40l178 -482l176 482h39l-197 -528h-38z" />
    <glyph glyph-name="w" unicode="w" horiz-adv-x="743" 
d="M201 -2l-166 527h38l145 -473l135 473h38l142 -473l138 473h37l-159 -527h-35l-142 476l-136 -476h-35z" />
    <glyph glyph-name="x" unicode="x" horiz-adv-x="501" 
d="M40 0l191 270l-178 255h41l157 -226l157 226h40l-179 -253l191 -272h-42l-168 243l-169 -243h-41z" />
    <glyph glyph-name="y" unicode="y" horiz-adv-x="511" 
d="M83 -201q-41 0 -78 10l9 32q33 -9 72 -9q49 0 77.5 22t46.5 70l27 72l-203 529h40l182 -483l181 483h39l-230 -601q-26 -67 -61.5 -96t-101.5 -29z" />
    <glyph glyph-name="z" unicode="z" 
d="M74 492v33h363v-27l-340 -465h352v-33h-398v27l338 465h-315z" />
    <glyph glyph-name="braceleft" unicode="{" horiz-adv-x="364" 
d="M273 -200q-63 0 -90.5 30t-27.5 91v226q0 62 -23 84.5t-87 22.5v32q64 0 87 22.5t23 84.5v226q0 61 27.5 91t90.5 30h43v-30h-43q-80 0 -80 -82v-234q0 -59 -18 -86t-58 -38q42 -13 59 -38.5t17 -85.5v-234q0 -82 80 -82h43v-30h-43z" />
    <glyph glyph-name="bar" unicode="|" horiz-adv-x="332" 
d="M147 -200v940h37v-940h-37z" />
    <glyph glyph-name="braceright" unicode="}" horiz-adv-x="364" 
d="M48 -200v30h43q80 0 80 82v234q0 59 17.5 86t58.5 38q-42 13 -59 38.5t-17 85.5v234q0 82 -80 82h-43v30h43q63 0 90.5 -30t27.5 -91v-226q0 -62 23 -84.5t87 -22.5v-32q-64 0 -87 -22.5t-23 -84.5v-226q0 -61 -27.5 -91t-90.5 -30h-43z" />
    <glyph glyph-name="asciitilde" unicode="~" 
d="M100 424q0 92 74 92q30 0 79 -28q52 -30 74 -30q24 0 33.5 13t9.5 44h30q0 -92 -74 -92q-30 0 -88 33q-46 26 -65 26q-24 0 -33.5 -13.5t-9.5 -44.5h-30z" />
    <glyph glyph-name="nbspace" unicode="&#xa0;" horiz-adv-x="107" 
 />
    <glyph glyph-name="exclamdown" unicode="&#xa1;" horiz-adv-x="299" 
d="M122 673v67h56v-67h-56zM126 0l13 564h21l13 -564h-47z" />
    <glyph glyph-name="cent" unicode="&#xa2;" horiz-adv-x="526" 
d="M137 -129l38 145q-55 33 -87 98t-32 148q0 132 66 203t159 71q10 0 32 -2l27 104h32l-29 -111q82 -25 128 -132l-32 -17q-39 96 -105 116l-123 -459q33 -13 65 -13q60 0 97.5 31t70.5 97l30 -15q-36 -74 -82.5 -110t-117.5 -36q-35 0 -71 13l-35 -131h-31zM184 51
l120 451q-7 1 -25 1q-75 0 -130.5 -60.5t-55.5 -179.5q0 -71 24 -126.5t67 -85.5z" />
    <glyph glyph-name="sterling" unicode="&#xa3;" horiz-adv-x="589" 
d="M142 -14q-43 0 -73 26t-30 69q0 48 28.5 77t76.5 29q54 0 109 -53q7 28 7 70q0 82 -50 172h-124v35h105q-53 96 -53 169q0 81 49.5 127.5t129.5 46.5q88 0 133.5 -54t49.5 -129l-38 -2q-3 64 -39 107.5t-107 43.5q-63 0 -101.5 -36.5t-38.5 -102.5q0 -64 57 -170h173v-35
h-154q45 -88 45 -169q0 -55 -14 -102q26 -27 42 -41.5t43 -28.5t55 -14q93 0 99 155h37q-8 -190 -137 -190q-31 0 -61 14t-47.5 29t-44.5 43q-42 -86 -127 -86zM142 18q70 0 101 80l-4 4q-54 52 -96 52q-31 0 -50 -19.5t-19 -52.5q0 -29 19 -46.5t49 -17.5z" />
    <glyph glyph-name="currency" unicode="&#xa4;" horiz-adv-x="722" 
d="M128 430h-108v33h112q20 131 94.5 211.5t181.5 80.5q180 0 243 -224l-35 -9q-29 97 -75.5 148.5t-133.5 51.5q-91 0 -155.5 -71t-83.5 -188h249v-33h-254q-2 -36 -2 -54q0 -33 3 -63h253v-33h-249q20 -120 85 -191t159 -71q161 0 217 209l35 -9q-12 -45 -31 -83.5
t-48.5 -73.5t-74.5 -55.5t-99 -20.5q-109 0 -183.5 81t-95.5 214h-112v33h108q-3 30 -3 62q0 28 3 55z" />
    <glyph glyph-name="yen" unicode="&#xa5;" horiz-adv-x="599" 
d="M319 288v-114h200v-36h-200v-138h-39v138h-198v36h198v114h-198v36h198v9l-249 407h43l227 -373l226 373h41l-249 -407v-9h200v-36h-200z" />
    <glyph glyph-name="brokenbar" unicode="&#xa6;" horiz-adv-x="332" 
d="M147 340v400h37v-400h-37zM147 -200v400h37v-400h-37z" />
    <glyph glyph-name="section" unicode="&#xa7;" horiz-adv-x="515" 
d="M258 -200q-157 0 -189 147l36 8q29 -120 152 -120q63 0 97.5 30t34.5 73q0 48 -31 81t-115 81q-106 61 -145.5 98.5t-39.5 93.5q0 108 135 167q-59 38 -82.5 72t-23.5 83q0 57 46.5 98.5t124.5 41.5q158 0 188 -147l-36 -8q-27 120 -152 120q-63 0 -97.5 -30t-34.5 -73
q0 -48 31.5 -81t115.5 -81q106 -61 145 -98.5t39 -93.5q0 -108 -135 -167q59 -38 82.5 -72t23.5 -83q0 -57 -46.5 -98.5t-123.5 -41.5zM289 116q65 27 97.5 61t32.5 84q0 44 -34 74.5t-133 87.5q-18 10 -26 15q-65 -27 -97.5 -61t-32.5 -84q0 -44 34 -74.5t133 -87.5
q18 -10 26 -15z" />
    <glyph glyph-name="dieresis" unicode="&#xa8;" 
d="M304 582v59h50v-59h-50zM146 582v59h50v-59h-50z" />
    <glyph glyph-name="copyright" unicode="&#xa9;" horiz-adv-x="862" 
d="M431 -14q-159 0 -270 112.5t-111 271.5t111 271.5t270 112.5t270 -112.5t111 -271.5t-111 -271.5t-270 -112.5zM431 13q147 0 250 105t103 252t-103 252t-250 105t-250 -105t-103 -252t103 -252t250 -105zM429 156q-79 0 -126 61.5t-47 160.5q0 94 47.5 156t125.5 62
q118 0 154 -134q-27 -7 -29 -7q-16 57 -45.5 85t-79.5 28q-65 0 -104.5 -53.5t-39.5 -136.5q0 -88 39 -141t105 -53q101 0 132 118q25 -7 28 -7q-17 -67 -58.5 -103t-101.5 -36z" />
    <glyph glyph-name="ordfeminine" unicode="&#xaa;" horiz-adv-x="404" 
d="M165 371q-51 0 -79 24.5t-28 66.5q0 57 56 95t199 61v23q0 83 -79 83q-81 0 -143 -62l-22 22q70 70 166 70q111 0 111 -112v-175q0 -62 13 -88h-36q-9 23 -10 55q-74 -63 -148 -63zM167 402q77 0 146 67v121q-126 -20 -173.5 -50.5t-47.5 -76.5q0 -61 75 -61z" />
    <glyph glyph-name="guillemotleft" unicode="&#xab;" horiz-adv-x="489" 
d="M380 0l-144 263l144 262h41l-144 -262l144 -263h-41zM199 0l-144 263l144 262h40l-143 -262l143 -263h-40z" />
    <glyph glyph-name="logicalnot" unicode="&#xac;" horiz-adv-x="760" 
d="M360 0l7 198l-129 -5l1 -38h-38l1 37l-36 -1v38l37 -1l5 127l-198 -7v42l198 -7l-5 130l-37 -1v37l36 -1l-1 36h38l-1 -37l129 -4l-7 197h42l-7 -197l128 4l-1 37h37l-1 -36l37 1v-37l-38 1l-4 -130l197 7v-42l-197 7l4 -127l38 1v-38l-37 1l1 -37h-37l1 38l-128 5
l7 -198h-42zM395 383h133l-4 131l-129 4v-135zM233 383h134v135l-130 -4zM395 223l129 3l4 129h-133v-132zM367 223v132h-134l4 -129z" />
    <glyph glyph-name="registered" unicode="&#xae;" horiz-adv-x="862" 
d="M431 -14q-159 0 -270 112.5t-111 271.5t111 271.5t270 112.5t270 -112.5t111 -271.5t-111 -271.5t-270 -112.5zM431 13q147 0 250 105t103 252t-103 252t-250 105t-250 -105t-103 -252t103 -252t250 -105zM303 165v421h140q70 0 107.5 -29.5t37.5 -83.5q0 -102 -116 -115
l114 -193h-32l-113 190h-109v-190h-29zM332 382h108q119 0 119 91q0 85 -117 85h-110v-176z" />
    <glyph glyph-name="macron" unicode="&#xaf;" 
d="M114 626v36h272v-36h-272z" />
    <glyph glyph-name="degree" unicode="&#xb0;" horiz-adv-x="400" 
d="M200 484q-58 0 -97 38.5t-39 96.5t39 96.5t97 38.5t97 -38.5t39 -96.5t-39 -96.5t-97 -38.5zM200 515q44 0 72.5 29t28.5 75t-28.5 75t-72.5 29t-72.5 -29t-28.5 -75t28.5 -75t72.5 -29z" />
    <glyph glyph-name="plusminus" unicode="&#xb1;" horiz-adv-x="816" 
d="M689 0v740h37v-740h-37zM407 525v95q0 117 136 120q8 1 26 1v-34h-29q-97 -3 -97 -84v-98h121v-34h-121v-491h-36v491h-247v-491h-36v491h-92v34h92v95q0 117 136 120q8 1 26 1v-34h-29q-97 -3 -97 -84v-98h247z" />
    <glyph glyph-name="twosuperior" unicode="&#xb2;" horiz-adv-x="443" 
d="M82 320v16q0 48 34.5 91t124.5 94q49 28 70.5 53.5t21.5 57.5q0 39 -26 63t-72 24q-75 0 -117 -77l-29 14q50 94 147 94q60 0 95.5 -33t35.5 -84q0 -43 -26 -74.5t-90 -66.5q-71 -41 -101 -74t-33 -66h251v-32h-286z" />
    <glyph glyph-name="threesuperior" unicode="&#xb3;" horiz-adv-x="443" 
d="M216 313q-100 0 -156 87l28 17q47 -74 129 -74q51 0 81.5 25.5t30.5 65.5q0 49 -34 72.5t-111 23.5h-24v30h28q132 0 132 83q0 34 -25 55t-76 21q-64 0 -110 -59l-26 18q56 71 137 71q68 0 101 -30.5t33 -75.5q0 -78 -89 -98q98 -16 98 -111q0 -52 -39.5 -86.5
t-107.5 -34.5z" />
    <glyph glyph-name="acute" unicode="&#xb4;" 
d="M181 582l100 151h61l-136 -151h-25z" />
    <glyph glyph-name="paragraph" unicode="&#xb6;" horiz-adv-x="604" 
d="M299 -200v567q-111 1 -169.5 48t-58.5 138q0 83 57 135t158 52h216v-940h-37v905h-128v-905h-38z" />
    <glyph glyph-name="periodcentered" unicode="&#xb7;" horiz-adv-x="261" 
d="M102 280v68h56v-68h-56z" />
    <glyph glyph-name="cedilla" unicode="&#xb8;" 
d="M250 -193q-66 0 -119 36l14 22q47 -32 102 -32q84 0 84 57q0 17 -12.5 27.5t-33.5 10.5q-27 0 -60 -24l-21 12l25 84h30l-19 -64q22 19 55 19q29 0 49.5 -17.5t20.5 -45.5q0 -43 -32 -64t-83 -21z" />
    <glyph glyph-name="onesuperior" unicode="&#xb9;" horiz-adv-x="414" 
d="M112 319v30h87v354q-33 -18 -85 -18v30q64 0 89 25h30v-391h79v-30h-200z" />
    <glyph glyph-name="ordmasculine" unicode="&#xba;" horiz-adv-x="419" 
d="M209 371q-69 0 -116 53t-47 138q0 88 46.5 140t116.5 52t117 -52.5t47 -139.5q0 -85 -47.5 -138t-116.5 -53zM209 401q58 0 94.5 45.5t36.5 116.5q0 70 -36 115.5t-95 45.5q-58 0 -94 -45t-36 -116q0 -70 35.5 -116t94.5 -46z" />
    <glyph glyph-name="guillemotright" unicode="&#xbb;" horiz-adv-x="489" 
d="M250 0l143 263l-143 262h40l144 -262l-144 -263h-40zM69 0l143 263l-143 262h40l144 -262l-144 -263h-40z" />
    <glyph glyph-name="onequarter" unicode="&#xbc;" horiz-adv-x="863" 
d="M112 319v30h87v354q-33 -18 -85 -18v30q64 0 89 25h30v-391h79v-30h-200zM191 0l470 740h35l-470 -740h-35zM682 0v109h-217v21l213 291h36v-283h77v-29h-77v-109h-32zM507 138h175v237z" />
    <glyph glyph-name="onehalf" unicode="&#xbd;" horiz-adv-x="927" 
d="M112 319v30h87v354q-33 -18 -85 -18v30q64 0 89 25h30v-391h79v-30h-200zM190 0l470 740h35l-470 -740h-35zM536 0v16q0 48 34 91t124 94q49 27 70.5 53t21.5 58q0 39 -25.5 63t-71.5 24q-40 0 -67.5 -18t-50.5 -59l-29 14q50 94 147 94q61 0 96 -33t35 -84
q0 -43 -26 -74.5t-89 -66.5q-71 -41 -101 -73.5t-33 -66.5h251v-32h-286z" />
    <glyph glyph-name="threequarters" unicode="&#xbe;" horiz-adv-x="885" 
d="M216 313q-100 0 -156 87l28 17q47 -74 129 -74q51 0 81.5 25.5t30.5 65.5q0 49 -34 72.5t-111 23.5h-24v30h28q132 0 132 83q0 34 -25 55t-76 21q-64 0 -110 -59l-26 18q56 71 137 71q68 0 101 -30.5t33 -75.5q0 -78 -89 -98q98 -16 98 -111q0 -52 -39.5 -86.5
t-107.5 -34.5zM221 0l470 740h35l-470 -740h-35zM712 0v109h-217v21l213 291h37v-283h76v-29h-76v-109h-33zM537 138h175v237z" />
    <glyph glyph-name="questiondown" unicode="&#xbf;" horiz-adv-x="524" 
d="M268 673v67h56v-67h-56zM263 -14q-93 0 -150 49t-57 130q0 67 32 105.5t100 80.5q62 38 76 74.5t14 134.5h37v-40q0 -78 -22.5 -117.5t-74.5 -71.5q-68 -42 -95.5 -74.5t-27.5 -90.5q0 -67 45.5 -106t123.5 -39q116 0 186 109l30 -19q-81 -125 -217 -125z" />
    <glyph glyph-name="Agrave" unicode="&#xc0;" horiz-adv-x="656" 
d="M40 0l266 743h44l265 -743h-41l-90 256h-313l-91 -256h-40zM183 291h288l-144 408zM328 787l-136 151h61l100 -151h-25z" />
    <glyph glyph-name="Aacute" unicode="&#xc1;" horiz-adv-x="656" 
d="M40 0l266 743h44l265 -743h-41l-90 256h-313l-91 -256h-40zM183 291h288l-144 408zM303 787l100 151h61l-136 -151h-25z" />
    <glyph glyph-name="Acircumflex" unicode="&#xc2;" horiz-adv-x="656" 
d="M40 0l266 743h44l265 -743h-41l-90 256h-313l-91 -256h-40zM183 291h288l-144 408zM180 778l132 156h30l132 -156h-27l-121 113l-120 -113h-26z" />
    <glyph glyph-name="Atilde" unicode="&#xc3;" horiz-adv-x="656" 
d="M40 0l266 743h44l265 -743h-41l-90 256h-313l-91 -256h-40zM183 291h288l-144 408zM178 787q0 92 74 92q30 0 79 -28q52 -30 74 -30q24 0 33.5 13t9.5 44h30q0 -92 -74 -92q-30 0 -88 33q-46 26 -65 26q-24 0 -33.5 -13.5t-9.5 -44.5h-30z" />
    <glyph glyph-name="Adieresis" unicode="&#xc4;" horiz-adv-x="656" 
d="M40 0l266 743h44l265 -743h-41l-90 256h-313l-91 -256h-40zM183 291h288l-144 408zM381 787v59h50v-59h-50zM223 787v59h50v-59h-50z" />
    <glyph glyph-name="Aring" unicode="&#xc5;" horiz-adv-x="656" 
d="M296 714q-56 22 -56 82q0 37 25 61.5t63 24.5q37 0 62 -24.5t25 -61.5q0 -29 -15 -50.5t-40 -30.5l255 -715h-41l-90 256h-313l-91 -256h-40zM328 734q26 0 43 17.5t17 44.5q0 26 -17 43.5t-43 17.5q-27 0 -44 -17.5t-17 -43.5q0 -27 17 -44.5t44 -17.5zM183 291h288
l-144 408z" />
    <glyph glyph-name="AE" unicode="&#xc6;" horiz-adv-x="975" 
d="M36 0l429 740h446v-36h-385v-293h290v-36h-290v-339h400v-36h-439v257h-263l-148 -257h-40zM245 292h242v419z" />
    <glyph glyph-name="Ccedilla" unicode="&#xc7;" horiz-adv-x="692" 
d="M333 -12q-122 13 -195 119.5t-73 267.5q0 164 83 271.5t215 107.5q196 0 259 -223l-37 -10q-28 96 -79.5 147t-142.5 51q-115 0 -187 -96t-72 -247q0 -160 72 -257.5t190 -97.5q174 0 232 206l36 -8q-25 -99 -92 -166t-176 -67h-3l-15 -50q22 19 55 19q29 0 49.5 -17.5
t20.5 -45.5q0 -43 -32 -64t-83 -21q-66 0 -119 36l14 22q47 -32 102 -32q84 0 84 57q0 17 -12.5 27.5t-33.5 10.5q-27 0 -60 -24l-21 12z" />
    <glyph glyph-name="Egrave" unicode="&#xc8;" horiz-adv-x="589" 
d="M101 0v740h424v-36h-385v-293h290v-36h-290v-339h400v-36h-439zM338 787l-136 151h61l100 -151h-25z" />
    <glyph glyph-name="Eacute" unicode="&#xc9;" horiz-adv-x="589" 
d="M101 0v740h424v-36h-385v-293h290v-36h-290v-339h400v-36h-439zM258 787l100 151h61l-136 -151h-25z" />
    <glyph glyph-name="Ecircumflex" unicode="&#xca;" horiz-adv-x="589" 
d="M101 0v740h424v-36h-385v-293h290v-36h-290v-339h400v-36h-439zM169 782l132 156h30l132 -156h-27l-121 113l-120 -113h-26z" />
    <glyph glyph-name="Edieresis" unicode="&#xcb;" horiz-adv-x="589" 
d="M101 0v740h424v-36h-385v-293h290v-36h-290v-339h400v-36h-439zM373 787v59h50v-59h-50zM215 787v59h50v-59h-50z" />
    <glyph glyph-name="Igrave" unicode="&#xcc;" horiz-adv-x="255" 
d="M108 0v740h39v-740h-39zM116 787l-136 151h61l100 -151h-25z" />
    <glyph glyph-name="Iacute" unicode="&#xcd;" horiz-adv-x="255" 
d="M108 0v740h39v-740h-39zM116 787l100 151h61l-136 -151h-25z" />
    <glyph glyph-name="Icircumflex" unicode="&#xce;" horiz-adv-x="255" 
d="M108 0v740h39v-740h-39zM-20 782l132 156h30l132 -156h-27l-121 113l-120 -113h-26z" />
    <glyph glyph-name="Idieresis" unicode="&#xcf;" horiz-adv-x="255" 
d="M108 0v740h39v-740h-39zM181 787v59h50v-59h-50zM23 787v59h50v-59h-50z" />
    <glyph glyph-name="Eth" unicode="&#xd0;" horiz-adv-x="695" 
d="M101 375h-76v37h76v328h159q370 0 370 -370q0 -182 -93 -276t-277 -94h-159v375zM140 412h135v-37h-135v-339h127q324 0 324 334t-325 334h-126v-292z" />
    <glyph glyph-name="Ntilde" unicode="&#xd1;" horiz-adv-x="733" 
d="M101 0v740h44l449 -667v667h38v-740h-35l-459 682v-682h-37zM222 787q0 92 74 92q30 0 79 -28q52 -30 74 -30q24 0 33.5 13t9.5 44h30q0 -92 -74 -92q-30 0 -88 33q-46 26 -65 26q-24 0 -33.5 -13.5t-9.5 -44.5h-30z" />
    <glyph glyph-name="Ograve" unicode="&#xd2;" horiz-adv-x="732" 
d="M366 -14q-132 0 -216.5 107.5t-84.5 276.5t84.5 276.5t216.5 107.5t216.5 -107.5t84.5 -276.5t-84.5 -276.5t-216.5 -107.5zM366 21q115 0 189 96t74 253t-74 253t-189 96q-116 0 -189 -95.5t-73 -253.5t73 -253.5t189 -95.5zM379 787l-136 151h61l100 -151h-25z" />
    <glyph glyph-name="Oacute" unicode="&#xd3;" horiz-adv-x="732" 
d="M366 -14q-132 0 -216.5 107.5t-84.5 276.5t84.5 276.5t216.5 107.5t216.5 -107.5t84.5 -276.5t-84.5 -276.5t-216.5 -107.5zM366 21q115 0 189 96t74 253t-74 253t-189 96q-116 0 -189 -95.5t-73 -253.5t73 -253.5t189 -95.5zM325 787l100 151h61l-136 -151h-25z" />
    <glyph glyph-name="Ocircumflex" unicode="&#xd4;" horiz-adv-x="732" 
d="M366 -14q-132 0 -216.5 107.5t-84.5 276.5t84.5 276.5t216.5 107.5t216.5 -107.5t84.5 -276.5t-84.5 -276.5t-216.5 -107.5zM366 21q115 0 189 96t74 253t-74 253t-189 96q-116 0 -189 -95.5t-73 -253.5t73 -253.5t189 -95.5zM219 782l132 156h30l132 -156h-27l-121 113
l-120 -113h-26z" />
    <glyph glyph-name="Otilde" unicode="&#xd5;" horiz-adv-x="732" 
d="M366 -14q-132 0 -216.5 107.5t-84.5 276.5t84.5 276.5t216.5 107.5t216.5 -107.5t84.5 -276.5t-84.5 -276.5t-216.5 -107.5zM366 21q115 0 189 96t74 253t-74 253t-189 96q-116 0 -189 -95.5t-73 -253.5t73 -253.5t189 -95.5zM215 787q0 92 74 92q30 0 79 -28
q52 -30 74 -30q24 0 33.5 13t9.5 44h30q0 -92 -74 -92q-30 0 -88 33q-46 26 -65 26q-24 0 -33.5 -13.5t-9.5 -44.5h-30z" />
    <glyph glyph-name="Odieresis" unicode="&#xd6;" horiz-adv-x="732" 
d="M366 -14q-132 0 -216.5 107.5t-84.5 276.5t84.5 276.5t216.5 107.5t216.5 -107.5t84.5 -276.5t-84.5 -276.5t-216.5 -107.5zM366 21q115 0 189 96t74 253t-74 253t-189 96q-116 0 -189 -95.5t-73 -253.5t73 -253.5t189 -95.5zM420 787v59h50v-59h-50zM262 787v59h50v-59
h-50z" />
    <glyph glyph-name="multiply" unicode="&#xd7;" horiz-adv-x="630" 
d="M315 265l-165 -165l-24 24l165 165l-165 165l24 24l165 -165l165 165l24 -24l-165 -165l165 -165l-24 -24z" />
    <glyph glyph-name="Oslash" unicode="&#xd8;" horiz-adv-x="732" 
d="M103 -15l-27 18l70 94q-81 110 -81 273q0 169 84.5 276.5t216.5 107.5q118 0 200 -88l66 89l27 -18l-72 -96q80 -109 80 -271q0 -169 -84.5 -276.5t-216.5 -107.5q-118 0 -199 86zM169 129l375 507q-71 83 -178 83q-116 0 -189 -95.5t-73 -253.5q0 -148 65 -241zM366 21
q115 0 189 96t74 253q0 145 -65 240l-375 -508q72 -81 177 -81z" />
    <glyph glyph-name="Ugrave" unicode="&#xd9;" horiz-adv-x="712" 
d="M355 -14q-123 0 -191 72t-68 182v500h39v-504q0 -91 58 -153t163 -62q104 0 162.5 61.5t58.5 154.5v503h38v-502q0 -107 -69 -179.5t-191 -72.5zM373 787l-136 151h61l100 -151h-25z" />
    <glyph glyph-name="Uacute" unicode="&#xda;" horiz-adv-x="712" 
d="M355 -14q-123 0 -191 72t-68 182v500h39v-504q0 -91 58 -153t163 -62q104 0 162.5 61.5t58.5 154.5v503h38v-502q0 -107 -69 -179.5t-191 -72.5zM310 787l100 151h61l-136 -151h-25z" />
    <glyph glyph-name="Ucircumflex" unicode="&#xdb;" horiz-adv-x="712" 
d="M355 -14q-123 0 -191 72t-68 182v500h39v-504q0 -91 58 -153t163 -62q104 0 162.5 61.5t58.5 154.5v503h38v-502q0 -107 -69 -179.5t-191 -72.5zM209 782l132 156h30l132 -156h-27l-121 113l-120 -113h-26z" />
    <glyph glyph-name="Udieresis" unicode="&#xdc;" horiz-adv-x="712" 
d="M355 -14q-123 0 -191 72t-68 182v500h39v-504q0 -91 58 -153t163 -62q104 0 162.5 61.5t58.5 154.5v503h38v-502q0 -107 -69 -179.5t-191 -72.5zM410 787v59h50v-59h-50zM252 787v59h50v-59h-50z" />
    <glyph glyph-name="Yacute" unicode="&#xdd;" horiz-adv-x="599" 
d="M280 0v333l-249 407h43l227 -373l226 373h41l-249 -407v-333h-39zM239 792l100 151h61l-136 -151h-25z" />
    <glyph glyph-name="Thorn" unicode="&#xde;" horiz-adv-x="627" 
d="M101 0v740h39v-140h192q121 0 185 -51t64 -141q0 -94 -66 -144.5t-187 -50.5h-188v-213h-39zM140 248h191q211 0 211 159q0 157 -212 157h-190v-316z" />
    <glyph glyph-name="germandbls" unicode="&#xdf;" horiz-adv-x="594" 
d="M352 -10q-87 0 -142 55l23 25q49 -47 121 -47q65 0 104.5 48.5t39.5 133.5q0 97 -62 145.5t-174 51.5v32q85 1 128 40t43 96q0 66 -42.5 101.5t-111.5 35.5q-75 0 -116 -47.5t-41 -134.5v-525h-37v523q0 102 52 159.5t143 57.5q84 0 137 -44.5t53 -125.5q0 -54 -34 -95.5
t-97 -55.5q89 -12 142.5 -65.5t53.5 -146.5q0 -100 -49.5 -158.5t-133.5 -58.5z" />
    <glyph glyph-name="agrave" unicode="&#xe0;" horiz-adv-x="535" 
d="M201 -12q-70 0 -108.5 34t-38.5 95q0 85 86.5 139t278.5 84v37q0 126 -120 126q-107 0 -202 -87l-26 22q100 98 229 98q78 0 117 -41t39 -115v-257q0 -84 14 -123h-39q-11 30 -12 85q-105 -97 -218 -97zM203 21q60 0 117 29.5t99 72.5v188q-182 -30 -255 -77.5
t-73 -114.5q0 -47 29.5 -72.5t82.5 -25.5zM293 582l-136 151h61l100 -151h-25z" />
    <glyph glyph-name="aacute" unicode="&#xe1;" horiz-adv-x="535" 
d="M201 -12q-70 0 -108.5 34t-38.5 95q0 85 86.5 139t278.5 84v37q0 126 -120 126q-107 0 -202 -87l-26 22q100 98 229 98q78 0 117 -41t39 -115v-257q0 -84 14 -123h-39q-11 30 -12 85q-105 -97 -218 -97zM203 21q60 0 117 29.5t99 72.5v188q-182 -30 -255 -77.5
t-73 -114.5q0 -47 29.5 -72.5t82.5 -25.5zM230 582l100 151h61l-136 -151h-25z" />
    <glyph glyph-name="acircumflex" unicode="&#xe2;" horiz-adv-x="535" 
d="M201 -12q-70 0 -108.5 34t-38.5 95q0 85 86.5 139t278.5 84v37q0 126 -120 126q-107 0 -202 -87l-26 22q100 98 229 98q78 0 117 -41t39 -115v-257q0 -84 14 -123h-39q-11 30 -12 85q-105 -97 -218 -97zM203 21q60 0 117 29.5t99 72.5v188q-182 -30 -255 -77.5
t-73 -114.5q0 -47 29.5 -72.5t82.5 -25.5zM125 577l132 156h30l132 -156h-27l-121 113l-120 -113h-26z" />
    <glyph glyph-name="atilde" unicode="&#xe3;" horiz-adv-x="535" 
d="M201 -12q-70 0 -108.5 34t-38.5 95q0 85 86.5 139t278.5 84v37q0 126 -120 126q-107 0 -202 -87l-26 22q100 98 229 98q78 0 117 -41t39 -115v-257q0 -84 14 -123h-39q-11 30 -12 85q-105 -97 -218 -97zM203 21q60 0 117 29.5t99 72.5v188q-182 -30 -255 -77.5
t-73 -114.5q0 -47 29.5 -72.5t82.5 -25.5zM121 582q0 92 74 92q30 0 79 -28q52 -30 74 -30q24 0 33.5 13t9.5 44h30q0 -92 -74 -92q-30 0 -88 33q-46 26 -65 26q-24 0 -33.5 -13.5t-9.5 -44.5h-30z" />
    <glyph glyph-name="adieresis" unicode="&#xe4;" horiz-adv-x="535" 
d="M201 -12q-70 0 -108.5 34t-38.5 95q0 85 86.5 139t278.5 84v37q0 126 -120 126q-107 0 -202 -87l-26 22q100 98 229 98q78 0 117 -41t39 -115v-257q0 -84 14 -123h-39q-11 30 -12 85q-105 -97 -218 -97zM203 21q60 0 117 29.5t99 72.5v188q-182 -30 -255 -77.5
t-73 -114.5q0 -47 29.5 -72.5t82.5 -25.5zM330 582v59h50v-59h-50zM172 582v59h50v-59h-50z" />
    <glyph glyph-name="aring" unicode="&#xe5;" horiz-adv-x="535" 
d="M277 579q-38 0 -63 25t-25 62t25 61.5t63 24.5q37 0 62 -24.5t25 -61.5q0 -38 -25 -62.5t-62 -24.5zM201 -12q-70 0 -108.5 34t-38.5 95q0 85 86.5 139t278.5 84v37q0 126 -120 126q-107 0 -202 -87l-26 22q100 98 229 98q78 0 117 -41t39 -115v-257q0 -84 14 -123h-39
q-11 30 -12 85q-105 -97 -218 -97zM203 21q60 0 117 29.5t99 72.5v188q-182 -30 -255 -77.5t-73 -114.5q0 -47 29.5 -72.5t82.5 -25.5zM277 604q26 0 43 17.5t17 44.5q0 26 -17 43.5t-43 17.5q-27 0 -44 -17.5t-17 -43.5q0 -27 17 -44.5t44 -17.5z" />
    <glyph glyph-name="ae" unicode="&#xe6;" horiz-adv-x="897" 
d="M201 -12q-70 0 -108.5 34t-38.5 95q0 85 86.5 139t278.5 84v37q0 61 -30.5 93.5t-89.5 32.5q-107 0 -202 -87l-26 22q100 98 228 98q70 0 108 -33.5t45 -91.5q25 57 75 91t110 34q91 0 147.5 -71t56.5 -196v-5h-387v-13q3 -99 53 -164t129 -65q58 0 99.5 29.5t76.5 84.5
l27 -18q-78 -129 -205 -129q-60 0 -108.5 32.5t-75.5 89.5q-121 -123 -249 -123zM455 295h348q-5 96 -49.5 152t-117.5 56q-69 0 -120.5 -54t-60.5 -154zM203 21q124 0 234 120q-20 55 -20 121q0 6 0.5 26t0.5 23q-95 -15 -160 -35.5t-101 -45.5t-51 -51.5t-15 -59.5
q0 -47 29.5 -72.5t82.5 -25.5z" />
    <glyph glyph-name="ccedilla" unicode="&#xe7;" horiz-adv-x="526" 
d="M241 -8q-81 14 -133 88t-52 182q0 132 66 203t159 71q72 0 116.5 -37t73.5 -104l-32 -17q-26 62 -63 93.5t-97 31.5q-75 0 -130.5 -60.5t-55.5 -179.5q0 -106 51.5 -173.5t131.5 -67.5q60 0 97.5 31t70.5 97l30 -15q-36 -74 -82.5 -110t-117.5 -36h-3l-16 -53
q22 19 55 19q29 0 49.5 -17.5t20.5 -45.5q0 -43 -32 -64t-83 -21q-66 0 -119 36l14 22q47 -32 102 -32q84 0 84 57q0 17 -12.5 27.5t-33.5 10.5q-27 0 -60 -24l-21 12z" />
    <glyph glyph-name="egrave" unicode="&#xe8;" horiz-adv-x="537" 
d="M274 -11q-96 0 -157 77.5t-61 195.5q0 131 65.5 202.5t154.5 71.5q91 0 148 -71t57 -196v-5h-388v-6q0 -102 50.5 -169t131.5 -67q104 0 177 114l27 -18q-78 -129 -205 -129zM94 295h349q-5 95 -49.5 151.5t-117.5 56.5q-69 0 -121.5 -54t-60.5 -154zM285 582l-136 151
h61l100 -151h-25z" />
    <glyph glyph-name="eacute" unicode="&#xe9;" horiz-adv-x="537" 
d="M274 -11q-96 0 -157 77.5t-61 195.5q0 131 65.5 202.5t154.5 71.5q91 0 148 -71t57 -196v-5h-388v-6q0 -102 50.5 -169t131.5 -67q104 0 177 114l27 -18q-78 -129 -205 -129zM94 295h349q-5 95 -49.5 151.5t-117.5 56.5q-69 0 -121.5 -54t-60.5 -154zM233 582l100 151h61
l-136 -151h-25z" />
    <glyph glyph-name="ecircumflex" unicode="&#xea;" horiz-adv-x="537" 
d="M274 -11q-96 0 -157 77.5t-61 195.5q0 131 65.5 202.5t154.5 71.5q91 0 148 -71t57 -196v-5h-388v-6q0 -102 50.5 -169t131.5 -67q104 0 177 114l27 -18q-78 -129 -205 -129zM94 295h349q-5 95 -49.5 151.5t-117.5 56.5q-69 0 -121.5 -54t-60.5 -154zM126 577l132 156h30
l132 -156h-27l-121 113l-120 -113h-26z" />
    <glyph glyph-name="edieresis" unicode="&#xeb;" horiz-adv-x="537" 
d="M274 -11q-96 0 -157 77.5t-61 195.5q0 131 65.5 202.5t154.5 71.5q91 0 148 -71t57 -196v-5h-388v-6q0 -102 50.5 -169t131.5 -67q104 0 177 114l27 -18q-78 -129 -205 -129zM94 295h349q-5 95 -49.5 151.5t-117.5 56.5q-69 0 -121.5 -54t-60.5 -154zM325 582v59h50v-59
h-50zM167 582v59h50v-59h-50z" />
    <glyph glyph-name="igrave" unicode="&#xec;" horiz-adv-x="217" 
d="M90 0v525h37v-525h-37zM98 582l-136 151h61l100 -151h-25z" />
    <glyph glyph-name="iacute" unicode="&#xed;" horiz-adv-x="217" 
d="M90 0v525h37v-525h-37zM99 582l100 151h61l-136 -151h-25z" />
    <glyph glyph-name="icircumflex" unicode="&#xee;" horiz-adv-x="217" 
d="M92 0v525h37v-525h-37zM-36 567l132 156h30l132 -156h-27l-121 113l-120 -113h-26z" />
    <glyph glyph-name="idieresis" unicode="&#xef;" horiz-adv-x="217" 
d="M90 0v525h37v-525h-37zM162 582v59h50v-59h-50zM4 582v59h50v-59h-50z" />
    <glyph glyph-name="eth" unicode="&#xf0;" horiz-adv-x="568" 
d="M284 -11q-96 0 -161.5 76.5t-65.5 196.5q0 122 65 196t162 74q53 0 100 -28t75 -76q-33 114 -110 200l-105 -44l-12 28l94 39q-28 29 -82 67l18 25q62 -42 96 -79l108 45l11 -28l-96 -41q131 -152 131 -378q0 -120 -66.5 -196.5t-161.5 -76.5zM284 20q83 0 138 68.5
t55 173.5q0 103 -54.5 171t-138.5 68t-138.5 -67t-54.5 -172q0 -103 54 -172.5t139 -69.5z" />
    <glyph glyph-name="ntilde" unicode="&#xf1;" horiz-adv-x="569" 
d="M85 0v525h37v-89q109 100 209 100q159 0 159 -160v-376h-36v373q0 130 -126 130q-100 0 -206 -103v-400h-37zM139 582q0 92 74 92q30 0 79 -28q52 -30 74 -30q24 0 33.5 13t9.5 44h30q0 -92 -74 -92q-30 0 -88 33q-46 26 -65 26q-24 0 -33.5 -13.5t-9.5 -44.5h-30z" />
    <glyph glyph-name="ograve" unicode="&#xf2;" horiz-adv-x="569" 
d="M284 -11q-96 0 -162 76t-66 197q0 123 65.5 198.5t162.5 75.5q96 0 162 -76t66 -198q0 -121 -66 -197t-162 -76zM284 22q84 0 138 68t54 173q0 102 -53.5 171t-138.5 69q-84 0 -137.5 -67.5t-53.5 -172.5q0 -102 53 -171.5t138 -69.5zM298 582l-136 151h61l100 -151h-25z
" />
    <glyph glyph-name="oacute" unicode="&#xf3;" horiz-adv-x="569" 
d="M284 -11q-96 0 -162 76t-66 197q0 123 65.5 198.5t162.5 75.5q96 0 162 -76t66 -198q0 -121 -66 -197t-162 -76zM284 22q84 0 138 68t54 173q0 102 -53.5 171t-138.5 69q-84 0 -137.5 -67.5t-53.5 -172.5q0 -102 53 -171.5t138 -69.5zM244 582l100 151h61l-136 -151h-25z
" />
    <glyph glyph-name="ocircumflex" unicode="&#xf4;" horiz-adv-x="569" 
d="M284 -11q-96 0 -162 76t-66 197q0 123 65.5 198.5t162.5 75.5q96 0 162 -76t66 -198q0 -121 -66 -197t-162 -76zM284 22q84 0 138 68t54 173q0 102 -53.5 171t-138.5 69q-84 0 -137.5 -67.5t-53.5 -172.5q0 -102 53 -171.5t138 -69.5zM137 577l132 156h30l132 -156h-27
l-121 113l-120 -113h-26z" />
    <glyph glyph-name="otilde" unicode="&#xf5;" horiz-adv-x="569" 
d="M284 -11q-96 0 -162 76t-66 197q0 123 65.5 198.5t162.5 75.5q96 0 162 -76t66 -198q0 -121 -66 -197t-162 -76zM284 22q84 0 138 68t54 173q0 102 -53.5 171t-138.5 69q-84 0 -137.5 -67.5t-53.5 -172.5q0 -102 53 -171.5t138 -69.5zM135 582q0 92 74 92q30 0 79 -28
q52 -30 74 -30q24 0 33.5 13t9.5 44h30q0 -92 -74 -92q-30 0 -88 33q-46 26 -65 26q-24 0 -33.5 -13.5t-9.5 -44.5h-30z" />
    <glyph glyph-name="odieresis" unicode="&#xf6;" horiz-adv-x="569" 
d="M284 -11q-96 0 -162 76t-66 197q0 123 65.5 198.5t162.5 75.5q96 0 162 -76t66 -198q0 -121 -66 -197t-162 -76zM284 22q84 0 138 68t54 173q0 102 -53.5 171t-138.5 69q-84 0 -137.5 -67.5t-53.5 -172.5q0 -102 53 -171.5t138 -69.5zM338 582v59h50v-59h-50zM180 582v59
h50v-59h-50z" />
    <glyph glyph-name="divide" unicode="&#xf7;" horiz-adv-x="630" 
d="M291 427v66h48v-66h-48zM65 273v34h500v-34h-500zM291 87v66h48v-66h-48z" />
    <glyph glyph-name="oslash" unicode="&#xf8;" horiz-adv-x="569" 
d="M438 469q74 -79 74 -207q0 -121 -66 -197t-162 -76q-76 0 -135 50l-43 -65l-24 16l46 69q-72 79 -72 203q0 123 65.5 198.5t162.5 75.5q76 0 133 -48l45 68l24 -16zM148 89l250 371q-49 43 -114 43q-84 0 -137.5 -67.5t-53.5 -172.5q0 -106 55 -174zM418 439l-250 -372
q48 -45 116 -45q84 0 138 68t54 173q0 109 -58 176z" />
    <glyph glyph-name="ugrave" unicode="&#xf9;" horiz-adv-x="569" 
d="M238 -11q-160 0 -160 160v376h37v-373q0 -66 30 -98t95 -32q99 0 207 103v400h37v-525h-37v89q-109 -100 -209 -100zM299 582l-136 151h61l100 -151h-25z" />
    <glyph glyph-name="uacute" unicode="&#xfa;" horiz-adv-x="569" 
d="M238 -11q-160 0 -160 160v376h37v-373q0 -66 30 -98t95 -32q99 0 207 103v400h37v-525h-37v89q-109 -100 -209 -100zM243 582l100 151h61l-136 -151h-25z" />
    <glyph glyph-name="ucircumflex" unicode="&#xfb;" horiz-adv-x="569" 
d="M238 -11q-160 0 -160 160v376h37v-373q0 -66 30 -98t95 -32q99 0 207 103v400h37v-525h-37v89q-109 -100 -209 -100zM136 577l132 156h30l132 -156h-27l-121 113l-120 -113h-26z" />
    <glyph glyph-name="udieresis" unicode="&#xfc;" horiz-adv-x="569" 
d="M238 -11q-160 0 -160 160v376h37v-373q0 -66 30 -98t95 -32q99 0 207 103v400h37v-525h-37v89q-109 -100 -209 -100zM338 582v59h50v-59h-50zM180 582v59h50v-59h-50z" />
    <glyph glyph-name="yacute" unicode="&#xfd;" horiz-adv-x="511" 
d="M83 -201q-41 0 -78 10l9 32q33 -9 72 -9q49 0 77.5 22t46.5 70l27 72l-203 529h40l182 -483l181 483h39l-230 -601q-26 -67 -61.5 -96t-101.5 -29zM198 582l100 151h61l-136 -151h-25z" />
    <glyph glyph-name="thorn" unicode="&#xfe;" horiz-adv-x="582" 
d="M85 -200v940h37v-296q86 92 183 92t158 -70t61 -203t-61 -203.5t-159 -70.5q-96 0 -182 92v-281h-37zM306 22q80 0 130.5 60.5t50.5 179.5t-51.5 180t-131.5 61q-92 0 -182 -98v-284q49 -51 91 -75t93 -24z" />
    <glyph glyph-name="ydieresis" unicode="&#xff;" horiz-adv-x="511" 
d="M83 -201q-41 0 -78 10l9 32q33 -9 72 -9q49 0 77.5 22t46.5 70l27 72l-203 529h40l182 -483l181 483h39l-230 -601q-26 -67 -61.5 -96t-101.5 -29zM309 582v59h50v-59h-50zM151 582v59h50v-59h-50z" />
    <glyph glyph-name="dotlessi" unicode="&#x131;" horiz-adv-x="217" 
d="M90 0v525h37v-525h-37z" />
    <glyph glyph-name="Lslash" unicode="&#x141;" horiz-adv-x="560" 
d="M101 356l-76 -21v37l76 21v347h39v-336l135 38v-37l-135 -38v-331h377v-36h-416v356z" />
    <glyph glyph-name="lslash" unicode="&#x142;" horiz-adv-x="272" 
d="M117 365l-105 -30v34l105 30v341h37v-331l105 30v-34l-105 -30v-375h-37v365z" />
    <glyph glyph-name="OE" unicode="&#x152;" horiz-adv-x="1116" 
d="M366 -14q-132 0 -216.5 107.5t-84.5 276.5t84.5 276.5t216.5 107.5q92 0 161 -53.5t102 -144.5v184h422v-36h-385v-293h290v-36h-290v-339h400v-36h-437v185q-33 -91 -102 -145t-161 -54zM366 21q115 0 189 96t74 253t-74 253t-189 96q-116 0 -189 -95.5t-73 -253.5
t73 -253.5t189 -95.5z" />
    <glyph glyph-name="oe" unicode="&#x153;" horiz-adv-x="952" 
d="M283 -11q-96 0 -161.5 76t-65.5 197q0 123 65 198.5t162 75.5q73 0 129 -46t79 -122q22 78 77 123t124 45q91 0 147.5 -71t56.5 -196v-5h-386v-10q2 -100 51.5 -166t129.5 -66q58 0 99.5 29.5t76.5 84.5l27 -18q-78 -129 -204 -129q-72 0 -125 47t-75 122
q-23 -76 -78.5 -122.5t-128.5 -46.5zM511 295h347q-5 96 -49 152t-117 56q-70 0 -121.5 -54t-59.5 -154zM283 22q84 0 137 68t53 173q0 103 -52.5 171.5t-137.5 68.5q-84 0 -137 -67.5t-53 -172.5q0 -103 52.5 -172t137.5 -69z" />
    <glyph glyph-name="Scaron" unicode="&#x160;" horiz-adv-x="636" 
d="M326 -14q-210 0 -265 199l38 10q49 -174 228 -174q93 0 148.5 42.5t55.5 113.5t-43 110.5t-167 79.5q-131 42 -179.5 84.5t-48.5 126.5q0 73 60.5 124.5t156.5 51.5t156 -46.5t85 -125.5l-37 -12q-51 149 -204 149q-81 0 -129.5 -40.5t-48.5 -99.5q0 -68 44 -103.5
t167 -75.5q126 -41 176.5 -87t50.5 -135q0 -88 -68.5 -140t-175.5 -52zM302 791l-132 156h27l121 -113l120 113h26l-132 -156h-30z" />
    <glyph glyph-name="scaron" unicode="&#x161;" 
d="M246 -11q-127 0 -194 97l28 21q62 -85 166 -85q75 0 117 30t42 83q0 50 -39 77.5t-125 49.5q-95 25 -134.5 56t-39.5 91q0 53 45 90t124 37q111 0 184 -78l-27 -25q-62 70 -158 70q-65 0 -98 -27t-33 -66q0 -45 33.5 -68.5t108.5 -43.5q105 -29 150 -62t45 -101
q0 -67 -53.5 -106.5t-141.5 -39.5zM235 582l-132 156h27l121 -113l120 113h26l-132 -156h-30z" />
    <glyph glyph-name="Ydieresis" unicode="&#x178;" horiz-adv-x="599" 
d="M280 0v333l-249 407h43l227 -373l226 373h41l-249 -407v-333h-39zM353 787v59h50v-59h-50zM195 787v59h50v-59h-50z" />
    <glyph glyph-name="Zcaron" unicode="&#x17d;" horiz-adv-x="614" 
d="M46 0v31l469 675h-441v34h486v-31l-468 -675h467v-34h-513zM291 791l-132 156h27l121 -113l120 113h26l-132 -156h-30z" />
    <glyph glyph-name="zcaron" unicode="&#x17e;" 
d="M74 492v33h363v-27l-340 -465h352v-33h-398v27l338 465h-315zM234 582l-132 156h27l121 -113l120 113h26l-132 -156h-30z" />
    <glyph glyph-name="florin" unicode="&#x192;" horiz-adv-x="360" 
d="M-53 -190q-5 0 -16 1t-15 1l4 31q8 -1 32 -1q91 0 102 80l79 562h-93l4 32h93l14 98q18 127 162 127h26l-3 -32h-28q-111 0 -123 -95l-14 -98h129l-4 -32h-129l-79 -562q-17 -112 -141 -112z" />
    <glyph glyph-name="circumflex" unicode="&#x2c6;" 
d="M103 577l132 156h30l132 -156h-27l-121 113l-120 -113h-26z" />
    <glyph glyph-name="caron" unicode="&#x2c7;" 
d="M235 582l-132 156h27l121 -113l120 113h26l-132 -156h-30z" />
    <glyph glyph-name="breve" unicode="&#x2d8;" 
d="M251 580q-60 0 -99.5 42.5t-43.5 116.5h27q5 -60 36 -92t80 -32q48 0 78.5 32t35.5 92h27q-4 -74 -42.5 -116.5t-98.5 -42.5z" />
    <glyph glyph-name="dotaccent" unicode="&#x2d9;" 
d="M228 660v53h43v-53h-43z" />
    <glyph glyph-name="ring" unicode="&#x2da;" 
d="M250 579q-38 0 -63 25t-25 62t25 61.5t63 24.5q37 0 62 -24.5t25 -61.5q0 -38 -24.5 -62.5t-62.5 -24.5zM250 604q26 0 43 17.5t17 44.5q0 26 -17 43.5t-43 17.5q-27 0 -44 -17.5t-17 -43.5q0 -27 17 -44.5t44 -17.5z" />
    <glyph glyph-name="ogonek" unicode="&#x2db;" 
d="M247 -186q-41 0 -65.5 19.5t-24.5 54.5q0 61 86 112h33q-82 -52 -82 -108q0 -51 59 -51q48 0 101 29l11 -19q-63 -37 -118 -37z" />
    <glyph glyph-name="tilde" unicode="&#x2dc;" 
d="M100 582q0 92 74 92q30 0 79 -28q52 -30 74 -30q24 0 33.5 13t9.5 44h30q0 -92 -74 -92q-30 0 -88 33q-46 26 -65 26q-24 0 -33.5 -13.5t-9.5 -44.5h-30z" />
    <glyph glyph-name="hungarumlaut" unicode="&#x2dd;" 
d="M246 582l99 151h62l-135 -151h-26zM95 582l99 151h62l-135 -151h-26z" />
    <glyph glyph-name="Delta" unicode="&#x394;" horiz-adv-x="533" 
d="M403 660v53h43v-53h-43zM124 0v491h-92v34h92v95q0 117 136 120q8 1 26 1v-34h-29q-97 -3 -97 -84v-98h121v-34h-121v-491h-36zM360 -200q-17 0 -29 2v34q16 -4 28 -4q47 0 47 55v638h37v-632q0 -93 -83 -93z" />
    <glyph glyph-name="Omega" unicode="&#x3a9;" horiz-adv-x="760" 
d="M360 0l7 198l-129 -5l1 -38h-38l1 37l-36 -1v38l37 -1l5 127l-198 -7v42l198 -7l-5 130l-37 -1v37l36 -1l-1 36h38l-1 -37l129 -4l-7 197h42l-7 -197l128 4l-1 37h37l-1 -36l37 1v-37l-38 1l-4 -130l197 7v-42l-197 7l4 -127l38 1v-38l-37 1l1 -37h-37l1 38l-128 5
l7 -198h-42zM395 383h133l-4 131l-129 4v-135zM233 383h134v135l-130 -4zM395 223l129 3l4 129h-133v-132zM367 223v132h-134l4 -129z" />
    <glyph glyph-name="mu" unicode="&#x3bc;" horiz-adv-x="569" 
d="M78 -200v725h37v-373q0 -66 30 -98t95 -32q99 0 207 103v400h37v-525h-37v89q-109 -100 -209 -100q-90 0 -123 54v-243h-37z" />
    <glyph glyph-name="pi" unicode="&#x3c0;" horiz-adv-x="862" 
d="M431 -14q-159 0 -270 112.5t-111 271.5t111 271.5t270 112.5t270 -112.5t111 -271.5t-111 -271.5t-270 -112.5zM431 13q147 0 250 105t103 252t-103 252t-250 105t-250 -105t-103 -252t103 -252t250 -105zM309 158v425h140q70 0 107.5 -29.5t37.5 -83.5
q0 -59 -39.5 -88.5t-109.5 -29.5h-107v-194h-29zM338 380h108q119 0 119 90q0 85 -117 85h-110v-175z" />
    <glyph glyph-name="endash" unicode="&#x2013;" horiz-adv-x="580" 
d="M72 297v36h436v-36h-436z" />
    <glyph glyph-name="emdash" unicode="&#x2014;" horiz-adv-x="920" 
d="M72 297v36h776v-36h-776z" />
    <glyph glyph-name="quoteleft" unicode="&#x2018;" horiz-adv-x="261" 
d="M102 577v62l34 101h19l-19 -95h22v-68h-56z" />
    <glyph glyph-name="quoteright" unicode="&#x2019;" horiz-adv-x="261" 
d="M106 577l19 96h-23v67h56v-61l-33 -102h-19z" />
    <glyph glyph-name="quotesinglbase" unicode="&#x201a;" horiz-adv-x="261" 
d="M106 -95l19 95h-23v67h56v-61l-33 -101h-19z" />
    <glyph glyph-name="quotedblleft" unicode="&#x201c;" horiz-adv-x="414" 
d="M255 577v62l34 101h19l-19 -95h22v-68h-56zM102 577v62l34 101h19l-19 -95h22v-68h-56z" />
    <glyph glyph-name="quotedblright" unicode="&#x201d;" horiz-adv-x="414" 
d="M259 577l19 96h-23v67h56v-61l-33 -102h-19zM106 577l19 96h-23v67h56v-61l-33 -102h-19z" />
    <glyph glyph-name="quotedblbase" unicode="&#x201e;" horiz-adv-x="414" 
d="M259 -95l19 95h-23v67h56v-61l-33 -101h-19zM106 -95l19 95h-23v67h56v-61l-33 -101h-19z" />
    <glyph glyph-name="dagger" unicode="&#x2020;" horiz-adv-x="543" 
d="M251 -200l7 640l-204 -6v37l204 -6l-7 275h42l-7 -275l203 6v-37l-203 6l7 -640h-42z" />
    <glyph glyph-name="daggerdbl" unicode="&#x2021;" horiz-adv-x="543" 
d="M251 -200l7 248l-201 -7v38l201 -6l-5 199l5 196l-201 -6v37l201 -6l-7 247h42l-7 -247l200 6v-37l-200 6l5 -196l-5 -199l200 6v-38l-200 7l7 -248h-42z" />
    <glyph glyph-name="bullet" unicode="&#x2022;" horiz-adv-x="462" 
d="M230 244q-46 0 -76 30t-30 76t30 76.5t76 30.5q47 0 77 -30t30 -77q0 -46 -30 -76t-77 -30z" />
    <glyph glyph-name="ellipsis" unicode="&#x2026;" horiz-adv-x="717" 
d="M570 0v67h56v-67h-56zM331 0v67h56v-67h-56zM91 0v67h57v-67h-57z" />
    <glyph glyph-name="perthousand" unicode="&#x2030;" horiz-adv-x="1335" 
d="M225 313q-73 0 -114.5 58.5t-41.5 157.5q0 101 43 160t115 59t114.5 -58.5t42.5 -158.5q0 -98 -43 -158t-116 -60zM227 0l442 740h37l-441 -740h-38zM1107 -8q-73 0 -114.5 58.5t-41.5 157.5q0 101 43 160t115 59t114.5 -58.5t42.5 -158.5q0 -99 -43 -158.5t-116 -59.5z
M708 -8q-74 0 -115.5 58.5t-41.5 157.5q0 101 43.5 160t115.5 59t114.5 -58.5t42.5 -158.5q0 -99 -43.5 -158.5t-115.5 -59.5zM226 347q56 0 88.5 51t32.5 132q0 84 -32.5 134t-88.5 50t-87.5 -51t-31.5 -132q0 -83 31.5 -133.5t87.5 -50.5zM1108 26q56 0 88 51t32 132
q0 84 -32 134t-88 50t-87.5 -51t-31.5 -132q0 -84 31.5 -134t87.5 -50zM708 26q56 0 88.5 51t32.5 132q0 83 -32 133.5t-88 50.5t-88 -51t-32 -132q0 -84 31.5 -134t87.5 -50z" />
    <glyph glyph-name="guilsinglleft" unicode="&#x2039;" horiz-adv-x="313" 
d="M199 0l-144 263l144 262h40l-143 -262l143 -263h-40z" />
    <glyph glyph-name="guilsinglright" unicode="&#x203a;" horiz-adv-x="313" 
d="M73 0l144 263l-144 262h41l144 -262l-144 -263h-41z" />
    <glyph glyph-name="fraction" unicode="&#x2044;" horiz-adv-x="456" 
d="M-9 0l435 740h39l-434 -740h-40z" />
    <glyph glyph-name="Euro" unicode="&#x20ac;" horiz-adv-x="722" 
d="M128 430h-108v33h112q20 131 94.5 211.5t181.5 80.5q180 0 243 -224l-35 -9q-29 97 -75.5 148.5t-133.5 51.5q-91 0 -155.5 -71t-83.5 -188h249v-33h-254q-2 -36 -2 -54q0 -33 3 -63h253v-33h-249q20 -120 85 -191t159 -71q161 0 217 209l35 -9q-12 -45 -31 -83.5
t-48.5 -73.5t-74.5 -55.5t-99 -20.5q-109 0 -183.5 81t-95.5 214h-112v33h108q-3 30 -3 62q0 28 3 55z" />
    <glyph glyph-name="trademark" unicode="&#x2122;" horiz-adv-x="863" 
d="M419 317v423h37l152 -377l153 377h37v-423h-33v356l-144 -356h-29l-143 354v-354h-30zM168 317v393h-137v30h308v-30h-138v-393h-33z" />
    <glyph glyph-name="partialdiff" unicode="&#x2202;" horiz-adv-x="760" 
d="M360 0l7 198l-129 -5l1 -38h-38l1 37l-36 -1v38l37 -1l5 127l-198 -7v42l198 -7l-5 130l-37 -1v37l36 -1l-1 36h38l-1 -37l129 -4l-7 197h42l-7 -197l128 4l-1 37h37l-1 -36l37 1v-37l-38 1l-4 -130l197 7v-42l-197 7l4 -127l38 1v-38l-37 1l1 -37h-37l1 38l-128 5
l7 -198h-42zM395 383h133l-4 131l-129 4v-135zM233 383h134v135l-130 -4zM395 223l129 3l4 129h-133v-132zM367 223v132h-134l4 -129z" />
    <glyph glyph-name="product" unicode="&#x220f;" horiz-adv-x="565" 
d="M50 524q0 97 68 165.5t165 68.5t164.5 -68.5t67.5 -165.5t-67.5 -165.5t-164.5 -68.5t-165 68.5t-68 165.5zM490 524q0 87 -60.5 148.5t-146.5 61.5q-87 0 -147.5 -61.5t-60.5 -148.5t60.5 -148.5t147.5 -61.5q86 0 146.5 61.5t60.5 148.5zM202 658h88q44 0 67.5 -19
t23.5 -53q0 -62 -68 -72l70 -117h-29l-67 114h-60v-114h-25v261zM288 535q67 0 67 51q0 47 -66 47h-62v-98h61z" />
    <glyph glyph-name="summation" unicode="&#x2211;" horiz-adv-x="760" 
d="M360 0l7 198l-129 -5l1 -38h-38l1 37l-36 -1v38l37 -1l5 127l-198 -7v42l198 -7l-5 130l-37 -1v37l36 -1l-1 36h38l-1 -37l129 -4l-7 197h42l-7 -197l128 4l-1 37h37l-1 -36l37 1v-37l-38 1l-4 -130l197 7v-42l-197 7l4 -127l38 1v-38l-37 1l1 -37h-37l1 38l-128 5
l7 -198h-42zM395 383h133l-4 131l-129 4v-135zM233 383h134v135l-130 -4zM395 223l129 3l4 129h-133v-132zM367 223v132h-134l4 -129z" />
    <glyph glyph-name="minus" unicode="&#x2212;" horiz-adv-x="630" 
d="M65 273v34h500v-34h-500z" />
    <glyph glyph-name="radical" unicode="&#x221a;" horiz-adv-x="579" 
d="M232 -3l-198 528h40l178 -482l254 697h39l-275 -743h-38z" />
    <glyph glyph-name="infinity" unicode="&#x221e;" horiz-adv-x="816" 
d="M686 660v53h43v-53h-43zM407 525v95q0 117 136 120q8 1 26 1v-34h-29q-97 -3 -97 -84v-98h121v-34h-121v-491h-36v491h-247v-491h-36v491h-92v34h92v95q0 117 136 120q8 1 26 1v-34h-29q-97 -3 -97 -84v-98h247zM689 0v525h37v-525h-37z" />
    <glyph glyph-name="integral" unicode="&#x222b;" horiz-adv-x="760" 
d="M360 0l7 198l-129 -5l1 -38h-38l1 37l-36 -1v38l37 -1l5 127l-198 -7v42l198 -7l-5 130l-37 -1v37l36 -1l-1 36h38l-1 -37l129 -4l-7 197h42l-7 -197l128 4l-1 37h37l-1 -36l37 1v-37l-38 1l-4 -130l197 7v-42l-197 7l4 -127l38 1v-38l-37 1l1 -37h-37l1 38l-128 5
l7 -198h-42zM395 383h133l-4 131l-129 4v-135zM233 383h134v135l-130 -4zM395 223l129 3l4 129h-133v-132zM367 223v132h-134l4 -129z" />
    <glyph glyph-name="approxequal" unicode="&#x2248;" horiz-adv-x="760" 
d="M360 0l7 198l-129 -5l1 -38h-38l1 37l-36 -1v38l37 -1l5 127l-198 -7v42l198 -7l-5 130l-37 -1v37l36 -1l-1 36h38l-1 -37l129 -4l-7 197h42l-7 -197l128 4l-1 37h37l-1 -36l37 1v-37l-38 1l-4 -130l197 7v-42l-197 7l4 -127l38 1v-38l-37 1l1 -37h-37l1 38l-128 5
l7 -198h-42zM395 383h133l-4 131l-129 4v-135zM233 383h134v135l-130 -4zM395 223l129 3l4 129h-133v-132zM367 223v132h-134l4 -129z" />
    <glyph glyph-name="notequal" unicode="&#x2260;" horiz-adv-x="601" 
d="M407 525v95q0 117 136 120q8 1 26 1v-34h-29q-97 -3 -97 -84v-98h121v-34h-121v-491h-36v491h-247v-491h-36v491h-92v34h92v95q0 117 136 120q8 1 26 1v-34h-29q-97 -3 -97 -84v-98h247z" />
    <glyph glyph-name="lessequal" unicode="&#x2264;" horiz-adv-x="760" 
d="M360 0l7 198l-129 -5l1 -38h-38l1 37l-36 -1v38l37 -1l5 127l-198 -7v42l198 -7l-5 130l-37 -1v37l36 -1l-1 36h38l-1 -37l129 -4l-7 197h42l-7 -197l128 4l-1 37h37l-1 -36l37 1v-37l-38 1l-4 -130l197 7v-42l-197 7l4 -127l38 1v-38l-37 1l1 -37h-37l1 38l-128 5
l7 -198h-42zM395 383h133l-4 131l-129 4v-135zM233 383h134v135l-130 -4zM395 223l129 3l4 129h-133v-132zM367 223v132h-134l4 -129z" />
    <glyph glyph-name="greaterequal" unicode="&#x2265;" horiz-adv-x="760" 
d="M360 0l7 198l-129 -5l1 -38h-38l1 37l-36 -1v38l37 -1l5 127l-198 -7v42l198 -7l-5 130l-37 -1v37l36 -1l-1 36h38l-1 -37l129 -4l-7 197h42l-7 -197l128 4l-1 37h37l-1 -36l37 1v-37l-38 1l-4 -130l197 7v-42l-197 7l4 -127l38 1v-38l-37 1l1 -37h-37l1 38l-128 5
l7 -198h-42zM395 383h133l-4 131l-129 4v-135zM233 383h134v135l-130 -4zM395 223l129 3l4 129h-133v-132zM367 223v132h-134l4 -129z" />
    <glyph glyph-name="lozenge" unicode="&#x25ca;" horiz-adv-x="760" 
d="M360 0l7 198l-129 -5l1 -38h-38l1 37l-36 -1v38l37 -1l5 127l-198 -7v42l198 -7l-5 130l-37 -1v37l36 -1l-1 36h38l-1 -37l129 -4l-7 197h42l-7 -197l128 4l-1 37h37l-1 -36l37 1v-37l-38 1l-4 -130l197 7v-42l-197 7l4 -127l38 1v-38l-37 1l1 -37h-37l1 38l-128 5
l7 -198h-42zM395 383h133l-4 131l-129 4v-135zM233 383h134v135l-130 -4zM395 223l129 3l4 129h-133v-132zM367 223v132h-134l4 -129z" />
    <glyph glyph-name="fi" unicode="&#xfb01;" horiz-adv-x="533" 
d="M403 660v53h43v-53h-43zM124 0v491h-92v34h92v95q0 117 136 120q8 1 26 1v-34h-29q-97 -3 -97 -84v-98h121v-34h-121v-491h-36zM406 0v525h37v-525h-37z" />
    <glyph glyph-name="fl" unicode="&#xfb02;" horiz-adv-x="533" 
d="M406 0v740h37v-740h-37zM124 0v491h-92v34h92v95q0 117 136 120q8 1 26 1v-34h-29q-97 -3 -97 -84v-98h121v-34h-121v-491h-36z" />
    <glyph glyph-name="NUL" horiz-adv-x="0" 
 />
    <glyph glyph-name="apple" horiz-adv-x="760" 
d="M360 0l7 198l-129 -5l1 -38h-38l1 37l-36 -1v38l37 -1l5 127l-198 -7v42l198 -7l-5 130l-37 -1v37l36 -1l-1 36h38l-1 -37l129 -4l-7 197h42l-7 -197l128 4l-1 37h37l-1 -36l37 1v-37l-38 1l-4 -130l197 7v-42l-197 7l4 -127l38 1v-38l-37 1l1 -37h-37l1 38l-128 5
l7 -198h-42zM395 383h133l-4 131l-129 4v-135zM233 383h134v135l-130 -4zM395 223l129 3l4 129h-133v-132zM367 223v132h-134l4 -129z" />
  </font>
</defs>
</svg>
