<?xml version="1.0" standalone="no"?>
<!DOCTYPE svg PUBLIC "-//W3C//DTD SVG 1.1//EN" "http://www.w3.org/Graphics/SVG/1.1/DTD/svg11.dtd" >
<svg xmlns="http://www.w3.org/2000/svg" xmlns:xlink="http://www.w3.org/1999/xlink" version="1.1">
<metadata>
Created by FontForge 20160407 at Thu Jul  7 22:50:00 2016
 By Jimmy Wärting
(c) 2010 Klim Type Foundry. All rights reserved.
</metadata>
<defs>
<font id="TiemposText-Semibold" horiz-adv-x="600" >
  <font-face 
    font-family="Tiempos Text Semibold"
    font-weight="600"
    font-stretch="normal"
    units-per-em="1000"
    panose-1="2 2 7 3 6 3 3 6 4 3"
    ascent="761"
    descent="-239"
    x-height="546"
    cap-height="702"
    bbox="-151 -246 1360 1054"
    underline-thickness="30"
    underline-position="-110"
    stemh="68"
    stemv="183"
    unicode-range="U+0020-FB04"
  />
<missing-glyph horiz-adv-x="960" 
 />
    <glyph glyph-name="fi" unicode="fi" horiz-adv-x="703" 
d="M331 0h-293v61c44 6 64 11 64 57v357h-76v57l76 19v8c0 148 130 210 261 210c111 0 174 -32 174 -92c0 -30 -15 -50 -34 -63h-102v36c0 38 -14 64 -53 64c-43 0 -79 -42 -79 -117v-51h270l37 13h36v-441c0 -46 19 -51 64 -57v-61h-293v61c45 6 60 11 60 57v357h-172v-357
c0 -46 15 -51 60 -57v-61z" />
    <glyph glyph-name="fl" unicode="fl" horiz-adv-x="702" 
d="M102 118v357h-76v57l76 19v9c0 151 117 209 221 209c56 0 113 -15 152 -36l106 28h31v-643c0 -46 20 -51 64 -57v-61h-293v61c45 6 60 11 60 57v520c-20 41 -52 75 -99 75c-51 0 -75 -32 -75 -91v-76h103v-71h-101v-357c0 -46 15 -51 60 -57v-61h-293v61
c44 6 64 11 64 57z" />
    <glyph glyph-name="ff" unicode="ff" horiz-adv-x="747" 
d="M333 756c71 0 126 -23 159 -55c42 46 107 68 179 68c99 0 149 -33 149 -92c0 -30 -15 -49 -34 -62h-82v36c0 35 -7 63 -41 63c-36 0 -52 -31 -52 -86v-82h119v-71h-118v-358c0 -45 24 -48 83 -56v-61h-312v61c45 6 60 11 60 57v357h-172v-357c0 -46 15 -51 60 -57v-61
h-293v61c44 6 64 11 64 57v357h-76v57l76 19v7c0 127 114 198 231 198zM443 560c0 21 2 40 6 57c-20 39 -58 78 -103 78c-51 0 -77 -31 -77 -91v-58h174v14z" />
    <glyph glyph-name="ffi" unicode="ffi" horiz-adv-x="1044" 
d="M333 756c74 0 131 -25 164 -59c50 50 128 72 207 72c112 0 175 -32 175 -92c0 -30 -16 -50 -35 -63h-102v36c0 38 -14 64 -53 64c-42 0 -78 -42 -78 -117v-51h270l36 13h37v-441c0 -46 19 -51 64 -57v-61h-293v61c45 6 60 11 60 57v357h-173v-357c0 -46 15 -51 60 -57
v-61h-289v61c45 6 60 11 60 57v357h-172v-357c0 -46 15 -51 60 -57v-61h-293v61c44 6 64 11 64 57v357h-76v57l76 19v7c0 127 114 198 231 198zM269 604v-58h174v13c0 20 3 39 7 56c-19 40 -59 80 -104 80c-51 0 -77 -31 -77 -91z" />
    <glyph glyph-name="ffl" unicode="ffl" horiz-adv-x="1044" 
d="M102 551v7c0 127 114 198 231 198c71 0 127 -23 160 -55c44 48 110 68 172 68c56 0 113 -15 151 -36l106 28h32v-643c0 -46 19 -51 64 -57v-61h-293v61c45 6 60 11 60 57v520c-20 41 -52 75 -99 75c-51 0 -75 -32 -75 -91v-76h103v-71h-102v-357c0 -46 15 -51 60 -57v-61
h-289v61c45 6 60 11 60 57v357h-172v-357c0 -46 15 -51 60 -57v-61h-293v61c44 6 64 11 64 57v357h-76v57zM443 560c0 21 2 40 6 57c-20 39 -58 78 -103 78c-51 0 -77 -31 -77 -91v-58h174v14z" />
    <glyph glyph-name="f_b" unicode="fb" horiz-adv-x="1019" 
d="M443 58v580c-20 41 -52 75 -99 75c-51 0 -75 -32 -75 -91v-76h103v-71h-101v-357c0 -46 15 -51 60 -57v-61h-293v61c44 6 64 11 64 57v357h-76v57l76 19v9c0 151 117 209 221 209c56 0 113 -15 152 -36l106 28h31v-300c32 56 85 95 161 95c130 0 212 -96 212 -255
c0 -194 -129 -311 -293 -311c-95 0 -190 21 -249 68zM694 54c75 0 119 81 119 196c0 122 -49 200 -129 200c-26 0 -52 -7 -72 -20v-269c0 -69 23 -107 82 -107z" />
    <glyph glyph-name="f_f_b" unicode="ffb" horiz-adv-x="1361" 
d="M785 58v580c-20 41 -52 75 -99 75c-51 0 -75 -32 -75 -91v-76h103v-71h-102v-357c0 -46 15 -51 60 -57v-61h-289v61c45 6 60 11 60 57v357h-172v-357c0 -46 15 -51 60 -57v-61h-293v61c44 6 64 11 64 57v357h-76v57l76 19v7c0 127 114 198 231 198c71 0 127 -23 160 -55
c44 48 110 68 172 68c56 0 113 -15 151 -36l106 28h32v-300c32 56 85 95 161 95c130 0 211 -96 211 -255c0 -194 -128 -311 -293 -311c-95 0 -189 21 -248 68zM1036 54c75 0 118 81 118 196c0 122 -49 200 -129 200c-26 0 -52 -7 -71 -20v-269c0 -69 23 -107 82 -107z
M443 560c0 21 2 40 6 57c-20 39 -58 78 -103 78c-51 0 -77 -31 -77 -91v-58h174v14z" />
    <glyph glyph-name="f_h" unicode="fh" horiz-adv-x="1040" 
d="M443 118v520c-20 41 -52 75 -99 75c-51 0 -75 -32 -75 -91v-76h103v-71h-101v-357c0 -46 15 -51 60 -57v-61h-293v61c44 6 64 11 64 57v357h-76v57l76 19v9c0 151 117 209 221 209c56 0 113 -15 152 -36l106 28h31v-309c44 48 107 104 193 104c96 0 150 -52 150 -164
v-274c0 -46 19 -51 64 -57v-61h-293v61c45 6 60 11 60 57v258c0 47 -17 70 -68 70c-41 0 -76 -11 -106 -24v-304c0 -46 16 -51 60 -57v-61h-289v61c46 6 60 11 60 57z" />
    <glyph glyph-name="f_f_h" unicode="ffh" horiz-adv-x="1381" 
d="M785 118v520c-20 41 -52 75 -99 75c-51 0 -75 -32 -75 -91v-76h103v-71h-102v-357c0 -46 15 -51 60 -57v-61h-289v61c45 6 60 11 60 57v357h-172v-357c0 -46 15 -51 60 -57v-61h-293v61c44 6 64 11 64 57v357h-76v57l76 19v7c0 127 114 198 231 198c71 0 127 -23 160 -55
c44 48 110 68 172 68c56 0 113 -15 151 -36l106 28h32v-309c43 48 106 104 192 104c96 0 151 -52 151 -164v-274c0 -46 18 -51 63 -57v-61h-292v61c45 6 60 11 60 57v258c0 47 -18 70 -68 70c-41 0 -77 -11 -106 -24v-304c0 -46 15 -51 60 -57v-61h-289v61c45 6 60 11 60 57
zM443 560c0 21 2 40 6 57c-20 39 -58 78 -103 78c-51 0 -77 -31 -77 -91v-58h174v14z" />
    <glyph glyph-name="f_idieresis" unicode="f&#xef;" horiz-adv-x="703" 
d="M551 688c0 45 38 83 83 83c47 0 85 -38 85 -83s-38 -83 -85 -83c-45 0 -83 38 -83 83zM102 551v13c0 151 109 210 234 210c101 0 160 -33 160 -92c0 -30 -16 -55 -35 -68h-100v38c0 35 -6 68 -39 68c-37 0 -53 -31 -53 -86v-88h270l37 13h36v-441c0 -46 19 -51 64 -57
v-61h-293v61c45 6 60 11 60 57v357h-172v-357c0 -46 15 -51 60 -57v-61h-293v61c44 6 64 11 64 57v357h-76v57z" />
    <glyph glyph-name="f_f_idieresis" unicode="ff&#xef;" horiz-adv-x="1044" 
d="M333 756c69 0 123 -22 157 -52c43 49 112 70 187 70c101 0 161 -33 161 -92c0 -30 -17 -55 -35 -68h-101v38c0 35 -6 68 -39 68c-36 0 -52 -31 -52 -86v-88h270l36 13h37v-441c0 -46 19 -51 64 -57v-61h-293v61c45 6 60 11 60 57v357h-173v-357c0 -46 15 -51 60 -57v-61
h-289v61c45 6 60 11 60 57v357h-172v-357c0 -46 15 -51 60 -57v-61h-293v61c44 6 64 11 64 57v357h-76v57l76 19v7c0 127 114 198 231 198zM443 546v18c0 20 2 38 5 55c-20 38 -58 76 -102 76c-51 0 -77 -31 -77 -91v-58h174zM893 688c0 45 38 83 82 83c48 0 85 -38 85 -83
s-37 -83 -85 -83c-44 0 -82 38 -82 83z" />
    <glyph glyph-name="f_j" unicode="fj" horiz-adv-x="677" 
d="M443 475h-172v-357c0 -46 15 -51 60 -57v-61h-293v61c44 6 64 11 64 57v357h-76v57l76 19v8c0 148 130 210 261 210c111 0 174 -32 174 -92c0 -30 -15 -50 -34 -63h-102v36c0 38 -14 64 -53 64c-43 0 -79 -42 -79 -117v-51h270l37 13h36v-435c0 -106 -23 -158 -62 -207
c-47 -56 -95 -94 -151 -124l-33 32l39 63c36 57 38 117 38 199v388z" />
    <glyph glyph-name="f_f_j" unicode="ffj" horiz-adv-x="1018" 
d="M784 475h-172v-357c0 -46 15 -51 60 -57v-61h-289v61c45 6 60 11 60 57v357h-172v-357c0 -46 15 -51 60 -57v-61h-293v61c44 6 64 11 64 57v357h-76v57l76 19v7c0 127 114 198 231 198c74 0 131 -25 164 -59c50 50 128 72 207 72c112 0 175 -32 175 -92
c0 -30 -16 -50 -35 -63h-102v36c0 38 -14 64 -53 64c-42 0 -78 -42 -78 -117v-51h270l36 13h37v-435c0 -106 -24 -158 -63 -207c-46 -56 -94 -94 -150 -124l-34 32l39 63c36 57 38 117 38 199v388zM443 559c0 20 3 39 7 56c-19 40 -59 80 -104 80c-51 0 -77 -31 -77 -91v-58
h174v13z" />
    <glyph glyph-name="f_k" unicode="fk" horiz-adv-x="999" 
d="M620 290l135 129c13 14 24 25 24 36c0 21 -16 25 -65 31v60h256v-60c-39 -10 -65 -16 -90 -40l-103 -100l213 -299v-47h-174zM443 118v520c-20 41 -52 75 -99 75c-51 0 -75 -32 -75 -91v-76h103v-71h-101v-357c0 -46 15 -51 60 -57v-61h-293v61c44 6 64 11 64 57v357h-76
v57l76 19v9c0 151 117 209 221 209c56 0 113 -15 152 -36l106 28h31v-643c0 -46 20 -51 64 -57v-61h-293v61c46 6 60 11 60 57z" />
    <glyph glyph-name="f_f_k" unicode="ffk" horiz-adv-x="1341" 
d="M785 118v520c-20 41 -52 75 -99 75c-51 0 -75 -32 -75 -91v-76h103v-71h-102v-357c0 -46 15 -51 60 -57v-61h-289v61c45 6 60 11 60 57v357h-172v-357c0 -46 15 -51 60 -57v-61h-293v61c44 6 64 11 64 57v357h-76v57l76 19v7c0 127 114 198 231 198c71 0 127 -23 160 -55
c44 48 110 68 172 68c56 0 113 -15 151 -36l106 28h32v-643c0 -46 19 -51 64 -57v-61h-293v61c45 6 60 11 60 57zM961 290l135 129c13 14 25 25 25 36c0 21 -17 25 -66 31v60h257v-60c-39 -10 -66 -16 -90 -40l-103 -100l213 -299v-47h-174zM443 560c0 21 2 40 6 57
c-20 39 -58 78 -103 78c-51 0 -77 -31 -77 -91v-58h174v14z" />
    <glyph glyph-name=".notdef" horiz-adv-x="960" 
 />
    <glyph glyph-name="space" unicode=" " horiz-adv-x="197" 
 />
    <glyph glyph-name="exclam" unicode="!" horiz-adv-x="327" 
d="M67 88c0 55 44 99 96 99c54 0 96 -44 96 -99c0 -53 -42 -97 -96 -97c-52 0 -96 44 -96 97zM259 702l-56 -469h-79l-56 469h191z" />
    <glyph glyph-name="quotedbl" unicode="&#x22;" horiz-adv-x="452" 
d="M137 452h-33l-40 147c-9 30 -21 71 -21 92c0 42 26 77 77 77s77 -35 77 -77c0 -21 -12 -62 -20 -92zM348 452h-33l-40 147c-8 30 -21 71 -21 92c0 42 27 77 77 77c51 0 78 -35 78 -77c0 -21 -13 -62 -21 -92z" />
    <glyph glyph-name="numbersign" unicode="#" horiz-adv-x="588" 
d="M507 209h-126l-70 -219l-68 24l62 195h-113l-70 -219l-68 24l62 195h-70v68h92l47 149h-104v67h126l70 219l68 -24l-63 -195h114l70 219l68 -24l-63 -195h71v-67h-92l-48 -149h105v-68zM261 426l-48 -149h114l47 149h-113z" />
    <glyph glyph-name="dollar" unicode="$" horiz-adv-x="589" 
d="M181 -113l19 110c-64 10 -118 32 -153 59l-10 167h84c12 -78 43 -129 92 -154l36 203l-20 7c-119 38 -185 98 -185 211c0 137 103 222 250 222c11 0 22 -1 33 -1l19 103h53l-20 -109c56 -10 103 -29 136 -53v-153h-72c-10 60 -32 108 -77 133l-34 -195l36 -12
c113 -37 184 -93 184 -213c0 -152 -120 -222 -271 -222c-10 0 -19 1 -29 1l-18 -104h-53zM310 253l-11 3l-36 -202c11 -2 21 -2 33 -2c67 0 115 36 115 98c0 49 -27 79 -101 103zM179 560c0 -55 31 -82 92 -101l11 -4l34 193c-10 2 -21 3 -33 3c-68 0 -104 -42 -104 -91z
" />
    <glyph glyph-name="percent" unicode="%" horiz-adv-x="917" 
d="M155 524c0 -80 22 -140 67 -140c44 0 66 60 66 140c0 82 -22 141 -66 141c-45 0 -67 -59 -67 -141zM197 -19l449 741h74l-450 -741h-73zM36 524c0 124 88 188 186 188s185 -64 185 -188c0 -122 -87 -186 -185 -186s-186 64 -186 186zM762 178c0 80 -22 140 -67 140
c-44 0 -66 -60 -66 -140c0 -81 22 -141 66 -141c45 0 67 60 67 141zM881 178c0 -124 -88 -188 -186 -188s-185 64 -185 188c0 122 87 187 185 187s186 -65 186 -187z" />
    <glyph glyph-name="ampersand" unicode="&#x26;" horiz-adv-x="740" 
d="M16 184c0 105 70 157 168 193c-27 34 -62 81 -62 150c0 111 85 185 218 185c125 0 204 -58 204 -150c0 -84 -77 -134 -169 -165l160 -189c11 25 18 53 18 81c0 36 -12 49 -47 49v61h212v-61c-72 0 -89 -15 -102 -72c-9 -37 -23 -71 -43 -103l42 -48
c32 -37 57 -52 102 -52v-63h-199c-23 14 -43 30 -60 46c-56 -35 -123 -56 -193 -56c-140 0 -249 70 -249 194zM333 72c29 0 57 6 84 18c-9 9 -17 19 -24 29l-182 224c-27 -26 -38 -67 -38 -110c0 -97 65 -161 160 -161zM269 582c0 -56 37 -102 72 -144l5 -7
c44 28 63 73 63 136c0 49 -26 85 -70 85s-70 -29 -70 -70z" />
    <glyph glyph-name="quoteright" unicode="&#x2019;" horiz-adv-x="310" 
d="M167 598h-42c-40 9 -63 38 -63 85s33 85 90 85c63 0 102 -42 102 -120c0 -107 -63 -175 -199 -179v55c70 7 104 26 112 74z" />
    <glyph glyph-name="parenleft" unicode="(" horiz-adv-x="378" 
d="M60 314c0 166 78 342 209 456h87c-128 -137 -161 -302 -161 -456s33 -318 161 -455h-87c-131 114 -209 289 -209 455z" />
    <glyph glyph-name="parenright" unicode=")" horiz-adv-x="378" 
d="M318 314c0 -166 -78 -341 -209 -455h-87c128 137 161 301 161 455s-33 319 -161 456h87c131 -114 209 -290 209 -456z" />
    <glyph glyph-name="asterisk" unicode="*" horiz-adv-x="487" 
d="M395 417l-130 111l31 -168h-104l29 167l-129 -110l-52 91l160 57l-160 57l52 91l130 -111l-30 168h104l-31 -167l130 110l52 -91l-160 -57l160 -57z" />
    <glyph glyph-name="plus" unicode="+" horiz-adv-x="596" 
d="M254 593h87v-184h184v-87h-184v-184h-87v184h-184v87h184v184z" />
    <glyph glyph-name="comma" unicode="," horiz-adv-x="301" 
d="M167 10h-42c-40 8 -63 38 -63 84c0 47 33 86 90 86c63 0 106 -43 106 -120c0 -113 -67 -191 -203 -196v58c70 7 112 35 112 88z" />
    <glyph glyph-name="hyphen" unicode="-" horiz-adv-x="360" 
d="M310 251h-260v108h260v-108z" />
    <glyph glyph-name="period" unicode="." horiz-adv-x="301" 
d="M50 90c0 59 45 101 100 101c56 0 101 -42 101 -101c0 -58 -45 -100 -101 -100c-55 0 -100 42 -100 100z" />
    <glyph glyph-name="slash" unicode="/" horiz-adv-x="433" 
d="M395 770l-273 -895h-98l273 895h98z" />
    <glyph glyph-name="zero" unicode="0" horiz-adv-x="671" 
d="M336 712c178 0 296 -135 296 -361s-118 -361 -296 -361c-179 0 -297 135 -297 361s118 361 297 361zM336 643c-84 0 -112 -109 -112 -292s28 -293 112 -293c85 0 111 110 111 293s-26 292 -111 292z" />
    <glyph glyph-name="one" unicode="1" horiz-adv-x="473" 
d="M286 711h50v-576c0 -61 23 -66 121 -72v-63h-411v63c108 7 122 11 122 72v388h-122v57l35 6c97 15 149 54 205 125z" />
    <glyph glyph-name="two" unicode="2" horiz-adv-x="561" 
d="M170 135h169c69 0 93 7 144 96h45l-26 -231h-500v50l194 189c93 90 122 151 122 226c0 79 -45 117 -118 117c-67 0 -107 -36 -143 -71l-34 38c50 89 131 163 257 163c133 0 216 -71 216 -194c0 -143 -147 -254 -326 -383z" />
    <glyph glyph-name="three" unicode="3" horiz-adv-x="571" 
d="M324 395c124 -8 209 -74 209 -188c0 -143 -137 -217 -276 -217c-154 0 -237 68 -237 146c0 39 24 66 47 77h99v-36c0 -83 37 -128 106 -128c61 0 96 40 96 111c0 96 -61 157 -162 157h-24l-12 42c112 41 157 85 157 143c0 51 -32 86 -93 86c-64 0 -108 -35 -143 -73
l-37 32c46 91 128 165 255 165c109 0 182 -62 182 -157c0 -90 -82 -143 -167 -160z" />
    <glyph glyph-name="four" unicode="4" horiz-adv-x="643" 
d="M104 254h232v300zM336 132v49h-327v59l354 462h132v-448h125v-73h-125v-49c0 -54 16 -66 84 -69v-63h-329v63c68 3 86 15 86 69z" />
    <glyph glyph-name="five" unicode="5" horiz-adv-x="555" 
d="M478 702v-155h-312l-13 -84c214 -4 365 -74 365 -246c0 -145 -108 -226 -255 -226c-154 0 -237 65 -237 145c0 38 24 67 46 78h101v-29c0 -90 34 -133 106 -133c67 0 101 43 101 101c0 103 -102 163 -309 163l64 386h343z" />
    <glyph glyph-name="six" unicode="6" horiz-adv-x="622" 
d="M511 661c-198 -32 -274 -133 -297 -273c39 39 98 74 174 74c111 0 201 -77 201 -215c0 -171 -126 -257 -265 -257c-170 0 -287 119 -287 302c0 229 155 412 454 421zM283 370c-29 0 -52 -8 -72 -17c-2 -21 -3 -42 -3 -61c0 -120 37 -237 124 -237c65 0 105 56 105 148
c0 94 -52 167 -154 167z" />
    <glyph glyph-name="seven" unicode="7" horiz-adv-x="531" 
d="M408 545h-242c-46 0 -69 -21 -92 -85h-56l44 242h474v-42l-290 -660h-132z" />
    <glyph glyph-name="eight" unicode="8" horiz-adv-x="603" 
d="M537 548c0 -80 -63 -127 -137 -143l18 -8c96 -43 148 -97 148 -192c0 -132 -102 -215 -264 -215s-266 65 -266 177c0 85 62 132 145 151l-9 5c-68 31 -113 90 -113 176c0 132 95 213 243 213c144 0 235 -63 235 -164zM343 248l-126 51c-32 -23 -50 -64 -50 -114
c0 -77 52 -131 135 -131c72 0 124 35 124 97c0 48 -33 76 -83 97zM276 461l81 -36c33 23 55 64 55 116c0 64 -43 107 -110 107c-68 0 -106 -38 -106 -91c0 -47 28 -73 80 -96z" />
    <glyph glyph-name="nine" unicode="9" horiz-adv-x="622" 
d="M111 41c198 32 274 133 297 273c-39 -39 -98 -74 -174 -74c-111 0 -201 77 -201 215c0 171 126 257 265 257c170 0 287 -119 287 -302c0 -229 -155 -412 -454 -421zM339 332c29 0 52 8 72 17c2 21 3 42 3 61c0 120 -37 237 -124 237c-65 0 -105 -56 -105 -148
c0 -94 52 -167 154 -167z" />
    <glyph glyph-name="colon" unicode=":" horiz-adv-x="301" 
d="M50 90c0 59 45 101 100 101c56 0 101 -42 101 -101c0 -58 -45 -100 -101 -100c-55 0 -100 42 -100 100zM50 393c0 59 45 101 100 101c56 0 101 -42 101 -101c0 -58 -45 -100 -101 -100c-55 0 -100 42 -100 100z" />
    <glyph glyph-name="semicolon" unicode=";" horiz-adv-x="301" 
d="M50 393c0 59 45 101 100 101c56 0 101 -42 101 -101c0 -58 -45 -100 -101 -100c-55 0 -100 42 -100 100zM167 10h-42c-40 8 -63 38 -63 84c0 47 33 86 90 86c63 0 106 -43 106 -120c0 -113 -67 -191 -203 -196v58c70 7 112 35 112 88z" />
    <glyph glyph-name="less" unicode="&#x3c;" horiz-adv-x="453" 
d="M51 358v10l332 205v-101l-186 -108l186 -110v-101z" />
    <glyph glyph-name="equal" unicode="=" horiz-adv-x="607" 
d="M76 243v83h456v-83h-456zM76 407v82h456v-82h-456z" />
    <glyph glyph-name="greater" unicode="&#x3e;" horiz-adv-x="453" 
d="M402 368v-10l-332 -205v101l185 110l-185 108v101z" />
    <glyph glyph-name="question" unicode="?" horiz-adv-x="472" 
d="M307 577c0 47 -28 70 -69 70c-53 0 -72 -37 -72 -85v-50h-104c-25 14 -36 37 -36 63c0 79 82 136 212 136c135 0 215 -55 215 -167c0 -81 -42 -131 -117 -176c-66 -38 -81 -69 -81 -111v-27h-49c-28 18 -55 55 -55 100c0 46 18 86 65 123c47 38 91 68 91 124zM134 88
c0 55 42 99 95 99c54 0 96 -44 96 -99c0 -53 -42 -97 -96 -97c-53 0 -95 44 -95 97z" />
    <glyph glyph-name="at" unicode="@" horiz-adv-x="904" 
d="M606 77c-99 0 -120 76 -102 159h-5c-38 -82 -97 -159 -171 -159c-59 0 -103 48 -103 128c0 139 112 289 254 289c42 0 72 -19 88 -38l73 31h52l-33 -93l-51 -185c-10 -38 -6 -78 28 -78c70 0 141 81 141 236c0 149 -110 276 -292 276c-215 0 -354 -167 -354 -393
c0 -215 154 -325 344 -325c111 0 184 24 268 70l18 -32c-69 -59 -168 -100 -299 -100c-227 0 -412 144 -412 383c0 253 182 447 435 447c232 0 369 -152 369 -326c0 -206 -136 -290 -248 -290zM388 164c48 0 116 111 146 248c-9 22 -19 35 -40 35c-79 0 -139 -133 -139 -229
c0 -34 11 -54 33 -54z" />
    <glyph glyph-name="A" unicode="A" horiz-adv-x="751" 
d="M477 147l-29 70h-254l-27 -70c-5 -15 -10 -29 -10 -40c0 -31 13 -41 75 -44v-63h-225v63c27 5 46 10 57 37l212 527l-34 78h186l258 -605c11 -25 29 -32 58 -37v-63h-331v63c60 3 75 13 75 44c0 11 -4 25 -11 40zM319 535l-100 -254h203z" />
    <glyph glyph-name="B" unicode="B" horiz-adv-x="708" 
d="M32 0v63c67 3 83 14 83 69v438c0 55 -16 66 -83 69v63h367c153 0 243 -59 243 -176c0 -101 -89 -151 -185 -163c128 -8 220 -66 220 -173c0 -127 -96 -190 -273 -190h-372zM346 327h-53v-197c0 -54 23 -67 78 -67h8c74 0 119 46 119 129c0 78 -39 135 -152 135zM327 635
h-34v-242h39c87 0 135 39 135 127c0 77 -50 115 -140 115z" />
    <glyph glyph-name="C" unicode="C" horiz-adv-x="699" 
d="M412 63c87 0 128 59 164 179h85l-18 -188c-61 -40 -143 -64 -248 -64c-227 0 -359 145 -359 347c0 231 162 375 364 375c99 0 184 -28 235 -72v-161h-84c-25 103 -67 164 -154 164c-126 0 -169 -134 -169 -277c0 -178 62 -303 184 -303z" />
    <glyph glyph-name="D" unicode="D" horiz-adv-x="793" 
d="M328 635h-35v-498c0 -59 22 -70 75 -70h11c120 0 188 91 188 284c0 168 -80 284 -239 284zM32 639v63h321c262 0 405 -130 405 -338c0 -230 -147 -364 -373 -364h-353v63c67 3 83 14 83 69v438c0 55 -16 66 -83 69z" />
    <glyph glyph-name="E" unicode="E" horiz-adv-x="678" 
d="M518 247h-60c-10 60 -28 80 -72 80h-93v-195c0 -54 27 -67 84 -67h40c74 0 103 36 167 137h66l-31 -202h-587v63c67 3 83 14 83 69v438c0 55 -16 66 -83 69v63h582v-187h-68c-32 82 -57 122 -137 122h-116v-242h93c44 0 62 20 72 80h60v-228z" />
    <glyph glyph-name="F" unicode="F" horiz-adv-x="625" 
d="M411 0h-379v63c67 3 83 14 83 69v438c0 55 -16 66 -83 69v63h568v-189h-67c-33 83 -59 124 -139 124h-101v-252h75c45 0 62 21 72 81h60v-229h-60c-10 61 -27 82 -72 82h-75v-191c0 -54 35 -65 118 -69v-59z" />
    <glyph glyph-name="G" unicode="G" horiz-adv-x="760" 
d="M36 337c0 231 169 375 368 375c99 0 184 -28 236 -72v-161h-84c-27 103 -71 164 -155 164c-125 0 -175 -134 -175 -277c0 -175 52 -303 190 -303c34 0 52 4 77 17v131c0 53 -17 65 -81 67v64h324v-64c-66 -2 -80 -14 -80 -67v-148c-63 -46 -159 -72 -264 -72
c-232 0 -356 145 -356 346z" />
    <glyph glyph-name="H" unicode="H" horiz-adv-x="858" 
d="M565 132v195h-272v-195c0 -55 18 -66 83 -69v-63h-344v63c67 3 83 14 83 69v438c0 55 -16 66 -83 69v63h344v-63c-65 -3 -83 -14 -83 -69v-175h272v175c0 55 -17 66 -83 69v63h345v-63c-67 -3 -84 -14 -84 -69v-438c0 -55 17 -66 84 -69v-63h-345v63c66 3 83 14 83 69z
" />
    <glyph glyph-name="I" unicode="I" horiz-adv-x="408" 
d="M376 0h-344v63c67 3 83 14 83 69v438c0 55 -16 66 -83 69v63h344v-63c-67 -3 -83 -14 -83 -69v-438c0 -55 16 -66 83 -69v-63z" />
    <glyph glyph-name="J" unicode="J" horiz-adv-x="594" 
d="M492 570v-349c0 -160 -94 -231 -255 -231c-144 0 -229 53 -229 146c0 42 20 68 46 85h122v-49c0 -68 15 -118 67 -118c56 0 70 50 70 137v379c0 55 -16 66 -82 69v63h346v-63c-67 -3 -85 -14 -85 -69z" />
    <glyph glyph-name="K" unicode="K" horiz-adv-x="775" 
d="M472 418l192 -282c40 -59 64 -73 107 -74v-62h-208c-31 20 -55 48 -90 101l-170 256l217 208c17 16 28 27 28 44c0 16 -11 29 -65 30v63h262v-63c-43 -1 -59 -13 -87 -40zM115 132v438c0 55 -16 66 -83 69v63h344v-63c-65 -3 -81 -14 -81 -69v-438c0 -55 16 -66 81 -69
v-63h-344v63c67 3 83 14 83 69z" />
    <glyph glyph-name="L" unicode="L" horiz-adv-x="652" 
d="M295 570v-436c0 -54 22 -67 80 -67h31c68 0 85 30 162 165h72l-37 -232h-571v63c67 3 83 14 83 69v438c0 54 -16 65 -83 68v64h344v-64c-65 -3 -81 -14 -81 -68z" />
    <glyph glyph-name="M" unicode="M" horiz-adv-x="990" 
d="M715 152l-49 346l-179 -498h-70l-191 499l-46 -347c-1 -8 -2 -21 -2 -25c0 -48 25 -60 95 -64v-63h-264v63c57 3 77 15 84 61l63 442c0 53 -18 70 -85 73v63h267c2 -23 6 -37 15 -62l148 -391l139 391c9 25 15 39 17 62h261v-63c-66 -3 -83 -20 -83 -73l62 -442
c7 -49 28 -58 84 -61v-63h-359v63c71 4 95 16 95 64c0 4 -1 17 -2 25z" />
    <glyph glyph-name="N" unicode="N" horiz-adv-x="784" 
d="M115 132v455c-31 42 -46 49 -83 52v63h251l315 -409v277c0 55 -26 66 -91 69v63h257v-63c-66 -3 -83 -14 -83 -69v-570h-73l-409 513v-381c0 -55 24 -66 91 -69v-63h-258v63c67 3 83 14 83 69z" />
    <glyph glyph-name="O" unicode="O" horiz-adv-x="762" 
d="M393 60c102 0 144 123 144 278c0 176 -52 304 -168 304c-102 0 -144 -123 -144 -278c0 -176 52 -304 168 -304zM389 712c217 0 338 -161 338 -347c0 -230 -153 -375 -354 -375c-217 0 -337 161 -337 347c0 230 153 375 353 375z" />
    <glyph glyph-name="P" unicode="P" horiz-adv-x="672" 
d="M379 272h-84v-140c0 -55 33 -65 116 -69v-63h-379v63c67 3 83 14 83 69v438c0 55 -16 66 -83 69v63h344c194 0 277 -96 277 -214c0 -134 -85 -216 -274 -216zM295 635v-301h38c92 0 142 52 142 153c0 91 -55 148 -148 148h-32z" />
    <glyph glyph-name="Q" unicode="Q" horiz-adv-x="762" 
d="M389 712c217 0 338 -161 338 -347c0 -191 -106 -323 -256 -363l57 -46c53 -46 88 -72 142 -74v-32c-25 -19 -61 -29 -107 -29c-73 0 -136 27 -195 105l-50 68c-182 24 -282 173 -282 343c0 230 153 375 353 375zM393 60c102 0 144 123 144 278c0 176 -52 304 -168 304
c-102 0 -144 -123 -144 -278c0 -176 52 -304 168 -304z" />
    <glyph glyph-name="R" unicode="R" horiz-adv-x="750" 
d="M323 635h-31v-279h30c109 0 158 46 158 143c0 88 -56 136 -157 136zM32 702h354c186 0 272 -79 272 -203c0 -93 -68 -157 -150 -177l125 -187c35 -55 60 -71 111 -72v-63h-212c-30 25 -55 56 -84 106l-112 186h-44v-160c0 -55 15 -66 81 -69v-63h-341v63
c67 3 83 14 83 69v438c0 55 -16 66 -83 67v65z" />
    <glyph glyph-name="S" unicode="S" horiz-adv-x="602" 
d="M289 -10c-100 0 -188 30 -237 67l-10 167h87c29 -112 79 -169 173 -169c68 0 115 32 115 96c0 54 -33 80 -145 112c-152 43 -223 101 -223 227c0 138 102 222 251 222c94 0 171 -25 221 -61v-153h-75c-27 85 -64 150 -158 150c-68 0 -103 -40 -103 -88
c0 -62 36 -85 144 -115c149 -41 231 -98 231 -234c0 -151 -121 -221 -271 -221z" />
    <glyph glyph-name="T" unicode="T" horiz-adv-x="704" 
d="M30 702h644l15 -231h-70c-48 117 -67 168 -148 168h-31v-507c0 -55 22 -66 88 -69v-63h-354v63c67 3 90 14 90 69v507h-32c-81 0 -100 -51 -148 -168h-69z" />
    <glyph glyph-name="U" unicode="U" horiz-adv-x="773" 
d="M280 570v-306c0 -109 37 -177 141 -177c98 0 164 41 164 185v298c0 55 -24 66 -90 69v63h261v-63c-66 -3 -84 -14 -84 -69v-325c0 -174 -123 -255 -274 -255c-188 0 -298 84 -298 256v324c0 55 -16 66 -82 69v63h343v-63c-65 -3 -81 -14 -81 -69z" />
    <glyph glyph-name="V" unicode="V" horiz-adv-x="731" 
d="M428 234l128 321c6 15 10 29 10 40c0 29 -13 41 -74 44v63h232v-63c-28 -5 -46 -10 -58 -37l-258 -607h-53l-291 607c-12 27 -29 32 -57 37v63h339v-63c-61 -3 -76 -14 -76 -44c0 -11 4 -25 10 -40z" />
    <glyph glyph-name="W" unicode="W" horiz-adv-x="1017" 
d="M739 252l104 289c9 26 15 43 15 54c0 29 -13 41 -74 44v63h226v-63c-27 -5 -48 -9 -59 -37l-226 -607h-66l-141 394l-146 -394h-64l-244 607c-11 25 -30 32 -57 37v63h323v-63c-48 -4 -66 -15 -66 -44c0 -11 5 -26 13 -48l114 -301l90 246l-37 110c-9 24 -25 32 -52 37
v63h314v-63c-62 -3 -74 -14 -74 -44c0 -11 2 -26 13 -57z" />
    <glyph glyph-name="X" unicode="X" horiz-adv-x="745" 
d="M631 602l-174 -210l214 -292c15 -21 36 -34 68 -37v-63h-331v63c44 0 55 9 55 33c0 11 -8 25 -23 44l-106 144l-117 -143c-16 -19 -22 -33 -22 -45c0 -24 13 -33 62 -33v-63h-250v63c40 0 65 16 81 37l198 247l-187 255c-15 20 -32 35 -63 37v63h337v-63
c-46 0 -62 -9 -62 -32c0 -13 9 -26 24 -46l78 -106l85 106c15 17 23 33 23 46c0 23 -15 32 -60 32v63h248v-63c-37 0 -60 -15 -78 -37z" />
    <glyph glyph-name="Y" unicode="Y" horiz-adv-x="701" 
d="M400 341l115 201c14 25 23 43 23 58c0 27 -21 37 -72 39v63h229v-63c-28 -5 -44 -11 -59 -37l-195 -341v-129c0 -55 21 -66 88 -69v-63h-352v63c66 3 88 14 88 69v130l-201 340c-15 26 -29 32 -57 37v63h329v-63c-55 -2 -70 -12 -70 -39c0 -17 9 -33 22 -58z" />
    <glyph glyph-name="Z" unicode="Z" horiz-adv-x="643" 
d="M237 67h150c75 0 97 25 169 160h67l-34 -227h-566v43l372 591h-141c-81 0 -93 -48 -135 -137h-63v205h550v-44z" />
    <glyph glyph-name="bracketleft" unicode="[" horiz-adv-x="348" 
d="M198 662v-695c0 -52 33 -55 113 -60v-48h-226v911h226v-48c-80 -5 -113 -8 -113 -60z" />
    <glyph glyph-name="backslash" unicode="\" horiz-adv-x="433" 
d="M311 -125l-273 895h98l273 -895h-98z" />
    <glyph glyph-name="bracketright" unicode="]" horiz-adv-x="348" 
d="M150 -33v695c0 52 -33 55 -113 60v48h226v-911h-226v48c80 5 113 8 113 60z" />
    <glyph glyph-name="asciicircum" unicode="^" horiz-adv-x="484" 
d="M187 770h110l147 -290h-107l-95 197l-95 -197h-107z" />
    <glyph glyph-name="underscore" unicode="_" horiz-adv-x="440" 
d="M420 -159h-400v93h400v-93z" />
    <glyph glyph-name="quoteleft" unicode="&#x2018;" horiz-adv-x="310" 
d="M151 638h42c40 -8 63 -37 63 -84s-33 -85 -90 -85c-63 0 -102 42 -102 120c0 107 63 174 199 179v-55c-69 -7 -104 -26 -112 -75z" />
    <glyph glyph-name="a" unicode="a" horiz-adv-x="580" 
d="M267 94c25 0 41 6 61 19v168l-76 -30c-35 -14 -51 -37 -51 -76c0 -50 24 -81 66 -81zM495 348c0 -10 -1 -193 -1 -206c0 -32 6 -55 33 -55c8 0 29 2 43 6l8 -45c-34 -33 -85 -58 -137 -58c-57 0 -93 37 -110 91c-32 -43 -81 -88 -160 -88c-86 0 -140 55 -140 140
c0 89 66 122 136 146l161 56v59c0 74 -17 104 -65 104c-39 0 -57 -26 -57 -65c0 -22 2 -42 8 -65l-111 -17c-26 11 -38 36 -38 67c0 94 90 138 215 138c138 0 215 -48 215 -208z" />
    <glyph glyph-name="b" unicode="b" horiz-adv-x="649" 
d="M73 632l-59 54v34l196 41h32v-300c32 56 85 95 161 95c130 0 212 -96 212 -255c0 -194 -129 -311 -293 -311c-95 0 -190 21 -249 68v574zM324 54c75 0 119 81 119 196c0 122 -49 200 -129 200c-26 0 -52 -7 -72 -20v-269c0 -69 23 -107 82 -107z" />
    <glyph glyph-name="c" unicode="c" horiz-adv-x="535" 
d="M187 323c0 -122 52 -205 153 -205c58 0 105 28 140 75l31 -21c-34 -126 -116 -182 -231 -182c-143 0 -246 103 -246 263c0 172 110 303 280 303c103 0 190 -49 190 -141c0 -40 -18 -65 -42 -75h-88v49c0 58 -17 100 -73 100c-62 0 -114 -61 -114 -166z" />
    <glyph glyph-name="d" unicode="d" horiz-adv-x="665" 
d="M407 -10v96c-33 -57 -83 -96 -166 -96c-123 0 -207 96 -207 255c0 194 119 305 276 305c42 0 78 -11 97 -30v112l-59 54v34l197 41h31v-623c0 -34 8 -51 41 -53h25v-62l-202 -33h-33zM325 488c-76 0 -119 -79 -119 -193c0 -120 47 -199 130 -199c26 0 51 8 71 20v265
c0 72 -24 107 -82 107z" />
    <glyph glyph-name="e" unicode="e" horiz-adv-x="553" 
d="M301 556c142 0 216 -102 216 -228v-37h-333c0 -105 65 -171 158 -171c66 0 112 26 147 71l30 -19c-26 -109 -106 -182 -231 -182c-148 0 -254 104 -254 265c0 182 119 301 267 301zM284 491c-61 0 -91 -66 -98 -143h184c-1 85 -28 143 -86 143z" />
    <glyph glyph-name="f" unicode="f" horiz-adv-x="406" 
d="M271 475v-358c0 -45 23 -48 82 -56v-61h-315v61c45 6 64 11 64 57v357h-76v57l76 19v9c0 151 102 209 227 209c100 0 150 -33 150 -92c0 -30 -16 -49 -35 -62h-82v36c0 35 -6 63 -40 63c-37 0 -53 -31 -53 -86v-82h119v-71h-117z" />
    <glyph glyph-name="g" unicode="g" horiz-adv-x="586" 
d="M280 195c-35 0 -72 4 -105 15c-20 -22 -29 -35 -29 -52c0 -16 9 -23 27 -23h238c113 0 169 -54 169 -143c0 -125 -123 -199 -306 -199c-158 0 -254 39 -254 118c0 51 49 77 90 87c-41 15 -70 46 -70 98s37 89 104 127c-55 26 -95 72 -95 144c0 118 101 189 238 189
c40 0 73 -6 99 -14l184 8v-87h-42l-83 18v-6c43 -21 69 -55 69 -105c0 -110 -99 -175 -234 -175zM391 -24h-255c-8 -9 -11 -22 -11 -37c0 -60 61 -88 155 -88s169 22 169 83c0 31 -23 42 -58 42zM287 249c46 0 64 43 64 112c0 79 -26 140 -77 140c-47 0 -64 -44 -64 -112
c0 -77 25 -140 77 -140z" />
    <glyph glyph-name="h" unicode="h" horiz-adv-x="685" 
d="M257 761v-309c44 48 107 104 193 104c96 0 150 -52 150 -164v-274c0 -46 19 -51 64 -57v-61h-293v61c45 6 60 11 60 57v258c0 47 -17 70 -68 70c-41 0 -76 -11 -106 -24v-304c0 -46 16 -51 60 -57v-61h-293v61c46 6 64 11 64 57v514l-59 54v34l198 41h30z" />
    <glyph glyph-name="i" unicode="i" horiz-adv-x="357" 
d="M267 557v-439c0 -46 19 -51 64 -57v-61h-297v61c44 6 64 11 64 57v304l-59 55v29l196 51h32zM180 597c-59 0 -96 41 -96 89s37 89 96 89c58 0 94 -41 94 -89s-36 -89 -94 -89z" />
    <glyph glyph-name="j" unicode="j" horiz-adv-x="312" 
d="M248 557v-434c0 -107 -24 -159 -63 -208c-46 -56 -94 -93 -150 -124l-34 32l39 64c36 56 38 116 38 198v337l-58 55v29l197 51h31zM161 597c-58 0 -95 41 -95 89s37 89 95 89s95 -41 95 -89s-37 -89 -95 -89z" />
    <glyph glyph-name="k" unicode="k" horiz-adv-x="644" 
d="M265 290l135 129c13 14 24 25 24 36c0 21 -16 25 -65 31v60h256v-60c-39 -10 -65 -16 -90 -40l-103 -100l213 -299v-47h-174zM257 761v-643c0 -46 20 -51 64 -57v-61h-297v61c46 6 64 11 64 57v514l-59 54v34l198 41h30z" />
    <glyph glyph-name="l" unicode="l" horiz-adv-x="347" 
d="M256 761v-643c0 -46 19 -51 64 -57v-61h-296v61c46 6 64 11 64 57v514l-59 54v34l196 41h31z" />
    <glyph glyph-name="m" unicode="m" horiz-adv-x="1018" 
d="M997 0h-290v61c45 6 57 11 57 57v258c0 51 -17 70 -69 70c-37 0 -64 -11 -95 -24v-304c0 -46 13 -51 58 -57v-61h-285v61c45 6 58 11 58 57v258c0 51 -18 70 -69 70c-38 0 -65 -11 -95 -24v-304c0 -46 12 -51 57 -57v-61h-290v61c44 6 64 11 64 57v301l-59 54v33l196 54
h32v-108c42 48 97 104 184 104c67 0 123 -33 142 -108c44 46 107 108 198 108c89 0 142 -48 142 -162v-276c0 -46 19 -51 64 -57v-61z" />
    <glyph glyph-name="n" unicode="n" horiz-adv-x="694" 
d="M440 118v258c0 47 -17 70 -67 70c-41 0 -77 -11 -106 -24v-304c0 -46 15 -51 60 -57v-61h-293v61c44 6 64 11 64 57v301l-59 54v33l196 54h32v-108c42 48 106 104 192 104c96 0 150 -52 150 -164v-274c0 -46 19 -51 64 -57v-61h-292v61c45 6 59 11 59 57z" />
    <glyph glyph-name="o" unicode="o" horiz-adv-x="624" 
d="M321 57c62 0 95 79 95 190c0 137 -41 243 -113 243c-63 0 -96 -80 -96 -191c0 -137 41 -242 114 -242zM305 -10c-164 0 -271 118 -271 274c0 178 122 292 285 292c164 0 271 -118 271 -273c0 -179 -123 -293 -285 -293z" />
    <glyph glyph-name="p" unicode="p" horiz-adv-x="666" 
d="M259 19v-98c0 -46 18 -51 63 -57v-61h-296v61c45 6 64 11 64 57v498l-59 54v33l197 54h31v-99c33 56 86 95 162 95c128 0 210 -96 210 -255c0 -194 -120 -311 -277 -311c-41 0 -77 12 -95 29zM341 54c75 0 119 81 119 196c0 122 -49 200 -129 200c-26 0 -52 -7 -72 -20
v-265c0 -71 24 -111 82 -111z" />
    <glyph glyph-name="q" unicode="q" horiz-adv-x="645" 
d="M311 556c71 0 124 -21 163 -62l48 63h60l-6 -121v-515c0 -46 19 -51 64 -57v-61h-297v61c45 6 64 11 64 57v165c-33 -57 -83 -96 -166 -96c-123 0 -207 96 -207 255c0 194 119 311 277 311zM325 494c-76 0 -119 -85 -119 -199c0 -120 47 -199 130 -199c26 0 51 8 71 20
v271c0 73 -24 107 -82 107z" />
    <glyph glyph-name="r" unicode="r" horiz-adv-x="471" 
d="M267 560v-172c45 131 83 168 151 168c21 0 33 -5 44 -12v-145h-24c-62 0 -122 -5 -171 -46v-236c0 -45 23 -48 83 -56v-61h-316v61c44 6 64 11 64 57v301l-59 54v33l195 54h33z" />
    <glyph glyph-name="s" unicode="s" horiz-adv-x="503" 
d="M249 -10c-85 0 -155 23 -202 56l-6 124h76c18 -78 60 -118 137 -118c52 0 88 21 88 62c0 44 -28 60 -118 81c-121 29 -182 79 -182 180c0 115 81 181 209 181c70 0 134 -18 178 -46v-113h-74c-15 61 -48 97 -111 97c-48 0 -74 -26 -74 -61c0 -39 21 -59 111 -77
c108 -23 186 -68 186 -179c0 -118 -81 -187 -218 -187z" />
    <glyph glyph-name="t" unicode="t" horiz-adv-x="412" 
d="M247 670v-124h137v-71h-137v-316c0 -49 20 -70 66 -70c25 0 53 7 77 20l18 -46c-46 -47 -106 -73 -178 -73c-100 0 -153 47 -153 151v334h-68v50c65 24 135 82 186 145h52z" />
    <glyph glyph-name="u" unicode="u" horiz-adv-x="675" 
d="M415 -10v98c-38 -46 -99 -98 -187 -98s-148 52 -148 169v240c0 30 -7 50 -42 57l-15 5v52l196 43h31v-380c0 -55 23 -82 67 -82c40 0 69 11 98 24v281c0 30 -7 50 -42 57l-14 5v52l194 43h32v-418c0 -34 8 -51 41 -53h24v-62l-201 -33h-34z" />
    <glyph glyph-name="v" unicode="v" horiz-adv-x="607" 
d="M602 546v-60c-36 -13 -47 -18 -56 -40l-212 -451h-50l-222 451c-11 21 -20 27 -57 40v60h316v-60c-52 -7 -68 -12 -68 -36c0 -8 2 -16 8 -31l93 -218l96 218c6 16 8 23 8 31c0 24 -17 29 -68 36v60h212z" />
    <glyph glyph-name="w" unicode="w" horiz-adv-x="879" 
d="M651 221l76 197c5 13 7 24 7 32c0 24 -17 31 -51 36v60h191v-60c-37 -13 -48 -18 -57 -40l-183 -451h-54l-131 322l-138 -322h-53l-197 451c-9 22 -19 28 -56 40v60h291v-60c-33 -5 -45 -15 -45 -33c0 -11 4 -22 10 -36l77 -200l76 183l-18 46c-9 23 -18 32 -47 40v60
h273v-60c-38 -5 -51 -12 -51 -34c0 -11 4 -23 8 -34z" />
    <glyph glyph-name="x" unicode="x" horiz-adv-x="607" 
d="M73 101l140 175l-135 170c-13 17 -21 28 -53 40v60h301v-60c-33 -4 -50 -8 -50 -28c0 -12 8 -21 18 -35l57 -74l59 74c11 13 16 23 16 34c0 20 -15 23 -46 29v60h200v-60c-29 -13 -51 -25 -65 -42l-121 -150l147 -193c14 -19 30 -36 61 -40v-61h-310v61c39 4 55 10 55 31
c0 10 -7 21 -16 32l-77 98l-73 -98c-8 -10 -14 -21 -14 -32c0 -20 15 -25 53 -31v-61h-215v61c31 5 52 21 68 40z" />
    <glyph glyph-name="y" unicode="y" horiz-adv-x="610" 
d="M272 -2l-210 448c-10 21 -20 27 -57 40v60h316v-60c-52 -7 -69 -12 -69 -36c0 -8 2 -16 10 -36l94 -229l93 229c8 21 10 28 10 36c0 24 -15 29 -67 36v60h213v-60c-37 -13 -47 -18 -57 -40l-229 -525c-38 -87 -81 -129 -149 -129c-38 0 -69 16 -84 39v85h58
c69 0 95 6 120 63z" />
    <glyph glyph-name="z" unicode="z" horiz-adv-x="560" 
d="M28 0v42l286 441h-99c-55 0 -70 -33 -108 -135h-64v198h472v-45l-279 -437h93c63 0 87 30 134 137h64l-22 -201h-477z" />
    <glyph glyph-name="braceleft" unicode="{" horiz-adv-x="383" 
d="M50 299v32c48 10 83 36 83 100v211c0 79 67 128 213 128v-38c-47 -6 -95 -31 -95 -98v-207c0 -68 -24 -92 -91 -112c67 -20 91 -44 91 -112v-207c0 -67 48 -92 95 -98v-39c-146 0 -213 49 -213 128v212c0 64 -35 90 -83 100z" />
    <glyph glyph-name="bar" unicode="|" horiz-adv-x="293" 
d="M193 770v-911h-93v911h93z" />
    <glyph glyph-name="braceright" unicode="}" horiz-adv-x="383" 
d="M333 331v-32c-48 -10 -83 -36 -83 -100v-212c0 -79 -68 -128 -213 -128v39c47 6 94 31 94 98v207c0 68 24 92 91 112c-67 20 -91 44 -91 112v207c0 67 -47 92 -94 98v38c145 0 213 -49 213 -128v-211c0 -64 35 -90 83 -100z" />
    <glyph glyph-name="asciitilde" unicode="~" horiz-adv-x="568" 
d="M460 438l58 -16c-36 -128 -94 -172 -164 -172c-56 0 -115 62 -162 62c-33 0 -60 -19 -85 -60l-57 17c36 128 93 171 164 171c56 0 115 -62 161 -62c33 0 61 20 85 60z" />
    <glyph glyph-name="exclamdown" unicode="&#xa1;" horiz-adv-x="327" 
d="M67 453c0 53 44 97 96 97c54 0 96 -44 96 -97c0 -56 -42 -100 -96 -100c-52 0 -96 44 -96 100zM203 307l56 -469h-191l56 469h79z" />
    <glyph glyph-name="cent" unicode="&#xa2;" horiz-adv-x="586" 
d="M206 -115l21 115c-113 28 -189 121 -189 259c0 181 127 303 295 305l21 112h56l-22 -116c90 -11 154 -54 154 -133c0 -39 -21 -58 -48 -69h-71v42c0 52 -14 82 -47 95l-71 -373c17 -5 36 -8 56 -8c71 0 115 33 152 81l39 -20c-35 -124 -121 -185 -246 -185
c-9 0 -17 1 -25 1l-20 -106h-55zM189 319c0 -78 23 -137 66 -171l67 356h-1c-75 0 -132 -65 -132 -185z" />
    <glyph glyph-name="sterling" unicode="&#xa3;" horiz-adv-x="709" 
d="M105 335v55h105l3 49c10 179 95 273 245 273c105 0 189 -34 189 -125c0 -38 -21 -63 -44 -73h-97v57c0 52 -13 84 -52 84c-40 0 -56 -42 -63 -101l-17 -164h162v-55h-168l-5 -55c-4 -44 -13 -87 -23 -112c51 -18 130 -42 198 -42c61 0 79 21 79 90l41 9
c10 -19 19 -47 19 -86c0 -98 -58 -149 -161 -149c-91 0 -172 49 -218 89c-36 -56 -98 -89 -172 -89c-72 0 -117 44 -117 110c0 72 50 114 118 114c21 0 48 -3 71 -12l8 133h-101zM126 45c40 0 62 33 66 91c-19 11 -41 19 -66 19c-37 0 -54 -24 -54 -55c0 -35 22 -55 54 -55z
" />
    <glyph glyph-name="fraction" unicode="&#x2044;" horiz-adv-x="283" 
d="M-151 0l504 772h81l-504 -772h-81z" />
    <glyph glyph-name="yen" unicode="&#xa5;" horiz-adv-x="701" 
d="M100 329v55h94l-127 218c-15 26 -30 32 -58 37v63h332v-63c-56 -2 -70 -12 -70 -39c0 -18 8 -34 21 -58l109 -201l110 201c14 25 22 43 22 58c0 27 -20 37 -71 39v63h230v-63c-28 -5 -44 -11 -59 -37l-123 -218h102v-55h-133l-38 -68v-1h171v-54h-171v-74
c0 -55 21 -66 88 -69v-63h-353v63c67 3 89 14 89 69v74h-165v54h165v2l-39 67h-126z" />
    <glyph glyph-name="florin" unicode="&#x192;" horiz-adv-x="548" 
d="M55 293l7 58h92l6 51c23 204 97 310 247 310c72 0 139 -24 139 -89c0 -31 -15 -55 -47 -65h-55c0 57 -5 106 -42 106c-29 0 -41 -29 -45 -65l-29 -248h112l-5 -58h-113l-18 -157c-23 -203 -97 -310 -247 -310c-72 0 -139 25 -139 89c0 31 15 55 47 66h55
c1 -57 5 -107 43 -107c28 0 40 30 44 65l40 354h-92z" />
    <glyph glyph-name="section" unicode="&#xa7;" horiz-adv-x="529" 
d="M229 -203c-95 0 -161 44 -161 110c0 34 21 51 43 59h88v-32c0 -35 12 -89 68 -89c44 0 63 33 63 67c0 67 -89 156 -159 253c-69 97 -122 192 -122 308c0 146 109 239 251 239c94 0 161 -44 161 -109c0 -35 -22 -51 -44 -59h-87v32c0 34 -13 88 -69 88
c-43 0 -62 -33 -62 -66c0 -68 88 -156 158 -254c70 -97 124 -192 124 -308c0 -146 -111 -239 -252 -239zM391 -93c16 25 29 70 29 129c0 85 -51 183 -124 279c-70 92 -158 206 -158 287c-16 -25 -29 -70 -29 -129c0 -85 51 -183 124 -279c69 -92 158 -206 158 -287z" />
    <glyph glyph-name="currency" unicode="&#xa4;" horiz-adv-x="582" 
d="M58 158l72 73c-23 32 -36 72 -36 117c0 46 13 86 37 118l-73 73l43 43l73 -73c32 23 73 36 117 36c43 0 85 -13 117 -36l73 72l42 -43l-72 -73c23 -31 37 -71 37 -117s-14 -85 -37 -118l73 -71l-43 -43l-73 72c-32 -24 -74 -37 -117 -37c-44 0 -85 13 -118 37l-73 -73z
M174 348c0 -71 50 -124 117 -124s117 53 117 124s-50 124 -117 124s-117 -53 -117 -124z" />
    <glyph glyph-name="quotesingle" unicode="'" horiz-adv-x="240" 
d="M137 452h-33l-40 147c-9 30 -21 71 -21 92c0 42 26 77 77 77s77 -35 77 -77c0 -21 -12 -62 -20 -92z" />
    <glyph glyph-name="quotedblleft" unicode="&#x201c;" horiz-adv-x="555" 
d="M151 638h42c40 -8 63 -37 63 -84s-33 -85 -90 -85c-63 0 -102 42 -102 120c0 107 63 174 199 179v-55c-69 -7 -104 -26 -112 -75zM396 638h42c40 -8 63 -37 63 -84s-33 -85 -90 -85c-63 0 -102 42 -102 120c0 107 63 174 199 179v-55c-69 -7 -104 -26 -112 -75z" />
    <glyph glyph-name="guillemotleft" unicode="&#xab;" horiz-adv-x="547" 
d="M37 271v10l177 198h79l-113 -203l113 -203h-79zM253 271v10l177 198h80l-115 -203l115 -203h-80z" />
    <glyph glyph-name="guilsinglleft" unicode="&#x2039;" horiz-adv-x="330" 
d="M37 271v10l177 198h79l-113 -203l113 -203h-79z" />
    <glyph glyph-name="guilsinglright" unicode="&#x203a;" horiz-adv-x="330" 
d="M293 281v-10l-175 -198h-81l114 203l-114 203h81z" />
    <glyph glyph-name="endash" unicode="&#x2013;" horiz-adv-x="580" 
d="M530 264h-480v82h480v-82z" />
    <glyph glyph-name="dagger" unicode="&#x2020;" horiz-adv-x="494" 
d="M45 605l173 -20l-20 173h97l-21 -173l175 20v-93l-175 19l21 -303h-97l21 303l-174 -19v93z" />
    <glyph glyph-name="daggerdbl" unicode="&#x2021;" horiz-adv-x="498" 
d="M221 555l-174 -19v93l173 -20l-20 149h97l-21 -149l175 20v-93l-175 19v-124l175 19v-93l-175 20l21 -149h-97l20 149l-173 -20v93l174 -19v124z" />
    <glyph glyph-name="periodcentered" unicode="&#xb7;" horiz-adv-x="303" 
d="M51 304c0 59 45 101 100 101c56 0 101 -42 101 -101c0 -58 -45 -100 -101 -100c-55 0 -100 42 -100 100z" />
    <glyph glyph-name="paragraph" unicode="&#xb6;" horiz-adv-x="659" 
d="M323 -197v397c-178 0 -275 116 -275 252s97 250 275 250h307v-63c-77 0 -102 -12 -102 -73v-763h-69v844h-66v-844h-70zM323 252v398c-80 -7 -113 -100 -113 -198s33 -193 113 -200z" />
    <glyph glyph-name="bullet" unicode="&#x2022;" horiz-adv-x="408" 
d="M51 307c0 86 69 157 153 157c85 0 153 -71 153 -157c0 -84 -68 -155 -153 -155c-84 0 -153 71 -153 155z" />
    <glyph glyph-name="quotesinglbase" unicode="&#x201a;" horiz-adv-x="310" 
d="M167 10h-42c-40 9 -63 38 -63 85s33 85 90 85c63 0 102 -42 102 -120c0 -107 -63 -175 -199 -179v55c70 7 104 26 112 74z" />
    <glyph glyph-name="quotedblbase" unicode="&#x201e;" horiz-adv-x="555" 
d="M412 10h-42c-40 9 -63 38 -63 85s33 85 90 85c63 0 102 -42 102 -120c0 -107 -63 -175 -199 -179v55c70 7 104 26 112 74zM167 10h-42c-40 9 -63 38 -63 85s33 85 90 85c63 0 102 -42 102 -120c0 -107 -63 -175 -199 -179v55c70 7 104 26 112 74z" />
    <glyph glyph-name="quotedblright" unicode="&#x201d;" horiz-adv-x="555" 
d="M412 598h-42c-40 9 -63 38 -63 85s33 85 90 85c63 0 102 -42 102 -120c0 -107 -63 -175 -199 -179v55c70 7 104 26 112 74zM167 598h-42c-40 9 -63 38 -63 85s33 85 90 85c63 0 102 -42 102 -120c0 -107 -63 -175 -199 -179v55c70 7 104 26 112 74z" />
    <glyph glyph-name="guillemotright" unicode="&#xbb;" horiz-adv-x="547" 
d="M293 281v-10l-175 -198h-81l114 203l-114 203h81zM510 281v-10l-177 -198h-79l114 203l-114 203h79z" />
    <glyph glyph-name="ellipsis" unicode="&#x2026;" horiz-adv-x="902" 
d="M50 90c0 59 45 101 100 101c56 0 101 -42 101 -101c0 -58 -45 -100 -101 -100c-55 0 -100 42 -100 100zM351 90c0 59 44 101 100 101s101 -42 101 -101c0 -58 -45 -100 -101 -100s-100 42 -100 100zM651 90c0 59 45 101 101 101s101 -42 101 -101
c0 -58 -45 -100 -101 -100s-101 42 -101 100z" />
    <glyph glyph-name="perthousand" unicode="&#x2030;" horiz-adv-x="1323" 
d="M155 524c0 -80 22 -140 67 -140c44 0 66 60 66 140c0 82 -22 141 -66 141c-45 0 -67 -59 -67 -141zM197 -19l449 741h74l-450 -741h-73zM36 524c0 124 88 188 186 188s185 -64 185 -188c0 -122 -87 -186 -185 -186s-186 64 -186 186zM762 178c0 80 -22 140 -67 140
c-44 0 -66 -60 -66 -140c0 -81 22 -141 66 -141c45 0 67 60 67 141zM881 178c0 -124 -88 -188 -186 -188s-185 64 -185 188c0 122 87 187 185 187s186 -65 186 -187zM1167 178c0 80 -21 140 -66 140c-44 0 -66 -60 -66 -140c0 -81 22 -141 66 -141c45 0 66 60 66 141z
M1287 178c0 -124 -88 -188 -186 -188s-186 64 -186 188c0 122 88 187 186 187s186 -65 186 -187z" />
    <glyph glyph-name="questiondown" unicode="&#xbf;" horiz-adv-x="472" 
d="M175 -38c0 -47 28 -70 69 -70c53 0 72 37 72 85v50h104c25 -14 36 -37 36 -63c0 -79 -82 -136 -212 -136c-135 0 -215 55 -215 167c0 81 42 131 117 176c66 38 81 69 81 111v27h49c28 -18 55 -55 55 -100c0 -46 -18 -86 -65 -123c-47 -38 -91 -68 -91 -124zM348 451
c0 -55 -42 -99 -95 -99c-54 0 -96 44 -96 99c0 53 42 97 96 97c53 0 95 -44 95 -97z" />
    <glyph glyph-name="grave" unicode="`" horiz-adv-x="500" 
d="M129 765h170l68 -162h-84z" />
    <glyph glyph-name="acute" unicode="&#xb4;" horiz-adv-x="500" 
d="M201 765h170l-154 -162h-85z" />
    <glyph glyph-name="circumflex" unicode="&#x2c6;" horiz-adv-x="500" 
d="M311 766l139 -170h-86l-114 85l-114 -85h-86l139 170h122z" />
    <glyph glyph-name="tilde" unicode="&#x2dc;" horiz-adv-x="500" 
d="M392 767l55 -12c-52 -121 -80 -143 -136 -143c-57 0 -100 62 -138 62c-30 0 -46 -24 -65 -56l-56 11c53 121 80 144 137 144c64 0 99 -63 138 -63c29 0 45 24 65 57z" />
    <glyph glyph-name="macron" unicode="&#xaf;" horiz-adv-x="500" 
d="M101 625v93h298v-93h-298z" />
    <glyph glyph-name="breve" unicode="&#x2d8;" horiz-adv-x="500" 
d="M256 601c-98 0 -155 63 -155 170h64c8 -64 51 -83 91 -83c41 0 84 19 92 83h64c0 -107 -57 -170 -156 -170z" />
    <glyph glyph-name="dotaccent" unicode="&#x2d9;" horiz-adv-x="500" 
d="M251 601c-59 0 -96 41 -96 89s37 89 96 89c58 0 94 -41 94 -89s-36 -89 -94 -89z" />
    <glyph glyph-name="dieresis" unicode="&#xa8;" horiz-adv-x="500" 
d="M59 688c0 45 37 83 83 83s84 -38 84 -83s-38 -83 -84 -83s-83 38 -83 83zM273 688c0 45 38 83 82 83c48 0 85 -38 85 -83s-37 -83 -85 -83c-44 0 -82 38 -82 83z" />
    <glyph glyph-name="ring" unicode="&#x2da;" horiz-adv-x="500" 
d="M150 694c0 56 45 99 109 99s109 -43 109 -99s-45 -99 -109 -99s-109 43 -109 99zM306 694c0 26 -16 46 -47 46s-47 -20 -47 -46s16 -46 47 -46s47 20 47 46z" />
    <glyph glyph-name="cedilla" unicode="&#xb8;" horiz-adv-x="500" 
d="M151 -231l-10 46c72 0 115 13 115 41c0 26 -37 35 -86 37l47 115h46l-19 -53c60 -5 99 -27 99 -77c0 -73 -92 -109 -192 -109z" />
    <glyph glyph-name="hungarumlaut" unicode="&#x2dd;" horiz-adv-x="500" 
d="M121 765h147l-136 -162h-78zM307 765h147l-136 -162h-78z" />
    <glyph glyph-name="ogonek" unicode="&#x2db;" horiz-adv-x="500" 
d="M324 39l13 -24c-62 -30 -100 -69 -100 -111c0 -23 13 -41 45 -41c22 0 44 4 74 23l18 -26c-42 -47 -86 -75 -142 -75c-52 0 -95 31 -95 84c0 86 95 136 187 170z" />
    <glyph glyph-name="caron" unicode="&#x2c7;" horiz-adv-x="500" 
d="M450 774l-139 -170h-122l-139 170h86l114 -85l114 85h86z" />
    <glyph glyph-name="emdash" unicode="&#x2014;" horiz-adv-x="1000" 
d="M950 346v-82h-900v82h900z" />
    <glyph glyph-name="AE" unicode="&#xc6;" horiz-adv-x="1057" 
d="M65 100l343 500c-11 27 -30 36 -89 39v63h674v-187h-68c-32 82 -58 122 -138 122h-116v-242h94c44 0 62 20 72 80h59v-228h-59c-10 60 -28 80 -72 80h-94v-195c0 -54 28 -67 85 -67h40c73 0 102 36 166 137h67l-31 -202h-588v63c67 3 84 14 84 69v113h-240l-56 -83
c-17 -24 -23 -43 -23 -58c0 -31 15 -38 77 -41v-63h-245v63c27 5 41 13 58 37zM494 595l-196 -286h196v286z" />
    <glyph glyph-name="ordfeminine" unicode="&#xaa;" horiz-adv-x="470" 
d="M205 391c19 0 33 5 51 17v115l-50 -20c-32 -14 -47 -31 -47 -60c0 -34 20 -52 46 -52zM378 574c0 -39 -2 -130 -2 -148c0 -27 9 -41 26 -41c7 0 19 1 29 4l7 -33c-25 -24 -59 -41 -95 -41c-45 0 -72 29 -85 64c-26 -34 -72 -62 -121 -62c-61 0 -100 40 -100 99
c0 65 46 89 97 106l122 39v44c0 48 -12 73 -45 73c-29 0 -42 -17 -42 -45c0 -17 2 -31 6 -48l-88 -13c-18 8 -29 27 -29 50c0 66 67 100 161 100c104 0 159 -38 159 -148z" />
    <glyph glyph-name="Lslash" unicode="&#x141;" horiz-adv-x="660" 
d="M303 570v-154l138 50v-69l-138 -50v-213c0 -54 22 -67 80 -67h31c68 0 85 30 162 165h72l-37 -232h-571v63c67 3 83 14 83 69v155l-84 -29v69l84 30v213c0 54 -16 65 -83 68v64h344v-64c-65 -3 -81 -14 -81 -68z" />
    <glyph glyph-name="Oslash" unicode="&#xd8;" horiz-adv-x="767" 
d="M645 728l-47 -80c85 -64 131 -169 131 -283c0 -230 -153 -375 -353 -375c-56 0 -105 10 -147 29l-50 -85l-57 30l51 87c-88 63 -135 170 -135 286c0 230 153 375 353 375c57 0 108 -11 152 -31l45 77zM224 364c0 -74 8 -136 25 -184l237 405c-27 37 -66 57 -114 57
c-102 0 -148 -123 -148 -278zM395 60c102 0 148 123 148 278c0 70 -8 130 -23 177l-236 -402c27 -35 64 -53 111 -53z" />
    <glyph glyph-name="OE" unicode="&#x152;" horiz-adv-x="1047" 
d="M988 0h-548c-261 0 -404 130 -404 341c0 227 161 361 387 361h560v-187h-68c-32 82 -57 122 -138 122h-115v-242h93c44 0 62 20 72 80h59v-228h-59c-10 60 -28 80 -72 80h-93v-195c0 -54 27 -67 84 -67h40c73 0 102 36 166 137h67zM484 65v572h-55
c-120 0 -202 -93 -202 -286c0 -168 79 -286 239 -286h18z" />
    <glyph glyph-name="ordmasculine" unicode="&#xba;" horiz-adv-x="470" 
d="M242 363c44 0 65 56 65 140c0 104 -29 170 -78 170c-43 0 -66 -56 -66 -140c0 -103 31 -170 79 -170zM230 315c-121 0 -199 80 -199 196c0 129 85 210 210 210c121 0 198 -80 198 -196c0 -129 -85 -210 -209 -210z" />
    <glyph glyph-name="ae" unicode="&#xe6;" horiz-adv-x="852" 
d="M600 556c142 0 216 -102 216 -228v-37h-333c0 -105 65 -171 158 -171c66 0 112 26 147 71l30 -19c-26 -109 -106 -182 -231 -182c-94 0 -169 41 -212 111c-51 -75 -122 -108 -194 -108c-92 0 -150 61 -150 140c0 89 66 125 142 146l169 47l5 21c-3 99 -26 151 -84 151
c-39 0 -57 -26 -57 -65c0 -22 2 -42 8 -65l-111 -17c-26 11 -38 36 -38 67c0 94 90 138 204 138c85 0 133 -22 162 -64c45 41 104 64 169 64zM583 491c-61 0 -91 -66 -98 -143h184c-1 85 -28 143 -86 143zM336 255v15l-82 -23c-36 -11 -53 -39 -53 -80s24 -73 66 -73
c33 0 67 12 95 33c-17 37 -26 79 -26 128z" />
    <glyph glyph-name="dotlessi" unicode="&#x131;" horiz-adv-x="357" 
d="M267 557v-439c0 -46 19 -51 64 -57v-61h-297v61c44 6 64 11 64 57v304l-59 55v29l196 51h32z" />
    <glyph glyph-name="lslash" unicode="&#x142;" horiz-adv-x="380" 
d="M273 761v-262l89 49v-71l-89 -49v-310c0 -46 18 -51 63 -57v-61h-296v61c46 6 64 11 64 57v229l-83 -46v71l83 45v215l-59 54v34l196 41h32z" />
    <glyph glyph-name="oslash" unicode="&#xf8;" horiz-adv-x="624" 
d="M525 580l-44 -73c69 -49 109 -130 109 -224c0 -179 -123 -293 -285 -293c-43 0 -82 8 -117 23l-52 -88l-48 26l53 89c-68 49 -107 129 -107 224c0 178 122 292 285 292c42 0 81 -8 115 -23l44 73zM321 57c62 0 99 79 99 190c0 53 -5 98 -13 134l-166 -280
c19 -29 45 -44 80 -44zM203 299c0 -53 4 -97 12 -134l167 280c-19 29 -45 45 -79 45c-63 0 -100 -80 -100 -191z" />
    <glyph glyph-name="oe" unicode="&#x153;" horiz-adv-x="941" 
d="M319 556c79 0 143 -30 190 -81c47 49 111 81 179 81c143 0 216 -102 216 -228v-37h-333c0 -105 65 -171 158 -171c67 0 113 26 147 71l30 -19c-25 -109 -106 -182 -231 -182c-73 0 -137 30 -181 81c-50 -49 -116 -81 -189 -81c-164 0 -271 118 -271 274
c0 178 122 292 285 292zM321 57c62 0 95 79 95 190c0 137 -41 243 -113 243c-63 0 -96 -80 -96 -191c0 -137 41 -242 114 -242zM672 491c-62 0 -91 -66 -98 -143h183c-1 85 -27 143 -85 143z" />
    <glyph glyph-name="germandbls" unicode="&#xdf;" horiz-adv-x="752" 
d="M487 443c0 -24 18 -38 82 -73c86 -48 149 -92 149 -197c0 -114 -89 -183 -212 -183c-74 0 -127 23 -166 59l-6 123h76c13 -78 47 -120 98 -120c42 0 69 24 69 62c0 44 -23 65 -97 109c-82 48 -125 87 -125 158c0 99 131 124 131 240c0 56 -30 95 -92 95
c-75 0 -124 -59 -124 -157v-559h-232v61c45 6 64 11 64 57v349h-76v57l76 19c23 161 153 226 288 226c123 0 224 -49 224 -148c0 -105 -127 -119 -127 -178z" />
    <glyph glyph-name="onesuperior" unicode="&#xb9;" horiz-adv-x="388" 
d="M225 748h44v-367c0 -39 14 -42 78 -46v-48h-292v48c73 4 79 7 79 46v228h-79v44l28 6c76 16 105 41 142 89z" />
    <glyph glyph-name="mu" unicode="&#xb5;" horiz-adv-x="671" 
d="M235 0l13 -161v-26l-168 -10v596c0 30 -7 50 -42 57l-15 5v52l196 43h31v-380c0 -55 23 -82 67 -82c40 0 65 11 94 24v281c0 30 -7 50 -42 57l-14 5v52l194 43h32v-418c0 -34 8 -51 41 -53h24v-62l-201 -33h-34v98c-32 -38 -75 -84 -138 -92c-16 -2 -31 1 -38 4z" />
    <glyph glyph-name="trademark" unicode="&#x2122;" horiz-adv-x="940" 
d="M50 702h321l7 -116h-34c-24 54 -36 79 -76 79h-12v-237c0 -27 13 -32 45 -34v-33h-180v33c32 2 44 7 44 34v237h-11c-42 0 -53 -25 -77 -79h-34zM627 493l56 172c6 14 8 26 8 37h142v-36c-32 0 -41 -9 -41 -34l30 -208c4 -23 14 -28 42 -30v-33h-179v33c35 2 47 7 47 31
c0 4 -1 19 -4 36l-22 143l-83 -243h-41l-86 243l-20 -143c-3 -17 -4 -32 -4 -36c0 -24 12 -29 47 -31v-33h-136v33c29 2 39 7 42 30l31 208c0 25 -9 34 -40 34v36h142c1 -11 3 -23 8 -37z" />
    <glyph glyph-name="Eth" unicode="&#xd0;" horiz-adv-x="801" 
d="M39 329v66h84v175c0 55 -16 66 -83 69v63h321c262 0 405 -130 405 -338c0 -230 -147 -364 -373 -364h-353v63c67 3 83 14 83 69v197h-84zM336 635h-35v-240h131v-66h-131v-192c0 -59 22 -70 75 -70h11c120 0 188 91 188 284c0 168 -80 284 -239 284z" />
    <glyph glyph-name="onehalf" unicode="&#xbd;" horiz-adv-x="942" 
d="M225 748h44v-367c0 -39 14 -42 78 -46v-48h-292v48c73 4 79 7 79 46v228h-79v44l28 6c76 16 105 41 142 89zM226 0l449 741h74l-450 -741h-73zM664 30h110c42 0 50 5 82 54h37l-13 -155h-355v42l125 112c62 56 93 93 93 144c0 43 -26 70 -73 70c-43 0 -76 -28 -99 -54
l-30 31c31 61 98 116 190 116c86 0 143 -48 143 -131c0 -98 -104 -162 -210 -229z" />
    <glyph glyph-name="plusminus" unicode="&#xb1;" horiz-adv-x="596" 
d="M254 617h87v-136h180v-86h-180v-137h-87v137h-179v86h179v136zM75 121v86h446v-86h-446z" />
    <glyph glyph-name="Thorn" unicode="&#xde;" horiz-adv-x="677" 
d="M293 488v-273h31c93 0 151 38 151 139c0 91 -64 134 -156 134h-26zM293 554h74c194 0 286 -82 286 -199c0 -134 -94 -202 -282 -202h-78v-21c0 -55 35 -65 118 -69v-63h-379v63c67 3 83 14 83 69v438c0 55 -16 66 -83 69v63h344v-63c-67 -3 -83 -14 -83 -69v-16z" />
    <glyph glyph-name="onequarter" unicode="&#xbc;" horiz-adv-x="948" 
d="M534 102h144v184zM812 -71h-134v118h-215v45l232 297h117v-287h86v-55h-86v-118zM223 748h44v-367c0 -39 14 -42 78 -46v-48h-292v48c72 4 79 7 79 46v228h-79v44l28 6c75 16 105 41 142 89zM224 0l449 741h74l-450 -741h-73z" />
    <glyph glyph-name="divide" unicode="&#xf7;" horiz-adv-x="596" 
d="M70 322v87h455v-87h-455zM230 184c0 38 30 67 66 67c38 0 69 -29 69 -67s-31 -69 -69 -69c-36 0 -66 31 -66 69zM230 548c0 37 30 67 66 67c38 0 69 -30 69 -67s-31 -69 -69 -69c-36 0 -66 32 -66 69z" />
    <glyph glyph-name="brokenbar" unicode="&#xa6;" horiz-adv-x="293" 
d="M193 770v-376h-93v376h93zM193 235v-376h-93v376h93z" />
    <glyph glyph-name="degree" unicode="&#xb0;" horiz-adv-x="374" 
d="M96 553c0 -56 35 -97 91 -97s91 41 91 97s-35 97 -91 97s-91 -41 -91 -97zM26 553c0 91 71 159 161 159s161 -68 161 -159s-71 -159 -161 -159s-161 68 -161 159z" />
    <glyph glyph-name="thorn" unicode="&#xfe;" horiz-adv-x="649" 
d="M242 430v-265c0 -71 23 -111 82 -111c75 0 119 81 119 196c0 122 -49 200 -129 200c-26 0 -52 -7 -72 -20zM73 -79v711l-59 54v34l196 41h32v-300c32 56 85 95 161 95c130 0 212 -96 212 -255c0 -194 -121 -311 -279 -311c-40 0 -77 12 -95 29v-98c0 -46 19 -51 64 -57
v-61h-297v61c45 6 65 11 65 57z" />
    <glyph glyph-name="threequarters" unicode="&#xbe;" horiz-adv-x="967" 
d="M253 537c80 -3 135 -48 135 -118c0 -94 -87 -141 -191 -141c-111 0 -162 44 -162 95c0 29 16 45 31 52h80v-24c0 -50 19 -80 57 -80c36 0 56 26 56 75c0 60 -32 92 -88 92h-19l-9 29c66 26 92 48 92 84c0 29 -20 51 -59 51c-43 0 -69 -24 -87 -49l-34 23
c28 65 89 118 180 118c79 0 130 -40 130 -105c0 -59 -52 -92 -112 -102zM552 102h144v184zM831 -71h-135v118h-215v45l232 297h118v-287h86v-55h-86v-118zM242 0l449 741h74l-450 -741h-73z" />
    <glyph glyph-name="registered" unicode="&#xae;" horiz-adv-x="555" 
d="M264 581h-10v-90h10c30 0 47 16 47 46c0 29 -17 44 -47 44zM166 608h114c69 0 98 -33 98 -71c0 -36 -28 -59 -54 -66l44 -56c11 -15 20 -22 32 -23v-22h-61c-11 6 -22 19 -32 34l-41 62h-12v-49c0 -19 4 -25 25 -25v-22h-113v22c23 0 27 6 27 25v143c0 21 -4 23 -27 25
v23zM87 484c0 -103 80 -193 190 -193c111 0 191 90 191 193c0 104 -80 194 -191 194c-110 0 -190 -90 -190 -194zM50 484c0 126 95 228 227 228c133 0 228 -102 228 -228c0 -125 -95 -227 -228 -227c-132 0 -227 102 -227 227z" />
    <glyph glyph-name="minus" unicode="&#x2212;" horiz-adv-x="596" 
d="M70 322v87h455v-87h-455z" />
    <glyph glyph-name="eth" unicode="&#xf0;" horiz-adv-x="618" 
d="M158 571l-18 43l129 50c-43 32 -94 57 -150 73l21 39c90 -15 164 -41 225 -75l117 45l18 -43l-87 -34c122 -89 171 -218 171 -343c0 -207 -102 -336 -279 -336c-164 0 -271 118 -271 274c0 174 122 271 253 271c55 0 92 -21 120 -50c-19 51 -52 101 -97 144zM321 57
c62 0 95 79 95 190c0 137 -41 235 -113 235c-63 0 -96 -72 -96 -183c0 -137 41 -242 114 -242z" />
    <glyph glyph-name="multiply" unicode="&#xd7;" horiz-adv-x="518" 
d="M199 362l-134 134l60 61l134 -136l133 136l61 -61l-135 -134l135 -133l-61 -60l-133 134l-134 -134l-60 60z" />
    <glyph glyph-name="threesuperior" unicode="&#xb3;" horiz-adv-x="434" 
d="M253 537c80 -3 135 -48 135 -118c0 -94 -87 -141 -191 -141c-111 0 -162 44 -162 95c0 29 16 45 31 52h80v-24c0 -50 19 -80 57 -80c36 0 56 26 56 75c0 60 -32 92 -88 92h-19l-9 29c66 26 92 48 92 84c0 29 -20 51 -59 51c-43 0 -69 -24 -87 -49l-34 23
c28 65 89 118 180 118c79 0 130 -40 130 -105c0 -59 -52 -92 -112 -102z" />
    <glyph glyph-name="copyright" unicode="&#xa9;" horiz-adv-x="796" 
d="M82 351c0 -177 130 -322 316 -322s316 145 316 322s-130 322 -316 322s-316 -145 -316 -322zM40 351c0 199 149 361 358 361s358 -162 358 -361s-149 -361 -358 -361s-358 162 -358 361zM424 190c51 0 67 44 85 101h60l-9 -112c-36 -23 -84 -38 -145 -38
c-134 0 -212 85 -212 203c0 136 96 220 214 220c59 0 108 -17 138 -42v-96h-59c-12 51 -33 92 -79 92c-73 0 -90 -74 -90 -163c0 -92 32 -165 97 -165z" />
    <glyph glyph-name="Aacute" unicode="&#xc1;" horiz-adv-x="751" 
d="M477 147l-29 70h-254l-27 -70c-5 -15 -10 -29 -10 -40c0 -31 13 -41 75 -44v-63h-225v63c27 5 46 10 57 37l212 527l-34 78h186l258 -605c11 -25 29 -32 58 -37v-63h-331v63c60 3 75 13 75 44c0 11 -4 25 -11 40zM319 535l-100 -254h203zM373 909h172l-156 -156h-89z" />
    <glyph glyph-name="Acircumflex" unicode="&#xc2;" horiz-adv-x="751" 
d="M477 147l-29 70h-254l-27 -70c-5 -15 -10 -29 -10 -40c0 -31 13 -41 75 -44v-63h-225v63c27 5 46 10 57 37l212 527l-34 78h186l258 -605c11 -25 29 -32 58 -37v-63h-331v63c60 3 75 13 75 44c0 11 -4 25 -11 40zM412 918l141 -167h-86l-116 82l-116 -82h-86l141 167h122
zM319 535l-100 -254h203z" />
    <glyph glyph-name="Adieresis" unicode="&#xc4;" horiz-adv-x="751" 
d="M477 147l-29 70h-254l-27 -70c-5 -15 -10 -29 -10 -40c0 -31 13 -41 75 -44v-63h-225v63c27 5 46 10 57 37l212 527l-34 78h186l258 -605c11 -25 29 -32 58 -37v-63h-331v63c60 3 75 13 75 44c0 11 -4 25 -11 40zM319 535l-100 -254h203zM160 831c0 45 37 83 83 83
s84 -38 84 -83s-38 -83 -84 -83s-83 38 -83 83zM376 831c0 45 38 83 82 83c48 0 85 -38 85 -83s-37 -83 -85 -83c-44 0 -82 38 -82 83z" />
    <glyph glyph-name="Agrave" unicode="&#xc0;" horiz-adv-x="751" 
d="M477 147l-29 70h-254l-27 -70c-5 -15 -10 -29 -10 -40c0 -31 13 -41 75 -44v-63h-225v63c27 5 46 10 57 37l212 527l-34 78h186l258 -605c11 -25 29 -32 58 -37v-63h-331v63c60 3 75 13 75 44c0 11 -4 25 -11 40zM319 535l-100 -254h203zM164 909h172l73 -156h-89z" />
    <glyph glyph-name="Aring" unicode="&#xc5;" horiz-adv-x="751" 
d="M477 147l-29 70h-254l-27 -70c-5 -15 -10 -29 -10 -40c0 -31 13 -41 75 -44v-63h-225v63c27 5 46 10 57 37l212 527l-34 78h186l258 -605c11 -25 29 -32 58 -37v-63h-331v63c60 3 75 13 75 44c0 11 -4 25 -11 40zM242 841c0 56 45 99 109 99s109 -43 109 -99
s-45 -99 -109 -99s-109 43 -109 99zM319 535l-100 -254h203zM398 841c0 26 -16 46 -47 46s-47 -20 -47 -46s16 -46 47 -46s47 20 47 46z" />
    <glyph glyph-name="Atilde" unicode="&#xc3;" horiz-adv-x="751" 
d="M477 147l-29 70h-254l-27 -70c-5 -15 -10 -29 -10 -40c0 -31 13 -41 75 -44v-63h-225v63c27 5 46 10 57 37l212 527l-34 78h186l258 -605c11 -25 29 -32 58 -37v-63h-331v63c60 3 75 13 75 44c0 11 -4 25 -11 40zM501 899l55 -12c-52 -120 -80 -143 -136 -143
c-57 0 -100 62 -138 62c-30 0 -46 -24 -65 -56l-56 12c53 120 80 143 137 143c64 0 99 -63 138 -63c29 0 45 24 65 57zM319 535l-100 -254h203z" />
    <glyph glyph-name="Ccedilla" unicode="&#xc7;" horiz-adv-x="699" 
d="M290 -231l-10 46c72 0 115 13 115 41c0 26 -37 35 -86 37l40 99c-199 18 -313 157 -313 345c0 231 162 375 364 375c99 0 184 -28 235 -72v-161h-84c-25 103 -67 164 -154 164c-126 0 -169 -134 -169 -277c0 -178 62 -303 184 -303c87 0 128 59 164 179h85l-18 -188
c-61 -40 -143 -64 -248 -64l-12 -35c60 -5 99 -27 99 -77c0 -73 -92 -109 -192 -109z" />
    <glyph glyph-name="Eacute" unicode="&#xc9;" horiz-adv-x="678" 
d="M371 909h172l-156 -156h-89zM518 247h-60c-10 60 -28 80 -72 80h-93v-195c0 -54 27 -67 84 -67h40c74 0 103 36 167 137h66l-31 -202h-587v63c67 3 83 14 83 69v438c0 55 -16 66 -83 69v63h582v-187h-68c-32 82 -57 122 -137 122h-116v-242h93c44 0 62 20 72 80h60v-228z
" />
    <glyph glyph-name="Ecircumflex" unicode="&#xca;" horiz-adv-x="678" 
d="M518 247h-60c-10 60 -28 80 -72 80h-93v-195c0 -54 27 -67 84 -67h40c74 0 103 36 167 137h66l-31 -202h-587v63c67 3 83 14 83 69v438c0 55 -16 66 -83 69v63h582v-187h-68c-32 82 -57 122 -137 122h-116v-242h93c44 0 62 20 72 80h60v-228zM411 918l141 -167h-86
l-116 82l-116 -82h-86l141 167h122z" />
    <glyph glyph-name="Edieresis" unicode="&#xcb;" horiz-adv-x="678" 
d="M159 831c0 45 37 83 83 83s84 -38 84 -83s-38 -83 -84 -83s-83 38 -83 83zM375 831c0 45 38 83 82 83c48 0 85 -38 85 -83s-37 -83 -85 -83c-44 0 -82 38 -82 83zM518 247h-60c-10 60 -28 80 -72 80h-93v-195c0 -54 27 -67 84 -67h40c74 0 103 36 167 137h66l-31 -202
h-587v63c67 3 83 14 83 69v438c0 55 -16 66 -83 69v63h582v-187h-68c-32 82 -57 122 -137 122h-116v-242h93c44 0 62 20 72 80h60v-228z" />
    <glyph glyph-name="Egrave" unicode="&#xc8;" horiz-adv-x="678" 
d="M163 909h172l73 -156h-89zM518 247h-60c-10 60 -28 80 -72 80h-93v-195c0 -54 27 -67 84 -67h40c74 0 103 36 167 137h66l-31 -202h-587v63c67 3 83 14 83 69v438c0 55 -16 66 -83 69v63h582v-187h-68c-32 82 -57 122 -137 122h-116v-242h93c44 0 62 20 72 80h60v-228z
" />
    <glyph glyph-name="Iacute" unicode="&#xcd;" horiz-adv-x="408" 
d="M376 0h-344v63c67 3 83 14 83 69v438c0 55 -16 66 -83 69v63h344v-63c-67 -3 -83 -14 -83 -69v-438c0 -55 16 -66 83 -69v-63zM225 909h172l-156 -156h-89z" />
    <glyph glyph-name="Icircumflex" unicode="&#xce;" horiz-adv-x="408" 
d="M376 0h-344v63c67 3 83 14 83 69v438c0 55 -16 66 -83 69v63h344v-63c-67 -3 -83 -14 -83 -69v-438c0 -55 16 -66 83 -69v-63zM265 918l141 -167h-86l-116 82l-116 -82h-86l141 167h122z" />
    <glyph glyph-name="Idieresis" unicode="&#xcf;" horiz-adv-x="408" 
d="M376 0h-344v63c67 3 83 14 83 69v438c0 55 -16 66 -83 69v63h344v-63c-67 -3 -83 -14 -83 -69v-438c0 -55 16 -66 83 -69v-63zM13 831c0 45 37 83 83 83s84 -38 84 -83s-38 -83 -84 -83s-83 38 -83 83zM229 831c0 45 38 83 82 83c48 0 85 -38 85 -83s-37 -83 -85 -83
c-44 0 -82 38 -82 83z" />
    <glyph glyph-name="Igrave" unicode="&#xcc;" horiz-adv-x="408" 
d="M376 0h-344v63c67 3 83 14 83 69v438c0 55 -16 66 -83 69v63h344v-63c-67 -3 -83 -14 -83 -69v-438c0 -55 16 -66 83 -69v-63zM17 909h172l73 -156h-89z" />
    <glyph glyph-name="Ntilde" unicode="&#xd1;" horiz-adv-x="784" 
d="M543 899l55 -12c-52 -120 -80 -143 -136 -143c-57 0 -100 62 -138 62c-30 0 -46 -24 -65 -56l-56 12c53 120 80 143 137 143c64 0 99 -63 138 -63c29 0 45 24 65 57zM115 132v455c-31 42 -46 49 -83 52v63h251l315 -409v277c0 55 -26 66 -91 69v63h257v-63
c-66 -3 -83 -14 -83 -69v-570h-73l-409 513v-381c0 -55 24 -66 91 -69v-63h-258v63c67 3 83 14 83 69z" />
    <glyph glyph-name="Oacute" unicode="&#xd3;" horiz-adv-x="762" 
d="M409 909h172l-156 -156h-89zM393 60c102 0 144 123 144 278c0 176 -52 304 -168 304c-102 0 -144 -123 -144 -278c0 -176 52 -304 168 -304zM389 712c217 0 338 -161 338 -347c0 -230 -153 -375 -354 -375c-217 0 -337 161 -337 347c0 230 153 375 353 375z" />
    <glyph glyph-name="Ocircumflex" unicode="&#xd4;" horiz-adv-x="762" 
d="M393 60c102 0 144 123 144 278c0 176 -52 304 -168 304c-102 0 -144 -123 -144 -278c0 -176 52 -304 168 -304zM389 712c217 0 338 -161 338 -347c0 -230 -153 -375 -354 -375c-217 0 -337 161 -337 347c0 230 153 375 353 375zM449 918l141 -167h-86l-116 82l-116 -82
h-86l141 167h122z" />
    <glyph glyph-name="Odieresis" unicode="&#xd6;" horiz-adv-x="762" 
d="M196 831c0 45 37 83 83 83s84 -38 84 -83s-38 -83 -84 -83s-83 38 -83 83zM412 831c0 45 38 83 82 83c48 0 85 -38 85 -83s-37 -83 -85 -83c-44 0 -82 38 -82 83zM393 60c102 0 144 123 144 278c0 176 -52 304 -168 304c-102 0 -144 -123 -144 -278
c0 -176 52 -304 168 -304zM389 712c217 0 338 -161 338 -347c0 -230 -153 -375 -354 -375c-217 0 -337 161 -337 347c0 230 153 375 353 375z" />
    <glyph glyph-name="Ograve" unicode="&#xd2;" horiz-adv-x="762" 
d="M201 909h172l73 -156h-89zM393 60c102 0 144 123 144 278c0 176 -52 304 -168 304c-102 0 -144 -123 -144 -278c0 -176 52 -304 168 -304zM389 712c217 0 338 -161 338 -347c0 -230 -153 -375 -354 -375c-217 0 -337 161 -337 347c0 230 153 375 353 375z" />
    <glyph glyph-name="Otilde" unicode="&#xd5;" horiz-adv-x="762" 
d="M530 899l55 -12c-52 -120 -80 -143 -136 -143c-57 0 -100 62 -138 62c-30 0 -46 -24 -65 -56l-56 12c53 120 80 143 137 143c64 0 99 -63 138 -63c29 0 45 24 65 57zM393 60c102 0 144 123 144 278c0 176 -52 304 -168 304c-102 0 -144 -123 -144 -278
c0 -176 52 -304 168 -304zM389 712c217 0 338 -161 338 -347c0 -230 -153 -375 -354 -375c-217 0 -337 161 -337 347c0 230 153 375 353 375z" />
    <glyph glyph-name="Scaron" unicode="&#x160;" horiz-adv-x="602" 
d="M289 -10c-100 0 -188 30 -237 67l-10 167h87c29 -112 79 -169 173 -169c68 0 115 32 115 96c0 54 -33 80 -145 112c-152 43 -223 101 -223 227c0 138 102 222 251 222c94 0 171 -25 221 -61v-153h-75c-27 85 -64 150 -158 150c-68 0 -103 -40 -103 -88
c0 -62 36 -85 144 -115c149 -41 231 -98 231 -234c0 -151 -121 -221 -271 -221zM503 921l-141 -167h-122l-141 167h86l116 -82l116 82h86z" />
    <glyph glyph-name="Uacute" unicode="&#xda;" horiz-adv-x="773" 
d="M440 909h172l-156 -156h-89zM280 570v-306c0 -109 37 -177 141 -177c98 0 164 41 164 185v298c0 55 -24 66 -90 69v63h261v-63c-66 -3 -84 -14 -84 -69v-325c0 -174 -123 -255 -274 -255c-188 0 -298 84 -298 256v324c0 55 -16 66 -82 69v63h343v-63
c-65 -3 -81 -14 -81 -69z" />
    <glyph glyph-name="Ucircumflex" unicode="&#xdb;" horiz-adv-x="773" 
d="M280 570v-306c0 -109 37 -177 141 -177c98 0 164 41 164 185v298c0 55 -24 66 -90 69v63h261v-63c-66 -3 -84 -14 -84 -69v-325c0 -174 -123 -255 -274 -255c-188 0 -298 84 -298 256v324c0 55 -16 66 -82 69v63h343v-63c-65 -3 -81 -14 -81 -69zM480 918l141 -167h-86
l-116 82l-116 -82h-86l141 167h122z" />
    <glyph glyph-name="Udieresis" unicode="&#xdc;" horiz-adv-x="773" 
d="M228 831c0 45 37 83 83 83s84 -38 84 -83s-38 -83 -84 -83s-83 38 -83 83zM444 831c0 45 38 83 82 83c48 0 85 -38 85 -83s-37 -83 -85 -83c-44 0 -82 38 -82 83zM280 570v-306c0 -109 37 -177 141 -177c98 0 164 41 164 185v298c0 55 -24 66 -90 69v63h261v-63
c-66 -3 -84 -14 -84 -69v-325c0 -174 -123 -255 -274 -255c-188 0 -298 84 -298 256v324c0 55 -16 66 -82 69v63h343v-63c-65 -3 -81 -14 -81 -69z" />
    <glyph glyph-name="Ugrave" unicode="&#xd9;" horiz-adv-x="773" 
d="M232 909h172l73 -156h-89zM280 570v-306c0 -109 37 -177 141 -177c98 0 164 41 164 185v298c0 55 -24 66 -90 69v63h261v-63c-66 -3 -84 -14 -84 -69v-325c0 -174 -123 -255 -274 -255c-188 0 -298 84 -298 256v324c0 55 -16 66 -82 69v63h343v-63
c-65 -3 -81 -14 -81 -69z" />
    <glyph glyph-name="Yacute" unicode="&#xdd;" horiz-adv-x="701" 
d="M400 341l115 201c14 25 23 43 23 58c0 27 -21 37 -72 39v63h229v-63c-28 -5 -44 -11 -59 -37l-195 -341v-129c0 -55 21 -66 88 -69v-63h-352v63c66 3 88 14 88 69v130l-201 340c-15 26 -29 32 -57 37v63h329v-63c-55 -2 -70 -12 -70 -39c0 -17 9 -33 22 -58zM400 909h172
l-156 -156h-89z" />
    <glyph glyph-name="Ydieresis" unicode="&#x178;" horiz-adv-x="701" 
d="M400 341l115 201c14 25 23 43 23 58c0 27 -21 37 -72 39v63h229v-63c-28 -5 -44 -11 -59 -37l-195 -341v-129c0 -55 21 -66 88 -69v-63h-352v63c66 3 88 14 88 69v130l-201 340c-15 26 -29 32 -57 37v63h329v-63c-55 -2 -70 -12 -70 -39c0 -17 9 -33 22 -58zM188 831
c0 45 37 83 83 83s84 -38 84 -83s-38 -83 -84 -83s-83 38 -83 83zM404 831c0 45 38 83 82 83c48 0 85 -38 85 -83s-37 -83 -85 -83c-44 0 -82 38 -82 83z" />
    <glyph glyph-name="Zcaron" unicode="&#x17d;" horiz-adv-x="643" 
d="M538 921l-141 -167h-122l-141 167h86l116 -82l116 82h86zM237 67h150c75 0 97 25 169 160h67l-34 -227h-566v43l372 591h-141c-81 0 -93 -48 -135 -137h-63v205h550v-44z" />
    <glyph glyph-name="aacute" unicode="&#xe1;" horiz-adv-x="580" 
d="M267 94c25 0 41 6 61 19v168l-76 -30c-35 -14 -51 -37 -51 -76c0 -50 24 -81 66 -81zM495 348c0 -10 -1 -193 -1 -206c0 -32 6 -55 33 -55c8 0 29 2 43 6l8 -45c-34 -33 -85 -58 -137 -58c-57 0 -93 37 -110 91c-32 -43 -81 -88 -160 -88c-86 0 -140 55 -140 140
c0 89 66 122 136 146l161 56v59c0 74 -17 104 -65 104c-39 0 -57 -26 -57 -65c0 -22 2 -42 8 -65l-111 -17c-26 11 -38 36 -38 67c0 94 90 138 215 138c138 0 215 -48 215 -208zM298 765h170l-154 -162h-85z" />
    <glyph glyph-name="acircumflex" unicode="&#xe2;" horiz-adv-x="580" 
d="M267 94c25 0 41 6 61 19v168l-76 -30c-35 -14 -51 -37 -51 -76c0 -50 24 -81 66 -81zM495 348c0 -10 -1 -193 -1 -206c0 -32 6 -55 33 -55c8 0 29 2 43 6l8 -45c-34 -33 -85 -58 -137 -58c-57 0 -93 37 -110 91c-32 -43 -81 -88 -160 -88c-86 0 -140 55 -140 140
c0 89 66 122 136 146l161 56v59c0 74 -17 104 -65 104c-39 0 -57 -26 -57 -65c0 -22 2 -42 8 -65l-111 -17c-26 11 -38 36 -38 67c0 94 90 138 215 138c138 0 215 -48 215 -208zM348 766l139 -170h-86l-114 85l-114 -85h-86l139 170h122z" />
    <glyph glyph-name="adieresis" unicode="&#xe4;" horiz-adv-x="580" 
d="M267 94c25 0 41 6 61 19v168l-76 -30c-35 -14 -51 -37 -51 -76c0 -50 24 -81 66 -81zM495 348c0 -10 -1 -193 -1 -206c0 -32 6 -55 33 -55c8 0 29 2 43 6l8 -45c-34 -33 -85 -58 -137 -58c-57 0 -93 37 -110 91c-32 -43 -81 -88 -160 -88c-86 0 -140 55 -140 140
c0 89 66 122 136 146l161 56v59c0 74 -17 104 -65 104c-39 0 -57 -26 -57 -65c0 -22 2 -42 8 -65l-111 -17c-26 11 -38 36 -38 67c0 94 90 138 215 138c138 0 215 -48 215 -208zM97 688c0 45 37 83 83 83s84 -38 84 -83s-38 -83 -84 -83s-83 38 -83 83zM311 688
c0 45 38 83 82 83c48 0 85 -38 85 -83s-37 -83 -85 -83c-44 0 -82 38 -82 83z" />
    <glyph glyph-name="agrave" unicode="&#xe0;" horiz-adv-x="580" 
d="M267 94c25 0 41 6 61 19v168l-76 -30c-35 -14 -51 -37 -51 -76c0 -50 24 -81 66 -81zM495 348c0 -10 -1 -193 -1 -206c0 -32 6 -55 33 -55c8 0 29 2 43 6l8 -45c-34 -33 -85 -58 -137 -58c-57 0 -93 37 -110 91c-32 -43 -81 -88 -160 -88c-86 0 -140 55 -140 140
c0 89 66 122 136 146l161 56v59c0 74 -17 104 -65 104c-39 0 -57 -26 -57 -65c0 -22 2 -42 8 -65l-111 -17c-26 11 -38 36 -38 67c0 94 90 138 215 138c138 0 215 -48 215 -208zM106 765h170l68 -162h-84z" />
    <glyph glyph-name="aring" unicode="&#xe5;" horiz-adv-x="580" 
d="M267 94c25 0 41 6 61 19v168l-76 -30c-35 -14 -51 -37 -51 -76c0 -50 24 -81 66 -81zM495 348c0 -10 -1 -193 -1 -206c0 -32 6 -55 33 -55c8 0 29 2 43 6l8 -45c-34 -33 -85 -58 -137 -58c-57 0 -93 37 -110 91c-32 -43 -81 -88 -160 -88c-86 0 -140 55 -140 140
c0 89 66 122 136 146l161 56v59c0 74 -17 104 -65 104c-39 0 -57 -26 -57 -65c0 -22 2 -42 8 -65l-111 -17c-26 11 -38 36 -38 67c0 94 90 138 215 138c138 0 215 -48 215 -208zM175 694c0 56 45 99 109 99s109 -43 109 -99s-45 -99 -109 -99s-109 43 -109 99zM331 694
c0 26 -16 46 -47 46s-47 -20 -47 -46s16 -46 47 -46s47 20 47 46z" />
    <glyph glyph-name="atilde" unicode="&#xe3;" horiz-adv-x="580" 
d="M267 94c25 0 41 6 61 19v168l-76 -30c-35 -14 -51 -37 -51 -76c0 -50 24 -81 66 -81zM495 348c0 -10 -1 -193 -1 -206c0 -32 6 -55 33 -55c8 0 29 2 43 6l8 -45c-34 -33 -85 -58 -137 -58c-57 0 -93 37 -110 91c-32 -43 -81 -88 -160 -88c-86 0 -140 55 -140 140
c0 89 66 122 136 146l161 56v59c0 74 -17 104 -65 104c-39 0 -57 -26 -57 -65c0 -22 2 -42 8 -65l-111 -17c-26 11 -38 36 -38 67c0 94 90 138 215 138c138 0 215 -48 215 -208zM438 767l55 -12c-52 -121 -80 -143 -136 -143c-57 0 -100 62 -138 62c-30 0 -46 -24 -65 -56
l-56 11c53 121 80 144 137 144c64 0 99 -63 138 -63c29 0 45 24 65 57z" />
    <glyph glyph-name="ccedilla" unicode="&#xe7;" horiz-adv-x="535" 
d="M184 -231l-10 46c72 0 115 13 115 41c0 26 -37 35 -86 37l40 99c-123 16 -209 115 -209 261c0 172 110 303 280 303c103 0 190 -49 190 -141c0 -40 -18 -65 -42 -75h-88v49c0 58 -17 100 -73 100c-62 0 -114 -61 -114 -166c0 -122 52 -205 153 -205c58 0 105 28 140 75
l31 -21c-33 -123 -112 -179 -222 -182l-12 -35c60 -5 99 -27 99 -77c0 -73 -92 -109 -192 -109z" />
    <glyph glyph-name="eacute" unicode="&#xe9;" horiz-adv-x="553" 
d="M309 765h170l-154 -162h-85zM301 556c142 0 216 -102 216 -228v-37h-333c0 -105 65 -171 158 -171c66 0 112 26 147 71l30 -19c-26 -109 -106 -182 -231 -182c-148 0 -254 104 -254 265c0 182 119 301 267 301zM284 491c-61 0 -91 -66 -98 -143h184
c-1 85 -28 143 -86 143z" />
    <glyph glyph-name="ecircumflex" unicode="&#xea;" horiz-adv-x="553" 
d="M357 766l139 -170h-86l-114 85l-114 -85h-86l139 170h122zM301 556c142 0 216 -102 216 -228v-37h-333c0 -105 65 -171 158 -171c66 0 112 26 147 71l30 -19c-26 -109 -106 -182 -231 -182c-148 0 -254 104 -254 265c0 182 119 301 267 301zM284 491
c-61 0 -91 -66 -98 -143h184c-1 85 -28 143 -86 143z" />
    <glyph glyph-name="edieresis" unicode="&#xeb;" horiz-adv-x="553" 
d="M106 688c0 45 37 83 83 83s84 -38 84 -83s-38 -83 -84 -83s-83 38 -83 83zM320 688c0 45 38 83 82 83c48 0 85 -38 85 -83s-37 -83 -85 -83c-44 0 -82 38 -82 83zM301 556c142 0 216 -102 216 -228v-37h-333c0 -105 65 -171 158 -171c66 0 112 26 147 71l30 -19
c-26 -109 -106 -182 -231 -182c-148 0 -254 104 -254 265c0 182 119 301 267 301zM284 491c-61 0 -91 -66 -98 -143h184c-1 85 -28 143 -86 143z" />
    <glyph glyph-name="egrave" unicode="&#xe8;" horiz-adv-x="553" 
d="M301 556c142 0 216 -102 216 -228v-37h-333c0 -105 65 -171 158 -171c66 0 112 26 147 71l30 -19c-26 -109 -106 -182 -231 -182c-148 0 -254 104 -254 265c0 182 119 301 267 301zM284 491c-61 0 -91 -66 -98 -143h184c-1 85 -28 143 -86 143zM109 765h170l68 -162h-84z
" />
    <glyph glyph-name="iacute" unicode="&#xed;" horiz-adv-x="357" 
d="M201 765h170l-154 -162h-85zM267 557v-439c0 -46 19 -51 64 -57v-61h-297v61c44 6 64 11 64 57v304l-59 55v29l196 51h32z" />
    <glyph glyph-name="icircumflex" unicode="&#xee;" horiz-adv-x="357" 
d="M243 766l139 -170h-86l-114 85l-114 -85h-86l139 170h122zM267 557v-439c0 -46 19 -51 64 -57v-61h-297v61c44 6 64 11 64 57v304l-59 55v29l196 51h32z" />
    <glyph glyph-name="idieresis" unicode="&#xef;" horiz-adv-x="357" 
d="M-8 688c0 45 37 83 83 83s84 -38 84 -83s-38 -83 -84 -83s-83 38 -83 83zM206 688c0 45 38 83 82 83c48 0 85 -38 85 -83s-37 -83 -85 -83c-44 0 -82 38 -82 83zM267 557v-439c0 -46 19 -51 64 -57v-61h-297v61c44 6 64 11 64 57v304l-59 55v29l196 51h32z" />
    <glyph glyph-name="igrave" unicode="&#xec;" horiz-adv-x="357" 
d="M267 557v-439c0 -46 19 -51 64 -57v-61h-297v61c44 6 64 11 64 57v304l-59 55v29l196 51h32zM-9 765h170l68 -162h-84z" />
    <glyph glyph-name="ntilde" unicode="&#xf1;" horiz-adv-x="694" 
d="M440 118v258c0 47 -17 70 -67 70c-41 0 -77 -11 -106 -24v-304c0 -46 15 -51 60 -57v-61h-293v61c44 6 64 11 64 57v301l-59 54v33l196 54h32v-108c42 48 106 104 192 104c96 0 150 -52 150 -164v-274c0 -46 19 -51 64 -57v-61h-292v61c45 6 59 11 59 57zM500 767l55 -12
c-52 -121 -80 -143 -136 -143c-57 0 -100 62 -138 62c-30 0 -46 -24 -65 -56l-56 11c53 121 80 144 137 144c64 0 99 -63 138 -63c29 0 45 24 65 57z" />
    <glyph glyph-name="oacute" unicode="&#xf3;" horiz-adv-x="624" 
d="M335 765h170l-154 -162h-85zM321 57c62 0 95 79 95 190c0 137 -41 243 -113 243c-63 0 -96 -80 -96 -191c0 -137 41 -242 114 -242zM305 -10c-164 0 -271 118 -271 274c0 178 122 292 285 292c164 0 271 -118 271 -273c0 -179 -123 -293 -285 -293z" />
    <glyph glyph-name="ocircumflex" unicode="&#xf4;" horiz-adv-x="624" 
d="M377 766l139 -170h-86l-114 85l-114 -85h-86l139 170h122zM321 57c62 0 95 79 95 190c0 137 -41 243 -113 243c-63 0 -96 -80 -96 -191c0 -137 41 -242 114 -242zM305 -10c-164 0 -271 118 -271 274c0 178 122 292 285 292c164 0 271 -118 271 -273
c0 -179 -123 -293 -285 -293z" />
    <glyph glyph-name="odieresis" unicode="&#xf6;" horiz-adv-x="624" 
d="M126 688c0 45 37 83 83 83s84 -38 84 -83s-38 -83 -84 -83s-83 38 -83 83zM340 688c0 45 38 83 82 83c48 0 85 -38 85 -83s-37 -83 -85 -83c-44 0 -82 38 -82 83zM321 57c62 0 95 79 95 190c0 137 -41 243 -113 243c-63 0 -96 -80 -96 -191c0 -137 41 -242 114 -242z
M305 -10c-164 0 -271 118 -271 274c0 178 122 292 285 292c164 0 271 -118 271 -273c0 -179 -123 -293 -285 -293z" />
    <glyph glyph-name="ograve" unicode="&#xf2;" horiz-adv-x="624" 
d="M321 57c62 0 95 79 95 190c0 137 -41 243 -113 243c-63 0 -96 -80 -96 -191c0 -137 41 -242 114 -242zM305 -10c-164 0 -271 118 -271 274c0 178 122 292 285 292c164 0 271 -118 271 -273c0 -179 -123 -293 -285 -293zM125 765h170l68 -162h-84z" />
    <glyph glyph-name="otilde" unicode="&#xf5;" horiz-adv-x="624" 
d="M321 57c62 0 95 79 95 190c0 137 -41 243 -113 243c-63 0 -96 -80 -96 -191c0 -137 41 -242 114 -242zM305 -10c-164 0 -271 118 -271 274c0 178 122 292 285 292c164 0 271 -118 271 -273c0 -179 -123 -293 -285 -293zM459 767l55 -12c-52 -121 -80 -143 -136 -143
c-57 0 -100 62 -138 62c-30 0 -46 -24 -65 -56l-56 11c53 121 80 144 137 144c64 0 99 -63 138 -63c29 0 45 24 65 57z" />
    <glyph glyph-name="scaron" unicode="&#x161;" horiz-adv-x="503" 
d="M449 774l-139 -170h-122l-139 170h86l114 -85l114 85h86zM249 -10c-85 0 -155 23 -202 56l-6 124h76c18 -78 60 -118 137 -118c52 0 88 21 88 62c0 44 -28 60 -118 81c-121 29 -182 79 -182 180c0 115 81 181 209 181c70 0 134 -18 178 -46v-113h-74
c-15 61 -48 97 -111 97c-48 0 -74 -26 -74 -61c0 -39 21 -59 111 -77c108 -23 186 -68 186 -179c0 -118 -81 -187 -218 -187z" />
    <glyph glyph-name="uacute" unicode="&#xfa;" horiz-adv-x="675" 
d="M363 765h170l-154 -162h-85zM415 -10v98c-38 -46 -99 -98 -187 -98s-148 52 -148 169v240c0 30 -7 50 -42 57l-15 5v52l196 43h31v-380c0 -55 23 -82 67 -82c40 0 69 11 98 24v281c0 30 -7 50 -42 57l-14 5v52l194 43h32v-418c0 -34 8 -51 41 -53h24v-62l-201 -33h-34z
" />
    <glyph glyph-name="ucircumflex" unicode="&#xfb;" horiz-adv-x="675" 
d="M405 766l139 -170h-86l-114 85l-114 -85h-86l139 170h122zM415 -10v98c-38 -46 -99 -98 -187 -98s-148 52 -148 169v240c0 30 -7 50 -42 57l-15 5v52l196 43h31v-380c0 -55 23 -82 67 -82c40 0 69 11 98 24v281c0 30 -7 50 -42 57l-14 5v52l194 43h32v-418
c0 -34 8 -51 41 -53h24v-62l-201 -33h-34z" />
    <glyph glyph-name="udieresis" unicode="&#xfc;" horiz-adv-x="675" 
d="M145 688c0 45 37 83 83 83s84 -38 84 -83s-38 -83 -84 -83s-83 38 -83 83zM359 688c0 45 38 83 82 83c48 0 85 -38 85 -83s-37 -83 -85 -83c-44 0 -82 38 -82 83zM415 -10v98c-38 -46 -99 -98 -187 -98s-148 52 -148 169v240c0 30 -7 50 -42 57l-15 5v52l196 43h31v-380
c0 -55 23 -82 67 -82c40 0 69 11 98 24v281c0 30 -7 50 -42 57l-14 5v52l194 43h32v-418c0 -34 8 -51 41 -53h24v-62l-201 -33h-34z" />
    <glyph glyph-name="ugrave" unicode="&#xf9;" horiz-adv-x="675" 
d="M415 -10v98c-38 -46 -99 -98 -187 -98s-148 52 -148 169v240c0 30 -7 50 -42 57l-15 5v52l196 43h31v-380c0 -55 23 -82 67 -82c40 0 69 11 98 24v281c0 30 -7 50 -42 57l-14 5v52l194 43h32v-418c0 -34 8 -51 41 -53h24v-62l-201 -33h-34zM153 765h170l68 -162h-84z" />
    <glyph glyph-name="yacute" unicode="&#xfd;" horiz-adv-x="610" 
d="M272 -2l-210 448c-10 21 -20 27 -57 40v60h316v-60c-52 -7 -69 -12 -69 -36c0 -8 2 -16 10 -36l94 -229l93 229c8 21 10 28 10 36c0 24 -15 29 -67 36v60h213v-60c-37 -13 -47 -18 -57 -40l-229 -525c-38 -87 -81 -129 -149 -129c-38 0 -69 16 -84 39v85h58
c69 0 95 6 120 63zM366 765h170l-154 -162h-85z" />
    <glyph glyph-name="ydieresis" unicode="&#xff;" horiz-adv-x="610" 
d="M272 -2l-210 448c-10 21 -20 27 -57 40v60h316v-60c-52 -7 -69 -12 -69 -36c0 -8 2 -16 10 -36l94 -229l93 229c8 21 10 28 10 36c0 24 -15 29 -67 36v60h213v-60c-37 -13 -47 -18 -57 -40l-229 -525c-38 -87 -81 -129 -149 -129c-38 0 -69 16 -84 39v85h58
c69 0 95 6 120 63zM157 688c0 45 37 83 83 83s84 -38 84 -83s-38 -83 -84 -83s-83 38 -83 83zM371 688c0 45 38 83 82 83c48 0 85 -38 85 -83s-37 -83 -85 -83c-44 0 -82 38 -82 83z" />
    <glyph glyph-name="zcaron" unicode="&#x17e;" horiz-adv-x="560" 
d="M486 774l-139 -170h-122l-139 170h86l114 -85l114 85h86zM28 0v42l286 441h-99c-55 0 -70 -33 -108 -135h-64v198h472v-45l-279 -437h93c63 0 87 30 134 137h64l-22 -201h-477z" />
    <glyph glyph-name="Omega" unicode="&#x2126;" horiz-adv-x="762" 
d="M381 645c-97 0 -137 -118 -137 -245c0 -149 52 -246 103 -314v-86h-269l-25 193h39c45 -82 54 -91 144 -91h54c-103 35 -216 154 -216 298c0 174 117 312 307 312s307 -138 307 -312c0 -144 -113 -263 -216 -298h54c90 0 99 9 144 91h39l-25 -193h-269v86
c51 68 103 165 103 314c0 127 -40 245 -137 245z" />
    <glyph glyph-name="pi" unicode="&#x3c0;" horiz-adv-x="678" 
d="M370 148v281h-101c0 -204 -10 -298 -40 -429h-173v41c50 97 103 199 103 388h-106v117h570l-17 -117h-80v-286c0 -35 18 -56 46 -56c8 0 28 2 43 6l8 -45c-34 -33 -85 -58 -137 -58c-81 0 -116 50 -116 158z" />
    <glyph glyph-name="Euro" unicode="&#x20ac;" horiz-adv-x="706" 
d="M27 383v55h94c36 168 161 274 321 274c88 0 156 -21 205 -66v-160h-80c-22 100 -56 156 -134 156c-87 0 -129 -90 -141 -204h216l-9 -55h-211v-18c0 -16 0 -32 1 -47h200l-9 -56h-186c15 -114 58 -198 148 -198c79 0 124 49 155 169h77l-14 -188
c-55 -36 -141 -55 -224 -55c-178 0 -293 105 -320 272h-89v56h84v20c0 15 0 30 2 45h-86z" />
    <glyph glyph-name="partialdiff" unicode="&#x2202;" horiz-adv-x="624" 
d="M287 535c55 0 92 -21 120 -50c-40 109 -144 212 -288 252l21 39c325 -52 444 -255 444 -450c0 -207 -102 -336 -279 -336c-164 0 -271 118 -271 274c0 174 122 271 253 271zM321 57c62 0 95 79 95 190c0 137 -41 235 -113 235c-63 0 -96 -72 -96 -183
c0 -137 41 -242 114 -242z" />
    <glyph glyph-name="product" unicode="&#x220f;" horiz-adv-x="821" 
d="M25 702h771v-63c-67 -3 -84 -14 -84 -69v-635c0 -55 17 -66 84 -69v-63h-337v63c66 3 84 14 84 69v709h-265v-709c0 -55 18 -66 84 -69v-63h-337v63c67 3 84 14 84 69v635c0 55 -17 66 -84 69v63z" />
    <glyph glyph-name="summation" unicode="&#x2211;" horiz-adv-x="635" 
d="M165 -57h191c85 0 122 3 179 97h66l-44 -237h-536v59l263 379l-252 393v68h542v-187h-75c-37 90 -64 127 -153 127h-120l193 -301v-37z" />
    <glyph glyph-name="radical" unicode="&#x221a;" horiz-adv-x="615" 
d="M354 232l184 480h73l-274 -712h-89l-142 433c-13 40 -26 53 -58 57l-28 2v54h242z" />
    <glyph glyph-name="infinity" unicode="&#x221e;" horiz-adv-x="767" 
d="M331 348l-40 47c-24 29 -50 42 -82 42c-44 0 -83 -33 -83 -89s39 -89 83 -89c32 0 58 13 82 42zM475 395l-39 -47l39 -47c24 -29 50 -42 83 -42c44 0 82 33 82 89s-38 89 -82 89c-33 0 -59 -13 -83 -42zM383 289l-32 -38c-40 -45 -82 -73 -147 -73
c-89 0 -162 64 -162 170s73 170 162 170c65 0 107 -28 147 -73l32 -38l33 38c39 45 82 73 146 73c89 0 162 -64 162 -170s-73 -170 -162 -170c-64 0 -107 28 -146 73z" />
    <glyph glyph-name="integral" unicode="&#x222b;" horiz-adv-x="449" 
d="M271 575v-530c0 -175 -89 -241 -215 -241c-85 0 -135 33 -135 92c0 30 16 50 34 62h74v-36c0 -35 7 -63 38 -63c30 0 37 31 37 82v530c0 175 89 241 215 241c85 0 135 -33 135 -92c0 -30 -16 -50 -35 -62h-74v36c0 35 -6 63 -37 63c-30 0 -37 -31 -37 -82z" />
    <glyph glyph-name="approxequal" unicode="&#x2248;" horiz-adv-x="607" 
d="M76 379v86c45 29 85 41 122 41c79 0 131 -40 209 -40c38 0 79 11 125 41v-85c-46 -30 -87 -41 -125 -41c-78 0 -130 40 -209 40c-37 0 -77 -12 -122 -42zM76 230v84c45 30 85 41 122 41c79 0 131 -39 209 -39c38 0 79 10 125 40v-84c-46 -31 -87 -41 -125 -41
c-78 0 -130 38 -209 38c-37 0 -77 -11 -122 -39z" />
    <glyph glyph-name="notequal" unicode="&#x2260;" horiz-adv-x="607" 
d="M76 407v81h269l72 104h83l-72 -104h104v-81h-159l-56 -82h215v-81h-271l-70 -103h-84l71 103h-102v81h157l57 82h-214z" />
    <glyph glyph-name="lessequal" unicode="&#x2264;" horiz-adv-x="473" 
d="M61 404v10l332 181v-99l-171 -88l171 -87v-98zM61 102v87h332v-87h-332z" />
    <glyph glyph-name="greaterequal" unicode="&#x2265;" horiz-adv-x="473" 
d="M412 414v-10l-332 -181v98l172 87l-172 88v99zM412 189v-87h-332v87h332z" />
    <glyph glyph-name="lozenge" unicode="&#x25ca;" horiz-adv-x="578" 
d="M36 351l205 351h95l206 -351l-206 -351h-95zM432 351l-143 257l-144 -257l144 -256z" />
    <glyph glyph-name="uni00A0" unicode="&#xa0;" horiz-adv-x="197" 
 />
    <glyph glyph-name="twosuperior" unicode="&#xb2;" horiz-adv-x="442" 
d="M163 388h111c42 0 49 6 82 54h37l-13 -155h-355v42l124 112c63 56 93 93 93 145c0 42 -26 69 -72 69c-43 0 -77 -28 -99 -54l-30 32c31 60 98 115 190 115c85 0 143 -48 143 -130c0 -98 -104 -163 -211 -230z" />
    <glyph glyph-name="Tcedilla" unicode="&#x162;" horiz-adv-x="704" 
d="M371 -157h-57c-30 8 -48 26 -48 59c0 35 30 62 80 62c59 0 94 -39 94 -94c0 -65 -45 -116 -167 -116v43c64 0 96 19 98 46zM30 702h644l15 -231h-70c-48 117 -67 168 -148 168h-31v-507c0 -55 22 -66 88 -69v-63h-354v63c67 3 90 14 90 69v507h-32
c-81 0 -100 -51 -148 -168h-69z" />
    <glyph glyph-name="tcedilla" unicode="&#x163;" horiz-adv-x="412" 
d="M227 -157h-57c-30 8 -48 26 -48 59c0 35 30 62 80 62c59 0 94 -39 94 -94c0 -65 -45 -116 -167 -116v43c64 0 96 19 98 46zM247 670v-124h137v-71h-137v-316c0 -49 20 -70 66 -70c25 0 53 7 77 20l18 -46c-46 -47 -106 -73 -178 -73c-100 0 -153 47 -153 151v334h-68v50
c65 24 135 82 186 145h52z" />
    <glyph glyph-name="Tcedilla.sc" horiz-adv-x="647" 
d="M35 606h577l14 -207h-69c-39 95 -58 147 -128 147h-20v-426c0 -45 20 -56 79 -59v-61h-329v61c59 3 80 14 80 59v426h-21c-69 0 -89 -52 -128 -147h-69zM342 -157h-57c-30 8 -48 26 -48 59c0 35 30 62 80 62c59 0 94 -39 94 -94c0 -65 -45 -116 -167 -116v43
c64 0 96 19 98 46z" />
    <glyph glyph-name="i.dot" horiz-adv-x="357" 
d="M267 557v-439c0 -46 19 -51 64 -57v-61h-297v61c44 6 64 11 64 57v304l-59 55v29l196 51h32zM183 601c-59 0 -96 41 -96 89s37 89 96 89c58 0 94 -41 94 -89s-36 -89 -94 -89z" />
    <glyph glyph-name="uni0237" unicode="&#x237;" horiz-adv-x="312" 
d="M248 557v-434c0 -107 -24 -159 -63 -208c-46 -56 -94 -93 -150 -124l-34 32l39 64c36 56 38 116 38 198v337l-58 55v29l197 51h31z" />
    <glyph glyph-name="space_uni0326" horiz-adv-x="500" 
d="M264 -157h-57c-30 8 -48 26 -48 59c0 35 30 62 80 62c59 0 94 -39 94 -94c0 -65 -45 -116 -167 -116v43c64 0 96 19 98 46z" />
    <glyph glyph-name="space_uni0326.alt" horiz-adv-x="500" 
d="M227 718h57c30 -7 49 -25 49 -59c0 -35 -30 -62 -81 -62c-58 0 -93 40 -93 94c0 65 45 116 166 116v-42c-63 0 -96 -19 -98 -47z" />
    <glyph glyph-name="space_dotbelowcomb" horiz-adv-x="500" 
d="M251 -207c-59 0 -96 41 -96 90c0 48 37 89 96 89c58 0 94 -41 94 -89c0 -49 -36 -90 -94 -90z" />
    <glyph glyph-name="uni2117" unicode="&#x2117;" horiz-adv-x="796" 
d="M440 307h-52v-73c0 -31 13 -38 60 -39v-41h-211v41c38 1 43 8 43 39v239c0 30 -5 36 -43 37v41h201c110 0 158 -59 158 -120c0 -74 -50 -124 -156 -124zM388 506v-158h20c56 0 81 28 81 82c0 46 -26 76 -83 76h-18zM82 351c0 -177 130 -322 316 -322s316 145 316 322
s-130 322 -316 322s-316 -145 -316 -322zM40 351c0 199 149 361 358 361s358 -162 358 -361s-149 -361 -358 -361s-358 162 -358 361z" />
    <glyph glyph-name="Delta" unicode="&#x2206;" horiz-adv-x="686" 
d="M662 0h-638v48l293 654h47l298 -654v-48zM287 479l-183 -414h367z" />
    <glyph glyph-name="Abreve" unicode="&#x102;" horiz-adv-x="751" 
d="M477 147l-29 70h-254l-27 -70c-5 -15 -10 -29 -10 -40c0 -31 13 -41 75 -44v-63h-225v63c27 5 46 10 57 37l212 527l-34 78h186l258 -605c11 -25 29 -32 58 -37v-63h-331v63c60 3 75 13 75 44c0 11 -4 25 -11 40zM351 748c-99 0 -158 63 -158 168h64c8 -63 54 -81 94 -81
s86 18 94 81h64c0 -105 -59 -168 -158 -168zM319 535l-100 -254h203z" />
    <glyph glyph-name="Amacron" unicode="&#x100;" horiz-adv-x="751" 
d="M477 147l-29 70h-254l-27 -70c-5 -15 -10 -29 -10 -40c0 -31 13 -41 75 -44v-63h-225v63c27 5 46 10 57 37l212 527l-34 78h186l258 -605c11 -25 29 -32 58 -37v-63h-331v63c60 3 75 13 75 44c0 11 -4 25 -11 40zM196 763v97h310v-97h-310zM319 535l-100 -254h203z" />
    <glyph glyph-name="Aogonek" unicode="&#x104;" horiz-adv-x="751" 
d="M477 147l-29 70h-254l-27 -70c-5 -15 -10 -29 -10 -40c0 -31 13 -41 75 -44v-63h-225v63c27 5 46 10 57 37l212 527l-34 78h186l258 -605c11 -25 29 -32 58 -37v-63h-298c-34 -19 -59 -49 -59 -84c0 -33 15 -53 46 -53c23 0 45 4 75 23l17 -26c-41 -47 -80 -73 -137 -73
c-52 0 -99 36 -99 100c0 60 38 106 129 149c52 25 70 40 70 71c0 11 -4 25 -11 40zM319 535l-100 -254h203z" />
    <glyph glyph-name="Aringacute" unicode="&#x1fa;" horiz-adv-x="751" 
d="M477 147l-29 70h-254l-27 -70c-5 -15 -10 -29 -10 -40c0 -31 13 -41 75 -44v-63h-225v63c27 5 46 10 57 37l212 527l-34 78h186l258 -605c11 -25 29 -32 58 -37v-63h-331v63c60 3 75 13 75 44c0 11 -4 25 -11 40zM234 823c0 54 47 88 114 88s114 -34 114 -88
s-47 -88 -114 -88s-114 34 -114 88zM319 535l-100 -254h203zM356 1054h171l-136 -116h-81zM401 823c0 26 -21 41 -53 41s-53 -15 -53 -41s21 -41 53 -41s53 15 53 41z" />
    <glyph glyph-name="AEacute" unicode="&#x1fc;" horiz-adv-x="1057" 
d="M65 100l343 500c-11 27 -30 36 -89 39v63h674v-187h-68c-32 82 -58 122 -138 122h-116v-242h94c44 0 62 20 72 80h59v-228h-59c-10 60 -28 80 -72 80h-94v-195c0 -54 28 -67 85 -67h40c73 0 102 36 166 137h67l-31 -202h-588v63c67 3 84 14 84 69v113h-240l-56 -83
c-17 -24 -23 -43 -23 -58c0 -31 15 -38 77 -41v-63h-245v63c27 5 41 13 58 37zM494 595l-196 -286h196v286zM647 909h172l-156 -156h-89z" />
    <glyph glyph-name="Cacute" unicode="&#x106;" horiz-adv-x="699" 
d="M412 63c87 0 128 59 164 179h85l-18 -188c-61 -40 -143 -64 -248 -64c-227 0 -359 145 -359 347c0 231 162 375 364 375c99 0 184 -28 235 -72v-161h-84c-25 103 -67 164 -154 164c-126 0 -169 -134 -169 -277c0 -178 62 -303 184 -303zM411 909h172l-156 -156h-89z" />
    <glyph glyph-name="Ccaron" unicode="&#x10c;" horiz-adv-x="699" 
d="M412 63c87 0 128 59 164 179h85l-18 -188c-61 -40 -143 -64 -248 -64c-227 0 -359 145 -359 347c0 231 162 375 364 375c99 0 184 -28 235 -72v-161h-84c-25 103 -67 164 -154 164c-126 0 -169 -134 -169 -277c0 -178 62 -303 184 -303zM596 921l-141 -167h-122l-141 167
h86l116 -82l116 82h86z" />
    <glyph glyph-name="Ccircumflex" unicode="&#x108;" horiz-adv-x="699" 
d="M412 63c87 0 128 59 164 179h85l-18 -188c-61 -40 -143 -64 -248 -64c-227 0 -359 145 -359 347c0 231 162 375 364 375c99 0 184 -28 235 -72v-161h-84c-25 103 -67 164 -154 164c-126 0 -169 -134 -169 -277c0 -178 62 -303 184 -303zM455 918l141 -167h-86l-116 82
l-116 -82h-86l141 167h122z" />
    <glyph glyph-name="Cdotaccent" unicode="&#x10a;" horiz-adv-x="699" 
d="M395 748c-58 0 -95 41 -95 89s37 90 95 90s95 -42 95 -90s-37 -89 -95 -89zM412 63c87 0 128 59 164 179h85l-18 -188c-61 -40 -143 -64 -248 -64c-227 0 -359 145 -359 347c0 231 162 375 364 375c99 0 184 -28 235 -72v-161h-84c-25 103 -67 164 -154 164
c-126 0 -169 -134 -169 -277c0 -178 62 -303 184 -303z" />
    <glyph glyph-name="Dcaron" unicode="&#x10e;" horiz-adv-x="793" 
d="M593 921l-141 -167h-122l-141 167h86l116 -82l116 82h86zM328 635h-35v-498c0 -59 22 -70 75 -70h11c120 0 188 91 188 284c0 168 -80 284 -239 284zM32 639v63h321c262 0 405 -130 405 -338c0 -230 -147 -364 -373 -364h-353v63c67 3 83 14 83 69v438
c0 55 -16 66 -83 69z" />
    <glyph glyph-name="Dcroat" unicode="&#x110;" horiz-adv-x="801" 
d="M39 329v66h84v175c0 55 -16 66 -83 69v63h321c262 0 405 -130 405 -338c0 -230 -147 -364 -373 -364h-353v63c67 3 83 14 83 69v197h-84zM336 635h-35v-240h131v-66h-131v-192c0 -59 22 -70 75 -70h11c120 0 188 91 188 284c0 168 -80 284 -239 284z" />
    <glyph glyph-name="Ebreve" unicode="&#x114;" horiz-adv-x="678" 
d="M350 748c-99 0 -158 63 -158 168h64c8 -63 54 -81 94 -81s86 18 94 81h64c0 -105 -59 -168 -158 -168zM518 247h-60c-10 60 -28 80 -72 80h-93v-195c0 -54 27 -67 84 -67h40c74 0 103 36 167 137h66l-31 -202h-587v63c67 3 83 14 83 69v438c0 55 -16 66 -83 69v63h582
v-187h-68c-32 82 -57 122 -137 122h-116v-242h93c44 0 62 20 72 80h60v-228z" />
    <glyph glyph-name="Ecaron" unicode="&#x11a;" horiz-adv-x="678" 
d="M552 921l-141 -167h-122l-141 167h86l116 -82l116 82h86zM518 247h-60c-10 60 -28 80 -72 80h-93v-195c0 -54 27 -67 84 -67h40c74 0 103 36 167 137h66l-31 -202h-587v63c67 3 83 14 83 69v438c0 55 -16 66 -83 69v63h582v-187h-68c-32 82 -57 122 -137 122h-116v-242
h93c44 0 62 20 72 80h60v-228z" />
    <glyph glyph-name="Edotaccent" unicode="&#x116;" horiz-adv-x="678" 
d="M351 748c-58 0 -95 41 -95 89s37 90 95 90s95 -42 95 -90s-37 -89 -95 -89zM518 247h-60c-10 60 -28 80 -72 80h-93v-195c0 -54 27 -67 84 -67h40c74 0 103 36 167 137h66l-31 -202h-587v63c67 3 83 14 83 69v438c0 55 -16 66 -83 69v63h582v-187h-68
c-32 82 -57 122 -137 122h-116v-242h93c44 0 62 20 72 80h60v-228z" />
    <glyph glyph-name="Emacron" unicode="&#x112;" horiz-adv-x="678" 
d="M195 763v97h310v-97h-310zM518 247h-60c-10 60 -28 80 -72 80h-93v-195c0 -54 27 -67 84 -67h40c74 0 103 36 167 137h66l-31 -202h-587v63c67 3 83 14 83 69v438c0 55 -16 66 -83 69v63h582v-187h-68c-32 82 -57 122 -137 122h-116v-242h93c44 0 62 20 72 80h60v-228z
" />
    <glyph glyph-name="Eogonek" unicode="&#x118;" horiz-adv-x="678" 
d="M518 247h-60c-10 60 -28 80 -72 80h-93v-195c0 -54 27 -67 84 -67h40c74 0 103 36 167 137h66l-31 -202h-80c-46 -27 -72 -60 -72 -96c0 -23 13 -41 45 -41c22 0 44 4 74 23l18 -26c-42 -47 -86 -75 -142 -75c-52 0 -95 31 -95 84c0 58 43 100 99 131h-434v63
c67 3 83 14 83 69v438c0 55 -16 66 -83 69v63h582v-187h-68c-32 82 -57 122 -137 122h-116v-242h93c44 0 62 20 72 80h60v-228z" />
    <glyph glyph-name="Gbreve" unicode="&#x11e;" horiz-adv-x="760" 
d="M398 748c-99 0 -158 63 -158 168h64c8 -63 54 -81 94 -81s86 18 94 81h64c0 -105 -59 -168 -158 -168zM36 337c0 231 169 375 368 375c99 0 184 -28 236 -72v-161h-84c-27 103 -71 164 -155 164c-125 0 -175 -134 -175 -277c0 -175 52 -303 190 -303c34 0 52 4 77 17v131
c0 53 -17 65 -81 67v64h324v-64c-66 -2 -80 -14 -80 -67v-148c-63 -46 -159 -72 -264 -72c-232 0 -356 145 -356 346z" />
    <glyph glyph-name="Gcircumflex" unicode="&#x11c;" horiz-adv-x="760" 
d="M36 337c0 231 169 375 368 375c99 0 184 -28 236 -72v-161h-84c-27 103 -71 164 -155 164c-125 0 -175 -134 -175 -277c0 -175 52 -303 190 -303c34 0 52 4 77 17v131c0 53 -17 65 -81 67v64h324v-64c-66 -2 -80 -14 -80 -67v-148c-63 -46 -159 -72 -264 -72
c-232 0 -356 145 -356 346zM461 918l141 -167h-86l-116 82l-116 -82h-86l141 167h122z" />
    <glyph glyph-name="Gcommaaccent" unicode="&#x122;" horiz-adv-x="760" 
d="M425 -157h-57c-30 8 -48 26 -48 59c0 35 30 62 80 62c59 0 94 -39 94 -94c0 -65 -45 -116 -167 -116v43c64 0 96 19 98 46zM36 337c0 231 169 375 368 375c99 0 184 -28 236 -72v-161h-84c-27 103 -71 164 -155 164c-125 0 -175 -134 -175 -277c0 -175 52 -303 190 -303
c34 0 52 4 77 17v131c0 53 -17 65 -81 67v64h324v-64c-66 -2 -80 -14 -80 -67v-148c-63 -46 -159 -72 -264 -72c-232 0 -356 145 -356 346z" />
    <glyph glyph-name="Gdotaccent" unicode="&#x120;" horiz-adv-x="760" 
d="M401 748c-58 0 -95 41 -95 89s37 90 95 90s95 -42 95 -90s-37 -89 -95 -89zM36 337c0 231 169 375 368 375c99 0 184 -28 236 -72v-161h-84c-27 103 -71 164 -155 164c-125 0 -175 -134 -175 -277c0 -175 52 -303 190 -303c34 0 52 4 77 17v131c0 53 -17 65 -81 67v64
h324v-64c-66 -2 -80 -14 -80 -67v-148c-63 -46 -159 -72 -264 -72c-232 0 -356 145 -356 346z" />
    <glyph glyph-name="Hbar" unicode="&#x126;" horiz-adv-x="874" 
d="M39 457v65h84v48c0 55 -17 66 -84 69v63h345v-63c-66 -3 -83 -14 -83 -69v-48h272v48c0 55 -18 66 -83 69v63h344v-63c-67 -3 -83 -14 -83 -69v-48h83v-65h-83v-325c0 -55 16 -66 83 -69v-63h-344v63c65 3 83 14 83 69v161h-272v-161c0 -55 17 -66 83 -69v-63h-345v63
c67 3 84 14 84 69v325h-84zM301 361h272v96h-272v-96z" />
    <glyph glyph-name="Hcircumflex" unicode="&#x124;" horiz-adv-x="858" 
d="M565 132v195h-272v-195c0 -55 18 -66 83 -69v-63h-344v63c67 3 83 14 83 69v438c0 55 -16 66 -83 69v63h344v-63c-65 -3 -83 -14 -83 -69v-175h272v175c0 55 -17 66 -83 69v63h345v-63c-67 -3 -84 -14 -84 -69v-438c0 -55 17 -66 84 -69v-63h-345v63c66 3 83 14 83 69z
M490 918l141 -167h-86l-116 82l-116 -82h-86l141 167h122z" />
    <glyph glyph-name="Ibreve" unicode="&#x12c;" horiz-adv-x="408" 
d="M376 0h-344v63c67 3 83 14 83 69v438c0 55 -16 66 -83 69v63h344v-63c-67 -3 -83 -14 -83 -69v-438c0 -55 16 -66 83 -69v-63zM204 748c-99 0 -158 63 -158 168h64c8 -63 54 -81 94 -81s86 18 94 81h64c0 -105 -59 -168 -158 -168z" />
    <glyph glyph-name="Idotaccent" unicode="&#x130;" horiz-adv-x="408" 
d="M376 0h-344v63c67 3 83 14 83 69v438c0 55 -16 66 -83 69v63h344v-63c-67 -3 -83 -14 -83 -69v-438c0 -55 16 -66 83 -69v-63zM205 748c-58 0 -95 41 -95 89s37 90 95 90s95 -42 95 -90s-37 -89 -95 -89z" />
    <glyph glyph-name="Imacron" unicode="&#x12a;" horiz-adv-x="408" 
d="M376 0h-344v63c67 3 83 14 83 69v438c0 55 -16 66 -83 69v63h344v-63c-67 -3 -83 -14 -83 -69v-438c0 -55 16 -66 83 -69v-63zM49 763v97h310v-97h-310z" />
    <glyph glyph-name="Iogonek" unicode="&#x12e;" horiz-adv-x="408" 
d="M376 0h-118c-46 -27 -72 -60 -72 -96c0 -23 13 -41 45 -41c22 0 44 4 74 23l18 -26c-42 -47 -86 -75 -142 -75c-52 0 -95 31 -95 84c0 58 43 100 99 131h-153v63c67 3 83 14 83 69v438c0 55 -16 66 -83 69v63h344v-63c-67 -3 -83 -14 -83 -69v-438c0 -55 16 -66 83 -69
v-63z" />
    <glyph glyph-name="Itilde" unicode="&#x128;" horiz-adv-x="408" 
d="M376 0h-344v63c67 3 83 14 83 69v438c0 55 -16 66 -83 69v63h344v-63c-67 -3 -83 -14 -83 -69v-438c0 -55 16 -66 83 -69v-63zM346 899l55 -12c-52 -120 -80 -143 -136 -143c-57 0 -100 62 -138 62c-30 0 -46 -24 -65 -56l-56 12c53 120 80 143 137 143
c64 0 99 -63 138 -63c29 0 45 24 65 57z" />
    <glyph glyph-name="IJ" unicode="&#x132;" horiz-adv-x="1002" 
d="M376 0h-344v63c67 3 83 14 83 69v438c0 55 -16 66 -83 69v63h344v-63c-67 -3 -83 -14 -83 -69v-438c0 -55 16 -66 83 -69v-63zM900 570v-349c0 -160 -94 -231 -255 -231c-144 0 -229 53 -229 146c0 42 20 68 46 85h122v-49c0 -68 15 -118 67 -118c56 0 70 50 70 137v379
c0 55 -16 66 -82 69v63h346v-63c-67 -3 -85 -14 -85 -69z" />
    <glyph glyph-name="Jcircumflex" unicode="&#x134;" horiz-adv-x="594" 
d="M492 570v-349c0 -160 -94 -231 -255 -231c-144 0 -229 53 -229 146c0 42 20 68 46 85h122v-49c0 -68 15 -118 67 -118c56 0 70 50 70 137v379c0 55 -16 66 -82 69v63h346v-63c-67 -3 -85 -14 -85 -69zM453 918l141 -167h-86l-116 82l-116 -82h-86l141 167h122z" />
    <glyph glyph-name="Kcommaaccent" unicode="&#x136;" horiz-adv-x="775" 
d="M428 -157h-57c-30 8 -48 26 -48 59c0 35 30 62 80 62c59 0 94 -39 94 -94c0 -65 -45 -116 -167 -116v43c64 0 96 19 98 46zM472 418l192 -282c40 -59 64 -73 107 -74v-62h-208c-31 20 -55 48 -90 101l-170 256l217 208c17 16 28 27 28 44c0 16 -11 29 -65 30v63h262v-63
c-43 -1 -59 -13 -87 -40zM115 132v438c0 55 -16 66 -83 69v63h344v-63c-65 -3 -81 -14 -81 -69v-438c0 -55 16 -66 81 -69v-63h-344v63c67 3 83 14 83 69z" />
    <glyph glyph-name="Lacute" unicode="&#x139;" horiz-adv-x="652" 
d="M245 909h172l-156 -156h-89zM295 570v-436c0 -54 22 -67 80 -67h31c68 0 85 30 162 165h72l-37 -232h-571v63c67 3 83 14 83 69v438c0 54 -16 65 -83 68v64h344v-64c-65 -3 -81 -14 -81 -68z" />
    <glyph glyph-name="Lcaron" unicode="&#x13d;" horiz-adv-x="652" 
d="M604 706l-91 -205h-68l15 205h144zM295 570v-436c0 -54 22 -67 80 -67h31c68 0 85 30 162 165h72l-37 -232h-571v63c67 3 83 14 83 69v438c0 54 -16 65 -83 68v64h344v-64c-65 -3 -81 -14 -81 -68z" />
    <glyph glyph-name="Lcommaaccent" unicode="&#x13b;" horiz-adv-x="652" 
d="M358 -157h-57c-30 8 -48 26 -48 59c0 35 30 62 80 62c59 0 94 -39 94 -94c0 -65 -45 -116 -167 -116v43c64 0 96 19 98 46zM295 570v-436c0 -54 22 -67 80 -67h31c68 0 85 30 162 165h72l-37 -232h-571v63c67 3 83 14 83 69v438c0 54 -16 65 -83 68v64h344v-64
c-65 -3 -81 -14 -81 -68z" />
    <glyph glyph-name="Ldot" unicode="&#x13f;" horiz-adv-x="652" 
d="M295 570v-436c0 -54 22 -67 80 -67h31c68 0 85 30 162 165h72l-37 -232h-571v63c67 3 83 14 83 69v438c0 54 -16 65 -83 68v64h344v-64c-65 -3 -81 -14 -81 -68zM544 316c-59 0 -96 41 -96 89s37 89 96 89c58 0 94 -41 94 -89s-36 -89 -94 -89z" />
    <glyph glyph-name="Nacute" unicode="&#x143;" horiz-adv-x="784" 
d="M419 909h172l-156 -156h-89zM115 132v455c-31 42 -46 49 -83 52v63h251l315 -409v277c0 55 -26 66 -91 69v63h257v-63c-66 -3 -83 -14 -83 -69v-570h-73l-409 513v-381c0 -55 24 -66 91 -69v-63h-258v63c67 3 83 14 83 69z" />
    <glyph glyph-name="Ncaron" unicode="&#x147;" horiz-adv-x="784" 
d="M599 921l-141 -167h-122l-141 167h86l116 -82l116 82h86zM115 132v455c-31 42 -46 49 -83 52v63h251l315 -409v277c0 55 -26 66 -91 69v63h257v-63c-66 -3 -83 -14 -83 -69v-570h-73l-409 513v-381c0 -55 24 -66 91 -69v-63h-258v63c67 3 83 14 83 69z" />
    <glyph glyph-name="Ncommaaccent" unicode="&#x145;" horiz-adv-x="784" 
d="M416 -157h-57c-30 8 -48 26 -48 59c0 35 30 62 80 62c59 0 94 -39 94 -94c0 -65 -45 -116 -167 -116v43c64 0 96 19 98 46zM115 132v455c-31 42 -46 49 -83 52v63h251l315 -409v277c0 55 -26 66 -91 69v63h257v-63c-66 -3 -83 -14 -83 -69v-570h-73l-409 513v-381
c0 -55 24 -66 91 -69v-63h-258v63c67 3 83 14 83 69z" />
    <glyph glyph-name="Eng" unicode="&#x14a;" horiz-adv-x="784" 
d="M537 84l-338 429v-381c0 -55 24 -66 91 -69v-63h-258v63c67 3 83 14 83 69v455c-31 42 -46 49 -83 52v63h251l315 -409v277c0 55 -26 66 -91 69v63h257v-63c-66 -3 -83 -14 -83 -69v-447c0 -107 -23 -159 -62 -208c-46 -56 -91 -93 -147 -124l-33 32l38 57
c38 54 60 113 60 204z" />
    <glyph glyph-name="Obreve" unicode="&#x14e;" horiz-adv-x="762" 
d="M388 748c-99 0 -158 63 -158 168h64c8 -63 54 -81 94 -81s86 18 94 81h64c0 -105 -59 -168 -158 -168zM393 60c102 0 144 123 144 278c0 176 -52 304 -168 304c-102 0 -144 -123 -144 -278c0 -176 52 -304 168 -304zM389 712c217 0 338 -161 338 -347
c0 -230 -153 -375 -354 -375c-217 0 -337 161 -337 347c0 230 153 375 353 375z" />
    <glyph glyph-name="Ohungarumlaut" unicode="&#x150;" horiz-adv-x="762" 
d="M393 60c102 0 144 123 144 278c0 176 -52 304 -168 304c-102 0 -144 -123 -144 -278c0 -176 52 -304 168 -304zM389 712c217 0 338 -161 338 -347c0 -230 -153 -375 -354 -375c-217 0 -337 161 -337 347c0 230 153 375 353 375zM318 909h147l-136 -156h-78zM504 909h147
l-136 -156h-78z" />
    <glyph glyph-name="Omacron" unicode="&#x14c;" horiz-adv-x="762" 
d="M233 763v97h310v-97h-310zM393 60c102 0 144 123 144 278c0 176 -52 304 -168 304c-102 0 -144 -123 -144 -278c0 -176 52 -304 168 -304zM389 712c217 0 338 -161 338 -347c0 -230 -153 -375 -354 -375c-217 0 -337 161 -337 347c0 230 153 375 353 375z" />
    <glyph glyph-name="Oslashacute" unicode="&#x1fe;" horiz-adv-x="767" 
d="M645 728l-47 -80c85 -64 131 -169 131 -283c0 -230 -153 -375 -353 -375c-56 0 -105 10 -147 29l-50 -85l-57 30l51 87c-88 63 -135 170 -135 286c0 230 153 375 353 375c57 0 108 -11 152 -31l45 77zM224 364c0 -74 8 -136 25 -184l237 405c-27 37 -66 57 -114 57
c-102 0 -148 -123 -148 -278zM395 60c102 0 148 123 148 278c0 70 -8 130 -23 177l-236 -402c27 -35 64 -53 111 -53zM405 909h172l-156 -156h-89z" />
    <glyph glyph-name="Racute" unicode="&#x154;" horiz-adv-x="750" 
d="M323 635h-31v-279h30c109 0 158 46 158 143c0 88 -56 136 -157 136zM32 702h354c186 0 272 -79 272 -203c0 -93 -68 -157 -150 -177l125 -187c35 -55 60 -71 111 -72v-63h-212c-30 25 -55 56 -84 106l-112 186h-44v-160c0 -55 15 -66 81 -69v-63h-341v63
c67 3 83 14 83 69v438c0 55 -16 66 -83 67v65zM386 909h172l-156 -156h-89z" />
    <glyph glyph-name="Rcaron" unicode="&#x158;" horiz-adv-x="750" 
d="M567 921l-141 -167h-122l-141 167h86l116 -82l116 82h86zM323 635h-31v-279h30c109 0 158 46 158 143c0 88 -56 136 -157 136zM32 702h354c186 0 272 -79 272 -203c0 -93 -68 -157 -150 -177l125 -187c35 -55 60 -71 111 -72v-63h-212c-30 25 -55 56 -84 106l-112 186
h-44v-160c0 -55 15 -66 81 -69v-63h-341v63c67 3 83 14 83 69v438c0 55 -16 66 -83 67v65z" />
    <glyph glyph-name="Rcommaaccent" unicode="&#x156;" horiz-adv-x="750" 
d="M402 -157h-57c-30 8 -48 26 -48 59c0 35 30 62 80 62c59 0 94 -39 94 -94c0 -65 -45 -116 -167 -116v43c64 0 96 19 98 46zM323 635h-31v-279h30c109 0 158 46 158 143c0 88 -56 136 -157 136zM32 702h354c186 0 272 -79 272 -203c0 -93 -68 -157 -150 -177l125 -187
c35 -55 60 -71 111 -72v-63h-212c-30 25 -55 56 -84 106l-112 186h-44v-160c0 -55 15 -66 81 -69v-63h-341v63c67 3 83 14 83 69v438c0 55 -16 66 -83 67v65z" />
    <glyph glyph-name="Sacute" unicode="&#x15a;" horiz-adv-x="602" 
d="M289 -10c-100 0 -188 30 -237 67l-10 167h87c29 -112 79 -169 173 -169c68 0 115 32 115 96c0 54 -33 80 -145 112c-152 43 -223 101 -223 227c0 138 102 222 251 222c94 0 171 -25 221 -61v-153h-75c-27 85 -64 150 -158 150c-68 0 -103 -40 -103 -88
c0 -62 36 -85 144 -115c149 -41 231 -98 231 -234c0 -151 -121 -221 -271 -221zM328 909h172l-156 -156h-89z" />
    <glyph glyph-name="Scedilla" unicode="&#x15e;" horiz-adv-x="602" 
d="M198 -231l-10 46c72 0 115 13 115 41c0 26 -37 35 -86 37l40 98c-87 6 -162 33 -205 66l-10 167h87c29 -112 79 -169 173 -169c68 0 115 32 115 96c0 54 -33 80 -145 112c-152 43 -223 101 -223 227c0 138 102 222 251 222c94 0 171 -25 221 -61v-153h-75
c-27 85 -64 150 -158 150c-68 0 -103 -40 -103 -88c0 -62 36 -85 144 -115c149 -41 231 -98 231 -234c0 -146 -114 -216 -257 -221l-12 -35c60 -5 99 -27 99 -77c0 -73 -92 -109 -192 -109z" />
    <glyph glyph-name="Scircumflex" unicode="&#x15c;" horiz-adv-x="602" 
d="M289 -10c-100 0 -188 30 -237 67l-10 167h87c29 -112 79 -169 173 -169c68 0 115 32 115 96c0 54 -33 80 -145 112c-152 43 -223 101 -223 227c0 138 102 222 251 222c94 0 171 -25 221 -61v-153h-75c-27 85 -64 150 -158 150c-68 0 -103 -40 -103 -88
c0 -62 36 -85 144 -115c149 -41 231 -98 231 -234c0 -151 -121 -221 -271 -221zM367 918l141 -167h-86l-116 82l-116 -82h-86l141 167h122z" />
    <glyph glyph-name="Scommaaccent" unicode="&#x218;" horiz-adv-x="602" 
d="M326 -157h-57c-30 8 -48 26 -48 59c0 35 30 62 80 62c59 0 94 -39 94 -94c0 -65 -45 -116 -167 -116v43c64 0 96 19 98 46zM289 -10c-100 0 -188 30 -237 67l-10 167h87c29 -112 79 -169 173 -169c68 0 115 32 115 96c0 54 -33 80 -145 112c-152 43 -223 101 -223 227
c0 138 102 222 251 222c94 0 171 -25 221 -61v-153h-75c-27 85 -64 150 -158 150c-68 0 -103 -40 -103 -88c0 -62 36 -85 144 -115c149 -41 231 -98 231 -234c0 -151 -121 -221 -271 -221z" />
    <glyph glyph-name="Tbar" unicode="&#x166;" horiz-adv-x="704" 
d="M30 702h644l15 -231h-70c-48 117 -67 168 -148 168h-31v-240h105v-65h-105v-202c0 -55 22 -66 88 -69v-63h-354v63c67 3 90 14 90 69v202h-106v65h106v240h-32c-81 0 -100 -51 -148 -168h-69z" />
    <glyph glyph-name="Tcaron" unicode="&#x164;" horiz-adv-x="704" 
d="M554 921l-141 -167h-122l-141 167h86l116 -82l116 82h86zM30 702h644l15 -231h-70c-48 117 -67 168 -148 168h-31v-507c0 -55 22 -66 88 -69v-63h-354v63c67 3 90 14 90 69v507h-32c-81 0 -100 -51 -148 -168h-69z" />
    <glyph glyph-name="Ubreve" unicode="&#x16c;" horiz-adv-x="773" 
d="M419 748c-99 0 -158 63 -158 168h64c8 -63 54 -81 94 -81s86 18 94 81h64c0 -105 -59 -168 -158 -168zM280 570v-306c0 -109 37 -177 141 -177c98 0 164 41 164 185v298c0 55 -24 66 -90 69v63h261v-63c-66 -3 -84 -14 -84 -69v-325c0 -174 -123 -255 -274 -255
c-188 0 -298 84 -298 256v324c0 55 -16 66 -82 69v63h343v-63c-65 -3 -81 -14 -81 -69z" />
    <glyph glyph-name="Uhungarumlaut" unicode="&#x170;" horiz-adv-x="773" 
d="M280 570v-306c0 -109 37 -177 141 -177c98 0 164 41 164 185v298c0 55 -24 66 -90 69v63h261v-63c-66 -3 -84 -14 -84 -69v-325c0 -174 -123 -255 -274 -255c-188 0 -298 84 -298 256v324c0 55 -16 66 -82 69v63h343v-63c-65 -3 -81 -14 -81 -69zM350 909h147l-136 -156
h-78zM536 909h147l-136 -156h-78z" />
    <glyph glyph-name="Umacron" unicode="&#x16a;" horiz-adv-x="773" 
d="M264 763v97h310v-97h-310zM280 570v-306c0 -109 37 -177 141 -177c98 0 164 41 164 185v298c0 55 -24 66 -90 69v63h261v-63c-66 -3 -84 -14 -84 -69v-325c0 -174 -123 -255 -274 -255c-188 0 -298 84 -298 256v324c0 55 -16 66 -82 69v63h343v-63
c-65 -3 -81 -14 -81 -69z" />
    <glyph glyph-name="Uogonek" unicode="&#x172;" horiz-adv-x="773" 
d="M280 570v-306c0 -109 37 -177 141 -177c98 0 164 41 164 185v298c0 55 -24 66 -90 69v63h261v-63c-66 -3 -84 -14 -84 -69v-325c0 -125 -63 -202 -154 -235c-55 -29 -88 -66 -88 -105c0 -23 13 -41 45 -41c22 0 44 4 74 23l18 -26c-42 -47 -86 -75 -142 -75
c-52 0 -95 31 -95 84c0 52 34 90 81 120h-13c-188 0 -298 84 -298 256v324c0 55 -16 66 -82 69v63h343v-63c-65 -3 -81 -14 -81 -69z" />
    <glyph glyph-name="Uring" unicode="&#x16e;" horiz-adv-x="773" 
d="M280 570v-306c0 -109 37 -177 141 -177c98 0 164 41 164 185v298c0 55 -24 66 -90 69v63h261v-63c-66 -3 -84 -14 -84 -69v-325c0 -174 -123 -255 -274 -255c-188 0 -298 84 -298 256v324c0 55 -16 66 -82 69v63h343v-63c-65 -3 -81 -14 -81 -69zM310 839
c0 56 45 99 109 99s109 -43 109 -99s-45 -99 -109 -99s-109 43 -109 99zM466 839c0 26 -16 46 -47 46s-47 -20 -47 -46s16 -46 47 -46s47 20 47 46z" />
    <glyph glyph-name="Utilde" unicode="&#x168;" horiz-adv-x="773" 
d="M561 899l55 -12c-52 -120 -80 -143 -136 -143c-57 0 -100 62 -138 62c-30 0 -46 -24 -65 -56l-56 12c53 120 80 143 137 143c64 0 99 -63 138 -63c29 0 45 24 65 57zM280 570v-306c0 -109 37 -177 141 -177c98 0 164 41 164 185v298c0 55 -24 66 -90 69v63h261v-63
c-66 -3 -84 -14 -84 -69v-325c0 -174 -123 -255 -274 -255c-188 0 -298 84 -298 256v324c0 55 -16 66 -82 69v63h343v-63c-65 -3 -81 -14 -81 -69z" />
    <glyph glyph-name="Wacute" unicode="&#x1e82;" horiz-adv-x="1017" 
d="M563 909h172l-156 -156h-89zM739 252l104 289c9 26 15 43 15 54c0 29 -13 41 -74 44v63h226v-63c-27 -5 -48 -9 -59 -37l-226 -607h-66l-141 394l-146 -394h-64l-244 607c-11 25 -30 32 -57 37v63h323v-63c-48 -4 -66 -15 -66 -44c0 -11 5 -26 13 -48l114 -301l90 246
l-37 110c-9 24 -25 32 -52 37v63h314v-63c-62 -3 -74 -14 -74 -44c0 -11 2 -26 13 -57z" />
    <glyph glyph-name="Wcircumflex" unicode="&#x174;" horiz-adv-x="1017" 
d="M739 252l104 289c9 26 15 43 15 54c0 29 -13 41 -74 44v63h226v-63c-27 -5 -48 -9 -59 -37l-226 -607h-66l-141 394l-146 -394h-64l-244 607c-11 25 -30 32 -57 37v63h323v-63c-48 -4 -66 -15 -66 -44c0 -11 5 -26 13 -48l114 -301l90 246l-37 110c-9 24 -25 32 -52 37
v63h314v-63c-62 -3 -74 -14 -74 -44c0 -11 2 -26 13 -57zM603 918l141 -167h-86l-116 82l-116 -82h-86l141 167h122z" />
    <glyph glyph-name="Wgrave" unicode="&#x1e80;" horiz-adv-x="1017" 
d="M355 909h172l73 -156h-89zM739 252l104 289c9 26 15 43 15 54c0 29 -13 41 -74 44v63h226v-63c-27 -5 -48 -9 -59 -37l-226 -607h-66l-141 394l-146 -394h-64l-244 607c-11 25 -30 32 -57 37v63h323v-63c-48 -4 -66 -15 -66 -44c0 -11 5 -26 13 -48l114 -301l90 246
l-37 110c-9 24 -25 32 -52 37v63h314v-63c-62 -3 -74 -14 -74 -44c0 -11 2 -26 13 -57z" />
    <glyph glyph-name="Wdieresis" unicode="&#x1e84;" horiz-adv-x="1017" 
d="M350 831c0 45 37 83 83 83s84 -38 84 -83s-38 -83 -84 -83s-83 38 -83 83zM566 831c0 45 38 83 82 83c48 0 85 -38 85 -83s-37 -83 -85 -83c-44 0 -82 38 -82 83zM739 252l104 289c9 26 15 43 15 54c0 29 -13 41 -74 44v63h226v-63c-27 -5 -48 -9 -59 -37l-226 -607h-66
l-141 394l-146 -394h-64l-244 607c-11 25 -30 32 -57 37v63h323v-63c-48 -4 -66 -15 -66 -44c0 -11 5 -26 13 -48l114 -301l90 246l-37 110c-9 24 -25 32 -52 37v63h314v-63c-62 -3 -74 -14 -74 -44c0 -11 2 -26 13 -57z" />
    <glyph glyph-name="Ycircumflex" unicode="&#x176;" horiz-adv-x="701" 
d="M400 341l115 201c14 25 23 43 23 58c0 27 -21 37 -72 39v63h229v-63c-28 -5 -44 -11 -59 -37l-195 -341v-129c0 -55 21 -66 88 -69v-63h-352v63c66 3 88 14 88 69v130l-201 340c-15 26 -29 32 -57 37v63h329v-63c-55 -2 -70 -12 -70 -39c0 -17 9 -33 22 -58zM440 918
l141 -167h-86l-116 82l-116 -82h-86l141 167h122z" />
    <glyph glyph-name="Ygrave" unicode="&#x1ef2;" horiz-adv-x="701" 
d="M400 341l115 201c14 25 23 43 23 58c0 27 -21 37 -72 39v63h229v-63c-28 -5 -44 -11 -59 -37l-195 -341v-129c0 -55 21 -66 88 -69v-63h-352v63c66 3 88 14 88 69v130l-201 340c-15 26 -29 32 -57 37v63h329v-63c-55 -2 -70 -12 -70 -39c0 -17 9 -33 22 -58zM192 909h172
l73 -156h-89z" />
    <glyph glyph-name="Zacute" unicode="&#x179;" horiz-adv-x="643" 
d="M237 67h150c75 0 97 25 169 160h67l-34 -227h-566v43l372 591h-141c-81 0 -93 -48 -135 -137h-63v205h550v-44zM357 909h172l-156 -156h-89z" />
    <glyph glyph-name="Zdotaccent" unicode="&#x17b;" horiz-adv-x="643" 
d="M336 748c-58 0 -95 41 -95 89s37 90 95 90s95 -42 95 -90s-37 -89 -95 -89zM237 67h150c75 0 97 25 169 160h67l-34 -227h-566v43l372 591h-141c-81 0 -93 -48 -135 -137h-63v205h550v-44z" />
    <glyph glyph-name="abreve" unicode="&#x103;" horiz-adv-x="580" 
d="M267 94c25 0 41 6 61 19v168l-76 -30c-35 -14 -51 -37 -51 -76c0 -50 24 -81 66 -81zM495 348c0 -10 -1 -193 -1 -206c0 -32 6 -55 33 -55c8 0 29 2 43 6l8 -45c-34 -33 -85 -58 -137 -58c-57 0 -93 37 -110 91c-32 -43 -81 -88 -160 -88c-86 0 -140 55 -140 140
c0 89 66 122 136 146l161 56v59c0 74 -17 104 -65 104c-39 0 -57 -26 -57 -65c0 -22 2 -42 8 -65l-111 -17c-26 11 -38 36 -38 67c0 94 90 138 215 138c138 0 215 -48 215 -208zM281 601c-98 0 -155 63 -155 170h64c8 -64 51 -83 91 -83c41 0 84 19 92 83h64
c0 -107 -57 -170 -156 -170z" />
    <glyph glyph-name="amacron" unicode="&#x101;" horiz-adv-x="580" 
d="M267 94c25 0 41 6 61 19v168l-76 -30c-35 -14 -51 -37 -51 -76c0 -50 24 -81 66 -81zM495 348c0 -10 -1 -193 -1 -206c0 -32 6 -55 33 -55c8 0 29 2 43 6l8 -45c-34 -33 -85 -58 -137 -58c-57 0 -93 37 -110 91c-32 -43 -81 -88 -160 -88c-86 0 -140 55 -140 140
c0 89 66 122 136 146l161 56v59c0 74 -17 104 -65 104c-39 0 -57 -26 -57 -65c0 -22 2 -42 8 -65l-111 -17c-26 11 -38 36 -38 67c0 94 90 138 215 138c138 0 215 -48 215 -208zM137 625v93h298v-93h-298z" />
    <glyph glyph-name="aogonek" unicode="&#x105;" horiz-adv-x="580" 
d="M495 348c0 -10 -1 -193 -1 -206c0 -32 6 -55 33 -55c8 0 29 2 43 6l8 -45c-74 -44 -156 -78 -156 -144c0 -23 13 -41 44 -41c22 0 45 4 74 23l18 -26c-42 -47 -85 -75 -142 -75c-52 0 -95 31 -95 84c0 55 38 95 90 126c-40 10 -67 42 -80 86c-32 -43 -81 -88 -160 -88
c-86 0 -140 55 -140 140c0 89 66 122 136 146l161 56v59c0 74 -17 104 -65 104c-39 0 -57 -26 -57 -65c0 -22 2 -42 8 -65l-111 -17c-26 11 -38 36 -38 67c0 94 90 138 215 138c138 0 215 -48 215 -208zM267 94c25 0 41 6 61 19v168l-76 -30c-35 -14 -51 -37 -51 -76
c0 -50 24 -81 66 -81z" />
    <glyph glyph-name="aringacute" unicode="&#x1fb;" horiz-adv-x="580" 
d="M169 667c0 53 48 88 115 88s114 -35 114 -88c0 -54 -47 -88 -114 -88s-115 34 -115 88zM336 667c0 26 -20 40 -52 40s-53 -14 -53 -40c0 -27 21 -41 53 -41s52 14 52 41zM292 898h171l-136 -116h-81zM267 94c25 0 41 6 61 19v168l-76 -30c-35 -14 -51 -37 -51 -76
c0 -50 24 -81 66 -81zM495 348c0 -10 -1 -193 -1 -206c0 -32 6 -55 33 -55c8 0 29 2 43 6l8 -45c-34 -33 -85 -58 -137 -58c-57 0 -93 37 -110 91c-32 -43 -81 -88 -160 -88c-86 0 -140 55 -140 140c0 89 66 122 136 146l161 56v59c0 74 -17 104 -65 104
c-39 0 -57 -26 -57 -65c0 -22 2 -42 8 -65l-111 -17c-26 11 -38 36 -38 67c0 94 90 138 215 138c138 0 215 -48 215 -208z" />
    <glyph glyph-name="aeacute" unicode="&#x1fd;" horiz-adv-x="852" 
d="M600 556c142 0 216 -102 216 -228v-37h-333c0 -105 65 -171 158 -171c66 0 112 26 147 71l30 -19c-26 -109 -106 -182 -231 -182c-94 0 -169 41 -212 111c-51 -75 -122 -108 -194 -108c-92 0 -150 61 -150 140c0 89 66 125 142 146l169 47l5 21c-3 99 -26 151 -84 151
c-39 0 -57 -26 -57 -65c0 -22 2 -42 8 -65l-111 -17c-26 11 -38 36 -38 67c0 94 90 138 204 138c85 0 133 -22 162 -64c45 41 104 64 169 64zM583 491c-61 0 -91 -66 -98 -143h184c-1 85 -28 143 -86 143zM461 765h170l-154 -162h-85zM336 255v15l-82 -23
c-36 -11 -53 -39 -53 -80s24 -73 66 -73c33 0 67 12 95 33c-17 37 -26 79 -26 128z" />
    <glyph glyph-name="cacute" unicode="&#x107;" horiz-adv-x="535" 
d="M319 765h170l-154 -162h-85zM187 323c0 -122 52 -205 153 -205c58 0 105 28 140 75l31 -21c-34 -126 -116 -182 -231 -182c-143 0 -246 103 -246 263c0 172 110 303 280 303c103 0 190 -49 190 -141c0 -40 -18 -65 -42 -75h-88v49c0 58 -17 100 -73 100
c-62 0 -114 -61 -114 -166z" />
    <glyph glyph-name="ccaron" unicode="&#x10d;" horiz-adv-x="535" 
d="M498 774l-139 -170h-122l-139 170h86l114 -85l114 85h86zM187 323c0 -122 52 -205 153 -205c58 0 105 28 140 75l31 -21c-34 -126 -116 -182 -231 -182c-143 0 -246 103 -246 263c0 172 110 303 280 303c103 0 190 -49 190 -141c0 -40 -18 -65 -42 -75h-88v49
c0 58 -17 100 -73 100c-62 0 -114 -61 -114 -166z" />
    <glyph glyph-name="ccircumflex" unicode="&#x109;" horiz-adv-x="535" 
d="M359 766l139 -170h-86l-114 85l-114 -85h-86l139 170h122zM187 323c0 -122 52 -205 153 -205c58 0 105 28 140 75l31 -21c-34 -126 -116 -182 -231 -182c-143 0 -246 103 -246 263c0 172 110 303 280 303c103 0 190 -49 190 -141c0 -40 -18 -65 -42 -75h-88v49
c0 58 -17 100 -73 100c-62 0 -114 -61 -114 -166z" />
    <glyph glyph-name="cdotaccent" unicode="&#x10b;" horiz-adv-x="535" 
d="M187 323c0 -122 52 -205 153 -205c58 0 105 28 140 75l31 -21c-34 -126 -116 -182 -231 -182c-143 0 -246 103 -246 263c0 172 110 303 280 303c103 0 190 -49 190 -141c0 -40 -18 -65 -42 -75h-88v49c0 58 -17 100 -73 100c-62 0 -114 -61 -114 -166zM299 601
c-59 0 -96 41 -96 89s37 89 96 89c58 0 94 -41 94 -89s-36 -89 -94 -89z" />
    <glyph glyph-name="dcaron" unicode="&#x10f;" horiz-adv-x="680" 
d="M801 765l-91 -205h-68l15 205h144zM407 -10v96c-33 -57 -83 -96 -166 -96c-123 0 -207 96 -207 255c0 194 119 305 276 305c42 0 78 -11 97 -30v112l-59 54v34l197 41h31v-623c0 -34 8 -51 41 -53h25v-62l-202 -33h-33zM325 488c-76 0 -119 -79 -119 -193
c0 -120 47 -199 130 -199c26 0 51 8 71 20v265c0 72 -24 107 -82 107z" />
    <glyph glyph-name="dcroat" unicode="&#x111;" horiz-adv-x="670" 
d="M642 578h-66v-440c0 -34 8 -51 41 -53h25v-62l-202 -33h-33v96c-33 -57 -83 -96 -166 -96c-123 0 -207 96 -207 255c0 194 127 287 262 287c51 0 94 -17 111 -38v84h-123v49h123v56h-59v43l197 35h31v-134h66v-49zM325 470c-76 0 -119 -61 -119 -175
c0 -120 47 -199 130 -199c26 0 51 8 71 20v247c0 72 -24 107 -82 107z" />
    <glyph glyph-name="ebreve" unicode="&#x115;" horiz-adv-x="553" 
d="M301 556c142 0 216 -102 216 -228v-37h-333c0 -105 65 -171 158 -171c66 0 112 26 147 71l30 -19c-26 -109 -106 -182 -231 -182c-148 0 -254 104 -254 265c0 182 119 301 267 301zM284 491c-61 0 -91 -66 -98 -143h184c-1 85 -28 143 -86 143zM293 601
c-98 0 -155 63 -155 170h64c8 -64 51 -83 91 -83c41 0 84 19 92 83h64c0 -107 -57 -170 -156 -170z" />
    <glyph glyph-name="ecaron" unicode="&#x11b;" horiz-adv-x="553" 
d="M493 774l-139 -170h-122l-139 170h86l114 -85l114 85h86zM301 556c142 0 216 -102 216 -228v-37h-333c0 -105 65 -171 158 -171c66 0 112 26 147 71l30 -19c-26 -109 -106 -182 -231 -182c-148 0 -254 104 -254 265c0 182 119 301 267 301zM284 491
c-61 0 -91 -66 -98 -143h184c-1 85 -28 143 -86 143z" />
    <glyph glyph-name="edotaccent" unicode="&#x117;" horiz-adv-x="553" 
d="M301 556c142 0 216 -102 216 -228v-37h-333c0 -105 65 -171 158 -171c66 0 112 26 147 71l30 -19c-26 -109 -106 -182 -231 -182c-148 0 -254 104 -254 265c0 182 119 301 267 301zM284 491c-61 0 -91 -66 -98 -143h184c-1 85 -28 143 -86 143zM293 601
c-59 0 -96 41 -96 89s37 89 96 89c58 0 94 -41 94 -89s-36 -89 -94 -89z" />
    <glyph glyph-name="emacron" unicode="&#x113;" horiz-adv-x="553" 
d="M301 556c142 0 216 -102 216 -228v-37h-333c0 -105 65 -171 158 -171c66 0 112 26 147 71l30 -19c-26 -109 -106 -182 -231 -182c-148 0 -254 104 -254 265c0 182 119 301 267 301zM284 491c-61 0 -91 -66 -98 -143h184c-1 85 -28 143 -86 143zM144 625v93h298v-93h-298z
" />
    <glyph glyph-name="eogonek" unicode="&#x119;" horiz-adv-x="553" 
d="M301 556c142 0 216 -102 216 -228v-37h-333c0 -105 65 -171 158 -171c66 0 112 26 147 71l30 -19c-18 -76 -63 -135 -131 -163c-52 -29 -83 -66 -83 -105c0 -23 13 -41 44 -41c23 0 45 4 75 23l17 -26c-41 -47 -85 -75 -142 -75c-51 0 -94 31 -94 84c0 51 33 91 79 121
c-146 2 -250 105 -250 265c0 182 119 301 267 301zM284 491c-61 0 -91 -66 -98 -143h184c-1 85 -28 143 -86 143z" />
    <glyph glyph-name="gbreve" unicode="&#x11f;" horiz-adv-x="586" 
d="M280 195c-35 0 -72 4 -105 15c-20 -22 -29 -35 -29 -52c0 -16 9 -23 27 -23h238c113 0 169 -54 169 -143c0 -125 -123 -199 -306 -199c-158 0 -254 39 -254 118c0 51 49 77 90 87c-41 15 -70 46 -70 98s37 89 104 127c-55 26 -95 72 -95 144c0 118 101 189 238 189
c40 0 73 -6 99 -14l184 8v-87h-42l-83 18v-6c43 -21 69 -55 69 -105c0 -110 -99 -175 -234 -175zM391 -24h-255c-8 -9 -11 -22 -11 -37c0 -60 61 -88 155 -88s169 22 169 83c0 31 -23 42 -58 42zM300 601c-98 0 -155 63 -155 170h64c8 -64 51 -83 91 -83c41 0 84 19 92 83
h64c0 -107 -57 -170 -156 -170zM287 249c46 0 64 43 64 112c0 79 -26 140 -77 140c-47 0 -64 -44 -64 -112c0 -77 25 -140 77 -140z" />
    <glyph glyph-name="gcircumflex" unicode="&#x11d;" horiz-adv-x="586" 
d="M280 195c-35 0 -72 4 -105 15c-20 -22 -29 -35 -29 -52c0 -16 9 -23 27 -23h238c113 0 169 -54 169 -143c0 -125 -123 -199 -306 -199c-158 0 -254 39 -254 118c0 51 49 77 90 87c-41 15 -70 46 -70 98s37 89 104 127c-55 26 -95 72 -95 144c0 118 101 189 238 189
c40 0 73 -6 99 -14l184 8v-87h-42l-83 18v-6c43 -21 69 -55 69 -105c0 -110 -99 -175 -234 -175zM391 -24h-255c-8 -9 -11 -22 -11 -37c0 -60 61 -88 155 -88s169 22 169 83c0 31 -23 42 -58 42zM362 766l139 -170h-86l-114 85l-114 -85h-86l139 170h122zM287 249
c46 0 64 43 64 112c0 79 -26 140 -77 140c-47 0 -64 -44 -64 -112c0 -77 25 -140 77 -140z" />
    <glyph glyph-name="gcommaaccent" unicode="&#x123;" horiz-adv-x="586" 
d="M280 195c-35 0 -72 4 -105 15c-20 -22 -29 -35 -29 -52c0 -16 9 -23 27 -23h238c113 0 169 -54 169 -143c0 -125 -123 -199 -306 -199c-158 0 -254 39 -254 118c0 51 49 77 90 87c-41 15 -70 46 -70 98s37 89 104 127c-55 26 -95 72 -95 144c0 118 101 189 238 189
c40 0 73 -6 99 -14l184 8v-87h-42l-83 18v-6c43 -21 69 -55 69 -105c0 -110 -99 -175 -234 -175zM391 -24h-255c-8 -9 -11 -22 -11 -37c0 -60 61 -88 155 -88s169 22 169 83c0 31 -23 42 -58 42zM287 249c46 0 64 43 64 112c0 79 -26 140 -77 140c-47 0 -64 -44 -64 -112
c0 -77 25 -140 77 -140zM283 718h57c30 -7 49 -25 49 -59c0 -35 -30 -62 -81 -62c-58 0 -93 40 -93 94c0 65 45 116 166 116v-42c-63 0 -96 -19 -98 -47z" />
    <glyph glyph-name="gdotaccent" unicode="&#x121;" horiz-adv-x="586" 
d="M280 195c-35 0 -72 4 -105 15c-20 -22 -29 -35 -29 -52c0 -16 9 -23 27 -23h238c113 0 169 -54 169 -143c0 -125 -123 -199 -306 -199c-158 0 -254 39 -254 118c0 51 49 77 90 87c-41 15 -70 46 -70 98s37 89 104 127c-55 26 -95 72 -95 144c0 118 101 189 238 189
c40 0 73 -6 99 -14l184 8v-87h-42l-83 18v-6c43 -21 69 -55 69 -105c0 -110 -99 -175 -234 -175zM391 -24h-255c-8 -9 -11 -22 -11 -37c0 -60 61 -88 155 -88s169 22 169 83c0 31 -23 42 -58 42zM287 249c46 0 64 43 64 112c0 79 -26 140 -77 140c-47 0 -64 -44 -64 -112
c0 -77 25 -140 77 -140zM302 601c-59 0 -96 41 -96 89s37 89 96 89c58 0 94 -41 94 -89s-36 -89 -94 -89z" />
    <glyph glyph-name="hbar" unicode="&#x127;" horiz-adv-x="691" 
d="M393 578h-130v-131c44 48 107 104 193 104c96 0 150 -52 150 -164v-269c0 -46 19 -51 64 -57v-61h-293v61c45 6 60 11 60 57v253c0 47 -17 70 -68 70c-41 0 -76 -11 -106 -24v-299c0 -46 16 -51 60 -57v-61h-293v61c46 6 64 11 64 57v460h-59v49h59v56h-59v43l198 35h30
v-134h130v-49z" />
    <glyph glyph-name="hcircumflex" unicode="&#x125;" horiz-adv-x="685" 
d="M257 761v-309c44 48 107 104 193 104c96 0 150 -52 150 -164v-274c0 -46 19 -51 64 -57v-61h-293v61c45 6 60 11 60 57v258c0 47 -17 70 -68 70c-41 0 -76 -11 -106 -24v-304c0 -46 16 -51 60 -57v-61h-293v61c46 6 64 11 64 57v514l-59 54v34l198 41h30zM394 957
l141 -167h-86l-116 82l-116 -82h-86l141 167h122z" />
    <glyph glyph-name="ibreve" unicode="&#x12d;" horiz-adv-x="357" 
d="M267 557v-439c0 -46 19 -51 64 -57v-61h-297v61c44 6 64 11 64 57v304l-59 55v29l196 51h32zM181 601c-98 0 -155 63 -155 170h64c8 -64 51 -83 91 -83c41 0 84 19 92 83h64c0 -107 -57 -170 -156 -170z" />
    <glyph glyph-name="imacron" unicode="&#x12b;" horiz-adv-x="357" 
d="M44 625v93h267v-93h-267zM267 557v-439c0 -46 19 -51 64 -57v-61h-297v61c44 6 64 11 64 57v304l-59 55v29l196 51h32z" />
    <glyph glyph-name="iogonek" unicode="&#x12f;" horiz-adv-x="357" 
d="M267 557v-439c0 -46 19 -51 64 -57v-61h-98c-46 -27 -72 -60 -72 -96c0 -23 13 -41 45 -41c22 0 44 4 74 23l18 -26c-42 -47 -86 -75 -142 -75c-52 0 -95 31 -95 84c0 58 43 100 99 131h-126v61c44 6 64 11 64 57v304l-59 55v29l196 51h32zM180 597c-59 0 -96 41 -96 89
s37 89 96 89c58 0 94 -41 94 -89s-36 -89 -94 -89z" />
    <glyph glyph-name="itilde" unicode="&#x129;" horiz-adv-x="357" 
d="M313 767l55 -12c-52 -121 -80 -143 -130 -143s-85 62 -117 62c-29 0 -45 -24 -65 -56l-55 11c52 121 79 144 131 144c57 0 85 -63 116 -63c29 0 45 24 65 57zM267 557v-439c0 -46 19 -51 64 -57v-61h-297v61c44 6 64 11 64 57v304l-59 55v29l196 51h32z" />
    <glyph glyph-name="ij" unicode="&#x133;" horiz-adv-x="669" 
d="M267 557v-439c0 -46 19 -51 64 -57v-61h-297v61c44 6 64 11 64 57v304l-59 55v29l196 51h32zM180 597c-59 0 -96 41 -96 89s37 89 96 89c58 0 94 -41 94 -89s-36 -89 -94 -89zM605 557v-434c0 -107 -24 -159 -63 -208c-46 -56 -94 -93 -150 -124l-34 32l39 64
c36 56 38 116 38 198v337l-58 55v29l197 51h31zM518 597c-58 0 -95 41 -95 89s37 89 95 89s95 -41 95 -89s-37 -89 -95 -89z" />
    <glyph glyph-name="jcircumflex" unicode="&#x135;" horiz-adv-x="312" 
d="M248 557v-434c0 -107 -24 -159 -63 -208c-46 -56 -94 -93 -150 -124l-34 32l39 64c36 56 38 116 38 198v337l-58 55v29l197 51h31zM222 766l139 -170h-86l-114 85l-114 -85h-86l139 170h122z" />
    <glyph glyph-name="kcommaaccent" unicode="&#x137;" horiz-adv-x="644" 
d="M348 -157h-57c-30 8 -48 26 -48 59c0 35 30 62 80 62c59 0 94 -39 94 -94c0 -65 -45 -116 -167 -116v43c64 0 96 19 98 46zM265 290l135 129c13 14 24 25 24 36c0 21 -16 25 -65 31v60h256v-60c-39 -10 -65 -16 -90 -40l-103 -100l213 -299v-47h-174zM257 761v-643
c0 -46 20 -51 64 -57v-61h-297v61c46 6 64 11 64 57v514l-59 54v34l198 41h30z" />
    <glyph glyph-name="kgreenlandic" unicode="&#x138;" horiz-adv-x="644" 
d="M265 290l135 129c13 14 24 25 24 36c0 21 -16 25 -65 31v60h256v-60c-39 -10 -65 -16 -90 -40l-103 -100l213 -299v-47h-174zM257 556v-438c0 -46 20 -51 64 -57v-61h-297v61c46 6 64 11 64 57v309l-59 54v34l198 41h30z" />
    <glyph glyph-name="lacute" unicode="&#x13a;" horiz-adv-x="347" 
d="M193 947h172l-156 -156h-89zM256 761v-643c0 -46 19 -51 64 -57v-61h-296v61c46 6 64 11 64 57v514l-59 54v34l196 41h31z" />
    <glyph glyph-name="lcaron" unicode="&#x13e;" horiz-adv-x="360" 
d="M483 765l-91 -205h-68l15 205h144zM256 761v-643c0 -46 19 -51 64 -57v-61h-296v61c46 6 64 11 64 57v514l-59 54v34l196 41h31z" />
    <glyph glyph-name="lcommaaccent" unicode="&#x13c;" horiz-adv-x="347" 
d="M191 -157h-57c-30 8 -48 26 -48 59c0 35 30 62 80 62c59 0 94 -39 94 -94c0 -65 -45 -116 -167 -116v43c64 0 96 19 98 46zM256 761v-643c0 -46 19 -51 64 -57v-61h-296v61c46 6 64 11 64 57v514l-59 54v34l196 41h31z" />
    <glyph glyph-name="ldot" unicode="&#x140;" horiz-adv-x="491" 
d="M256 761v-643c0 -46 19 -51 64 -57v-61h-296v61c46 6 64 11 64 57v514l-59 54v34l196 41h31zM415 295c-59 0 -96 41 -96 89s37 89 96 89c58 0 94 -41 94 -89s-36 -89 -94 -89z" />
    <glyph glyph-name="nacute" unicode="&#x144;" horiz-adv-x="694" 
d="M377 765h170l-154 -162h-85zM440 118v258c0 47 -17 70 -67 70c-41 0 -77 -11 -106 -24v-304c0 -46 15 -51 60 -57v-61h-293v61c44 6 64 11 64 57v301l-59 54v33l196 54h32v-108c42 48 106 104 192 104c96 0 150 -52 150 -164v-274c0 -46 19 -51 64 -57v-61h-292v61
c45 6 59 11 59 57z" />
    <glyph glyph-name="ncaron" unicode="&#x148;" horiz-adv-x="694" 
d="M558 774l-139 -170h-122l-139 170h86l114 -85l114 85h86zM440 118v258c0 47 -17 70 -67 70c-41 0 -77 -11 -106 -24v-304c0 -46 15 -51 60 -57v-61h-293v61c44 6 64 11 64 57v301l-59 54v33l196 54h32v-108c42 48 106 104 192 104c96 0 150 -52 150 -164v-274
c0 -46 19 -51 64 -57v-61h-292v61c45 6 59 11 59 57z" />
    <glyph glyph-name="ncommaaccent" unicode="&#x146;" horiz-adv-x="694" 
d="M377 -157h-57c-30 8 -48 26 -48 59c0 35 30 62 80 62c59 0 94 -39 94 -94c0 -65 -45 -116 -167 -116v43c64 0 96 19 98 46zM440 118v258c0 47 -17 70 -67 70c-41 0 -77 -11 -106 -24v-304c0 -46 15 -51 60 -57v-61h-293v61c44 6 64 11 64 57v301l-59 54v33l196 54h32
v-108c42 48 106 104 192 104c96 0 150 -52 150 -164v-274c0 -46 19 -51 64 -57v-61h-292v61c45 6 59 11 59 57z" />
    <glyph glyph-name="eng" unicode="&#x14b;" horiz-adv-x="674" 
d="M440 85v291c0 47 -17 70 -67 70c-41 0 -77 -11 -106 -24v-304c0 -46 15 -51 60 -57v-61h-293v61c44 6 64 11 64 57v301l-59 54v33l196 54h32v-108c42 48 106 104 192 104c96 0 150 -52 150 -164v-269c0 -107 -24 -159 -63 -208c-46 -56 -94 -93 -150 -124l-34 32l40 64
c35 56 38 116 38 198z" />
    <glyph glyph-name="obreve" unicode="&#x14f;" horiz-adv-x="624" 
d="M321 57c62 0 95 79 95 190c0 137 -41 243 -113 243c-63 0 -96 -80 -96 -191c0 -137 41 -242 114 -242zM305 -10c-164 0 -271 118 -271 274c0 178 122 292 285 292c164 0 271 -118 271 -273c0 -179 -123 -293 -285 -293zM316 601c-98 0 -155 63 -155 170h64
c8 -64 51 -83 91 -83c41 0 84 19 92 83h64c0 -107 -57 -170 -156 -170z" />
    <glyph glyph-name="ohungarumlaut" unicode="&#x151;" horiz-adv-x="624" 
d="M246 765h147l-136 -162h-78zM432 765h147l-136 -162h-78zM321 57c62 0 95 79 95 190c0 137 -41 243 -113 243c-63 0 -96 -80 -96 -191c0 -137 41 -242 114 -242zM305 -10c-164 0 -271 118 -271 274c0 178 122 292 285 292c164 0 271 -118 271 -273
c0 -179 -123 -293 -285 -293z" />
    <glyph glyph-name="omacron" unicode="&#x14d;" horiz-adv-x="624" 
d="M167 625v93h298v-93h-298zM321 57c62 0 95 79 95 190c0 137 -41 243 -113 243c-63 0 -96 -80 -96 -191c0 -137 41 -242 114 -242zM305 -10c-164 0 -271 118 -271 274c0 178 122 292 285 292c164 0 271 -118 271 -273c0 -179 -123 -293 -285 -293z" />
    <glyph glyph-name="oslashacute" unicode="&#x1ff;" horiz-adv-x="624" 
d="M525 580l-44 -73c69 -49 109 -130 109 -224c0 -179 -123 -293 -285 -293c-43 0 -82 8 -117 23l-52 -88l-48 26l53 89c-68 49 -107 129 -107 224c0 178 122 292 285 292c42 0 81 -8 115 -23l44 73zM321 57c62 0 99 79 99 190c0 53 -5 98 -13 134l-166 -280
c19 -29 45 -44 80 -44zM203 299c0 -53 4 -97 12 -134l167 280c-19 29 -45 45 -79 45c-63 0 -100 -80 -100 -191zM331 765h170l-154 -162h-85z" />
    <glyph glyph-name="racute" unicode="&#x155;" horiz-adv-x="471" 
d="M290 765h170l-154 -162h-85zM267 560v-172c45 131 83 168 151 168c21 0 33 -5 44 -12v-145h-24c-62 0 -122 -5 -171 -46v-236c0 -45 23 -48 83 -56v-61h-316v61c44 6 64 11 64 57v301l-59 54v33l195 54h33z" />
    <glyph glyph-name="rcaron" unicode="&#x159;" horiz-adv-x="471" 
d="M471 774l-139 -170h-122l-139 170h86l114 -85l114 85h86zM267 560v-172c45 131 83 168 151 168c21 0 33 -5 44 -12v-145h-24c-62 0 -122 -5 -171 -46v-236c0 -45 23 -48 83 -56v-61h-316v61c44 6 64 11 64 57v301l-59 54v33l195 54h33z" />
    <glyph glyph-name="rcommaaccent" unicode="&#x157;" horiz-adv-x="471" 
d="M212 -157h-57c-30 8 -48 26 -48 59c0 35 30 62 80 62c59 0 94 -39 94 -94c0 -65 -45 -116 -167 -116v43c64 0 96 19 98 46zM267 560v-172c45 131 83 168 151 168c21 0 33 -5 44 -12v-145h-24c-62 0 -122 -5 -171 -46v-236c0 -45 23 -48 83 -56v-61h-316v61
c44 6 64 11 64 57v301l-59 54v33l195 54h33z" />
    <glyph glyph-name="sacute" unicode="&#x15b;" horiz-adv-x="503" 
d="M274 765h170l-154 -162h-85zM249 -10c-85 0 -155 23 -202 56l-6 124h76c18 -78 60 -118 137 -118c52 0 88 21 88 62c0 44 -28 60 -118 81c-121 29 -182 79 -182 180c0 115 81 181 209 181c70 0 134 -18 178 -46v-113h-74c-15 61 -48 97 -111 97c-48 0 -74 -26 -74 -61
c0 -39 21 -59 111 -77c108 -23 186 -68 186 -179c0 -118 -81 -187 -218 -187z" />
    <glyph glyph-name="scedilla" unicode="&#x15f;" horiz-adv-x="503" 
d="M148 -231l-10 46c72 0 115 13 115 41c0 26 -37 35 -86 37l40 99c-66 6 -121 26 -160 54l-6 124h76c18 -78 60 -118 137 -118c52 0 88 21 88 62c0 44 -28 60 -118 81c-121 29 -182 79 -182 180c0 115 81 181 209 181c70 0 134 -18 178 -46v-113h-74c-15 61 -48 97 -111 97
c-48 0 -74 -26 -74 -61c0 -39 21 -59 111 -77c108 -23 186 -68 186 -179c0 -117 -80 -185 -214 -187l-12 -35c60 -5 99 -27 99 -77c0 -73 -92 -109 -192 -109z" />
    <glyph glyph-name="scircumflex" unicode="&#x15d;" horiz-adv-x="503" 
d="M314 766l139 -170h-86l-114 85l-114 -85h-86l139 170h122zM249 -10c-85 0 -155 23 -202 56l-6 124h76c18 -78 60 -118 137 -118c52 0 88 21 88 62c0 44 -28 60 -118 81c-121 29 -182 79 -182 180c0 115 81 181 209 181c70 0 134 -18 178 -46v-113h-74
c-15 61 -48 97 -111 97c-48 0 -74 -26 -74 -61c0 -39 21 -59 111 -77c108 -23 186 -68 186 -179c0 -118 -81 -187 -218 -187z" />
    <glyph glyph-name="scommaaccent" unicode="&#x219;" horiz-adv-x="503" 
d="M274 -157h-57c-30 8 -48 26 -48 59c0 35 30 62 80 62c59 0 94 -39 94 -94c0 -65 -45 -116 -167 -116v43c64 0 96 19 98 46zM249 -10c-85 0 -155 23 -202 56l-6 124h76c18 -78 60 -118 137 -118c52 0 88 21 88 62c0 44 -28 60 -118 81c-121 29 -182 79 -182 180
c0 115 81 181 209 181c70 0 134 -18 178 -46v-113h-74c-15 61 -48 97 -111 97c-48 0 -74 -26 -74 -61c0 -39 21 -59 111 -77c108 -23 186 -68 186 -179c0 -118 -81 -187 -218 -187z" />
    <glyph glyph-name="tbar" unicode="&#x167;" horiz-adv-x="453" 
d="M268 670v-124h137v-71h-137v-101h137v-67h-137v-148c0 -49 20 -70 66 -70c25 0 53 7 77 20l18 -46c-46 -47 -106 -73 -178 -73c-100 0 -153 47 -153 151v166h-68v67h68v101h-68v50c65 24 135 82 186 145h52z" />
    <glyph glyph-name="tcaron" unicode="&#x165;" horiz-adv-x="412" 
d="M458 817l-91 -205h-68l15 205h144zM247 670v-124h137v-71h-137v-316c0 -49 20 -70 66 -70c25 0 53 7 77 20l18 -46c-46 -47 -106 -73 -178 -73c-100 0 -153 47 -153 151v334h-68v50c65 24 135 82 186 145h52z" />
    <glyph glyph-name="ubreve" unicode="&#x16d;" horiz-adv-x="675" 
d="M415 -10v98c-38 -46 -99 -98 -187 -98s-148 52 -148 169v240c0 30 -7 50 -42 57l-15 5v52l196 43h31v-380c0 -55 23 -82 67 -82c40 0 69 11 98 24v281c0 30 -7 50 -42 57l-14 5v52l194 43h32v-418c0 -34 8 -51 41 -53h24v-62l-201 -33h-34zM343 601
c-98 0 -155 63 -155 170h64c8 -64 51 -83 91 -83c41 0 84 19 92 83h64c0 -107 -57 -170 -156 -170z" />
    <glyph glyph-name="uhungarumlaut" unicode="&#x171;" horiz-adv-x="675" 
d="M415 -10v98c-38 -46 -99 -98 -187 -98s-148 52 -148 169v240c0 30 -7 50 -42 57l-15 5v52l196 43h31v-380c0 -55 23 -82 67 -82c40 0 69 11 98 24v281c0 30 -7 50 -42 57l-14 5v52l194 43h32v-418c0 -34 8 -51 41 -53h24v-62l-201 -33h-34zM254 765h147l-136 -162h-78z
M440 765h147l-136 -162h-78z" />
    <glyph glyph-name="umacron" unicode="&#x16b;" horiz-adv-x="675" 
d="M415 -10v98c-38 -46 -99 -98 -187 -98s-148 52 -148 169v240c0 30 -7 50 -42 57l-15 5v52l196 43h31v-380c0 -55 23 -82 67 -82c40 0 69 11 98 24v281c0 30 -7 50 -42 57l-14 5v52l194 43h32v-418c0 -34 8 -51 41 -53h24v-62l-201 -33h-34zM195 625v93h298v-93h-298z" />
    <glyph glyph-name="uogonek" unicode="&#x173;" horiz-adv-x="675" 
d="M650 23c-182 -37 -221 -77 -221 -119c0 -23 13 -41 45 -41c22 0 44 4 74 23l18 -26c-42 -47 -86 -75 -142 -75c-52 0 -95 31 -95 84c0 54 37 89 86 120v99c-38 -46 -99 -98 -187 -98s-148 52 -148 169v240c0 30 -7 50 -42 57l-15 5v52l196 43h31v-380
c0 -55 23 -82 67 -82c40 0 69 11 98 24v281c0 30 -7 50 -42 57l-14 5v52l194 43h32v-418c0 -34 8 -51 41 -53h24v-62z" />
    <glyph glyph-name="uring" unicode="&#x16f;" horiz-adv-x="675" 
d="M235 694c0 56 45 99 109 99s109 -43 109 -99s-45 -99 -109 -99s-109 43 -109 99zM391 694c0 26 -16 46 -47 46s-47 -20 -47 -46s16 -46 47 -46s47 20 47 46zM415 -10v98c-38 -46 -99 -98 -187 -98s-148 52 -148 169v240c0 30 -7 50 -42 57l-15 5v52l196 43h31v-380
c0 -55 23 -82 67 -82c40 0 69 11 98 24v281c0 30 -7 50 -42 57l-14 5v52l194 43h32v-418c0 -34 8 -51 41 -53h24v-62l-201 -33h-34z" />
    <glyph glyph-name="utilde" unicode="&#x169;" horiz-adv-x="675" 
d="M415 -10v98c-38 -46 -99 -98 -187 -98s-148 52 -148 169v240c0 30 -7 50 -42 57l-15 5v52l196 43h31v-380c0 -55 23 -82 67 -82c40 0 69 11 98 24v281c0 30 -7 50 -42 57l-14 5v52l194 43h32v-418c0 -34 8 -51 41 -53h24v-62l-201 -33h-34zM479 767l55 -12
c-52 -121 -80 -143 -136 -143c-57 0 -100 62 -138 62c-30 0 -46 -24 -65 -56l-56 11c53 121 80 144 137 144c64 0 99 -63 138 -63c29 0 45 24 65 57z" />
    <glyph glyph-name="wacute" unicode="&#x1e83;" horiz-adv-x="879" 
d="M490 765h170l-154 -162h-85zM651 221l76 197c5 13 7 24 7 32c0 24 -17 31 -51 36v60h191v-60c-37 -13 -48 -18 -57 -40l-183 -451h-54l-131 322l-138 -322h-53l-197 451c-9 22 -19 28 -56 40v60h291v-60c-33 -5 -45 -15 -45 -33c0 -11 4 -22 10 -36l77 -200l76 183
l-18 46c-9 23 -18 32 -47 40v60h273v-60c-38 -5 -51 -12 -51 -34c0 -11 4 -23 8 -34z" />
    <glyph glyph-name="wcircumflex" unicode="&#x175;" horiz-adv-x="879" 
d="M532 766l139 -170h-86l-114 85l-114 -85h-86l139 170h122zM651 221l76 197c5 13 7 24 7 32c0 24 -17 31 -51 36v60h191v-60c-37 -13 -48 -18 -57 -40l-183 -451h-54l-131 322l-138 -322h-53l-197 451c-9 22 -19 28 -56 40v60h291v-60c-33 -5 -45 -15 -45 -33
c0 -11 4 -22 10 -36l77 -200l76 183l-18 46c-9 23 -18 32 -47 40v60h273v-60c-38 -5 -51 -12 -51 -34c0 -11 4 -23 8 -34z" />
    <glyph glyph-name="wgrave" unicode="&#x1e81;" horiz-adv-x="879" 
d="M651 221l76 197c5 13 7 24 7 32c0 24 -17 31 -51 36v60h191v-60c-37 -13 -48 -18 -57 -40l-183 -451h-54l-131 322l-138 -322h-53l-197 451c-9 22 -19 28 -56 40v60h291v-60c-33 -5 -45 -15 -45 -33c0 -11 4 -22 10 -36l77 -200l76 183l-18 46c-9 23 -18 32 -47 40v60
h273v-60c-38 -5 -51 -12 -51 -34c0 -11 4 -23 8 -34zM280 765h170l68 -162h-84z" />
    <glyph glyph-name="wdieresis" unicode="&#x1e85;" horiz-adv-x="879" 
d="M281 688c0 45 37 83 83 83s84 -38 84 -83s-38 -83 -84 -83s-83 38 -83 83zM495 688c0 45 38 83 82 83c48 0 85 -38 85 -83s-37 -83 -85 -83c-44 0 -82 38 -82 83zM651 221l76 197c5 13 7 24 7 32c0 24 -17 31 -51 36v60h191v-60c-37 -13 -48 -18 -57 -40l-183 -451h-54
l-131 322l-138 -322h-53l-197 451c-9 22 -19 28 -56 40v60h291v-60c-33 -5 -45 -15 -45 -33c0 -11 4 -22 10 -36l77 -200l76 183l-18 46c-9 23 -18 32 -47 40v60h273v-60c-38 -5 -51 -12 -51 -34c0 -11 4 -23 8 -34z" />
    <glyph glyph-name="ycircumflex" unicode="&#x177;" horiz-adv-x="610" 
d="M272 -2l-210 448c-10 21 -20 27 -57 40v60h316v-60c-52 -7 -69 -12 -69 -36c0 -8 2 -16 10 -36l94 -229l93 229c8 21 10 28 10 36c0 24 -15 29 -67 36v60h213v-60c-37 -13 -47 -18 -57 -40l-229 -525c-38 -87 -81 -129 -149 -129c-38 0 -69 16 -84 39v85h58
c69 0 95 6 120 63zM408 766l139 -170h-86l-114 85l-114 -85h-86l139 170h122z" />
    <glyph glyph-name="ygrave" unicode="&#x1ef3;" horiz-adv-x="610" 
d="M272 -2l-210 448c-10 21 -20 27 -57 40v60h316v-60c-52 -7 -69 -12 -69 -36c0 -8 2 -16 10 -36l94 -229l93 229c8 21 10 28 10 36c0 24 -15 29 -67 36v60h213v-60c-37 -13 -47 -18 -57 -40l-229 -525c-38 -87 -81 -129 -149 -129c-38 0 -69 16 -84 39v85h58
c69 0 95 6 120 63zM156 765h170l68 -162h-84z" />
    <glyph glyph-name="zacute" unicode="&#x17a;" horiz-adv-x="560" 
d="M305 765h170l-154 -162h-85zM28 0v42l286 441h-99c-55 0 -70 -33 -108 -135h-64v198h472v-45l-279 -437h93c63 0 87 30 134 137h64l-22 -201h-477z" />
    <glyph glyph-name="zdotaccent" unicode="&#x17c;" horiz-adv-x="560" 
d="M28 0v42l286 441h-99c-55 0 -70 -33 -108 -135h-64v198h472v-45l-279 -437h93c63 0 87 30 134 137h64l-22 -201h-477zM287 601c-59 0 -96 41 -96 89s37 89 96 89c58 0 94 -41 94 -89s-36 -89 -94 -89z" />
    <glyph glyph-name="A.sc" horiz-adv-x="678" 
d="M415 134l-21 49h-217l-20 -49c-5 -13 -7 -25 -7 -35c0 -26 9 -35 61 -38v-61h-198v61c23 5 40 9 49 32l182 443l-35 77h177l228 -520c9 -21 26 -27 52 -32v-61h-303v61c52 3 62 12 62 39c0 9 -4 20 -10 34zM284 446l-82 -202h167z" />
    <glyph glyph-name="B.sc" horiz-adv-x="652" 
d="M316 280h-41v-162c0 -47 18 -58 65 -58h8c56 0 95 39 95 107c0 66 -33 113 -127 113zM298 542h-23v-199h29c72 0 112 32 112 103c0 70 -44 96 -118 96zM372 0h-338v62c59 3 70 13 70 59v364c0 45 -11 56 -70 59v62h338c134 0 214 -51 214 -153c0 -87 -80 -131 -165 -140
c111 -6 196 -54 196 -148c0 -114 -86 -165 -245 -165z" />
    <glyph glyph-name="C.sc" horiz-adv-x="636" 
d="M374 60c74 0 107 50 138 156h85l-14 -168c-54 -36 -131 -58 -223 -58c-207 0 -323 127 -323 301c0 199 145 325 325 325c87 0 165 -24 212 -65v-141h-85c-21 84 -54 142 -129 142c-103 0 -135 -119 -135 -236c0 -152 50 -256 149 -256z" />
    <glyph glyph-name="D.sc" horiz-adv-x="721" 
d="M297 542h-19v-418c0 -51 17 -60 60 -60h8c98 0 152 73 152 239c0 140 -64 239 -201 239zM352 0h-318v62c59 3 70 13 70 59v364c0 45 -11 56 -70 59v62h286c232 0 365 -104 365 -294c0 -195 -127 -312 -333 -312z" />
    <glyph glyph-name="E.sc" horiz-adv-x="613" 
d="M557 0h-523v62c59 3 70 13 70 59v364c0 45 -11 56 -70 59v62h518v-168h-68c-28 70 -49 105 -120 105h-89v-198h69c38 0 54 14 63 66h58v-198h-58c-9 52 -25 67 -63 67h-69v-161c0 -46 23 -57 70 -57h26c62 0 90 33 146 119h67z" />
    <glyph glyph-name="F.sc" horiz-adv-x="573" 
d="M377 0h-343v62c59 3 70 13 70 59v364c0 45 -11 56 -70 59v62h507v-168h-68c-28 70 -51 105 -121 105h-77v-205h53c39 0 54 15 63 66h59v-197h-59c-9 52 -24 67 -63 67h-53v-159c0 -44 28 -55 102 -58v-57z" />
    <glyph glyph-name="G.sc" horiz-adv-x="682" 
d="M37 291c0 199 152 325 329 325c85 0 164 -24 212 -65v-141h-85c-24 84 -57 142 -129 142c-102 0 -142 -119 -142 -236c0 -149 40 -257 156 -257c24 0 35 2 56 9v115c0 44 -12 55 -69 56v64h296v-64c-59 -1 -68 -12 -68 -56v-130c-56 -40 -144 -63 -239 -63
c-209 0 -317 129 -317 301z" />
    <glyph glyph-name="H.sc" horiz-adv-x="776" 
d="M742 62v-62h-314v62c58 3 70 13 70 59v158h-220v-158c0 -46 11 -56 70 -59v-62h-314v62c59 3 70 13 70 59v364c0 45 -11 56 -70 59v62h314v-62c-59 -3 -70 -14 -70 -59v-140h220v140c0 45 -12 56 -70 59v62h314v-62c-59 -3 -70 -14 -70 -59v-364c0 -46 11 -56 70 -59z
" />
    <glyph glyph-name="I.sc" horiz-adv-x="382" 
d="M348 62v-62h-314v62c59 3 70 13 70 59v364c0 45 -11 56 -70 59v62h314v-62c-59 -3 -70 -14 -70 -59v-364c0 -46 11 -56 70 -59z" />
    <glyph glyph-name="J.sc" horiz-adv-x="560" 
d="M467 486v-291c0 -142 -86 -205 -236 -205c-133 0 -217 50 -217 136c0 40 19 63 43 79h119v-47c0 -58 13 -107 58 -107c48 0 58 47 58 115v320c0 45 -10 55 -68 58v62h314v-62c-59 -3 -71 -13 -71 -58z" />
    <glyph glyph-name="K.sc" horiz-adv-x="709" 
d="M449 366l160 -244c32 -48 52 -61 89 -62v-60h-197c-27 18 -48 43 -78 91l-137 217l185 170c17 15 26 25 26 39s-9 26 -52 27v62h232v-62c-37 -1 -50 -9 -73 -31zM348 62v-62h-314v62c59 3 70 13 70 59v364c0 45 -11 56 -70 59v62h314v-62c-59 -3 -70 -14 -70 -59v-364
c0 -46 11 -56 70 -59z" />
    <glyph glyph-name="L.sc" horiz-adv-x="597" 
d="M278 485v-363c0 -47 19 -58 67 -58h22c55 0 68 21 141 147h72l-33 -211h-513v62c59 3 70 13 70 59v364c0 45 -11 56 -70 59v62h314v-62c-59 -3 -70 -14 -70 -59z" />
    <glyph glyph-name="M.sc" horiz-adv-x="891" 
d="M630 139l-41 289l-155 -428h-61l-161 428l-38 -289c-1 -8 -2 -19 -2 -22c0 -42 22 -52 83 -56v-61h-238v61c50 3 67 14 73 53l55 367c0 46 -15 60 -73 63v62h244c2 -20 5 -34 14 -57l118 -311l114 311c9 23 13 37 15 57h242v-62c-59 -3 -74 -17 -74 -63l55 -367
c6 -43 24 -50 74 -53v-61h-326v61c63 4 84 14 84 56c0 3 -1 14 -2 22z" />
    <glyph glyph-name="N.sc" horiz-adv-x="698" 
d="M104 120v382c-26 34 -40 38 -70 42v62h230l263 -330v210c0 45 -20 55 -78 58v62h226v-62c-58 -3 -69 -13 -69 -58v-486h-71l-352 430v-310c0 -45 20 -56 78 -59v-61h-227v61c59 3 70 14 70 59z" />
    <glyph glyph-name="O.sc" horiz-adv-x="691" 
d="M357 55c81 0 112 105 112 232c0 161 -43 263 -135 263c-81 0 -112 -104 -112 -232c0 -161 42 -263 135 -263zM337 -10c-194 0 -300 140 -300 301c0 199 135 325 317 325c193 0 300 -141 300 -301c0 -199 -135 -325 -317 -325z" />
    <glyph glyph-name="P.sc" horiz-adv-x="614" 
d="M278 542v-254h25c75 0 119 46 119 131c0 77 -49 123 -125 123h-19zM378 0h-344v62c59 3 70 13 70 59v364c0 45 -11 56 -70 59v62h312c172 0 248 -82 248 -188c0 -120 -78 -188 -248 -188h-68v-110c0 -45 26 -55 100 -59v-61z" />
    <glyph glyph-name="Q.sc" horiz-adv-x="689" 
d="M352 614c195 0 300 -139 300 -299c0 -161 -89 -274 -218 -311l59 -47c41 -34 62 -47 110 -48v-32c-23 -19 -57 -31 -104 -31c-64 0 -121 29 -178 99l-41 50c-158 24 -243 151 -243 296c0 198 134 323 315 323zM355 56c82 0 113 104 113 232c0 160 -42 261 -135 261
c-81 0 -112 -104 -112 -232c0 -160 43 -261 134 -261z" />
    <glyph glyph-name="R.sc" horiz-adv-x="686" 
d="M304 542h-29v-233h28c93 0 135 38 135 120c0 76 -49 113 -134 113zM343 0h-309v62c59 3 70 13 70 59v364c0 45 -11 56 -70 59v62h334c166 0 243 -68 243 -175c0 -86 -60 -135 -130 -155l101 -152c31 -48 50 -62 95 -63v-61h-195c-26 22 -50 52 -74 96l-86 159h-47v-135
c0 -45 9 -56 68 -59v-61z" />
    <glyph glyph-name="S.sc" horiz-adv-x="554" 
d="M267 -10c-90 0 -169 26 -214 58l-9 144h88c24 -98 67 -141 149 -141c54 0 94 23 94 74c0 41 -28 61 -124 86c-134 34 -201 89 -201 202c0 128 95 203 225 203c84 0 157 -23 201 -54v-130h-75c-24 70 -53 124 -134 124c-58 0 -87 -31 -87 -73c0 -47 32 -66 125 -88
c131 -31 206 -82 206 -207c0 -137 -109 -198 -244 -198z" />
    <glyph glyph-name="T.sc" horiz-adv-x="647" 
d="M35 606h577l14 -207h-69c-39 95 -58 147 -128 147h-20v-426c0 -45 20 -56 79 -59v-61h-329v61c59 3 80 14 80 59v426h-21c-69 0 -89 -52 -128 -147h-69z" />
    <glyph glyph-name="U.sc" horiz-adv-x="697" 
d="M269 486v-254c0 -89 26 -148 115 -148c79 0 136 31 136 156v246c0 45 -19 55 -77 58v62h230v-62c-58 -3 -70 -13 -70 -58v-273c0 -152 -109 -223 -244 -223c-170 0 -266 75 -266 223v273c0 45 -11 55 -69 58v62h312v-62c-57 -3 -67 -13 -67 -58z" />
    <glyph glyph-name="V.sc" horiz-adv-x="655" 
d="M384 229l105 243c5 13 9 25 9 34c0 25 -10 35 -62 38v62h206v-62c-25 -4 -40 -8 -51 -32l-226 -515h-45l-258 515c-12 24 -25 28 -49 32v62h307v-62c-52 -3 -63 -12 -63 -38c0 -9 4 -23 9 -35z" />
    <glyph glyph-name="W.sc" horiz-adv-x="908" 
d="M658 231l84 223c9 27 13 43 13 52c0 25 -9 35 -61 38v62h202v-62c-24 -4 -43 -8 -52 -32l-199 -515h-57l-122 329l-128 -329h-59l-217 515c-9 21 -26 28 -49 32v62h292v-62c-38 -4 -53 -15 -53 -38c0 -9 4 -24 12 -44l92 -237l75 199l-31 88c-8 19 -21 28 -45 32v62h281
v-62c-53 -3 -62 -13 -62 -38c0 -9 3 -23 13 -55z" />
    <glyph glyph-name="X.sc" horiz-adv-x="677" 
d="M386 126l-90 116l-93 -115c-15 -16 -17 -28 -17 -37c0 -21 12 -29 48 -29v-61h-221v61c35 0 57 16 69 29l170 208l-170 218c-10 13 -24 26 -50 28v62h306v-62c-35 0 -49 -8 -49 -28c0 -11 9 -20 22 -37l63 -84l64 83c12 15 18 28 18 38c0 20 -14 28 -46 28v62h218v-62
c-32 0 -53 -14 -66 -28l-145 -176l192 -250c11 -14 29 -25 55 -29v-61h-299v61c31 0 41 8 41 29c0 9 -7 19 -20 36z" />
    <glyph glyph-name="Y.sc" horiz-adv-x="635" 
d="M366 295l91 161c13 24 21 41 21 54c0 23 -18 32 -59 34v62h203v-62c-25 -4 -39 -10 -51 -32l-167 -293v-99c0 -45 16 -56 74 -59v-61h-316v61c58 3 75 14 75 59v100l-175 292c-13 23 -25 28 -49 32v62h300v-62c-46 -2 -58 -11 -58 -34c0 -16 8 -31 20 -54z" />
    <glyph glyph-name="Z.sc" horiz-adv-x="586" 
d="M232 64h114c63 0 83 15 150 140h66l-31 -204h-505v43l319 498h-109c-72 0 -82 -48 -118 -118h-62v183h491v-45z" />
    <glyph glyph-name="Aacute.sc" horiz-adv-x="678" 
d="M415 134l-21 49h-217l-20 -49c-5 -13 -7 -25 -7 -35c0 -26 9 -35 61 -38v-61h-198v61c23 5 40 9 49 32l182 443l-35 77h177l228 -520c9 -21 26 -27 52 -32v-61h-303v61c52 3 62 12 62 39c0 9 -4 20 -10 34zM332 816h170l-154 -162h-85zM284 446l-82 -202h167z" />
    <glyph glyph-name="Abreve.sc" horiz-adv-x="678" 
d="M415 134l-21 49h-217l-20 -49c-5 -13 -7 -25 -7 -35c0 -26 9 -35 61 -38v-61h-198v61c23 5 40 9 49 32l182 443l-35 77h177l228 -520c9 -21 26 -27 52 -32v-61h-303v61c52 3 62 12 62 39c0 9 -4 20 -10 34zM313 652c-98 0 -155 63 -155 170h64c8 -64 51 -83 91 -83
c41 0 84 19 92 83h64c0 -107 -57 -170 -156 -170zM284 446l-82 -202h167z" />
    <glyph glyph-name="Acircumflex.sc" horiz-adv-x="678" 
d="M415 134l-21 49h-217l-20 -49c-5 -13 -7 -25 -7 -35c0 -26 9 -35 61 -38v-61h-198v61c23 5 40 9 49 32l182 443l-35 77h177l228 -520c9 -21 26 -27 52 -32v-61h-303v61c52 3 62 12 62 39c0 9 -4 20 -10 34zM374 817l139 -170h-86l-114 85l-114 -85h-86l139 170h122z
M284 446l-82 -202h167z" />
    <glyph glyph-name="Adieresis.sc" horiz-adv-x="678" 
d="M415 134l-21 49h-217l-20 -49c-5 -13 -7 -25 -7 -35c0 -26 9 -35 61 -38v-61h-198v61c23 5 40 9 49 32l182 443l-35 77h177l228 -520c9 -21 26 -27 52 -32v-61h-303v61c52 3 62 12 62 39c0 9 -4 20 -10 34zM123 739c0 45 37 83 83 83s84 -38 84 -83s-38 -83 -84 -83
s-83 38 -83 83zM337 739c0 45 38 83 82 83c48 0 85 -38 85 -83s-37 -83 -85 -83c-44 0 -82 38 -82 83zM284 446l-82 -202h167z" />
    <glyph glyph-name="Agrave.sc" horiz-adv-x="678" 
d="M415 134l-21 49h-217l-20 -49c-5 -13 -7 -25 -7 -35c0 -26 9 -35 61 -38v-61h-198v61c23 5 40 9 49 32l182 443l-35 77h177l228 -520c9 -21 26 -27 52 -32v-61h-303v61c52 3 62 12 62 39c0 9 -4 20 -10 34zM122 816h170l68 -162h-84zM284 446l-82 -202h167z" />
    <glyph glyph-name="Amacron.sc" horiz-adv-x="678" 
d="M415 134l-21 49h-217l-20 -49c-5 -13 -7 -25 -7 -35c0 -26 9 -35 61 -38v-61h-198v61c23 5 40 9 49 32l182 443l-35 77h177l228 -520c9 -21 26 -27 52 -32v-61h-303v61c52 3 62 12 62 39c0 9 -4 20 -10 34zM164 676v93h298v-93h-298zM284 446l-82 -202h167z" />
    <glyph glyph-name="Aogonek.sc" horiz-adv-x="678" 
d="M209 613h177l228 -520c9 -21 26 -27 52 -32v-61h-287c-37 -20 -58 -50 -58 -84c0 -33 15 -53 46 -53c23 0 45 4 75 23l17 -26c-41 -47 -80 -73 -137 -73c-52 0 -99 36 -99 100c0 60 42 106 129 148c53 25 70 41 70 70c0 11 -4 21 -12 39l-16 39h-217l-20 -49
c-5 -13 -7 -25 -7 -35c0 -26 9 -35 61 -38v-61h-198v61c23 5 40 9 49 32l182 443zM284 446l-82 -202h167z" />
    <glyph glyph-name="Aring.sc" horiz-adv-x="678" 
d="M415 134l-21 49h-217l-20 -49c-5 -13 -7 -25 -7 -35c0 -26 9 -35 61 -38v-61h-198v61c23 5 40 9 49 32l182 443l-35 77h177l228 -520c9 -21 26 -27 52 -32v-61h-303v61c52 3 62 12 62 39c0 9 -4 20 -10 34zM204 745c0 56 45 99 109 99s109 -43 109 -99s-45 -99 -109 -99
s-109 43 -109 99zM284 446l-82 -202h167zM360 745c0 26 -16 46 -47 46s-47 -20 -47 -46s16 -46 47 -46s47 20 47 46z" />
    <glyph glyph-name="Aringacute.sc" horiz-adv-x="678" 
d="M415 134l-21 49h-217l-20 -49c-5 -13 -7 -25 -7 -35c0 -26 9 -35 61 -38v-61h-198v61c23 5 40 9 49 32l182 443l-35 77h177l228 -520c9 -21 26 -27 52 -32v-61h-303v61c52 3 62 12 62 39c0 9 -4 20 -10 34zM198 725c0 54 47 88 114 88s114 -34 114 -88s-47 -88 -114 -88
s-114 34 -114 88zM284 446l-82 -202h167zM320 956h171l-136 -117h-81zM365 725c0 26 -21 41 -53 41s-53 -15 -53 -41s21 -41 53 -41s53 15 53 41z" />
    <glyph glyph-name="Atilde.sc" horiz-adv-x="678" 
d="M415 134l-21 49h-217l-20 -49c-5 -13 -7 -25 -7 -35c0 -26 9 -35 61 -38v-61h-198v61c23 5 40 9 49 32l182 443l-35 77h177l228 -520c9 -21 26 -27 52 -32v-61h-303v61c52 3 62 12 62 39c0 9 -4 20 -10 34zM460 818l55 -12c-52 -121 -80 -143 -136 -143
c-57 0 -100 62 -138 62c-30 0 -46 -24 -65 -56l-56 11c53 121 80 144 137 144c64 0 99 -63 138 -63c29 0 45 24 65 57zM284 446l-82 -202h167z" />
    <glyph glyph-name="AE.sc" horiz-adv-x="946" 
d="M63 93l289 416c-10 23 -26 32 -77 35v62h610v-168h-68c-28 70 -50 105 -120 105h-90v-198h69c39 0 55 14 64 66h58v-198h-58c-9 52 -25 67 -64 67h-69v-161c0 -46 24 -57 71 -57h26c62 0 90 33 146 119h67l-27 -181h-524v62c59 3 70 13 70 58v89h-207l-41 -58
c-16 -22 -22 -40 -22 -52c0 -26 11 -35 64 -38v-61h-217v61c23 5 35 11 50 32zM436 502l-164 -232h164v232z" />
    <glyph glyph-name="AEacute.sc" horiz-adv-x="946" 
d="M63 93l289 416c-10 23 -26 32 -77 35v62h610v-168h-68c-28 70 -50 105 -120 105h-90v-198h69c39 0 55 14 64 66h58v-198h-58c-9 52 -25 67 -64 67h-69v-161c0 -46 24 -57 71 -57h26c62 0 90 33 146 119h67l-27 -181h-524v62c59 3 70 13 70 58v89h-207l-41 -58
c-16 -22 -22 -40 -22 -52c0 -26 11 -35 64 -38v-61h-217v61c23 5 35 11 50 32zM594 816h170l-154 -162h-85zM436 502l-164 -232h164v232z" />
    <glyph glyph-name="Cacute.sc" horiz-adv-x="636" 
d="M380 816h170l-154 -162h-85zM374 60c74 0 107 50 138 156h85l-14 -168c-54 -36 -131 -58 -223 -58c-207 0 -323 127 -323 301c0 199 145 325 325 325c87 0 165 -24 212 -65v-141h-85c-21 84 -54 142 -129 142c-103 0 -135 -119 -135 -236c0 -152 50 -256 149 -256z" />
    <glyph glyph-name="Ccaron.sc" horiz-adv-x="636" 
d="M562 825l-139 -170h-122l-139 170h86l114 -85l114 85h86zM374 60c74 0 107 50 138 156h85l-14 -168c-54 -36 -131 -58 -223 -58c-207 0 -323 127 -323 301c0 199 145 325 325 325c87 0 165 -24 212 -65v-141h-85c-21 84 -54 142 -129 142c-103 0 -135 -119 -135 -236
c0 -152 50 -256 149 -256z" />
    <glyph glyph-name="Ccedilla.sc" horiz-adv-x="636" 
d="M250 -231l-10 46c72 0 115 13 115 41c0 26 -37 35 -86 37l40 100c-175 18 -272 138 -272 298c0 199 145 325 325 325c87 0 165 -24 212 -65v-141h-85c-21 84 -54 142 -129 142c-103 0 -135 -119 -135 -236c0 -152 50 -256 149 -256c74 0 107 50 138 156h85l-14 -168
c-54 -36 -131 -58 -223 -58h-5l-12 -35c60 -5 99 -27 99 -77c0 -73 -92 -109 -192 -109z" />
    <glyph glyph-name="Ccircumflex.sc" horiz-adv-x="636" 
d="M418 817l139 -170h-86l-114 85l-114 -85h-86l139 170h122zM374 60c74 0 107 50 138 156h85l-14 -168c-54 -36 -131 -58 -223 -58c-207 0 -323 127 -323 301c0 199 145 325 325 325c87 0 165 -24 212 -65v-141h-85c-21 84 -54 142 -129 142c-103 0 -135 -119 -135 -236
c0 -152 50 -256 149 -256z" />
    <glyph glyph-name="Cdotaccent.sc" horiz-adv-x="636" 
d="M374 60c74 0 107 50 138 156h85l-14 -168c-54 -36 -131 -58 -223 -58c-207 0 -323 127 -323 301c0 199 145 325 325 325c87 0 165 -24 212 -65v-141h-85c-21 84 -54 142 -129 142c-103 0 -135 -119 -135 -236c0 -152 50 -256 149 -256zM357 652c-59 0 -96 41 -96 89
s37 89 96 89c58 0 94 -41 94 -89s-36 -89 -94 -89z" />
    <glyph glyph-name="Dcaron.sc" horiz-adv-x="721" 
d="M297 542h-19v-418c0 -51 17 -60 60 -60h8c98 0 152 73 152 239c0 140 -64 239 -201 239zM352 0h-318v62c59 3 70 13 70 59v364c0 45 -11 56 -70 59v62h286c232 0 365 -104 365 -294c0 -195 -127 -312 -333 -312zM549 825l-139 -170h-122l-139 170h86l114 -85l114 85h86z
" />
    <glyph glyph-name="Dcroat.sc" horiz-adv-x="730" 
d="M360 0h-318v62c59 3 70 13 70 59v158h-70v66h70v140c0 45 -11 56 -70 59v62h286c232 0 365 -104 365 -294c0 -195 -127 -312 -333 -312zM305 542h-19v-197h114v-66h-114v-155c0 -51 17 -60 60 -60h8c98 0 152 73 152 239c0 140 -64 239 -201 239z" />
    <glyph glyph-name="Eacute.sc" horiz-adv-x="613" 
d="M333 816h170l-154 -162h-85zM557 0h-523v62c59 3 70 13 70 59v364c0 45 -11 56 -70 59v62h518v-168h-68c-28 70 -49 105 -120 105h-89v-198h69c38 0 54 14 63 66h58v-198h-58c-9 52 -25 67 -63 67h-69v-161c0 -46 23 -57 70 -57h26c62 0 90 33 146 119h67z" />
    <glyph glyph-name="Ebreve.sc" horiz-adv-x="613" 
d="M557 0h-523v62c59 3 70 13 70 59v364c0 45 -11 56 -70 59v62h518v-168h-68c-28 70 -49 105 -120 105h-89v-198h69c38 0 54 14 63 66h58v-198h-58c-9 52 -25 67 -63 67h-69v-161c0 -46 23 -57 70 -57h26c62 0 90 33 146 119h67zM314 652c-98 0 -155 63 -155 170h64
c8 -64 51 -83 91 -83c41 0 84 19 92 83h64c0 -107 -57 -170 -156 -170z" />
    <glyph glyph-name="Ecaron.sc" horiz-adv-x="613" 
d="M514 825l-139 -170h-122l-139 170h86l114 -85l114 85h86zM557 0h-523v62c59 3 70 13 70 59v364c0 45 -11 56 -70 59v62h518v-168h-68c-28 70 -49 105 -120 105h-89v-198h69c38 0 54 14 63 66h58v-198h-58c-9 52 -25 67 -63 67h-69v-161c0 -46 23 -57 70 -57h26
c62 0 90 33 146 119h67z" />
    <glyph glyph-name="Ecircumflex.sc" horiz-adv-x="613" 
d="M375 817l139 -170h-86l-114 85l-114 -85h-86l139 170h122zM557 0h-523v62c59 3 70 13 70 59v364c0 45 -11 56 -70 59v62h518v-168h-68c-28 70 -49 105 -120 105h-89v-198h69c38 0 54 14 63 66h58v-198h-58c-9 52 -25 67 -63 67h-69v-161c0 -46 23 -57 70 -57h26
c62 0 90 33 146 119h67z" />
    <glyph glyph-name="Edieresis.sc" horiz-adv-x="613" 
d="M124 739c0 45 37 83 83 83s84 -38 84 -83s-38 -83 -84 -83s-83 38 -83 83zM338 739c0 45 38 83 82 83c48 0 85 -38 85 -83s-37 -83 -85 -83c-44 0 -82 38 -82 83zM557 0h-523v62c59 3 70 13 70 59v364c0 45 -11 56 -70 59v62h518v-168h-68c-28 70 -49 105 -120 105h-89
v-198h69c38 0 54 14 63 66h58v-198h-58c-9 52 -25 67 -63 67h-69v-161c0 -46 23 -57 70 -57h26c62 0 90 33 146 119h67z" />
    <glyph glyph-name="Edotaccent.sc" horiz-adv-x="613" 
d="M315 652c-59 0 -96 41 -96 89s37 89 96 89c58 0 94 -41 94 -89s-36 -89 -94 -89zM557 0h-523v62c59 3 70 13 70 59v364c0 45 -11 56 -70 59v62h518v-168h-68c-28 70 -49 105 -120 105h-89v-198h69c38 0 54 14 63 66h58v-198h-58c-9 52 -25 67 -63 67h-69v-161
c0 -46 23 -57 70 -57h26c62 0 90 33 146 119h67z" />
    <glyph glyph-name="Egrave.sc" horiz-adv-x="613" 
d="M123 816h170l68 -162h-84zM557 0h-523v62c59 3 70 13 70 59v364c0 45 -11 56 -70 59v62h518v-168h-68c-28 70 -49 105 -120 105h-89v-198h69c38 0 54 14 63 66h58v-198h-58c-9 52 -25 67 -63 67h-69v-161c0 -46 23 -57 70 -57h26c62 0 90 33 146 119h67z" />
    <glyph glyph-name="Emacron.sc" horiz-adv-x="613" 
d="M165 676v93h298v-93h-298zM557 0h-523v62c59 3 70 13 70 59v364c0 45 -11 56 -70 59v62h518v-168h-68c-28 70 -49 105 -120 105h-89v-198h69c38 0 54 14 63 66h58v-198h-58c-9 52 -25 67 -63 67h-69v-161c0 -46 23 -57 70 -57h26c62 0 90 33 146 119h67z" />
    <glyph glyph-name="Eogonek.sc" horiz-adv-x="613" 
d="M557 0h-74c-46 -27 -72 -60 -72 -96c0 -23 13 -41 45 -41c22 0 44 4 74 23l18 -26c-42 -47 -86 -75 -142 -75c-52 0 -95 31 -95 84c0 58 43 100 99 131h-376v62c59 3 70 13 70 59v364c0 45 -11 56 -70 59v62h518v-168h-68c-28 70 -49 105 -120 105h-89v-198h69
c38 0 54 14 63 66h58v-198h-58c-9 52 -25 67 -63 67h-69v-161c0 -46 23 -57 70 -57h26c62 0 90 33 146 119h67z" />
    <glyph glyph-name="Eth.sc" horiz-adv-x="730" 
d="M360 0h-318v62c59 3 70 13 70 59v158h-70v66h70v140c0 45 -11 56 -70 59v62h286c232 0 365 -104 365 -294c0 -195 -127 -312 -333 -312zM305 542h-19v-197h114v-66h-114v-155c0 -51 17 -60 60 -60h8c98 0 152 73 152 239c0 140 -64 239 -201 239z" />
    <glyph glyph-name="Gbreve.sc" horiz-adv-x="682" 
d="M37 291c0 199 152 325 329 325c85 0 164 -24 212 -65v-141h-85c-24 84 -57 142 -129 142c-102 0 -142 -119 -142 -236c0 -149 40 -257 156 -257c24 0 35 2 56 9v115c0 44 -12 55 -69 56v64h296v-64c-59 -1 -68 -12 -68 -56v-130c-56 -40 -144 -63 -239 -63
c-209 0 -317 129 -317 301zM362 652c-98 0 -155 63 -155 170h64c8 -64 51 -83 91 -83c41 0 84 19 92 83h64c0 -107 -57 -170 -156 -170z" />
    <glyph glyph-name="Gcircumflex.sc" horiz-adv-x="682" 
d="M424 817l139 -170h-86l-114 85l-114 -85h-86l139 170h122zM37 291c0 199 152 325 329 325c85 0 164 -24 212 -65v-141h-85c-24 84 -57 142 -129 142c-102 0 -142 -119 -142 -236c0 -149 40 -257 156 -257c24 0 35 2 56 9v115c0 44 -12 55 -69 56v64h296v-64
c-59 -1 -68 -12 -68 -56v-130c-56 -40 -144 -63 -239 -63c-209 0 -317 129 -317 301z" />
    <glyph glyph-name="Gcommaaccent.sc" horiz-adv-x="682" 
d="M390 -157h-57c-30 8 -48 26 -48 59c0 35 30 62 80 62c59 0 94 -39 94 -94c0 -65 -45 -116 -167 -116v43c64 0 96 19 98 46zM37 291c0 199 152 325 329 325c85 0 164 -24 212 -65v-141h-85c-24 84 -57 142 -129 142c-102 0 -142 -119 -142 -236c0 -149 40 -257 156 -257
c24 0 35 2 56 9v115c0 44 -12 55 -69 56v64h296v-64c-59 -1 -68 -12 -68 -56v-130c-56 -40 -144 -63 -239 -63c-209 0 -317 129 -317 301z" />
    <glyph glyph-name="Gdotaccent.sc" horiz-adv-x="682" 
d="M37 291c0 199 152 325 329 325c85 0 164 -24 212 -65v-141h-85c-24 84 -57 142 -129 142c-102 0 -142 -119 -142 -236c0 -149 40 -257 156 -257c24 0 35 2 56 9v115c0 44 -12 55 -69 56v64h296v-64c-59 -1 -68 -12 -68 -56v-130c-56 -40 -144 -63 -239 -63
c-209 0 -317 129 -317 301zM365 652c-59 0 -96 41 -96 89s37 89 96 89c58 0 94 -41 94 -89s-36 -89 -94 -89z" />
    <glyph glyph-name="Hbar.sc" horiz-adv-x="792" 
d="M112 385h-70v65h70v35c0 45 -11 56 -70 59v62h314v-62c-58 -3 -70 -14 -70 -59v-35h220v35c0 45 -11 56 -70 59v62h314v-62c-59 -3 -70 -14 -70 -59v-35h70v-65h-70v-264c0 -46 11 -56 70 -59v-62h-314v62c59 3 70 13 70 59v122h-220v-122c0 -46 12 -56 70 -59v-62h-314
v62c59 3 70 13 70 59v264zM286 309h220v76h-220v-76z" />
    <glyph glyph-name="Hcircumflex.sc" horiz-adv-x="776" 
d="M449 817l139 -170h-86l-114 85l-114 -85h-86l139 170h122zM742 62v-62h-314v62c58 3 70 13 70 59v158h-220v-158c0 -46 11 -56 70 -59v-62h-314v62c59 3 70 13 70 59v364c0 45 -11 56 -70 59v62h314v-62c-59 -3 -70 -14 -70 -59v-140h220v140c0 45 -12 56 -70 59v62h314
v-62c-59 -3 -70 -14 -70 -59v-364c0 -46 11 -56 70 -59z" />
    <glyph glyph-name="Iacute.sc" horiz-adv-x="382" 
d="M210 816h170l-154 -162h-85zM348 62v-62h-314v62c59 3 70 13 70 59v364c0 45 -11 56 -70 59v62h314v-62c-59 -3 -70 -14 -70 -59v-364c0 -46 11 -56 70 -59z" />
    <glyph glyph-name="Ibreve.sc" horiz-adv-x="382" 
d="M348 62v-62h-314v62c59 3 70 13 70 59v364c0 45 -11 56 -70 59v62h314v-62c-59 -3 -70 -14 -70 -59v-364c0 -46 11 -56 70 -59zM190 652c-98 0 -155 63 -155 170h64c8 -64 51 -83 91 -83c41 0 84 19 92 83h64c0 -107 -57 -170 -156 -170z" />
    <glyph glyph-name="Icircumflex.sc" horiz-adv-x="382" 
d="M252 817l139 -170h-86l-114 85l-114 -85h-86l139 170h122zM348 62v-62h-314v62c59 3 70 13 70 59v364c0 45 -11 56 -70 59v62h314v-62c-59 -3 -70 -14 -70 -59v-364c0 -46 11 -56 70 -59z" />
    <glyph glyph-name="Idieresis.sc" horiz-adv-x="382" 
d="M1 739c0 45 37 83 83 83s84 -38 84 -83s-38 -83 -84 -83s-83 38 -83 83zM215 739c0 45 38 83 82 83c48 0 85 -38 85 -83s-37 -83 -85 -83c-44 0 -82 38 -82 83zM348 62v-62h-314v62c59 3 70 13 70 59v364c0 45 -11 56 -70 59v62h314v-62c-59 -3 -70 -14 -70 -59v-364
c0 -46 11 -56 70 -59z" />
    <glyph glyph-name="Idotaccent.sc" horiz-adv-x="382" 
d="M348 62v-62h-314v62c59 3 70 13 70 59v364c0 45 -11 56 -70 59v62h314v-62c-59 -3 -70 -14 -70 -59v-364c0 -46 11 -56 70 -59zM192 652c-59 0 -96 41 -96 89s37 89 96 89c58 0 94 -41 94 -89s-36 -89 -94 -89z" />
    <glyph glyph-name="Igrave.sc" horiz-adv-x="382" 
d="M348 62v-62h-314v62c59 3 70 13 70 59v364c0 45 -11 56 -70 59v62h314v-62c-59 -3 -70 -14 -70 -59v-364c0 -46 11 -56 70 -59zM0 816h170l68 -162h-84z" />
    <glyph glyph-name="Imacron.sc" horiz-adv-x="382" 
d="M348 62v-62h-314v62c59 3 70 13 70 59v364c0 45 -11 56 -70 59v62h314v-62c-59 -3 -70 -14 -70 -59v-364c0 -46 11 -56 70 -59zM42 676v93h298v-93h-298z" />
    <glyph glyph-name="Iogonek.sc" horiz-adv-x="382" 
d="M348 62v-62h-102c-46 -27 -72 -60 -72 -96c0 -23 13 -41 45 -41c22 0 44 4 74 23l18 -26c-42 -47 -86 -75 -142 -75c-52 0 -95 31 -95 84c0 58 43 100 99 131h-139v62c59 3 70 13 70 59v364c0 45 -11 56 -70 59v62h314v-62c-59 -3 -70 -14 -70 -59v-364
c0 -46 11 -56 70 -59z" />
    <glyph glyph-name="Itilde.sc" horiz-adv-x="382" 
d="M335 817l55 -11c-52 -121 -80 -143 -136 -143s-96 62 -133 62c-29 0 -45 -24 -65 -56l-55 11c52 121 80 143 136 143c64 0 96 -62 133 -62c29 0 45 23 65 56zM348 62v-62h-314v62c59 3 70 13 70 59v364c0 45 -11 56 -70 59v62h314v-62c-59 -3 -70 -14 -70 -59v-364
c0 -46 11 -56 70 -59z" />
    <glyph glyph-name="IJ.sc" horiz-adv-x="928" 
d="M348 62v-62h-314v62c59 3 70 13 70 59v364c0 45 -11 56 -70 59v62h314v-62c-59 -3 -70 -14 -70 -59v-364c0 -46 11 -56 70 -59zM835 486v-291c0 -142 -86 -205 -236 -205c-133 0 -217 50 -217 136c0 40 19 63 43 79h119v-47c0 -58 13 -107 58 -107c48 0 58 47 58 115v320
c0 45 -10 55 -68 58v62h314v-62c-59 -3 -71 -13 -71 -58z" />
    <glyph glyph-name="Jcircumflex.sc" horiz-adv-x="560" 
d="M437 817l139 -170h-86l-114 85l-114 -85h-86l139 170h122zM467 486v-291c0 -142 -86 -205 -236 -205c-133 0 -217 50 -217 136c0 40 19 63 43 79h119v-47c0 -58 13 -107 58 -107c48 0 58 47 58 115v320c0 45 -10 55 -68 58v62h314v-62c-59 -3 -71 -13 -71 -58z" />
    <glyph glyph-name="Kcommaaccent.sc" horiz-adv-x="709" 
d="M385 -157h-57c-30 8 -48 26 -48 59c0 35 30 62 80 62c59 0 94 -39 94 -94c0 -65 -45 -116 -167 -116v43c64 0 96 19 98 46zM449 366l160 -244c32 -48 52 -61 89 -62v-60h-197c-27 18 -48 43 -78 91l-137 217l185 170c17 15 26 25 26 39s-9 26 -52 27v62h232v-62
c-37 -1 -50 -9 -73 -31zM348 62v-62h-314v62c59 3 70 13 70 59v364c0 45 -11 56 -70 59v62h314v-62c-59 -3 -70 -14 -70 -59v-364c0 -46 11 -56 70 -59z" />
    <glyph glyph-name="Lacute.sc" horiz-adv-x="597" 
d="M278 485v-363c0 -47 19 -58 67 -58h22c55 0 68 21 141 147h72l-33 -211h-513v62c59 3 70 13 70 59v364c0 45 -11 56 -70 59v62h314v-62c-59 -3 -70 -14 -70 -59zM225 816h170l-154 -162h-85z" />
    <glyph glyph-name="Lcaron.sc" horiz-adv-x="597" 
d="M278 485v-363c0 -47 19 -58 67 -58h22c55 0 68 21 141 147h72l-33 -211h-513v62c59 3 70 13 70 59v364c0 45 -11 56 -70 59v62h314v-62c-59 -3 -70 -14 -70 -59zM560 606l-91 -205h-68l15 205h144z" />
    <glyph glyph-name="Lcommaaccent.sc" horiz-adv-x="597" 
d="M278 485v-363c0 -47 19 -58 67 -58h22c55 0 68 21 141 147h72l-33 -211h-513v62c59 3 70 13 70 59v364c0 45 -11 56 -70 59v62h314v-62c-59 -3 -70 -14 -70 -59zM326 -157h-57c-30 8 -48 26 -48 59c0 35 30 62 80 62c59 0 94 -39 94 -94c0 -65 -45 -116 -167 -116v43
c64 0 96 19 98 46z" />
    <glyph glyph-name="Ldot.sc" horiz-adv-x="597" 
d="M278 485v-363c0 -47 19 -58 67 -58h22c55 0 68 21 141 147h72l-33 -211h-513v62c59 3 70 13 70 59v364c0 45 -11 56 -70 59v62h314v-62c-59 -3 -70 -14 -70 -59zM490 284c-59 0 -96 41 -96 89s37 89 96 89c58 0 94 -41 94 -89s-36 -89 -94 -89z" />
    <glyph glyph-name="Lslash.sc" horiz-adv-x="605" 
d="M286 308v-186c0 -47 19 -58 67 -58h22c55 0 68 21 141 147h72l-33 -211h-513v62c59 3 70 13 70 59v131l-70 -25v67l70 24v167c0 45 -11 56 -70 59v62h314v-62c-59 -3 -70 -14 -70 -59v-110l128 47v-67z" />
    <glyph glyph-name="Nacute.sc" horiz-adv-x="698" 
d="M380 816h170l-154 -162h-85zM104 120v382c-26 34 -40 38 -70 42v62h230l263 -330v210c0 45 -20 55 -78 58v62h226v-62c-58 -3 -69 -13 -69 -58v-486h-71l-352 430v-310c0 -45 20 -56 78 -59v-61h-227v61c59 3 70 14 70 59z" />
    <glyph glyph-name="Ncaron.sc" horiz-adv-x="698" 
d="M561 825l-139 -170h-122l-139 170h86l114 -85l114 85h86zM104 120v382c-26 34 -40 38 -70 42v62h230l263 -330v210c0 45 -20 55 -78 58v62h226v-62c-58 -3 -69 -13 -69 -58v-486h-71l-352 430v-310c0 -45 20 -56 78 -59v-61h-227v61c59 3 70 14 70 59z" />
    <glyph glyph-name="Ncommaaccent.sc" horiz-adv-x="698" 
d="M380 -157h-57c-30 8 -48 26 -48 59c0 35 30 62 80 62c59 0 94 -39 94 -94c0 -65 -45 -116 -167 -116v43c64 0 96 19 98 46zM104 120v382c-26 34 -40 38 -70 42v62h230l263 -330v210c0 45 -20 55 -78 58v62h226v-62c-58 -3 -69 -13 -69 -58v-486h-71l-352 430v-310
c0 -45 20 -56 78 -59v-61h-227v61c59 3 70 14 70 59z" />
    <glyph glyph-name="Ntilde.sc" horiz-adv-x="698" 
d="M104 120v382c-26 34 -40 38 -70 42v62h230l263 -330v210c0 45 -20 55 -78 58v62h226v-62c-58 -3 -69 -13 -69 -58v-486h-71l-352 430v-310c0 -45 20 -56 78 -59v-61h-227v61c59 3 70 14 70 59zM504 818l55 -12c-52 -121 -80 -143 -136 -143c-57 0 -100 62 -138 62
c-30 0 -46 -24 -65 -56l-56 11c53 121 80 144 137 144c64 0 99 -63 138 -63c29 0 45 24 65 57z" />
    <glyph glyph-name="Eng.sc" horiz-adv-x="698" 
d="M474 74l-291 356v-310c0 -45 20 -56 78 -59v-61h-227v61c59 3 70 14 70 59v382c-26 34 -40 38 -70 42v62h230l263 -329v209c0 45 -20 55 -78 58v62h226v-62c-58 -3 -69 -13 -69 -58v-369c0 -102 -19 -153 -57 -197c-44 -51 -91 -74 -141 -98l-29 28l27 35
c41 53 68 112 68 189z" />
    <glyph glyph-name="Oacute.sc" horiz-adv-x="691" 
d="M357 55c81 0 112 105 112 232c0 161 -43 263 -135 263c-81 0 -112 -104 -112 -232c0 -161 42 -263 135 -263zM337 -10c-194 0 -300 140 -300 301c0 199 135 325 317 325c193 0 300 -141 300 -301c0 -199 -135 -325 -317 -325zM368 816h170l-154 -162h-85z" />
    <glyph glyph-name="Obreve.sc" horiz-adv-x="691" 
d="M357 55c81 0 112 105 112 232c0 161 -43 263 -135 263c-81 0 -112 -104 -112 -232c0 -161 42 -263 135 -263zM337 -10c-194 0 -300 140 -300 301c0 199 135 325 317 325c193 0 300 -141 300 -301c0 -199 -135 -325 -317 -325zM348 652c-98 0 -155 63 -155 170h64
c8 -64 51 -83 91 -83c41 0 84 19 92 83h64c0 -107 -57 -170 -156 -170z" />
    <glyph glyph-name="Ocircumflex.sc" horiz-adv-x="691" 
d="M410 817l139 -170h-86l-114 85l-114 -85h-86l139 170h122zM357 55c81 0 112 105 112 232c0 161 -43 263 -135 263c-81 0 -112 -104 -112 -232c0 -161 42 -263 135 -263zM337 -10c-194 0 -300 140 -300 301c0 199 135 325 317 325c193 0 300 -141 300 -301
c0 -199 -135 -325 -317 -325z" />
    <glyph glyph-name="Odieresis.sc" horiz-adv-x="691" 
d="M158 739c0 45 37 83 83 83s84 -38 84 -83s-38 -83 -84 -83s-83 38 -83 83zM372 739c0 45 38 83 82 83c48 0 85 -38 85 -83s-37 -83 -85 -83c-44 0 -82 38 -82 83zM357 55c81 0 112 105 112 232c0 161 -43 263 -135 263c-81 0 -112 -104 -112 -232
c0 -161 42 -263 135 -263zM337 -10c-194 0 -300 140 -300 301c0 199 135 325 317 325c193 0 300 -141 300 -301c0 -199 -135 -325 -317 -325z" />
    <glyph glyph-name="Ograve.sc" horiz-adv-x="691" 
d="M357 55c81 0 112 105 112 232c0 161 -43 263 -135 263c-81 0 -112 -104 -112 -232c0 -161 42 -263 135 -263zM337 -10c-194 0 -300 140 -300 301c0 199 135 325 317 325c193 0 300 -141 300 -301c0 -199 -135 -325 -317 -325zM158 816h170l68 -162h-84z" />
    <glyph glyph-name="Ohungarumlaut.sc" horiz-adv-x="691" 
d="M357 55c81 0 112 105 112 232c0 161 -43 263 -135 263c-81 0 -112 -104 -112 -232c0 -161 42 -263 135 -263zM337 -10c-194 0 -300 140 -300 301c0 199 135 325 317 325c193 0 300 -141 300 -301c0 -199 -135 -325 -317 -325zM279 816h147l-136 -162h-78zM465 816h147
l-136 -162h-78z" />
    <glyph glyph-name="Omacron.sc" horiz-adv-x="691" 
d="M357 55c81 0 112 105 112 232c0 161 -43 263 -135 263c-81 0 -112 -104 -112 -232c0 -161 42 -263 135 -263zM337 -10c-194 0 -300 140 -300 301c0 199 135 325 317 325c193 0 300 -141 300 -301c0 -199 -135 -325 -317 -325zM200 676v93h298v-93h-298z" />
    <glyph glyph-name="Oslash.sc" horiz-adv-x="691" 
d="M337 -10c-57 0 -107 12 -148 33l-66 -94l-48 32l66 93c-69 56 -104 143 -104 237c0 199 135 325 317 325c60 0 111 -14 154 -38l58 82l47 -32l-58 -82c65 -57 99 -141 99 -231c0 -199 -135 -325 -317 -325zM220 318c0 -51 4 -96 12 -133l207 294c-22 46 -57 71 -105 71
c-81 0 -114 -104 -114 -232zM357 55c81 0 114 105 114 232c0 46 -4 88 -11 123l-205 -292c22 -41 56 -63 102 -63z" />
    <glyph glyph-name="Oslashacute.sc" horiz-adv-x="691" 
d="M337 -10c-57 0 -107 12 -148 33l-66 -94l-48 32l66 93c-69 56 -104 143 -104 237c0 199 135 325 317 325c60 0 111 -14 154 -38l58 82l47 -32l-58 -82c65 -57 99 -141 99 -231c0 -199 -135 -325 -317 -325zM220 318c0 -51 4 -96 12 -133l207 294c-22 46 -57 71 -105 71
c-81 0 -114 -104 -114 -232zM357 55c81 0 114 105 114 232c0 46 -4 88 -11 123l-205 -292c22 -41 56 -63 102 -63zM365 816h170l-154 -162h-85z" />
    <glyph glyph-name="Otilde.sc" horiz-adv-x="691" 
d="M357 55c81 0 112 105 112 232c0 161 -43 263 -135 263c-81 0 -112 -104 -112 -232c0 -161 42 -263 135 -263zM337 -10c-194 0 -300 140 -300 301c0 199 135 325 317 325c193 0 300 -141 300 -301c0 -199 -135 -325 -317 -325zM499 818l55 -12
c-52 -121 -80 -143 -136 -143c-57 0 -100 62 -138 62c-30 0 -46 -24 -65 -56l-56 11c53 121 80 144 137 144c64 0 99 -63 138 -63c29 0 45 24 65 57z" />
    <glyph glyph-name="OE.sc" horiz-adv-x="945" 
d="M889 0h-489c-230 0 -363 104 -363 297c0 191 142 309 348 309h499v-168h-68c-28 70 -50 105 -120 105h-90v-198h69c39 0 55 14 64 66h58v-198h-58c-9 52 -25 67 -64 67h-69v-161c0 -46 24 -57 71 -57h26c62 0 90 33 146 119h67zM435 62v481h-44c-98 0 -168 -75 -168 -241
c0 -149 71 -240 202 -240h10z" />
    <glyph glyph-name="Racute.sc" horiz-adv-x="686" 
d="M357 816h170l-154 -162h-85zM304 542h-29v-233h28c93 0 135 38 135 120c0 76 -49 113 -134 113zM343 0h-309v62c59 3 70 13 70 59v364c0 45 -11 56 -70 59v62h334c166 0 243 -68 243 -175c0 -86 -60 -135 -130 -155l101 -152c31 -48 50 -62 95 -63v-61h-195
c-26 22 -50 52 -74 96l-86 159h-47v-135c0 -45 9 -56 68 -59v-61z" />
    <glyph glyph-name="Rcaron.sc" horiz-adv-x="686" 
d="M538 825l-139 -170h-122l-139 170h86l114 -85l114 85h86zM304 542h-29v-233h28c93 0 135 38 135 120c0 76 -49 113 -134 113zM343 0h-309v62c59 3 70 13 70 59v364c0 45 -11 56 -70 59v62h334c166 0 243 -68 243 -175c0 -86 -60 -135 -130 -155l101 -152
c31 -48 50 -62 95 -63v-61h-195c-26 22 -50 52 -74 96l-86 159h-47v-135c0 -45 9 -56 68 -59v-61z" />
    <glyph glyph-name="Rcommaaccent.sc" horiz-adv-x="686" 
d="M378 -157h-57c-30 8 -48 26 -48 59c0 35 30 62 80 62c59 0 94 -39 94 -94c0 -65 -45 -116 -167 -116v43c64 0 96 19 98 46zM304 542h-29v-233h28c93 0 135 38 135 120c0 76 -49 113 -134 113zM343 0h-309v62c59 3 70 13 70 59v364c0 45 -11 56 -70 59v62h334
c166 0 243 -68 243 -175c0 -86 -60 -135 -130 -155l101 -152c31 -48 50 -62 95 -63v-61h-195c-26 22 -50 52 -74 96l-86 159h-47v-135c0 -45 9 -56 68 -59v-61z" />
    <glyph glyph-name="Sacute.sc" horiz-adv-x="554" 
d="M307 816h170l-154 -162h-85zM267 -10c-90 0 -169 26 -214 58l-9 144h88c24 -98 67 -141 149 -141c54 0 94 23 94 74c0 41 -28 61 -124 86c-134 34 -201 89 -201 202c0 128 95 203 225 203c84 0 157 -23 201 -54v-130h-75c-24 70 -53 124 -134 124c-58 0 -87 -31 -87 -73
c0 -47 32 -66 125 -88c131 -31 206 -82 206 -207c0 -137 -109 -198 -244 -198z" />
    <glyph glyph-name="Scaron.sc" horiz-adv-x="554" 
d="M487 825l-139 -170h-122l-139 170h86l114 -85l114 85h86zM267 -10c-90 0 -169 26 -214 58l-9 144h88c24 -98 67 -141 149 -141c54 0 94 23 94 74c0 41 -28 61 -124 86c-134 34 -201 89 -201 202c0 128 95 203 225 203c84 0 157 -23 201 -54v-130h-75
c-24 70 -53 124 -134 124c-58 0 -87 -31 -87 -73c0 -47 32 -66 125 -88c131 -31 206 -82 206 -207c0 -137 -109 -198 -244 -198z" />
    <glyph glyph-name="Scedilla.sc" horiz-adv-x="554" 
d="M170 -231l-10 46c72 0 115 13 115 41c0 26 -37 35 -86 37l40 99c-74 6 -138 28 -176 56l-9 144h88c24 -98 67 -141 149 -141c54 0 94 23 94 74c0 41 -28 61 -124 86c-134 34 -201 89 -201 202c0 128 95 203 225 203c84 0 157 -23 201 -54v-130h-75
c-24 70 -53 124 -134 124c-58 0 -87 -31 -87 -73c0 -47 32 -66 125 -88c131 -31 206 -82 206 -207c0 -134 -105 -195 -236 -198l-12 -35c60 -5 99 -27 99 -77c0 -73 -92 -109 -192 -109z" />
    <glyph glyph-name="Scircumflex.sc" horiz-adv-x="554" 
d="M344 817l139 -170h-86l-114 85l-114 -85h-86l139 170h122zM267 -10c-90 0 -169 26 -214 58l-9 144h88c24 -98 67 -141 149 -141c54 0 94 23 94 74c0 41 -28 61 -124 86c-134 34 -201 89 -201 202c0 128 95 203 225 203c84 0 157 -23 201 -54v-130h-75
c-24 70 -53 124 -134 124c-58 0 -87 -31 -87 -73c0 -47 32 -66 125 -88c131 -31 206 -82 206 -207c0 -137 -109 -198 -244 -198z" />
    <glyph glyph-name="Scommaaccent.sc" horiz-adv-x="554" 
d="M310 -157h-57c-30 8 -48 26 -48 59c0 35 30 62 80 62c59 0 94 -39 94 -94c0 -65 -45 -116 -167 -116v43c64 0 96 19 98 46zM267 -10c-90 0 -169 26 -214 58l-9 144h88c24 -98 67 -141 149 -141c54 0 94 23 94 74c0 41 -28 61 -124 86c-134 34 -201 89 -201 202
c0 128 95 203 225 203c84 0 157 -23 201 -54v-130h-75c-24 70 -53 124 -134 124c-58 0 -87 -31 -87 -73c0 -47 32 -66 125 -88c131 -31 206 -82 206 -207c0 -137 -109 -198 -244 -198z" />
    <glyph glyph-name="Tbar.sc" horiz-adv-x="647" 
d="M35 606h577l14 -207h-69c-39 95 -58 147 -128 147h-20v-209h93v-66h-93v-151c0 -45 20 -56 79 -59v-61h-329v61c59 3 80 14 80 59v151h-94v66h94v209h-21c-69 0 -89 -52 -128 -147h-69z" />
    <glyph glyph-name="Tcaron.sc" horiz-adv-x="647" 
d="M35 606h577l14 -207h-69c-39 95 -58 147 -128 147h-20v-426c0 -45 20 -56 79 -59v-61h-329v61c59 3 80 14 80 59v426h-21c-69 0 -89 -52 -128 -147h-69zM523 825l-139 -170h-122l-139 170h86l114 -85l114 85h86z" />
    <glyph glyph-name="Thorn.sc" horiz-adv-x="618" 
d="M278 415v-226h19c75 0 126 32 126 117c0 76 -57 109 -130 109h-15zM278 479h62c171 0 256 -68 256 -174c0 -120 -89 -174 -256 -174h-62v-11c0 -45 28 -55 102 -59v-61h-346v62c59 3 70 13 70 58v366c0 45 -11 55 -70 58v62h314v-62c-60 -3 -70 -13 -70 -57v-8z" />
    <glyph glyph-name="Uacute.sc" horiz-adv-x="697" 
d="M400 816h170l-154 -162h-85zM269 486v-254c0 -89 26 -148 115 -148c79 0 136 31 136 156v246c0 45 -19 55 -77 58v62h230v-62c-58 -3 -70 -13 -70 -58v-273c0 -152 -109 -223 -244 -223c-170 0 -266 75 -266 223v273c0 45 -11 55 -69 58v62h312v-62
c-57 -3 -67 -13 -67 -58z" />
    <glyph glyph-name="Ubreve.sc" horiz-adv-x="697" 
d="M269 486v-254c0 -89 26 -148 115 -148c79 0 136 31 136 156v246c0 45 -19 55 -77 58v62h230v-62c-58 -3 -70 -13 -70 -58v-273c0 -152 -109 -223 -244 -223c-170 0 -266 75 -266 223v273c0 45 -11 55 -69 58v62h312v-62c-57 -3 -67 -13 -67 -58zM373 652
c-98 0 -155 63 -155 170h64c8 -64 51 -83 91 -83c41 0 84 19 92 83h64c0 -107 -57 -170 -156 -170z" />
    <glyph glyph-name="Ucircumflex.sc" horiz-adv-x="697" 
d="M434 817l139 -170h-86l-114 85l-114 -85h-86l139 170h122zM269 486v-254c0 -89 26 -148 115 -148c79 0 136 31 136 156v246c0 45 -19 55 -77 58v62h230v-62c-58 -3 -70 -13 -70 -58v-273c0 -152 -109 -223 -244 -223c-170 0 -266 75 -266 223v273c0 45 -11 55 -69 58v62
h312v-62c-57 -3 -67 -13 -67 -58z" />
    <glyph glyph-name="Udieresis.sc" horiz-adv-x="697" 
d="M182 739c0 45 37 83 83 83s84 -38 84 -83s-38 -83 -84 -83s-83 38 -83 83zM396 739c0 45 38 83 82 83c48 0 85 -38 85 -83s-37 -83 -85 -83c-44 0 -82 38 -82 83zM269 486v-254c0 -89 26 -148 115 -148c79 0 136 31 136 156v246c0 45 -19 55 -77 58v62h230v-62
c-58 -3 -70 -13 -70 -58v-273c0 -152 -109 -223 -244 -223c-170 0 -266 75 -266 223v273c0 45 -11 55 -69 58v62h312v-62c-57 -3 -67 -13 -67 -58z" />
    <glyph glyph-name="Ugrave.sc" horiz-adv-x="697" 
d="M190 816h170l68 -162h-84zM269 486v-254c0 -89 26 -148 115 -148c79 0 136 31 136 156v246c0 45 -19 55 -77 58v62h230v-62c-58 -3 -70 -13 -70 -58v-273c0 -152 -109 -223 -244 -223c-170 0 -266 75 -266 223v273c0 45 -11 55 -69 58v62h312v-62c-57 -3 -67 -13 -67 -58
z" />
    <glyph glyph-name="Uhungarumlaut.sc" horiz-adv-x="697" 
d="M311 816h147l-136 -162h-78zM497 816h147l-136 -162h-78zM269 486v-254c0 -89 26 -148 115 -148c79 0 136 31 136 156v246c0 45 -19 55 -77 58v62h230v-62c-58 -3 -70 -13 -70 -58v-273c0 -152 -109 -223 -244 -223c-170 0 -266 75 -266 223v273c0 45 -11 55 -69 58v62
h312v-62c-57 -3 -67 -13 -67 -58z" />
    <glyph glyph-name="Umacron.sc" horiz-adv-x="697" 
d="M224 676v93h298v-93h-298zM269 486v-254c0 -89 26 -148 115 -148c79 0 136 31 136 156v246c0 45 -19 55 -77 58v62h230v-62c-58 -3 -70 -13 -70 -58v-273c0 -152 -109 -223 -244 -223c-170 0 -266 75 -266 223v273c0 45 -11 55 -69 58v62h312v-62c-57 -3 -67 -13 -67 -58
z" />
    <glyph glyph-name="Uogonek.sc" horiz-adv-x="697" 
d="M269 486v-254c0 -89 26 -148 115 -148c79 0 136 31 136 156v246c0 45 -19 55 -77 58v62h230v-62c-58 -3 -70 -13 -70 -58v-273c0 -107 -54 -173 -132 -204c-56 -28 -89 -64 -89 -104c0 -23 13 -41 45 -41c22 0 44 4 74 23l18 -26c-42 -46 -86 -74 -142 -74
c-52 0 -95 31 -95 83s35 90 82 120h-5c-170 0 -266 75 -266 223v273c0 45 -11 55 -69 58v62h312v-62c-57 -3 -67 -13 -67 -58z" />
    <glyph glyph-name="Uring.sc" horiz-adv-x="697" 
d="M273 745c0 56 45 99 109 99s109 -43 109 -99s-45 -99 -109 -99s-109 43 -109 99zM429 745c0 26 -16 46 -47 46s-47 -20 -47 -46s16 -46 47 -46s47 20 47 46zM269 486v-254c0 -89 26 -148 115 -148c79 0 136 31 136 156v246c0 45 -19 55 -77 58v62h230v-62
c-58 -3 -70 -13 -70 -58v-273c0 -152 -109 -223 -244 -223c-170 0 -266 75 -266 223v273c0 45 -11 55 -69 58v62h312v-62c-57 -3 -67 -13 -67 -58z" />
    <glyph glyph-name="Utilde.sc" horiz-adv-x="697" 
d="M269 486v-254c0 -89 26 -148 115 -148c79 0 136 31 136 156v246c0 45 -19 55 -77 58v62h230v-62c-58 -3 -70 -13 -70 -58v-273c0 -152 -109 -223 -244 -223c-170 0 -266 75 -266 223v273c0 45 -11 55 -69 58v62h312v-62c-57 -3 -67 -13 -67 -58zM516 818l55 -12
c-52 -121 -80 -143 -136 -143c-57 0 -100 62 -138 62c-30 0 -46 -24 -65 -56l-56 11c53 121 80 144 137 144c64 0 99 -63 138 -63c29 0 45 24 65 57z" />
    <glyph glyph-name="Wacute.sc" horiz-adv-x="908" 
d="M658 231l84 223c9 27 13 43 13 52c0 25 -9 35 -61 38v62h202v-62c-24 -4 -43 -8 -52 -32l-199 -515h-57l-122 329l-128 -329h-59l-217 515c-9 21 -26 28 -49 32v62h292v-62c-38 -4 -53 -15 -53 -38c0 -9 4 -24 12 -44l92 -237l75 199l-31 88c-8 19 -21 28 -45 32v62h281
v-62c-53 -3 -62 -13 -62 -38c0 -9 3 -23 13 -55zM499 816h170l-154 -162h-85z" />
    <glyph glyph-name="Wcircumflex.sc" horiz-adv-x="908" 
d="M548 817l139 -170h-86l-114 85l-114 -85h-86l139 170h122zM658 231l84 223c9 27 13 43 13 52c0 25 -9 35 -61 38v62h202v-62c-24 -4 -43 -8 -52 -32l-199 -515h-57l-122 329l-128 -329h-59l-217 515c-9 21 -26 28 -49 32v62h292v-62c-38 -4 -53 -15 -53 -38
c0 -9 4 -24 12 -44l92 -237l75 199l-31 88c-8 19 -21 28 -45 32v62h281v-62c-53 -3 -62 -13 -62 -38c0 -9 3 -23 13 -55z" />
    <glyph glyph-name="Wgrave.sc" horiz-adv-x="908" 
d="M658 231l84 223c9 27 13 43 13 52c0 25 -9 35 -61 38v62h202v-62c-24 -4 -43 -8 -52 -32l-199 -515h-57l-122 329l-128 -329h-59l-217 515c-9 21 -26 28 -49 32v62h292v-62c-38 -4 -53 -15 -53 -38c0 -9 4 -24 12 -44l92 -237l75 199l-31 88c-8 19 -21 28 -45 32v62h281
v-62c-53 -3 -62 -13 -62 -38c0 -9 3 -23 13 -55zM289 816h170l68 -162h-84z" />
    <glyph glyph-name="Wdieresis.sc" horiz-adv-x="908" 
d="M290 739c0 45 37 83 83 83s84 -38 84 -83s-38 -83 -84 -83s-83 38 -83 83zM504 739c0 45 38 83 82 83c48 0 85 -38 85 -83s-37 -83 -85 -83c-44 0 -82 38 -82 83zM658 231l84 223c9 27 13 43 13 52c0 25 -9 35 -61 38v62h202v-62c-24 -4 -43 -8 -52 -32l-199 -515h-57
l-122 329l-128 -329h-59l-217 515c-9 21 -26 28 -49 32v62h292v-62c-38 -4 -53 -15 -53 -38c0 -9 4 -24 12 -44l92 -237l75 199l-31 88c-8 19 -21 28 -45 32v62h281v-62c-53 -3 -62 -13 -62 -38c0 -9 3 -23 13 -55z" />
    <glyph glyph-name="Yacute.sc" horiz-adv-x="635" 
d="M370 816h170l-154 -162h-85zM366 295l91 161c13 24 21 41 21 54c0 23 -18 32 -59 34v62h203v-62c-25 -4 -39 -10 -51 -32l-167 -293v-99c0 -45 16 -56 74 -59v-61h-316v61c58 3 75 14 75 59v100l-175 292c-13 23 -25 28 -49 32v62h300v-62c-46 -2 -58 -11 -58 -34
c0 -16 8 -31 20 -54z" />
    <glyph glyph-name="Ycircumflex.sc" horiz-adv-x="635" 
d="M403 817l139 -170h-86l-114 85l-114 -85h-86l139 170h122zM366 295l91 161c13 24 21 41 21 54c0 23 -18 32 -59 34v62h203v-62c-25 -4 -39 -10 -51 -32l-167 -293v-99c0 -45 16 -56 74 -59v-61h-316v61c58 3 75 14 75 59v100l-175 292c-13 23 -25 28 -49 32v62h300v-62
c-46 -2 -58 -11 -58 -34c0 -16 8 -31 20 -54z" />
    <glyph glyph-name="Ydieresis.sc" horiz-adv-x="635" 
d="M151 739c0 45 37 83 83 83s84 -38 84 -83s-38 -83 -84 -83s-83 38 -83 83zM365 739c0 45 38 83 82 83c48 0 85 -38 85 -83s-37 -83 -85 -83c-44 0 -82 38 -82 83zM366 295l91 161c13 24 21 41 21 54c0 23 -18 32 -59 34v62h203v-62c-25 -4 -39 -10 -51 -32l-167 -293v-99
c0 -45 16 -56 74 -59v-61h-316v61c58 3 75 14 75 59v100l-175 292c-13 23 -25 28 -49 32v62h300v-62c-46 -2 -58 -11 -58 -34c0 -16 8 -31 20 -54z" />
    <glyph glyph-name="Ygrave.sc" horiz-adv-x="635" 
d="M366 295l91 161c13 24 21 41 21 54c0 23 -18 32 -59 34v62h203v-62c-25 -4 -39 -10 -51 -32l-167 -293v-99c0 -45 16 -56 74 -59v-61h-316v61c58 3 75 14 75 59v100l-175 292c-13 23 -25 28 -49 32v62h300v-62c-46 -2 -58 -11 -58 -34c0 -16 8 -31 20 -54zM158 816h170
l68 -162h-84z" />
    <glyph glyph-name="Zacute.sc" horiz-adv-x="586" 
d="M335 816h170l-154 -162h-85zM232 64h114c63 0 83 15 150 140h66l-31 -204h-505v43l319 498h-109c-72 0 -82 -48 -118 -118h-62v183h491v-45z" />
    <glyph glyph-name="Zcaron.sc" horiz-adv-x="586" 
d="M516 825l-139 -170h-122l-139 170h86l114 -85l114 85h86zM232 64h114c63 0 83 15 150 140h66l-31 -204h-505v43l319 498h-109c-72 0 -82 -48 -118 -118h-62v183h491v-45z" />
    <glyph glyph-name="Zdotaccent.sc" horiz-adv-x="586" 
d="M232 64h114c63 0 83 15 150 140h66l-31 -204h-505v43l319 498h-109c-72 0 -82 -48 -118 -118h-62v183h491v-45zM317 652c-59 0 -96 41 -96 89s37 89 96 89c58 0 94 -41 94 -89s-36 -89 -94 -89z" />
    <glyph glyph-name="ampersand.sc" horiz-adv-x="667" 
d="M14 158c0 92 62 136 150 166c-24 29 -52 72 -52 128c0 100 77 164 200 164c113 0 187 -49 187 -131c0 -74 -67 -115 -146 -140l136 -158c9 20 14 40 14 62c0 27 -10 37 -41 37v59h187v-59c-62 0 -78 -14 -90 -62c-7 -28 -19 -54 -35 -78l35 -40c28 -32 49 -44 89 -44v-62
h-186c-19 12 -36 25 -50 39c-52 -31 -112 -49 -174 -49c-128 0 -224 64 -224 168zM309 71c20 0 41 4 61 11c-9 9 -17 19 -24 28l-153 180c-21 -21 -33 -52 -33 -85c0 -77 59 -134 149 -134zM256 500c0 -40 33 -82 64 -117l6 -7c33 26 48 64 48 115c0 39 -23 68 -60 68
c-38 0 -58 -24 -58 -59z" />
    <glyph glyph-name="caron.Slovak" horiz-adv-x="500" 
d="M350 765l-91 -205h-68l15 205h144z" />
    <glyph glyph-name="cedilla.alt" horiz-adv-x="500" 
d="M195 -45h37c72 0 111 -27 111 -77c0 -73 -92 -109 -192 -109l-10 46c72 0 115 13 115 41c0 26 -37 35 -86 37z" />
    <glyph glyph-name="grave.cap" horiz-adv-x="500" 
d="M127 909h172l73 -156h-89z" />
    <glyph glyph-name="acute.cap" horiz-adv-x="500" 
d="M200 909h172l-156 -156h-89z" />
    <glyph glyph-name="circumflex.cap" horiz-adv-x="500" 
d="M311 918l141 -167h-86l-116 82l-116 -82h-86l141 167h122z" />
    <glyph glyph-name="tilde.cap" horiz-adv-x="500" 
d="M392 899l55 -12c-52 -120 -80 -143 -136 -143c-57 0 -100 62 -138 62c-30 0 -46 -24 -65 -56l-56 12c53 120 80 143 137 143c64 0 99 -63 138 -63c29 0 45 24 65 57z" />
    <glyph glyph-name="macron.cap" horiz-adv-x="500" 
d="M95 763v97h310v-97h-310z" />
    <glyph glyph-name="breve.cap" horiz-adv-x="500" 
d="M250 748c-99 0 -158 63 -158 168h64c8 -63 54 -81 94 -81s86 18 94 81h64c0 -105 -59 -168 -158 -168z" />
    <glyph glyph-name="dotaccent.cap" horiz-adv-x="500" 
d="M250 748c-58 0 -95 41 -95 89s37 90 95 90s95 -42 95 -90s-37 -89 -95 -89z" />
    <glyph glyph-name="dieresis.cap" horiz-adv-x="500" 
d="M58 831c0 45 37 83 83 83s84 -38 84 -83s-38 -83 -84 -83s-83 38 -83 83zM274 831c0 45 38 83 82 83c48 0 85 -38 85 -83s-37 -83 -85 -83c-44 0 -82 38 -82 83z" />
    <glyph glyph-name="ring.cap" horiz-adv-x="500" 
d="M141 839c0 56 45 99 109 99s109 -43 109 -99s-45 -99 -109 -99s-109 43 -109 99zM297 839c0 26 -16 46 -47 46s-47 -20 -47 -46s16 -46 47 -46s47 20 47 46z" />
    <glyph glyph-name="hungarumlaut.cap" horiz-adv-x="500" 
d="M121 909h147l-136 -156h-78zM307 909h147l-136 -156h-78z" />
    <glyph glyph-name="caron.cap" horiz-adv-x="500" 
d="M452 921l-141 -167h-122l-141 167h86l116 -82l116 82h86z" />
    <glyph glyph-name="exclamdown.cap" horiz-adv-x="327" 
d="M67 614c0 53 44 97 96 97c54 0 96 -44 96 -97c0 -55 -42 -99 -96 -99c-52 0 -96 44 -96 99zM203 469l56 -469h-191l56 469h79z" />
    <glyph glyph-name="questiondown.cap" horiz-adv-x="472" 
d="M173 124c0 -47 28 -70 69 -70c53 0 72 37 72 85v50h104c25 -14 36 -37 36 -63c0 -79 -82 -136 -212 -136c-135 0 -215 55 -215 167c0 81 42 131 117 176c66 38 81 69 81 111v27h49c28 -18 55 -55 55 -100c0 -46 -18 -86 -65 -123c-47 -38 -91 -68 -91 -124zM346 613
c0 -55 -42 -99 -95 -99c-54 0 -96 44 -96 99c0 53 42 97 96 97c53 0 95 -44 95 -97z" />
    <glyph glyph-name="exclam.sc" horiz-adv-x="295" 
d="M241 606l-55 -390h-77l-56 390h188zM55 80c0 51 41 91 92 91s92 -40 92 -91c0 -50 -41 -90 -92 -90s-92 40 -92 90z" />
    <glyph glyph-name="exclamdown.sc" horiz-adv-x="295" 
d="M186 390l55 -390h-188l56 390h77zM55 526c0 50 41 90 92 90s92 -40 92 -90c0 -51 -41 -91 -92 -91s-92 40 -92 91z" />
    <glyph glyph-name="question.sc" horiz-adv-x="422" 
d="M265 503c0 37 -22 52 -53 52c-45 0 -61 -32 -61 -70v-47h-97c-24 13 -34 35 -34 59c0 70 71 119 192 119c124 0 194 -47 194 -144c0 -70 -37 -114 -103 -151c-61 -32 -72 -57 -72 -89v-22h-47c-29 18 -55 47 -55 89c0 36 14 71 54 99c49 34 82 61 82 105zM108 80
c0 51 41 91 91 91c52 0 93 -40 93 -91c0 -50 -41 -90 -93 -90c-50 0 -91 40 -91 90z" />
    <glyph glyph-name="questiondown.sc" horiz-adv-x="422" 
d="M157 105c0 -37 22 -52 53 -52c45 0 61 32 61 70v47h97c24 -13 34 -35 34 -59c0 -70 -71 -119 -192 -119c-124 0 -194 47 -194 144c0 70 37 114 103 151c61 32 72 57 72 89v22h47c29 -18 55 -47 55 -89c0 -36 -14 -71 -54 -99c-49 -34 -82 -61 -82 -105zM314 528
c0 -51 -41 -91 -91 -91c-52 0 -93 40 -93 91c0 50 41 90 93 90c50 0 91 -40 91 -90z" />
    <glyph glyph-name="guilsinglleft.cap" horiz-adv-x="330" 
d="M38 343v10l177 198h79l-113 -203l113 -203h-79z" />
    <glyph glyph-name="guilsinglright.cap" horiz-adv-x="330" 
d="M292 353v-10l-175 -198h-81l114 203l-114 203h81z" />
    <glyph glyph-name="guillemotleft.cap" horiz-adv-x="547" 
d="M38 343v10l177 198h79l-113 -203l113 -203h-79zM254 343v10l177 198h80l-115 -203l115 -203h-80z" />
    <glyph glyph-name="guillemotright.cap" horiz-adv-x="547" 
d="M292 353v-10l-175 -198h-81l114 203l-114 203h81zM509 353v-10l-177 -198h-79l114 203l-114 203h79z" />
    <glyph glyph-name="slash.cap" horiz-adv-x="433" 
d="M401 770l-271 -871h-98l271 871h98z" />
    <glyph glyph-name="backslash.cap" horiz-adv-x="433" 
d="M302 -101l-269 871h98l269 -871h-98z" />
    <glyph glyph-name="bar.cap" horiz-adv-x="293" 
d="M193 770v-871h-93v871h93z" />
    <glyph glyph-name="brokenbar.cap" horiz-adv-x="293" 
d="M193 770v-371h-93v371h93zM193 270v-371h-93v371h93z" />
    <glyph glyph-name="slash.sc" horiz-adv-x="419" 
d="M395 691l-273 -803h-98l273 803h98z" />
    <glyph glyph-name="backslash.sc" horiz-adv-x="419" 
d="M297 -112l-273 803h98l273 -803h-98z" />
    <glyph glyph-name="bar.sc" horiz-adv-x="293" 
d="M193 691v-803h-93v803h93z" />
    <glyph glyph-name="brokenbar.sc" horiz-adv-x="293" 
d="M193 225v-337h-93v337h93zM193 691v-337h-93v337h93z" />
    <glyph glyph-name="periodcentered.cap" horiz-adv-x="303" 
d="M51 355c0 59 45 101 100 101c56 0 101 -42 101 -101c0 -58 -45 -100 -101 -100c-55 0 -100 42 -100 100z" />
    <glyph glyph-name="bullet.cap" horiz-adv-x="408" 
d="M51 358c0 86 69 157 153 157c85 0 153 -71 153 -157c0 -84 -68 -155 -153 -155c-84 0 -153 71 -153 155z" />
    <glyph glyph-name="hyphen.cap" horiz-adv-x="360" 
d="M310 302h-260v108h260v-108z" />
    <glyph glyph-name="endash.cap" horiz-adv-x="580" 
d="M530 315h-480v82h480v-82z" />
    <glyph glyph-name="emdash.cap" horiz-adv-x="1000" 
d="M950 397v-82h-900v82h900z" />
    <glyph glyph-name="parenleft.cap" horiz-adv-x="378" 
d="M60 334c0 165 78 323 209 436h87c-128 -136 -161 -283 -161 -436s33 -300 161 -436h-87c-131 113 -209 271 -209 436z" />
    <glyph glyph-name="parenright.cap" horiz-adv-x="378" 
d="M318 334c0 -165 -78 -323 -209 -436h-87c128 136 161 283 161 436s-33 300 -161 436h87c131 -113 209 -271 209 -436z" />
    <glyph glyph-name="bracketleft.cap" horiz-adv-x="348" 
d="M198 662v-655c0 -52 33 -55 113 -60v-48h-226v871h226v-48c-80 -5 -113 -8 -113 -60z" />
    <glyph glyph-name="bracketright.cap" horiz-adv-x="348" 
d="M150 7v655c0 52 -33 55 -113 60v48h226v-871h-226v48c80 5 113 8 113 60z" />
    <glyph glyph-name="braceleft.cap" horiz-adv-x="383" 
d="M50 319v32c48 10 83 36 83 100v191c0 79 67 128 213 128v-38c-47 -6 -95 -31 -95 -98v-187c0 -68 -24 -92 -91 -112c67 -20 91 -44 91 -112v-186c0 -67 48 -92 95 -98v-39c-146 0 -213 49 -213 128v191c0 64 -35 90 -83 100z" />
    <glyph glyph-name="braceright.cap" horiz-adv-x="383" 
d="M333 351v-32c-48 -10 -83 -36 -83 -100v-191c0 -79 -68 -128 -213 -128v39c47 6 94 31 94 98v186c0 68 24 92 91 112c-67 20 -91 44 -91 112v187c0 67 -47 92 -94 98v38c145 0 213 -49 213 -128v-191c0 -64 35 -90 83 -100z" />
    <glyph glyph-name="parenleft.sc" horiz-adv-x="378" 
d="M60 290c0 151 75 297 208 401h90c-129 -125 -163 -261 -163 -401c0 -141 34 -277 163 -402h-90c-133 104 -208 250 -208 402z" />
    <glyph glyph-name="parenright.sc" horiz-adv-x="378" 
d="M318 290c0 -152 -76 -298 -208 -402h-90c128 125 162 261 162 402c0 140 -34 276 -162 401h90c132 -104 208 -250 208 -401z" />
    <glyph glyph-name="bracketleft.sc" horiz-adv-x="348" 
d="M198 583v-586c0 -52 33 -55 113 -60v-48h-226v802h226v-48c-80 -5 -113 -8 -113 -60z" />
    <glyph glyph-name="bracketright.sc" horiz-adv-x="348" 
d="M150 -3v586c0 52 -33 55 -113 60v48h226v-802h-226v48c80 5 113 8 113 60z" />
    <glyph glyph-name="braceleft.sc" horiz-adv-x="373" 
d="M150 290c67 -20 91 -44 91 -112v-153c0 -67 48 -92 95 -98v-39c-146 0 -213 49 -213 128v158c0 64 -35 90 -83 100v32c48 10 83 36 83 100v157c0 79 67 128 213 128v-39c-47 -6 -95 -31 -95 -98v-152c0 -68 -24 -92 -91 -112z" />
    <glyph glyph-name="braceright.sc" horiz-adv-x="373" 
d="M222 290c-67 20 -91 44 -91 112v152c0 67 -47 92 -94 98v39c145 0 213 -49 213 -128v-157c0 -64 35 -90 83 -100v-32c-48 -10 -83 -36 -83 -100v-158c0 -79 -68 -128 -213 -128v39c47 6 94 31 94 98v153c0 68 24 92 91 112z" />
    <glyph glyph-name="at.cap" horiz-adv-x="904" 
d="M606 145c-99 0 -120 76 -102 159h-5c-38 -82 -97 -159 -171 -159c-59 0 -103 48 -103 128c0 139 112 289 254 289c42 0 72 -19 88 -38l73 31h52l-33 -93l-51 -185c-10 -38 -6 -78 28 -78c70 0 141 81 141 236c0 149 -110 276 -292 276c-215 0 -354 -167 -354 -393
c0 -215 154 -325 344 -325c111 0 184 24 268 70l18 -32c-69 -59 -168 -100 -299 -100c-227 0 -412 144 -412 383c0 253 182 447 435 447c232 0 369 -152 369 -326c0 -206 -136 -290 -248 -290zM388 232c48 0 116 111 146 248c-9 22 -19 35 -40 35c-79 0 -139 -133 -139 -229
c0 -34 11 -54 33 -54z" />
    <glyph glyph-name="florin.op" horiz-adv-x="543" 
d="M54 264l7 58h90l4 33c23 204 97 310 247 310c72 0 139 -24 139 -89c0 -31 -15 -55 -48 -65h-55c0 57 -5 106 -42 106c-29 0 -41 -29 -45 -65l-26 -230h114l-5 -58h-116l-14 -128c-23 -203 -97 -310 -247 -310c-72 0 -139 25 -139 89c0 31 15 55 47 66h55
c1 -57 5 -107 43 -107c28 0 40 30 44 65l37 325h-90z" />
    <glyph glyph-name="Euro.op" horiz-adv-x="673" 
d="M27 358v52h86c35 157 157 255 308 255c85 0 148 -20 194 -62v-150h-75c-22 94 -53 147 -127 147c-79 0 -118 -84 -129 -190h199l-8 -52h-194v-17c0 -16 0 -31 1 -45h184l-9 -52h-171c14 -106 54 -185 140 -185c70 0 112 47 143 159h72l-13 -176
c-52 -34 -134 -52 -212 -52c-168 0 -282 99 -308 254h-81v52h76v19c0 14 0 29 2 43h-78z" />
    <glyph glyph-name="dollar.op" horiz-adv-x="562" 
d="M176 -113l19 109c-63 9 -116 30 -148 56l-10 156h80c11 -75 42 -122 90 -144l33 188l-21 7c-113 36 -175 93 -175 198c0 129 97 208 237 208c11 0 21 -1 32 -1l17 97h53l-19 -104c52 -9 95 -27 126 -49v-141h-68c-9 54 -30 97 -70 121l-32 -180l31 -10
c102 -33 174 -89 174 -200c0 -142 -114 -208 -256 -208c-8 0 -15 0 -22 1l-18 -104h-53zM295 235l-5 1l-33 -186c8 -1 16 -1 25 -1c64 0 109 32 109 91c0 45 -25 74 -96 95zM172 523c0 -51 29 -76 87 -95l11 -4l32 181c-10 1 -21 2 -32 2c-65 0 -98 -38 -98 -84z" />
    <glyph glyph-name="sterling.op" horiz-adv-x="660" 
d="M98 313v52h95l3 45c9 168 91 255 230 255c98 0 175 -31 175 -117c0 -35 -19 -59 -40 -68h-90v53c0 49 -12 78 -48 78c-37 0 -51 -38 -58 -94l-16 -152h148v-52h-153l-5 -51c-4 -41 -12 -81 -21 -105c47 -17 118 -34 172 -34c59 0 82 21 82 84l39 8c9 -18 17 -43 17 -80
c0 -91 -53 -145 -149 -145c-85 0 -159 46 -202 83c-32 -53 -92 -83 -155 -83c-72 0 -113 41 -113 103c0 68 46 107 110 107c19 0 42 -3 63 -11l8 124h-92zM117 42c37 0 55 30 59 85c-17 10 -36 18 -58 18c-34 0 -51 -23 -51 -52c0 -33 21 -51 50 -51z" />
    <glyph glyph-name="yen.op" horiz-adv-x="674" 
d="M99 311v52h84l-116 197c-14 25 -28 31 -55 36v59h314v-59c-54 -2 -67 -12 -67 -37c0 -17 8 -32 20 -55l104 -190l106 190c13 24 21 40 21 55c0 25 -19 35 -68 37v59h221v-59c-28 -5 -42 -11 -56 -36l-113 -197h92v-52h-122l-38 -65h160v-51h-164v-70c0 -51 20 -63 84 -66
v-59h-335v59c65 3 86 15 86 66v70h-158v51h154l-39 65h-115z" />
    <glyph glyph-name="florin.lt" 
d="M114 293l8 58h92l6 51c23 204 97 310 247 310c72 0 139 -24 139 -89c0 -31 -15 -55 -48 -65h-55c0 57 -5 106 -42 106c-29 0 -41 -29 -45 -65l-29 -248h112l-5 -58h-113l-18 -157c-23 -203 -97 -310 -247 -310c-72 0 -139 25 -139 89c0 31 15 55 48 66h55
c0 -57 5 -107 42 -107c29 0 41 30 45 65l40 354h-93z" />
    <glyph glyph-name="Euro.lt" 
d="M13 383v55h64c33 168 150 274 295 274c81 0 142 -21 187 -66v-160h-82c-21 100 -41 156 -113 156c-80 0 -111 -90 -119 -204h184l-9 -55h-177v-18v-47h168l-9 -56h-155c10 -114 41 -198 123 -198c72 0 103 49 132 169h80l-13 -188c-51 -36 -129 -55 -204 -55
c-162 0 -268 105 -292 272h-60v56h55v20c0 15 0 30 1 45h-56z" />
    <glyph glyph-name="dollar.lt" 
d="M189 -113l19 110c-64 10 -118 32 -153 59l-10 167h84c12 -78 43 -129 92 -154l36 203l-19 7c-120 38 -186 98 -186 211c0 137 103 222 251 222c11 0 22 -1 32 -1l19 103h53l-20 -109c56 -10 103 -29 136 -53v-153h-72c-10 60 -32 108 -77 133l-34 -195l36 -12
c113 -37 184 -93 184 -213c0 -152 -120 -222 -271 -222c-10 0 -19 1 -29 1l-18 -104h-53zM318 253l-11 3l-36 -202c11 -2 21 -2 33 -2c67 0 115 36 115 98c0 49 -27 79 -101 103zM188 560c0 -55 30 -82 91 -101l11 -4l34 193c-10 2 -21 3 -33 3c-68 0 -103 -42 -103 -91z
" />
    <glyph glyph-name="cent.lt" 
d="M217 -115l21 114c-112 28 -186 122 -186 260c0 181 126 304 293 305l21 112h55l-22 -116c87 -12 149 -55 149 -133c0 -39 -19 -58 -47 -69h-70v42c0 52 -13 81 -44 95l-70 -374c16 -5 34 -7 53 -7c70 0 113 33 150 81l39 -20c-34 -124 -120 -185 -244 -185
c-8 0 -15 0 -22 1l-20 -106h-56zM200 319c0 -78 24 -138 66 -172l67 357h-2c-74 0 -131 -65 -131 -185z" />
    <glyph glyph-name="sterling.lt" 
d="M87 335v55h89l2 48c5 179 84 274 221 274c92 0 166 -34 166 -122c0 -41 -21 -66 -41 -76h-91v57c0 52 -3 84 -34 84c-36 0 -44 -40 -51 -101l-14 -164h133v-55h-138l-5 -55c-3 -44 -11 -87 -20 -112c44 -20 95 -38 152 -38c53 0 74 24 74 86l40 9c8 -19 16 -47 16 -86
c0 -98 -51 -149 -142 -149c-73 0 -136 49 -177 89c-31 -56 -76 -89 -145 -89c-80 0 -119 44 -119 110c0 68 47 112 107 112c18 0 41 -3 59 -10l5 133h-87zM108 48c34 0 53 30 57 88c-17 11 -33 17 -53 17c-32 0 -50 -22 -50 -53c0 -35 19 -52 46 -52z" />
    <glyph glyph-name="yen.lt" 
d="M73 336v56h79l-100 210c-12 26 -26 32 -50 37v63h302v-63c-49 -2 -62 -12 -62 -39c0 -18 9 -36 18 -60l86 -209l93 211c10 26 18 43 18 58c0 27 -17 37 -62 39v63h203v-63c-24 -5 -40 -11 -51 -37l-96 -210h86v-56h-112l-31 -69h143v-54h-146v-81c0 -55 21 -66 88 -69
v-63h-353v63c66 3 89 14 89 69v81h-142v54h139l-33 69h-106z" />
    <glyph glyph-name="florin.ot" 
d="M119 264l8 58h89l4 33c23 204 97 310 247 310c72 0 139 -24 139 -89c0 -31 -15 -55 -47 -65h-55c0 57 -5 106 -42 106c-29 0 -41 -29 -45 -65l-26 -230h113l-4 -58h-116l-14 -128c-23 -203 -97 -310 -247 -310c-72 0 -139 25 -139 89c0 31 14 55 47 66h55
c0 -57 5 -107 42 -107c29 0 41 30 45 65l36 325h-90z" />
    <glyph glyph-name="Euro.ot" 
d="M18 358v52h70c31 157 142 255 284 255c80 0 139 -20 183 -62v-150h-78c-19 94 -43 147 -105 147c-74 0 -104 -84 -113 -190h170l-8 -52h-164v-17v-45h155l-9 -52h-142c10 -106 40 -185 119 -185c63 0 96 47 125 159h74l-12 -176c-50 -34 -126 -52 -200 -52
c-157 0 -260 99 -283 254h-66v52h61v19c0 14 1 29 2 43h-63z" />
    <glyph glyph-name="dollar.ot" 
d="M195 -113l19 109c-63 9 -116 30 -149 56l-10 156h80c12 -75 42 -123 91 -145l33 189l-21 7c-113 36 -176 93 -176 198c0 129 97 208 237 208c11 0 21 -1 32 -1l17 97h53l-18 -103c52 -10 95 -28 126 -50v-141h-69c-9 54 -29 97 -70 121l-31 -180l31 -10
c102 -33 174 -89 174 -200c0 -142 -115 -208 -257 -208c-7 0 -14 0 -21 1l-18 -104h-53zM313 235l-4 1l-33 -186c8 -1 16 -1 25 -1c64 0 109 32 109 91c0 45 -26 74 -97 95zM190 523c0 -51 29 -76 87 -95l12 -4l31 181c-9 1 -20 2 -31 2c-66 0 -99 -38 -99 -84z" />
    <glyph glyph-name="sterling.ot" 
d="M88 313v52h85l2 37c5 176 91 263 222 263c92 0 165 -31 165 -117c0 -35 -19 -59 -38 -68h-84v53c0 49 -12 78 -43 78c-38 0 -47 -38 -53 -94l-15 -152h135v-52h-140l-5 -51c-4 -41 -10 -81 -20 -105c45 -17 97 -34 148 -34c55 0 77 21 77 84l39 8c9 -18 17 -43 17 -80
c0 -91 -50 -145 -141 -145c-80 0 -137 46 -178 83c-30 -53 -91 -83 -150 -83c-68 0 -108 41 -108 103c0 68 45 107 104 107c18 0 40 -3 60 -11l4 124h-83zM107 44c34 0 51 30 54 83c-15 10 -33 18 -53 18c-31 0 -46 -23 -46 -52c0 -33 18 -49 45 -49z" />
    <glyph glyph-name="yen.ot" 
d="M81 313v52h73l-100 195c-12 24 -26 31 -51 36v59h297v-59c-50 -2 -62 -12 -62 -37c0 -17 7 -35 17 -56l91 -192l94 192c11 24 19 41 19 56c0 25 -19 35 -64 37v59h202v-59c-25 -5 -40 -10 -52 -36l-96 -195h79v-52h-104l-33 -66h137v-51h-143v-71c0 -51 20 -63 84 -66
v-59h-335v59c65 3 86 15 86 66v71h-139v51h133l-34 66h-99z" />
    <glyph glyph-name="zero.op" horiz-adv-x="657" 
d="M223 303c0 -137 25 -250 105 -250s106 113 106 250c0 136 -26 250 -106 250s-105 -114 -105 -250zM40 303c0 186 115 313 288 313c174 0 288 -127 288 -313s-114 -313 -288 -313c-173 0 -288 127 -288 313z" />
    <glyph glyph-name="one.op" horiz-adv-x="441" 
d="M264 614h50v-484c0 -60 7 -65 106 -71v-59h-381v59c103 6 109 11 109 71v295h-111v58l35 6c98 18 138 47 192 125z" />
    <glyph glyph-name="two.op" horiz-adv-x="539" 
d="M179 131h175c63 0 84 15 117 74h44l-23 -205h-471v52l110 106c94 89 178 151 178 239c0 56 -33 96 -101 96c-72 0 -119 -46 -151 -84l-34 34c47 92 136 173 257 173c125 0 194 -70 194 -173c0 -133 -141 -207 -295 -312z" />
    <glyph glyph-name="three.op" horiz-adv-x="519" 
d="M290 297c120 -7 203 -75 203 -189c0 -141 -133 -215 -267 -215s-206 50 -206 121c0 34 19 56 39 66h85c2 -83 35 -130 101 -130c59 0 91 46 91 113c0 96 -52 157 -178 157l-11 42c107 42 154 89 154 147c0 50 -31 86 -90 86c-61 0 -103 -36 -137 -74l-35 30
c43 90 123 165 241 165c109 0 179 -62 179 -151c0 -96 -88 -151 -169 -168z" />
    <glyph glyph-name="four.op" horiz-adv-x="628" 
d="M109 152h221v308zM488 -96h-158v183h-316v50l343 471h131v-456h126v-65h-126v-183z" />
    <glyph glyph-name="five.op" horiz-adv-x="513" 
d="M249 -50c63 0 99 42 99 104c0 106 -121 157 -285 170l61 382h325v-155h-296l-12 -83c187 -13 338 -84 338 -253c0 -141 -115 -222 -255 -222c-132 0 -204 50 -204 121c0 34 19 56 39 66h85c2 -83 35 -130 105 -130z" />
    <glyph glyph-name="six.op" horiz-adv-x="610" 
d="M498 662c-193 -32 -262 -134 -283 -274c36 42 91 70 164 70c108 0 195 -74 195 -211c0 -171 -123 -257 -257 -257c-163 0 -277 119 -277 302c0 229 164 410 439 421zM281 370c-28 0 -51 -7 -70 -16c-2 -21 -3 -43 -3 -61c0 -121 32 -238 118 -238c63 0 99 56 99 149
s-44 166 -144 166z" />
    <glyph glyph-name="seven.op" horiz-adv-x="518" 
d="M389 454h-223c-47 0 -69 -22 -93 -85h-55l44 237h454v-43l-306 -659h-118z" />
    <glyph glyph-name="eight.op" horiz-adv-x="584" 
d="M515 548c0 -80 -61 -130 -131 -145l18 -9c81 -36 141 -94 141 -189c0 -131 -97 -215 -254 -215c-156 0 -255 70 -255 177c0 85 61 135 140 154l-9 5c-66 40 -109 87 -109 179c0 122 92 207 232 207c141 0 227 -63 227 -164zM329 251l-121 51c-32 -23 -48 -67 -48 -117
c0 -77 50 -131 129 -131c70 0 121 35 121 97c0 48 -33 78 -81 100zM265 458l78 -36c31 23 53 67 53 119c0 64 -42 107 -108 107c-63 0 -100 -38 -100 -91c0 -47 27 -76 77 -99z" />
    <glyph glyph-name="nine.op" horiz-adv-x="610" 
d="M105 -56c193 32 262 134 283 274c-36 -42 -91 -70 -164 -70c-108 0 -195 74 -195 211c0 171 123 257 257 257c163 0 277 -119 277 -302c0 -229 -164 -410 -439 -421zM322 236c28 0 51 7 70 16c2 21 3 43 3 61c0 121 -32 238 -118 238c-63 0 -99 -56 -99 -149
s44 -166 144 -166z" />
    <glyph glyph-name="zero.lt" 
d="M212 351c0 -183 20 -291 88 -291s88 108 88 291s-20 292 -88 292s-88 -109 -88 -292zM573 351c0 -207 -95 -360 -273 -360s-273 153 -273 360s95 361 273 361s273 -154 273 -361z" />
    <glyph glyph-name="one.lt" 
d="M351 711h50v-577c0 -60 41 -70 145 -70v-64h-466v64c114 0 154 10 154 70v388h-152v58l45 4c118 13 173 50 224 127z" />
    <glyph glyph-name="two.lt" 
d="M188 135h170c70 0 94 7 145 96h45l-26 -231h-503v50l195 189c94 90 123 151 123 226c0 79 -45 117 -119 117c-68 0 -108 -36 -144 -71l-35 38c51 89 133 163 260 163c133 0 217 -71 217 -194c0 -143 -149 -254 -328 -383z" />
    <glyph glyph-name="three.lt" 
d="M339 395c126 -8 210 -74 210 -188c0 -143 -137 -217 -277 -217c-155 0 -238 68 -238 146c0 39 24 66 46 77h100v-36c0 -83 37 -128 107 -128c62 0 98 40 98 111c0 96 -62 157 -164 157h-25l-12 42c113 41 159 86 159 144c0 50 -33 85 -94 85c-65 0 -109 -35 -144 -73
l-37 32c46 91 129 165 256 165c110 0 184 -62 184 -157c0 -90 -83 -143 -169 -160z" />
    <glyph glyph-name="four.lt" 
d="M108 254h206v300zM314 132v49h-295v59l322 462h132v-448h102v-73h-102v-49c0 -54 17 -66 85 -69v-63h-329v63c68 3 85 15 85 69z" />
    <glyph glyph-name="five.lt" 
d="M501 702v-155h-313l-14 -84c216 -4 368 -74 368 -246c0 -145 -109 -226 -257 -226c-155 0 -238 65 -238 145c0 38 23 67 46 78h101v-29c0 -90 35 -133 107 -133c68 0 102 43 102 101c0 103 -103 163 -311 163l64 386h345z" />
    <glyph glyph-name="six.lt" 
d="M497 661c-197 -32 -270 -133 -292 -273c37 39 96 74 171 74c109 0 197 -77 197 -215c0 -171 -124 -257 -261 -257c-168 0 -283 119 -283 302c0 229 152 412 447 421zM272 370c-28 0 -51 -8 -71 -17c-2 -21 -3 -42 -3 -61c0 -120 36 -237 122 -237c65 0 103 55 103 148
c0 94 -49 167 -151 167z" />
    <glyph glyph-name="seven.lt" 
d="M449 545h-272c-47 0 -69 -21 -93 -85h-55l44 242h504v-42l-298 -660h-132z" />
    <glyph glyph-name="eight.lt" 
d="M538 548c0 -80 -63 -127 -138 -143l18 -8c97 -43 149 -97 149 -192c0 -132 -102 -215 -265 -215s-267 65 -267 177c0 85 62 132 146 151l-9 5c-68 31 -114 90 -114 176c0 132 96 213 244 213c145 0 236 -63 236 -164zM343 248l-127 51c-32 -23 -50 -64 -50 -114
c0 -77 53 -131 136 -131c72 0 124 35 124 97c0 48 -33 76 -83 97zM276 461l81 -36c33 23 56 64 56 116c0 64 -43 107 -111 107s-106 -38 -106 -91c0 -47 28 -73 80 -96z" />
    <glyph glyph-name="nine.lt" 
d="M103 41c197 32 270 133 292 273c-37 -39 -96 -74 -171 -74c-109 0 -197 77 -197 215c0 171 124 257 261 257c168 0 283 -119 283 -302c0 -229 -152 -412 -447 -421zM328 332c28 0 51 8 71 17c2 21 3 42 3 61c0 120 -36 237 -122 237c-65 0 -103 -55 -103 -148
c0 -94 49 -167 151 -167z" />
    <glyph glyph-name="zero.ot" 
d="M300 53c70 0 91 113 91 250c0 136 -21 250 -91 250s-91 -114 -91 -250c0 -137 21 -250 91 -250zM300 -10c-173 0 -273 127 -273 313s100 313 273 313s273 -127 273 -313s-100 -313 -273 -313z" />
    <glyph glyph-name="one.ot" 
d="M353 614h50v-480c0 -60 40 -70 145 -70v-64h-466v64c115 0 154 10 154 70v291h-152v58l45 4c119 13 172 50 224 127z" />
    <glyph glyph-name="two.ot" 
d="M193 131h189c64 0 86 15 119 74h45l-23 -205h-491v52l113 106c96 90 187 153 187 240c0 55 -34 95 -103 95c-75 0 -125 -46 -157 -84l-35 34c48 92 139 173 263 173c128 0 200 -70 200 -173c0 -133 -148 -207 -307 -312z" />
    <glyph glyph-name="three.ot" 
d="M319 296c125 -7 211 -74 211 -188c0 -141 -138 -215 -276 -215s-214 50 -214 121c0 34 21 56 41 66h88c2 -83 36 -130 107 -130c61 0 96 46 96 113c0 96 -53 157 -189 157l-11 42c111 42 163 87 163 147c0 52 -33 88 -96 88c-65 0 -107 -38 -142 -76l-36 30
c44 90 126 165 249 165c112 0 185 -62 185 -151c0 -96 -91 -152 -176 -169z" />
    <glyph glyph-name="four.ot" 
d="M98 152h218v308zM475 -96h-159v183h-301v50l328 471h132v-456h111v-65h-111v-183z" />
    <glyph glyph-name="five.ot" 
d="M291 -50c63 0 101 42 101 105c0 105 -125 156 -293 169l62 382h341v-155h-310l-14 -83c194 -13 349 -84 349 -252c0 -142 -118 -223 -262 -223c-137 0 -211 50 -211 121c0 34 20 56 41 67h83c2 -84 40 -131 113 -131z" />
    <glyph glyph-name="six.ot" 
d="M491 662c-194 -32 -264 -134 -285 -274c36 42 91 70 165 70c108 0 197 -74 197 -211c0 -171 -124 -257 -258 -257c-164 0 -278 119 -278 302c0 229 164 410 440 421zM273 371c-28 0 -52 -8 -71 -17c-2 -21 -3 -43 -3 -61c0 -121 33 -238 120 -238c63 0 100 56 100 149
c0 94 -46 167 -146 167z" />
    <glyph glyph-name="seven.ot" 
d="M445 454h-262c-46 0 -69 -22 -92 -85h-56l44 237h493v-43l-309 -659h-118z" />
    <glyph glyph-name="eight.ot" 
d="M528 548c0 -80 -62 -130 -135 -145l19 -9c82 -36 144 -94 144 -189c0 -131 -99 -215 -259 -215c-159 0 -261 70 -261 177c0 85 61 135 143 154l-9 5c-68 40 -111 87 -111 179c0 122 93 207 237 207c143 0 232 -63 232 -164zM337 251l-124 51c-32 -23 -47 -67 -47 -117
c0 -77 50 -131 131 -131c71 0 123 35 123 97c0 48 -33 78 -83 100zM272 458l80 -36c32 23 53 67 53 119c0 64 -42 107 -109 107c-65 0 -103 -38 -103 -91c0 -47 28 -76 79 -99z" />
    <glyph glyph-name="nine.ot" 
d="M108 -56c194 32 264 134 285 274c-36 -42 -91 -70 -165 -70c-108 0 -197 74 -197 211c0 171 124 257 258 257c164 0 278 -119 278 -302c0 -229 -164 -410 -440 -421zM326 235c28 0 52 8 71 17c2 21 3 43 3 61c0 121 -33 238 -120 238c-63 0 -100 -56 -100 -149
c0 -94 46 -167 146 -167z" />
    <glyph glyph-name="uni2153" unicode="&#x2153;" horiz-adv-x="938" 
d="M225 748h44v-367c0 -39 14 -42 78 -46v-48h-292v48c73 4 79 7 79 46v228h-79v44l28 6c76 16 105 41 142 89zM226 0l449 741h74l-450 -741h-73zM749 182c80 -3 135 -48 135 -118c0 -94 -88 -141 -192 -141c-110 0 -161 44 -161 95c0 29 16 45 31 52h79v-24
c0 -50 19 -80 57 -80c37 0 56 26 56 75c0 60 -31 92 -87 92h-20l-8 29c66 26 92 48 92 84c0 29 -21 51 -60 51c-43 0 -68 -24 -87 -49l-34 23c29 65 90 118 181 118c78 0 130 -40 130 -105c0 -59 -52 -92 -112 -102z" />
    <glyph glyph-name="uni2154" unicode="&#x2154;" horiz-adv-x="975" 
d="M162 388h111c41 0 49 6 81 54h38l-14 -155h-354v42l124 112c63 56 93 93 93 145c0 42 -26 69 -73 69c-42 0 -76 -28 -98 -54l-31 32c32 60 98 115 190 115c86 0 143 -48 143 -130c0 -98 -104 -163 -210 -230zM264 0l449 741h74l-450 -741h-73zM786 182
c80 -3 135 -48 135 -118c0 -94 -87 -141 -191 -141c-110 0 -162 44 -162 95c0 29 16 45 31 52h80v-24c0 -50 19 -80 57 -80c36 0 56 26 56 75c0 60 -31 92 -88 92h-19l-9 29c67 26 92 48 92 84c0 29 -20 51 -59 51c-43 0 -69 -24 -87 -49l-34 23c28 65 89 118 180 118
c79 0 131 -40 131 -105c0 -59 -53 -92 -113 -102z" />
    </font>
</defs>
</svg>
