<?xml version="1.0" standalone="no"?>
<!DOCTYPE svg PUBLIC "-//W3C//DTD SVG 1.1//EN" "http://www.w3.org/Graphics/SVG/1.1/DTD/svg11.dtd" >
<svg xmlns="http://www.w3.org/2000/svg" xmlns:xlink="http://www.w3.org/1999/xlink" version="1.1">
<metadata>
Created by FontForge 20160407 at Thu Jul  7 22:50:00 2016
 By Jimmy Wärting
Copyright (c) 2010 by KLIM Type Foundry. All rights reserved.
</metadata>
<defs>
<font id="TiemposText-Medium" horiz-adv-x="600" >
  <font-face 
    font-family="Tiempos Text"
    font-weight="500"
    font-stretch="normal"
    units-per-em="1000"
    panose-1="2 0 6 3 7 0 0 2 0 4"
    ascent="800"
    descent="-200"
    x-height="536"
    cap-height="702"
    bbox="-64 -236 1306 1037"
    underline-thickness="50"
    underline-position="-100"
    stemh="54"
    stemv="124"
    unicode-range="U+0020-FB04"
  />
<missing-glyph horiz-adv-x="960" 
 />
    <glyph glyph-name=".notdef" horiz-adv-x="960" 
 />
    <glyph glyph-name="space" unicode=" " horiz-adv-x="215" 
 />
    <glyph glyph-name="exclam" unicode="!" horiz-adv-x="305" 
d="M71 72c0 47 36 83 81 83c46 0 82 -36 82 -83c0 -45 -36 -82 -82 -82c-45 0 -81 37 -81 82zM229 702l-48 -488h-58l-47 488h153z" />
    <glyph glyph-name="quotedbl" unicode="&#x22;" horiz-adv-x="413" 
d="M126 465h-26l-32 145c-7 28 -17 69 -17 87c0 40 22 67 62 67c41 0 63 -27 63 -67c0 -18 -11 -59 -17 -87zM313 465h-26l-33 145c-6 28 -17 69 -17 87c0 40 23 67 63 67s63 -27 63 -67c0 -18 -11 -59 -17 -87z" />
    <glyph glyph-name="numbersign" unicode="#" horiz-adv-x="586" 
d="M492 210h-120l-70 -220l-57 20l63 200h-122l-70 -220l-57 20l63 200h-86v58h105l53 167h-100v58h119l70 220l58 -21l-64 -199h122l70 220l58 -21l-64 -199h87v-58h-106l-53 -167h101v-58zM258 435l-53 -167h122l53 167h-122z" />
    <glyph glyph-name="dollar" unicode="$" horiz-adv-x="557" 
d="M172 -113l18 109c-59 9 -111 30 -143 57l-8 168h52c17 -76 53 -135 110 -161l42 241l-33 13c-96 36 -164 84 -164 197c0 117 90 201 229 201c13 0 26 -1 38 -2l18 104h48l-19 -110c51 -10 96 -28 126 -51v-153h-47c-14 64 -41 114 -90 138l-38 -223l35 -14
c103 -38 172 -85 172 -202c0 -138 -114 -209 -256 -209c-8 0 -16 0 -24 1l-18 -104h-48zM299 280l-11 4l-40 -237c8 -1 16 -1 25 -1c83 0 137 43 137 112c0 64 -39 94 -111 122zM150 555c0 -59 33 -91 97 -115l18 -8l38 221c-11 2 -23 3 -35 3c-76 0 -118 -43 -118 -101z
" />
    <glyph glyph-name="percent" unicode="%" horiz-adv-x="885" 
d="M134 528c0 -76 24 -141 83 -141c60 0 84 65 84 141c0 77 -24 141 -84 141c-59 0 -83 -64 -83 -141zM185 -19l450 741h64l-450 -741h-64zM39 528c0 117 84 184 178 184s179 -67 179 -184s-85 -184 -179 -184s-178 67 -178 184zM751 175c0 76 -24 141 -83 141
c-60 0 -84 -65 -84 -141c0 -77 24 -141 84 -141c59 0 83 64 83 141zM846 175c0 -117 -85 -184 -178 -184c-95 0 -179 67 -179 184c0 116 84 184 179 184c93 0 178 -68 178 -184z" />
    <glyph glyph-name="ampersand" unicode="&#x26;" horiz-adv-x="709" 
d="M24 184c0 104 69 160 163 197c-28 35 -65 87 -65 156c0 102 77 175 193 175c118 0 185 -60 185 -147c0 -82 -73 -137 -172 -174l178 -206c15 32 23 68 23 105c0 44 -12 61 -49 61v47h204v-47c-76 0 -89 -14 -100 -72c-9 -48 -25 -92 -47 -130l42 -48
c32 -36 62 -54 105 -54v-47h-150c-27 15 -49 35 -72 58c-53 -43 -120 -68 -198 -68c-125 0 -240 64 -240 194zM302 52c49 0 92 15 128 41l-8 10l-210 249c-47 -27 -68 -79 -68 -141c0 -96 68 -159 158 -159zM225 575c0 -60 36 -106 72 -148l5 -7c66 30 97 74 97 147
c0 57 -32 96 -87 96c-53 0 -87 -33 -87 -88z" />
    <glyph glyph-name="quoteright" unicode="&#x2019;" horiz-adv-x="284" 
d="M159 624h-40c-32 7 -51 30 -51 68c0 42 30 72 75 72c55 0 85 -41 85 -103c0 -91 -53 -159 -176 -166v46c72 9 104 35 107 83z" />
    <glyph glyph-name="parenleft" unicode="(" horiz-adv-x="353" 
d="M60 314c0 166 71 342 202 456h64c-128 -137 -163 -297 -163 -456s35 -318 163 -455h-64c-131 114 -202 289 -202 455z" />
    <glyph glyph-name="parenright" unicode=")" horiz-adv-x="353" 
d="M293 314c0 -166 -71 -341 -202 -455h-64c128 137 163 296 163 455s-35 319 -163 456h64c131 -114 202 -290 202 -456z" />
    <glyph glyph-name="asterisk" unicode="*" horiz-adv-x="455" 
d="M378 445l-133 99l20 -164h-74l19 165l-133 -100l-37 65l152 65l-152 65l37 65l133 -100l-19 165h74l-20 -164l133 99l37 -65l-152 -65l152 -65z" />
    <glyph glyph-name="plus" unicode="+" horiz-adv-x="576" 
d="M252 591h71v-186h187v-72h-187v-186h-71v186h-186v72h186v186z" />
    <glyph glyph-name="comma" unicode="," horiz-adv-x="290" 
d="M159 8h-40c-32 6 -51 29 -51 67c0 42 30 72 75 72c55 0 86 -41 86 -103c0 -93 -54 -165 -177 -172v47c72 9 107 39 107 89z" />
    <glyph glyph-name="hyphen" unicode="-" horiz-adv-x="360" 
d="M310 261h-260v88h260v-88z" />
    <glyph glyph-name="period" unicode="." horiz-adv-x="290" 
d="M62 73c0 48 37 84 83 84c47 0 84 -36 84 -84c0 -47 -37 -83 -84 -83c-46 0 -83 36 -83 83z" />
    <glyph glyph-name="slash" unicode="/" horiz-adv-x="411" 
d="M373 770l-276 -905h-75l275 905h76z" />
    <glyph glyph-name="zero" unicode="0" horiz-adv-x="649" 
d="M325 712c178 0 281 -151 281 -361s-103 -361 -281 -361c-179 0 -282 151 -282 361s103 361 282 361zM325 655c-112 0 -143 -137 -143 -304s31 -305 143 -305c111 0 141 138 141 305s-30 304 -141 304z" />
    <glyph glyph-name="one" unicode="1" horiz-adv-x="439" 
d="M264 711h32v-590c0 -61 22 -66 126 -72v-49h-382v49c108 7 132 11 132 72v435h-132v41l32 5c97 14 140 40 192 109z" />
    <glyph glyph-name="two" unicode="2" horiz-adv-x="533" 
d="M148 104h165c78 0 107 8 156 100h35l-35 -204h-461v33l182 185c118 122 149 185 149 265c0 84 -47 129 -128 129c-72 0 -119 -43 -159 -85l-27 28c44 82 120 157 238 157c130 0 207 -77 207 -198c0 -145 -150 -254 -322 -410z" />
    <glyph glyph-name="three" unicode="3" horiz-adv-x="544" 
d="M300 396c124 -11 207 -82 207 -188c0 -140 -122 -218 -257 -218c-149 0 -229 68 -229 142c0 37 24 63 45 74h71v-35c0 -83 44 -131 123 -131c78 0 121 50 121 131c0 102 -76 157 -187 157h-31l-9 37c114 34 188 75 188 158c0 59 -41 94 -104 94c-66 0 -116 -38 -148 -86
l-30 25c39 84 113 156 229 156c109 0 176 -64 176 -154c0 -92 -87 -145 -165 -162z" />
    <glyph glyph-name="four" unicode="4" horiz-adv-x="619" 
d="M96 240h256v320zM352 120v60h-337v46l377 476h79v-462h123v-60h-123v-60c0 -59 29 -70 97 -72v-48h-313v48c68 2 97 13 97 72z" />
    <glyph glyph-name="five" unicode="5" horiz-adv-x="530" 
d="M455 702v-117h-291l-20 -128c199 -7 347 -74 347 -243c0 -136 -98 -224 -239 -224c-147 0 -225 67 -225 142c0 36 22 63 43 74h74v-32c0 -86 39 -133 117 -133c81 0 123 52 123 127c0 122 -121 181 -310 181l57 353h324z" />
    <glyph glyph-name="six" unicode="6" horiz-adv-x="593" 
d="M487 672c-195 -47 -292 -162 -312 -300c42 45 106 78 177 78c117 0 203 -76 203 -210c0 -157 -110 -250 -248 -250c-164 0 -265 123 -265 293c0 229 154 399 425 429zM280 374c-42 0 -82 -16 -107 -32c-2 -19 -3 -43 -3 -59c0 -137 54 -239 143 -239c80 0 123 61 123 160
c0 104 -55 170 -156 170z" />
    <glyph glyph-name="seven" unicode="7" horiz-adv-x="509" 
d="M409 584h-254c-49 0 -69 -16 -95 -73h-43l43 191h443v-33l-287 -669h-118z" />
    <glyph glyph-name="eight" unicode="8" horiz-adv-x="571" 
d="M505 546c0 -81 -68 -135 -138 -155l29 -13c83 -40 136 -94 136 -185c0 -115 -83 -203 -246 -203c-148 0 -247 71 -247 184c0 87 65 141 150 167l-11 5c-68 33 -114 85 -114 171c0 113 81 195 222 195c133 0 219 -66 219 -166zM332 275l-114 50c-52 -33 -74 -85 -74 -144
c0 -82 56 -138 142 -138c82 0 139 44 139 117c0 58 -40 91 -93 115zM257 445l78 -37c49 31 71 76 71 135c0 71 -48 116 -120 116c-74 0 -117 -43 -117 -104c0 -54 31 -82 88 -110z" />
    <glyph glyph-name="nine" unicode="9" horiz-adv-x="593" 
d="M106 30c195 47 292 162 312 300c-42 -45 -106 -78 -177 -78c-117 0 -203 76 -203 210c0 157 110 250 248 250c164 0 265 -123 265 -293c0 -229 -154 -399 -425 -429zM313 328c42 0 82 16 107 32c2 19 3 43 3 59c0 137 -54 239 -143 239c-80 0 -123 -61 -123 -160
c0 -104 55 -170 156 -170z" />
    <glyph glyph-name="colon" unicode=":" horiz-adv-x="290" 
d="M62 73c0 48 37 84 83 84c47 0 84 -36 84 -84c0 -47 -37 -83 -84 -83c-46 0 -83 36 -83 83zM62 387c0 48 37 83 83 83c47 0 84 -35 84 -83s-37 -83 -84 -83c-46 0 -83 35 -83 83z" />
    <glyph glyph-name="semicolon" unicode=";" horiz-adv-x="290" 
d="M62 387c0 48 37 83 83 83c47 0 84 -35 84 -83s-37 -83 -84 -83c-46 0 -83 35 -83 83zM159 8h-40c-32 6 -51 29 -51 67c0 42 30 72 75 72c55 0 86 -41 86 -103c0 -93 -54 -165 -177 -172v47c72 9 107 39 107 89z" />
    <glyph glyph-name="less" unicode="&#x3c;" horiz-adv-x="428" 
d="M44 362v10l318 195v-86l-194 -113l194 -116v-85z" />
    <glyph glyph-name="equal" unicode="=" horiz-adv-x="586" 
d="M71 261v69h445v-69h-445zM71 408v70h445v-70h-445z" />
    <glyph glyph-name="greater" unicode="&#x3e;" horiz-adv-x="428" 
d="M384 372v-10l-318 -195v85l194 116l-194 113v86z" />
    <glyph glyph-name="question" unicode="?" horiz-adv-x="451" 
d="M314 572c0 55 -34 86 -90 86c-58 0 -82 -36 -82 -90v-42h-89c-17 13 -26 31 -26 53c0 76 84 133 196 133c124 0 204 -55 204 -167c0 -83 -46 -134 -120 -185c-58 -39 -78 -70 -78 -123v-30h-37c-16 17 -38 54 -38 94c0 52 20 94 73 137c47 39 87 69 87 134zM128 72
c0 47 36 83 82 83s81 -36 81 -83c0 -45 -35 -82 -81 -82s-82 37 -82 82z" />
    <glyph glyph-name="at" unicode="@" horiz-adv-x="897" 
d="M606 76c-100 0 -114 90 -89 177h-6c-42 -98 -108 -177 -177 -177c-57 0 -96 47 -96 126c0 148 118 297 247 297c38 0 69 -14 89 -34l57 35h42l-29 -90l-50 -200c-10 -38 -11 -89 31 -89c75 0 153 90 153 240c0 163 -105 288 -297 288c-209 0 -358 -177 -358 -401
c0 -205 148 -332 347 -332c102 0 179 22 264 71l16 -30c-66 -57 -171 -94 -291 -94c-235 0 -409 149 -409 384c0 248 184 445 431 445c227 0 366 -143 366 -331c0 -186 -125 -285 -241 -285zM377 145c54 0 130 116 171 277c-12 25 -29 36 -53 36c-91 0 -156 -148 -156 -250
c0 -40 13 -63 38 -63z" />
    <glyph glyph-name="A" unicode="A" horiz-adv-x="734" 
d="M511 131l-40 95h-280l-37 -94c-6 -15 -11 -29 -11 -40c0 -31 21 -42 87 -44v-48h-224v48c27 4 48 10 59 37l228 553l-32 71h139l269 -624c11 -26 30 -33 59 -37v-48h-292v48c66 2 86 12 86 43c0 12 -4 25 -11 40zM329 569l-117 -291h238z" />
    <glyph glyph-name="B" unicode="B" horiz-adv-x="679" 
d="M33 0v48c67 2 95 13 95 72v463c0 58 -28 69 -95 71v48h329c154 0 243 -59 243 -176c0 -101 -86 -148 -179 -163c133 -10 214 -72 214 -174c0 -118 -95 -189 -263 -189h-344zM337 333h-82v-214c0 -54 27 -67 92 -67h11c100 0 149 46 149 138c0 80 -45 143 -170 143z
M316 648h-61v-262h63c104 0 155 42 155 138c0 72 -50 124 -157 124z" />
    <glyph glyph-name="C" unicode="C" horiz-adv-x="683" 
d="M401 49c95 0 147 59 184 176h55l-21 -177c-63 -35 -133 -58 -238 -58c-209 0 -341 145 -341 346c0 233 156 376 353 376c102 0 175 -27 223 -66v-156h-54c-27 111 -84 164 -174 164c-148 0 -209 -134 -209 -289c0 -181 75 -316 222 -316z" />
    <glyph glyph-name="D" unicode="D" horiz-adv-x="769" 
d="M324 648h-69v-523c0 -59 28 -71 92 -71h18c141 0 226 100 226 296c0 160 -78 298 -267 298zM33 654v48h313c260 0 383 -147 383 -334c0 -236 -155 -368 -362 -368h-334v48c67 2 95 13 95 72v463c0 58 -28 69 -95 71z" />
    <glyph glyph-name="E" unicode="E" horiz-adv-x="673" 
d="M512 246h-44c-10 60 -28 87 -72 87h-141v-212c0 -54 29 -68 95 -68h77c83 0 104 32 168 135h43l-31 -188h-574v48c67 2 95 13 95 72v463c0 58 -28 69 -95 71v48h569v-174h-42c-35 85 -62 121 -142 121h-163v-262h141c44 0 62 26 72 86h44v-227z" />
    <glyph glyph-name="F" unicode="F" horiz-adv-x="614" 
d="M380 0h-347v48c67 2 95 13 95 72v463c0 58 -28 69 -95 71v48h553v-179h-42c-35 86 -62 126 -142 126h-147v-275h123c44 0 62 26 73 86h43v-227h-43c-11 61 -29 87 -73 87h-123v-202c0 -58 44 -67 125 -71v-47z" />
    <glyph glyph-name="G" unicode="G" horiz-adv-x="744" 
d="M40 336c0 233 162 376 357 376c103 0 179 -27 227 -66v-156h-54c-27 111 -89 164 -178 164c-147 0 -213 -134 -213 -289c0 -180 70 -316 223 -316c52 0 84 9 115 34v137c0 57 -27 68 -91 71v47h297v-47c-64 -3 -86 -14 -86 -71v-158c-64 -45 -149 -72 -249 -72
c-219 0 -348 144 -348 346z" />
    <glyph glyph-name="H" unicode="H" horiz-adv-x="844" 
d="M589 120v213h-334v-213c0 -59 30 -70 95 -72v-48h-317v48c67 2 95 13 95 72v463c0 58 -28 69 -95 71v48h317v-48c-65 -2 -95 -13 -95 -71v-196h334v196c0 58 -30 69 -95 71v48h317v-48c-67 -2 -95 -13 -95 -71v-463c0 -59 28 -70 95 -72v-48h-317v48c65 2 95 13 95 72z
" />
    <glyph glyph-name="I" unicode="I" horiz-adv-x="383" 
d="M350 0h-317v48c67 2 95 13 95 72v463c0 58 -28 69 -95 71v48h317v-48c-67 -2 -95 -13 -95 -71v-463c0 -59 28 -70 95 -72v-48z" />
    <glyph glyph-name="J" unicode="J" horiz-adv-x="548" 
d="M438 583v-375c0 -149 -84 -217 -224 -217c-126 0 -205 50 -205 132c0 33 15 57 34 72h91v-47c0 -68 31 -106 86 -106c58 0 90 43 90 145v396c0 58 -28 69 -94 71v48h317v-48c-67 -2 -95 -13 -95 -71z" />
    <glyph glyph-name="K" unicode="K" horiz-adv-x="737" 
d="M391 397l221 -272c51 -62 77 -74 121 -77v-48h-162c-33 19 -59 46 -96 92l-209 265l238 229c13 12 24 24 24 39c0 18 -11 26 -74 29v48h257v-48c-45 -2 -70 -17 -101 -47zM128 120v463c0 58 -28 69 -95 71v48h317v-48c-65 -2 -94 -13 -94 -71v-463c0 -59 29 -70 94 -72
v-48h-317v48c67 2 95 13 95 72z" />
    <glyph glyph-name="L" unicode="L" horiz-adv-x="628" 
d="M256 583v-461c0 -54 27 -68 93 -68h48c81 0 101 39 165 155h47l-34 -209h-542v48c67 2 95 13 95 72v463c0 58 -28 68 -95 71v48h317v-48c-65 -3 -94 -13 -94 -71z" />
    <glyph glyph-name="M" unicode="M" horiz-adv-x="953" 
d="M727 136l-52 396l-199 -532h-48l-211 535l-51 -399c-1 -7 -2 -21 -2 -24c0 -49 25 -61 95 -64v-48h-246v48c57 2 77 14 84 60l63 473c0 53 -18 71 -85 73v48h214c2 -23 6 -36 15 -58l180 -461l169 461c9 22 15 35 17 58h208v-48c-66 -2 -84 -20 -84 -73l63 -473
c6 -47 27 -58 83 -60v-48h-306v48c70 3 95 15 95 64c0 3 -1 17 -2 24z" />
    <glyph glyph-name="N" unicode="N" horiz-adv-x="798" 
d="M128 120v475c-36 45 -50 57 -95 59v48h201l378 -483v364c0 58 -31 69 -97 71v48h260v-48c-67 -2 -95 -13 -95 -71v-583h-53l-431 539v-419c0 -59 31 -70 98 -72v-48h-261v48c67 2 95 13 95 72z" />
    <glyph glyph-name="O" unicode="O" horiz-adv-x="753" 
d="M388 51c127 0 187 128 187 293c0 162 -62 307 -210 307c-127 0 -187 -128 -187 -293c0 -162 63 -307 210 -307zM382 712c210 0 331 -161 331 -347c0 -229 -152 -375 -341 -375c-211 0 -332 161 -332 347c0 229 153 375 342 375z" />
    <glyph glyph-name="P" unicode="P" horiz-adv-x="635" 
d="M360 281h-104v-161c0 -59 43 -68 124 -72v-48h-347v48c67 2 95 13 95 72v463c0 58 -28 69 -95 71v48h316c192 0 267 -99 267 -208c0 -124 -79 -213 -256 -213zM256 648v-315h64c111 0 163 51 163 158c0 93 -54 157 -165 157h-62z" />
    <glyph glyph-name="Q" unicode="Q" horiz-adv-x="753" 
d="M382 712c210 0 331 -161 331 -347c0 -192 -108 -326 -254 -364l38 -35c62 -62 104 -101 159 -106v-24c-22 -11 -54 -18 -82 -18c-73 0 -127 26 -175 90l-60 83c-191 15 -299 170 -299 346c0 229 153 375 342 375zM388 51c127 0 187 128 187 293c0 162 -62 307 -210 307
c-127 0 -187 -128 -187 -293c0 -162 63 -307 210 -307z" />
    <glyph glyph-name="R" unicode="R" horiz-adv-x="721" 
d="M307 648h-52v-296h55c115 0 169 50 169 151c0 86 -54 145 -172 145zM33 702h317c181 0 262 -80 262 -199c0 -106 -87 -170 -177 -183l152 -201c33 -45 69 -69 122 -71v-48h-169c-34 24 -57 49 -88 95l-148 206h-49v-181c0 -59 28 -70 93 -72v-48h-315v48
c67 2 95 13 95 72v463c0 58 -28 69 -95 70v49z" />
    <glyph glyph-name="S" unicode="S" horiz-adv-x="573" 
d="M274 -10c-96 0 -179 31 -225 68l-8 165h54c30 -107 87 -177 186 -177c84 0 137 40 137 116c0 63 -40 93 -158 133c-140 47 -212 98 -212 216s88 201 231 201c86 0 161 -26 213 -62v-153h-48c-25 92 -76 160 -172 160c-78 0 -118 -45 -118 -103c0 -66 35 -94 153 -134
c147 -49 222 -103 222 -223c0 -137 -116 -207 -255 -207z" />
    <glyph glyph-name="T" unicode="T" horiz-adv-x="678" 
d="M30 702h618l15 -217h-46c-55 129 -69 165 -156 165h-59v-530c0 -59 33 -70 99 -72v-48h-325v48c67 2 99 13 99 72v530h-58c-87 0 -101 -36 -157 -165h-45z" />
    <glyph glyph-name="U" unicode="U" horiz-adv-x="769" 
d="M234 583v-330c0 -119 57 -187 168 -187c121 0 192 51 192 195v322c0 58 -32 69 -98 71v48h261v-48c-66 -2 -94 -13 -94 -71v-344c0 -169 -125 -248 -271 -248c-176 0 -286 79 -286 249v343c0 58 -28 69 -94 71v48h316v-48c-66 -2 -94 -13 -94 -71z" />
    <glyph glyph-name="V" unicode="V" horiz-adv-x="720" 
d="M403 171l159 399c6 15 10 28 10 40c0 30 -20 42 -86 44v48h229v-48c-29 -4 -48 -10 -60 -37l-263 -625h-38l-289 625c-12 27 -31 33 -59 37v48h294v-48c-66 -2 -87 -13 -87 -43c0 -12 4 -25 11 -40z" />
    <glyph glyph-name="W" unicode="W" horiz-adv-x="982" 
d="M695 187l134 378c7 19 13 33 13 45c0 30 -20 42 -87 44v48h221v-48c-27 -4 -49 -8 -59 -37l-229 -625h-43l-148 418l-150 -418h-42l-240 625c-11 26 -32 33 -59 37v48h287v-48c-61 -3 -83 -13 -83 -43c0 -12 5 -26 11 -43l139 -383l107 308l-42 124c-10 28 -30 33 -57 37
v48h277v-48c-67 -2 -86 -13 -86 -43c0 -12 4 -26 11 -47z" />
    <glyph glyph-name="X" unicode="X" horiz-adv-x="724" 
d="M611 609l-185 -231l209 -285c22 -30 46 -44 83 -45v-48h-306v48c66 0 75 9 75 32c0 13 -11 30 -25 49l-125 171l-136 -169c-16 -20 -25 -35 -25 -51c0 -22 10 -32 80 -32v-48h-250v48c40 0 62 12 88 45l205 258l-189 258c-23 31 -45 44 -81 45v48h310v-48
c-65 0 -79 -8 -79 -31c0 -15 11 -32 26 -52l103 -142l113 142c15 19 25 37 25 52c0 23 -13 31 -78 31v48h249v-48c-39 0 -61 -12 -87 -45z" />
    <glyph glyph-name="Y" unicode="Y" horiz-adv-x="677" 
d="M369 337l141 229c12 20 19 35 19 50c0 27 -21 36 -84 38v48h227v-48c-29 -4 -45 -11 -60 -37l-212 -342v-155c0 -59 31 -70 97 -72v-48h-319v48c67 2 97 13 97 72v155l-210 342c-15 26 -31 33 -59 37v48h289v-48c-64 -2 -83 -11 -83 -38c0 -16 7 -30 19 -50z" />
    <glyph glyph-name="Z" unicode="Z" horiz-adv-x="629" 
d="M186 55h207c83 0 106 38 167 154h46l-33 -209h-549v32l407 615h-193c-80 0 -94 -37 -139 -137h-42v192h532v-33z" />
    <glyph glyph-name="bracketleft" unicode="[" horiz-adv-x="326" 
d="M171 672v-715c0 -52 33 -55 113 -60v-38h-199v911h199v-38c-80 -5 -113 -8 -113 -60z" />
    <glyph glyph-name="backslash" unicode="\" horiz-adv-x="411" 
d="M314 -135l-276 905h76l276 -905h-76z" />
    <glyph glyph-name="bracketright" unicode="]" horiz-adv-x="326" 
d="M155 -43v715c0 52 -33 55 -113 60v38h199v-911h-199v38c80 5 113 8 113 60z" />
    <glyph glyph-name="asciicircum" unicode="^" horiz-adv-x="470" 
d="M192 770h86l152 -290h-82l-113 221l-113 -221h-82z" />
    <glyph glyph-name="underscore" unicode="_" horiz-adv-x="440" 
d="M420 -135h-400v69h400v-69z" />
    <glyph glyph-name="quoteleft" unicode="&#x2018;" horiz-adv-x="284" 
d="M130 634h39c33 -6 52 -29 52 -67c0 -42 -30 -72 -75 -72c-55 0 -85 41 -85 103c0 91 52 159 176 166v-46c-72 -9 -104 -35 -107 -84z" />
    <glyph glyph-name="a" unicode="a" horiz-adv-x="552" 
d="M237 73c39 0 66 11 100 35v175l-117 -45c-37 -14 -58 -41 -58 -79c0 -55 27 -86 75 -86zM458 363c0 -24 -3 -201 -3 -232c0 -40 13 -63 41 -63c9 0 31 2 46 6l6 -32c-34 -34 -72 -52 -114 -52c-53 0 -82 37 -94 91c-35 -42 -89 -90 -165 -90c-89 0 -135 60 -135 137
c0 92 71 124 138 147l159 57v53c0 65 -20 109 -86 109c-49 0 -73 -24 -73 -70c0 -19 2 -36 7 -57l-88 -13c-19 13 -28 32 -28 59c0 87 85 133 200 133c123 0 189 -55 189 -183z" />
    <glyph glyph-name="b" unicode="b" horiz-adv-x="614" 
d="M79 646l-67 43v25l161 47h27v-305c38 54 93 90 167 90c134 0 209 -106 209 -252c0 -188 -120 -304 -270 -304c-97 0 -179 28 -227 67v589zM312 43c86 0 142 82 142 206c0 116 -46 215 -146 215c-41 0 -82 -13 -108 -38v-256c0 -90 41 -127 112 -127z" />
    <glyph glyph-name="c" unicode="c" horiz-adv-x="517" 
d="M148 300c0 -128 59 -214 168 -214c65 0 110 29 147 81l23 -14c-31 -111 -107 -163 -213 -163c-140 0 -235 106 -235 260c0 163 105 296 265 296c105 0 177 -48 177 -130c0 -37 -18 -55 -41 -65h-65v39c0 57 -24 100 -84 100c-83 0 -142 -78 -142 -190z" />
    <glyph glyph-name="d" unicode="d" horiz-adv-x="636" 
d="M414 -10v92c-38 -55 -88 -92 -165 -92c-132 0 -211 106 -211 252c0 188 114 302 261 302c49 0 93 -17 115 -46v148l-68 43v25l162 47h27v-642c0 -34 10 -44 51 -48l25 -2v-45l-175 -34h-22zM303 492c-88 0 -143 -85 -143 -208c0 -116 48 -211 146 -211c41 0 82 15 108 39
v253c0 86 -41 127 -111 127z" />
    <glyph glyph-name="e" unicode="e" horiz-adv-x="534" 
d="M288 546c136 0 207 -96 207 -225v-33h-349c0 -121 68 -202 174 -202c71 0 118 33 154 81l22 -13c-25 -97 -101 -164 -218 -164c-147 0 -240 111 -240 261c0 177 108 295 250 295zM272 491c-72 0 -115 -71 -123 -152h233c0 92 -37 152 -110 152z" />
    <glyph glyph-name="f" unicode="f" horiz-adv-x="378" 
d="M232 476v-372c0 -48 25 -51 92 -59v-45h-285v45c45 6 72 11 72 57v374h-74v42l74 24v14c0 134 81 211 204 211c80 0 128 -30 128 -83c0 -26 -15 -45 -33 -56h-62v30c0 37 -11 64 -50 64c-45 0 -66 -45 -66 -124v-62h127v-60h-127z" />
    <glyph glyph-name="g" unicode="g" horiz-adv-x="560" 
d="M264 191c-33 0 -66 5 -96 15c-27 -28 -37 -45 -37 -65c0 -21 12 -29 33 -29h231c98 0 153 -40 153 -127c0 -117 -122 -192 -297 -192c-147 0 -234 40 -234 122c0 54 47 80 92 97c-40 15 -62 41 -62 83c0 50 40 88 96 123c-53 27 -90 74 -90 144c0 114 91 184 215 184
c37 0 68 -7 93 -16l182 11v-75h-39l-95 21v-6c40 -23 69 -63 69 -115c0 -107 -87 -175 -214 -175zM376 -2h-248c-15 -15 -20 -34 -20 -53c0 -71 64 -100 157 -100c107 0 185 32 185 101c0 42 -28 52 -74 52zM273 236c60 0 88 49 88 122c0 78 -37 141 -103 141
c-60 0 -87 -49 -87 -122c0 -77 35 -141 102 -141z" />
    <glyph glyph-name="h" unicode="h" horiz-adv-x="654" 
d="M223 761v-315c47 48 107 100 191 100c91 0 144 -49 144 -164v-280c0 -46 28 -51 73 -57v-45h-264v45c44 6 70 11 70 57v270c0 62 -24 87 -83 87c-48 0 -96 -19 -131 -43v-314c0 -46 26 -51 70 -57v-45h-264v45c45 6 73 11 73 57v544l-68 43v25l162 47h27z" />
    <glyph glyph-name="i" unicode="i" horiz-adv-x="335" 
d="M231 546v-444c0 -46 27 -51 72 -57v-45h-265v45c44 6 72 11 72 57v328l-67 42v24l160 50h28zM167 606c-45 0 -77 34 -77 75s32 75 77 75c44 0 76 -34 76 -75s-32 -75 -76 -75z" />
    <glyph glyph-name="j" unicode="j" horiz-adv-x="286" 
d="M212 546v-446c0 -86 -10 -131 -39 -179c-34 -54 -83 -92 -139 -129l-27 27l34 50c46 61 50 115 50 207v354l-67 42v24l162 50h26zM149 606c-45 0 -77 34 -77 75s32 75 77 75c44 0 76 -34 76 -75s-32 -75 -76 -75z" />
    <glyph glyph-name="k" unicode="k" horiz-adv-x="597" 
d="M232 286l154 147c11 11 19 20 19 30c0 18 -16 21 -72 29v44h238v-44c-39 -10 -60 -17 -83 -39l-138 -129l241 -289v-35h-129zM223 761v-659c0 -46 28 -51 72 -57v-45h-266v45c45 6 73 11 73 57v544l-68 43v25l162 47h27z" />
    <glyph glyph-name="l" unicode="l" horiz-adv-x="326" 
d="M222 761v-659c0 -46 28 -51 72 -57v-45h-265v45c45 6 73 11 73 57v544l-68 43v25l161 47h27z" />
    <glyph glyph-name="m" unicode="m" horiz-adv-x="974" 
d="M951 0h-263v45c45 6 70 11 70 57v270c0 64 -22 87 -80 87c-46 0 -88 -19 -123 -43v-314c0 -46 26 -51 70 -57v-45h-261v45c45 6 70 11 70 57v270c0 64 -22 87 -79 87c-47 0 -89 -19 -124 -43v-314c0 -46 24 -51 69 -57v-45h-262v45c44 6 72 11 72 57v326l-67 43v25
l160 52h28v-102c46 48 102 100 185 100c68 0 116 -32 133 -104c47 48 109 104 193 104c88 0 137 -49 137 -163v-281c0 -46 27 -51 72 -57v-45z" />
    <glyph glyph-name="n" unicode="n" horiz-adv-x="663" 
d="M446 102v270c0 62 -25 87 -84 87c-47 0 -97 -19 -131 -43v-314c0 -46 25 -51 70 -57v-45h-263v45c44 6 72 11 72 57v326l-67 43v25l160 52h28v-102c46 48 108 100 192 100c90 0 144 -49 144 -164v-280c0 -46 27 -51 72 -57v-45h-264v45c45 6 71 11 71 57z" />
    <glyph glyph-name="o" unicode="o" horiz-adv-x="592" 
d="M305 48c82 0 124 83 124 205c0 130 -52 236 -142 236c-83 0 -124 -84 -124 -206c0 -130 51 -235 142 -235zM291 -10c-154 0 -253 114 -253 268c0 175 116 288 262 288c154 0 254 -114 254 -268c0 -175 -117 -288 -263 -288z" />
    <glyph glyph-name="p" unicode="p" horiz-adv-x="632" 
d="M218 35v-130c0 -46 28 -51 73 -57v-45h-266v45c45 6 73 11 73 57v523l-68 43v25l162 52h26v-92c39 54 93 90 168 90c133 0 208 -106 208 -252c0 -188 -117 -304 -258 -304c-54 0 -97 19 -118 45zM330 43c86 0 143 82 143 206c0 116 -46 215 -146 215
c-41 0 -82 -13 -109 -38v-255c0 -84 41 -128 112 -128z" />
    <glyph glyph-name="q" unicode="q" horiz-adv-x="611" 
d="M302 546c62 0 117 -20 151 -58l51 63h38l-7 -115v-531c0 -46 28 -51 73 -57v-45h-266v45c44 6 72 11 72 57v177c-38 -55 -88 -92 -165 -92c-132 0 -211 106 -211 252c0 188 114 304 264 304zM303 494c-88 0 -143 -87 -143 -210c0 -116 48 -211 146 -211
c41 0 82 15 108 39v255c0 91 -41 127 -111 127z" />
    <glyph glyph-name="r" unicode="r" horiz-adv-x="434" 
d="M231 548v-164c57 122 87 162 151 162c18 0 31 -6 39 -13v-110h-22c-62 0 -109 -8 -168 -72v-247c0 -48 24 -51 92 -59v-45h-285v45c44 6 72 11 72 57v326l-67 43v25l159 52h29z" />
    <glyph glyph-name="s" unicode="s" horiz-adv-x="471" 
d="M235 -10c-72 0 -140 16 -189 52l-6 129h52c19 -82 66 -130 146 -130c59 0 97 27 97 75c0 57 -40 77 -130 102c-101 29 -160 71 -160 166c0 98 72 162 185 162c69 0 126 -17 170 -43v-120h-51c-15 73 -55 111 -123 111c-52 0 -82 -31 -82 -72c0 -49 33 -75 115 -97
c103 -28 174 -63 174 -168c0 -99 -74 -167 -198 -167z" />
    <glyph glyph-name="t" unicode="t" horiz-adv-x="386" 
d="M205 654v-118h147v-60h-147v-337c0 -53 23 -72 74 -72c28 0 61 8 86 21l13 -31c-38 -41 -93 -67 -162 -67c-80 0 -131 38 -131 130v356h-72v38c56 29 110 76 156 140h36z" />
    <glyph glyph-name="u" unicode="u" horiz-adv-x="646" 
d="M421 -10v98c-45 -47 -102 -98 -186 -98c-88 0 -144 49 -144 166v262c0 34 -10 47 -53 54l-16 3v41l170 30h21v-375c0 -66 26 -96 83 -96c48 0 90 19 125 42v301c0 34 -10 47 -53 54l-15 3v41l168 30h22v-427c0 -34 9 -44 50 -48l25 -2v-45l-175 -34h-22z" />
    <glyph glyph-name="v" unicode="v" horiz-adv-x="573" 
d="M568 536v-44c-42 -16 -48 -18 -58 -40l-203 -460h-32l-212 460c-10 21 -16 24 -58 40v44h265v-44c-52 -7 -71 -12 -71 -36c0 -8 2 -16 8 -29l111 -272l114 272c5 14 7 21 7 29c0 24 -19 29 -70 36v44h199z" />
    <glyph glyph-name="w" unicode="w" horiz-adv-x="825" 
d="M593 169l95 258c4 12 6 21 6 29c0 24 -18 29 -63 36v44h189v-44c-42 -15 -49 -18 -57 -40l-178 -460h-36l-131 341l-136 -341h-35l-185 460c-9 22 -16 26 -57 40v44h250v-44c-43 -7 -60 -13 -60 -35c0 -9 3 -20 8 -32l95 -257l90 236l-17 48c-8 22 -15 27 -54 40v44h241
v-44c-46 -7 -63 -12 -63 -36c0 -9 3 -20 7 -31z" />
    <glyph glyph-name="x" unicode="x" horiz-adv-x="566" 
d="M74 85l146 185l-137 182c-15 20 -27 32 -62 40v44h258v-44c-45 -6 -57 -10 -57 -28c0 -9 9 -21 18 -33l75 -101l74 101c10 12 15 21 15 31c0 19 -12 21 -53 30v44h192v-44c-31 -10 -51 -20 -69 -41l-127 -164l150 -202c16 -22 30 -36 64 -40v-45h-260v45
c48 5 59 10 59 28c0 9 -9 21 -17 32l-91 123l-89 -123c-7 -10 -13 -19 -13 -30c0 -19 11 -22 55 -30v-45h-200v45c31 7 53 21 69 40z" />
    <glyph glyph-name="y" unicode="y" horiz-adv-x="579" 
d="M266 -3l-203 455c-10 21 -16 24 -58 40v44h265v-44c-52 -7 -71 -12 -71 -36c0 -8 1 -15 8 -31l118 -289l112 289c6 16 8 23 8 31c0 24 -19 29 -70 36v44h199v-44c-42 -15 -49 -18 -58 -40l-224 -545c-30 -73 -65 -114 -129 -114c-35 0 -64 15 -79 37v60h54
c65 0 90 11 112 67z" />
    <glyph glyph-name="z" unicode="z" horiz-adv-x="523" 
d="M34 0v30l301 454h-139c-52 0 -67 -29 -98 -124h-49v176h430v-33l-295 -451h132c57 0 92 31 125 132h50l-20 -184h-437z" />
    <glyph glyph-name="braceleft" unicode="{" horiz-adv-x="357" 
d="M50 304v22c48 10 83 36 83 100v216c0 79 68 128 182 128v-31c-47 -6 -93 -31 -93 -98v-214c0 -68 -24 -92 -91 -112c67 -20 91 -44 91 -112v-214c0 -67 46 -92 93 -98v-31c-114 0 -182 49 -182 128v216c0 64 -35 90 -83 100z" />
    <glyph glyph-name="bar" unicode="|" horiz-adv-x="271" 
d="M171 770v-911h-71v911h71z" />
    <glyph glyph-name="braceright" unicode="}" horiz-adv-x="357" 
d="M307 326v-22c-48 -10 -83 -36 -83 -100v-216c0 -79 -68 -128 -182 -128v31c47 6 92 31 92 98v214c0 68 24 92 91 112c-67 20 -91 44 -91 112v214c0 67 -45 92 -92 98v31c114 0 182 -49 182 -128v-216c0 -64 35 -90 83 -100z" />
    <glyph glyph-name="asciitilde" unicode="~" horiz-adv-x="532" 
d="M436 417l46 -10c-31 -99 -77 -141 -142 -141c-61 0 -117 60 -169 60c-33 0 -51 -14 -75 -56l-46 10c31 100 77 141 143 141c60 0 117 -60 168 -60c33 0 52 15 75 56z" />
    <glyph glyph-name="exclamdown" unicode="&#xa1;" horiz-adv-x="305" 
d="M71 462c0 45 36 82 81 82c46 0 82 -37 82 -82c0 -47 -36 -83 -82 -83c-45 0 -81 36 -81 83zM181 320l48 -488h-153l47 488h58z" />
    <glyph glyph-name="cent" unicode="&#xa2;" horiz-adv-x="543" 
d="M181 -111l23 113c-103 32 -168 125 -168 251c0 169 110 295 278 296l26 125h49l-26 -128c84 -12 141 -55 141 -125c0 -37 -20 -56 -45 -66h-57v37c0 48 -14 81 -51 95l-81 -395c18 -5 38 -8 60 -8c71 0 118 32 157 84l26 -14c-32 -110 -113 -164 -226 -164
c-13 0 -25 1 -37 3l-21 -104h-48zM147 298c0 -86 28 -150 79 -185l77 382h-6c-87 0 -150 -75 -150 -197z" />
    <glyph glyph-name="sterling" unicode="&#xa3;" horiz-adv-x="676" 
d="M104 339v47h111l9 70c20 175 107 256 238 256c94 0 160 -35 160 -109c0 -33 -17 -58 -38 -67h-74v44c0 49 -13 81 -60 81c-57 0 -79 -60 -95 -159l-16 -116h165v-47h-172l-13 -98c-4 -31 -11 -64 -19 -86c55 -27 128 -55 196 -55c64 0 99 21 99 101l30 3
c9 -14 20 -40 20 -77c0 -96 -58 -137 -148 -137c-91 0 -177 52 -228 98c-31 -56 -80 -98 -149 -98c-71 0 -107 43 -107 101c0 65 47 108 113 108c21 0 44 -3 65 -10l18 150h-105zM115 41c35 0 59 29 68 91c-19 9 -38 16 -59 16c-39 0 -56 -26 -56 -57s19 -50 47 -50z" />
    <glyph glyph-name="yen" unicode="&#xa5;" horiz-adv-x="677" 
d="M94 322v47h127l-146 248c-14 25 -32 33 -60 37v48h295v-48c-66 -2 -83 -12 -83 -39c0 -17 7 -30 18 -49l125 -226l127 226c10 18 17 33 17 49c0 27 -18 37 -83 39v48h232v-48c-29 -4 -46 -11 -61 -37l-147 -248h131v-47h-158l-28 -47v-24h186v-47h-186v-84
c0 -59 31 -70 98 -72v-48h-321v48c68 2 99 13 99 72v84h-182v47h182v24l-28 47h-154z" />
    <glyph glyph-name="florin" unicode="&#x192;" horiz-adv-x="519" 
d="M79 304l6 48h88l10 73c23 185 87 287 215 287c72 0 114 -30 114 -79c0 -32 -20 -52 -49 -61h-32c-1 54 -9 98 -48 98c-32 0 -48 -33 -54 -83l-30 -235h112l-4 -48h-114l-24 -187c-23 -185 -87 -287 -214 -287c-73 0 -115 30 -115 79c0 32 20 52 49 61h32
c1 -54 10 -98 48 -98c33 0 48 33 54 83l44 349h-88z" />
    <glyph glyph-name="section" unicode="&#xa7;" horiz-adv-x="523" 
d="M225 -202c-92 0 -153 40 -153 98c0 30 20 46 40 54h71v-22c0 -42 24 -85 78 -85c49 0 74 30 74 68c0 70 -91 158 -160 254c-70 97 -122 193 -122 308c0 146 104 239 245 239c92 0 152 -41 152 -98c0 -30 -20 -46 -40 -54h-70v22c0 41 -24 85 -78 85
c-49 0 -74 -30 -74 -68c0 -70 90 -158 160 -254c70 -97 122 -193 122 -308c0 -146 -104 -239 -245 -239zM387 -95c16 25 30 72 30 132c0 87 -48 186 -121 283c-69 91 -160 202 -160 285c-16 -25 -30 -72 -30 -132c0 -87 48 -187 121 -283c68 -92 160 -202 160 -285z" />
    <glyph glyph-name="currency" unicode="&#xa4;" horiz-adv-x="582" 
d="M59 154l72 73c-23 32 -37 73 -37 119c0 47 14 87 38 120l-73 72l41 40l72 -72c33 24 74 37 119 37c44 0 86 -13 119 -37l72 71l40 -40l-72 -72c23 -32 38 -72 38 -119c0 -46 -15 -87 -38 -120l73 -71l-41 -40l-72 72c-33 -24 -75 -38 -119 -38c-45 0 -86 14 -120 38
l-72 -73zM158 346c0 -81 57 -141 133 -141s133 60 133 141s-57 141 -133 141s-133 -60 -133 -141z" />
    <glyph glyph-name="quotesingle" unicode="'" horiz-adv-x="226" 
d="M126 465h-26l-32 145c-7 28 -17 69 -17 87c0 40 22 67 62 67c41 0 63 -27 63 -67c0 -18 -11 -59 -17 -87z" />
    <glyph glyph-name="quotedblleft" unicode="&#x201c;" horiz-adv-x="499" 
d="M130 634h39c33 -6 52 -29 52 -67c0 -42 -30 -72 -75 -72c-55 0 -85 41 -85 103c0 91 52 159 176 166v-46c-72 -9 -104 -35 -107 -84zM345 634h39c33 -6 52 -29 52 -67c0 -42 -30 -72 -75 -72c-55 0 -85 41 -85 103c0 91 52 159 176 166v-46c-72 -9 -104 -35 -107 -84z
" />
    <glyph glyph-name="guillemotleft" unicode="&#xab;" horiz-adv-x="503" 
d="M42 270v10l167 193h59l-114 -198l114 -198h-59zM235 270v10l167 193h59l-115 -198l115 -198h-59z" />
    <glyph glyph-name="guilsinglleft" unicode="&#x2039;" horiz-adv-x="310" 
d="M42 270v10l167 193h59l-114 -198l114 -198h-59z" />
    <glyph glyph-name="guilsinglright" unicode="&#x203a;" horiz-adv-x="310" 
d="M268 280v-10l-166 -193h-60l115 198l-115 198h60z" />
    <glyph glyph-name="fi" unicode="&#xfb01;" horiz-adv-x="669" 
d="M303 0h-264v45c44 6 72 11 72 57v374h-74v42l74 24v11c0 135 102 214 233 214c93 0 154 -27 154 -83c0 -27 -15 -47 -34 -59h-74v29c0 47 -19 68 -63 68c-52 0 -95 -46 -95 -139v-48h275l31 12h27v-445c0 -46 27 -51 72 -57v-45h-263v45c44 6 70 11 70 57v374h-212v-374
c0 -46 26 -51 71 -57v-45z" />
    <glyph glyph-name="fl" unicode="&#xfb02;" horiz-adv-x="668" 
d="M111 102v374h-74v42l74 24v14c0 134 97 211 210 211c52 0 100 -15 133 -36l84 30h27v-659c0 -46 28 -51 72 -57v-45h-264v45c45 6 71 11 71 57v537c-23 47 -62 83 -117 83c-64 0 -95 -48 -95 -126v-60h121v-60h-121v-374c0 -46 26 -51 71 -57v-45h-264v45
c44 6 72 11 72 57z" />
    <glyph glyph-name="endash" unicode="&#x2013;" horiz-adv-x="580" 
d="M530 269h-480v72h480v-72z" />
    <glyph glyph-name="dagger" unicode="&#x2020;" horiz-adv-x="474" 
d="M45 605l168 -15l-15 168h77l-16 -168l170 15v-73l-170 14l16 -303h-77l16 303l-169 -14v73z" />
    <glyph glyph-name="daggerdbl" unicode="&#x2021;" horiz-adv-x="488" 
d="M222 561l-170 -14v73l168 -15l-15 153h77l-16 -153l170 15v-73l-171 14v-122l171 15v-73l-170 14l16 -152h-77l15 152l-168 -14v73l170 -15v122z" />
    <glyph glyph-name="periodcentered" unicode="&#xb7;" horiz-adv-x="274" 
d="M54 302c0 48 36 84 83 84c46 0 83 -36 83 -84c0 -47 -37 -83 -83 -83c-47 0 -83 36 -83 83z" />
    <glyph glyph-name="paragraph" unicode="&#xb6;" horiz-adv-x="635" 
d="M323 -197v412c-178 0 -267 111 -267 247s89 240 267 240h286v-48c-70 -1 -102 -12 -102 -73v-778h-59v855h-66v-855h-59zM323 258v401c-102 -3 -139 -99 -139 -197s37 -201 139 -204z" />
    <glyph glyph-name="bullet" unicode="&#x2022;" horiz-adv-x="374" 
d="M54 303c0 74 60 135 133 135c74 0 134 -61 134 -135s-60 -135 -134 -135c-73 0 -133 61 -133 135z" />
    <glyph glyph-name="quotesinglbase" unicode="&#x201a;" horiz-adv-x="284" 
d="M159 14h-40c-32 7 -51 30 -51 68c0 41 30 71 75 71c55 0 85 -41 85 -102c0 -92 -53 -160 -176 -166v45c72 10 104 36 107 84z" />
    <glyph glyph-name="quotedblbase" unicode="&#x201e;" horiz-adv-x="499" 
d="M374 14h-40c-32 7 -51 30 -51 68c0 41 30 71 75 71c55 0 85 -41 85 -102c0 -92 -53 -160 -176 -166v45c72 10 104 36 107 84zM159 14h-40c-32 7 -51 30 -51 68c0 41 30 71 75 71c55 0 85 -41 85 -102c0 -92 -53 -160 -176 -166v45c72 10 104 36 107 84z" />
    <glyph glyph-name="quotedblright" unicode="&#x201d;" horiz-adv-x="499" 
d="M374 624h-40c-32 7 -51 30 -51 68c0 42 30 72 75 72c55 0 85 -41 85 -103c0 -91 -53 -159 -176 -166v46c72 9 104 35 107 83zM159 624h-40c-32 7 -51 30 -51 68c0 42 30 72 75 72c55 0 85 -41 85 -103c0 -91 -53 -159 -176 -166v46c72 9 104 35 107 83z" />
    <glyph glyph-name="guillemotright" unicode="&#xbb;" horiz-adv-x="503" 
d="M268 280v-10l-166 -193h-60l115 198l-115 198h60zM461 280v-10l-167 -193h-59l115 198l-115 198h59z" />
    <glyph glyph-name="ellipsis" unicode="&#x2026;" horiz-adv-x="871" 
d="M62 73c0 48 37 84 83 84c47 0 84 -36 84 -84c0 -47 -37 -83 -84 -83c-46 0 -83 36 -83 83zM352 73c0 48 37 84 83 84c47 0 84 -36 84 -84c0 -47 -37 -83 -84 -83c-46 0 -83 36 -83 83zM642 73c0 48 37 84 84 84c46 0 83 -36 83 -84c0 -47 -37 -83 -83 -83
c-47 0 -84 36 -84 83z" />
    <glyph glyph-name="perthousand" unicode="&#x2030;" horiz-adv-x="1280" 
d="M134 528c0 -76 24 -141 83 -141c60 0 84 65 84 141c0 77 -24 141 -84 141c-59 0 -83 -64 -83 -141zM185 -19l450 741h64l-450 -741h-64zM39 528c0 117 84 184 178 184s179 -67 179 -184s-85 -184 -179 -184s-178 67 -178 184zM751 175c0 76 -24 141 -83 141
c-60 0 -84 -65 -84 -141c0 -77 24 -141 84 -141c59 0 83 64 83 141zM846 175c0 -117 -85 -184 -178 -184c-95 0 -179 67 -179 184c0 116 84 184 179 184c93 0 178 -68 178 -184zM1146 175c0 76 -24 141 -83 141c-60 0 -84 -65 -84 -141c0 -77 24 -141 84 -141
c59 0 83 64 83 141zM1241 175c0 -117 -84 -184 -178 -184s-179 67 -179 184c0 116 85 184 179 184s178 -68 178 -184z" />
    <glyph glyph-name="questiondown" unicode="&#xbf;" horiz-adv-x="451" 
d="M149 -39c0 -55 34 -86 90 -86c58 0 82 36 82 90v42h89c17 -13 26 -31 26 -53c0 -76 -84 -133 -196 -133c-124 0 -204 55 -204 167c0 83 46 134 120 185c58 39 78 70 78 123v30h37c16 -17 38 -54 38 -94c0 -52 -20 -94 -73 -137c-47 -39 -87 -69 -87 -134zM335 461
c0 -47 -36 -83 -82 -83s-81 36 -81 83c0 45 35 82 81 82s82 -37 82 -82z" />
    <glyph glyph-name="emdash" unicode="&#x2014;" horiz-adv-x="1000" 
d="M950 341v-72h-900v72h900z" />
    <glyph glyph-name="AE" unicode="&#xc6;" horiz-adv-x="1056" 
d="M68 85l373 532c-10 27 -34 35 -95 37v48h639v-174h-42c-35 85 -62 121 -143 121h-163v-262h142c44 0 62 26 72 86h43v-227h-43c-10 60 -28 87 -72 87h-142v-212c0 -54 30 -68 95 -68h78c82 0 104 32 168 135h42l-30 -188h-574v48c67 2 95 13 95 72v129h-256l-77 -112
c-14 -20 -19 -37 -19 -52c0 -31 20 -35 89 -37v-48h-242v48c27 4 45 14 62 37zM511 617l-220 -316h220v316z" />
    <glyph glyph-name="ordfeminine" unicode="&#xaa;" horiz-adv-x="449" 
d="M191 377c27 0 46 8 71 27v125l-73 -30c-34 -14 -49 -34 -49 -64c0 -36 20 -58 51 -58zM358 589c0 -35 -3 -142 -3 -169c0 -30 13 -46 31 -46c7 0 23 1 34 4l4 -26c-25 -24 -59 -37 -88 -37c-39 0 -62 28 -72 65c-27 -31 -70 -64 -123 -64c-64 0 -99 43 -99 99
c0 67 52 91 101 108l119 41v40c0 45 -12 79 -57 79c-34 0 -52 -17 -52 -51c0 -14 2 -26 6 -41l-76 -10c-13 10 -21 24 -21 44c0 62 63 97 149 97c95 0 147 -41 147 -133z" />
    <glyph glyph-name="Lslash" unicode="&#x141;" horiz-adv-x="638" 
d="M266 583v-184l154 55v-54l-154 -55v-223c0 -54 27 -68 93 -68h48c81 0 101 39 165 155h47l-34 -209h-542v48c67 2 95 13 95 72v184l-95 -33v54l95 33v225c0 58 -28 68 -95 71v48h317v-48c-65 -3 -94 -13 -94 -71z" />
    <glyph glyph-name="Oslash" unicode="&#xd8;" horiz-adv-x="759" 
d="M651 727l-55 -87c78 -65 120 -166 120 -275c0 -229 -152 -375 -341 -375c-63 0 -119 14 -165 39l-56 -89l-46 26l58 93c-80 64 -123 166 -123 278c0 229 152 375 341 375c65 0 122 -16 169 -43l53 84zM180 358c0 -80 14 -152 45 -207l279 442c-33 36 -78 58 -136 58
c-127 0 -188 -128 -188 -293zM391 51c127 0 188 128 188 293c0 77 -14 148 -42 202l-279 -441c33 -34 77 -54 133 -54z" />
    <glyph glyph-name="OE" unicode="&#x152;" horiz-adv-x="1024" 
d="M958 0h-534c-261 0 -384 147 -384 335c0 236 161 367 368 367h545v-174h-42c-35 85 -62 121 -143 121h-162v-262h141c44 0 62 26 72 86h43v-227h-43c-10 60 -28 87 -72 87h-141v-212c0 -54 29 -68 94 -68h78c82 0 104 32 168 135h42zM479 53v596h-69
c-141 0 -231 -101 -231 -297c0 -160 78 -299 266 -299h34z" />
    <glyph glyph-name="ordmasculine" unicode="&#xba;" horiz-adv-x="454" 
d="M236 358c54 0 80 62 80 151c0 95 -34 170 -96 170c-55 0 -82 -63 -82 -152c0 -94 35 -169 98 -169zM224 315c-117 0 -190 81 -190 197c0 127 81 210 196 210c118 0 190 -82 190 -197c0 -128 -80 -210 -196 -210z" />
    <glyph glyph-name="ae" unicode="&#xe6;" horiz-adv-x="837" 
d="M591 546c136 0 207 -96 207 -225v-33h-349c0 -121 68 -202 174 -202c72 0 118 33 154 81l22 -13c-24 -97 -101 -164 -218 -164c-91 0 -161 42 -201 109c-53 -71 -117 -108 -195 -108c-91 0 -145 62 -145 137c0 92 73 124 142 144l166 48c2 13 5 26 8 38
c-3 72 -28 136 -105 136c-49 0 -73 -24 -73 -70c0 -19 2 -36 7 -57l-88 -13c-19 13 -28 32 -28 59c0 87 85 133 192 133c80 0 132 -25 160 -73c44 46 103 73 170 73zM342 251v18l-120 -36c-38 -11 -60 -38 -60 -80c0 -48 27 -80 75 -80c52 0 95 21 132 49
c-18 38 -27 81 -27 129zM576 491c-73 0 -116 -72 -123 -153h232c0 92 -36 153 -109 153z" />
    <glyph glyph-name="dotlessi" unicode="&#x131;" horiz-adv-x="335" 
d="M231 546v-444c0 -46 27 -51 72 -57v-45h-265v45c44 6 72 11 72 57v328l-67 42v24l160 50h28z" />
    <glyph glyph-name="lslash" unicode="&#x142;" horiz-adv-x="359" 
d="M239 761v-275l99 58v-58l-99 -58v-326c0 -46 28 -51 72 -57v-45h-265v45c45 6 72 11 72 57v263l-92 -53v58l92 53v223l-67 43v25l161 47h27z" />
    <glyph glyph-name="oslash" unicode="&#xf8;" horiz-adv-x="592" 
d="M503 568l-44 -75c60 -48 95 -124 95 -215c0 -175 -117 -288 -263 -288c-43 0 -82 9 -115 25l-48 -81l-44 25l49 83c-60 48 -95 125 -95 216c0 175 116 288 262 288c43 0 82 -9 116 -26l44 74zM161 283c0 -60 8 -112 25 -152l189 320c-22 24 -51 38 -88 38
c-83 0 -126 -84 -126 -206zM305 48c82 0 125 83 125 205c0 59 -8 110 -25 150l-189 -319c22 -23 52 -36 89 -36z" />
    <glyph glyph-name="oe" unicode="&#x153;" horiz-adv-x="927" 
d="M300 546c84 0 151 -39 195 -99c44 60 108 99 186 99c136 0 207 -96 207 -225v-33h-349c0 -121 68 -202 174 -202c72 0 118 33 154 81l22 -13c-24 -97 -101 -164 -218 -164c-81 0 -147 38 -187 98c-48 -59 -117 -98 -193 -98c-154 0 -253 114 -253 268
c0 175 116 288 262 288zM305 48c82 0 124 83 124 205c0 130 -52 236 -142 236c-83 0 -124 -84 -124 -206c0 -130 51 -235 142 -235zM666 491c-73 0 -116 -71 -123 -152h232c0 92 -36 152 -109 152z" />
    <glyph glyph-name="germandbls" unicode="&#xdf;" horiz-adv-x="694" 
d="M428 422c0 -32 33 -46 102 -85c75 -44 130 -83 130 -176c0 -104 -85 -170 -186 -170c-71 0 -122 21 -159 55l-6 129h52c17 -82 49 -133 112 -133c50 0 83 28 83 78c0 54 -34 78 -108 122c-73 42 -112 76 -112 141c0 87 123 120 123 239c0 61 -29 100 -97 100
c-79 0 -129 -62 -129 -171v-551h-194v45c45 6 72 11 72 57v371h-74v42l74 24c9 149 113 228 254 228c117 0 195 -49 195 -145c0 -108 -132 -131 -132 -200z" />
    <glyph glyph-name="onesuperior" unicode="&#xb9;" horiz-adv-x="381" 
d="M218 748h29v-376c0 -39 22 -42 90 -46v-39h-282v39c72 4 90 7 90 46v253h-90v34l29 6c67 12 97 36 134 83z" />
    <glyph glyph-name="mu" unicode="&#xb5;" horiz-adv-x="645" 
d="M199 16l13 -177v-26l-121 -10v615c0 34 -10 47 -53 54l-16 3v41l170 30h21v-375c0 -66 26 -96 83 -96c48 0 89 19 124 42v301c0 34 -10 47 -53 54l-16 3v41l168 30h22v-427c0 -34 10 -44 50 -48l26 -2v-45l-176 -34h-21v98c-43 -44 -93 -93 -162 -96
c-27 -1 -50 11 -59 24z" />
    <glyph glyph-name="trademark" unicode="&#x2122;" horiz-adv-x="898" 
d="M51 702h306l7 -105h-27c-24 52 -33 71 -75 71h-20v-241c0 -25 16 -29 48 -31v-29h-171v29c32 2 48 6 48 31v241h-20c-42 0 -51 -19 -74 -71h-29zM601 473l73 198c4 9 6 19 7 31h113v-30c-30 -2 -39 -11 -40 -31l29 -219c3 -20 14 -24 41 -26v-29h-159v29c34 2 46 6 46 27
c0 5 -2 20 -4 34l-21 149l-87 -239h-33l-89 239l-20 -149c-2 -14 -3 -30 -3 -34c0 -21 11 -25 46 -27v-29h-126v29c26 1 37 9 40 26l30 219c-1 20 -10 29 -40 31v30h116c2 -12 4 -22 7 -31z" />
    <glyph glyph-name="Eth" unicode="&#xd0;" horiz-adv-x="779" 
d="M43 335v51h95v197c0 58 -28 69 -95 71v48h313c260 0 383 -147 383 -334c0 -236 -155 -368 -362 -368h-334v48c67 2 95 13 95 72v215h-95zM334 648h-69v-262h158v-51h-158v-210c0 -59 28 -71 92 -71h18c141 0 226 100 226 296c0 160 -78 298 -267 298z" />
    <glyph glyph-name="onehalf" unicode="&#xbd;" horiz-adv-x="911" 
d="M218 748h29v-376c0 -39 22 -42 90 -46v-39h-282v39c72 4 90 7 90 46v253h-90v34l29 6c67 12 97 36 134 83zM217 0l449 741h66l-450 -741h-65zM631 13h111c49 0 61 6 93 62h29l-15 -147h-333v30l120 116c74 72 104 112 104 162c0 49 -31 77 -82 77c-48 0 -80 -29 -106 -55
l-22 22c30 57 90 109 171 109c88 0 141 -48 141 -129c0 -95 -99 -158 -211 -247z" />
    <glyph glyph-name="plusminus" unicode="&#xb1;" horiz-adv-x="576" 
d="M252 608h71v-141h186v-70h-186v-140h-71v140h-184v70h184v141zM68 135v71h441v-71h-441z" />
    <glyph glyph-name="Thorn" unicode="&#xde;" horiz-adv-x="641" 
d="M255 499v-291h57c112 0 171 39 171 145c0 94 -61 146 -173 146h-55zM255 553h86c193 0 275 -88 275 -197c0 -123 -86 -200 -263 -200h-98v-36c0 -59 44 -68 125 -72v-48h-347v48c67 2 95 13 95 72v463c0 58 -28 69 -95 71v48h317v-48c-67 -2 -95 -13 -95 -71v-30z" />
    <glyph glyph-name="onequarter" unicode="&#xbc;" horiz-adv-x="912" 
d="M521 96h156v193zM780 -71h-103v119h-221v38l246 302h78v-292h82v-48h-82v-119zM217 748h29v-376c0 -39 23 -42 90 -46v-39h-282v39c72 4 91 7 91 46v253h-91v34l29 6c67 12 97 36 134 83zM217 0l449 741h65l-450 -741h-64z" />
    <glyph glyph-name="divide" unicode="&#xf7;" horiz-adv-x="576" 
d="M66 333v72h444v-72h-444zM227 195c0 35 27 62 60 62s62 -27 62 -62c0 -33 -29 -61 -62 -61s-60 28 -60 61zM227 543c0 33 27 60 60 60s62 -27 62 -60s-29 -62 -62 -62s-60 29 -60 62z" />
    <glyph glyph-name="brokenbar" unicode="&#xa6;" horiz-adv-x="271" 
d="M171 770v-376h-71v376h71zM171 235v-376h-71v376h71z" />
    <glyph glyph-name="degree" unicode="&#xb0;" horiz-adv-x="370" 
d="M89 558c0 -58 37 -101 96 -101s96 43 96 101c0 59 -37 101 -96 101s-96 -42 -96 -101zM29 558c0 88 68 154 156 154s156 -66 156 -154c0 -87 -68 -153 -156 -153s-156 66 -156 153z" />
    <glyph glyph-name="thorn" unicode="&#xfe;" horiz-adv-x="614" 
d="M200 426v-255c0 -84 41 -128 112 -128c86 0 142 82 142 206c0 116 -46 215 -146 215c-41 0 -82 -13 -108 -38zM79 -95v741l-67 43v25l161 47h27v-305c38 54 93 90 167 90c134 0 209 -106 209 -252c0 -188 -113 -304 -259 -304c-53 0 -97 19 -117 45v-130
c0 -46 28 -51 73 -57v-45h-267v45c45 6 73 11 73 57z" />
    <glyph glyph-name="threequarters" unicode="&#xbe;" horiz-adv-x="926" 
d="M233 537c81 -7 135 -54 135 -124c0 -89 -83 -135 -177 -135c-104 0 -156 46 -156 96c0 26 14 42 29 49h61v-23c0 -53 24 -85 72 -85c45 0 71 30 71 85c0 63 -40 93 -104 93h-23l-5 26c72 27 112 51 112 95c0 34 -24 59 -70 59c-49 0 -76 -30 -95 -61l-29 20
c27 61 83 112 167 112c77 0 125 -41 125 -101s-60 -92 -113 -106zM535 96h157v193zM795 -71h-103v119h-222v38l246 302h79v-292h81v-48h-81v-119zM231 0l449 741h65l-450 -741h-64z" />
    <glyph glyph-name="twosuperior" unicode="&#xb2;" horiz-adv-x="420" 
d="M139 372h113c48 0 60 6 93 62h29l-15 -147h-334v31l120 115c75 71 103 112 103 162c0 49 -31 77 -81 77c-47 0 -80 -29 -106 -55l-21 22c30 57 88 109 170 109c87 0 141 -48 141 -129c0 -95 -99 -158 -212 -247z" />
    <glyph glyph-name="registered" unicode="&#xae;" horiz-adv-x="555" 
d="M270 583h-20v-93h20c33 0 52 18 52 48c0 29 -19 45 -52 45zM171 607h110c64 0 95 -31 95 -69c0 -35 -30 -59 -58 -65l41 -55c14 -19 23 -27 39 -27v-20h-55c-11 6 -25 22 -36 39l-38 58h-19v-53c0 -19 7 -24 28 -24v-20h-107v20c22 0 29 5 29 24v146c0 22 -7 23 -29 25
v21zM87 484c0 -103 80 -193 190 -193c111 0 191 90 191 193c0 104 -80 194 -191 194c-110 0 -190 -90 -190 -194zM50 484c0 126 95 228 227 228c133 0 228 -102 228 -228c0 -125 -95 -227 -228 -227c-132 0 -227 102 -227 227z" />
    <glyph glyph-name="minus" unicode="&#x2212;" horiz-adv-x="576" 
d="M66 333v72h444v-72h-444z" />
    <glyph glyph-name="eth" unicode="&#xf0;" horiz-adv-x="589" 
d="M156 574l-16 40l124 47c-42 34 -90 61 -144 80l20 35c79 -20 146 -49 202 -85l113 44l16 -41l-87 -33c114 -92 168 -219 168 -351c0 -212 -109 -320 -261 -320c-154 0 -253 114 -253 268c0 173 115 271 242 271c58 0 102 -28 134 -65c-23 57 -62 115 -113 165zM305 48
c82 0 124 83 124 205c0 130 -52 230 -142 230c-83 0 -124 -78 -124 -200c0 -130 51 -235 142 -235z" />
    <glyph glyph-name="multiply" unicode="&#xd7;" horiz-adv-x="499" 
d="M200 365l-136 136l50 50l135 -137l136 137l51 -50l-137 -136l137 -136l-51 -49l-136 136l-135 -136l-50 49z" />
    <glyph glyph-name="threesuperior" unicode="&#xb3;" horiz-adv-x="417" 
d="M233 537c81 -7 135 -54 135 -124c0 -89 -83 -135 -177 -135c-104 0 -156 46 -156 96c0 26 14 42 29 49h61v-23c0 -53 24 -85 72 -85c45 0 71 30 71 85c0 63 -40 93 -104 93h-23l-5 26c72 27 112 51 112 95c0 34 -24 59 -70 59c-49 0 -76 -30 -95 -61l-29 20
c27 61 83 112 167 112c77 0 125 -41 125 -101s-60 -92 -113 -106z" />
    <glyph glyph-name="copyright" unicode="&#xa9;" horiz-adv-x="796" 
d="M82 351c0 -177 130 -322 316 -322s316 145 316 322s-130 322 -316 322s-316 -145 -316 -322zM40 351c0 199 149 361 358 361s358 -162 358 -361s-149 -361 -358 -361s-358 162 -358 361zM419 184c56 0 76 42 96 103h42l-9 -109c-37 -21 -78 -36 -139 -36
c-124 0 -203 85 -203 202c0 137 94 220 209 220c60 0 103 -18 131 -41v-95h-41c-13 59 -41 95 -89 95c-81 0 -113 -74 -113 -164c0 -98 40 -175 116 -175z" />
    <glyph glyph-name="Aacute" unicode="&#xc1;" horiz-adv-x="734" 
d="M511 131l-40 95h-280l-37 -94c-6 -15 -11 -29 -11 -40c0 -31 21 -42 87 -44v-48h-224v48c27 4 48 10 59 37l228 553l-32 71h139l269 -624c11 -26 30 -33 59 -37v-48h-292v48c66 2 86 12 86 43c0 12 -4 25 -11 40zM329 569l-117 -291h238zM381 910h139l-155 -152h-58z" />
    <glyph glyph-name="Acircumflex" unicode="&#xc2;" horiz-adv-x="734" 
d="M511 131l-40 95h-280l-37 -94c-6 -15 -11 -29 -11 -40c0 -31 21 -42 87 -44v-48h-224v48c27 4 48 10 59 37l228 553l-32 71h139l269 -624c11 -26 30 -33 59 -37v-48h-292v48c66 2 86 12 86 43c0 12 -4 25 -11 40zM329 569l-117 -291h238zM391 919l147 -162h-61l-130 87
l-130 -87h-61l147 162h88z" />
    <glyph glyph-name="Adieresis" unicode="&#xc4;" horiz-adv-x="734" 
d="M511 131l-40 95h-280l-37 -94c-6 -15 -11 -29 -11 -40c0 -31 21 -42 87 -44v-48h-224v48c27 4 48 10 59 37l228 553l-32 71h139l269 -624c11 -26 30 -33 59 -37v-48h-292v48c66 2 86 12 86 43c0 12 -4 25 -11 40zM329 569l-117 -291h238zM381 832c0 37 32 68 69 68
c40 0 70 -31 70 -68c0 -39 -30 -70 -70 -70c-37 0 -69 31 -69 70zM175 832c0 37 31 68 70 68c38 0 69 -31 69 -68c0 -39 -31 -70 -69 -70c-39 0 -70 31 -70 70z" />
    <glyph glyph-name="Agrave" unicode="&#xc0;" horiz-adv-x="734" 
d="M511 131l-40 95h-280l-37 -94c-6 -15 -11 -29 -11 -40c0 -31 21 -42 87 -44v-48h-224v48c27 4 48 10 59 37l228 553l-32 71h139l269 -624c11 -26 30 -33 59 -37v-48h-292v48c66 2 86 12 86 43c0 12 -4 25 -11 40zM329 569l-117 -291h238zM174 910h140l73 -152h-57z" />
    <glyph glyph-name="Aring" unicode="&#xc5;" horiz-adv-x="734" 
d="M511 131l-40 95h-280l-37 -94c-6 -15 -11 -29 -11 -40c0 -31 21 -42 87 -44v-48h-224v48c27 4 48 10 59 37l228 553l-32 71h139l269 -624c11 -26 30 -33 59 -37v-48h-292v48c66 2 86 12 86 43c0 12 -4 25 -11 40zM329 569l-117 -291h238zM248 844c0 53 41 94 99 94
s99 -41 99 -94c0 -54 -41 -94 -99 -94s-99 40 -99 94zM397 844c0 29 -17 51 -50 51s-49 -22 -49 -51c0 -30 16 -51 49 -51s50 21 50 51z" />
    <glyph glyph-name="Atilde" unicode="&#xc3;" horiz-adv-x="734" 
d="M511 131l-40 95h-280l-37 -94c-6 -15 -11 -29 -11 -40c0 -31 21 -42 87 -44v-48h-224v48c27 4 48 10 59 37l228 553l-32 71h139l269 -624c11 -26 30 -33 59 -37v-48h-292v48c66 2 86 12 86 43c0 12 -4 25 -11 40zM329 569l-117 -291h238zM499 893l43 -10
c-47 -107 -74 -129 -124 -129c-59 0 -104 68 -144 68c-31 0 -44 -22 -65 -59l-44 10c48 107 74 129 125 129c61 0 103 -69 144 -69c30 0 43 22 65 60z" />
    <glyph glyph-name="Ccedilla" unicode="&#xc7;" horiz-adv-x="683" 
d="M292 -225l-8 38c72 0 116 14 116 44c0 29 -35 40 -90 42l37 93c-189 14 -307 154 -307 344c0 233 156 376 353 376c102 0 175 -27 223 -66v-156h-54c-27 111 -84 164 -174 164c-148 0 -209 -134 -209 -289c0 -181 75 -316 222 -316c95 0 147 59 184 176h55l-21 -177
c-62 -35 -131 -57 -234 -58l-14 -37c64 -2 105 -23 105 -75c0 -70 -84 -103 -184 -103z" />
    <glyph glyph-name="Eacute" unicode="&#xc9;" horiz-adv-x="673" 
d="M381 910h139l-155 -152h-58zM512 246h-44c-10 60 -28 87 -72 87h-141v-212c0 -54 29 -68 95 -68h77c83 0 104 32 168 135h43l-31 -188h-574v48c67 2 95 13 95 72v463c0 58 -28 69 -95 71v48h569v-174h-42c-35 85 -62 121 -142 121h-163v-262h141c44 0 62 26 72 86h44
v-227z" />
    <glyph glyph-name="Ecircumflex" unicode="&#xca;" horiz-adv-x="673" 
d="M512 246h-44c-10 60 -28 87 -72 87h-141v-212c0 -54 29 -68 95 -68h77c83 0 104 32 168 135h43l-31 -188h-574v48c67 2 95 13 95 72v463c0 58 -28 69 -95 71v48h569v-174h-42c-35 85 -62 121 -142 121h-163v-262h141c44 0 62 26 72 86h44v-227zM392 919l147 -162h-61
l-130 87l-130 -87h-61l147 162h88z" />
    <glyph glyph-name="Edieresis" unicode="&#xcb;" horiz-adv-x="673" 
d="M175 832c0 37 31 68 70 68c38 0 69 -31 69 -68c0 -39 -31 -70 -69 -70c-39 0 -70 31 -70 70zM381 832c0 37 32 68 69 68c40 0 70 -31 70 -68c0 -39 -30 -70 -70 -70c-37 0 -69 31 -69 70zM512 246h-44c-10 60 -28 87 -72 87h-141v-212c0 -54 29 -68 95 -68h77
c83 0 104 32 168 135h43l-31 -188h-574v48c67 2 95 13 95 72v463c0 58 -28 69 -95 71v48h569v-174h-42c-35 85 -62 121 -142 121h-163v-262h141c44 0 62 26 72 86h44v-227z" />
    <glyph glyph-name="Egrave" unicode="&#xc8;" horiz-adv-x="673" 
d="M174 910h140l73 -152h-57zM512 246h-44c-10 60 -28 87 -72 87h-141v-212c0 -54 29 -68 95 -68h77c83 0 104 32 168 135h43l-31 -188h-574v48c67 2 95 13 95 72v463c0 58 -28 69 -95 71v48h569v-174h-42c-35 85 -62 121 -142 121h-163v-262h141c44 0 62 26 72 86h44v-227z
" />
    <glyph glyph-name="Iacute" unicode="&#xcd;" horiz-adv-x="383" 
d="M350 0h-317v48c67 2 95 13 95 72v463c0 58 -28 69 -95 71v48h317v-48c-67 -2 -95 -13 -95 -71v-463c0 -59 28 -70 95 -72v-48zM225 910h139l-155 -152h-58z" />
    <glyph glyph-name="Icircumflex" unicode="&#xce;" horiz-adv-x="383" 
d="M350 0h-317v48c67 2 95 13 95 72v463c0 58 -28 69 -95 71v48h317v-48c-67 -2 -95 -13 -95 -71v-463c0 -59 28 -70 95 -72v-48zM235 919l147 -162h-61l-130 87l-130 -87h-61l147 162h88z" />
    <glyph glyph-name="Idieresis" unicode="&#xcf;" horiz-adv-x="383" 
d="M350 0h-317v48c67 2 95 13 95 72v463c0 58 -28 69 -95 71v48h317v-48c-67 -2 -95 -13 -95 -71v-463c0 -59 28 -70 95 -72v-48zM19 832c0 37 31 68 70 68c38 0 69 -31 69 -68c0 -39 -31 -70 -69 -70c-39 0 -70 31 -70 70zM225 832c0 37 32 68 69 68c40 0 70 -31 70 -68
c0 -39 -30 -70 -70 -70c-37 0 -69 31 -69 70z" />
    <glyph glyph-name="Igrave" unicode="&#xcc;" horiz-adv-x="383" 
d="M350 0h-317v48c67 2 95 13 95 72v463c0 58 -28 69 -95 71v48h317v-48c-67 -2 -95 -13 -95 -71v-463c0 -59 28 -70 95 -72v-48zM18 910h140l73 -152h-57z" />
    <glyph glyph-name="Ntilde" unicode="&#xd1;" horiz-adv-x="798" 
d="M547 893l43 -10c-47 -107 -74 -129 -124 -129c-59 0 -104 68 -144 68c-31 0 -44 -22 -65 -59l-44 10c48 107 74 129 125 129c61 0 103 -69 144 -69c30 0 43 22 65 60zM128 120v475c-36 45 -50 57 -95 59v48h201l378 -483v364c0 58 -31 69 -97 71v48h260v-48
c-67 -2 -95 -13 -95 -71v-583h-53l-431 539v-419c0 -59 31 -70 98 -72v-48h-261v48c67 2 95 13 95 72z" />
    <glyph glyph-name="Oacute" unicode="&#xd3;" horiz-adv-x="753" 
d="M413 910h139l-155 -152h-58zM388 51c127 0 187 128 187 293c0 162 -62 307 -210 307c-127 0 -187 -128 -187 -293c0 -162 63 -307 210 -307zM382 712c210 0 331 -161 331 -347c0 -229 -152 -375 -341 -375c-211 0 -332 161 -332 347c0 229 153 375 342 375z" />
    <glyph glyph-name="Ocircumflex" unicode="&#xd4;" horiz-adv-x="753" 
d="M388 51c127 0 187 128 187 293c0 162 -62 307 -210 307c-127 0 -187 -128 -187 -293c0 -162 63 -307 210 -307zM382 712c210 0 331 -161 331 -347c0 -229 -152 -375 -341 -375c-211 0 -332 161 -332 347c0 229 153 375 342 375zM423 919l147 -162h-61l-130 87l-130 -87
h-61l147 162h88z" />
    <glyph glyph-name="Odieresis" unicode="&#xd6;" horiz-adv-x="753" 
d="M206 832c0 37 31 68 70 68c38 0 69 -31 69 -68c0 -39 -31 -70 -69 -70c-39 0 -70 31 -70 70zM412 832c0 37 32 68 69 68c40 0 70 -31 70 -68c0 -39 -30 -70 -70 -70c-37 0 -69 31 -69 70zM388 51c127 0 187 128 187 293c0 162 -62 307 -210 307
c-127 0 -187 -128 -187 -293c0 -162 63 -307 210 -307zM382 712c210 0 331 -161 331 -347c0 -229 -152 -375 -341 -375c-211 0 -332 161 -332 347c0 229 153 375 342 375z" />
    <glyph glyph-name="Ograve" unicode="&#xd2;" horiz-adv-x="753" 
d="M206 910h140l73 -152h-57zM388 51c127 0 187 128 187 293c0 162 -62 307 -210 307c-127 0 -187 -128 -187 -293c0 -162 63 -307 210 -307zM382 712c210 0 331 -161 331 -347c0 -229 -152 -375 -341 -375c-211 0 -332 161 -332 347c0 229 153 375 342 375z" />
    <glyph glyph-name="Otilde" unicode="&#xd5;" horiz-adv-x="753" 
d="M525 893l43 -10c-47 -107 -74 -129 -124 -129c-59 0 -104 68 -144 68c-31 0 -44 -22 -65 -59l-44 10c48 107 74 129 125 129c61 0 103 -69 144 -69c30 0 43 22 65 60zM388 51c127 0 187 128 187 293c0 162 -62 307 -210 307c-127 0 -187 -128 -187 -293
c0 -162 63 -307 210 -307zM382 712c210 0 331 -161 331 -347c0 -229 -152 -375 -341 -375c-211 0 -332 161 -332 347c0 229 153 375 342 375z" />
    <glyph glyph-name="Scaron" unicode="&#x160;" horiz-adv-x="573" 
d="M274 -10c-96 0 -179 31 -225 68l-8 165h54c30 -107 87 -177 186 -177c84 0 137 40 137 116c0 63 -40 93 -158 133c-140 47 -212 98 -212 216s88 201 231 201c86 0 161 -26 213 -62v-153h-48c-25 92 -76 160 -172 160c-78 0 -118 -45 -118 -103c0 -66 35 -94 153 -134
c147 -49 222 -103 222 -223c0 -137 -116 -207 -255 -207zM475 920l-147 -162h-88l-147 162h61l130 -87l130 87h61z" />
    <glyph glyph-name="Uacute" unicode="&#xda;" horiz-adv-x="769" 
d="M443 910h139l-155 -152h-58zM234 583v-330c0 -119 57 -187 168 -187c121 0 192 51 192 195v322c0 58 -32 69 -98 71v48h261v-48c-66 -2 -94 -13 -94 -71v-344c0 -169 -125 -248 -271 -248c-176 0 -286 79 -286 249v343c0 58 -28 69 -94 71v48h316v-48
c-66 -2 -94 -13 -94 -71z" />
    <glyph glyph-name="Ucircumflex" unicode="&#xdb;" horiz-adv-x="769" 
d="M234 583v-330c0 -119 57 -187 168 -187c121 0 192 51 192 195v322c0 58 -32 69 -98 71v48h261v-48c-66 -2 -94 -13 -94 -71v-344c0 -169 -125 -248 -271 -248c-176 0 -286 79 -286 249v343c0 58 -28 69 -94 71v48h316v-48c-66 -2 -94 -13 -94 -71zM453 919l147 -162h-61
l-130 87l-130 -87h-61l147 162h88z" />
    <glyph glyph-name="Udieresis" unicode="&#xdc;" horiz-adv-x="769" 
d="M236 832c0 37 31 68 70 68c38 0 69 -31 69 -68c0 -39 -31 -70 -69 -70c-39 0 -70 31 -70 70zM442 832c0 37 32 68 69 68c40 0 70 -31 70 -68c0 -39 -30 -70 -70 -70c-37 0 -69 31 -69 70zM234 583v-330c0 -119 57 -187 168 -187c121 0 192 51 192 195v322
c0 58 -32 69 -98 71v48h261v-48c-66 -2 -94 -13 -94 -71v-344c0 -169 -125 -248 -271 -248c-176 0 -286 79 -286 249v343c0 58 -28 69 -94 71v48h316v-48c-66 -2 -94 -13 -94 -71z" />
    <glyph glyph-name="Ugrave" unicode="&#xd9;" horiz-adv-x="769" 
d="M236 910h140l73 -152h-57zM234 583v-330c0 -119 57 -187 168 -187c121 0 192 51 192 195v322c0 58 -32 69 -98 71v48h261v-48c-66 -2 -94 -13 -94 -71v-344c0 -169 -125 -248 -271 -248c-176 0 -286 79 -286 249v343c0 58 -28 69 -94 71v48h316v-48
c-66 -2 -94 -13 -94 -71z" />
    <glyph glyph-name="Yacute" unicode="&#xdd;" horiz-adv-x="677" 
d="M369 337l141 229c12 20 19 35 19 50c0 27 -21 36 -84 38v48h227v-48c-29 -4 -45 -11 -60 -37l-212 -342v-155c0 -59 31 -70 97 -72v-48h-319v48c67 2 97 13 97 72v155l-210 342c-15 26 -31 33 -59 37v48h289v-48c-64 -2 -83 -11 -83 -38c0 -16 7 -30 19 -50zM393 910h139
l-155 -152h-58z" />
    <glyph glyph-name="Ydieresis" unicode="&#x178;" horiz-adv-x="677" 
d="M369 337l141 229c12 20 19 35 19 50c0 27 -21 36 -84 38v48h227v-48c-29 -4 -45 -11 -60 -37l-212 -342v-155c0 -59 31 -70 97 -72v-48h-319v48c67 2 97 13 97 72v155l-210 342c-15 26 -31 33 -59 37v48h289v-48c-64 -2 -83 -11 -83 -38c0 -16 7 -30 19 -50zM186 832
c0 37 31 68 70 68c38 0 69 -31 69 -68c0 -39 -31 -70 -69 -70c-39 0 -70 31 -70 70zM392 832c0 37 32 68 69 68c40 0 70 -31 70 -68c0 -39 -30 -70 -70 -70c-37 0 -69 31 -69 70z" />
    <glyph glyph-name="Zcaron" unicode="&#x17d;" horiz-adv-x="629" 
d="M511 920l-147 -162h-88l-147 162h61l130 -87l130 87h61zM186 55h207c83 0 106 38 167 154h46l-33 -209h-549v32l407 615h-193c-80 0 -94 -37 -139 -137h-42v192h532v-33z" />
    <glyph glyph-name="aacute" unicode="&#xe1;" horiz-adv-x="552" 
d="M237 73c39 0 66 11 100 35v175l-117 -45c-37 -14 -58 -41 -58 -79c0 -55 27 -86 75 -86zM458 363c0 -24 -3 -201 -3 -232c0 -40 13 -63 41 -63c9 0 31 2 46 6l6 -32c-34 -34 -72 -52 -114 -52c-53 0 -82 37 -94 91c-35 -42 -89 -90 -165 -90c-89 0 -135 60 -135 137
c0 92 71 124 138 147l159 57v53c0 65 -20 109 -86 109c-49 0 -73 -24 -73 -70c0 -19 2 -36 7 -57l-88 -13c-19 13 -28 32 -28 59c0 87 85 133 200 133c123 0 189 -55 189 -183zM302 763h136l-152 -167h-57z" />
    <glyph glyph-name="acircumflex" unicode="&#xe2;" horiz-adv-x="552" 
d="M237 73c39 0 66 11 100 35v175l-117 -45c-37 -14 -58 -41 -58 -79c0 -55 27 -86 75 -86zM458 363c0 -24 -3 -201 -3 -232c0 -40 13 -63 41 -63c9 0 31 2 46 6l6 -32c-34 -34 -72 -52 -114 -52c-53 0 -82 37 -94 91c-35 -42 -89 -90 -165 -90c-89 0 -135 60 -135 137
c0 92 71 124 138 147l159 57v53c0 65 -20 109 -86 109c-49 0 -73 -24 -73 -70c0 -19 2 -36 7 -57l-88 -13c-19 13 -28 32 -28 59c0 87 85 133 200 133c123 0 189 -55 189 -183zM315 765l140 -171h-61l-123 96l-123 -96h-61l140 171h88z" />
    <glyph glyph-name="adieresis" unicode="&#xe4;" horiz-adv-x="552" 
d="M237 73c39 0 66 11 100 35v175l-117 -45c-37 -14 -58 -41 -58 -79c0 -55 27 -86 75 -86zM458 363c0 -24 -3 -201 -3 -232c0 -40 13 -63 41 -63c9 0 31 2 46 6l6 -32c-34 -34 -72 -52 -114 -52c-53 0 -82 37 -94 91c-35 -42 -89 -90 -165 -90c-89 0 -135 60 -135 137
c0 92 71 124 138 147l159 57v53c0 65 -20 109 -86 109c-49 0 -73 -24 -73 -70c0 -19 2 -36 7 -57l-88 -13c-19 13 -28 32 -28 59c0 87 85 133 200 133c123 0 189 -55 189 -183zM104 681c0 38 31 69 69 69c39 0 70 -31 70 -69c0 -39 -31 -70 -70 -70c-38 0 -69 31 -69 70z
M303 681c0 38 31 69 69 69c39 0 70 -31 70 -69c0 -39 -31 -70 -70 -70c-38 0 -69 31 -69 70z" />
    <glyph glyph-name="agrave" unicode="&#xe0;" horiz-adv-x="552" 
d="M237 73c39 0 66 11 100 35v175l-117 -45c-37 -14 -58 -41 -58 -79c0 -55 27 -86 75 -86zM458 363c0 -24 -3 -201 -3 -232c0 -40 13 -63 41 -63c9 0 31 2 46 6l6 -32c-34 -34 -72 -52 -114 -52c-53 0 -82 37 -94 91c-35 -42 -89 -90 -165 -90c-89 0 -135 60 -135 137
c0 92 71 124 138 147l159 57v53c0 65 -20 109 -86 109c-49 0 -73 -24 -73 -70c0 -19 2 -36 7 -57l-88 -13c-19 13 -28 32 -28 59c0 87 85 133 200 133c123 0 189 -55 189 -183zM106 763h137l71 -167h-56z" />
    <glyph glyph-name="aring" unicode="&#xe5;" horiz-adv-x="552" 
d="M237 73c39 0 66 11 100 35v175l-117 -45c-37 -14 -58 -41 -58 -79c0 -55 27 -86 75 -86zM458 363c0 -24 -3 -201 -3 -232c0 -40 13 -63 41 -63c9 0 31 2 46 6l6 -32c-34 -34 -72 -52 -114 -52c-53 0 -82 37 -94 91c-35 -42 -89 -90 -165 -90c-89 0 -135 60 -135 137
c0 92 71 124 138 147l159 57v53c0 65 -20 109 -86 109c-49 0 -73 -24 -73 -70c0 -19 2 -36 7 -57l-88 -13c-19 13 -28 32 -28 59c0 87 85 133 200 133c123 0 189 -55 189 -183zM170 685c0 53 41 94 99 94c59 0 99 -41 99 -94c0 -54 -40 -94 -99 -94c-58 0 -99 40 -99 94z
M319 685c0 29 -17 51 -50 51c-32 0 -49 -22 -49 -51s17 -51 49 -51c33 0 50 22 50 51z" />
    <glyph glyph-name="atilde" unicode="&#xe3;" horiz-adv-x="552" 
d="M237 73c39 0 66 11 100 35v175l-117 -45c-37 -14 -58 -41 -58 -79c0 -55 27 -86 75 -86zM458 363c0 -24 -3 -201 -3 -232c0 -40 13 -63 41 -63c9 0 31 2 46 6l6 -32c-34 -34 -72 -52 -114 -52c-53 0 -82 37 -94 91c-35 -42 -89 -90 -165 -90c-89 0 -135 60 -135 137
c0 92 71 124 138 147l159 57v53c0 65 -20 109 -86 109c-49 0 -73 -24 -73 -70c0 -19 2 -36 7 -57l-88 -13c-19 13 -28 32 -28 59c0 87 85 133 200 133c123 0 189 -55 189 -183zM422 751l43 -11c-47 -107 -74 -129 -124 -129c-59 0 -104 69 -144 69c-31 0 -44 -22 -65 -60
l-44 10c48 108 74 129 125 129c61 0 103 -68 144 -68c30 0 43 22 65 60z" />
    <glyph glyph-name="ccedilla" unicode="&#xe7;" horiz-adv-x="517" 
d="M178 -225l-8 38c72 0 116 14 116 44c0 29 -35 40 -90 42l38 94c-119 18 -196 118 -196 257c0 163 105 296 265 296c105 0 177 -48 177 -130c0 -37 -18 -55 -41 -65h-65v39c0 57 -24 100 -84 100c-83 0 -142 -78 -142 -190c0 -128 59 -214 168 -214c65 0 110 29 147 81
l23 -14c-31 -111 -107 -163 -213 -163h-2l-14 -37c64 -2 105 -23 105 -75c0 -70 -84 -103 -184 -103z" />
    <glyph glyph-name="eacute" unicode="&#xe9;" horiz-adv-x="534" 
d="M315 763h136l-152 -167h-57zM288 546c136 0 207 -96 207 -225v-33h-349c0 -121 68 -202 174 -202c71 0 118 33 154 81l22 -13c-25 -97 -101 -164 -218 -164c-147 0 -240 111 -240 261c0 177 108 295 250 295zM272 491c-72 0 -115 -71 -123 -152h233
c0 92 -37 152 -110 152z" />
    <glyph glyph-name="ecircumflex" unicode="&#xea;" horiz-adv-x="534" 
d="M329 765l140 -171h-61l-123 96l-123 -96h-61l140 171h88zM288 546c136 0 207 -96 207 -225v-33h-349c0 -121 68 -202 174 -202c71 0 118 33 154 81l22 -13c-25 -97 -101 -164 -218 -164c-147 0 -240 111 -240 261c0 177 108 295 250 295zM272 491
c-72 0 -115 -71 -123 -152h233c0 92 -37 152 -110 152z" />
    <glyph glyph-name="edieresis" unicode="&#xeb;" horiz-adv-x="534" 
d="M115 681c0 38 31 69 69 69c39 0 70 -31 70 -69c0 -39 -31 -70 -70 -70c-38 0 -69 31 -69 70zM314 681c0 38 31 69 69 69c39 0 70 -31 70 -69c0 -39 -31 -70 -70 -70c-38 0 -69 31 -69 70zM288 546c136 0 207 -96 207 -225v-33h-349c0 -121 68 -202 174 -202
c71 0 118 33 154 81l22 -13c-25 -97 -101 -164 -218 -164c-147 0 -240 111 -240 261c0 177 108 295 250 295zM272 491c-72 0 -115 -71 -123 -152h233c0 92 -37 152 -110 152z" />
    <glyph glyph-name="egrave" unicode="&#xe8;" horiz-adv-x="534" 
d="M288 546c136 0 207 -96 207 -225v-33h-349c0 -121 68 -202 174 -202c71 0 118 33 154 81l22 -13c-25 -97 -101 -164 -218 -164c-147 0 -240 111 -240 261c0 177 108 295 250 295zM272 491c-72 0 -115 -71 -123 -152h233c0 92 -37 152 -110 152zM116 763h137l71 -167h-56z
" />
    <glyph glyph-name="iacute" unicode="&#xed;" horiz-adv-x="335" 
d="M203 763h136l-152 -167h-57zM231 546v-444c0 -46 27 -51 72 -57v-45h-265v45c44 6 72 11 72 57v328l-67 42v24l160 50h28z" />
    <glyph glyph-name="icircumflex" unicode="&#xee;" horiz-adv-x="335" 
d="M213 765l140 -171h-61l-123 96l-123 -96h-61l140 171h88zM231 546v-444c0 -46 27 -51 72 -57v-45h-265v45c44 6 72 11 72 57v328l-67 42v24l160 50h28z" />
    <glyph glyph-name="idieresis" unicode="&#xef;" horiz-adv-x="335" 
d="M0 681c0 38 31 69 69 69c39 0 70 -31 70 -69c0 -39 -31 -70 -70 -70c-38 0 -69 31 -69 70zM199 681c0 38 31 69 69 69c39 0 70 -31 70 -69c0 -39 -31 -70 -70 -70c-38 0 -69 31 -69 70zM231 546v-444c0 -46 27 -51 72 -57v-45h-265v45c44 6 72 11 72 57v328l-67 42v24
l160 50h28z" />
    <glyph glyph-name="igrave" unicode="&#xec;" horiz-adv-x="335" 
d="M231 546v-444c0 -46 27 -51 72 -57v-45h-265v45c44 6 72 11 72 57v328l-67 42v24l160 50h28zM-6 763h137l71 -167h-56z" />
    <glyph glyph-name="ntilde" unicode="&#xf1;" horiz-adv-x="663" 
d="M446 102v270c0 62 -25 87 -84 87c-47 0 -97 -19 -131 -43v-314c0 -46 25 -51 70 -57v-45h-263v45c44 6 72 11 72 57v326l-67 43v25l160 52h28v-102c46 48 108 100 192 100c90 0 144 -49 144 -164v-280c0 -46 27 -51 72 -57v-45h-264v45c45 6 71 11 71 57zM486 751l43 -11
c-47 -107 -74 -129 -124 -129c-59 0 -104 69 -144 69c-31 0 -44 -22 -65 -60l-44 10c48 108 74 129 125 129c61 0 103 -68 144 -68c30 0 43 22 65 60z" />
    <glyph glyph-name="oacute" unicode="&#xf3;" horiz-adv-x="592" 
d="M332 763h136l-152 -167h-57zM305 48c82 0 124 83 124 205c0 130 -52 236 -142 236c-83 0 -124 -84 -124 -206c0 -130 51 -235 142 -235zM291 -10c-154 0 -253 114 -253 268c0 175 116 288 262 288c154 0 254 -114 254 -268c0 -175 -117 -288 -263 -288z" />
    <glyph glyph-name="ocircumflex" unicode="&#xf4;" horiz-adv-x="592" 
d="M341 765l140 -171h-61l-123 96l-123 -96h-61l140 171h88zM305 48c82 0 124 83 124 205c0 130 -52 236 -142 236c-83 0 -124 -84 -124 -206c0 -130 51 -235 142 -235zM291 -10c-154 0 -253 114 -253 268c0 175 116 288 262 288c154 0 254 -114 254 -268
c0 -175 -117 -288 -263 -288z" />
    <glyph glyph-name="odieresis" unicode="&#xf6;" horiz-adv-x="592" 
d="M129 681c0 38 31 69 69 69c39 0 70 -31 70 -69c0 -39 -31 -70 -70 -70c-38 0 -69 31 -69 70zM328 681c0 38 31 69 69 69c39 0 70 -31 70 -69c0 -39 -31 -70 -70 -70c-38 0 -69 31 -69 70zM305 48c82 0 124 83 124 205c0 130 -52 236 -142 236c-83 0 -124 -84 -124 -206
c0 -130 51 -235 142 -235zM291 -10c-154 0 -253 114 -253 268c0 175 116 288 262 288c154 0 254 -114 254 -268c0 -175 -117 -288 -263 -288z" />
    <glyph glyph-name="ograve" unicode="&#xf2;" horiz-adv-x="592" 
d="M305 48c82 0 124 83 124 205c0 130 -52 236 -142 236c-83 0 -124 -84 -124 -206c0 -130 51 -235 142 -235zM291 -10c-154 0 -253 114 -253 268c0 175 116 288 262 288c154 0 254 -114 254 -268c0 -175 -117 -288 -263 -288zM122 763h137l71 -167h-56z" />
    <glyph glyph-name="otilde" unicode="&#xf5;" horiz-adv-x="592" 
d="M305 48c82 0 124 83 124 205c0 130 -52 236 -142 236c-83 0 -124 -84 -124 -206c0 -130 51 -235 142 -235zM291 -10c-154 0 -253 114 -253 268c0 175 116 288 262 288c154 0 254 -114 254 -268c0 -175 -117 -288 -263 -288zM443 751l43 -11c-47 -107 -74 -129 -124 -129
c-59 0 -104 69 -144 69c-31 0 -44 -22 -65 -60l-44 10c48 108 74 129 125 129c61 0 103 -68 144 -68c30 0 43 22 65 60z" />
    <glyph glyph-name="scaron" unicode="&#x161;" horiz-adv-x="471" 
d="M422 771l-140 -172h-88l-140 172h61l123 -96l123 96h61zM235 -10c-72 0 -140 16 -189 52l-6 129h52c19 -82 66 -130 146 -130c59 0 97 27 97 75c0 57 -40 77 -130 102c-101 29 -160 71 -160 166c0 98 72 162 185 162c69 0 126 -17 170 -43v-120h-51
c-15 73 -55 111 -123 111c-52 0 -82 -31 -82 -72c0 -49 33 -75 115 -97c103 -28 174 -63 174 -168c0 -99 -74 -167 -198 -167z" />
    <glyph glyph-name="uacute" unicode="&#xfa;" horiz-adv-x="646" 
d="M357 763h136l-152 -167h-57zM421 -10v98c-45 -47 -102 -98 -186 -98c-88 0 -144 49 -144 166v262c0 34 -10 47 -53 54l-16 3v41l170 30h21v-375c0 -66 26 -96 83 -96c48 0 90 19 125 42v301c0 34 -10 47 -53 54l-15 3v41l168 30h22v-427c0 -34 9 -44 50 -48l25 -2v-45
l-175 -34h-22z" />
    <glyph glyph-name="ucircumflex" unicode="&#xfb;" horiz-adv-x="646" 
d="M367 765l140 -171h-61l-123 96l-123 -96h-61l140 171h88zM421 -10v98c-45 -47 -102 -98 -186 -98c-88 0 -144 49 -144 166v262c0 34 -10 47 -53 54l-16 3v41l170 30h21v-375c0 -66 26 -96 83 -96c48 0 90 19 125 42v301c0 34 -10 47 -53 54l-15 3v41l168 30h22v-427
c0 -34 9 -44 50 -48l25 -2v-45l-175 -34h-22z" />
    <glyph glyph-name="udieresis" unicode="&#xfc;" horiz-adv-x="646" 
d="M151 681c0 38 31 69 69 69c39 0 70 -31 70 -69c0 -39 -31 -70 -70 -70c-38 0 -69 31 -69 70zM350 681c0 38 31 69 69 69c39 0 70 -31 70 -69c0 -39 -31 -70 -70 -70c-38 0 -69 31 -69 70zM421 -10v98c-45 -47 -102 -98 -186 -98c-88 0 -144 49 -144 166v262
c0 34 -10 47 -53 54l-16 3v41l170 30h21v-375c0 -66 26 -96 83 -96c48 0 90 19 125 42v301c0 34 -10 47 -53 54l-15 3v41l168 30h22v-427c0 -34 9 -44 50 -48l25 -2v-45l-175 -34h-22z" />
    <glyph glyph-name="ugrave" unicode="&#xf9;" horiz-adv-x="646" 
d="M421 -10v98c-45 -47 -102 -98 -186 -98c-88 0 -144 49 -144 166v262c0 34 -10 47 -53 54l-16 3v41l170 30h21v-375c0 -66 26 -96 83 -96c48 0 90 19 125 42v301c0 34 -10 47 -53 54l-15 3v41l168 30h22v-427c0 -34 9 -44 50 -48l25 -2v-45l-175 -34h-22zM148 763h137
l71 -167h-56z" />
    <glyph glyph-name="yacute" unicode="&#xfd;" horiz-adv-x="579" 
d="M266 -3l-203 455c-10 21 -16 24 -58 40v44h265v-44c-52 -7 -71 -12 -71 -36c0 -8 1 -15 8 -31l118 -289l112 289c6 16 8 23 8 31c0 24 -19 29 -70 36v44h199v-44c-42 -15 -49 -18 -58 -40l-224 -545c-30 -73 -65 -114 -129 -114c-35 0 -64 15 -79 37v60h54
c65 0 90 11 112 67zM356 763h136l-152 -167h-57z" />
    <glyph glyph-name="ydieresis" unicode="&#xff;" horiz-adv-x="579" 
d="M266 -3l-203 455c-10 21 -16 24 -58 40v44h265v-44c-52 -7 -71 -12 -71 -36c0 -8 1 -15 8 -31l118 -289l112 289c6 16 8 23 8 31c0 24 -19 29 -70 36v44h199v-44c-42 -15 -49 -18 -58 -40l-224 -545c-30 -73 -65 -114 -129 -114c-35 0 -64 15 -79 37v60h54
c65 0 90 11 112 67zM153 681c0 38 31 69 69 69c39 0 70 -31 70 -69c0 -39 -31 -70 -70 -70c-38 0 -69 31 -69 70zM352 681c0 38 31 69 69 69c39 0 70 -31 70 -69c0 -39 -31 -70 -70 -70c-38 0 -69 31 -69 70z" />
    <glyph glyph-name="zcaron" unicode="&#x17e;" horiz-adv-x="523" 
d="M449 771l-140 -172h-88l-140 172h61l123 -96l123 96h61zM34 0v30l301 454h-139c-52 0 -67 -29 -98 -124h-49v176h430v-33l-295 -451h132c57 0 92 31 125 132h50l-20 -184h-437z" />
    <glyph glyph-name="ff" unicode="&#xfb00;" horiz-adv-x="711" 
d="M331 755c72 0 127 -25 158 -57c36 44 91 69 160 69c79 0 127 -30 127 -83c0 -26 -15 -45 -33 -56h-62v30c0 37 -11 64 -50 64c-45 0 -66 -45 -66 -124v-63h126v-59h-126v-372c0 -48 25 -51 92 -59v-45h-283v45c44 6 70 11 70 57v374h-212v-374c0 -46 26 -51 71 -57v-45
h-264v45c44 6 72 11 72 57v374h-74v42l74 24v10c0 124 103 203 220 203zM444 556c0 23 2 45 7 65c-22 45 -65 85 -117 85c-64 0 -102 -42 -102 -121v-50h212v21z" />
    <glyph glyph-name="ffi" unicode="&#xfb03;" horiz-adv-x="1002" 
d="M331 755c76 0 132 -28 163 -62c42 48 108 74 183 74c93 0 155 -27 155 -83c0 -27 -16 -47 -35 -59h-74v29c0 47 -19 68 -63 68c-52 0 -95 -46 -95 -139v-48h275l31 12h27v-445c0 -46 28 -51 73 -57v-45h-264v45c44 6 71 11 71 57v374h-213v-374c0 -46 26 -51 71 -57v-45
h-262v45c44 6 70 11 70 57v374h-212v-374c0 -46 26 -51 71 -57v-45h-264v45c44 6 72 11 72 57v374h-74v42l74 24v10c0 124 103 203 220 203zM232 585v-50h212v18c0 23 3 45 9 65c-22 46 -66 88 -119 88c-64 0 -102 -42 -102 -121z" />
    <glyph glyph-name="ffl" unicode="&#xfb04;" horiz-adv-x="1002" 
d="M111 542v10c0 124 103 203 220 203c74 0 129 -26 160 -59c39 46 98 71 163 71c52 0 100 -15 133 -36l84 30h27v-659c0 -46 28 -51 73 -57v-45h-265v45c45 6 72 11 72 57v537c-24 47 -63 83 -118 83c-64 0 -95 -48 -95 -126v-60h121v-60h-121v-374c0 -46 26 -51 71 -57
v-45h-262v45c44 6 70 11 70 57v374h-212v-374c0 -46 26 -51 71 -57v-45h-264v45c44 6 72 11 72 57v374h-74v42zM444 556c0 23 3 44 8 64c-22 45 -66 86 -118 86c-64 0 -102 -42 -102 -121v-50h212v21z" />
    <glyph glyph-name="Aring.sc" horiz-adv-x="659" 
d="M445 118l-31 72h-239l-29 -72c-5 -12 -8 -24 -8 -34c0 -26 15 -35 72 -37v-47h-196v47c23 4 42 8 51 31l195 464l-31 65h131l233 -529c9 -22 26 -27 52 -31v-47h-262v47c56 2 72 10 72 37c0 10 -4 21 -10 34zM212 739c0 53 41 94 99 94c59 0 99 -41 99 -94
c0 -54 -40 -94 -99 -94c-58 0 -99 40 -99 94zM293 474l-97 -235h197zM361 739c0 29 -17 51 -50 51c-32 0 -49 -22 -49 -51s17 -51 49 -51c33 0 50 22 50 51z" />
    <glyph glyph-name="zero.op" horiz-adv-x="639" 
d="M176 300c0 -143 46 -253 143 -253c98 0 144 110 144 253c0 142 -46 253 -144 253c-97 0 -143 -111 -143 -253zM44 300c0 182 114 310 275 310c162 0 276 -128 276 -310s-114 -310 -276 -310c-161 0 -275 128 -275 310z" />
    <glyph glyph-name="six.op" horiz-adv-x="589" 
d="M481 673c-196 -47 -287 -163 -307 -301c41 46 103 77 174 77c115 0 200 -79 200 -209c0 -157 -109 -250 -245 -250c-156 0 -259 123 -259 293c0 229 156 398 417 429zM279 376c-42 0 -82 -15 -107 -32c-2 -19 -3 -45 -3 -60c0 -137 52 -240 142 -240c79 0 122 62 122 161
c0 103 -53 171 -154 171z" />
    <glyph glyph-name="sterling.op" horiz-adv-x="629" 
d="M97 314v45h102l8 64c19 163 100 238 222 238c87 0 148 -33 148 -102c0 -30 -16 -53 -35 -62h-68v39c0 46 -12 76 -56 76c-52 0 -71 -55 -85 -146l-16 -107h150v-45h-156l-13 -91c-3 -28 -10 -58 -17 -80c51 -25 116 -49 176 -49s93 26 93 94l30 3c8 -13 18 -36 18 -72
c0 -89 -53 -129 -137 -129s-162 49 -209 91c-28 -53 -76 -91 -139 -91c-67 0 -100 40 -100 94c0 61 43 100 105 100c19 0 40 -3 58 -9l17 139h-96zM108 38c32 0 53 26 61 85c-17 8 -34 14 -53 14c-36 0 -53 -24 -53 -53s19 -46 45 -46z" />
    <glyph glyph-name="Imacron" horiz-adv-x="383" 
d="M350 0h-317v48c67 2 95 13 95 72v463c0 58 -28 69 -95 71v48h317v-48c-67 -2 -95 -13 -95 -71v-463c0 -59 28 -70 95 -72v-48zM45 776v75h292v-75h-292z" />
    <glyph glyph-name="Idotaccent" unicode="&#x130;" horiz-adv-x="383" 
d="M350 0h-317v48c67 2 95 13 95 72v463c0 58 -28 69 -95 71v48h317v-48c-67 -2 -95 -13 -95 -71v-463c0 -59 28 -70 95 -72v-48zM192 760c-44 0 -76 34 -76 75s32 76 76 76s76 -35 76 -76s-32 -75 -76 -75z" />
    <glyph glyph-name="Ibreve" unicode="&#x12c;" horiz-adv-x="383" 
d="M350 0h-317v48c67 2 95 13 95 72v463c0 58 -28 69 -95 71v48h317v-48c-67 -2 -95 -13 -95 -71v-463c0 -59 28 -70 95 -72v-48zM191 754c-94 0 -154 60 -154 161h47c6 -65 58 -88 107 -88s101 23 107 88h47c0 -101 -60 -161 -154 -161z" />
    <glyph glyph-name="Hbar" unicode="&#x126;" horiz-adv-x="863" 
d="M43 476v52h95v55c0 58 -28 69 -95 71v48h317v-48c-66 -2 -95 -13 -95 -71v-55h334v55c0 58 -30 69 -95 71v48h316v-48c-67 -2 -95 -13 -95 -71v-55h95v-52h-95v-356c0 -59 28 -70 95 -72v-48h-316v48c65 2 95 13 95 72v194h-334v-194c0 -59 29 -70 95 -72v-48h-317v48
c67 2 95 13 95 72v356h-95zM265 368h334v108h-334v-108z" />
    <glyph glyph-name="Hcircumflex" unicode="&#x124;" horiz-adv-x="844" 
d="M589 120v213h-334v-213c0 -59 30 -70 95 -72v-48h-317v48c67 2 95 13 95 72v463c0 58 -28 69 -95 71v48h317v-48c-65 -2 -95 -13 -95 -71v-196h334v196c0 58 -30 69 -95 71v48h317v-48c-67 -2 -95 -13 -95 -71v-463c0 -59 28 -70 95 -72v-48h-317v48c65 2 95 13 95 72z
M466 919l147 -162h-61l-130 87l-130 -87h-61l147 162h88z" />
    <glyph glyph-name="Gcommaaccent" unicode="&#x122;" horiz-adv-x="744" 
d="M415 -155h-51c-30 7 -44 26 -44 53c0 33 27 56 69 56c52 0 82 -35 82 -83c0 -61 -37 -107 -141 -107v37c56 0 85 17 85 44zM40 336c0 233 162 376 357 376c103 0 179 -27 227 -66v-156h-54c-27 111 -89 164 -178 164c-147 0 -213 -134 -213 -289c0 -180 70 -316 223 -316
c52 0 84 9 115 34v137c0 57 -27 68 -91 71v47h297v-47c-64 -3 -86 -14 -86 -71v-158c-64 -45 -149 -72 -249 -72c-219 0 -348 144 -348 346z" />
    <glyph glyph-name="Gdotaccent" unicode="&#x120;" horiz-adv-x="744" 
d="M394 760c-44 0 -76 34 -76 75s32 76 76 76s76 -35 76 -76s-32 -75 -76 -75zM40 336c0 233 162 376 357 376c103 0 179 -27 227 -66v-156h-54c-27 111 -89 164 -178 164c-147 0 -213 -134 -213 -289c0 -180 70 -316 223 -316c52 0 84 9 115 34v137c0 57 -27 68 -91 71v47
h297v-47c-64 -3 -86 -14 -86 -71v-158c-64 -45 -149 -72 -249 -72c-219 0 -348 144 -348 346z" />
    <glyph glyph-name="Gbreve" unicode="&#x11e;" horiz-adv-x="744" 
d="M392 754c-94 0 -154 60 -154 161h47c6 -65 58 -88 107 -88s101 23 107 88h47c0 -101 -60 -161 -154 -161zM40 336c0 233 162 376 357 376c103 0 179 -27 227 -66v-156h-54c-27 111 -89 164 -178 164c-147 0 -213 -134 -213 -289c0 -180 70 -316 223 -316
c52 0 84 9 115 34v137c0 57 -27 68 -91 71v47h297v-47c-64 -3 -86 -14 -86 -71v-158c-64 -45 -149 -72 -249 -72c-219 0 -348 144 -348 346z" />
    <glyph glyph-name="Gcircumflex" unicode="&#x11c;" horiz-adv-x="744" 
d="M40 336c0 233 162 376 357 376c103 0 179 -27 227 -66v-156h-54c-27 111 -89 164 -178 164c-147 0 -213 -134 -213 -289c0 -180 70 -316 223 -316c52 0 84 9 115 34v137c0 57 -27 68 -91 71v47h297v-47c-64 -3 -86 -14 -86 -71v-158c-64 -45 -149 -72 -249 -72
c-219 0 -348 144 -348 346zM437 919l147 -162h-61l-130 87l-130 -87h-61l147 162h88z" />
    <glyph glyph-name="Eogonek" unicode="&#x118;" horiz-adv-x="673" 
d="M512 246h-44c-10 60 -28 87 -72 87h-141v-212c0 -54 29 -68 95 -68h77c83 0 104 32 168 135h43l-31 -188h-52c-57 -27 -104 -61 -104 -106c0 -24 16 -42 48 -42c28 0 54 9 85 31l14 -20c-33 -39 -78 -75 -134 -75c-52 0 -92 30 -92 83c0 59 50 99 112 129h-451v48
c67 2 95 13 95 72v463c0 58 -28 69 -95 71v48h569v-174h-42c-35 85 -62 121 -142 121h-163v-262h141c44 0 62 26 72 86h44v-227z" />
    <glyph glyph-name="Iogonek" unicode="&#x12e;" horiz-adv-x="383" 
d="M350 0h-88c-57 -27 -104 -61 -104 -106c0 -24 16 -42 48 -42c28 0 54 9 85 31l14 -20c-33 -39 -78 -75 -134 -75c-52 0 -92 30 -92 83c0 59 50 99 112 129h-158v48c67 2 95 13 95 72v463c0 58 -28 69 -95 71v48h317v-48c-67 -2 -95 -13 -95 -71v-463c0 -59 28 -70 95 -72
v-48z" />
    <glyph glyph-name="Itilde" unicode="&#x128;" horiz-adv-x="383" 
d="M350 0h-317v48c67 2 95 13 95 72v463c0 58 -28 69 -95 71v48h317v-48c-67 -2 -95 -13 -95 -71v-463c0 -59 28 -70 95 -72v-48zM337 893l43 -10c-47 -107 -74 -129 -124 -129c-59 0 -104 68 -144 68c-31 0 -44 -22 -65 -59l-44 10c48 107 74 129 125 129
c61 0 103 -69 144 -69c30 0 43 22 65 60z" />
    <glyph glyph-name="IJ" unicode="&#x132;" horiz-adv-x="931" 
d="M350 0h-317v48c67 2 95 13 95 72v463c0 58 -28 69 -95 71v48h317v-48c-67 -2 -95 -13 -95 -71v-463c0 -59 28 -70 95 -72v-48zM821 583v-375c0 -149 -84 -217 -224 -217c-126 0 -205 50 -205 132c0 33 15 57 34 72h91v-47c0 -68 31 -106 86 -106c58 0 90 43 90 145v396
c0 58 -28 69 -94 71v48h317v-48c-67 -2 -95 -13 -95 -71z" />
    <glyph glyph-name="Jcircumflex" unicode="&#x134;" horiz-adv-x="548" 
d="M438 583v-375c0 -149 -84 -217 -224 -217c-126 0 -205 50 -205 132c0 33 15 57 34 72h91v-47c0 -68 31 -106 86 -106c58 0 90 43 90 145v396c0 58 -28 69 -94 71v48h317v-48c-67 -2 -95 -13 -95 -71zM409 919l147 -162h-61l-130 87l-130 -87h-61l147 162h88z" />
    <glyph glyph-name="Kcommaaccent" unicode="&#x136;" horiz-adv-x="737" 
d="M406 -155h-51c-30 7 -44 26 -44 53c0 33 27 56 69 56c52 0 82 -35 82 -83c0 -61 -37 -107 -141 -107v37c56 0 85 17 85 44zM391 397l221 -272c51 -62 77 -74 121 -77v-48h-162c-33 19 -59 46 -96 92l-209 265l238 229c13 12 24 24 24 39c0 18 -11 26 -74 29v48h257v-48
c-45 -2 -70 -17 -101 -47zM128 120v463c0 58 -28 69 -95 71v48h317v-48c-65 -2 -94 -13 -94 -71v-463c0 -59 29 -70 94 -72v-48h-317v48c67 2 95 13 95 72z" />
    <glyph glyph-name="Lacute" unicode="&#x139;" horiz-adv-x="628" 
d="M244 910h139l-155 -152h-58zM256 583v-461c0 -54 27 -68 93 -68h48c81 0 101 39 165 155h47l-34 -209h-542v48c67 2 95 13 95 72v463c0 58 -28 68 -95 71v48h317v-48c-65 -3 -94 -13 -94 -71z" />
    <glyph glyph-name="Lcaron" unicode="&#x13d;" horiz-adv-x="628" 
d="M560 705l-86 -205h-47l18 205h115zM256 583v-461c0 -54 27 -68 93 -68h48c81 0 101 39 165 155h47l-34 -209h-542v48c67 2 95 13 95 72v463c0 58 -28 68 -95 71v48h317v-48c-65 -3 -94 -13 -94 -71z" />
    <glyph glyph-name="Lcommaaccent" unicode="&#x13b;" horiz-adv-x="628" 
d="M355 -155h-51c-30 7 -44 26 -44 53c0 33 27 56 69 56c52 0 82 -35 82 -83c0 -61 -37 -107 -141 -107v37c56 0 85 17 85 44zM256 583v-461c0 -54 27 -68 93 -68h48c81 0 101 39 165 155h47l-34 -209h-542v48c67 2 95 13 95 72v463c0 58 -28 68 -95 71v48h317v-48
c-65 -3 -94 -13 -94 -71z" />
    <glyph glyph-name="Ldot" unicode="&#x13f;" horiz-adv-x="628" 
d="M256 583v-461c0 -54 27 -68 93 -68h48c81 0 101 39 165 155h47l-34 -209h-542v48c67 2 95 13 95 72v463c0 58 -28 68 -95 71v48h317v-48c-65 -3 -94 -13 -94 -71zM524 318c-44 0 -76 34 -76 76c0 41 32 75 76 75c45 0 76 -34 76 -75c0 -42 -31 -76 -76 -76z" />
    <glyph glyph-name="Edotaccent" unicode="&#x116;" horiz-adv-x="673" 
d="M348 760c-44 0 -76 34 -76 75s32 76 76 76s76 -35 76 -76s-32 -75 -76 -75zM512 246h-44c-10 60 -28 87 -72 87h-141v-212c0 -54 29 -68 95 -68h77c83 0 104 32 168 135h43l-31 -188h-574v48c67 2 95 13 95 72v463c0 58 -28 69 -95 71v48h569v-174h-42
c-35 85 -62 121 -142 121h-163v-262h141c44 0 62 26 72 86h44v-227z" />
    <glyph glyph-name="Emacron" unicode="&#x112;" horiz-adv-x="673" 
d="M202 776v75h292v-75h-292zM512 246h-44c-10 60 -28 87 -72 87h-141v-212c0 -54 29 -68 95 -68h77c83 0 104 32 168 135h43l-31 -188h-574v48c67 2 95 13 95 72v463c0 58 -28 69 -95 71v48h569v-174h-42c-35 85 -62 121 -142 121h-163v-262h141c44 0 62 26 72 86h44v-227z
" />
    <glyph glyph-name="Ecaron" unicode="&#x11a;" horiz-adv-x="673" 
d="M539 920l-147 -162h-88l-147 162h61l130 -87l130 87h61zM512 246h-44c-10 60 -28 87 -72 87h-141v-212c0 -54 29 -68 95 -68h77c83 0 104 32 168 135h43l-31 -188h-574v48c67 2 95 13 95 72v463c0 58 -28 69 -95 71v48h569v-174h-42c-35 85 -62 121 -142 121h-163v-262
h141c44 0 62 26 72 86h44v-227z" />
    <glyph glyph-name="Ebreve" unicode="&#x114;" horiz-adv-x="673" 
d="M348 754c-94 0 -154 60 -154 161h47c6 -65 58 -88 107 -88s101 23 107 88h47c0 -101 -60 -161 -154 -161zM512 246h-44c-10 60 -28 87 -72 87h-141v-212c0 -54 29 -68 95 -68h77c83 0 104 32 168 135h43l-31 -188h-574v48c67 2 95 13 95 72v463c0 58 -28 69 -95 71v48
h569v-174h-42c-35 85 -62 121 -142 121h-163v-262h141c44 0 62 26 72 86h44v-227z" />
    <glyph glyph-name="Nacute" unicode="&#x143;" horiz-adv-x="798" 
d="M437 910h139l-155 -152h-58zM128 120v475c-36 45 -50 57 -95 59v48h201l378 -483v364c0 58 -31 69 -97 71v48h260v-48c-67 -2 -95 -13 -95 -71v-583h-53l-431 539v-419c0 -59 31 -70 98 -72v-48h-261v48c67 2 95 13 95 72z" />
    <glyph glyph-name="Ncaron" unicode="&#x147;" horiz-adv-x="798" 
d="M594 920l-147 -162h-88l-147 162h61l130 -87l130 87h61zM128 120v475c-36 45 -50 57 -95 59v48h201l378 -483v364c0 58 -31 69 -97 71v48h260v-48c-67 -2 -95 -13 -95 -71v-583h-53l-431 539v-419c0 -59 31 -70 98 -72v-48h-261v48c67 2 95 13 95 72z" />
    <glyph glyph-name="Ncommaaccent" unicode="&#x145;" horiz-adv-x="798" 
d="M423 -155h-51c-30 7 -44 26 -44 53c0 33 27 56 69 56c52 0 82 -35 82 -83c0 -61 -37 -107 -141 -107v37c56 0 85 17 85 44zM128 120v475c-36 45 -50 57 -95 59v48h201l378 -483v364c0 58 -31 69 -97 71v48h260v-48c-67 -2 -95 -13 -95 -71v-583h-53l-431 539v-419
c0 -59 31 -70 98 -72v-48h-261v48c67 2 95 13 95 72z" />
    <glyph glyph-name="Eng" unicode="&#x14a;" horiz-adv-x="798" 
d="M570 72l-374 467v-419c0 -59 31 -70 98 -72v-48h-261v48c67 2 95 13 95 72v475c-36 45 -50 57 -95 59v48h201l378 -483v364c0 58 -31 69 -97 71v48h260v-48c-67 -2 -95 -13 -95 -71v-483c0 -86 -10 -131 -39 -179c-34 -54 -82 -92 -138 -129l-27 27l34 47
c46 61 60 111 60 206z" />
    <glyph glyph-name="Obreve" unicode="&#x14e;" horiz-adv-x="753" 
d="M379 754c-94 0 -154 60 -154 161h47c6 -65 58 -88 107 -88s101 23 107 88h47c0 -101 -60 -161 -154 -161zM388 51c127 0 187 128 187 293c0 162 -62 307 -210 307c-127 0 -187 -128 -187 -293c0 -162 63 -307 210 -307zM382 712c210 0 331 -161 331 -347
c0 -229 -152 -375 -341 -375c-211 0 -332 161 -332 347c0 229 153 375 342 375z" />
    <glyph glyph-name="Ohungarumlaut" unicode="&#x150;" horiz-adv-x="753" 
d="M388 51c127 0 187 128 187 293c0 162 -62 307 -210 307c-127 0 -187 -128 -187 -293c0 -162 63 -307 210 -307zM382 712c210 0 331 -161 331 -347c0 -229 -152 -375 -341 -375c-211 0 -332 161 -332 347c0 229 153 375 342 375zM333 910h122l-134 -152h-55zM497 910h121
l-134 -152h-54z" />
    <glyph glyph-name="Omacron" unicode="&#x14c;" horiz-adv-x="753" 
d="M233 776v75h292v-75h-292zM388 51c127 0 187 128 187 293c0 162 -62 307 -210 307c-127 0 -187 -128 -187 -293c0 -162 63 -307 210 -307zM382 712c210 0 331 -161 331 -347c0 -229 -152 -375 -341 -375c-211 0 -332 161 -332 347c0 229 153 375 342 375z" />
    <glyph glyph-name="Oslashacute" unicode="&#x1fe;" horiz-adv-x="759" 
d="M651 727l-55 -87c78 -65 120 -166 120 -275c0 -229 -152 -375 -341 -375c-63 0 -119 14 -165 39l-56 -89l-46 26l58 93c-80 64 -123 166 -123 278c0 229 152 375 341 375c65 0 122 -16 169 -43l53 84zM180 358c0 -80 14 -152 45 -207l279 442c-33 36 -78 58 -136 58
c-127 0 -188 -128 -188 -293zM391 51c127 0 188 128 188 293c0 77 -14 148 -42 202l-279 -441c33 -34 77 -54 133 -54zM413 910h139l-155 -152h-58z" />
    <glyph glyph-name="Racute" unicode="&#x154;" horiz-adv-x="721" 
d="M307 648h-52v-296h55c115 0 169 50 169 151c0 86 -54 145 -172 145zM33 702h317c181 0 262 -80 262 -199c0 -106 -87 -170 -177 -183l152 -201c33 -45 69 -69 122 -71v-48h-169c-34 24 -57 49 -88 95l-148 206h-49v-181c0 -59 28 -70 93 -72v-48h-315v48
c67 2 95 13 95 72v463c0 58 -28 69 -95 70v49zM371 910h139l-155 -152h-58z" />
    <glyph glyph-name="Rcaron" unicode="&#x158;" horiz-adv-x="721" 
d="M529 920l-147 -162h-88l-147 162h61l130 -87l130 87h61zM307 648h-52v-296h55c115 0 169 50 169 151c0 86 -54 145 -172 145zM33 702h317c181 0 262 -80 262 -199c0 -106 -87 -170 -177 -183l152 -201c33 -45 69 -69 122 -71v-48h-169c-34 24 -57 49 -88 95l-148 206h-49
v-181c0 -59 28 -70 93 -72v-48h-315v48c67 2 95 13 95 72v463c0 58 -28 69 -95 70v49z" />
    <glyph glyph-name="Rcommaaccent" unicode="&#x156;" horiz-adv-x="721" 
d="M395 -155h-51c-30 7 -44 26 -44 53c0 33 27 56 69 56c52 0 82 -35 82 -83c0 -61 -37 -107 -141 -107v37c56 0 85 17 85 44zM307 648h-52v-296h55c115 0 169 50 169 151c0 86 -54 145 -172 145zM33 702h317c181 0 262 -80 262 -199c0 -106 -87 -170 -177 -183l152 -201
c33 -45 69 -69 122 -71v-48h-169c-34 24 -57 49 -88 95l-148 206h-49v-181c0 -59 28 -70 93 -72v-48h-315v48c67 2 95 13 95 72v463c0 58 -28 69 -95 70v49z" />
    <glyph glyph-name="Sacute" unicode="&#x15a;" horiz-adv-x="573" 
d="M274 -10c-96 0 -179 31 -225 68l-8 165h54c30 -107 87 -177 186 -177c84 0 137 40 137 116c0 63 -40 93 -158 133c-140 47 -212 98 -212 216s88 201 231 201c86 0 161 -26 213 -62v-153h-48c-25 92 -76 160 -172 160c-78 0 -118 -45 -118 -103c0 -66 35 -94 153 -134
c147 -49 222 -103 222 -223c0 -137 -116 -207 -255 -207zM319 910h139l-155 -152h-58z" />
    <glyph glyph-name="Scircumflex" unicode="&#x15c;" horiz-adv-x="573" 
d="M274 -10c-96 0 -179 31 -225 68l-8 165h54c30 -107 87 -177 186 -177c84 0 137 40 137 116c0 63 -40 93 -158 133c-140 47 -212 98 -212 216s88 201 231 201c86 0 161 -26 213 -62v-153h-48c-25 92 -76 160 -172 160c-78 0 -118 -45 -118 -103c0 -66 35 -94 153 -134
c147 -49 222 -103 222 -223c0 -137 -116 -207 -255 -207zM329 919l147 -162h-61l-130 87l-130 -87h-61l147 162h88z" />
    <glyph glyph-name="Tbar" unicode="&#x166;" horiz-adv-x="678" 
d="M30 702h618l15 -217h-46c-55 129 -69 165 -156 165h-59v-256h121v-51h-121v-223c0 -59 33 -70 99 -72v-48h-325v48c67 2 99 13 99 72v223h-121v51h121v256h-58c-87 0 -101 -36 -157 -165h-45z" />
    <glyph glyph-name="Tcaron" unicode="&#x164;" horiz-adv-x="678" 
d="M530 920l-147 -162h-88l-147 162h61l130 -87l130 87h61zM30 702h618l15 -217h-46c-55 129 -69 165 -156 165h-59v-530c0 -59 33 -70 99 -72v-48h-325v48c67 2 99 13 99 72v530h-58c-87 0 -101 -36 -157 -165h-45z" />
    <glyph glyph-name="Tcedilla" unicode="&#x162;" horiz-adv-x="678" 
d="M359 -155h-51c-30 7 -44 26 -44 53c0 33 27 56 69 56c52 0 82 -35 82 -83c0 -61 -37 -107 -141 -107v37c56 0 85 17 85 44zM30 702h618l15 -217h-46c-55 129 -69 165 -156 165h-59v-530c0 -59 33 -70 99 -72v-48h-325v48c67 2 99 13 99 72v530h-58
c-87 0 -101 -36 -157 -165h-45z" />
    <glyph glyph-name="Ccaron" unicode="&#x10c;" horiz-adv-x="683" 
d="M401 49c95 0 147 59 184 176h55l-21 -177c-63 -35 -133 -58 -238 -58c-209 0 -341 145 -341 346c0 233 156 376 353 376c102 0 175 -27 223 -66v-156h-54c-27 111 -84 164 -174 164c-148 0 -209 -134 -209 -289c0 -181 75 -316 222 -316zM576 920l-147 -162h-88l-147 162
h61l130 -87l130 87h61z" />
    <glyph glyph-name="Cdotaccent" unicode="&#x10a;" horiz-adv-x="683" 
d="M385 760c-44 0 -76 34 -76 75s32 76 76 76s76 -35 76 -76s-32 -75 -76 -75zM401 49c95 0 147 59 184 176h55l-21 -177c-63 -35 -133 -58 -238 -58c-209 0 -341 145 -341 346c0 233 156 376 353 376c102 0 175 -27 223 -66v-156h-54c-27 111 -84 164 -174 164
c-148 0 -209 -134 -209 -289c0 -181 75 -316 222 -316z" />
    <glyph glyph-name="Dcaron" unicode="&#x10e;" horiz-adv-x="769" 
d="M561 920l-147 -162h-88l-147 162h61l130 -87l130 87h61zM324 648h-69v-523c0 -59 28 -71 92 -71h18c141 0 226 100 226 296c0 160 -78 298 -267 298zM33 654v48h313c260 0 383 -147 383 -334c0 -236 -155 -368 -362 -368h-334v48c67 2 95 13 95 72v463
c0 58 -28 69 -95 71z" />
    <glyph glyph-name="Dcroat" unicode="&#x110;" horiz-adv-x="779" 
d="M43 335v51h95v197c0 58 -28 69 -95 71v48h313c260 0 383 -147 383 -334c0 -236 -155 -368 -362 -368h-334v48c67 2 95 13 95 72v215h-95zM334 648h-69v-262h158v-51h-158v-210c0 -59 28 -71 92 -71h18c141 0 226 100 226 296c0 160 -78 298 -267 298z" />
    <glyph glyph-name="Ubreve" unicode="&#x16c;" horiz-adv-x="769" 
d="M409 754c-94 0 -154 60 -154 161h47c6 -65 58 -88 107 -88s101 23 107 88h47c0 -101 -60 -161 -154 -161zM234 583v-330c0 -119 57 -187 168 -187c121 0 192 51 192 195v322c0 58 -32 69 -98 71v48h261v-48c-66 -2 -94 -13 -94 -71v-344c0 -169 -125 -248 -271 -248
c-176 0 -286 79 -286 249v343c0 58 -28 69 -94 71v48h316v-48c-66 -2 -94 -13 -94 -71z" />
    <glyph glyph-name="Uhungarumlaut" unicode="&#x170;" horiz-adv-x="769" 
d="M234 583v-330c0 -119 57 -187 168 -187c121 0 192 51 192 195v322c0 58 -32 69 -98 71v48h261v-48c-66 -2 -94 -13 -94 -71v-344c0 -169 -125 -248 -271 -248c-176 0 -286 79 -286 249v343c0 58 -28 69 -94 71v48h316v-48c-66 -2 -94 -13 -94 -71zM363 910h122l-134 -152
h-55zM527 910h121l-134 -152h-54z" />
    <glyph glyph-name="Umacron" unicode="&#x16a;" horiz-adv-x="769" 
d="M263 776v75h292v-75h-292zM234 583v-330c0 -119 57 -187 168 -187c121 0 192 51 192 195v322c0 58 -32 69 -98 71v48h261v-48c-66 -2 -94 -13 -94 -71v-344c0 -169 -125 -248 -271 -248c-176 0 -286 79 -286 249v343c0 58 -28 69 -94 71v48h316v-48
c-66 -2 -94 -13 -94 -71z" />
    <glyph glyph-name="Uogonek" unicode="&#x172;" horiz-adv-x="769" 
d="M234 583v-330c0 -119 57 -187 168 -187c121 0 192 51 192 195v322c0 58 -32 69 -98 71v48h261v-48c-66 -2 -94 -13 -94 -71v-344c0 -129 -73 -206 -172 -235c-57 -26 -105 -61 -105 -106c0 -24 16 -42 48 -42c28 0 54 9 85 31l14 -20c-33 -39 -78 -75 -134 -75
c-52 0 -92 30 -92 83c0 51 37 88 87 116h-2c-176 0 -286 79 -286 249v343c0 58 -28 69 -94 71v48h316v-48c-66 -2 -94 -13 -94 -71z" />
    <glyph glyph-name="Uring" unicode="&#x16e;" horiz-adv-x="769" 
d="M234 583v-330c0 -119 57 -187 168 -187c121 0 192 51 192 195v322c0 58 -32 69 -98 71v48h261v-48c-66 -2 -94 -13 -94 -71v-344c0 -169 -125 -248 -271 -248c-176 0 -286 79 -286 249v343c0 58 -28 69 -94 71v48h316v-48c-66 -2 -94 -13 -94 -71zM310 837
c0 53 41 94 99 94s99 -41 99 -94c0 -54 -41 -94 -99 -94s-99 40 -99 94zM459 837c0 29 -17 51 -50 51s-49 -22 -49 -51c0 -30 16 -51 49 -51s50 21 50 51z" />
    <glyph glyph-name="Utilde" unicode="&#x168;" horiz-adv-x="769" 
d="M555 893l43 -10c-47 -107 -74 -129 -124 -129c-59 0 -104 68 -144 68c-31 0 -44 -22 -65 -59l-44 10c48 107 74 129 125 129c61 0 103 -69 144 -69c30 0 43 22 65 60zM234 583v-330c0 -119 57 -187 168 -187c121 0 192 51 192 195v322c0 58 -32 69 -98 71v48h261v-48
c-66 -2 -94 -13 -94 -71v-344c0 -169 -125 -248 -271 -248c-176 0 -286 79 -286 249v343c0 58 -28 69 -94 71v48h316v-48c-66 -2 -94 -13 -94 -71z" />
    <glyph glyph-name="Wcircumflex" unicode="&#x174;" horiz-adv-x="982" 
d="M695 187l134 378c7 19 13 33 13 45c0 30 -20 42 -87 44v48h221v-48c-27 -4 -49 -8 -59 -37l-229 -625h-43l-148 418l-150 -418h-42l-240 625c-11 26 -32 33 -59 37v48h287v-48c-61 -3 -83 -13 -83 -43c0 -12 5 -26 11 -43l139 -383l107 308l-42 124c-10 28 -30 33 -57 37
v48h277v-48c-67 -2 -86 -13 -86 -43c0 -12 4 -26 11 -47zM547 919l147 -162h-61l-130 87l-130 -87h-61l147 162h88z" />
    <glyph glyph-name="Wacute" unicode="&#x1e82;" horiz-adv-x="982" 
d="M537 910h139l-155 -152h-58zM695 187l134 378c7 19 13 33 13 45c0 30 -20 42 -87 44v48h221v-48c-27 -4 -49 -8 -59 -37l-229 -625h-43l-148 418l-150 -418h-42l-240 625c-11 26 -32 33 -59 37v48h287v-48c-61 -3 -83 -13 -83 -43c0 -12 5 -26 11 -43l139 -383l107 308
l-42 124c-10 28 -30 33 -57 37v48h277v-48c-67 -2 -86 -13 -86 -43c0 -12 4 -26 11 -47z" />
    <glyph glyph-name="Wgrave" unicode="&#x1e80;" horiz-adv-x="982" 
d="M330 910h140l73 -152h-57zM695 187l134 378c7 19 13 33 13 45c0 30 -20 42 -87 44v48h221v-48c-27 -4 -49 -8 -59 -37l-229 -625h-43l-148 418l-150 -418h-42l-240 625c-11 26 -32 33 -59 37v48h287v-48c-61 -3 -83 -13 -83 -43c0 -12 5 -26 11 -43l139 -383l107 308
l-42 124c-10 28 -30 33 -57 37v48h277v-48c-67 -2 -86 -13 -86 -43c0 -12 4 -26 11 -47z" />
    <glyph glyph-name="Wdieresis" unicode="&#x1e84;" horiz-adv-x="982" 
d="M330 832c0 37 31 68 70 68c38 0 69 -31 69 -68c0 -39 -31 -70 -69 -70c-39 0 -70 31 -70 70zM536 832c0 37 32 68 69 68c40 0 70 -31 70 -68c0 -39 -30 -70 -70 -70c-37 0 -69 31 -69 70zM695 187l134 378c7 19 13 33 13 45c0 30 -20 42 -87 44v48h221v-48
c-27 -4 -49 -8 -59 -37l-229 -625h-43l-148 418l-150 -418h-42l-240 625c-11 26 -32 33 -59 37v48h287v-48c-61 -3 -83 -13 -83 -43c0 -12 5 -26 11 -43l139 -383l107 308l-42 124c-10 28 -30 33 -57 37v48h277v-48c-67 -2 -86 -13 -86 -43c0 -12 4 -26 11 -47z" />
    <glyph glyph-name="Ygrave" unicode="&#x1ef2;" horiz-adv-x="677" 
d="M369 337l141 229c12 20 19 35 19 50c0 27 -21 36 -84 38v48h227v-48c-29 -4 -45 -11 -60 -37l-212 -342v-155c0 -59 31 -70 97 -72v-48h-319v48c67 2 97 13 97 72v155l-210 342c-15 26 -31 33 -59 37v48h289v-48c-64 -2 -83 -11 -83 -38c0 -16 7 -30 19 -50zM186 910h140
l73 -152h-57z" />
    <glyph glyph-name="Ycircumflex" unicode="&#x176;" horiz-adv-x="677" 
d="M369 337l141 229c12 20 19 35 19 50c0 27 -21 36 -84 38v48h227v-48c-29 -4 -45 -11 -60 -37l-212 -342v-155c0 -59 31 -70 97 -72v-48h-319v48c67 2 97 13 97 72v155l-210 342c-15 26 -31 33 -59 37v48h289v-48c-64 -2 -83 -11 -83 -38c0 -16 7 -30 19 -50zM403 919
l147 -162h-61l-130 87l-130 -87h-61l147 162h88z" />
    <glyph glyph-name="Zacute" unicode="&#x179;" horiz-adv-x="629" 
d="M186 55h207c83 0 106 38 167 154h46l-33 -209h-549v32l407 615h-193c-80 0 -94 -37 -139 -137h-42v192h532v-33zM353 910h139l-155 -152h-58z" />
    <glyph glyph-name="Zdotaccent" unicode="&#x17b;" horiz-adv-x="629" 
d="M320 760c-44 0 -76 34 -76 75s32 76 76 76s76 -35 76 -76s-32 -75 -76 -75zM186 55h207c83 0 106 38 167 154h46l-33 -209h-549v32l407 615h-193c-80 0 -94 -37 -139 -137h-42v192h532v-33z" />
    <glyph glyph-name="Aacute.sc" horiz-adv-x="659" 
d="M445 118l-31 72h-239l-29 -72c-5 -12 -8 -24 -8 -34c0 -26 15 -35 72 -37v-47h-196v47c23 4 42 8 51 31l195 464l-31 65h131l233 -529c9 -22 26 -27 52 -31v-47h-262v47c56 2 72 10 72 37c0 10 -4 21 -10 34zM293 474l-97 -235h197zM346 817h136l-152 -167h-57z" />
    <glyph glyph-name="Agrave.sc" horiz-adv-x="659" 
d="M445 118l-31 72h-239l-29 -72c-5 -12 -8 -24 -8 -34c0 -26 15 -35 72 -37v-47h-196v47c23 4 42 8 51 31l195 464l-31 65h131l233 -529c9 -22 26 -27 52 -31v-47h-262v47c56 2 72 10 72 37c0 10 -4 21 -10 34zM293 474l-97 -235h197zM136 817h137l71 -167h-56z" />
    <glyph glyph-name="Acircumflex.sc" horiz-adv-x="659" 
d="M445 118l-31 72h-239l-29 -72c-5 -12 -8 -24 -8 -34c0 -26 15 -35 72 -37v-47h-196v47c23 4 42 8 51 31l195 464l-31 65h131l233 -529c9 -22 26 -27 52 -31v-47h-262v47c56 2 72 10 72 37c0 10 -4 21 -10 34zM355 819l140 -171h-61l-123 96l-123 -96h-61l140 171h88z
M293 474l-97 -235h197z" />
    <glyph glyph-name="Adieresis.sc" horiz-adv-x="659" 
d="M445 118l-31 72h-239l-29 -72c-5 -12 -8 -24 -8 -34c0 -26 15 -35 72 -37v-47h-196v47c23 4 42 8 51 31l195 464l-31 65h131l233 -529c9 -22 26 -27 52 -31v-47h-262v47c56 2 72 10 72 37c0 10 -4 21 -10 34zM293 474l-97 -235h197zM342 735c0 38 31 69 69 69
c39 0 70 -31 70 -69c0 -39 -31 -70 -70 -70c-38 0 -69 31 -69 70zM143 735c0 38 31 69 69 69c39 0 70 -31 70 -69c0 -39 -31 -70 -70 -70c-38 0 -69 31 -69 70z" />
    <glyph glyph-name="Atilde.sc" horiz-adv-x="659" 
d="M445 118l-31 72h-239l-29 -72c-5 -12 -8 -24 -8 -34c0 -26 15 -35 72 -37v-47h-196v47c23 4 42 8 51 31l195 464l-31 65h131l233 -529c9 -22 26 -27 52 -31v-47h-262v47c56 2 72 10 72 37c0 10 -4 21 -10 34zM464 805l43 -11c-47 -107 -74 -129 -124 -129
c-59 0 -104 69 -144 69c-31 0 -44 -22 -65 -60l-44 10c48 108 74 129 125 129c61 0 103 -68 144 -68c30 0 43 22 65 60zM293 474l-97 -235h197z" />
    <glyph glyph-name="Ccircumflex" unicode="&#x108;" horiz-adv-x="683" 
d="M401 49c95 0 147 59 184 176h55l-21 -177c-63 -35 -133 -58 -238 -58c-209 0 -341 145 -341 346c0 233 156 376 353 376c102 0 175 -27 223 -66v-156h-54c-27 111 -84 164 -174 164c-148 0 -209 -134 -209 -289c0 -181 75 -316 222 -316zM429 919l147 -162h-61l-130 87
l-130 -87h-61l147 162h88z" />
    <glyph glyph-name="Cacute" unicode="&#x106;" horiz-adv-x="683" 
d="M401 49c95 0 147 59 184 176h55l-21 -177c-63 -35 -133 -58 -238 -58c-209 0 -341 145 -341 346c0 233 156 376 353 376c102 0 175 -27 223 -66v-156h-54c-27 111 -84 164 -174 164c-148 0 -209 -134 -209 -289c0 -181 75 -316 222 -316zM417 910h139l-155 -152h-58z" />
    <glyph glyph-name="AEacute" unicode="&#x1fc;" horiz-adv-x="1056" 
d="M68 85l373 532c-10 27 -34 35 -95 37v48h639v-174h-42c-35 85 -62 121 -143 121h-163v-262h142c44 0 62 26 72 86h43v-227h-43c-10 60 -28 87 -72 87h-142v-212c0 -54 30 -68 95 -68h78c82 0 104 32 168 135h42l-30 -188h-574v48c67 2 95 13 95 72v129h-256l-77 -112
c-14 -20 -19 -37 -19 -52c0 -31 20 -35 89 -37v-48h-242v48c27 4 45 14 62 37zM511 617l-220 -316h220v316zM681 910h139l-155 -152h-58z" />
    <glyph glyph-name="E.sc" horiz-adv-x="608" 
d="M543 0h-505v47c59 2 80 12 80 60v386c0 48 -21 57 -80 60v47h500v-154h-43c-30 71 -53 103 -123 103h-131v-215h112c38 0 54 20 62 71h43v-194h-43c-8 51 -24 72 -62 72h-112v-175c0 -46 25 -58 80 -58h59c69 0 90 29 146 117h43z" />
    <glyph glyph-name="A.sc" horiz-adv-x="659" 
d="M445 118l-31 72h-239l-29 -72c-5 -12 -8 -24 -8 -34c0 -26 15 -35 72 -37v-47h-196v47c23 4 42 8 51 31l195 464l-31 65h131l233 -529c9 -22 26 -27 52 -31v-47h-262v47c56 2 72 10 72 37c0 10 -4 21 -10 34zM293 474l-97 -235h197z" />
    <glyph glyph-name="S.sc" horiz-adv-x="528" 
d="M253 -10c-85 0 -159 27 -200 59l-7 141h57c24 -93 73 -148 158 -148c69 0 114 31 114 92c0 50 -34 74 -135 106c-124 38 -187 85 -187 189c0 108 80 181 205 181c77 0 144 -23 189 -54v-130h-50c-21 76 -63 133 -145 133c-66 0 -99 -36 -99 -84c0 -53 30 -76 131 -107
c128 -38 196 -86 196 -195c0 -123 -103 -183 -227 -183z" />
    <glyph glyph-name="U.sc" horiz-adv-x="691" 
d="M227 493v-274c0 -98 44 -156 138 -156c100 0 161 40 161 163v267c0 48 -26 57 -84 60v47h228v-47c-57 -3 -79 -12 -79 -60v-288c0 -146 -109 -215 -238 -215c-156 0 -252 70 -252 216v287c0 48 -22 57 -79 60v47h283v-47c-57 -3 -78 -12 -78 -60z" />
    <glyph glyph-name="R.sc" horiz-adv-x="657" 
d="M285 549h-44v-246h45c99 0 145 40 145 125c0 74 -48 121 -146 121zM320 0h-282v47c59 2 80 12 80 60v386c0 48 -21 57 -80 60v47h290c160 0 231 -68 231 -171c0 -90 -73 -142 -149 -155l125 -166c29 -41 58 -60 104 -61v-47h-156c-29 21 -50 45 -76 85l-119 172h-47v-150
c0 -48 22 -58 79 -60v-47z" />
    <glyph glyph-name="C.sc" horiz-adv-x="620" 
d="M363 46c81 0 123 50 156 152h56l-18 -156c-54 -31 -119 -52 -211 -52c-187 0 -302 126 -302 298c0 198 138 322 311 322c89 0 155 -24 198 -60v-134h-55c-23 91 -69 140 -147 140c-123 0 -171 -115 -171 -244c0 -153 62 -266 183 -266z" />
    <glyph glyph-name="one.op" horiz-adv-x="432" 
d="M260 603h33v-489c0 -57 9 -61 114 -67v-47h-355v47c106 6 121 10 121 67v331h-128v44l33 5c96 14 131 38 182 109z" />
    <glyph glyph-name="nine.op" horiz-adv-x="589" 
d="M106 -73c196 47 287 163 307 301c-41 -46 -103 -77 -174 -77c-115 0 -200 79 -200 209c0 157 109 250 245 250c156 0 259 -123 259 -293c0 -229 -156 -398 -417 -429zM308 224c42 0 82 15 107 32c2 19 3 45 3 60c0 137 -52 240 -142 240c-79 0 -122 -62 -122 -161
c0 -103 53 -171 154 -171z" />
    <glyph glyph-name="two.op" horiz-adv-x="518" 
d="M155 99h181c59 0 84 8 124 77h33l-30 -176h-441v33l142 135c82 78 159 145 159 242c0 63 -38 107 -110 107c-74 0 -124 -51 -158 -100l-28 26c42 93 124 167 232 167c120 0 186 -71 186 -171c0 -137 -131 -215 -290 -340z" />
    <glyph glyph-name="percent.op" horiz-adv-x="829" 
d="M124 492c0 -71 21 -131 77 -131s76 60 76 131c0 72 -20 132 -76 132s-77 -60 -77 -132zM30 492c0 109 82 171 171 171c88 0 170 -62 170 -171c0 -108 -82 -170 -170 -170c-89 0 -171 62 -171 170zM704 162c0 71 -20 131 -76 131s-76 -60 -76 -131s20 -131 76 -131
s76 60 76 131zM655 673l-417 -692h-64l416 692h65zM799 162c0 -109 -82 -171 -171 -171s-171 62 -171 171c0 108 82 171 171 171s171 -63 171 -171z" />
    <glyph glyph-name="seven.op" horiz-adv-x="494" 
d="M392 488h-238c-49 0 -69 -16 -95 -72h-43l42 184h427v-34l-296 -668h-100z" />
    <glyph glyph-name="O.sc" horiz-adv-x="680" 
d="M351 46c103 0 151 108 151 245c0 148 -52 263 -172 263c-104 0 -152 -109 -152 -245c0 -148 52 -263 173 -263zM335 -10c-186 0 -291 139 -291 299c0 196 133 321 301 321c186 0 292 -139 292 -299c0 -196 -134 -321 -302 -321z" />
    <glyph glyph-name="five.op" horiz-adv-x="485" 
d="M228 -63c78 0 123 51 123 133c0 118 -124 175 -285 187l55 343h304v-114h-274l-19 -124c170 -14 319 -85 319 -253c0 -138 -106 -221 -241 -221c-110 0 -191 43 -191 114c0 26 13 46 30 57h61c7 -71 43 -122 118 -122z" />
    <glyph glyph-name="three.op" horiz-adv-x="492" 
d="M263 290c120 -11 198 -84 198 -192c0 -130 -115 -210 -245 -210c-115 0 -197 43 -197 114c0 26 13 46 30 57h61c7 -71 43 -122 119 -122c69 0 115 52 115 132c0 102 -77 157 -207 157l-9 37c110 34 184 76 184 159c0 58 -39 94 -100 94c-64 0 -111 -38 -143 -86l-27 24
c36 83 108 156 218 156c106 0 170 -64 170 -152c0 -95 -93 -151 -167 -168z" />
    <glyph glyph-name="M.sc" horiz-adv-x="859" 
d="M639 123l-44 324l-169 -447h-45l-178 449l-43 -326c-1 -7 -2 -19 -2 -22c0 -41 22 -51 83 -54v-47h-220v47c50 2 68 12 73 51l55 392c0 46 -15 60 -73 63v47h198c2 -20 5 -32 13 -52l147 -369l141 369c7 20 12 32 14 52h194v-47c-59 -3 -74 -17 -74 -63l55 -392
c6 -41 24 -49 73 -51v-47h-279v47c62 3 83 13 83 54c0 3 -1 15 -2 22z" />
    <glyph glyph-name="N.sc" horiz-adv-x="705" 
d="M118 107v398c-31 37 -43 46 -80 48v47h183l312 -398v291c0 48 -25 57 -83 60v47h226v-47c-58 -3 -80 -12 -80 -60v-493h-52l-362 451v-344c0 -48 25 -58 83 -60v-47h-227v47c59 2 80 12 80 60z" />
    <glyph glyph-name="Scedilla" unicode="&#x15e;" horiz-adv-x="573" 
d="M197 -225l-8 38c72 0 116 14 116 44c0 29 -35 40 -90 42l37 92c-87 4 -161 33 -203 67l-8 165h54c30 -107 87 -177 186 -177c84 0 137 40 137 116c0 63 -40 93 -158 133c-140 47 -212 98 -212 216s88 201 231 201c86 0 161 -26 213 -62v-153h-48c-25 92 -76 160 -172 160
c-78 0 -118 -45 -118 -103c0 -66 35 -94 153 -134c147 -49 222 -103 222 -223c0 -132 -107 -201 -239 -206l-14 -38c64 -2 105 -23 105 -75c0 -70 -84 -103 -184 -103z" />
    <glyph glyph-name="scedilla" unicode="&#x15f;" horiz-adv-x="471" 
d="M132 -225l-8 38c72 0 116 14 116 44c0 29 -35 40 -90 42l37 94c-54 5 -103 21 -141 49l-6 129h52c19 -82 66 -130 146 -130c59 0 97 27 97 75c0 57 -40 77 -130 102c-101 29 -160 71 -160 166c0 98 72 162 185 162c69 0 126 -17 170 -43v-120h-51
c-15 73 -55 111 -123 111c-52 0 -82 -31 -82 -72c0 -49 33 -75 115 -97c103 -28 174 -63 174 -168c0 -99 -74 -167 -198 -167h-10l-14 -37c64 -2 105 -23 105 -75c0 -70 -84 -103 -184 -103z" />
    <glyph glyph-name="Scommaaccent" unicode="&#x218;" horiz-adv-x="573" 
d="M312 -155h-51c-30 7 -44 26 -44 53c0 33 27 56 69 56c52 0 82 -35 82 -83c0 -61 -37 -107 -141 -107v37c56 0 85 17 85 44zM274 -10c-96 0 -179 31 -225 68l-8 165h54c30 -107 87 -177 186 -177c84 0 137 40 137 116c0 63 -40 93 -158 133c-140 47 -212 98 -212 216
s88 201 231 201c86 0 161 -26 213 -62v-153h-48c-25 92 -76 160 -172 160c-78 0 -118 -45 -118 -103c0 -66 35 -94 153 -134c147 -49 222 -103 222 -223c0 -137 -116 -207 -255 -207z" />
    <glyph glyph-name="scommaaccent" unicode="&#x219;" horiz-adv-x="471" 
d="M260 -155h-51c-30 7 -44 26 -44 53c0 33 27 56 69 56c52 0 82 -35 82 -83c0 -61 -37 -107 -141 -107v37c56 0 85 17 85 44zM235 -10c-72 0 -140 16 -189 52l-6 129h52c19 -82 66 -130 146 -130c59 0 97 27 97 75c0 57 -40 77 -130 102c-101 29 -160 71 -160 166
c0 98 72 162 185 162c69 0 126 -17 170 -43v-120h-51c-15 73 -55 111 -123 111c-52 0 -82 -31 -82 -72c0 -49 33 -75 115 -97c103 -28 174 -63 174 -168c0 -99 -74 -167 -198 -167z" />
    <glyph glyph-name="f_k" horiz-adv-x="939" 
d="M574 286l155 147c11 11 19 20 19 30c0 18 -16 21 -72 29v44h238v-44c-40 -10 -60 -17 -84 -39l-137 -129l240 -289v-35h-128zM444 102v537c-23 47 -62 83 -117 83c-64 0 -95 -48 -95 -126v-60h121v-60h-121v-374c0 -46 26 -51 71 -57v-45h-264v45c44 6 72 11 72 57v374
h-74v42l74 24v14c0 134 97 211 210 211c52 0 100 -15 133 -36l84 30h27v-659c0 -46 28 -51 72 -57v-45h-264v45c45 6 71 11 71 57z" />
    <glyph glyph-name="Euro" unicode="&#x20ac;" horiz-adv-x="689" 
d="M25 384v47h92c30 174 147 281 300 281c89 0 155 -22 204 -62v-156h-53c-24 106 -73 158 -157 158c-100 0 -152 -98 -166 -221h250l-12 -47h-241v-20c0 -16 0 -33 1 -48h225l-12 -48h-208c16 -123 67 -217 175 -217c94 0 140 55 173 171h53l-16 -178
c-59 -33 -132 -54 -214 -54c-176 0 -281 111 -304 278h-90v48h85v24c0 15 0 29 1 44h-86z" />
    <glyph glyph-name="dollar.op" horiz-adv-x="530" 
d="M170 -113l17 108c-59 8 -110 28 -140 54l-8 155h49c17 -72 52 -127 109 -150l36 223l-33 13c-90 34 -154 79 -154 183c0 109 84 187 217 187c10 0 21 0 32 -1l16 98h48l-17 -105c48 -9 91 -26 119 -48v-141h-45c-12 60 -38 106 -84 129l-34 -208l32 -12
c94 -35 161 -79 161 -188c0 -127 -107 -194 -241 -194h-16l-16 -103h-48zM284 258l-6 2l-35 -217h17c79 0 130 39 130 103c0 60 -38 87 -106 112zM145 514c0 -54 30 -83 91 -106l17 -7l33 205c-9 1 -19 2 -30 2c-73 0 -111 -40 -111 -94z" />
    <glyph glyph-name="Euro.op" horiz-adv-x="648" 
d="M23 356v46h86c30 160 142 258 284 258c84 0 145 -21 190 -58v-146h-49c-23 98 -68 148 -146 148c-91 0 -140 -89 -153 -202h229l-11 -46h-221v-19c0 -15 0 -31 1 -45h206l-11 -45h-191c15 -114 63 -200 164 -200c86 0 128 53 159 160h50l-16 -166
c-54 -32 -122 -51 -199 -51c-164 0 -266 103 -288 257h-84v45h79v23c0 14 0 27 1 41h-80z" />
    <glyph glyph-name="dollar.lt" 
d="M193 -113l18 109c-59 9 -111 30 -143 57l-8 168h52c17 -76 53 -135 110 -161l42 241l-32 13c-97 36 -165 84 -165 197c0 117 90 201 230 201c12 0 25 -1 37 -2l18 104h48l-19 -110c51 -10 96 -28 126 -51v-153h-47c-14 65 -41 114 -90 139l-38 -224l35 -14
c103 -38 172 -85 172 -202c0 -138 -114 -209 -256 -209c-8 0 -16 0 -24 1l-18 -104h-48zM320 280l-11 4l-40 -237c8 -1 16 -1 25 -1c83 0 138 43 138 112c0 64 -40 94 -112 122zM172 555c0 -59 32 -91 96 -115l18 -8l38 221c-11 2 -23 3 -35 3c-76 0 -117 -43 -117 -101z
" />
    <glyph glyph-name="nine.lt" 
d="M109 29c198 47 296 162 317 300c-42 -45 -107 -78 -179 -78c-118 0 -206 76 -206 210c0 157 111 250 250 250c166 0 267 -123 267 -293c0 -229 -155 -399 -428 -429zM320 325c43 0 83 18 108 34c2 19 3 43 3 59c0 137 -56 239 -147 239c-80 0 -126 -59 -126 -160
c0 -104 58 -172 162 -172z" />
    <glyph glyph-name="period.tab" horiz-adv-x="300" 
d="M67 73c0 48 36 84 83 84c46 0 83 -36 83 -84c0 -47 -37 -83 -83 -83c-47 0 -83 36 -83 83z" />
    <glyph glyph-name="five.lt" 
d="M497 702v-117h-297l-22 -128c204 -7 355 -74 355 -243c0 -136 -100 -224 -244 -224c-150 0 -230 67 -230 142c0 36 22 63 45 74h74v-32c0 -86 40 -133 120 -133c84 0 127 52 127 127c0 122 -124 181 -317 181l57 353h332z" />
    <glyph glyph-name="zero.lt" 
d="M172 351c0 -167 23 -304 128 -304c106 0 128 137 128 304s-22 304 -128 304c-105 0 -128 -137 -128 -304zM567 351c0 -203 -88 -361 -267 -361s-267 158 -267 361s88 361 267 361s267 -158 267 -361z" />
    <glyph glyph-name="sterling.lt" 
d="M88 339v47h101l8 70c18 175 99 256 221 256c87 0 149 -35 149 -108c0 -34 -17 -59 -36 -68h-71v44c0 49 -9 81 -52 81c-52 0 -69 -60 -84 -159l-15 -116h147v-47h-153l-13 -98c-3 -31 -9 -64 -17 -86c51 -28 109 -54 171 -54c59 0 93 23 93 100l29 3c8 -14 19 -40 19 -77
c0 -96 -54 -137 -137 -137c-81 0 -156 52 -202 98c-29 -56 -72 -98 -137 -98c-72 0 -105 43 -105 101c0 64 45 107 106 107c19 0 40 -3 58 -9l16 150h-96zM99 42c32 0 53 28 62 90c-17 9 -34 15 -52 15c-36 0 -53 -25 -53 -56s18 -49 43 -49z" />
    <glyph glyph-name="six.lt" 
d="M491 672c-198 -47 -296 -162 -317 -300c42 45 107 78 179 78c118 0 206 -76 206 -210c0 -157 -111 -250 -250 -250c-166 0 -267 123 -267 293c0 229 155 399 428 429zM280 376c-43 0 -83 -18 -108 -34c-2 -19 -3 -43 -3 -59c0 -137 56 -239 147 -239c80 0 126 59 126 160
c0 104 -58 172 -162 172z" />
    <glyph glyph-name="three.lt" 
d="M330 396c129 -11 213 -82 213 -188c0 -140 -125 -218 -263 -218c-154 0 -235 68 -235 142c0 37 24 63 46 74h73v-35c0 -83 44 -131 126 -131c80 0 127 50 127 131c0 102 -79 157 -193 157h-34l-9 37c117 34 194 77 194 160c0 59 -42 94 -107 94c-68 0 -119 -40 -153 -88
l-29 25c39 84 115 156 234 156c112 0 180 -64 180 -154c0 -92 -89 -145 -170 -162z" />
    <glyph glyph-name="two.lt" 
d="M169 104h170c80 0 111 8 162 100h34l-36 -204h-473v33l186 185c123 122 156 184 156 265c0 85 -48 130 -134 130c-75 0 -121 -44 -163 -86l-28 28c46 82 124 157 245 157c133 0 212 -77 212 -198c0 -145 -154 -254 -331 -410z" />
    <glyph glyph-name="Euro.lt" 
d="M14 384v47h67c28 174 138 281 281 281c84 0 145 -22 190 -62v-156h-54c-23 106 -63 158 -141 158c-94 0 -137 -98 -147 -221h227l-13 -47h-217v-20c0 -16 0 -33 1 -48h202l-11 -48h-188c13 -123 54 -217 157 -217c87 0 124 55 155 171h55l-15 -178
c-55 -33 -123 -54 -199 -54c-165 0 -264 111 -286 278h-64v48h60v24c0 15 0 29 1 44h-61z" />
    <glyph glyph-name="dollar.ot" 
d="M204 -113l17 108c-58 8 -109 28 -140 54l-8 155h50c16 -73 51 -128 108 -150l37 223l-33 13c-91 34 -155 79 -155 183c0 109 85 187 217 187c11 0 22 -1 33 -2l16 99h48l-17 -105c48 -9 90 -26 119 -48v-141h-45c-13 60 -38 106 -84 129l-34 -208l31 -12
c95 -35 162 -79 162 -188c0 -127 -108 -194 -241 -194h-16l-17 -103h-48zM318 258l-5 2l-35 -217h17c79 0 129 39 129 103c0 60 -37 87 -106 112zM179 514c0 -54 31 -83 91 -106l18 -7l33 205c-10 1 -20 2 -31 2c-73 0 -111 -40 -111 -94z" />
    <glyph glyph-name="nine.ot" 
d="M113 -73c199 47 295 163 314 301c-41 -46 -105 -77 -177 -77c-117 0 -207 79 -207 209c0 157 112 250 250 250c159 0 264 -123 264 -293c0 -229 -159 -398 -425 -429zM320 221c44 0 85 18 110 35c2 19 3 45 3 60c0 137 -56 240 -148 240c-81 0 -127 -61 -127 -161
c0 -105 58 -174 162 -174z" />
    <glyph glyph-name="five.ot" 
d="M285 -62c80 0 128 51 128 133c0 118 -129 174 -296 186l57 343h318v-114h-286l-20 -124c176 -14 330 -85 330 -252c0 -138 -109 -221 -250 -221c-114 0 -198 43 -198 114c0 26 13 46 31 57h61c7 -71 47 -122 125 -122z" />
    <glyph glyph-name="zero.ot" 
d="M300 47c94 0 135 110 135 253c0 142 -41 253 -135 253s-135 -111 -135 -253c0 -143 41 -253 135 -253zM300 -10c-161 0 -267 128 -267 310s106 310 267 310s267 -128 267 -310s-106 -310 -267 -310z" />
    <glyph glyph-name="sterling.ot" 
d="M95 314v45h99l7 61c17 166 98 241 216 241c85 0 145 -33 145 -102c0 -30 -16 -53 -35 -62h-66v39c0 46 -12 76 -53 76c-53 0 -68 -55 -82 -146l-15 -107h145v-45h-152l-12 -91c-3 -28 -9 -58 -17 -80c50 -25 105 -49 165 -49c58 0 90 26 90 94l31 3c7 -13 18 -36 18 -72
c0 -89 -52 -129 -134 -129c-83 0 -152 49 -198 91c-27 -53 -76 -91 -137 -91c-65 0 -98 40 -98 94c0 61 43 100 103 100c19 0 39 -3 57 -9l16 139h-93zM105 38c32 0 52 27 60 85c-16 8 -33 14 -51 14c-35 0 -51 -24 -51 -53s17 -46 42 -46z" />
    <glyph glyph-name="six.ot" 
d="M487 673c-199 -47 -295 -163 -314 -301c41 46 105 77 177 77c117 0 207 -79 207 -209c0 -157 -112 -250 -250 -250c-159 0 -264 123 -264 293c0 229 159 398 425 429zM280 379c-44 0 -85 -18 -110 -35c-2 -19 -3 -45 -3 -60c0 -137 56 -240 148 -240c81 0 127 61 127 161
c0 105 -58 174 -162 174z" />
    <glyph glyph-name="three.ot" 
d="M308 287c126 -11 210 -81 210 -189c0 -130 -121 -210 -258 -210c-120 0 -206 43 -206 114c0 26 13 46 31 57h64c7 -71 45 -121 128 -121c74 0 124 52 124 131c0 102 -83 157 -224 157l-9 37c116 34 198 74 198 158c0 61 -43 97 -109 97c-69 0 -117 -40 -151 -88l-28 24
c38 83 112 156 229 156c111 0 179 -64 179 -152c0 -95 -100 -154 -178 -171z" />
    <glyph glyph-name="two.ot" 
d="M182 99h194c61 0 88 8 129 77h32l-31 -176h-462v33l147 135c86 79 174 150 174 244c0 62 -40 106 -113 106c-79 0 -138 -52 -172 -101l-30 26c44 93 129 167 242 167c124 0 194 -71 194 -171c0 -137 -138 -215 -304 -340z" />
    <glyph glyph-name="Euro.ot" 
d="M22 356v46h78c27 160 133 258 268 258c80 0 138 -21 181 -58v-146h-51c-21 98 -60 148 -132 148c-87 0 -129 -89 -140 -202h209l-12 -46h-200v-19c0 -15 0 -31 1 -45h186l-11 -45h-172c13 -114 54 -200 149 -200c81 0 118 53 148 160h50l-14 -166
c-52 -32 -117 -51 -190 -51c-156 0 -252 103 -273 257h-75v45h71v23c0 14 0 27 1 41h-72z" />
    <glyph glyph-name="parenleft.cap" horiz-adv-x="353" 
d="M61 334c0 164 70 324 201 436h64c-127 -135 -163 -279 -163 -436s36 -301 163 -436h-64c-131 112 -201 272 -201 436z" />
    <glyph glyph-name="endash.cap" horiz-adv-x="580" 
d="M530 323h-480v72h480v-72z" />
    <glyph glyph-name="parenright.cap" horiz-adv-x="353" 
d="M292 334c0 -164 -70 -324 -200 -436h-65c127 135 163 279 163 436s-36 301 -163 436h65c130 -112 200 -272 200 -436z" />
    <glyph glyph-name="parenleft.sc" horiz-adv-x="349" 
d="M60 289c0 147 69 298 202 400h67c-129 -122 -166 -259 -166 -400c0 -142 37 -278 166 -400h-67c-133 101 -202 252 -202 400z" />
    <glyph glyph-name="Q.sc" horiz-adv-x="680" 
d="M345 609c186 0 291 -138 291 -298c0 -163 -91 -277 -218 -311l38 -33c51 -48 82 -75 130 -78v-24c-20 -12 -49 -20 -78 -20c-64 0 -113 25 -158 84l-48 63c-166 14 -258 146 -258 297c0 196 133 320 301 320zM350 46c104 0 152 108 152 245c0 148 -52 262 -173 262
c-103 0 -151 -108 -151 -245c0 -147 52 -262 172 -262z" />
    <glyph glyph-name="parenright.sc" horiz-adv-x="349" 
d="M289 289c0 -148 -69 -299 -201 -400h-68c129 122 166 258 166 400c0 141 -37 278 -166 400h68c132 -102 201 -253 201 -400z" />
    <glyph glyph-name="B.sc" horiz-adv-x="622" 
d="M307 283h-66v-177c0 -46 23 -57 78 -57h9c80 0 121 39 121 114c0 68 -38 120 -142 120zM289 549h-48v-217h51c86 0 129 36 129 113c0 65 -44 104 -132 104zM346 0h-308v47c59 2 80 12 80 60v386c0 48 -21 57 -80 60v47h298c134 0 211 -51 211 -151
c0 -87 -75 -127 -157 -138c115 -8 189 -59 189 -149c0 -104 -84 -162 -233 -162z" />
    <glyph glyph-name="ampersand.sc" horiz-adv-x="628" 
d="M20 157c0 90 60 136 143 168c-25 29 -55 73 -55 131c0 90 69 154 175 154c105 0 167 -51 167 -127c0 -72 -64 -117 -148 -146l150 -171c12 25 19 53 19 81c0 35 -10 48 -43 48v46h180v-46c-66 0 -78 -12 -88 -62c-8 -36 -21 -70 -39 -100l37 -41c28 -31 51 -46 89 -46
v-46h-142c-23 14 -42 29 -59 47c-48 -36 -107 -57 -174 -57c-113 0 -212 58 -212 167zM273 52c37 0 72 11 102 29l-11 13l-178 204c-34 -23 -52 -64 -52 -112c0 -79 59 -134 139 -134zM209 492c0 -47 34 -88 65 -123l6 -7c50 25 75 64 75 123c0 46 -28 78 -73 78
s-73 -27 -73 -71z" />
    <glyph glyph-name="uni215C" unicode="&#x215c;" horiz-adv-x="945" 
d="M233 537c81 -7 135 -54 135 -124c0 -89 -83 -135 -177 -135c-104 0 -156 46 -156 96c0 26 14 42 29 49h61v-23c0 -53 24 -85 72 -85c45 0 71 30 71 85c0 63 -40 93 -104 93h-23l-5 26c72 27 112 51 112 95c0 34 -24 59 -70 59c-49 0 -76 -30 -95 -61l-29 20
c27 61 83 112 167 112c77 0 125 -41 125 -101s-60 -92 -113 -106zM876 284c0 -52 -44 -92 -93 -102c73 -31 111 -68 111 -122c0 -93 -79 -137 -169 -137c-98 0 -171 43 -171 114c0 55 43 94 98 107c-53 27 -84 63 -84 114c0 76 61 131 155 131c93 0 153 -41 153 -105z
M749 98l-74 35c-33 -21 -43 -56 -43 -87c0 -52 39 -80 94 -80c51 0 82 25 82 63c0 34 -24 52 -59 69zM706 217l55 -25c30 21 38 56 38 82c0 47 -29 73 -76 73c-45 0 -71 -27 -71 -59s20 -55 54 -71zM231 0l449 741h65l-450 -741h-64z" />
    <glyph glyph-name="D.sc" horiz-adv-x="697" 
d="M294 549h-52v-438c0 -50 24 -60 76 -60h14c117 0 187 82 187 248c0 137 -66 250 -225 250zM335 0h-297v47c59 2 80 12 80 60v386c0 48 -21 57 -80 60v47h275c228 0 341 -119 341 -287c0 -200 -133 -313 -319 -313z" />
    <glyph glyph-name="F.sc" horiz-adv-x="562" 
d="M349 0h-311v47c59 2 80 12 80 60v386c0 48 -21 57 -80 60v47h487v-157h-43c-31 72 -54 106 -124 106h-117v-225h96c39 0 54 20 63 71h43v-194h-43c-9 52 -24 72 -63 72h-96v-169c0 -47 36 -56 108 -59v-45z" />
    <glyph glyph-name="G.sc" horiz-adv-x="671" 
d="M44 288c0 198 144 322 315 322c88 0 157 -24 200 -60v-134h-55c-24 91 -72 140 -149 140c-122 0 -176 -115 -176 -244c0 -151 57 -267 186 -267c41 0 64 6 90 24v117c0 47 -21 56 -77 58v48h267v-48c-57 -2 -73 -11 -73 -58v-134c-56 -40 -133 -62 -222 -62
c-194 0 -306 126 -306 298z" />
    <glyph glyph-name="H.sc" horiz-adv-x="760" 
d="M721 47v-47h-284v47c58 2 80 12 80 60v175h-275v-175c0 -48 23 -58 80 -60v-47h-284v47c59 2 80 12 80 60v386c0 48 -21 57 -80 60v47h284v-47c-57 -3 -80 -12 -80 -60v-159h275v159c0 48 -22 57 -80 60v47h284v-47c-58 -3 -79 -12 -79 -60v-386c0 -48 21 -58 79 -60z
" />
    <glyph glyph-name="I.sc" horiz-adv-x="361" 
d="M322 47v-47h-284v47c59 2 80 12 80 60v386c0 48 -21 57 -80 60v47h284v-47c-58 -3 -80 -12 -80 -60v-386c0 -48 22 -58 80 -60z" />
    <glyph glyph-name="J.sc" horiz-adv-x="513" 
d="M410 493v-312c0 -131 -76 -191 -205 -191c-114 0 -187 46 -187 120c0 31 14 53 32 66h88v-42c0 -58 25 -95 72 -95c50 0 74 39 74 121v333c0 48 -21 57 -78 60v47h284v-47c-58 -3 -80 -12 -80 -60z" />
    <glyph glyph-name="K.sc" horiz-adv-x="673" 
d="M373 345l185 -234c41 -51 63 -62 101 -65v-46h-154c-27 17 -50 40 -81 82l-172 224l202 186c13 12 22 22 22 36s-9 23 -62 25v47h226v-47c-39 -1 -59 -13 -85 -37zM322 47v-47h-284v47c59 2 80 12 80 60v386c0 48 -21 57 -80 60v47h284v-47c-57 -3 -79 -12 -79 -60v-386
c0 -48 22 -58 79 -60z" />
    <glyph glyph-name="L.sc" horiz-adv-x="575" 
d="M243 493v-384c0 -46 23 -58 78 -58h38c66 0 82 30 142 136h48l-30 -187h-481v47c59 2 80 12 80 60v386c0 48 -21 57 -80 60v47h284v-47c-57 -3 -79 -12 -79 -60z" />
    <glyph glyph-name="P.sc" horiz-adv-x="582" 
d="M243 549v-265h49c92 0 136 44 136 134c0 79 -46 131 -139 131h-46zM349 0h-311v47c59 2 80 12 80 60v386c0 48 -21 57 -80 60v47h283c168 0 236 -84 236 -181c0 -109 -71 -183 -228 -183h-86v-129c0 -48 35 -57 106 -60v-47z" />
    <glyph glyph-name="T.sc" horiz-adv-x="638" 
d="M43 600h552l14 -192h-46c-46 106 -60 143 -135 143h-47v-444c0 -48 27 -58 85 -60v-47h-294v47c59 2 86 12 86 60v444h-47c-75 0 -89 -37 -135 -143h-46z" />
    <glyph glyph-name="V.sc" horiz-adv-x="644" 
d="M360 165l133 316c5 13 9 25 9 34c0 26 -16 35 -72 38v47h200v-47c-25 -4 -41 -8 -51 -32l-228 -527h-33l-253 527c-11 24 -27 28 -51 32v47h264v-47c-56 -3 -72 -11 -72 -38c0 -9 3 -21 9 -34z" />
    <glyph glyph-name="W.sc" horiz-adv-x="876" 
d="M619 174l109 299c7 19 11 33 11 42c0 26 -15 35 -71 38v47h194v-47c-24 -4 -43 -8 -52 -32l-199 -527h-39l-127 348l-130 -348h-40l-210 527c-9 22 -28 28 -51 32v47h257v-47c-50 -3 -68 -13 -68 -38c0 -9 4 -22 10 -38l114 -306l90 250l-35 100c-9 23 -25 28 -49 32v47
h247v-47c-57 -3 -72 -12 -72 -38c0 -9 3 -21 10 -43z" />
    <glyph glyph-name="X.sc" horiz-adv-x="651" 
d="M405 114l-105 139l-111 -137c-15 -16 -21 -29 -21 -42c0 -19 9 -27 64 -27v-47h-218v47c35 0 55 12 75 36l175 216l-167 218c-17 23 -35 35 -66 36v47h276v-47c-53 0 -65 -8 -65 -27c0 -13 10 -24 23 -42l85 -113l89 113c13 15 21 30 21 42c0 19 -12 27 -63 27v47h217
v-47c-34 0 -53 -11 -74 -36l-154 -192l182 -242c18 -23 38 -34 69 -36v-47h-270v47c52 0 60 8 60 27c0 11 -10 23 -22 40z" />
    <glyph glyph-name="Y.sc" horiz-adv-x="612" 
d="M337 289l114 185c12 19 18 33 18 46c0 23 -18 31 -69 33v47h198v-47c-25 -4 -39 -10 -52 -32l-180 -291v-123c0 -48 24 -58 81 -60v-47h-282v47c58 2 82 12 82 60v123l-182 291c-13 23 -27 28 -51 32v47h263v-47c-54 -2 -69 -10 -69 -33c0 -15 6 -28 17 -46z" />
    <glyph glyph-name="Z.sc" horiz-adv-x="572" 
d="M185 52h167c70 0 90 28 146 133h45l-29 -185h-484v32l348 515h-156c-70 0 -82 -36 -120 -116h-42v169h468v-33z" />
    <glyph glyph-name="Aringacute" unicode="&#x1fa;" horiz-adv-x="734" 
d="M511 131l-40 95h-280l-37 -94c-6 -15 -11 -29 -11 -40c0 -31 21 -42 87 -44v-48h-224v48c27 4 48 10 59 37l228 553l-32 71h139l269 -624c11 -26 30 -33 59 -37v-48h-292v48c66 2 86 12 86 43c0 12 -4 25 -11 40zM329 569l-117 -291h238zM240 821c0 50 44 83 105 83
c62 0 105 -33 105 -83c0 -51 -43 -83 -105 -83c-61 0 -105 32 -105 83zM369 1037h137l-131 -108h-54zM400 821c0 27 -20 45 -55 45s-54 -18 -54 -45s19 -45 54 -45s55 18 55 45z" />
    <glyph glyph-name="Amacron" unicode="&#x100;" horiz-adv-x="734" 
d="M511 131l-40 95h-280l-37 -94c-6 -15 -11 -29 -11 -40c0 -31 21 -42 87 -44v-48h-224v48c27 4 48 10 59 37l228 553l-32 71h139l269 -624c11 -26 30 -33 59 -37v-48h-292v48c66 2 86 12 86 43c0 12 -4 25 -11 40zM329 569l-117 -291h238zM201 776v75h292v-75h-292z" />
    <glyph glyph-name="Abreve" unicode="&#x102;" horiz-adv-x="734" 
d="M511 131l-40 95h-280l-37 -94c-6 -15 -11 -29 -11 -40c0 -31 21 -42 87 -44v-48h-224v48c27 4 48 10 59 37l228 553l-32 71h139l269 -624c11 -26 30 -33 59 -37v-48h-292v48c66 2 86 12 86 43c0 12 -4 25 -11 40zM329 569l-117 -291h238zM347 754c-94 0 -154 60 -154 161
h47c6 -65 58 -88 107 -88s101 23 107 88h47c0 -101 -60 -161 -154 -161z" />
    <glyph glyph-name="Aogonek" unicode="&#x104;" horiz-adv-x="734" 
d="M511 131l-40 95h-279l-38 -94c-6 -15 -11 -29 -11 -40c0 -31 21 -42 87 -44v-48h-224v48c27 4 48 10 59 37l228 553l-32 71h139l269 -624c11 -26 30 -33 59 -37v-48h-263c-44 -23 -77 -57 -77 -102c0 -28 17 -46 48 -46c29 0 55 9 86 31l14 -20c-33 -39 -77 -74 -133 -74
c-51 0 -93 32 -93 89c0 65 43 109 138 151c51 23 74 31 74 62c0 12 -4 25 -11 40zM329 569l-117 -291h238z" />
    <glyph glyph-name="seven.ot" 
d="M469 488h-285c-48 0 -69 -16 -94 -72h-44l43 184h473v-34l-304 -668h-100z" />
    <glyph glyph-name="Ibreve.sc" horiz-adv-x="361" 
d="M322 47v-47h-284v47c59 2 80 12 80 60v386c0 48 -21 57 -80 60v47h284v-47c-58 -3 -80 -12 -80 -60v-386c0 -48 22 -58 80 -60zM180 650c-93 0 -146 62 -146 169h48c7 -69 50 -95 98 -95c49 0 92 26 99 95h48c0 -107 -53 -169 -147 -169z" />
    <glyph glyph-name="Iacute.sc" horiz-adv-x="361" 
d="M215 817h136l-152 -167h-57zM322 47v-47h-284v47c59 2 80 12 80 60v386c0 48 -21 57 -80 60v47h284v-47c-58 -3 -80 -12 -80 -60v-386c0 -48 22 -58 80 -60z" />
    <glyph glyph-name="Hbar.sc" horiz-adv-x="777" 
d="M127 396h-80v51h80v46c0 48 -22 57 -80 60v47h284v-47c-57 -3 -80 -12 -80 -60v-46h275v46c0 48 -22 57 -80 60v47h284v-47c-58 -3 -79 -12 -79 -60v-46h79v-51h-79v-289c0 -48 21 -58 79 -60v-47h-284v47c58 2 80 12 80 60v149h-275v-149c0 -48 23 -58 80 -60v-47h-284
v47c58 2 80 12 80 60v289zM251 308h275v88h-275v-88z" />
    <glyph glyph-name="Hcircumflex.sc" horiz-adv-x="760" 
d="M424 819l140 -171h-61l-123 96l-123 -96h-61l140 171h88zM721 47v-47h-284v47c58 2 80 12 80 60v175h-275v-175c0 -48 23 -58 80 -60v-47h-284v47c59 2 80 12 80 60v386c0 48 -21 57 -80 60v47h284v-47c-57 -3 -80 -12 -80 -60v-159h275v159c0 48 -22 57 -80 60v47h284
v-47c-58 -3 -79 -12 -79 -60v-386c0 -48 21 -58 79 -60z" />
    <glyph glyph-name="Gcommaaccent.sc" horiz-adv-x="671" 
d="M383 -155h-51c-30 7 -44 26 -44 53c0 33 27 56 69 56c52 0 82 -35 82 -83c0 -61 -37 -107 -141 -107v37c56 0 85 17 85 44zM44 288c0 198 144 322 315 322c88 0 157 -24 200 -60v-134h-55c-24 91 -72 140 -149 140c-122 0 -176 -115 -176 -244c0 -151 57 -267 186 -267
c41 0 64 6 90 24v117c0 47 -21 56 -77 58v48h267v-48c-57 -2 -73 -11 -73 -58v-134c-56 -40 -133 -62 -222 -62c-194 0 -306 126 -306 298z" />
    <glyph glyph-name="Gdotaccent.sc" horiz-adv-x="671" 
d="M44 288c0 198 144 322 315 322c88 0 157 -24 200 -60v-134h-55c-24 91 -72 140 -149 140c-122 0 -176 -115 -176 -244c0 -151 57 -267 186 -267c41 0 64 6 90 24v117c0 47 -21 56 -77 58v48h267v-48c-57 -2 -73 -11 -73 -58v-134c-56 -40 -133 -62 -222 -62
c-194 0 -306 126 -306 298zM358 661c-44 0 -76 34 -76 76c0 41 32 75 76 75c45 0 76 -34 76 -75c0 -42 -31 -76 -76 -76z" />
    <glyph glyph-name="Gbreve.sc" horiz-adv-x="671" 
d="M44 288c0 198 144 322 315 322c88 0 157 -24 200 -60v-134h-55c-24 91 -72 140 -149 140c-122 0 -176 -115 -176 -244c0 -151 57 -267 186 -267c41 0 64 6 90 24v117c0 47 -21 56 -77 58v48h267v-48c-57 -2 -73 -11 -73 -58v-134c-56 -40 -133 -62 -222 -62
c-194 0 -306 126 -306 298zM357 650c-93 0 -146 62 -146 169h48c7 -69 50 -95 98 -95c49 0 92 26 99 95h48c0 -107 -53 -169 -147 -169z" />
    <glyph glyph-name="Gcircumflex.sc" horiz-adv-x="671" 
d="M401 819l140 -171h-61l-123 96l-123 -96h-61l140 171h88zM44 288c0 198 144 322 315 322c88 0 157 -24 200 -60v-134h-55c-24 91 -72 140 -149 140c-122 0 -176 -115 -176 -244c0 -151 57 -267 186 -267c41 0 64 6 90 24v117c0 47 -21 56 -77 58v48h267v-48
c-57 -2 -73 -11 -73 -58v-134c-56 -40 -133 -62 -222 -62c-194 0 -306 126 -306 298z" />
    <glyph glyph-name="Eth.sc" horiz-adv-x="706" 
d="M344 0h-297v47c59 2 80 12 80 60v176h-80v51h80v159c0 48 -21 57 -80 60v47h275c228 0 341 -119 341 -287c0 -200 -133 -313 -319 -313zM303 549h-52v-215h130v-51h-130v-172c0 -50 24 -60 76 -60h14c117 0 187 82 187 248c0 137 -66 250 -225 250z" />
    <glyph glyph-name="Eogonek.sc" horiz-adv-x="608" 
d="M543 0h-51c-57 -27 -104 -61 -104 -106c0 -24 16 -42 48 -42c28 0 54 9 85 31l14 -20c-33 -39 -78 -75 -134 -75c-52 0 -92 30 -92 83c0 59 50 99 112 129h-383v47c59 2 80 12 80 60v386c0 48 -21 57 -80 60v47h500v-154h-43c-30 71 -53 103 -123 103h-131v-215h112
c38 0 54 20 62 71h43v-194h-43c-8 51 -24 72 -62 72h-112v-175c0 -46 25 -58 80 -58h59c69 0 90 29 146 117h43z" />
    <glyph glyph-name="Edotaccent.sc" horiz-adv-x="608" 
d="M317 661c-44 0 -76 34 -76 76c0 41 32 75 76 75c45 0 76 -34 76 -75c0 -42 -31 -76 -76 -76zM543 0h-505v47c59 2 80 12 80 60v386c0 48 -21 57 -80 60v47h500v-154h-43c-30 71 -53 103 -123 103h-131v-215h112c38 0 54 20 62 71h43v-194h-43c-8 51 -24 72 -62 72h-112
v-175c0 -46 25 -58 80 -58h59c69 0 90 29 146 117h43z" />
    <glyph glyph-name="Emacron.sc" horiz-adv-x="608" 
d="M179 678v71h276v-71h-276zM543 0h-505v47c59 2 80 12 80 60v386c0 48 -21 57 -80 60v47h500v-154h-43c-30 71 -53 103 -123 103h-131v-215h112c38 0 54 20 62 71h43v-194h-43c-8 51 -24 72 -62 72h-112v-175c0 -46 25 -58 80 -58h59c69 0 90 29 146 117h43z" />
    <glyph glyph-name="Ecaron.sc" horiz-adv-x="608" 
d="M501 825l-140 -172h-88l-140 172h61l123 -96l123 96h61zM543 0h-505v47c59 2 80 12 80 60v386c0 48 -21 57 -80 60v47h500v-154h-43c-30 71 -53 103 -123 103h-131v-215h112c38 0 54 20 62 71h43v-194h-43c-8 51 -24 72 -62 72h-112v-175c0 -46 25 -58 80 -58h59
c69 0 90 29 146 117h43z" />
    <glyph glyph-name="Edieresis.sc" horiz-adv-x="608" 
d="M148 735c0 38 31 69 69 69c39 0 70 -31 70 -69c0 -39 -31 -70 -70 -70c-38 0 -69 31 -69 70zM347 735c0 38 31 69 69 69c39 0 70 -31 70 -69c0 -39 -31 -70 -70 -70c-38 0 -69 31 -69 70zM543 0h-505v47c59 2 80 12 80 60v386c0 48 -21 57 -80 60v47h500v-154h-43
c-30 71 -53 103 -123 103h-131v-215h112c38 0 54 20 62 71h43v-194h-43c-8 51 -24 72 -62 72h-112v-175c0 -46 25 -58 80 -58h59c69 0 90 29 146 117h43z" />
    <glyph glyph-name="Ecircumflex.sc" horiz-adv-x="608" 
d="M361 819l140 -171h-61l-123 96l-123 -96h-61l140 171h88zM543 0h-505v47c59 2 80 12 80 60v386c0 48 -21 57 -80 60v47h500v-154h-43c-30 71 -53 103 -123 103h-131v-215h112c38 0 54 20 62 71h43v-194h-43c-8 51 -24 72 -62 72h-112v-175c0 -46 25 -58 80 -58h59
c69 0 90 29 146 117h43z" />
    <glyph glyph-name="Egrave.sc" horiz-adv-x="608" 
d="M141 817h137l71 -167h-56zM543 0h-505v47c59 2 80 12 80 60v386c0 48 -21 57 -80 60v47h500v-154h-43c-30 71 -53 103 -123 103h-131v-215h112c38 0 54 20 62 71h43v-194h-43c-8 51 -24 72 -62 72h-112v-175c0 -46 25 -58 80 -58h59c69 0 90 29 146 117h43z" />
    <glyph glyph-name="Ebreve.sc" horiz-adv-x="608" 
d="M543 0h-505v47c59 2 80 12 80 60v386c0 48 -21 57 -80 60v47h500v-154h-43c-30 71 -53 103 -123 103h-131v-215h112c38 0 54 20 62 71h43v-194h-43c-8 51 -24 72 -62 72h-112v-175c0 -46 25 -58 80 -58h59c69 0 90 29 146 117h43zM316 650c-93 0 -146 62 -146 169h48
c7 -69 50 -95 98 -95c49 0 92 26 99 95h48c0 -107 -53 -169 -147 -169z" />
    <glyph glyph-name="Eacute.sc" horiz-adv-x="608" 
d="M351 817h136l-152 -167h-57zM543 0h-505v47c59 2 80 12 80 60v386c0 48 -21 57 -80 60v47h500v-154h-43c-30 71 -53 103 -123 103h-131v-215h112c38 0 54 20 62 71h43v-194h-43c-8 51 -24 72 -62 72h-112v-175c0 -46 25 -58 80 -58h59c69 0 90 29 146 117h43z" />
    <glyph glyph-name="Dcroat.sc" horiz-adv-x="706" 
d="M344 0h-297v47c59 2 80 12 80 60v176h-80v51h80v159c0 48 -21 57 -80 60v47h275c228 0 341 -119 341 -287c0 -200 -133 -313 -319 -313zM303 549h-52v-215h130v-51h-130v-172c0 -50 24 -60 76 -60h14c117 0 187 82 187 248c0 137 -66 250 -225 250z" />
    <glyph glyph-name="Dcaron.sc" horiz-adv-x="697" 
d="M294 549h-52v-438c0 -50 24 -60 76 -60h14c117 0 187 82 187 248c0 137 -66 250 -225 250zM335 0h-297v47c59 2 80 12 80 60v386c0 48 -21 57 -80 60v47h275c228 0 341 -119 341 -287c0 -200 -133 -313 -319 -313zM526 825l-140 -172h-88l-140 172h61l123 -96l123 96h61z
" />
    <glyph glyph-name="Ccedilla.sc" horiz-adv-x="620" 
d="M248 -225l-8 38c72 0 116 14 116 44c0 29 -35 40 -90 42l37 93c-162 17 -259 137 -259 296c0 198 138 322 311 322c89 0 155 -24 198 -60v-134h-55c-23 91 -69 140 -147 140c-123 0 -171 -115 -171 -244c0 -153 62 -266 183 -266c81 0 123 50 156 152h56l-18 -156
c-54 -31 -119 -52 -211 -52h-5l-14 -37c64 -2 105 -23 105 -75c0 -70 -84 -103 -184 -103z" />
    <glyph glyph-name="Cdotaccent.sc" horiz-adv-x="620" 
d="M363 46c81 0 123 50 156 152h56l-18 -156c-54 -31 -119 -52 -211 -52c-187 0 -302 126 -302 298c0 198 138 322 311 322c89 0 155 -24 198 -60v-134h-55c-23 91 -69 140 -147 140c-123 0 -171 -115 -171 -244c0 -153 62 -266 183 -266zM347 661c-44 0 -76 34 -76 76
c0 41 32 75 76 75c45 0 76 -34 76 -75c0 -42 -31 -76 -76 -76z" />
    <glyph glyph-name="Ccaron.sc" horiz-adv-x="620" 
d="M534 825l-140 -172h-88l-140 172h61l123 -96l123 96h61zM363 46c81 0 123 50 156 152h56l-18 -156c-54 -31 -119 -52 -211 -52c-187 0 -302 126 -302 298c0 198 138 322 311 322c89 0 155 -24 198 -60v-134h-55c-23 91 -69 140 -147 140c-123 0 -171 -115 -171 -244
c0 -153 62 -266 183 -266z" />
    <glyph glyph-name="Ccircumflex.sc" horiz-adv-x="620" 
d="M392 819l140 -171h-61l-123 96l-123 -96h-61l140 171h88zM363 46c81 0 123 50 156 152h56l-18 -156c-54 -31 -119 -52 -211 -52c-187 0 -302 126 -302 298c0 198 138 322 311 322c89 0 155 -24 198 -60v-134h-55c-23 91 -69 140 -147 140c-123 0 -171 -115 -171 -244
c0 -153 62 -266 183 -266z" />
    <glyph glyph-name="Cacute.sc" horiz-adv-x="620" 
d="M381 817h136l-152 -167h-57zM363 46c81 0 123 50 156 152h56l-18 -156c-54 -31 -119 -52 -211 -52c-187 0 -302 126 -302 298c0 198 138 322 311 322c89 0 155 -24 198 -60v-134h-55c-23 91 -69 140 -147 140c-123 0 -171 -115 -171 -244c0 -153 62 -266 183 -266z" />
    <glyph glyph-name="AEacute.sc" horiz-adv-x="940" 
d="M67 78l314 442c-8 23 -27 30 -81 33v47h570v-154h-44c-29 71 -53 103 -123 103h-130v-215h111c39 0 54 20 63 71h42v-194h-42c-9 51 -24 72 -63 72h-111v-175c0 -46 25 -58 79 -58h59c70 0 91 29 146 117h44l-27 -167h-504v47c58 2 80 12 80 60v105h-220l-61 -85
c-13 -19 -17 -34 -17 -47c0 -26 16 -31 74 -33v-47h-212v47c23 4 39 11 53 31zM450 518l-186 -258h186v258zM616 817h136l-152 -167h-57z" />
    <glyph glyph-name="AE.sc" horiz-adv-x="940" 
d="M67 78l314 442c-8 23 -27 30 -81 33v47h570v-154h-44c-29 71 -53 103 -123 103h-130v-215h111c39 0 54 20 63 71h42v-194h-42c-9 51 -24 72 -63 72h-111v-175c0 -46 25 -58 79 -58h59c70 0 91 29 146 117h44l-27 -167h-504v47c58 2 80 12 80 60v105h-220l-61 -85
c-13 -19 -17 -34 -17 -47c0 -26 16 -31 74 -33v-47h-212v47c23 4 39 11 53 31zM450 518l-186 -258h186v258z" />
    <glyph glyph-name="Aogonek.sc" horiz-adv-x="659" 
d="M229 607h131l233 -529c9 -22 26 -27 52 -31v-47h-239c-53 -24 -86 -59 -86 -102c0 -28 16 -46 48 -46c28 0 54 9 85 31l14 -20c-33 -39 -76 -74 -132 -74c-52 0 -94 32 -94 89c0 67 55 110 138 146c55 25 75 36 75 62c0 11 -4 21 -11 36l-29 68h-239l-29 -72
c-5 -12 -8 -24 -8 -34c0 -26 15 -35 72 -37v-47h-196v47c23 4 42 8 51 31l195 464zM293 474l-97 -235h197z" />
    <glyph glyph-name="Abreve.sc" horiz-adv-x="659" 
d="M445 118l-31 72h-239l-29 -72c-5 -12 -8 -24 -8 -34c0 -26 15 -35 72 -37v-47h-196v47c23 4 42 8 51 31l195 464l-31 65h131l233 -529c9 -22 26 -27 52 -31v-47h-262v47c56 2 72 10 72 37c0 10 -4 21 -10 34zM311 650c-93 0 -146 62 -146 169h48c7 -69 50 -95 98 -95
c49 0 92 26 99 95h48c0 -107 -53 -169 -147 -169zM293 474l-97 -235h197z" />
    <glyph glyph-name="Amacron.sc" horiz-adv-x="659" 
d="M445 118l-31 72h-239l-29 -72c-5 -12 -8 -24 -8 -34c0 -26 15 -35 72 -37v-47h-196v47c23 4 42 8 51 31l195 464l-31 65h131l233 -529c9 -22 26 -27 52 -31v-47h-262v47c56 2 72 10 72 37c0 10 -4 21 -10 34zM293 474l-97 -235h197zM173 678v71h276v-71h-276z" />
    <glyph glyph-name="Aringacute.sc" horiz-adv-x="659" 
d="M445 118l-31 72h-239l-29 -72c-5 -12 -8 -24 -8 -34c0 -26 15 -35 72 -37v-47h-196v47c23 4 42 8 51 31l195 464l-31 65h131l233 -529c9 -22 26 -27 52 -31v-47h-262v47c56 2 72 10 72 37c0 10 -4 21 -10 34zM204 714c0 51 44 84 105 84c62 0 105 -33 105 -84
c0 -50 -43 -83 -105 -83c-61 0 -105 33 -105 83zM293 474l-97 -235h197zM333 930h137l-131 -107h-54zM364 714c0 28 -20 46 -55 46s-54 -18 -54 -46c0 -26 19 -44 54 -44s55 18 55 44z" />
    <glyph glyph-name="zacute" unicode="&#x17a;" horiz-adv-x="523" 
d="M300 763h136l-152 -167h-57zM34 0v30l301 454h-139c-52 0 -67 -29 -98 -124h-49v176h430v-33l-295 -451h132c57 0 92 31 125 132h50l-20 -184h-437z" />
    <glyph glyph-name="ycircumflex" unicode="&#x177;" horiz-adv-x="579" 
d="M266 -3l-203 455c-10 21 -16 24 -58 40v44h265v-44c-52 -7 -71 -12 -71 -36c0 -8 1 -15 8 -31l118 -289l112 289c6 16 8 23 8 31c0 24 -19 29 -70 36v44h199v-44c-42 -15 -49 -18 -58 -40l-224 -545c-30 -73 -65 -114 -129 -114c-35 0 -64 15 -79 37v60h54
c65 0 90 11 112 67zM365 765l140 -171h-61l-123 96l-123 -96h-61l140 171h88z" />
    <glyph glyph-name="ygrave" unicode="&#x1ef3;" horiz-adv-x="579" 
d="M266 -3l-203 455c-10 21 -16 24 -58 40v44h265v-44c-52 -7 -71 -12 -71 -36c0 -8 1 -15 8 -31l118 -289l112 289c6 16 8 23 8 31c0 24 -19 29 -70 36v44h199v-44c-42 -15 -49 -18 -58 -40l-224 -545c-30 -73 -65 -114 -129 -114c-35 0 -64 15 -79 37v60h54
c65 0 90 11 112 67zM146 763h137l71 -167h-56z" />
    <glyph glyph-name="wdieresis" unicode="&#x1e85;" horiz-adv-x="825" 
d="M256 681c0 38 31 69 69 69c39 0 70 -31 70 -69c0 -39 -31 -70 -70 -70c-38 0 -69 31 -69 70zM455 681c0 38 31 69 69 69c39 0 70 -31 70 -69c0 -39 -31 -70 -70 -70c-38 0 -69 31 -69 70zM593 169l95 258c4 12 6 21 6 29c0 24 -18 29 -63 36v44h189v-44
c-42 -15 -49 -18 -57 -40l-178 -460h-36l-131 341l-136 -341h-35l-185 460c-9 22 -16 26 -57 40v44h250v-44c-43 -7 -60 -13 -60 -35c0 -9 3 -20 8 -32l95 -257l90 236l-17 48c-8 22 -15 27 -54 40v44h241v-44c-46 -7 -63 -12 -63 -36c0 -9 3 -20 7 -31z" />
    <glyph glyph-name="wgrave" unicode="&#x1e81;" horiz-adv-x="825" 
d="M593 169l95 258c4 12 6 21 6 29c0 24 -18 29 -63 36v44h189v-44c-42 -15 -49 -18 -57 -40l-178 -460h-36l-131 341l-136 -341h-35l-185 460c-9 22 -16 26 -57 40v44h250v-44c-43 -7 -60 -13 -60 -35c0 -9 3 -20 8 -32l95 -257l90 236l-17 48c-8 22 -15 27 -54 40v44h241
v-44c-46 -7 -63 -12 -63 -36c0 -9 3 -20 7 -31zM249 763h137l71 -167h-56z" />
    <glyph glyph-name="wacute" unicode="&#x1e83;" horiz-adv-x="825" 
d="M459 763h136l-152 -167h-57zM593 169l95 258c4 12 6 21 6 29c0 24 -18 29 -63 36v44h189v-44c-42 -15 -49 -18 -57 -40l-178 -460h-36l-131 341l-136 -341h-35l-185 460c-9 22 -16 26 -57 40v44h250v-44c-43 -7 -60 -13 -60 -35c0 -9 3 -20 8 -32l95 -257l90 236l-17 48
c-8 22 -15 27 -54 40v44h241v-44c-46 -7 -63 -12 -63 -36c0 -9 3 -20 7 -31z" />
    <glyph glyph-name="wcircumflex" unicode="&#x175;" horiz-adv-x="825" 
d="M468 765l140 -171h-61l-123 96l-123 -96h-61l140 171h88zM593 169l95 258c4 12 6 21 6 29c0 24 -18 29 -63 36v44h189v-44c-42 -15 -49 -18 -57 -40l-178 -460h-36l-131 341l-136 -341h-35l-185 460c-9 22 -16 26 -57 40v44h250v-44c-43 -7 -60 -13 -60 -35
c0 -9 3 -20 8 -32l95 -257l90 236l-17 48c-8 22 -15 27 -54 40v44h241v-44c-46 -7 -63 -12 -63 -36c0 -9 3 -20 7 -31z" />
    <glyph glyph-name="utilde" unicode="&#x169;" horiz-adv-x="646" 
d="M421 -10v98c-45 -47 -102 -98 -186 -98c-88 0 -144 49 -144 166v262c0 34 -10 47 -53 54l-16 3v41l170 30h21v-375c0 -66 26 -96 83 -96c48 0 90 19 125 42v301c0 34 -10 47 -53 54l-15 3v41l168 30h22v-427c0 -34 9 -44 50 -48l25 -2v-45l-175 -34h-22zM466 751l43 -11
c-47 -107 -74 -129 -124 -129c-59 0 -104 69 -144 69c-31 0 -44 -22 -65 -60l-44 10c48 108 74 129 125 129c61 0 103 -68 144 -68c30 0 43 22 65 60z" />
    <glyph glyph-name="uring" unicode="&#x16f;" horiz-adv-x="646" 
d="M223 685c0 53 41 94 99 94c59 0 99 -41 99 -94c0 -54 -40 -94 -99 -94c-58 0 -99 40 -99 94zM372 685c0 29 -17 51 -50 51c-32 0 -49 -22 -49 -51s17 -51 49 -51c33 0 50 22 50 51zM421 -10v98c-45 -47 -102 -98 -186 -98c-88 0 -144 49 -144 166v262c0 34 -10 47 -53 54
l-16 3v41l170 30h21v-375c0 -66 26 -96 83 -96c48 0 90 19 125 42v301c0 34 -10 47 -53 54l-15 3v41l168 30h22v-427c0 -34 9 -44 50 -48l25 -2v-45l-175 -34h-22z" />
    <glyph glyph-name="uogonek" unicode="&#x173;" horiz-adv-x="646" 
d="M618 24c-173 -39 -218 -82 -218 -130c0 -24 16 -42 48 -42c28 0 54 9 85 31l14 -20c-33 -39 -78 -75 -134 -75c-52 0 -92 30 -92 83c0 58 46 93 100 122v95c-45 -47 -102 -98 -186 -98c-88 0 -144 49 -144 166v262c0 34 -10 47 -53 54l-16 3v41l170 30h21v-375
c0 -66 26 -96 83 -96c48 0 90 19 125 42v301c0 34 -10 47 -53 54l-15 3v41l168 30h22v-427c0 -34 9 -44 50 -48l25 -2v-45z" />
    <glyph glyph-name="umacron" unicode="&#x16b;" horiz-adv-x="646" 
d="M421 -10v98c-45 -47 -102 -98 -186 -98c-88 0 -144 49 -144 166v262c0 34 -10 47 -53 54l-16 3v41l170 30h21v-375c0 -66 26 -96 83 -96c48 0 90 19 125 42v301c0 34 -10 47 -53 54l-15 3v41l168 30h22v-427c0 -34 9 -44 50 -48l25 -2v-45l-175 -34h-22zM185 624v71h276
v-71h-276z" />
    <glyph glyph-name="uhungarumlaut" unicode="&#x171;" horiz-adv-x="646" 
d="M421 -10v98c-45 -47 -102 -98 -186 -98c-88 0 -144 49 -144 166v262c0 34 -10 47 -53 54l-16 3v41l170 30h21v-375c0 -66 26 -96 83 -96c48 0 90 19 125 42v301c0 34 -10 47 -53 54l-15 3v41l168 30h22v-427c0 -34 9 -44 50 -48l25 -2v-45l-175 -34h-22zM268 763h118
l-131 -167h-54zM431 763h119l-132 -167h-54z" />
    <glyph glyph-name="zdotaccent" unicode="&#x17c;" horiz-adv-x="523" 
d="M34 0v30l301 454h-139c-52 0 -67 -29 -98 -124h-49v176h430v-33l-295 -451h132c57 0 92 31 125 132h50l-20 -184h-437zM265 607c-44 0 -76 34 -76 76c0 41 32 75 76 75c45 0 76 -34 76 -75c0 -42 -31 -76 -76 -76z" />
    <glyph glyph-name="ubreve" unicode="&#x16d;" horiz-adv-x="646" 
d="M421 -10v98c-45 -47 -102 -98 -186 -98c-88 0 -144 49 -144 166v262c0 34 -10 47 -53 54l-16 3v41l170 30h21v-375c0 -66 26 -96 83 -96c48 0 90 19 125 42v301c0 34 -10 47 -53 54l-15 3v41l168 30h22v-427c0 -34 9 -44 50 -48l25 -2v-45l-175 -34h-22zM322 596
c-93 0 -146 62 -146 169h48c7 -69 50 -95 98 -95c49 0 92 26 99 95h48c0 -107 -53 -169 -147 -169z" />
    <glyph glyph-name="tcedilla" unicode="&#x163;" horiz-adv-x="386" 
d="M215 -155h-51c-30 7 -44 26 -44 53c0 33 27 56 69 56c52 0 82 -35 82 -83c0 -61 -37 -107 -141 -107v37c56 0 85 17 85 44zM205 654v-118h147v-60h-147v-337c0 -53 23 -72 74 -72c28 0 61 8 86 21l13 -31c-38 -41 -93 -67 -162 -67c-80 0 -131 38 -131 130v356h-72v38
c56 29 110 76 156 140h36z" />
    <glyph glyph-name="tcaron" unicode="&#x165;" horiz-adv-x="386" 
d="M393 806l-86 -205h-47l18 205h115zM205 654v-118h147v-60h-147v-337c0 -53 23 -72 74 -72c28 0 61 8 86 21l13 -31c-38 -41 -93 -67 -162 -67c-80 0 -131 38 -131 130v356h-72v38c56 29 110 76 156 140h36z" />
    <glyph glyph-name="tbar" unicode="&#x167;" horiz-adv-x="429" 
d="M229 654v-118h147v-60h-147v-117h147v-56h-147v-164c0 -53 23 -72 74 -72c28 0 61 8 86 21l13 -31c-38 -41 -93 -67 -162 -67c-80 0 -131 38 -131 130v183h-73v56h73v117h-72v38c56 29 110 76 156 140h36z" />
    <glyph glyph-name="lessequal" unicode="&#x2264;" horiz-adv-x="448" 
d="M54 401v9l318 172v-82l-182 -94l182 -95v-82zM54 128v71h318v-71h-318z" />
    <glyph glyph-name="greaterequal" unicode="&#x2265;" horiz-adv-x="448" 
d="M394 410v-9l-318 -172v82l183 95l-183 94v82zM394 199v-71h-318v71h318z" />
    <glyph glyph-name="approxequal" unicode="&#x2248;" horiz-adv-x="586" 
d="M71 383v73c44 29 84 41 120 41c77 0 127 -40 203 -40c37 0 77 11 122 41v-73c-45 -30 -85 -41 -122 -41c-76 0 -126 40 -203 40c-36 0 -76 -12 -120 -41zM71 246v72c44 30 84 41 120 41c77 0 127 -39 203 -39c37 0 77 10 122 40v-73c-45 -30 -85 -40 -122 -40
c-76 0 -126 38 -203 38c-36 0 -76 -11 -120 -39z" />
    <glyph glyph-name="notequal" unicode="&#x2260;" horiz-adv-x="586" 
d="M71 408v69h263l74 104h75l-74 -104h107v-69h-157l-56 -79h213v-68h-262l-74 -104h-75l74 104h-108v68h157l56 79h-213z" />
    <glyph glyph-name="four.op" horiz-adv-x="594" 
d="M95 147h244v318zM457 -102h-118v194h-325v41l365 474h78v-460h123v-55h-123v-194z" />
    <glyph glyph-name="eight.op" horiz-adv-x="563" 
d="M493 546c0 -81 -66 -137 -134 -157l29 -14c76 -37 132 -91 132 -182c0 -115 -80 -203 -240 -203c-144 0 -240 73 -240 184c0 87 64 144 147 169l-11 6c-67 36 -111 82 -111 170c0 110 79 193 215 193c130 0 213 -66 213 -166zM325 277l-110 51c-51 -33 -72 -88 -72 -147
c0 -82 54 -138 137 -138c81 0 137 44 137 117c0 58 -40 93 -92 117zM253 443l75 -38c49 31 69 79 69 138c0 71 -47 116 -117 116c-71 0 -113 -43 -113 -104c0 -54 30 -84 86 -112z" />
    <glyph glyph-name="yen.op" horiz-adv-x="655" 
d="M93 302v45h115l-134 224c-14 23 -31 31 -58 34v46h283v-46c-63 -1 -80 -11 -80 -36c0 -16 7 -28 17 -46l120 -213l123 213c10 17 17 31 17 46c0 25 -18 35 -80 36v46h223v-46c-28 -3 -44 -10 -58 -34l-136 -224h120v-45h-147l-32 -53v-12h179v-46h-179v-78
c0 -55 29 -66 94 -68v-45h-308v45c66 2 96 13 96 68v78h-175v46h175v11l-33 54h-142z" />
    <glyph glyph-name="florin.op" horiz-adv-x="512" 
d="M76 275l6 48h87l7 50c23 185 87 287 215 287c72 0 114 -30 114 -79c0 -32 -20 -52 -49 -61h-32c-1 54 -10 98 -48 98c-33 0 -48 -33 -54 -83l-27 -212h113l-4 -48h-115l-20 -158c-23 -185 -87 -287 -214 -287c-73 0 -115 30 -115 79c0 32 20 52 49 61h32
c1 -54 10 -98 48 -98c33 0 48 33 54 83l40 320h-87z" />
    <glyph glyph-name="perthousand.op" horiz-adv-x="1213" 
d="M124 492c0 -71 21 -131 77 -131s76 60 76 131c0 72 -20 132 -76 132s-77 -60 -77 -132zM30 492c0 109 82 171 171 171c88 0 170 -62 170 -171c0 -108 -82 -170 -170 -170c-89 0 -171 62 -171 170zM704 162c0 71 -20 131 -76 131s-76 -60 -76 -131s20 -131 76 -131
s76 60 76 131zM655 673l-417 -692h-64l416 692h65zM799 162c0 -109 -82 -171 -171 -171s-171 62 -171 171c0 108 82 171 171 171s171 -63 171 -171zM1088 162c0 71 -20 131 -76 131s-76 -60 -76 -131s20 -131 76 -131s76 60 76 131zM1183 162c0 -109 -82 -171 -171 -171
s-171 62 -171 171c0 108 82 171 171 171s171 -63 171 -171z" />
    <glyph glyph-name="plus.op" horiz-adv-x="576" 
d="M252 534h71v-186h187v-72h-187v-186h-71v186h-186v72h186v186z" />
    <glyph glyph-name="minus.op" horiz-adv-x="576" 
d="M66 276v72h444v-72h-444z" />
    <glyph glyph-name="equal.op" horiz-adv-x="586" 
d="M71 204v69h445v-69h-445zM71 351v70h445v-70h-445z" />
    <glyph glyph-name="divide.op" horiz-adv-x="576" 
d="M66 276v72h444v-72h-444zM227 138c0 35 27 62 60 62s62 -27 62 -62c0 -33 -29 -61 -62 -61s-60 28 -60 61zM227 486c0 33 27 60 60 60s62 -27 62 -60s-29 -62 -62 -62s-60 29 -60 62z" />
    <glyph glyph-name="multiply.op" horiz-adv-x="499" 
d="M200 308l-136 136l50 50l135 -137l136 137l51 -50l-137 -136l137 -136l-51 -49l-136 136l-135 -136l-50 49z" />
    <glyph glyph-name="less.op" horiz-adv-x="428" 
d="M44 305v10l318 195v-86l-194 -113l194 -116v-85z" />
    <glyph glyph-name="greater.op" horiz-adv-x="428" 
d="M384 315v-10l-318 -195v85l194 116l-194 113v86z" />
    <glyph glyph-name="plusminus.op" horiz-adv-x="576" 
d="M252 551h71v-141h186v-70h-186v-140h-71v140h-184v70h184v141zM68 78v71h441v-71h-441z" />
    <glyph glyph-name="lessequal.op" horiz-adv-x="448" 
d="M54 344v9l318 172v-82l-182 -94l182 -95v-82zM54 71v71h318v-71h-318z" />
    <glyph glyph-name="rcaron" unicode="&#x159;" horiz-adv-x="434" 
d="M439 771l-140 -172h-88l-140 172h61l123 -96l123 96h61zM231 548v-164c57 122 87 162 151 162c18 0 31 -6 39 -13v-110h-22c-62 0 -109 -8 -168 -72v-247c0 -48 24 -51 92 -59v-45h-285v45c44 6 72 11 72 57v326l-67 43v25l159 52h29z" />
    <glyph glyph-name="rcommaaccent" unicode="&#x157;" horiz-adv-x="434" 
d="M200 -155h-51c-30 7 -44 26 -44 53c0 33 27 56 69 56c52 0 82 -35 82 -83c0 -61 -37 -107 -141 -107v37c56 0 85 17 85 44zM231 548v-164c57 122 87 162 151 162c18 0 31 -6 39 -13v-110h-22c-62 0 -109 -8 -168 -72v-247c0 -48 24 -51 92 -59v-45h-285v45
c44 6 72 11 72 57v326l-67 43v25l159 52h29z" />
    <glyph glyph-name="sacute" unicode="&#x15b;" horiz-adv-x="471" 
d="M275 763h136l-152 -167h-57zM235 -10c-72 0 -140 16 -189 52l-6 129h52c19 -82 66 -130 146 -130c59 0 97 27 97 75c0 57 -40 77 -130 102c-101 29 -160 71 -160 166c0 98 72 162 185 162c69 0 126 -17 170 -43v-120h-51c-15 73 -55 111 -123 111c-52 0 -82 -31 -82 -72
c0 -49 33 -75 115 -97c103 -28 174 -63 174 -168c0 -99 -74 -167 -198 -167z" />
    <glyph glyph-name="scircumflex" unicode="&#x15d;" horiz-adv-x="471" 
d="M284 765l140 -171h-61l-123 96l-123 -96h-61l140 171h88zM235 -10c-72 0 -140 16 -189 52l-6 129h52c19 -82 66 -130 146 -130c59 0 97 27 97 75c0 57 -40 77 -130 102c-101 29 -160 71 -160 166c0 98 72 162 185 162c69 0 126 -17 170 -43v-120h-51
c-15 73 -55 111 -123 111c-52 0 -82 -31 -82 -72c0 -49 33 -75 115 -97c103 -28 174 -63 174 -168c0 -99 -74 -167 -198 -167z" />
    <glyph glyph-name="greaterequal.op" horiz-adv-x="448" 
d="M394 353v-9l-318 -172v82l183 95l-183 94v82zM394 142v-71h-318v71h318z" />
    <glyph glyph-name="approxequal.op" horiz-adv-x="586" 
d="M71 326v73c44 29 84 41 120 41c77 0 127 -40 203 -40c37 0 77 11 122 41v-73c-45 -30 -85 -41 -122 -41c-76 0 -126 40 -203 40c-36 0 -76 -12 -120 -41zM71 189v72c44 30 84 41 120 41c77 0 127 -39 203 -39c37 0 77 10 122 40v-73c-45 -30 -85 -40 -122 -40
c-76 0 -126 38 -203 38c-36 0 -76 -11 -120 -39z" />
    <glyph glyph-name="notequal.op" horiz-adv-x="586" 
d="M71 351v69h263l74 104h75l-74 -104h107v-69h-157l-56 -79h213v-68h-262l-74 -104h-75l74 104h-108v68h157l56 79h-213z" />
    <glyph glyph-name="one.lt" 
d="M342 712h33v-595c0 -57 36 -67 160 -67v-50h-453v50c131 0 169 10 169 67v436h-162v45l55 5c104 10 149 37 198 109z" />
    <glyph glyph-name="four.lt" 
d="M97 240h240v320zM337 120v60h-319v46l359 476h79v-462h114v-60h-114v-60c0 -59 29 -70 97 -72v-48h-313v48c68 2 97 13 97 72z" />
    <glyph glyph-name="seven.lt" 
d="M460 584h-285c-49 0 -69 -16 -95 -73h-43l43 191h473v-33l-290 -669h-117z" />
    <glyph glyph-name="eight.lt" 
d="M525 546c0 -81 -68 -135 -139 -155l28 -13c85 -40 139 -94 139 -185c0 -115 -84 -203 -250 -203c-150 0 -250 71 -250 184c0 87 65 141 152 167l-11 5c-69 33 -115 85 -115 171c0 113 82 195 224 195c136 0 222 -66 222 -166zM350 275l-115 50c-53 -33 -76 -85 -76 -144
c0 -82 57 -138 144 -138c84 0 142 44 142 117c0 58 -41 91 -95 115zM274 445l79 -37c50 31 73 76 73 135c0 71 -49 116 -123 116c-75 0 -118 -43 -118 -104c0 -54 31 -82 89 -110z" />
    <glyph glyph-name="yen.lt" 
d="M75 324v48h112l-126 245c-13 25 -29 33 -54 37v48h273v-48c-59 -2 -74 -12 -74 -39c0 -17 6 -31 15 -50l109 -231l115 232c8 18 16 33 16 49c0 27 -17 37 -75 39v48h207v-48c-25 -4 -41 -12 -54 -37l-127 -245h116v-48h-140l-26 -50v-21h166v-47h-166v-86
c0 -59 31 -70 98 -72v-48h-321v48c67 2 98 13 98 72v86h-162v47h162v21l-26 50h-136z" />
    <glyph glyph-name="florin.lt" 
d="M162 304l6 48h88l10 73c23 185 87 287 215 287c72 0 114 -30 114 -79c0 -32 -20 -52 -49 -61h-32c-1 54 -10 98 -48 98c-33 0 -48 -33 -54 -83l-30 -235h112l-4 -48h-114l-24 -187c-23 -185 -87 -287 -215 -287c-72 0 -114 30 -114 79c0 32 20 52 49 61h32
c1 -54 10 -98 48 -98c33 0 48 33 54 83l44 349h-88z" />
    <glyph glyph-name="cent.lt" 
d="M208 -111l23 113c-102 33 -166 125 -166 251c0 169 109 296 277 296l26 125h48l-26 -128c83 -12 139 -55 139 -125c0 -37 -19 -56 -44 -66h-56v37c0 48 -15 80 -51 94l-80 -394c17 -6 37 -8 58 -8c72 0 118 32 157 84l26 -14c-32 -110 -112 -164 -225 -164
c-13 0 -25 1 -36 3l-21 -104h-49zM174 298c0 -86 28 -150 79 -185l78 382h-7c-87 0 -150 -75 -150 -197z" />
    <glyph glyph-name="percent.lt" horiz-adv-x="900" 
d="M141 528c0 -76 24 -141 83 -141c60 0 84 65 84 141c0 77 -24 141 -84 141c-59 0 -83 -64 -83 -141zM193 -19l449 741h65l-450 -741h-64zM46 528c0 117 85 184 178 184c95 0 179 -67 179 -184s-84 -184 -179 -184c-93 0 -178 67 -178 184zM758 175c0 76 -24 141 -83 141
c-60 0 -84 -65 -84 -141c0 -77 24 -141 84 -141c59 0 83 64 83 141zM853 175c0 -117 -84 -184 -178 -184s-179 67 -179 184c0 116 85 184 179 184s178 -68 178 -184z" />
    <glyph glyph-name="perthousand.lt" horiz-adv-x="1300" 
d="M144 528c0 -76 24 -141 83 -141c60 0 84 65 84 141c0 77 -24 141 -84 141c-59 0 -83 -64 -83 -141zM195 -19l450 741h64l-450 -741h-64zM49 528c0 117 84 184 178 184s179 -67 179 -184s-85 -184 -179 -184s-178 67 -178 184zM761 175c0 76 -24 141 -83 141
c-60 0 -84 -65 -84 -141c0 -77 24 -141 84 -141c59 0 83 64 83 141zM856 175c0 -117 -85 -184 -178 -184c-94 0 -179 67 -179 184c0 116 85 184 179 184c93 0 178 -68 178 -184zM1156 175c0 76 -24 141 -83 141c-60 0 -84 -65 -84 -141c0 -77 24 -141 84 -141
c59 0 83 64 83 141zM1251 175c0 -117 -84 -184 -178 -184s-179 67 -179 184c0 116 85 184 179 184s178 -68 178 -184z" />
    <glyph glyph-name="plus.lt" 
d="M264 591h71v-186h187v-72h-187v-186h-71v186h-186v72h186v186z" />
    <glyph glyph-name="minus.lt" 
d="M78 333v72h444v-72h-444z" />
    <glyph glyph-name="equal.lt" 
d="M78 261v69h444v-69h-444zM78 408v70h444v-70h-444z" />
    <glyph glyph-name="divide.lt" 
d="M78 333v72h444v-72h-444zM239 195c0 35 27 62 60 62s62 -27 62 -62c0 -33 -29 -61 -62 -61s-60 28 -60 61zM239 543c0 33 27 60 60 60s62 -27 62 -60s-29 -62 -62 -62s-60 29 -60 62z" />
    <glyph glyph-name="multiply.lt" 
d="M250 365l-136 136l50 50l135 -137l137 137l50 -50l-137 -136l137 -136l-50 -49l-137 136l-135 -136l-50 49z" />
    <glyph glyph-name="less.lt" 
d="M141 362v10l318 195v-86l-194 -113l194 -116v-85z" />
    <glyph glyph-name="greater.lt" 
d="M459 372v-10l-318 -195v85l194 116l-194 113v86z" />
    <glyph glyph-name="plusminus.lt" 
d="M264 608h71v-141h186v-70h-186v-140h-71v140h-184v70h184v141zM80 135v71h441v-71h-441z" />
    <glyph glyph-name="lessequal.lt" 
d="M141 401v9l318 172v-82l-183 -94l183 -95v-82zM141 128v71h318v-71h-318z" />
    <glyph glyph-name="greaterequal.lt" 
d="M459 410v-9l-318 -172v82l183 95l-183 94v82zM459 199v-71h-318v71h318z" />
    <glyph glyph-name="approxequal.lt" 
d="M78 383v73c43 29 84 41 119 41c77 0 127 -40 204 -40c37 0 77 11 121 41v-73c-44 -30 -84 -41 -121 -41c-77 0 -127 40 -204 40c-35 0 -76 -12 -119 -41zM78 246v72c43 30 84 41 119 41c77 0 127 -39 204 -39c37 0 77 10 121 40v-73c-44 -30 -84 -40 -121 -40
c-77 0 -127 38 -204 38c-35 0 -76 -11 -119 -39z" />
    <glyph glyph-name="notequal.lt" 
d="M78 408v69h263l74 104h74l-74 -104h107v-69h-157l-56 -79h213v-68h-262l-74 -104h-74l74 104h-108v68h157l56 79h-213z" />
    <glyph glyph-name="one.ot" 
d="M347 603h32v-486c0 -57 37 -67 160 -67v-50h-449v50c131 0 169 10 169 67v328h-162v44l55 6c105 10 145 37 195 108z" />
    <glyph glyph-name="four.ot" 
d="M99 147h243v318zM460 -102h-118v194h-319v41l359 474h78v-460h117v-55h-117v-194z" />
    <glyph glyph-name="racute" unicode="&#x155;" horiz-adv-x="434" 
d="M290 763h136l-152 -167h-57zM231 548v-164c57 122 87 162 151 162c18 0 31 -6 39 -13v-110h-22c-62 0 -109 -8 -168 -72v-247c0 -48 24 -51 92 -59v-45h-285v45c44 6 72 11 72 57v326l-67 43v25l159 52h29z" />
    <glyph glyph-name="oslashacute" unicode="&#x1ff;" horiz-adv-x="592" 
d="M503 568l-44 -75c60 -48 95 -124 95 -215c0 -175 -117 -288 -263 -288c-43 0 -82 9 -115 25l-48 -81l-44 25l49 83c-60 48 -95 125 -95 216c0 175 116 288 262 288c43 0 82 -9 116 -26l44 74zM161 283c0 -60 8 -112 25 -152l189 320c-22 24 -51 38 -88 38
c-83 0 -126 -84 -126 -206zM305 48c82 0 125 83 125 205c0 59 -8 110 -25 150l-189 -319c22 -23 52 -36 89 -36zM330 763h136l-152 -167h-57z" />
    <glyph glyph-name="Icircumflex.sc" horiz-adv-x="361" 
d="M224 819l140 -171h-61l-123 96l-123 -96h-61l140 171h88zM322 47v-47h-284v47c59 2 80 12 80 60v386c0 48 -21 57 -80 60v47h284v-47c-58 -3 -80 -12 -80 -60v-386c0 -48 22 -58 80 -60z" />
    <glyph glyph-name="Jcircumflex.sc" horiz-adv-x="513" 
d="M388 819l140 -171h-61l-123 96l-123 -96h-61l140 171h88zM410 493v-312c0 -131 -76 -191 -205 -191c-114 0 -187 46 -187 120c0 31 14 53 32 66h88v-42c0 -58 25 -95 72 -95c50 0 74 39 74 121v333c0 48 -21 57 -78 60v47h284v-47c-58 -3 -80 -12 -80 -60z" />
    <glyph glyph-name="Idieresis.sc" horiz-adv-x="361" 
d="M12 735c0 38 31 69 69 69c39 0 70 -31 70 -69c0 -39 -31 -70 -70 -70c-38 0 -69 31 -69 70zM211 735c0 38 31 69 69 69c39 0 70 -31 70 -69c0 -39 -31 -70 -70 -70c-38 0 -69 31 -69 70zM322 47v-47h-284v47c59 2 80 12 80 60v386c0 48 -21 57 -80 60v47h284v-47
c-58 -3 -80 -12 -80 -60v-386c0 -48 22 -58 80 -60z" />
    <glyph glyph-name="Kcommaaccent.sc" horiz-adv-x="673" 
d="M368 -155h-51c-30 7 -44 26 -44 53c0 33 27 56 69 56c52 0 82 -35 82 -83c0 -61 -37 -107 -141 -107v37c56 0 85 17 85 44zM373 345l185 -234c41 -51 63 -62 101 -65v-46h-154c-27 17 -50 40 -81 82l-172 224l202 186c13 12 22 22 22 36s-9 23 -62 25v47h226v-47
c-39 -1 -59 -13 -85 -37zM322 47v-47h-284v47c59 2 80 12 80 60v386c0 48 -21 57 -80 60v47h284v-47c-57 -3 -79 -12 -79 -60v-386c0 -48 22 -58 79 -60z" />
    <glyph glyph-name="Lacute.sc" horiz-adv-x="575" 
d="M243 493v-384c0 -46 23 -58 78 -58h38c66 0 82 30 142 136h48l-30 -187h-481v47c59 2 80 12 80 60v386c0 48 -21 57 -80 60v47h284v-47c-57 -3 -79 -12 -79 -60zM231 817h136l-152 -167h-57z" />
    <glyph glyph-name="Lcaron.sc" horiz-adv-x="575" 
d="M243 493v-384c0 -46 23 -58 78 -58h38c66 0 82 30 142 136h48l-30 -187h-481v47c59 2 80 12 80 60v386c0 48 -21 57 -80 60v47h284v-47c-57 -3 -79 -12 -79 -60zM522 600l-86 -205h-47l18 205h115z" />
    <glyph glyph-name="Lcommaaccent.sc" horiz-adv-x="575" 
d="M243 493v-384c0 -46 23 -58 78 -58h38c66 0 82 30 142 136h48l-30 -187h-481v47c59 2 80 12 80 60v386c0 48 -21 57 -80 60v47h284v-47c-57 -3 -79 -12 -79 -60zM316 -155h-51c-30 7 -44 26 -44 53c0 33 27 56 69 56c52 0 82 -35 82 -83c0 -61 -37 -107 -141 -107v37
c56 0 85 17 85 44z" />
    <glyph glyph-name="Ldot.sc" horiz-adv-x="575" 
d="M243 493v-384c0 -46 23 -58 78 -58h38c66 0 82 30 142 136h48l-30 -187h-481v47c59 2 80 12 80 60v386c0 48 -21 57 -80 60v47h284v-47c-57 -3 -79 -12 -79 -60zM472 276c-44 0 -76 34 -76 76c0 41 32 75 76 75c45 0 76 -34 76 -75c0 -42 -31 -76 -76 -76z" />
    <glyph glyph-name="Lslash.sc" horiz-adv-x="583" 
d="M252 299v-190c0 -46 23 -58 78 -58h38c66 0 82 30 142 136h48l-30 -187h-481v47c59 2 80 12 80 60v152l-80 -28v52l80 28v182c0 48 -21 57 -80 60v47h284v-47c-57 -3 -79 -12 -79 -60v-142l136 48v-52z" />
    <glyph glyph-name="Nacute.sc" horiz-adv-x="705" 
d="M397 817h136l-152 -167h-57zM118 107v398c-31 37 -43 46 -80 48v47h183l312 -398v291c0 48 -25 57 -83 60v47h226v-47c-58 -3 -80 -12 -80 -60v-493h-52l-362 451v-344c0 -48 25 -58 83 -60v-47h-227v47c59 2 80 12 80 60z" />
    <glyph glyph-name="Ncaron.sc" horiz-adv-x="705" 
d="M546 825l-140 -172h-88l-140 172h61l123 -96l123 96h61zM118 107v398c-31 37 -43 46 -80 48v47h183l312 -398v291c0 48 -25 57 -83 60v47h226v-47c-58 -3 -80 -12 -80 -60v-493h-52l-362 451v-344c0 -48 25 -58 83 -60v-47h-227v47c59 2 80 12 80 60z" />
    <glyph glyph-name="Ntilde.sc" horiz-adv-x="705" 
d="M118 107v398c-31 37 -43 46 -80 48v47h183l312 -398v291c0 48 -25 57 -83 60v47h226v-47c-58 -3 -80 -12 -80 -60v-493h-52l-362 451v-344c0 -48 25 -58 83 -60v-47h-227v47c59 2 80 12 80 60zM508 805l43 -11c-47 -107 -74 -129 -124 -129c-59 0 -104 69 -144 69
c-31 0 -44 -22 -65 -60l-44 10c48 108 74 129 125 129c61 0 103 -68 144 -68c30 0 43 22 65 60z" />
    <glyph glyph-name="Ncommaaccent.sc" horiz-adv-x="705" 
d="M382 -155h-51c-30 7 -44 26 -44 53c0 33 27 56 69 56c52 0 82 -35 82 -83c0 -61 -37 -107 -141 -107v37c56 0 85 17 85 44zM118 107v398c-31 37 -43 46 -80 48v47h183l312 -398v291c0 48 -25 57 -83 60v47h226v-47c-58 -3 -80 -12 -80 -60v-493h-52l-362 451v-344
c0 -48 25 -58 83 -60v-47h-227v47c59 2 80 12 80 60z" />
    <glyph glyph-name="Eng.sc" horiz-adv-x="705" 
d="M495 60l-313 391v-344c0 -48 25 -58 83 -60v-47h-227v47c59 2 80 12 80 60v398c-31 37 -43 46 -80 48v47h183l312 -397v290c0 48 -25 57 -83 60v47h226v-47c-58 -3 -80 -12 -80 -60v-399c0 -81 -9 -124 -38 -165c-32 -48 -76 -77 -126 -106l-24 24l29 36
c43 51 58 98 58 177z" />
    <glyph glyph-name="Idotaccent.sc" horiz-adv-x="361" 
d="M322 47v-47h-284v47c59 2 80 12 80 60v386c0 48 -21 57 -80 60v47h284v-47c-58 -3 -80 -12 -80 -60v-386c0 -48 22 -58 80 -60zM180 661c-44 0 -76 34 -76 76c0 41 32 75 76 75c45 0 76 -34 76 -75c0 -42 -31 -76 -76 -76z" />
    <glyph glyph-name="Oacute.sc" horiz-adv-x="680" 
d="M351 46c103 0 151 108 151 245c0 148 -52 263 -172 263c-104 0 -152 -109 -152 -245c0 -148 52 -263 173 -263zM335 -10c-186 0 -291 139 -291 299c0 196 133 321 301 321c186 0 292 -139 292 -299c0 -196 -134 -321 -302 -321zM377 817h136l-152 -167h-57z" />
    <glyph glyph-name="Igrave.sc" horiz-adv-x="361" 
d="M322 47v-47h-284v47c59 2 80 12 80 60v386c0 48 -21 57 -80 60v47h284v-47c-58 -3 -80 -12 -80 -60v-386c0 -48 22 -58 80 -60zM5 817h137l71 -167h-56z" />
    <glyph glyph-name="Imacron.sc" horiz-adv-x="361" 
d="M322 47v-47h-284v47c59 2 80 12 80 60v386c0 48 -21 57 -80 60v47h284v-47c-58 -3 -80 -12 -80 -60v-386c0 -48 22 -58 80 -60zM42 678v71h276v-71h-276z" />
    <glyph glyph-name="Obreve.sc" horiz-adv-x="680" 
d="M351 46c103 0 151 108 151 245c0 148 -52 263 -172 263c-104 0 -152 -109 -152 -245c0 -148 52 -263 173 -263zM335 -10c-186 0 -291 139 -291 299c0 196 133 321 301 321c186 0 292 -139 292 -299c0 -196 -134 -321 -302 -321zM342 650c-93 0 -146 62 -146 169h48
c7 -69 50 -95 98 -95c49 0 92 26 99 95h48c0 -107 -53 -169 -147 -169z" />
    <glyph glyph-name="Ocircumflex.sc" horiz-adv-x="680" 
d="M387 819l140 -171h-61l-123 96l-123 -96h-61l140 171h88zM351 46c103 0 151 108 151 245c0 148 -52 263 -172 263c-104 0 -152 -109 -152 -245c0 -148 52 -263 173 -263zM335 -10c-186 0 -291 139 -291 299c0 196 133 321 301 321c186 0 292 -139 292 -299
c0 -196 -134 -321 -302 -321z" />
    <glyph glyph-name="Odieresis.sc" horiz-adv-x="680" 
d="M174 735c0 38 31 69 69 69c39 0 70 -31 70 -69c0 -39 -31 -70 -70 -70c-38 0 -69 31 -69 70zM373 735c0 38 31 69 69 69c39 0 70 -31 70 -69c0 -39 -31 -70 -70 -70c-38 0 -69 31 -69 70zM351 46c103 0 151 108 151 245c0 148 -52 263 -172 263
c-104 0 -152 -109 -152 -245c0 -148 52 -263 173 -263zM335 -10c-186 0 -291 139 -291 299c0 196 133 321 301 321c186 0 292 -139 292 -299c0 -196 -134 -321 -302 -321z" />
    <glyph glyph-name="Ograve.sc" horiz-adv-x="680" 
d="M351 46c103 0 151 108 151 245c0 148 -52 263 -172 263c-104 0 -152 -109 -152 -245c0 -148 52 -263 173 -263zM335 -10c-186 0 -291 139 -291 299c0 196 133 321 301 321c186 0 292 -139 292 -299c0 -196 -134 -321 -302 -321zM168 817h137l71 -167h-56z" />
    <glyph glyph-name="Ohungarumlaut.sc" horiz-adv-x="680" 
d="M351 46c103 0 151 108 151 245c0 148 -52 263 -172 263c-104 0 -152 -109 -152 -245c0 -148 52 -263 173 -263zM335 -10c-186 0 -291 139 -291 299c0 196 133 321 301 321c186 0 292 -139 292 -299c0 -196 -134 -321 -302 -321zM296 817h118l-131 -167h-54zM459 817h119
l-132 -167h-54z" />
    <glyph glyph-name="Omacron.sc" horiz-adv-x="680" 
d="M351 46c103 0 151 108 151 245c0 148 -52 263 -172 263c-104 0 -152 -109 -152 -245c0 -148 52 -263 173 -263zM335 -10c-186 0 -291 139 -291 299c0 196 133 321 301 321c186 0 292 -139 292 -299c0 -196 -134 -321 -302 -321zM205 678v71h276v-71h-276z" />
    <glyph glyph-name="Oslash.sc" horiz-adv-x="680" 
d="M335 -10c-59 0 -110 14 -152 38l-64 -92l-41 28l65 92c-65 56 -99 141 -99 233c0 196 133 321 301 321c62 0 115 -16 158 -42l57 81l41 -28l-58 -83c61 -55 94 -138 94 -227c0 -196 -134 -321 -302 -321zM178 309c0 -63 9 -119 28 -163l245 348c-28 38 -68 60 -121 60
c-104 0 -152 -109 -152 -245zM351 46c103 0 152 108 152 245c0 59 -8 112 -25 155l-244 -347c27 -33 66 -53 117 -53z" />
    <glyph glyph-name="Oslashacute.sc" horiz-adv-x="680" 
d="M335 -10c-59 0 -110 14 -152 38l-64 -92l-41 28l65 92c-65 56 -99 141 -99 233c0 196 133 321 301 321c62 0 115 -16 158 -42l57 81l41 -28l-58 -83c61 -55 94 -138 94 -227c0 -196 -134 -321 -302 -321zM178 309c0 -63 9 -119 28 -163l245 348c-28 38 -68 60 -121 60
c-104 0 -152 -109 -152 -245zM351 46c103 0 152 108 152 245c0 59 -8 112 -25 155l-244 -347c27 -33 66 -53 117 -53zM377 817h136l-152 -167h-57z" />
    <glyph glyph-name="Otilde.sc" horiz-adv-x="680" 
d="M351 46c103 0 151 108 151 245c0 148 -52 263 -172 263c-104 0 -152 -109 -152 -245c0 -148 52 -263 173 -263zM335 -10c-186 0 -291 139 -291 299c0 196 133 321 301 321c186 0 292 -139 292 -299c0 -196 -134 -321 -302 -321zM491 805l43 -11
c-47 -107 -74 -129 -124 -129c-59 0 -104 69 -144 69c-31 0 -44 -22 -65 -60l-44 10c48 108 74 129 125 129c61 0 103 -68 144 -68c30 0 43 22 65 60z" />
    <glyph glyph-name="OE.sc" horiz-adv-x="919" 
d="M853 0h-469c-227 0 -340 119 -340 288c0 199 140 312 326 312h479v-154h-44c-29 71 -53 103 -123 103h-130v-215h111c39 0 54 20 63 71h42v-194h-42c-9 51 -24 72 -63 72h-111v-175c0 -46 25 -58 79 -58h59c70 0 91 29 146 117h44zM429 50v499h-56
c-117 0 -194 -82 -194 -248c0 -140 69 -251 225 -251h25z" />
    <glyph glyph-name="Racute.sc" horiz-adv-x="657" 
d="M346 817h136l-152 -167h-57zM285 549h-44v-246h45c99 0 145 40 145 125c0 74 -48 121 -146 121zM320 0h-282v47c59 2 80 12 80 60v386c0 48 -21 57 -80 60v47h290c160 0 231 -68 231 -171c0 -90 -73 -142 -149 -155l125 -166c29 -41 58 -60 104 -61v-47h-156
c-29 21 -50 45 -76 85l-119 172h-47v-150c0 -48 22 -58 79 -60v-47z" />
    <glyph glyph-name="Rcaron.sc" horiz-adv-x="657" 
d="M496 825l-140 -172h-88l-140 172h61l123 -96l123 96h61zM285 549h-44v-246h45c99 0 145 40 145 125c0 74 -48 121 -146 121zM320 0h-282v47c59 2 80 12 80 60v386c0 48 -21 57 -80 60v47h290c160 0 231 -68 231 -171c0 -90 -73 -142 -149 -155l125 -166
c29 -41 58 -60 104 -61v-47h-156c-29 21 -50 45 -76 85l-119 172h-47v-150c0 -48 22 -58 79 -60v-47z" />
    <glyph glyph-name="Iogonek.sc" horiz-adv-x="361" 
d="M322 47v-47h-69c-57 -27 -104 -61 -104 -106c0 -24 16 -42 48 -42c28 0 54 9 85 31l14 -20c-33 -39 -78 -75 -134 -75c-52 0 -92 30 -92 83c0 59 50 99 112 129h-144v47c59 2 80 12 80 60v386c0 48 -21 57 -80 60v47h284v-47c-58 -3 -80 -12 -80 -60v-386
c0 -48 22 -58 80 -60z" />
    <glyph glyph-name="Rcommaaccent.sc" horiz-adv-x="657" 
d="M357 -155h-51c-30 7 -44 26 -44 53c0 33 27 56 69 56c52 0 82 -35 82 -83c0 -61 -37 -107 -141 -107v37c56 0 85 17 85 44zM285 549h-44v-246h45c99 0 145 40 145 125c0 74 -48 121 -146 121zM320 0h-282v47c59 2 80 12 80 60v386c0 48 -21 57 -80 60v47h290
c160 0 231 -68 231 -171c0 -90 -73 -142 -149 -155l125 -166c29 -41 58 -60 104 -61v-47h-156c-29 21 -50 45 -76 85l-119 172h-47v-150c0 -48 22 -58 79 -60v-47z" />
    <glyph glyph-name="Sacute.sc" horiz-adv-x="528" 
d="M303 817h136l-152 -167h-57zM253 -10c-85 0 -159 27 -200 59l-7 141h57c24 -93 73 -148 158 -148c69 0 114 31 114 92c0 50 -34 74 -135 106c-124 38 -187 85 -187 189c0 108 80 181 205 181c77 0 144 -23 189 -54v-130h-50c-21 76 -63 133 -145 133
c-66 0 -99 -36 -99 -84c0 -53 30 -76 131 -107c128 -38 196 -86 196 -195c0 -123 -103 -183 -227 -183z" />
    <glyph glyph-name="Itilde.sc" horiz-adv-x="361" 
d="M320 803l44 -10c-48 -107 -75 -129 -125 -129c-55 0 -89 69 -124 69c-30 0 -44 -23 -65 -60l-44 10c48 107 74 129 125 129c59 0 90 -68 124 -68c30 0 44 21 65 59zM322 47v-47h-284v47c59 2 80 12 80 60v386c0 48 -21 57 -80 60v47h284v-47c-58 -3 -80 -12 -80 -60v-386
c0 -48 22 -58 80 -60z" />
    <glyph glyph-name="Scaron.sc" horiz-adv-x="528" 
d="M449 825l-140 -172h-88l-140 172h61l123 -96l123 96h61zM253 -10c-85 0 -159 27 -200 59l-7 141h57c24 -93 73 -148 158 -148c69 0 114 31 114 92c0 50 -34 74 -135 106c-124 38 -187 85 -187 189c0 108 80 181 205 181c77 0 144 -23 189 -54v-130h-50
c-21 76 -63 133 -145 133c-66 0 -99 -36 -99 -84c0 -53 30 -76 131 -107c128 -38 196 -86 196 -195c0 -123 -103 -183 -227 -183z" />
    <glyph glyph-name="Scedilla.sc" horiz-adv-x="528" 
d="M159 -225l-8 38c72 0 116 14 116 44c0 29 -35 40 -90 42l37 93c-68 6 -127 30 -161 57l-7 141h57c24 -93 73 -148 158 -148c69 0 114 31 114 92c0 50 -34 74 -135 106c-124 38 -187 85 -187 189c0 108 80 181 205 181c77 0 144 -23 189 -54v-130h-50
c-21 76 -63 133 -145 133c-66 0 -99 -36 -99 -84c0 -53 30 -76 131 -107c128 -38 196 -86 196 -195c0 -123 -103 -183 -227 -183h-1l-14 -37c64 -2 105 -23 105 -75c0 -70 -84 -103 -184 -103z" />
    <glyph glyph-name="Scircumflex.sc" horiz-adv-x="528" 
d="M308 819l140 -171h-61l-123 96l-123 -96h-61l140 171h88zM253 -10c-85 0 -159 27 -200 59l-7 141h57c24 -93 73 -148 158 -148c69 0 114 31 114 92c0 50 -34 74 -135 106c-124 38 -187 85 -187 189c0 108 80 181 205 181c77 0 144 -23 189 -54v-130h-50
c-21 76 -63 133 -145 133c-66 0 -99 -36 -99 -84c0 -53 30 -76 131 -107c128 -38 196 -86 196 -195c0 -123 -103 -183 -227 -183z" />
    <glyph glyph-name="Scommaaccent.sc" horiz-adv-x="528" 
d="M287 -155h-51c-30 7 -44 26 -44 53c0 33 27 56 69 56c52 0 82 -35 82 -83c0 -61 -37 -107 -141 -107v37c56 0 85 17 85 44zM253 -10c-85 0 -159 27 -200 59l-7 141h57c24 -93 73 -148 158 -148c69 0 114 31 114 92c0 50 -34 74 -135 106c-124 38 -187 85 -187 189
c0 108 80 181 205 181c77 0 144 -23 189 -54v-130h-50c-21 76 -63 133 -145 133c-66 0 -99 -36 -99 -84c0 -53 30 -76 131 -107c128 -38 196 -86 196 -195c0 -123 -103 -183 -227 -183z" />
    <glyph glyph-name="Tbar.sc" horiz-adv-x="638" 
d="M43 600h552l14 -192h-46c-46 106 -60 143 -135 143h-47v-220h105v-51h-105v-173c0 -48 27 -58 85 -60v-47h-294v47c59 2 86 12 86 60v173h-105v51h105v220h-47c-75 0 -89 -37 -135 -143h-46z" />
    <glyph glyph-name="Tcaron.sc" horiz-adv-x="638" 
d="M43 600h552l14 -192h-46c-46 106 -60 143 -135 143h-47v-444c0 -48 27 -58 85 -60v-47h-294v47c59 2 86 12 86 60v444h-47c-75 0 -89 -37 -135 -143h-46zM503 825l-140 -172h-88l-140 172h61l123 -96l123 96h61z" />
    <glyph glyph-name="Tcedilla.sc" horiz-adv-x="638" 
d="M43 600h552l14 -192h-46c-46 106 -60 143 -135 143h-47v-444c0 -48 27 -58 85 -60v-47h-294v47c59 2 86 12 86 60v444h-47c-75 0 -89 -37 -135 -143h-46zM339 -155h-51c-30 7 -44 26 -44 53c0 33 27 56 69 56c52 0 82 -35 82 -83c0 -61 -37 -107 -141 -107v37
c56 0 85 17 85 44z" />
    <glyph glyph-name="Uacute.sc" horiz-adv-x="691" 
d="M404 817h136l-152 -167h-57zM227 493v-274c0 -98 44 -156 138 -156c100 0 161 40 161 163v267c0 48 -26 57 -84 60v47h228v-47c-57 -3 -79 -12 -79 -60v-288c0 -146 -109 -215 -238 -215c-156 0 -252 70 -252 216v287c0 48 -22 57 -79 60v47h283v-47
c-57 -3 -78 -12 -78 -60z" />
    <glyph glyph-name="Ubreve.sc" horiz-adv-x="691" 
d="M227 493v-274c0 -98 44 -156 138 -156c100 0 161 40 161 163v267c0 48 -26 57 -84 60v47h228v-47c-57 -3 -79 -12 -79 -60v-288c0 -146 -109 -215 -238 -215c-156 0 -252 70 -252 216v287c0 48 -22 57 -79 60v47h283v-47c-57 -3 -78 -12 -78 -60zM367 650
c-93 0 -146 62 -146 169h48c7 -69 50 -95 98 -95c49 0 92 26 99 95h48c0 -107 -53 -169 -147 -169z" />
    <glyph glyph-name="Ucircumflex.sc" horiz-adv-x="691" 
d="M411 819l140 -171h-61l-123 96l-123 -96h-61l140 171h88zM227 493v-274c0 -98 44 -156 138 -156c100 0 161 40 161 163v267c0 48 -26 57 -84 60v47h228v-47c-57 -3 -79 -12 -79 -60v-288c0 -146 -109 -215 -238 -215c-156 0 -252 70 -252 216v287c0 48 -22 57 -79 60v47
h283v-47c-57 -3 -78 -12 -78 -60z" />
    <glyph glyph-name="Udieresis.sc" horiz-adv-x="691" 
d="M198 735c0 38 31 69 69 69c39 0 70 -31 70 -69c0 -39 -31 -70 -70 -70c-38 0 -69 31 -69 70zM397 735c0 38 31 69 69 69c39 0 70 -31 70 -69c0 -39 -31 -70 -70 -70c-38 0 -69 31 -69 70zM227 493v-274c0 -98 44 -156 138 -156c100 0 161 40 161 163v267
c0 48 -26 57 -84 60v47h228v-47c-57 -3 -79 -12 -79 -60v-288c0 -146 -109 -215 -238 -215c-156 0 -252 70 -252 216v287c0 48 -22 57 -79 60v47h283v-47c-57 -3 -78 -12 -78 -60z" />
    <glyph glyph-name="Ugrave.sc" horiz-adv-x="691" 
d="M195 817h137l71 -167h-56zM227 493v-274c0 -98 44 -156 138 -156c100 0 161 40 161 163v267c0 48 -26 57 -84 60v47h228v-47c-57 -3 -79 -12 -79 -60v-288c0 -146 -109 -215 -238 -215c-156 0 -252 70 -252 216v287c0 48 -22 57 -79 60v47h283v-47
c-57 -3 -78 -12 -78 -60z" />
    <glyph glyph-name="IJ.sc" horiz-adv-x="851" 
d="M322 47v-47h-284v47c59 2 80 12 80 60v386c0 48 -21 57 -80 60v47h284v-47c-58 -3 -80 -12 -80 -60v-386c0 -48 22 -58 80 -60zM748 493v-312c0 -131 -76 -191 -205 -191c-114 0 -187 46 -187 120c0 31 14 53 32 66h88v-42c0 -58 25 -95 72 -95c50 0 74 39 74 121v333
c0 48 -21 57 -78 60v47h284v-47c-58 -3 -80 -12 -80 -60z" />
    <glyph glyph-name="Uhungarumlaut.sc" horiz-adv-x="691" 
d="M323 817h118l-131 -167h-54zM486 817h119l-132 -167h-54zM227 493v-274c0 -98 44 -156 138 -156c100 0 161 40 161 163v267c0 48 -26 57 -84 60v47h228v-47c-57 -3 -79 -12 -79 -60v-288c0 -146 -109 -215 -238 -215c-156 0 -252 70 -252 216v287c0 48 -22 57 -79 60v47
h283v-47c-57 -3 -78 -12 -78 -60z" />
    <glyph glyph-name="Umacron.sc" horiz-adv-x="691" 
d="M229 678v71h276v-71h-276zM227 493v-274c0 -98 44 -156 138 -156c100 0 161 40 161 163v267c0 48 -26 57 -84 60v47h228v-47c-57 -3 -79 -12 -79 -60v-288c0 -146 -109 -215 -238 -215c-156 0 -252 70 -252 216v287c0 48 -22 57 -79 60v47h283v-47
c-57 -3 -78 -12 -78 -60z" />
    <glyph glyph-name="Uogonek.sc" horiz-adv-x="691" 
d="M227 493v-274c0 -98 44 -156 138 -156c100 0 161 40 161 163v267c0 48 -26 57 -84 60v47h228v-47c-57 -3 -79 -12 -79 -60v-288c0 -108 -59 -173 -142 -200c-56 -27 -103 -61 -103 -106c0 -24 16 -41 48 -41c28 0 54 8 85 30l14 -20c-33 -38 -78 -74 -134 -74
c-52 0 -92 30 -92 82c0 50 35 86 84 114c-155 1 -250 70 -250 216v287c0 48 -22 57 -79 60v47h283v-47c-57 -3 -78 -12 -78 -60z" />
    <glyph glyph-name="Uring.sc" horiz-adv-x="691" 
d="M271 739c0 53 41 94 99 94c59 0 99 -41 99 -94c0 -54 -40 -94 -99 -94c-58 0 -99 40 -99 94zM420 739c0 29 -17 51 -50 51c-32 0 -49 -22 -49 -51s17 -51 49 -51c33 0 50 22 50 51zM227 493v-274c0 -98 44 -156 138 -156c100 0 161 40 161 163v267c0 48 -26 57 -84 60v47
h228v-47c-57 -3 -79 -12 -79 -60v-288c0 -146 -109 -215 -238 -215c-156 0 -252 70 -252 216v287c0 48 -22 57 -79 60v47h283v-47c-57 -3 -78 -12 -78 -60z" />
    <glyph glyph-name="Utilde.sc" horiz-adv-x="691" 
d="M227 493v-274c0 -98 44 -156 138 -156c100 0 161 40 161 163v267c0 48 -26 57 -84 60v47h228v-47c-57 -3 -79 -12 -79 -60v-288c0 -146 -109 -215 -238 -215c-156 0 -252 70 -252 216v287c0 48 -22 57 -79 60v47h283v-47c-57 -3 -78 -12 -78 -60zM513 805l43 -11
c-47 -107 -74 -129 -124 -129c-59 0 -104 69 -144 69c-31 0 -44 -22 -65 -60l-44 10c48 108 74 129 125 129c61 0 103 -68 144 -68c30 0 43 22 65 60z" />
    <glyph glyph-name="Wcircumflex.sc" horiz-adv-x="876" 
d="M498 819l140 -171h-61l-123 96l-123 -96h-61l140 171h88zM619 174l109 299c7 19 11 33 11 42c0 26 -15 35 -71 38v47h194v-47c-24 -4 -43 -8 -52 -32l-199 -527h-39l-127 348l-130 -348h-40l-210 527c-9 22 -28 28 -51 32v47h257v-47c-50 -3 -68 -13 -68 -38
c0 -9 4 -22 10 -38l114 -306l90 250l-35 100c-9 23 -25 28 -49 32v47h247v-47c-57 -3 -72 -12 -72 -38c0 -9 3 -21 10 -43z" />
    <glyph glyph-name="Wacute.sc" horiz-adv-x="876" 
d="M619 174l109 299c7 19 11 33 11 42c0 26 -15 35 -71 38v47h194v-47c-24 -4 -43 -8 -52 -32l-199 -527h-39l-127 348l-130 -348h-40l-210 527c-9 22 -28 28 -51 32v47h257v-47c-50 -3 -68 -13 -68 -38c0 -9 4 -22 10 -38l114 -306l90 250l-35 100c-9 23 -25 28 -49 32v47
h247v-47c-57 -3 -72 -12 -72 -38c0 -9 3 -21 10 -43zM486 817h136l-152 -167h-57z" />
    <glyph glyph-name="Wgrave.sc" horiz-adv-x="876" 
d="M619 174l109 299c7 19 11 33 11 42c0 26 -15 35 -71 38v47h194v-47c-24 -4 -43 -8 -52 -32l-199 -527h-39l-127 348l-130 -348h-40l-210 527c-9 22 -28 28 -51 32v47h257v-47c-50 -3 -68 -13 -68 -38c0 -9 4 -22 10 -38l114 -306l90 250l-35 100c-9 23 -25 28 -49 32v47
h247v-47c-57 -3 -72 -12 -72 -38c0 -9 3 -21 10 -43zM276 817h137l71 -167h-56z" />
    <glyph glyph-name="Wdieresis.sc" horiz-adv-x="876" 
d="M283 735c0 38 31 69 69 69c39 0 70 -31 70 -69c0 -39 -31 -70 -70 -70c-38 0 -69 31 -69 70zM482 735c0 38 31 69 69 69c39 0 70 -31 70 -69c0 -39 -31 -70 -70 -70c-38 0 -69 31 -69 70zM619 174l109 299c7 19 11 33 11 42c0 26 -15 35 -71 38v47h194v-47
c-24 -4 -43 -8 -52 -32l-199 -527h-39l-127 348l-130 -348h-40l-210 527c-9 22 -28 28 -51 32v47h257v-47c-50 -3 -68 -13 -68 -38c0 -9 4 -22 10 -38l114 -306l90 250l-35 100c-9 23 -25 28 -49 32v47h247v-47c-57 -3 -72 -12 -72 -38c0 -9 3 -21 10 -43z" />
    <glyph glyph-name="Ygrave.sc" horiz-adv-x="612" 
d="M337 289l114 185c12 19 18 33 18 46c0 23 -18 31 -69 33v47h198v-47c-25 -4 -39 -10 -52 -32l-180 -291v-123c0 -48 24 -58 81 -60v-47h-282v47c58 2 82 12 82 60v123l-182 291c-13 23 -27 28 -51 32v47h263v-47c-54 -2 -69 -10 -69 -33c0 -15 6 -28 17 -46zM150 817h137
l71 -167h-56z" />
    <glyph glyph-name="Yacute.sc" horiz-adv-x="612" 
d="M366 817h136l-152 -167h-57zM337 289l114 185c12 19 18 33 18 46c0 23 -18 31 -69 33v47h198v-47c-25 -4 -39 -10 -52 -32l-180 -291v-123c0 -48 24 -58 81 -60v-47h-282v47c58 2 82 12 82 60v123l-182 291c-13 23 -27 28 -51 32v47h263v-47c-54 -2 -69 -10 -69 -33
c0 -15 6 -28 17 -46z" />
    <glyph glyph-name="Ycircumflex.sc" horiz-adv-x="612" 
d="M369 819l140 -171h-61l-123 96l-123 -96h-61l140 171h88zM337 289l114 185c12 19 18 33 18 46c0 23 -18 31 -69 33v47h198v-47c-25 -4 -39 -10 -52 -32l-180 -291v-123c0 -48 24 -58 81 -60v-47h-282v47c58 2 82 12 82 60v123l-182 291c-13 23 -27 28 -51 32v47h263v-47
c-54 -2 -69 -10 -69 -33c0 -15 6 -28 17 -46z" />
    <glyph glyph-name="Ydieresis.sc" horiz-adv-x="612" 
d="M154 735c0 38 31 69 69 69c39 0 70 -31 70 -69c0 -39 -31 -70 -70 -70c-38 0 -69 31 -69 70zM353 735c0 38 31 69 69 69c39 0 70 -31 70 -69c0 -39 -31 -70 -70 -70c-38 0 -69 31 -69 70zM337 289l114 185c12 19 18 33 18 46c0 23 -18 31 -69 33v47h198v-47
c-25 -4 -39 -10 -52 -32l-180 -291v-123c0 -48 24 -58 81 -60v-47h-282v47c58 2 82 12 82 60v123l-182 291c-13 23 -27 28 -51 32v47h263v-47c-54 -2 -69 -10 -69 -33c0 -15 6 -28 17 -46z" />
    <glyph glyph-name="Zacute.sc" horiz-adv-x="572" 
d="M339 817h136l-152 -167h-57zM185 52h167c70 0 90 28 146 133h45l-29 -185h-484v32l348 515h-156c-70 0 -82 -36 -120 -116h-42v169h468v-33z" />
    <glyph glyph-name="Zcaron.sc" horiz-adv-x="572" 
d="M489 825l-140 -172h-88l-140 172h61l123 -96l123 96h61zM185 52h167c70 0 90 28 146 133h45l-29 -185h-484v32l348 515h-156c-70 0 -82 -36 -120 -116h-42v169h468v-33z" />
    <glyph glyph-name="Zdotaccent.sc" horiz-adv-x="572" 
d="M185 52h167c70 0 90 28 146 133h45l-29 -185h-484v32l348 515h-156c-70 0 -82 -36 -120 -116h-42v169h468v-33zM305 661c-44 0 -76 34 -76 76c0 41 32 75 76 75c45 0 76 -34 76 -75c0 -42 -31 -76 -76 -76z" />
    <glyph glyph-name="Thorn.sc" horiz-adv-x="585" 
d="M242 423v-243h44c92 0 143 34 143 122c0 79 -54 121 -145 121h-42zM242 473h72c169 0 244 -73 244 -169c0 -110 -79 -172 -235 -172h-81v-25c0 -48 37 -57 108 -60v-47h-312v47c59 2 80 12 80 60v386c0 48 -21 57 -80 60v47h284v-47c-58 -3 -80 -12 -80 -60v-20z" />
    <glyph glyph-name="aringacute" unicode="&#x1fb;" horiz-adv-x="552" 
d="M168 656c0 50 43 83 105 83s105 -33 105 -83s-43 -83 -105 -83s-105 33 -105 83zM327 656c0 27 -19 45 -54 45s-54 -18 -54 -45s19 -45 54 -45s54 18 54 45zM296 874h138l-131 -107h-54zM237 73c39 0 66 11 100 35v175l-117 -45c-37 -14 -58 -41 -58 -79
c0 -55 27 -86 75 -86zM458 363c0 -24 -3 -201 -3 -232c0 -40 13 -63 41 -63c9 0 31 2 46 6l6 -32c-34 -34 -72 -52 -114 -52c-53 0 -82 37 -94 91c-35 -42 -89 -90 -165 -90c-89 0 -135 60 -135 137c0 92 71 124 138 147l159 57v53c0 65 -20 109 -86 109
c-49 0 -73 -24 -73 -70c0 -19 2 -36 7 -57l-88 -13c-19 13 -28 32 -28 59c0 87 85 133 200 133c123 0 189 -55 189 -183z" />
    <glyph glyph-name="amacron" unicode="&#x101;" horiz-adv-x="552" 
d="M237 73c39 0 66 11 100 35v175l-117 -45c-37 -14 -58 -41 -58 -79c0 -55 27 -86 75 -86zM458 363c0 -24 -3 -201 -3 -232c0 -40 13 -63 41 -63c9 0 31 2 46 6l6 -32c-34 -34 -72 -52 -114 -52c-53 0 -82 37 -94 91c-35 -42 -89 -90 -165 -90c-89 0 -135 60 -135 137
c0 92 71 124 138 147l159 57v53c0 65 -20 109 -86 109c-49 0 -73 -24 -73 -70c0 -19 2 -36 7 -57l-88 -13c-19 13 -28 32 -28 59c0 87 85 133 200 133c123 0 189 -55 189 -183zM134 624v71h276v-71h-276z" />
    <glyph glyph-name="abreve" unicode="&#x103;" horiz-adv-x="552" 
d="M237 73c39 0 66 11 100 35v175l-117 -45c-37 -14 -58 -41 -58 -79c0 -55 27 -86 75 -86zM458 363c0 -24 -3 -201 -3 -232c0 -40 13 -63 41 -63c9 0 31 2 46 6l6 -32c-34 -34 -72 -52 -114 -52c-53 0 -82 37 -94 91c-35 -42 -89 -90 -165 -90c-89 0 -135 60 -135 137
c0 92 71 124 138 147l159 57v53c0 65 -20 109 -86 109c-49 0 -73 -24 -73 -70c0 -19 2 -36 7 -57l-88 -13c-19 13 -28 32 -28 59c0 87 85 133 200 133c123 0 189 -55 189 -183zM268 596c-93 0 -146 62 -146 169h48c7 -69 50 -95 98 -95c49 0 92 26 99 95h48
c0 -107 -53 -169 -147 -169z" />
    <glyph glyph-name="aogonek" unicode="&#x105;" horiz-adv-x="552" 
d="M458 363c0 -24 -3 -201 -3 -232c0 -40 13 -63 41 -63c9 0 31 2 46 6l6 -32c-80 -47 -172 -83 -172 -148c0 -24 15 -42 47 -42c28 0 54 9 85 31l14 -20c-33 -39 -78 -75 -134 -75c-51 0 -92 30 -92 83c0 57 46 97 106 127c-33 11 -54 41 -62 83c-35 -42 -89 -90 -165 -90
c-89 0 -135 60 -135 137c0 92 71 124 138 147l159 57v53c0 65 -20 109 -86 109c-49 0 -73 -24 -73 -70c0 -19 2 -36 7 -57l-88 -13c-19 13 -28 32 -28 59c0 87 85 133 200 133c123 0 189 -55 189 -183zM237 73c39 0 66 11 100 35v175l-117 -45c-37 -14 -58 -41 -58 -79
c0 -55 27 -86 75 -86z" />
    <glyph glyph-name="aeacute" unicode="&#x1fd;" horiz-adv-x="837" 
d="M591 546c136 0 207 -96 207 -225v-33h-349c0 -121 68 -202 174 -202c72 0 118 33 154 81l22 -13c-24 -97 -101 -164 -218 -164c-91 0 -161 42 -201 109c-53 -71 -117 -108 -195 -108c-91 0 -145 62 -145 137c0 92 73 124 142 144l166 48c2 13 5 26 8 38
c-3 72 -28 136 -105 136c-49 0 -73 -24 -73 -70c0 -19 2 -36 7 -57l-88 -13c-19 13 -28 32 -28 59c0 87 85 133 192 133c80 0 132 -25 160 -73c44 46 103 73 170 73zM342 251v18l-120 -36c-38 -11 -60 -38 -60 -80c0 -48 27 -80 75 -80c52 0 95 21 132 49
c-18 38 -27 81 -27 129zM576 491c-73 0 -116 -72 -123 -153h232c0 92 -36 153 -109 153zM460 763h136l-152 -167h-57z" />
    <glyph glyph-name="cacute" unicode="&#x107;" horiz-adv-x="517" 
d="M324 763h136l-152 -167h-57zM148 300c0 -128 59 -214 168 -214c65 0 110 29 147 81l23 -14c-31 -111 -107 -163 -213 -163c-140 0 -235 106 -235 260c0 163 105 296 265 296c105 0 177 -48 177 -130c0 -37 -18 -55 -41 -65h-65v39c0 57 -24 100 -84 100
c-83 0 -142 -78 -142 -190z" />
    <glyph glyph-name="ccircumflex" unicode="&#x109;" horiz-adv-x="517" 
d="M333 765l140 -171h-61l-123 96l-123 -96h-61l140 171h88zM148 300c0 -128 59 -214 168 -214c65 0 110 29 147 81l23 -14c-31 -111 -107 -163 -213 -163c-140 0 -235 106 -235 260c0 163 105 296 265 296c105 0 177 -48 177 -130c0 -37 -18 -55 -41 -65h-65v39
c0 57 -24 100 -84 100c-83 0 -142 -78 -142 -190z" />
    <glyph glyph-name="ccaron" unicode="&#x10d;" horiz-adv-x="517" 
d="M473 771l-140 -172h-88l-140 172h61l123 -96l123 96h61zM148 300c0 -128 59 -214 168 -214c65 0 110 29 147 81l23 -14c-31 -111 -107 -163 -213 -163c-140 0 -235 106 -235 260c0 163 105 296 265 296c105 0 177 -48 177 -130c0 -37 -18 -55 -41 -65h-65v39
c0 57 -24 100 -84 100c-83 0 -142 -78 -142 -190z" />
    <glyph glyph-name="cdotaccent" unicode="&#x10b;" horiz-adv-x="517" 
d="M148 300c0 -128 59 -214 168 -214c65 0 110 29 147 81l23 -14c-31 -111 -107 -163 -213 -163c-140 0 -235 106 -235 260c0 163 105 296 265 296c105 0 177 -48 177 -130c0 -37 -18 -55 -41 -65h-65v39c0 57 -24 100 -84 100c-83 0 -142 -78 -142 -190zM289 607
c-44 0 -76 34 -76 76c0 41 32 75 76 75c45 0 76 -34 76 -75c0 -42 -31 -76 -76 -76z" />
    <glyph glyph-name="dcaron" unicode="&#x10f;" horiz-adv-x="647" 
d="M749 763l-86 -205h-47l18 205h115zM414 -10v92c-38 -55 -88 -92 -165 -92c-132 0 -211 106 -211 252c0 188 114 302 261 302c49 0 93 -17 115 -46v148l-68 43v25l162 47h27v-642c0 -34 10 -44 51 -48l25 -2v-45l-175 -34h-22zM303 492c-88 0 -143 -85 -143 -208
c0 -116 48 -211 146 -211c41 0 82 15 108 39v253c0 86 -41 127 -111 127z" />
    <glyph glyph-name="dcroat" unicode="&#x111;" horiz-adv-x="641" 
d="M611 582h-76v-463c0 -34 10 -44 51 -48l25 -2v-45l-175 -34h-22v92c-38 -55 -88 -92 -165 -92c-132 0 -211 106 -211 252c0 188 117 289 256 289c52 0 99 -19 120 -48v99h-137v43h137v62h-68v33l162 41h27v-136h76v-43zM303 479c-88 0 -143 -72 -143 -195
c0 -116 48 -211 146 -211c41 0 82 15 108 39v240c0 87 -41 127 -111 127z" />
    <glyph glyph-name="ecaron" unicode="&#x11b;" horiz-adv-x="534" 
d="M467 771l-140 -172h-88l-140 172h61l123 -96l123 96h61zM288 546c136 0 207 -96 207 -225v-33h-349c0 -121 68 -202 174 -202c71 0 118 33 154 81l22 -13c-25 -97 -101 -164 -218 -164c-147 0 -240 111 -240 261c0 177 108 295 250 295zM272 491
c-72 0 -115 -71 -123 -152h233c0 92 -37 152 -110 152z" />
    <glyph glyph-name="emacron" unicode="&#x113;" horiz-adv-x="534" 
d="M288 546c136 0 207 -96 207 -225v-33h-349c0 -121 68 -202 174 -202c71 0 118 33 154 81l22 -13c-25 -97 -101 -164 -218 -164c-147 0 -240 111 -240 261c0 177 108 295 250 295zM272 491c-72 0 -115 -71 -123 -152h233c0 92 -37 152 -110 152zM144 624v71h276v-71h-276z
" />
    <glyph glyph-name="edotaccent" unicode="&#x117;" horiz-adv-x="534" 
d="M288 546c136 0 207 -96 207 -225v-33h-349c0 -121 68 -202 174 -202c71 0 118 33 154 81l22 -13c-25 -97 -101 -164 -218 -164c-147 0 -240 111 -240 261c0 177 108 295 250 295zM272 491c-72 0 -115 -71 -123 -152h233c0 92 -37 152 -110 152zM281 607
c-44 0 -76 34 -76 76c0 41 32 75 76 75c45 0 76 -34 76 -75c0 -42 -31 -76 -76 -76z" />
    <glyph glyph-name="eogonek" unicode="&#x119;" horiz-adv-x="534" 
d="M288 546c136 0 207 -96 207 -225v-33h-349c0 -121 68 -202 174 -202c71 0 118 33 154 81l22 -13c-18 -69 -62 -124 -129 -149c-55 -27 -99 -67 -99 -111c0 -24 16 -42 47 -42c29 0 55 9 86 31l14 -20c-33 -39 -78 -75 -135 -75c-51 0 -91 30 -91 83c0 50 35 89 83 119
c-143 3 -234 113 -234 261c0 177 108 295 250 295zM272 491c-72 0 -115 -71 -123 -152h233c0 92 -37 152 -110 152z" />
    <glyph glyph-name="gcircumflex" unicode="&#x11d;" horiz-adv-x="560" 
d="M264 191c-33 0 -66 5 -96 15c-27 -28 -37 -45 -37 -65c0 -21 12 -29 33 -29h231c98 0 153 -40 153 -127c0 -117 -122 -192 -297 -192c-147 0 -234 40 -234 122c0 54 47 80 92 97c-40 15 -62 41 -62 83c0 50 40 88 96 123c-53 27 -90 74 -90 144c0 114 91 184 215 184
c37 0 68 -7 93 -16l182 11v-75h-39l-95 21v-6c40 -23 69 -63 69 -115c0 -107 -87 -175 -214 -175zM376 -2h-248c-15 -15 -20 -34 -20 -53c0 -71 64 -100 157 -100c107 0 185 32 185 101c0 42 -28 52 -74 52zM273 236c60 0 88 49 88 122c0 78 -37 141 -103 141
c-60 0 -87 -49 -87 -122c0 -77 35 -141 102 -141zM329 765l140 -171h-61l-123 96l-123 -96h-61l140 171h88z" />
    <glyph glyph-name="gbreve" unicode="&#x11f;" horiz-adv-x="560" 
d="M264 191c-33 0 -66 5 -96 15c-27 -28 -37 -45 -37 -65c0 -21 12 -29 33 -29h231c98 0 153 -40 153 -127c0 -117 -122 -192 -297 -192c-147 0 -234 40 -234 122c0 54 47 80 92 97c-40 15 -62 41 -62 83c0 50 40 88 96 123c-53 27 -90 74 -90 144c0 114 91 184 215 184
c37 0 68 -7 93 -16l182 11v-75h-39l-95 21v-6c40 -23 69 -63 69 -115c0 -107 -87 -175 -214 -175zM376 -2h-248c-15 -15 -20 -34 -20 -53c0 -71 64 -100 157 -100c107 0 185 32 185 101c0 42 -28 52 -74 52zM273 236c60 0 88 49 88 122c0 78 -37 141 -103 141
c-60 0 -87 -49 -87 -122c0 -77 35 -141 102 -141zM285 596c-93 0 -146 62 -146 169h48c7 -69 50 -95 98 -95c49 0 92 26 99 95h48c0 -107 -53 -169 -147 -169z" />
    <glyph glyph-name="gdotaccent" unicode="&#x121;" horiz-adv-x="560" 
d="M264 191c-33 0 -66 5 -96 15c-27 -28 -37 -45 -37 -65c0 -21 12 -29 33 -29h231c98 0 153 -40 153 -127c0 -117 -122 -192 -297 -192c-147 0 -234 40 -234 122c0 54 47 80 92 97c-40 15 -62 41 -62 83c0 50 40 88 96 123c-53 27 -90 74 -90 144c0 114 91 184 215 184
c37 0 68 -7 93 -16l182 11v-75h-39l-95 21v-6c40 -23 69 -63 69 -115c0 -107 -87 -175 -214 -175zM376 -2h-248c-15 -15 -20 -34 -20 -53c0 -71 64 -100 157 -100c107 0 185 32 185 101c0 42 -28 52 -74 52zM273 236c60 0 88 49 88 122c0 78 -37 141 -103 141
c-60 0 -87 -49 -87 -122c0 -77 35 -141 102 -141zM285 607c-44 0 -76 34 -76 76c0 41 32 75 76 75c45 0 76 -34 76 -75c0 -42 -31 -76 -76 -76z" />
    <glyph glyph-name="gcommaaccent" unicode="&#x123;" horiz-adv-x="560" 
d="M264 191c-33 0 -66 5 -96 15c-27 -28 -37 -45 -37 -65c0 -21 12 -29 33 -29h231c98 0 153 -40 153 -127c0 -117 -122 -192 -297 -192c-147 0 -234 40 -234 122c0 54 47 80 92 97c-40 15 -62 41 -62 83c0 50 40 88 96 123c-53 27 -90 74 -90 144c0 114 91 184 215 184
c37 0 68 -7 93 -16l182 11v-75h-39l-95 21v-6c40 -23 69 -63 69 -115c0 -107 -87 -175 -214 -175zM376 -2h-248c-15 -15 -20 -34 -20 -53c0 -71 64 -100 157 -100c107 0 185 32 185 101c0 42 -28 52 -74 52zM273 236c60 0 88 49 88 122c0 78 -37 141 -103 141
c-60 0 -87 -49 -87 -122c0 -77 35 -141 102 -141zM265 712h52c30 -7 44 -25 44 -52c0 -33 -27 -57 -69 -57c-52 0 -82 36 -82 83c0 61 37 107 141 107v-36c-56 0 -85 -17 -86 -45z" />
    <glyph glyph-name="hcircumflex" unicode="&#x125;" horiz-adv-x="654" 
d="M223 761v-315c47 48 107 100 191 100c91 0 144 -49 144 -164v-280c0 -46 28 -51 73 -57v-45h-264v45c44 6 70 11 70 57v270c0 62 -24 87 -83 87c-48 0 -96 -19 -131 -43v-314c0 -46 26 -51 70 -57v-45h-264v45c45 6 73 11 73 57v544l-68 43v25l162 47h27zM361 955
l147 -162h-61l-130 87l-130 -87h-61l147 162h88z" />
    <glyph glyph-name="hbar" unicode="&#x127;" horiz-adv-x="660" 
d="M374 582h-145v-144c47 48 107 101 191 101c91 0 144 -49 144 -164v-273c0 -46 28 -51 73 -57v-45h-264v45c44 6 70 11 70 57v262c0 63 -24 87 -83 87c-48 0 -96 -18 -131 -42v-307c0 -46 26 -51 70 -57v-45h-264v45c45 6 73 11 73 57v480h-68v43h68v62h-68v33l162 41h27
v-136h145v-43z" />
    <glyph glyph-name="ibreve" horiz-adv-x="335" 
d="M231 546v-444c0 -46 27 -51 72 -57v-45h-265v45c44 6 72 11 72 57v328l-67 42v24l160 50h28zM168 596c-93 0 -146 62 -146 169h48c7 -69 50 -95 98 -95c49 0 92 26 99 95h48c0 -107 -53 -169 -147 -169z" />
    <glyph glyph-name="imacron" unicode="&#x12b;" horiz-adv-x="335" 
d="M39 624v71h245v-71h-245zM231 546v-444c0 -46 27 -51 72 -57v-45h-265v45c44 6 72 11 72 57v328l-67 42v24l160 50h28z" />
    <glyph glyph-name="iogonek" unicode="&#x12f;" horiz-adv-x="335" 
d="M231 546v-444c0 -46 27 -51 72 -57v-45h-74c-57 -27 -104 -61 -104 -106c0 -24 16 -42 48 -42c28 0 54 9 85 31l14 -20c-33 -39 -78 -75 -134 -75c-52 0 -92 30 -92 83c0 59 50 99 112 129h-120v45c44 6 72 11 72 57v328l-67 42v24l160 50h28zM167 606
c-45 0 -77 34 -77 75s32 75 77 75c44 0 76 -34 76 -75s-32 -75 -76 -75z" />
    <glyph glyph-name="itilde" unicode="&#x129;" horiz-adv-x="335" 
d="M301 751l43 -11c-47 -107 -74 -129 -122 -129c-53 0 -85 69 -118 69c-31 0 -44 -22 -65 -60l-44 10c47 108 74 129 123 129c56 0 86 -68 118 -68c30 0 43 22 65 60zM231 546v-444c0 -46 27 -51 72 -57v-45h-265v45c44 6 72 11 72 57v328l-67 42v24l160 50h28z" />
    <glyph glyph-name="ij" unicode="&#x133;" horiz-adv-x="620" 
d="M231 546v-444c0 -46 27 -51 72 -57v-45h-265v45c44 6 72 11 72 57v328l-67 42v24l160 50h28zM167 606c-45 0 -77 34 -77 75s32 75 77 75c44 0 76 -34 76 -75s-32 -75 -76 -75zM547 546v-446c0 -86 -10 -131 -39 -179c-34 -54 -83 -92 -139 -129l-27 27l34 50
c46 61 50 115 50 207v354l-67 42v24l162 50h26zM484 606c-45 0 -77 34 -77 75s32 75 77 75c44 0 76 -34 76 -75s-32 -75 -76 -75z" />
    <glyph glyph-name="uni0237" unicode="&#x237;" horiz-adv-x="286" 
d="M212 546v-446c0 -86 -10 -131 -39 -179c-34 -54 -83 -92 -139 -129l-27 27l34 50c46 61 50 115 50 207v354l-67 42v24l162 50h26z" />
    <glyph glyph-name="jcircumflex" unicode="&#x135;" horiz-adv-x="286" 
d="M212 546v-446c0 -86 -10 -131 -39 -179c-34 -54 -83 -92 -139 -129l-27 27l34 50c46 61 50 115 50 207v354l-67 42v24l162 50h26zM193 765l140 -171h-61l-123 96l-123 -96h-61l140 171h88z" />
    <glyph glyph-name="kcommaaccent" unicode="&#x137;" horiz-adv-x="597" 
d="M330 -155h-51c-30 7 -44 26 -44 53c0 33 27 56 69 56c52 0 82 -35 82 -83c0 -61 -37 -107 -141 -107v37c56 0 85 17 85 44zM232 286l154 147c11 11 19 20 19 30c0 18 -16 21 -72 29v44h238v-44c-39 -10 -60 -17 -83 -39l-138 -129l241 -289v-35h-129zM223 761v-659
c0 -46 28 -51 72 -57v-45h-266v45c45 6 73 11 73 57v544l-68 43v25l162 47h27z" />
    <glyph glyph-name="lacute" unicode="&#x13a;" horiz-adv-x="326" 
d="M195 943h139l-155 -152h-58zM222 761v-659c0 -46 28 -51 72 -57v-45h-265v45c45 6 73 11 73 57v544l-68 43v25l161 47h27z" />
    <glyph glyph-name="lcaron" unicode="&#x13e;" horiz-adv-x="334" 
d="M436 763l-86 -205h-47l18 205h115zM222 761v-659c0 -46 28 -51 72 -57v-45h-265v45c45 6 73 11 73 57v544l-68 43v25l161 47h27z" />
    <glyph glyph-name="ldot" unicode="&#x140;" horiz-adv-x="427" 
d="M222 761v-659c0 -46 28 -51 72 -57v-45h-265v45c45 6 73 11 73 57v544l-68 43v25l161 47h27zM370 306c-44 0 -76 34 -76 76c0 41 32 75 76 75c45 0 76 -34 76 -75c0 -42 -31 -76 -76 -76z" />
    <glyph glyph-name="lcommaaccent" unicode="&#x13c;" horiz-adv-x="326" 
d="M181 -155h-51c-30 7 -44 26 -44 53c0 33 27 56 69 56c52 0 82 -35 82 -83c0 -61 -37 -107 -141 -107v37c56 0 85 17 85 44zM222 761v-659c0 -46 28 -51 72 -57v-45h-265v45c45 6 73 11 73 57v544l-68 43v25l161 47h27z" />
    <glyph glyph-name="nacute" unicode="&#x144;" horiz-adv-x="663" 
d="M374 763h136l-152 -167h-57zM446 102v270c0 62 -25 87 -84 87c-47 0 -97 -19 -131 -43v-314c0 -46 25 -51 70 -57v-45h-263v45c44 6 72 11 72 57v326l-67 43v25l160 52h28v-102c46 48 108 100 192 100c90 0 144 -49 144 -164v-280c0 -46 27 -51 72 -57v-45h-264v45
c45 6 71 11 71 57z" />
    <glyph glyph-name="ncaron" unicode="&#x148;" horiz-adv-x="663" 
d="M524 771l-140 -172h-88l-140 172h61l123 -96l123 96h61zM446 102v270c0 62 -25 87 -84 87c-47 0 -97 -19 -131 -43v-314c0 -46 25 -51 70 -57v-45h-263v45c44 6 72 11 72 57v326l-67 43v25l160 52h28v-102c46 48 108 100 192 100c90 0 144 -49 144 -164v-280
c0 -46 27 -51 72 -57v-45h-264v45c45 6 71 11 71 57z" />
    <glyph glyph-name="ncommaaccent" unicode="&#x146;" horiz-adv-x="663" 
d="M360 -155h-51c-30 7 -44 26 -44 53c0 33 27 56 69 56c52 0 82 -35 82 -83c0 -61 -37 -107 -141 -107v37c56 0 85 17 85 44zM446 102v270c0 62 -25 87 -84 87c-47 0 -97 -19 -131 -43v-314c0 -46 25 -51 70 -57v-45h-263v45c44 6 72 11 72 57v326l-67 43v25l160 52h28
v-102c46 48 108 100 192 100c90 0 144 -49 144 -164v-280c0 -46 27 -51 72 -57v-45h-264v45c45 6 71 11 71 57z" />
    <glyph glyph-name="eng" unicode="&#x14b;" horiz-adv-x="640" 
d="M446 76v296c0 62 -25 87 -84 87c-47 0 -97 -19 -131 -43v-314c0 -46 25 -51 70 -57v-45h-263v45c44 6 72 11 72 57v326l-67 43v25l160 52h28v-102c46 48 108 100 192 100c90 0 144 -49 144 -164v-282c0 -86 -11 -131 -40 -179c-34 -54 -82 -92 -139 -129l-27 27l35 50
c45 61 50 115 50 207z" />
    <glyph glyph-name="obreve" unicode="&#x14f;" horiz-adv-x="592" 
d="M305 48c82 0 124 83 124 205c0 130 -52 236 -142 236c-83 0 -124 -84 -124 -206c0 -130 51 -235 142 -235zM291 -10c-154 0 -253 114 -253 268c0 175 116 288 262 288c154 0 254 -114 254 -268c0 -175 -117 -288 -263 -288zM297 596c-93 0 -146 62 -146 169h48
c7 -69 50 -95 98 -95c49 0 92 26 99 95h48c0 -107 -53 -169 -147 -169z" />
    <glyph glyph-name="ohungarumlaut" unicode="&#x151;" horiz-adv-x="592" 
d="M250 763h118l-131 -167h-54zM413 763h119l-132 -167h-54zM305 48c82 0 124 83 124 205c0 130 -52 236 -142 236c-83 0 -124 -84 -124 -206c0 -130 51 -235 142 -235zM291 -10c-154 0 -253 114 -253 268c0 175 116 288 262 288c154 0 254 -114 254 -268
c0 -175 -117 -288 -263 -288z" />
    <glyph glyph-name="omacron" unicode="&#x14d;" horiz-adv-x="592" 
d="M159 624v71h276v-71h-276zM305 48c82 0 124 83 124 205c0 130 -52 236 -142 236c-83 0 -124 -84 -124 -206c0 -130 51 -235 142 -235zM291 -10c-154 0 -253 114 -253 268c0 175 116 288 262 288c154 0 254 -114 254 -268c0 -175 -117 -288 -263 -288z" />
    <glyph glyph-name="uni2154" unicode="&#x2154;" horiz-adv-x="948" 
d="M135 372h112c48 0 60 6 93 62h29l-15 -147h-334v31l121 115c74 71 103 112 103 162c0 49 -31 77 -82 77c-47 0 -80 -29 -106 -55l-21 22c30 57 88 109 170 109c88 0 141 -48 141 -129c0 -95 -99 -158 -211 -247zM252 0l449 741h65l-450 -741h-64zM762 182
c80 -7 135 -54 135 -124c0 -89 -84 -135 -178 -135c-103 0 -155 46 -155 96c0 26 14 42 29 49h61v-23c0 -53 23 -85 72 -85c44 0 71 30 71 85c0 63 -40 93 -105 93h-22l-5 26c72 27 111 51 111 95c0 34 -23 59 -69 59c-49 0 -76 -30 -95 -61l-29 20c27 61 83 112 166 112
c78 0 126 -41 126 -101s-60 -92 -113 -106z" />
    <glyph glyph-name="uni2153" unicode="&#x2153;" horiz-adv-x="914" 
d="M218 748h29v-376c0 -39 22 -42 90 -46v-39h-282v39c72 4 90 7 90 46v253h-90v34l29 6c67 12 97 36 134 83zM217 0l449 741h66l-450 -741h-65zM728 182c80 -7 135 -54 135 -124c0 -89 -84 -135 -178 -135c-103 0 -155 46 -155 96c0 26 14 42 29 49h61v-23
c0 -53 23 -85 72 -85c44 0 71 30 71 85c0 63 -40 93 -105 93h-22l-5 26c72 27 111 51 111 95c0 34 -23 59 -70 59c-48 0 -75 -30 -94 -61l-29 20c27 61 83 112 166 112c78 0 126 -41 126 -101s-60 -92 -113 -106z" />
    <glyph glyph-name="f_f_k" horiz-adv-x="1272" 
d="M778 102v537c-24 47 -63 83 -118 83c-64 0 -95 -48 -95 -126v-60h121v-60h-121v-374c0 -46 26 -51 71 -57v-45h-262v45c44 6 70 11 70 57v374h-212v-374c0 -46 26 -51 71 -57v-45h-264v45c44 6 72 11 72 57v374h-74v42l74 24v10c0 124 103 203 220 203
c74 0 129 -26 160 -59c39 46 98 71 163 71c52 0 100 -15 133 -36l84 30h27v-659c0 -46 28 -51 73 -57v-45h-265v45c45 6 72 11 72 57zM907 286l155 147c11 11 19 20 19 30c0 18 -16 21 -72 29v44h238v-44c-40 -10 -60 -17 -84 -39l-137 -129l240 -289v-35h-128zM444 556
c0 23 3 44 8 64c-22 45 -66 86 -118 86c-64 0 -102 -42 -102 -121v-50h212v21z" />
    <glyph glyph-name="f_f_j" horiz-adv-x="972" 
d="M777 476h-212v-374c0 -46 26 -51 71 -57v-45h-262v45c44 6 70 11 70 57v374h-212v-374c0 -46 26 -51 71 -57v-45h-264v45c44 6 72 11 72 57v374h-74v42l74 24v10c0 124 103 203 220 203c76 0 132 -28 163 -62c42 48 108 74 183 74c93 0 155 -27 155 -83
c0 -27 -16 -47 -35 -59h-74v29c0 47 -19 68 -63 68c-52 0 -95 -46 -95 -139v-48h275l31 12h27v-447c0 -85 -10 -130 -39 -178c-34 -54 -83 -93 -139 -130l-27 28l34 49c46 62 50 116 50 207v400zM444 553c0 23 3 45 9 65c-22 46 -66 88 -119 88c-64 0 -102 -42 -102 -121
v-50h212v18z" />
    <glyph glyph-name="f_j" horiz-adv-x="639" 
d="M444 476h-212v-374c0 -46 26 -51 71 -57v-45h-264v45c44 6 72 11 72 57v374h-74v42l74 24v11c0 135 102 214 233 214c93 0 154 -27 154 -83c0 -27 -15 -47 -34 -59h-74v29c0 47 -19 68 -63 68c-52 0 -95 -46 -95 -139v-48h275l31 12h27v-447c0 -85 -10 -130 -39 -178
c-34 -54 -83 -93 -139 -130l-27 28l34 49c46 62 50 116 50 207v400z" />
    <glyph glyph-name="f_f_idieresis" horiz-adv-x="1002" 
d="M331 755c73 0 128 -25 159 -58c39 46 98 72 168 72c86 0 137 -30 137 -83c0 -26 -15 -50 -33 -61h-79v31c0 37 -8 68 -44 68c-46 0 -74 -44 -74 -124v-65h275l31 12h27v-445c0 -46 28 -51 73 -57v-45h-264v45c44 6 71 11 71 57v374h-213v-374c0 -46 26 -51 71 -57v-45
h-262v45c44 6 70 11 70 57v374h-212v-374c0 -46 26 -51 71 -57v-45h-264v45c44 6 72 11 72 57v374h-74v42l74 24v10c0 124 103 203 220 203zM444 535v23c0 22 2 43 7 63c-22 45 -65 85 -117 85c-64 0 -102 -42 -102 -121v-50h212zM867 681c0 38 31 69 69 69
c39 0 70 -31 70 -69c0 -39 -31 -70 -70 -70c-38 0 -69 31 -69 70z" />
    <glyph glyph-name="f_idieresis" horiz-adv-x="669" 
d="M534 681c0 38 31 69 69 69c39 0 70 -31 70 -69c0 -39 -31 -70 -70 -70c-38 0 -69 31 -69 70zM111 542v16c0 133 91 211 214 211c86 0 137 -30 137 -83c0 -26 -15 -50 -33 -61h-79v31c0 37 -8 68 -44 68c-46 0 -74 -44 -74 -124v-65h275l31 12h27v-445
c0 -46 27 -51 72 -57v-45h-263v45c44 6 70 11 70 57v374h-212v-374c0 -46 26 -51 71 -57v-45h-264v45c44 6 72 11 72 57v374h-74v42z" />
    <glyph glyph-name="f_f_h" horiz-adv-x="1330" 
d="M778 102v537c-24 47 -63 83 -118 83c-64 0 -95 -48 -95 -126v-60h121v-60h-121v-374c0 -46 26 -51 71 -57v-45h-262v45c44 6 70 11 70 57v374h-212v-374c0 -46 26 -51 71 -57v-45h-264v45c44 6 72 11 72 57v374h-74v42l74 24v10c0 124 103 203 220 203
c74 0 129 -26 160 -59c39 46 98 71 163 71c52 0 100 -15 133 -36l84 30h27v-315c47 48 108 100 192 100c90 0 144 -49 144 -164v-280c0 -46 27 -51 72 -57v-45h-264v45c45 6 71 11 71 57v270c0 62 -25 87 -84 87c-47 0 -95 -19 -131 -43v-314c0 -46 27 -51 71 -57v-45h-263
v45c45 6 72 11 72 57zM444 556c0 23 3 44 8 64c-22 45 -66 86 -118 86c-64 0 -102 -42 -102 -121v-50h212v21z" />
    <glyph glyph-name="f_h" horiz-adv-x="997" 
d="M444 102v537c-23 47 -62 83 -117 83c-64 0 -95 -48 -95 -126v-60h121v-60h-121v-374c0 -46 26 -51 71 -57v-45h-264v45c44 6 72 11 72 57v374h-74v42l74 24v14c0 134 97 211 210 211c52 0 100 -15 133 -36l84 30h27v-315c47 48 108 100 192 100c90 0 144 -49 144 -164
v-280c0 -46 27 -51 72 -57v-45h-264v45c45 6 71 11 71 57v270c0 62 -25 87 -84 87c-48 0 -95 -19 -131 -43v-314c0 -46 27 -51 71 -57v-45h-263v45c45 6 71 11 71 57z" />
    <glyph glyph-name="f_f_b" horiz-adv-x="1312" 
d="M778 57v582c-24 47 -63 83 -118 83c-64 0 -95 -48 -95 -126v-60h121v-60h-121v-374c0 -46 26 -51 71 -57v-45h-262v45c44 6 70 11 70 57v374h-212v-374c0 -46 26 -51 71 -57v-45h-264v45c44 6 72 11 72 57v374h-74v42l74 24v10c0 124 103 203 220 203
c74 0 129 -26 160 -59c39 46 98 71 163 71c52 0 100 -15 133 -36l84 30h27v-305c38 54 93 90 167 90c134 0 209 -106 209 -252c0 -188 -120 -304 -270 -304c-97 0 -179 28 -226 67zM1010 43c86 0 142 82 142 206c0 116 -46 215 -146 215c-41 0 -82 -13 -108 -38v-256
c0 -90 41 -127 112 -127zM444 556c0 23 3 44 8 64c-22 45 -66 86 -118 86c-64 0 -102 -42 -102 -121v-50h212v21z" />
    <glyph glyph-name="f_b" horiz-adv-x="979" 
d="M444 57v582c-23 47 -62 83 -117 83c-64 0 -95 -48 -95 -126v-60h121v-60h-121v-374c0 -46 26 -51 71 -57v-45h-264v45c44 6 72 11 72 57v374h-74v42l74 24v14c0 134 97 211 210 211c52 0 100 -15 133 -36l84 30h27v-305c38 54 93 90 167 90c134 0 209 -106 209 -252
c0 -188 -120 -304 -270 -304c-97 0 -179 28 -227 67zM677 43c86 0 142 82 142 206c0 116 -46 215 -146 215c-41 0 -82 -13 -108 -38v-256c0 -90 41 -127 112 -127z" />
    <glyph glyph-name="notequal.ot" 
d="M78 351v69h263l74 104h74l-74 -104h107v-69h-157l-56 -79h213v-68h-262l-74 -104h-74l74 104h-108v68h157l56 79h-213z" />
    <glyph glyph-name="approxequal.ot" 
d="M78 326v73c43 29 84 41 119 41c77 0 127 -40 204 -40c37 0 77 11 121 41v-73c-44 -30 -84 -41 -121 -41c-77 0 -127 40 -204 40c-35 0 -76 -12 -119 -41zM78 189v72c43 30 84 41 119 41c77 0 127 -39 204 -39c37 0 77 10 121 40v-73c-44 -30 -84 -40 -121 -40
c-77 0 -127 38 -204 38c-35 0 -76 -11 -119 -39z" />
    <glyph glyph-name="greaterequal.ot" 
d="M459 353v-9l-318 -172v82l183 95l-183 94v82zM459 142v-71h-318v71h318z" />
    <glyph glyph-name="lessequal.ot" 
d="M141 344v9l318 172v-82l-183 -94l183 -95v-82zM141 71v71h318v-71h-318z" />
    <glyph glyph-name="plusminus.ot" 
d="M264 551h71v-141h186v-70h-186v-140h-71v140h-184v70h184v141zM80 78v71h441v-71h-441z" />
    <glyph glyph-name="greater.ot" 
d="M459 315v-10l-318 -195v85l194 116l-194 113v86z" />
    <glyph glyph-name="less.ot" 
d="M141 305v10l318 195v-86l-194 -113l194 -116v-85z" />
    <glyph glyph-name="multiply.ot" 
d="M250 308l-136 136l50 50l135 -137l137 137l50 -50l-137 -136l137 -136l-50 -49l-137 136l-135 -136l-50 49z" />
    <glyph glyph-name="divide.ot" 
d="M78 276v72h444v-72h-444zM239 138c0 35 27 62 60 62s62 -27 62 -62c0 -33 -29 -61 -62 -61s-60 28 -60 61zM239 486c0 33 27 60 60 60s62 -27 62 -60s-29 -62 -62 -62s-60 29 -60 62z" />
    <glyph glyph-name="equal.ot" 
d="M78 204v69h444v-69h-444zM78 351v70h444v-70h-444z" />
    <glyph glyph-name="minus.ot" 
d="M78 276v72h444v-72h-444z" />
    <glyph glyph-name="plus.ot" 
d="M264 534h71v-186h187v-72h-187v-186h-71v186h-186v72h186v186z" />
    <glyph glyph-name="perthousand.ot" horiz-adv-x="1300" 
d="M168 492c0 -71 20 -131 76 -131c57 0 77 60 77 131c0 72 -20 132 -77 132c-56 0 -76 -60 -76 -132zM74 492c0 109 82 171 170 171c89 0 171 -62 171 -171c0 -108 -82 -170 -171 -170c-88 0 -170 62 -170 170zM748 162c0 71 -20 131 -76 131c-57 0 -77 -60 -77 -131
s20 -131 77 -131c56 0 76 60 76 131zM698 673l-416 -692h-64l416 692h64zM842 162c0 -109 -82 -171 -170 -171c-89 0 -171 62 -171 171c0 108 82 171 171 171c88 0 170 -63 170 -171zM1132 162c0 71 -20 131 -76 131c-57 0 -77 -60 -77 -131s20 -131 77 -131
c56 0 76 60 76 131zM1226 162c0 -109 -82 -171 -170 -171c-89 0 -171 62 -171 171c0 108 82 171 171 171c88 0 170 -63 170 -171z" />
    <glyph glyph-name="percent.ot" horiz-adv-x="900" 
d="M160 492c0 -71 20 -131 76 -131s77 60 77 131c0 72 -21 132 -77 132s-76 -60 -76 -132zM66 492c0 109 82 171 170 171c89 0 171 -62 171 -171c0 -108 -82 -170 -171 -170c-88 0 -170 62 -170 170zM740 162c0 71 -20 131 -76 131c-57 0 -77 -60 -77 -131s20 -131 77 -131
c56 0 76 60 76 131zM690 673l-416 -692h-65l417 692h64zM834 162c0 -109 -82 -171 -170 -171c-89 0 -171 62 -171 171c0 108 82 171 171 171c88 0 170 -63 170 -171z" />
    <glyph glyph-name="florin.ot" 
d="M175 275l7 48h87l7 50c23 185 87 287 214 287c72 0 114 -30 114 -79c0 -32 -19 -52 -48 -61h-33c0 54 -9 98 -47 98c-33 0 -48 -33 -55 -83l-27 -212h114l-4 -48h-116l-19 -158c-23 -185 -87 -287 -215 -287c-72 0 -114 30 -114 79c0 32 19 52 49 61h32
c1 -54 9 -98 48 -98c32 0 48 33 54 83l40 320h-88z" />
    <glyph glyph-name="yen.ot" 
d="M79 309v45h101l-112 217c-12 21 -30 31 -57 34v46h273v-46c-61 -1 -77 -11 -77 -36c0 -16 7 -29 16 -47l107 -220l112 220c8 18 16 32 16 47c0 25 -18 35 -79 36v46h210v-46c-27 -3 -44 -8 -57 -34l-113 -217h105v-45h-128l-34 -66h162v-45h-165v-85c0 -55 29 -66 94 -68
v-45h-308v45c66 2 96 13 96 68v85h-162v45h158l-34 66h-124z" />
    <glyph glyph-name="eight.ot" 
d="M520 546c0 -81 -68 -137 -138 -157l29 -14c79 -37 136 -91 136 -182c0 -115 -82 -203 -246 -203c-147 0 -246 73 -246 184c0 87 66 144 150 169l-11 6c-68 36 -113 82 -113 170c0 110 81 193 220 193c134 0 219 -66 219 -166zM348 277l-114 51c-52 -33 -74 -88 -74 -147
c0 -82 56 -138 141 -138c83 0 141 44 141 117c0 58 -41 93 -94 117zM273 443l78 -38c49 31 70 79 70 138c0 71 -47 116 -120 116s-115 -43 -115 -104c0 -54 30 -84 87 -112z" />
    <glyph glyph-name="uni215B" unicode="&#x215b;" horiz-adv-x="932" 
d="M862 284c0 -52 -44 -92 -92 -102c73 -31 110 -68 110 -122c0 -93 -79 -137 -169 -137c-98 0 -171 43 -171 114c0 55 44 94 99 107c-53 27 -84 63 -84 114c0 76 61 131 155 131c92 0 152 -41 152 -105zM736 98l-74 35c-33 -21 -43 -56 -43 -87c0 -52 38 -80 93 -80
c51 0 83 25 83 63c0 34 -24 52 -59 69zM693 217l54 -25c30 21 39 56 39 82c0 47 -30 73 -76 73s-72 -27 -72 -59s20 -55 55 -71zM218 748h29v-376c0 -39 22 -42 90 -46v-39h-282v39c72 4 90 7 90 46v253h-90v34l29 6c67 12 97 36 134 83zM217 0l449 741h66l-450 -741h-65z
" />
    <glyph glyph-name="uni215D" unicode="&#x215d;" horiz-adv-x="929" 
d="M336 736v-91h-201l-10 -65c135 -3 232 -48 232 -156c0 -92 -71 -147 -167 -147c-101 0 -153 46 -153 97c0 24 13 43 30 50h60v-23c0 -51 20 -85 75 -85c45 0 73 27 73 73c0 75 -68 115 -202 117l40 230h223zM860 284c0 -52 -45 -92 -93 -102c73 -31 111 -68 111 -122
c0 -93 -79 -137 -169 -137c-99 0 -172 43 -172 114c0 55 44 94 99 107c-53 27 -84 63 -84 114c0 76 61 131 155 131c93 0 153 -41 153 -105zM733 98l-74 35c-33 -21 -43 -56 -43 -87c0 -52 38 -80 94 -80c50 0 82 25 82 63c0 34 -24 52 -59 69zM690 217l55 -25
c29 21 38 56 38 82c0 47 -30 73 -76 73c-45 0 -72 -27 -72 -59s21 -55 55 -71zM215 0l449 741h65l-450 -741h-64z" />
    <glyph glyph-name="uni215E" unicode="&#x215e;" horiz-adv-x="873" 
d="M308 636h-155c-30 0 -45 -20 -60 -63h-36l27 163h309v-28l-195 -421h-78zM803 284c0 -52 -44 -92 -93 -102c74 -31 111 -68 111 -122c0 -93 -79 -137 -169 -137c-98 0 -171 43 -171 114c0 55 43 94 98 107c-53 27 -83 63 -83 114c0 76 61 131 155 131
c92 0 152 -41 152 -105zM676 98l-74 35c-32 -21 -42 -56 -42 -87c0 -52 38 -80 93 -80c51 0 82 25 82 63c0 34 -23 52 -59 69zM633 217l55 -25c30 21 39 56 39 82c0 47 -30 73 -76 73s-72 -27 -72 -59s20 -55 54 -71zM158 0l449 741h65l-450 -741h-64z" />
    <glyph glyph-name="at.cap" horiz-adv-x="897" 
d="M606 145c-100 0 -114 90 -89 177h-6c-42 -98 -108 -177 -177 -177c-57 0 -96 47 -96 126c0 148 118 297 247 297c38 0 69 -14 89 -34l57 35h42l-29 -90l-50 -200c-10 -38 -11 -89 31 -89c75 0 153 90 153 240c0 163 -105 288 -297 288c-209 0 -358 -177 -358 -401
c0 -205 148 -332 347 -332c102 0 179 22 264 71l16 -30c-66 -57 -171 -94 -291 -94c-235 0 -409 149 -409 384c0 248 184 445 431 445c227 0 366 -143 366 -331c0 -186 -125 -285 -241 -285zM377 214c54 0 130 116 171 277c-12 25 -29 36 -53 36c-91 0 -156 -148 -156 -250
c0 -40 13 -63 38 -63z" />
    <glyph glyph-name="bracketleft.cap" horiz-adv-x="326" 
d="M171 672v-675c0 -52 33 -55 113 -60v-38h-199v871h199v-38c-80 -5 -113 -8 -113 -60z" />
    <glyph glyph-name="bracketright.cap" horiz-adv-x="326" 
d="M155 -3v675c0 52 -33 55 -113 60v38h199v-871h-199v38c80 5 113 8 113 60z" />
    <glyph glyph-name="braceleft.cap" horiz-adv-x="357" 
d="M50 324v22c48 10 83 36 83 100v196c0 79 68 128 182 128v-31c-47 -6 -93 -31 -93 -98v-194c0 -68 -24 -92 -91 -112c67 -20 91 -44 91 -112v-193c0 -68 46 -93 93 -99v-31c-114 0 -182 49 -182 128v196c0 64 -35 90 -83 100z" />
    <glyph glyph-name="braceright.cap" horiz-adv-x="357" 
d="M307 346v-22c-48 -10 -83 -36 -83 -100v-196c0 -79 -68 -128 -182 -128v31c47 6 92 31 92 99v193c0 68 24 92 91 112c-67 20 -91 44 -91 112v194c0 67 -45 92 -92 98v31c114 0 182 -49 182 -128v-196c0 -64 35 -90 83 -100z" />
    <glyph glyph-name="slash.cap" horiz-adv-x="411" 
d="M377 770l-268 -871h-75l268 871h75z" />
    <glyph glyph-name="brokenbar.cap" horiz-adv-x="271" 
d="M171 770v-371h-71v371h71zM171 270v-371h-71v371h71z" />
    <glyph glyph-name="bar.cap" horiz-adv-x="271" 
d="M171 770v-871h-71v871h71z" />
    <glyph glyph-name="backslash.cap" horiz-adv-x="411" 
d="M301 -101l-267 871h76l267 -871h-76z" />
    </font>
</defs>
</svg>
