<?xml version="1.0" standalone="no"?>
<!DOCTYPE svg PUBLIC "-//W3C//DTD SVG 1.1//EN" "http://www.w3.org/Graphics/SVG/1.1/DTD/svg11.dtd" >
<svg xmlns="http://www.w3.org/2000/svg" xmlns:xlink="http://www.w3.org/1999/xlink" version="1.1">
<metadata>
Created by FontForge 20160407 at Thu Jul  7 22:50:00 2016
 By Jimmy Warting
(c) 2010 Klim Type Foundry. All rights reserved.
</metadata>
<defs>
<font id="TiemposText-SemiboldItalic" horiz-adv-x="600" >
  <font-face 
    font-family="Tiempos Text Semibold"
    font-weight="600"
    font-style="italic"
    font-stretch="normal"
    units-per-em="1000"
    panose-1="2 2 7 3 6 3 3 13 4 3"
    ascent="761"
    descent="-239"
    x-height="555"
    cap-height="702"
    bbox="-180 -246 1301 1054"
    underline-thickness="30"
    underline-position="-110"
    slope="-12"
    stemh="64"
    stemv="175"
    unicode-range="U+0020-FB04"
  />
<missing-glyph horiz-adv-x="960" 
 />
    <glyph glyph-name="fi" unicode="fi" horiz-adv-x="692" 
d="M50 482l11 49l82 20c42 137 135 218 283 218c83 0 157 -25 157 -86c0 -32 -20 -54 -54 -65h-76c4 57 -5 103 -48 103c-47 0 -92 -51 -101 -178h241l64 13h36l-104 -413c-5 -19 -8 -33 -8 -41c0 -10 5 -15 14 -15c19 0 45 25 83 73l28 -26c-65 -94 -121 -144 -191 -144
c-58 0 -96 37 -96 89c0 26 5 51 13 86l78 317h-165l-54 -254c-70 -331 -166 -435 -298 -435c-72 0 -120 29 -120 77c0 46 35 70 74 75h25c3 -61 16 -108 47 -108s44 39 70 183l86 462h-77z" />
    <glyph glyph-name="fl" unicode="fl" horiz-adv-x="688" 
d="M50 482l11 49l82 20c42 138 133 218 265 218c53 0 95 -17 123 -39l128 31h32l-149 -618c-5 -19 -7 -33 -7 -41c0 -10 5 -15 14 -15c19 0 44 25 81 73l29 -26c-65 -94 -122 -144 -192 -144c-58 0 -95 37 -95 89c0 26 5 51 13 86l109 463c-13 63 -45 94 -86 94
c-51 0 -96 -52 -104 -179h97l-12 -61h-92l-54 -254c-70 -331 -166 -435 -298 -435c-72 0 -120 29 -120 77c0 46 35 70 74 75h25c3 -61 16 -108 47 -108s44 39 70 183l86 462h-77z" />
    <glyph glyph-name="ff" unicode="ff" horiz-adv-x="701" 
d="M369 31l83 451h-155l-54 -254c-67 -318 -169 -435 -298 -435c-72 0 -120 29 -120 77c0 46 35 70 74 75h25c3 -61 16 -108 47 -108s44 39 70 183l86 462h-77l11 49l82 20c42 136 133 207 259 207c56 0 111 -22 149 -52c41 41 96 63 167 63c77 0 139 -25 139 -86
c0 -32 -19 -58 -53 -68h-53c6 56 -1 106 -41 106c-41 0 -72 -51 -80 -178h123l-11 -61h-120l-51 -243c-70 -330 -166 -435 -299 -435c-60 0 -94 30 -94 74c0 41 29 69 69 74h20c3 -61 5 -104 31 -104c32 0 44 39 71 183zM408 710c-51 0 -96 -41 -104 -167h161
c8 29 17 57 29 81c-14 56 -46 86 -86 86z" />
    <glyph glyph-name="ffi" unicode="ffi" horiz-adv-x="1017" 
d="M369 31l83 451h-155l-54 -254c-67 -318 -169 -435 -298 -435c-72 0 -120 29 -120 77c0 46 35 70 74 75h25c3 -61 16 -108 47 -108s44 39 70 183l86 462h-77l11 49l82 20c42 136 133 207 259 207c59 0 118 -24 155 -58c49 45 113 69 194 69c83 0 158 -25 158 -86
c0 -32 -20 -54 -54 -65h-76c4 57 -5 103 -48 103c-48 0 -93 -51 -101 -178h241l63 13h36l-103 -413c-5 -19 -9 -33 -9 -41c0 -10 5 -15 14 -15c19 0 45 25 83 73l29 -26c-65 -94 -122 -144 -192 -144c-58 0 -96 37 -96 89c0 26 5 51 14 86l77 317h-165l-51 -243
c-70 -330 -166 -435 -299 -435c-60 0 -94 30 -94 74c0 41 29 69 69 74h20c3 -61 5 -104 31 -104c32 0 44 39 71 183zM408 710c-51 0 -95 -41 -104 -167h162c8 27 17 52 29 75c-13 60 -46 92 -87 92z" />
    <glyph glyph-name="ffl" unicode="ffl" horiz-adv-x="1013" 
d="M715 482h-93l-51 -243c-70 -330 -166 -435 -299 -435c-60 0 -94 30 -94 74c0 41 29 69 69 74h20c3 -61 5 -104 31 -104c32 0 44 39 71 183l83 451h-155l-54 -254c-67 -318 -169 -435 -298 -435c-72 0 -120 29 -120 77c0 46 35 70 74 75h25c3 -61 16 -108 47 -108
s44 39 70 183l86 462h-77l11 49l82 20c42 136 133 207 259 207c58 0 117 -23 154 -56c46 43 106 67 177 67c54 0 96 -17 123 -39l128 31h33l-150 -618c-5 -19 -7 -33 -7 -41c0 -10 5 -15 14 -15c19 0 44 25 82 73l29 -26c-65 -94 -122 -144 -192 -144c-58 0 -96 37 -96 89
c0 26 5 51 13 86l109 463c-13 63 -45 94 -85 94c-52 0 -97 -52 -104 -179h96zM466 543c8 27 17 53 29 76c-14 59 -46 91 -87 91c-51 0 -96 -41 -104 -167h162z" />
    <glyph glyph-name="f_b" unicode="fb" horiz-adv-x="979" 
d="M50 482l11 49l82 20c42 138 133 218 265 218c53 0 95 -17 123 -39l128 31h32l-75 -309l-56 -156h7c57 117 147 259 256 259c89 0 129 -66 129 -169c0 -192 -149 -396 -369 -396c-101 0 -185 50 -207 144l118 494c-13 63 -45 94 -86 94c-51 0 -96 -52 -104 -179h97
l-12 -61h-92l-54 -254c-70 -331 -166 -435 -298 -435c-72 0 -120 29 -120 77c0 46 35 70 74 75h25c3 -61 16 -108 47 -108s44 39 70 183l86 462h-77zM742 445c-66 0 -176 -164 -215 -340c2 -37 27 -62 61 -62c110 0 200 191 201 327c0 47 -15 75 -47 75z" />
    <glyph glyph-name="f_f_b" unicode="ffb" horiz-adv-x="1305" 
d="M715 482h-93l-51 -243c-70 -330 -166 -435 -299 -435c-60 0 -94 30 -94 74c0 41 29 69 69 74h20c3 -61 5 -104 31 -104c32 0 44 39 71 183l83 451h-155l-54 -254c-67 -318 -169 -435 -298 -435c-72 0 -120 29 -120 77c0 46 35 70 74 75h25c3 -61 16 -108 47 -108
s44 39 70 183l86 462h-77l11 49l82 20c42 136 133 207 259 207c58 0 117 -23 154 -56c46 43 106 67 177 67c54 0 96 -17 123 -39l128 31h33l-76 -309l-56 -156h7c58 117 148 259 257 259c88 0 128 -66 128 -169c0 -192 -149 -396 -368 -396c-101 0 -185 50 -208 144l118 494
c-13 63 -45 94 -85 94c-52 0 -97 -52 -104 -179h96zM1067 445c-65 0 -176 -164 -215 -340c3 -37 28 -62 62 -62c110 0 200 191 200 327c0 47 -15 75 -47 75zM466 543c8 27 17 53 29 76c-14 59 -46 91 -87 91c-51 0 -96 -41 -104 -167h162z" />
    <glyph glyph-name="f_h" unicode="fh" horiz-adv-x="1003" 
d="M50 482l11 49l82 20c42 138 133 218 265 218c53 0 95 -17 123 -39l128 31h32l-76 -313l-48 -151h7c91 158 190 258 285 258c54 0 82 -33 82 -84c0 -13 -3 -31 -6 -44l-76 -284c-5 -19 -9 -33 -9 -41c0 -10 5 -15 14 -15c19 0 44 25 82 73l29 -26
c-66 -94 -122 -144 -192 -144c-58 0 -97 37 -97 89c0 26 4 51 14 86l66 231c3 13 5 25 5 33c0 12 -4 19 -17 19c-42 0 -166 -143 -210 -312l-35 -136h-164l149 628c-13 63 -45 94 -86 94c-51 0 -96 -52 -104 -179h97l-12 -61h-92l-54 -254c-70 -331 -166 -435 -298 -435
c-72 0 -120 29 -120 77c0 46 35 70 74 75h25c3 -61 16 -108 47 -108s44 39 70 183l86 462h-77z" />
    <glyph glyph-name="f_f_h" unicode="ffh" horiz-adv-x="1328" 
d="M715 482h-93l-51 -243c-70 -330 -166 -435 -299 -435c-60 0 -94 30 -94 74c0 41 29 69 69 74h20c3 -61 5 -104 31 -104c32 0 44 39 71 183l83 451h-155l-54 -254c-67 -318 -169 -435 -298 -435c-72 0 -120 29 -120 77c0 46 35 70 74 75h25c3 -61 16 -108 47 -108
s44 39 70 183l86 462h-77l11 49l82 20c42 136 133 207 259 207c58 0 117 -23 154 -56c46 43 106 67 177 67c54 0 96 -17 123 -39l128 31h33l-76 -313l-49 -151h7c92 158 191 258 285 258c54 0 83 -33 83 -84c0 -13 -3 -31 -6 -44l-77 -284c-5 -19 -9 -33 -9 -41
c0 -10 5 -15 14 -15c19 0 44 25 83 73l29 -26c-66 -94 -123 -144 -192 -144c-59 0 -97 37 -97 89c0 26 4 51 14 86l66 231c3 13 5 25 5 33c0 12 -4 19 -17 19c-42 0 -167 -143 -211 -312l-35 -136h-164l149 628c-13 63 -45 94 -85 94c-52 0 -97 -52 -104 -179h96zM466 543
c8 27 17 53 29 76c-14 59 -46 91 -87 91c-51 0 -96 -41 -104 -167h162z" />
    <glyph glyph-name="f_idieresis" unicode="f&#xef;" horiz-adv-x="692" 
d="M50 482l11 49l81 20c37 139 112 225 262 225c81 0 159 -26 159 -90c0 -34 -19 -63 -53 -74h-86c5 57 8 116 -32 116c-42 0 -79 -58 -88 -185h241l64 13h36l-104 -413c-5 -19 -8 -33 -8 -41c0 -10 5 -15 14 -15c19 0 45 25 83 73l28 -26c-65 -94 -121 -144 -191 -144
c-58 0 -96 37 -96 89c0 26 5 51 13 86l78 317h-165l-54 -254c-70 -331 -166 -435 -298 -435c-72 0 -120 29 -120 77c0 46 35 70 74 75h25c3 -61 16 -108 47 -108s44 39 70 183l86 462h-77zM689 605c-50 0 -80 36 -80 78c0 46 33 87 86 87c50 0 80 -36 80 -77
c0 -47 -33 -88 -86 -88z" />
    <glyph glyph-name="f_f_idieresis" unicode="ff&#xef;" horiz-adv-x="1017" 
d="M41 20l86 462h-77l11 49l82 20c42 136 133 207 259 207c55 0 109 -21 146 -51c43 44 102 69 182 69c81 0 159 -26 159 -90c0 -34 -20 -63 -54 -74h-85c4 57 7 116 -32 116c-43 0 -80 -58 -88 -185h241l63 13h36l-103 -413c-5 -19 -9 -33 -9 -41c0 -10 5 -15 14 -15
c19 0 45 25 83 73l29 -26c-65 -94 -122 -144 -192 -144c-58 0 -96 37 -96 89c0 26 5 51 14 86l77 317h-165l-51 -243c-70 -330 -166 -435 -299 -435c-60 0 -94 30 -94 74c0 41 29 69 69 74h20c3 -61 5 -104 31 -104c32 0 44 39 71 183l83 451h-155l-54 -254
c-67 -318 -169 -435 -298 -435c-72 0 -120 29 -120 77c0 46 35 70 74 75h25c3 -61 16 -108 47 -108s44 39 70 183zM465 543c8 30 17 57 28 82c-14 55 -46 85 -85 85c-51 0 -95 -41 -104 -167h161zM1015 605c-50 0 -81 36 -81 78c0 46 33 87 86 87c50 0 81 -36 81 -77
c0 -47 -33 -88 -86 -88z" />
    <glyph glyph-name="f_j" unicode="fj" horiz-adv-x="653" 
d="M41 20l86 462h-77l11 49l82 20c42 137 135 218 283 218c83 0 157 -25 157 -86c0 -32 -20 -54 -54 -65h-76c4 57 -5 103 -48 103c-47 0 -92 -51 -101 -178h241l64 13h36l-110 -446c-56 -225 -152 -306 -269 -306c-61 0 -97 30 -97 74c0 43 30 69 69 75h21
c2 -62 6 -105 32 -105c32 0 39 48 64 161l107 473h-165l-54 -254c-70 -331 -166 -435 -298 -435c-72 0 -120 29 -120 77c0 46 35 70 74 75h25c3 -61 16 -108 47 -108s44 39 70 183z" />
    <glyph glyph-name="f_f_j" unicode="ffj" horiz-adv-x="978" 
d="M369 31l83 451h-155l-54 -254c-67 -318 -169 -435 -298 -435c-72 0 -120 29 -120 77c0 46 35 70 74 75h25c3 -61 16 -108 47 -108s44 39 70 183l86 462h-77l11 49l82 20c42 136 133 207 259 207c59 0 118 -24 155 -58c49 45 113 69 194 69c83 0 158 -25 158 -86
c0 -32 -20 -54 -54 -65h-76c4 57 -5 103 -48 103c-48 0 -93 -51 -101 -178h241l63 13h36l-110 -446c-55 -225 -152 -306 -269 -306c-61 0 -96 30 -96 74c0 43 29 69 69 75h20c3 -62 6 -105 33 -105c32 0 38 48 63 161l107 473h-165l-51 -243c-70 -330 -166 -435 -299 -435
c-60 0 -94 30 -94 74c0 41 29 69 69 74h20c3 -61 5 -104 31 -104c32 0 44 39 71 183zM408 710c-51 0 -95 -41 -104 -167h162c8 27 17 52 29 75c-13 60 -46 92 -87 92z" />
    <glyph glyph-name="f_k" unicode="fk" horiz-adv-x="965" 
d="M50 482l11 49l82 20c42 138 133 218 265 218c53 0 95 -17 123 -39l128 31h32l-183 -761h-164l150 628c-13 63 -45 94 -86 94c-51 0 -96 -52 -104 -179h97l-12 -61h-92l-54 -254c-70 -331 -166 -435 -298 -435c-72 0 -120 29 -120 77c0 46 35 70 74 75h25
c3 -61 16 -108 47 -108s44 39 70 183l86 462h-77zM725 361l73 -188c15 -39 27 -66 48 -66s38 13 70 53l26 -26c-63 -100 -111 -144 -174 -144c-55 0 -85 37 -109 103l-68 181l160 190c57 68 88 91 130 91c51 0 76 -37 76 -74c0 -45 -26 -73 -70 -88h-21c0 31 -9 55 -37 55
c-22 0 -44 -12 -78 -56z" />
    <glyph glyph-name="f_f_k" unicode="ffk" horiz-adv-x="1290" 
d="M715 482h-93l-51 -243c-70 -330 -166 -435 -299 -435c-60 0 -94 30 -94 74c0 41 29 69 69 74h20c3 -61 5 -104 31 -104c32 0 44 39 71 183l83 451h-155l-54 -254c-67 -318 -169 -435 -298 -435c-72 0 -120 29 -120 77c0 46 35 70 74 75h25c3 -61 16 -108 47 -108
s44 39 70 183l86 462h-77l11 49l82 20c42 136 133 207 259 207c58 0 117 -23 154 -56c46 43 106 67 177 67c54 0 96 -17 123 -39l128 31h33l-184 -761h-163l149 628c-13 63 -45 94 -85 94c-52 0 -97 -52 -104 -179h96zM1050 361l74 -188c14 -39 26 -66 48 -66
c20 0 37 13 69 53l26 -26c-63 -100 -110 -144 -174 -144c-55 0 -85 37 -109 103l-68 181l160 190c57 68 89 91 131 91c51 0 75 -37 75 -74c0 -45 -26 -73 -70 -88h-20c0 31 -10 55 -37 55c-22 0 -44 -12 -79 -56zM466 543c8 27 17 53 29 76c-14 59 -46 91 -87 91
c-51 0 -96 -41 -104 -167h162z" />
    <glyph glyph-name=".notdef" horiz-adv-x="960" 
 />
    <glyph glyph-name="space" unicode=" " horiz-adv-x="200" 
 />
    <glyph glyph-name="exclam" unicode="!" horiz-adv-x="326" 
d="M34 87c0 55 42 98 94 98c53 0 95 -43 95 -98c0 -53 -42 -96 -95 -96c-52 0 -94 43 -94 96zM364 702l-174 -470h-79l61 470h192z" />
    <glyph glyph-name="quotedbl" unicode="&#x22;" horiz-adv-x="448" 
d="M165 454h-34l7 147c2 59 1 107 25 137c13 17 34 30 66 30c49 0 66 -32 66 -62c0 -41 -28 -71 -48 -107zM372 454h-33l6 147c3 59 1 107 25 137c14 17 35 30 67 30c49 0 65 -32 65 -62c0 -41 -27 -71 -47 -107z" />
    <glyph glyph-name="numbersign" unicode="#" horiz-adv-x="594" 
d="M529 209h-130l-79 -219l-68 24l70 195h-124l-79 -219l-68 24l70 195h-82v68h107l54 149h-106v67h130l79 219l68 -24l-71 -195h125l79 219l68 -24l-71 -195h83v-67h-107l-54 -149h106v-68zM276 426l-54 -149h125l54 149h-125z" />
    <glyph glyph-name="dollar" unicode="$" horiz-adv-x="581" 
d="M193 -113l21 106c-93 10 -164 52 -196 90l27 158h79c4 -97 40 -164 104 -184l45 221l-8 4c-112 55 -165 118 -165 211c0 138 111 219 260 219h2l21 102h52l-22 -105c76 -10 130 -38 167 -71l-30 -147h-69c-9 69 -28 128 -82 150l-42 -207c115 -57 182 -108 182 -215
c0 -154 -134 -226 -272 -229l-21 -103h-53zM385 154c0 42 -18 68 -65 98l-41 -201c61 2 106 36 106 103zM245 555c0 -43 21 -68 65 -95l39 190h-1c-66 0 -103 -40 -103 -95z" />
    <glyph glyph-name="percent" unicode="%" horiz-adv-x="917" 
d="M293 665c-52 0 -100 -97 -100 -207c0 -44 13 -74 45 -74c52 0 100 98 100 207c0 44 -13 74 -45 74zM128 -19l607 741h74l-609 -741h-72zM233 337c-86 0 -156 51 -156 145c0 151 118 230 221 230c85 0 156 -50 156 -144c0 -152 -119 -231 -221 -231zM643 38
c52 0 100 97 100 207c0 44 -13 74 -44 74c-53 0 -100 -98 -100 -207c0 -44 12 -74 44 -74zM704 366c85 0 156 -51 156 -145c0 -151 -119 -230 -222 -230c-85 0 -156 50 -156 144c0 152 119 231 222 231z" />
    <glyph glyph-name="ampersand" unicode="&#x26;" horiz-adv-x="749" 
d="M21 175c0 111 87 180 210 214c-17 32 -36 77 -36 127c0 112 91 196 234 196c120 0 188 -55 188 -139c0 -94 -92 -147 -200 -181l120 -186c20 31 32 67 32 102c0 22 -11 30 -39 30l11 61h213l-11 -61c-72 0 -93 -15 -117 -72c-16 -37 -36 -72 -60 -104l30 -47
c25 -37 47 -52 94 -52l-11 -63h-180c-23 15 -40 32 -56 50c-62 -38 -133 -60 -210 -60c-117 0 -212 62 -212 185zM327 72c26 0 55 8 84 21l-16 26l-141 230c-48 -27 -70 -79 -70 -134c0 -78 50 -143 143 -143zM337 572c0 -53 30 -103 51 -134l4 -6c56 24 92 64 92 141
c0 54 -26 84 -72 84c-44 0 -75 -33 -75 -85z" />
    <glyph glyph-name="quoteright" unicode="&#x2019;" horiz-adv-x="320" 
d="M253 603h-36c-41 9 -67 33 -67 79c0 48 33 86 91 86c60 0 102 -41 102 -113c0 -99 -86 -184 -228 -186v55c69 9 129 31 138 79z" />
    <glyph glyph-name="parenleft" unicode="(" horiz-adv-x="378" 
d="M65 201c0 219 132 429 311 569h92c-210 -183 -275 -436 -275 -595c0 -126 23 -228 86 -316h-87c-82 88 -127 216 -127 342z" />
    <glyph glyph-name="parenright" unicode=")" horiz-adv-x="378" 
d="M348 428c0 -219 -132 -429 -311 -569h-92c210 183 275 436 275 595c0 126 -23 228 -86 316h87c82 -88 127 -216 127 -342z" />
    <glyph glyph-name="asterisk" unicode="*" horiz-adv-x="487" 
d="M418 379l-93 143l-19 -169l-99 31l77 150l-156 -67l-23 102l169 8l-136 101l76 73l93 -145l18 170l100 -31l-78 -150l157 67l23 -102l-169 -8l136 -101z" />
    <glyph glyph-name="plus" unicode="+" horiz-adv-x="595" 
d="M319 593h86l-39 -184h185l-19 -87h-184l-39 -184h-86l39 184h-185l20 87h183z" />
    <glyph glyph-name="comma" unicode="," horiz-adv-x="313" 
d="M135 14h-34c-41 9 -67 33 -67 80s33 86 91 86c61 0 102 -42 102 -113c0 -102 -95 -203 -238 -205v57c74 6 135 34 146 95z" />
    <glyph glyph-name="hyphen" unicode="-" horiz-adv-x="360" 
d="M302 251h-256l24 108h256z" />
    <glyph glyph-name="period" unicode="." horiz-adv-x="313" 
d="M30 90c0 59 44 101 100 101s101 -42 101 -101c0 -58 -45 -100 -101 -100s-100 42 -100 100z" />
    <glyph glyph-name="slash" unicode="/" horiz-adv-x="433" 
d="M516 770l-471 -911h-98l470 911h99z" />
    <glyph glyph-name="zero" unicode="0" horiz-adv-x="670" 
d="M296 58c121 0 187 294 187 448c0 86 -17 138 -74 138c-120 0 -187 -294 -187 -448c0 -86 18 -138 74 -138zM287 -10c-139 0 -238 108 -238 273c0 216 138 449 370 449c140 0 237 -108 237 -273c0 -216 -137 -449 -369 -449z" />
    <glyph glyph-name="one" unicode="1" horiz-adv-x="458" 
d="M370 711h54l-119 -556c-3 -14 -6 -31 -6 -44c0 -40 21 -47 103 -49l-12 -62h-398l13 62c92 2 114 11 127 71l84 393h-126l11 56l44 7c99 16 153 49 225 122z" />
    <glyph glyph-name="two" unicode="2" horiz-adv-x="555" 
d="M157 132h136c90 0 102 6 168 97h52l-76 -229h-479l10 49c325 259 401 348 401 445c0 59 -31 94 -93 94c-69 0 -120 -41 -158 -80l-30 41c54 89 143 163 266 163c124 0 190 -68 190 -173c0 -155 -180 -268 -387 -407z" />
    <glyph glyph-name="three" unicode="3" horiz-adv-x="548" 
d="M175 365c98 33 200 78 200 160c0 42 -29 70 -79 70c-52 0 -99 -29 -139 -70l-32 41c57 84 143 146 253 146c108 0 166 -57 166 -138c0 -110 -116 -165 -205 -184c96 -8 173 -76 173 -165c0 -161 -140 -235 -291 -235c-140 0 -219 68 -219 148c0 47 26 77 60 91h93
c-8 -25 -12 -41 -12 -67c0 -54 21 -115 89 -115c71 0 116 56 116 149c0 77 -48 128 -115 128c-16 0 -30 -1 -52 -5z" />
    <glyph glyph-name="four" unicode="4" horiz-adv-x="646" 
d="M108 253h229l61 289zM311 131l11 50h-322l13 58l459 463h125l-93 -449h118l-16 -72h-118l-9 -44c-2 -10 -4 -26 -4 -33c0 -33 19 -41 72 -43l-11 -61h-338l13 61c69 3 89 15 100 70z" />
    <glyph glyph-name="five" unicode="5" horiz-adv-x="547" 
d="M568 702l-44 -152h-295l-31 -88c172 -6 311 -62 311 -230c0 -151 -122 -242 -277 -242c-140 0 -222 60 -222 143c0 41 23 77 61 89h88c-7 -22 -10 -36 -10 -56c0 -66 40 -114 108 -114c77 0 113 46 113 124c0 109 -122 143 -276 145l128 381h346z" />
    <glyph glyph-name="six" unicode="6" horiz-adv-x="617" 
d="M585 668c-163 -54 -288 -141 -342 -277c44 40 99 67 160 67c116 0 190 -76 190 -193c0 -157 -127 -275 -292 -275c-146 0 -254 92 -254 259c0 237 226 422 524 463zM324 383c-40 0 -70 -15 -95 -32c-10 -37 -15 -78 -15 -122c0 -100 32 -175 101 -175
c73 0 121 92 121 195c0 74 -34 134 -112 134z" />
    <glyph glyph-name="seven" unicode="7" horiz-adv-x="529" 
d="M455 549h-235c-47 0 -74 -21 -111 -84h-54l94 237h463l-9 -42l-429 -660h-130z" />
    <glyph glyph-name="eight" unicode="8" horiz-adv-x="597" 
d="M590 552c0 -92 -83 -141 -173 -155l16 -9c76 -41 119 -97 119 -177c0 -133 -120 -221 -277 -221c-153 0 -255 71 -255 177c0 96 86 152 185 161l-11 8c-43 31 -82 85 -82 154c0 131 108 222 262 222c134 0 216 -65 216 -160zM330 256l-92 53c-58 -32 -90 -76 -90 -133
c0 -79 51 -123 132 -123c70 0 126 41 126 103c0 49 -24 71 -76 100zM313 458l69 -41c51 30 88 74 88 135c0 58 -36 97 -104 97c-63 0 -113 -38 -113 -99c0 -42 21 -68 60 -92z" />
    <glyph glyph-name="nine" unicode="9" horiz-adv-x="617" 
d="M69 34c163 54 288 140 342 277c-44 -40 -100 -67 -160 -67c-116 0 -190 76 -190 193c0 157 127 275 292 275c146 0 254 -92 254 -259c0 -237 -226 -422 -524 -463zM330 319c40 0 70 14 94 32c10 37 16 78 16 122c0 100 -32 175 -101 175c-73 0 -121 -92 -121 -195
c0 -74 34 -134 112 -134z" />
    <glyph glyph-name="colon" unicode=":" horiz-adv-x="313" 
d="M30 90c0 59 44 101 100 101s101 -42 101 -101c0 -58 -45 -100 -101 -100s-100 42 -100 100zM93 392c0 58 45 101 100 101c56 0 101 -43 101 -101c0 -59 -45 -100 -101 -100c-55 0 -100 41 -100 100z" />
    <glyph glyph-name="semicolon" unicode=";" horiz-adv-x="313" 
d="M135 14h-34c-41 9 -67 33 -67 80s33 86 91 86c61 0 102 -42 102 -113c0 -102 -95 -203 -238 -205v57c74 6 135 34 146 95zM93 392c0 58 45 101 100 101c56 0 101 -43 101 -101c0 -59 -45 -100 -101 -100c-55 0 -100 41 -100 100z" />
    <glyph glyph-name="less" unicode="&#x3c;" horiz-adv-x="452" 
d="M74 358l2 10l375 206l-21 -105l-210 -110l162 -108l-20 -98z" />
    <glyph glyph-name="equal" unicode="=" horiz-adv-x="607" 
d="M70 244l17 82h455l-17 -82h-455zM103 407l18 82h456l-19 -82h-455z" />
    <glyph glyph-name="greater" unicode="&#x3e;" horiz-adv-x="452" 
d="M424 368l-2 -10l-377 -205l23 106l209 108l-164 110l22 97z" />
    <glyph glyph-name="question" unicode="?" horiz-adv-x="470" 
d="M104 87c0 55 42 98 95 98s95 -43 95 -98c0 -53 -42 -96 -95 -96s-95 43 -95 96zM280 459c58 33 92 61 92 123c0 40 -23 70 -67 70c-56 0 -82 -47 -82 -99c0 -19 2 -30 5 -43h-103c-17 14 -28 32 -28 58c0 86 96 144 215 144c126 0 198 -65 198 -162
c0 -95 -67 -145 -139 -183c-68 -36 -121 -66 -121 -119c0 -8 1 -14 2 -21h-42c-28 24 -47 51 -47 89c0 55 38 97 117 143z" />
    <glyph glyph-name="at" unicode="@" horiz-adv-x="915" 
d="M619 77c-99 0 -125 78 -107 161h-5c-38 -81 -92 -161 -166 -161c-59 0 -103 48 -103 128c0 139 112 289 254 289c42 0 72 -19 88 -38l73 31h52l-33 -93l-51 -185c-10 -38 -6 -78 28 -78c109 0 144 173 144 257c0 140 -100 255 -273 255c-228 0 -383 -195 -383 -423
c0 -196 142 -295 322 -295c111 0 185 24 274 70l14 -32c-73 -59 -174 -100 -306 -100c-216 0 -385 130 -385 350c0 254 192 480 467 480c222 0 347 -139 347 -303c0 -145 -82 -313 -251 -313zM401 164c48 0 116 111 146 248c-9 22 -19 35 -40 35c-79 0 -139 -133 -139 -229
c0 -34 11 -54 33 -54z" />
    <glyph glyph-name="A" unicode="A" horiz-adv-x="751" 
d="M470 145l-14 72h-263l-44 -72c-10 -16 -18 -34 -18 -49c0 -23 17 -33 68 -35l-12 -61h-226l13 61c28 5 48 10 65 37l332 530l-18 77h174l129 -607c5 -25 22 -33 52 -37l-12 -61h-321l13 61c58 3 86 12 86 48c0 11 -1 23 -4 36zM394 540l-161 -259h211z" />
    <glyph glyph-name="B" unicode="B" horiz-adv-x="708" 
d="M-14 0l13 61c68 3 88 15 100 70l92 435c2 10 4 25 4 32c0 33 -18 41 -73 43l12 61h346c148 0 225 -53 225 -153c0 -121 -103 -178 -219 -187c112 -6 183 -58 183 -144c0 -146 -133 -218 -310 -218h-373zM368 328h-57l-40 -190c-3 -17 -5 -25 -5 -33c0 -33 24 -43 71 -43
h10c78 0 148 47 148 155c0 72 -37 111 -127 111zM413 636h-37l-52 -244h41c102 0 167 47 167 151c0 66 -42 93 -119 93z" />
    <glyph glyph-name="C" unicode="C" horiz-adv-x="696" 
d="M362 -10c-201 0 -304 120 -304 281c0 252 189 441 432 441c101 0 176 -30 223 -74l-33 -157h-81c-7 103 -30 165 -111 165c-155 0 -249 -210 -249 -391c0 -120 42 -195 133 -195c90 0 135 59 197 183h85l-44 -187c-67 -40 -153 -66 -248 -66z" />
    <glyph glyph-name="D" unicode="D" horiz-adv-x="782" 
d="M421 636h-45l-103 -488c-4 -18 -5 -32 -5 -41c0 -33 18 -41 62 -41h10c170 0 251 203 251 363c0 127 -48 207 -170 207zM-14 0l13 61c68 3 88 15 100 70l92 435c2 10 4 25 4 32c0 33 -18 41 -73 43l12 61h302c215 0 336 -109 336 -288c0 -243 -186 -414 -446 -414h-340z
" />
    <glyph glyph-name="E" unicode="E" horiz-adv-x="673" 
d="M-14 0l13 61c68 3 88 15 100 70l92 435c2 10 4 25 4 32c0 33 -18 41 -73 43l12 61h575l-40 -186h-62c-15 83 -30 122 -110 122h-121l-51 -244h91c44 0 67 21 90 81h58l-48 -228h-58c0 59 -12 81 -56 81h-91l-38 -183c-4 -14 -5 -27 -5 -35c0 -37 25 -46 73 -46h33
c75 0 117 36 196 137h69l-73 -201h-580z" />
    <glyph glyph-name="F" unicode="F" horiz-adv-x="626" 
d="M-14 0l13 61c68 3 88 15 100 70l92 435c2 10 4 25 4 32c0 33 -18 41 -73 43l12 61h565l-40 -188h-66c-14 83 -29 124 -110 124h-106l-54 -253h78c45 0 67 20 90 80h58l-47 -228h-59c0 61 -11 82 -56 82h-78l-36 -175c-3 -11 -5 -24 -5 -36c0 -42 32 -48 107 -50l-11 -58
h-378z" />
    <glyph glyph-name="G" unicode="G" horiz-adv-x="757" 
d="M58 271c0 251 192 441 441 441c94 0 175 -30 222 -74l-34 -157h-81c-6 103 -36 165 -116 165c-156 0 -251 -210 -251 -392c0 -120 44 -194 136 -194c41 0 63 7 90 21l31 127c3 12 5 23 5 31c0 31 -21 38 -74 40l14 64h322l-12 -64c-68 -2 -83 -14 -95 -68l-35 -145
c-71 -48 -161 -76 -257 -76c-200 0 -306 118 -306 281z" />
    <glyph glyph-name="H" unicode="H" horiz-adv-x="860" 
d="M815 571l-92 -435c-2 -10 -4 -25 -4 -32c0 -33 18 -41 73 -43l-12 -61h-341l12 61c69 3 90 15 101 70l41 197h-282l-40 -192c-2 -10 -4 -25 -4 -32c0 -33 18 -41 72 -43l-12 -61h-341l13 61c68 3 88 15 100 70l92 435c2 10 4 25 4 32c0 33 -18 41 -73 43l12 61h341
l-12 -61c-69 -3 -89 -15 -100 -70l-38 -177h282l36 172c2 10 4 25 4 32c0 33 -17 41 -72 43l13 61h340l-13 -61c-68 -3 -88 -15 -100 -70z" />
    <glyph glyph-name="I" unicode="I" horiz-adv-x="407" 
d="M363 571l-92 -435c-2 -10 -4 -25 -4 -32c0 -33 18 -41 72 -43l-12 -61h-341l13 61c68 3 88 15 100 70l92 435c2 10 4 25 4 32c0 33 -18 41 -73 43l12 61h341l-12 -61c-69 -3 -89 -15 -100 -70z" />
    <glyph glyph-name="J" unicode="J" horiz-adv-x="591" 
d="M310 188l80 378c2 10 4 25 4 32c0 33 -18 41 -73 43l12 61h342l-13 -61c-69 -3 -89 -15 -100 -70l-76 -354c-34 -159 -130 -227 -285 -227c-140 0 -206 60 -206 138c0 47 28 83 61 99h120c-15 -39 -22 -65 -22 -99c0 -38 16 -75 58 -75c51 0 79 47 98 135z" />
    <glyph glyph-name="K" unicode="K" horiz-adv-x="769" 
d="M490 408l135 -273c29 -57 48 -74 99 -74l-12 -61h-196c-29 21 -52 64 -78 120l-108 237l254 210c20 18 35 30 35 44c0 16 -17 28 -58 30l13 61h261l-12 -61c-47 -2 -67 -9 -111 -47zM363 571l-92 -435c-2 -10 -4 -25 -4 -32c0 -33 18 -41 72 -43l-12 -61h-341l13 61
c68 3 88 15 100 70l92 435c2 10 4 25 4 32c0 33 -18 41 -73 43l12 61h341l-12 -61c-69 -3 -89 -15 -100 -70z" />
    <glyph glyph-name="L" unicode="L" horiz-adv-x="655" 
d="M363 571l-91 -427c-3 -14 -5 -27 -5 -36c0 -32 22 -42 70 -42h31c69 0 98 31 200 163h74l-85 -229h-571l13 61c68 3 88 15 100 70l92 435c2 10 4 25 4 32c0 33 -18 41 -73 43l12 61h341l-12 -61c-69 -3 -89 -15 -100 -70z" />
    <glyph glyph-name="M" unicode="M" horiz-adv-x="991" 
d="M700 150l22 350l-289 -500h-62l-78 505l-123 -345c-7 -19 -12 -40 -12 -55c0 -32 25 -41 84 -44l-12 -61h-264l13 61c56 3 79 15 96 61l164 448c9 52 -6 68 -70 71l13 61h251c0 -23 1 -42 4 -66l56 -402l233 406c13 25 21 39 29 62h254l-13 -61c-67 -3 -88 -20 -100 -73
l-27 -446c-3 -48 15 -58 72 -61l-12 -61h-353l12 61c65 4 107 15 112 89z" />
    <glyph glyph-name="N" unicode="N" horiz-adv-x="787" 
d="M602 266l62 300c3 10 5 25 5 32c0 33 -18 41 -73 43l12 61h252l-12 -61c-68 -3 -89 -15 -101 -70l-119 -571h-72l-295 517l-79 -381c-2 -10 -4 -25 -4 -32c0 -33 17 -41 72 -43l-13 -61h-251l13 61c68 3 88 15 100 70l97 458c-24 42 -37 48 -75 52l13 61h234z" />
    <glyph glyph-name="O" unicode="O" horiz-adv-x="755" 
d="M348 57c136 0 215 228 215 395c0 115 -27 193 -108 193c-136 0 -215 -228 -215 -395c0 -115 27 -193 108 -193zM344 -10c-177 0 -286 111 -286 285c0 222 162 437 401 437c177 0 286 -111 286 -285c0 -222 -162 -437 -401 -437z" />
    <glyph glyph-name="P" unicode="P" horiz-adv-x="672" 
d="M299 273l-26 -129c-3 -11 -5 -24 -5 -36c0 -42 32 -48 107 -50l-11 -58h-378l13 61c68 3 88 15 100 70l92 435c2 10 4 25 4 32c0 33 -18 41 -73 43l12 61h330c170 0 244 -74 244 -179c0 -167 -138 -250 -329 -250h-80zM376 636l-65 -302h41c98 0 182 52 182 181
c0 79 -38 121 -118 121h-40z" />
    <glyph glyph-name="Q" unicode="Q" horiz-adv-x="755" 
d="M327 -73l-34 67c-146 19 -234 125 -234 281c0 222 162 437 401 437c177 0 286 -111 286 -285c0 -191 -120 -377 -306 -425l50 -51c41 -44 70 -68 125 -70l-6 -31c-30 -19 -67 -29 -114 -29c-72 0 -127 26 -168 106zM349 57c136 0 215 228 215 395c0 115 -27 193 -108 193
c-136 0 -215 -228 -215 -395c0 -115 27 -193 108 -193z" />
    <glyph glyph-name="R" unicode="R" horiz-adv-x="746" 
d="M413 636h-41l-59 -279h35c116 0 195 43 195 162c0 75 -41 117 -130 117zM300 295l-33 -159c-2 -10 -4 -25 -4 -32c0 -33 18 -41 72 -43l-12 -61h-337l13 61c68 3 88 15 100 70l92 435c2 10 4 25 4 32c0 33 -18 41 -73 43l12 61h340c161 0 242 -61 242 -181
c0 -111 -96 -183 -204 -201l86 -181c28 -60 45 -77 103 -78l-13 -61h-201c-27 26 -47 65 -65 112l-71 183h-51z" />
    <glyph glyph-name="S" unicode="S" horiz-adv-x="583" 
d="M263 -10c-116 0 -205 49 -242 93l27 158h79c5 -117 56 -190 148 -190c65 0 113 34 113 103c0 56 -31 84 -120 128c-112 55 -165 118 -165 211c0 138 111 219 260 219c105 0 175 -34 220 -74l-30 -147h-69c-11 88 -38 159 -133 159c-66 0 -103 -40 -103 -95
s35 -81 112 -120c115 -57 182 -109 182 -216c0 -156 -138 -229 -279 -229z" />
    <glyph glyph-name="T" unicode="T" horiz-adv-x="724" 
d="M144 702h640l-34 -230h-64c-21 117 -39 168 -122 168h-28l-105 -495c-5 -22 -6 -32 -6 -39c0 -34 26 -43 82 -45l-12 -61h-357l13 61c67 3 95 15 106 70l108 509h-29c-82 0 -114 -50 -190 -168h-66z" />
    <glyph glyph-name="U" unicode="U" horiz-adv-x="772" 
d="M596 269l63 297c2 10 4 25 4 32c0 33 -18 41 -72 43l12 61h252l-13 -61c-67 -3 -89 -15 -100 -70l-68 -329c-36 -173 -157 -252 -308 -252c-161 0 -260 77 -260 216c0 22 3 46 10 78l59 282c2 10 4 25 4 32c0 33 -18 41 -73 43l12 61h342l-13 -61
c-69 -3 -89 -15 -100 -70l-60 -280c-5 -25 -8 -48 -8 -70c0 -86 44 -137 124 -137c95 0 162 41 193 185z" />
    <glyph glyph-name="V" unicode="V" horiz-adv-x="728" 
d="M414 215l211 342c12 20 18 35 18 50c0 23 -18 31 -67 34l13 61h234l-13 -61c-30 -5 -51 -10 -68 -37l-385 -609h-51l-161 609c-6 27 -22 32 -49 37l13 61h321l-12 -61c-62 -4 -89 -18 -89 -58c0 -10 1 -18 5 -32z" />
    <glyph glyph-name="W" unicode="W" horiz-adv-x="1005" 
d="M732 231l168 312c12 23 25 45 25 66s-16 30 -66 32l13 61h228l-13 -61c-29 -5 -52 -9 -69 -37l-347 -609h-65l-57 396l-225 -396h-63l-116 609c-4 25 -23 32 -49 37l13 61h311l-13 -61c-40 -3 -78 -12 -79 -60c0 -9 1 -20 3 -34l57 -321l147 258l-16 120
c-3 24 -18 32 -44 37l13 61h303l-12 -61c-52 -3 -87 -16 -87 -65c0 -10 1 -21 2 -36z" />
    <glyph glyph-name="X" unicode="X" horiz-adv-x="732" 
d="M695 603l-217 -216l150 -288c11 -21 30 -34 61 -38l-12 -61h-316l12 61c38 0 63 8 63 36c0 10 -3 22 -13 43l-78 155l-147 -155c-21 -21 -33 -35 -33 -52s12 -26 58 -27l-12 -61h-250l13 61c39 0 67 15 89 38l249 255l-132 249c-11 20 -25 36 -57 38l13 61h321l-12 -61
c-43 0 -71 -9 -71 -35c0 -11 3 -23 14 -44l60 -115l109 115c20 19 32 35 32 51c0 19 -12 27 -54 28l13 61h248l-13 -61c-38 0 -65 -15 -88 -38z" />
    <glyph glyph-name="Y" unicode="Y" horiz-adv-x="687" 
d="M408 338l161 207c19 25 34 43 34 62c0 21 -16 31 -64 34l13 61h230l-13 -61c-30 -5 -47 -11 -68 -37l-269 -342l-27 -128c-3 -11 -4 -21 -4 -28c0 -34 24 -43 81 -45l-13 -61h-347l13 61c66 3 94 15 105 70l28 132l-123 341c-9 26 -22 32 -49 37l13 61h312l-13 -61
c-47 0 -81 -10 -81 -51c0 -14 3 -28 10 -46z" />
    <glyph glyph-name="Z" unicode="Z" horiz-adv-x="640" 
d="M207 66h135c84 0 107 26 207 159h71l-82 -225h-561l9 43l489 592h-133c-82 0 -104 -47 -166 -137h-61l44 204h544l-10 -44z" />
    <glyph glyph-name="bracketleft" unicode="[" horiz-adv-x="348" 
d="M287 662l-147 -690c-3 -12 -3 -17 -3 -23c0 -35 33 -38 102 -42l-10 -48h-226l194 911h226l-10 -48c-81 -5 -115 -8 -126 -60z" />
    <glyph glyph-name="backslash" unicode="\" horiz-adv-x="433" 
d="M250 -141l-85 911h94l85 -911h-94z" />
    <glyph glyph-name="bracketright" unicode="]" horiz-adv-x="348" 
d="M92 -33l146 690c3 12 3 17 3 23c0 35 -33 38 -102 42l10 48h226l-193 -911h-226l10 48c81 5 115 8 126 60z" />
    <glyph glyph-name="asciicircum" unicode="^" horiz-adv-x="484" 
d="M299 770h110l86 -290h-102l-54 197l-136 -197h-112z" />
    <glyph glyph-name="underscore" unicode="_" horiz-adv-x="440" 
d="M351 -159h-399l18 93h400z" />
    <glyph glyph-name="quoteleft" unicode="&#x2018;" horiz-adv-x="320" 
d="M218 634h36c41 -9 67 -33 67 -79c0 -48 -33 -86 -91 -86c-60 0 -102 41 -102 113c0 99 86 184 228 186v-55c-69 -9 -129 -31 -138 -79z" />
    <glyph glyph-name="a" unicode="a" horiz-adv-x="675" 
d="M235 100c68 0 161 160 204 353c-13 30 -24 47 -57 47c-110 0 -192 -188 -192 -325c0 -45 13 -75 45 -75zM476 504l96 53h63l-39 -135l-69 -279c-5 -19 -8 -33 -8 -41c0 -10 5 -15 14 -15c19 0 44 25 82 73l29 -26c-65 -94 -122 -144 -192 -144c-58 0 -91 41 -91 100
c0 32 13 69 29 123h-7c-51 -109 -121 -223 -225 -223c-77 0 -130 65 -130 171c0 192 139 394 332 394c55 0 86 -21 116 -51z" />
    <glyph glyph-name="b" unicode="b" horiz-adv-x="642" 
d="M39 134l123 512l-64 42l9 31l215 42h32l-75 -309l-56 -156h7c57 117 147 259 256 259c89 0 129 -66 129 -169c0 -192 -149 -396 -369 -396c-101 0 -185 50 -207 144zM405 445c-66 0 -176 -164 -215 -340c2 -37 27 -62 61 -62c110 0 200 191 201 327c0 47 -15 75 -47 75z
" />
    <glyph glyph-name="c" unicode="c" horiz-adv-x="501" 
d="M343 498c-83 0 -152 -159 -152 -285c0 -76 29 -124 86 -124c51 0 93 19 147 80l26 -26c-56 -98 -140 -153 -233 -153c-122 0 -189 85 -189 202c0 180 140 363 335 363c78 0 138 -31 138 -101c0 -38 -23 -68 -63 -79h-49c5 70 -3 123 -46 123z" />
    <glyph glyph-name="d" unicode="d" horiz-adv-x="681" 
d="M236 100c69 0 172 162 212 365c-15 28 -40 37 -62 37c-112 0 -196 -190 -196 -327c0 -45 14 -75 46 -75zM492 646l-64 42l9 31l211 42h33l-147 -618c-5 -19 -8 -33 -8 -41c0 -10 5 -15 14 -15c19 0 44 25 82 73l29 -26c-65 -94 -122 -144 -191 -144c-59 0 -92 41 -92 98
c0 34 11 71 25 126h-7c-50 -109 -123 -224 -228 -224c-77 0 -130 65 -130 171c0 192 142 394 334 394c48 0 84 -18 100 -38z" />
    <glyph glyph-name="e" unicode="e" horiz-adv-x="518" 
d="M510 435c0 -110 -132 -167 -326 -204v-17c0 -80 39 -132 100 -132c59 0 104 27 156 87l27 -25c-65 -107 -160 -154 -248 -154c-124 0 -191 90 -191 206c0 180 149 359 339 359c94 0 143 -56 143 -120zM341 496c-71 0 -137 -114 -153 -228c133 38 192 91 192 173
c0 29 -11 55 -39 55z" />
    <glyph glyph-name="f" unicode="f" horiz-adv-x="376" 
d="M50 482l11 49l81 20c36 137 107 218 251 218c76 0 139 -25 139 -86c0 -32 -19 -58 -53 -68h-54c6 56 -1 106 -41 106c-41 0 -70 -51 -80 -175h124l-12 -64h-119l-54 -254c-70 -331 -166 -435 -298 -435c-72 0 -120 29 -120 77c0 46 35 70 74 75h25c3 -61 16 -108 47 -108
s44 39 70 183l86 462h-77z" />
    <glyph glyph-name="g" unicode="g" horiz-adv-x="563" 
d="M327 555c37 0 70 -8 98 -23l193 18l-22 -89h-42l-68 20c17 -24 27 -51 27 -79c0 -127 -124 -202 -267 -202c-22 0 -42 2 -60 7c-22 -9 -35 -20 -35 -36c0 -15 11 -23 32 -28l168 -36c89 -19 147 -53 147 -133c0 -107 -121 -183 -295 -183c-131 0 -265 48 -265 134
c0 68 79 96 147 102c-24 22 -37 42 -37 76c0 55 44 88 107 113c-59 24 -95 74 -95 144c0 120 123 195 267 195zM301 -37l-193 43c-39 -14 -58 -35 -58 -68c0 -57 70 -92 157 -92c86 0 152 29 152 74c0 25 -21 34 -58 43zM259 248c50 0 103 71 103 178c0 44 -13 81 -48 81
c-51 0 -104 -72 -104 -179c0 -43 13 -80 49 -80z" />
    <glyph glyph-name="h" unicode="h" horiz-adv-x="671" 
d="M284 448l-49 -151h7c92 158 190 258 285 258c54 0 82 -33 82 -84c0 -13 -3 -31 -6 -44l-76 -284c-5 -19 -9 -33 -9 -41c0 -10 5 -15 14 -15c19 0 44 25 83 73l28 -26c-65 -94 -122 -144 -191 -144c-59 0 -98 37 -98 89c0 26 4 51 14 86l67 231c3 13 5 25 5 33
c0 12 -5 19 -18 19c-42 0 -166 -143 -210 -312l-35 -136h-164l154 646l-64 42l9 31l215 42h32z" />
    <glyph glyph-name="i" unicode="i" horiz-adv-x="363" 
d="M316 555l-104 -412c-5 -19 -8 -33 -8 -41c0 -10 5 -15 14 -15c19 0 45 25 83 73l29 -26c-65 -94 -122 -144 -192 -144c-58 0 -96 37 -96 89c0 26 5 51 13 86l69 277l-56 44l9 31l206 38h33zM256 597c-55 0 -89 39 -89 83c0 51 37 94 97 94c55 0 90 -38 90 -82
c0 -51 -38 -95 -98 -95z" />
    <glyph glyph-name="j" unicode="j" horiz-adv-x="332" 
d="M263 597c-54 0 -89 39 -89 83c0 51 37 94 97 94c55 0 89 -38 89 -82c0 -51 -36 -95 -97 -95zM30 -8l101 450l-56 44l9 31l206 38h33l-112 -453c-49 -197 -137 -309 -271 -309c-72 0 -120 29 -120 77c0 46 35 70 74 75h25c3 -61 14 -107 44 -107c31 0 43 47 67 154z" />
    <glyph glyph-name="k" unicode="k" horiz-adv-x="634" 
d="M394 361l73 -188c15 -39 27 -66 48 -66s38 13 70 53l26 -26c-63 -100 -111 -144 -174 -144c-55 0 -85 37 -109 103l-68 181l160 190c57 68 88 91 130 91c51 0 76 -37 76 -74c0 -45 -26 -73 -70 -88h-21c0 31 -9 55 -37 55c-22 0 -44 -12 -78 -56zM360 761l-183 -761h-164
l155 646l-64 42l9 31l215 42h32z" />
    <glyph glyph-name="l" unicode="l" horiz-adv-x="349" 
d="M163 646l-64 42l9 31l215 42h32l-153 -618c-5 -19 -7 -33 -7 -41c0 -10 5 -15 14 -15c19 0 44 25 82 73l29 -26c-65 -94 -122 -144 -192 -144c-58 0 -95 37 -95 89c0 26 4 51 13 86z" />
    <glyph glyph-name="m" unicode="m" horiz-adv-x="984" 
d="M557 298h7c90 157 181 257 276 257c54 0 82 -33 82 -84c0 -13 -3 -32 -6 -44l-76 -284c-5 -19 -9 -33 -9 -41c0 -10 5 -15 14 -15c19 0 44 25 83 73l28 -26c-65 -94 -122 -144 -191 -144c-59 0 -98 37 -98 89c0 25 4 52 14 86l66 228c3 13 5 25 5 33c0 11 -5 18 -18 18
c-43 0 -159 -138 -200 -303l-35 -141h-163l98 393c3 13 5 25 5 33c0 11 -5 18 -18 18c-41 0 -163 -138 -204 -303l-35 -141h-163l110 442l-56 44l9 31l205 41h34l-28 -110l-53 -150h7c92 157 185 257 280 257c54 0 77 -37 77 -83c0 -35 -18 -91 -47 -174z" />
    <glyph glyph-name="n" unicode="n" horiz-adv-x="676" 
d="M321 558l-29 -112l-51 -149h7c91 158 190 258 284 258c55 0 83 -33 83 -84c0 -13 -3 -31 -6 -44l-77 -284c-5 -19 -9 -33 -9 -41c0 -10 5 -15 14 -15c19 0 44 25 83 73l29 -26c-66 -94 -123 -144 -192 -144c-59 0 -97 37 -97 89c0 26 4 51 14 86l66 231c3 13 5 25 5 33
c0 12 -4 19 -17 19c-42 0 -167 -143 -211 -312l-35 -136h-163l110 442l-56 44l9 31l205 41h34z" />
    <glyph glyph-name="o" unicode="o" horiz-adv-x="591" 
d="M246 48c97 0 155 210 155 332c0 69 -16 117 -57 117c-96 0 -154 -210 -154 -332c0 -69 16 -117 56 -117zM242 -10c-124 0 -212 84 -212 224c0 183 128 341 319 341c124 0 212 -84 212 -224c0 -183 -128 -341 -319 -341z" />
    <glyph glyph-name="p" unicode="p" horiz-adv-x="651" 
d="M231 292h7c57 119 149 263 257 263c87 0 129 -66 129 -169c0 -192 -148 -396 -339 -396c-48 0 -82 24 -96 48l-25 -109c-3 -13 -5 -23 -5 -31c1 -28 22 -32 57 -36l-15 -59h-295l14 59c46 6 67 11 78 57l126 524l-57 43l9 31l204 41h33l-26 -113zM414 445
c-65 0 -172 -159 -212 -348c10 -31 25 -54 59 -54c109 0 199 190 199 326c0 47 -15 76 -46 76z" />
    <glyph glyph-name="q" unicode="q" horiz-adv-x="653" 
d="M363 555c54 0 89 -20 117 -51l95 53h63l-39 -135l-116 -493c-3 -13 -5 -23 -5 -31c1 -28 23 -32 57 -36l-14 -59h-295l14 59c46 6 67 11 78 57l39 162l38 133h-7c-51 -109 -123 -224 -228 -224c-78 0 -132 65 -132 171c0 192 144 394 335 394zM237 100
c70 0 166 165 205 354c-9 29 -26 46 -56 46c-112 0 -196 -188 -196 -325c0 -45 15 -75 47 -75z" />
    <glyph glyph-name="r" unicode="r" horiz-adv-x="511" 
d="M220 229h7c125 243 167 326 243 326c49 0 70 -34 70 -77c0 -57 -45 -101 -83 -119h-21c0 19 -6 37 -28 37c-69 0 -160 -150 -222 -396h-164l110 442l-55 44l9 31l203 41h33l-40 -152z" />
    <glyph glyph-name="s" unicode="s" horiz-adv-x="469" 
d="M210 43c39 0 61 22 61 57c0 71 -198 139 -198 264c0 113 90 191 218 191c83 0 148 -40 148 -102c0 -28 -24 -50 -53 -59h-29c-13 63 -50 106 -99 106c-41 0 -61 -19 -61 -50c0 -67 207 -147 207 -269c0 -117 -98 -191 -219 -191c-108 0 -186 50 -186 114
c0 38 26 64 59 75h26c16 -84 56 -136 126 -136z" />
    <glyph glyph-name="t" unicode="t" horiz-adv-x="423" 
d="M294 482l-76 -316c-6 -24 -9 -40 -9 -52c0 -17 7 -28 23 -28c32 0 67 31 127 95l29 -26c-76 -104 -151 -165 -239 -165c-71 0 -104 49 -104 104c0 26 3 46 10 76l76 312h-73l12 45c76 16 157 71 216 142h54l-30 -123h119l-16 -64h-119z" />
    <glyph glyph-name="u" unicode="u" horiz-adv-x="685" 
d="M407 244h-7c-81 -150 -172 -254 -264 -254c-63 0 -93 38 -93 95c0 18 3 39 8 61l72 296l-55 44l9 31l205 38h33l-100 -397c-3 -13 -5 -27 -5 -35c0 -16 4 -24 18 -24c53 0 171 165 211 320l30 117l165 9l-100 -402c-5 -19 -9 -33 -9 -41c0 -10 5 -15 14 -15
c19 0 45 25 83 73l29 -26c-65 -94 -120 -144 -190 -144c-59 0 -90 41 -90 100c0 31 13 81 36 154z" />
    <glyph glyph-name="v" unicode="v" horiz-adv-x="554" 
d="M84 448l-64 38l9 31l179 38h31l30 -409l86 100c43 48 76 102 76 149c0 48 -35 76 -87 76l1 18c21 34 59 66 114 66c62 0 89 -45 89 -96c0 -75 -64 -155 -140 -235l-216 -230h-62z" />
    <glyph glyph-name="w" unicode="w" horiz-adv-x="821" 
d="M383 448l-64 38l9 31l167 38h31l30 -408l83 102c40 46 58 98 58 145c0 49 -35 77 -87 77l1 18c21 34 60 66 114 66c63 0 89 -47 89 -99c0 -74 -55 -152 -121 -228l-205 -234h-60l-26 261l-210 -261h-58l-50 454l-64 38l9 31l175 38h31l34 -395l126 162z" />
    <glyph glyph-name="x" unicode="x" horiz-adv-x="587" 
d="M157 153l57 86l-76 213l-66 34l10 31l168 38h30l58 -181l49 80c43 70 82 101 130 101c52 0 80 -35 80 -73c0 -46 -30 -75 -71 -89h-22c0 36 -9 58 -32 58c-25 0 -38 -13 -68 -59l-48 -74l47 -147c13 -42 21 -65 44 -65c22 0 44 17 78 55l27 -26
c-74 -105 -124 -145 -185 -145c-53 0 -78 42 -99 101l-34 95l-60 -95c-40 -64 -80 -101 -135 -101c-47 0 -74 33 -74 72c0 48 28 77 70 92h22c0 -37 9 -60 33 -60c25 0 40 17 67 59z" />
    <glyph glyph-name="y" unicode="y" horiz-adv-x="558" 
d="M357 66c-156 -209 -252 -272 -349 -272c-59 0 -113 27 -113 88c0 34 23 65 60 77h29c0 -60 20 -95 75 -95c40 0 81 21 135 76l-111 508l-63 38l9 31l174 38h31l83 -464l12 16c86 121 105 218 105 276c0 60 -34 88 -87 88l1 18c21 34 59 66 114 66c63 0 90 -50 90 -101
c0 -111 -83 -240 -195 -388z" />
    <glyph glyph-name="z" unicode="z" horiz-adv-x="532" 
d="M367 411h-189c-32 0 -43 -7 -60 -34l-27 -43l-33 9l86 236h32c3 -25 8 -37 23 -37h354v-31l-370 -337l92 -28c19 -6 45 -13 73 -13c51 0 76 8 123 81l32 -10c-56 -149 -107 -218 -199 -218c-49 0 -87 15 -135 41l-94 51l-49 -81c-34 0 -52 13 -52 35c0 17 7 34 28 53z
" />
    <glyph glyph-name="braceleft" unicode="{" horiz-adv-x="383" 
d="M62 299l7 32c49 10 91 36 105 100l44 211c17 79 92 128 240 128l-9 -38c-49 -6 -100 -31 -114 -98l-45 -207c-15 -68 -43 -92 -114 -112c49 -16 71 -33 71 -75c0 -38 -51 -230 -51 -269c0 -48 36 -68 76 -73l-8 -39c-129 0 -189 38 -189 102c0 46 52 223 52 268
c0 42 -27 62 -65 70z" />
    <glyph glyph-name="bar" unicode="|" horiz-adv-x="293" 
d="M307 770l-194 -911h-93l194 911h93z" />
    <glyph glyph-name="braceright" unicode="}" horiz-adv-x="383" 
d="M350 330l-6 -32c-50 -10 -91 -36 -105 -100l-44 -211c-17 -79 -93 -128 -240 -128l9 38c49 6 100 31 114 98l44 207c15 68 43 92 114 112c-49 16 -71 33 -71 75c0 38 52 230 52 269c0 48 -36 68 -76 73l8 39c129 0 189 -38 189 -102c0 -46 -52 -223 -52 -268
c0 -42 26 -62 64 -70z" />
    <glyph glyph-name="asciitilde" unicode="~" horiz-adv-x="568" 
d="M481 438l57 -16c-36 -128 -93 -172 -163 -172c-57 0 -116 62 -162 62c-33 0 -60 -19 -85 -60l-57 17c36 128 93 171 163 171c57 0 116 -62 162 -62c33 0 60 20 85 60z" />
    <glyph glyph-name="exclamdown" unicode="&#xa1;" horiz-adv-x="326" 
d="M308 459c0 -55 -42 -98 -94 -98c-53 0 -95 43 -95 98c0 53 42 96 95 96c52 0 94 -43 94 -96zM-22 -156l174 470h79l-61 -470h-192z" />
    <glyph glyph-name="cent" unicode="&#xa2;" horiz-adv-x="549" 
d="M206 -116l22 107c-119 8 -189 92 -189 209c0 167 121 339 310 361l25 115h55l-24 -112c79 -4 139 -37 139 -103c0 -39 -24 -68 -64 -80h-46c6 70 -6 114 -41 126l-91 -428h1c61 0 109 33 163 94l30 -27c-51 -89 -127 -143 -212 -154l-23 -108h-55zM195 225
c0 -61 19 -109 55 -132l88 413c-91 -26 -143 -167 -143 -281z" />
    <glyph glyph-name="sterling" unicode="&#xa3;" horiz-adv-x="716" 
d="M125 335l12 55h108l17 57c46 169 138 265 303 265c95 0 166 -38 166 -107c0 -50 -30 -80 -70 -92h-91c14 28 23 51 23 87c0 27 -9 56 -45 56c-38 0 -60 -41 -81 -103l-55 -163h147l-13 -55h-153l-53 -158c59 -25 113 -52 183 -52c41 0 66 18 66 56c0 16 -10 33 -28 46
l23 27c38 -10 90 -41 90 -109c0 -104 -77 -155 -173 -155c-102 0 -176 58 -219 94c-42 -57 -108 -94 -183 -94s-115 48 -115 105c0 79 60 129 132 129c32 0 53 -6 77 -14l36 125h-104zM100 51c34 0 59 33 75 90c-18 10 -39 18 -62 18c-34 0 -60 -21 -60 -57
c0 -27 16 -51 47 -51z" />
    <glyph glyph-name="fraction" unicode="&#x2044;" horiz-adv-x="283" 
d="M-170 0l668 772h81l-668 -772h-81z" />
    <glyph glyph-name="yen" unicode="&#xa5;" horiz-adv-x="677" 
d="M93 328l12 54h102l-80 222c-10 26 -23 32 -50 37l13 61h320l-13 -61c-47 0 -81 -10 -82 -51c0 -14 4 -28 10 -46l67 -206l155 207c20 25 35 43 35 62c0 21 -18 31 -65 34l13 61h229l-12 -61c-30 -5 -47 -11 -67 -37l-172 -222h109l-12 -54h-138l-51 -66l-1 -2h175
l-12 -54h-174l-16 -72c-2 -11 -3 -21 -3 -28c0 -34 24 -43 81 -45l-13 -61h-349l13 61c66 3 94 15 106 70l16 75h-173l12 54h172l1 3l-24 65h-134z" />
    <glyph glyph-name="florin" unicode="&#x192;" horiz-adv-x="512" 
d="M61 294l14 57h91l12 54c45 200 109 307 271 307c77 0 139 -24 139 -85c0 -33 -20 -58 -54 -68h-53c6 56 0 106 -39 106c-30 0 -43 -30 -51 -67l-55 -247h111l-10 -57h-113l-35 -159c-50 -223 -114 -329 -275 -329c-78 0 -140 24 -140 84c0 34 20 58 54 69h54
c-6 -57 -1 -106 39 -106c29 0 43 30 50 67l82 374h-92z" />
    <glyph glyph-name="section" unicode="&#xa7;" horiz-adv-x="518" 
d="M125 -202c-83 0 -135 39 -135 102c0 46 37 66 66 77h81c-8 -15 -10 -33 -10 -46c0 -40 14 -76 52 -76s61 27 61 84c0 125 -140 234 -140 429c0 165 112 344 316 344c83 0 135 -39 135 -102c0 -46 -36 -66 -66 -77h-81c8 15 10 33 10 46c0 40 -13 76 -52 76
c-38 0 -60 -27 -60 -84c0 -125 140 -234 140 -429c0 -165 -113 -344 -317 -344zM249 606c-51 -53 -84 -141 -84 -238c0 -164 137 -289 137 -421c0 -13 -3 -30 -10 -43c51 53 85 141 85 238c0 164 -138 289 -138 421c0 13 3 30 10 43z" />
    <glyph glyph-name="currency" unicode="&#xa4;" horiz-adv-x="577" 
d="M296 233c69 0 126 57 126 134c0 67 -45 114 -108 114c-70 0 -127 -57 -127 -134c0 -67 45 -114 109 -114zM290 160c-49 0 -90 15 -121 41l-79 -70l-37 43l79 72c-16 27 -25 59 -25 95c0 52 18 100 49 137l-62 70l45 40l61 -69c33 22 73 35 118 35c46 0 85 -14 115 -38
l82 73l38 -43l-81 -72c19 -29 29 -64 29 -101c0 -54 -19 -103 -51 -140l63 -68l-46 -40l-61 69c-33 -22 -71 -34 -116 -34z" />
    <glyph glyph-name="quotesingle" unicode="'" horiz-adv-x="240" 
d="M165 454h-34l7 147c2 59 1 107 25 137c13 17 34 30 66 30c49 0 66 -32 66 -62c0 -41 -28 -71 -48 -107z" />
    <glyph glyph-name="quotedblleft" unicode="&#x201c;" horiz-adv-x="570" 
d="M218 634h36c41 -9 67 -33 67 -79c0 -48 -33 -86 -91 -86c-60 0 -102 41 -102 113c0 99 86 184 228 186v-55c-69 -9 -129 -31 -138 -79zM468 634h37c41 -9 67 -33 67 -79c0 -48 -33 -86 -92 -86c-60 0 -101 41 -101 113c0 99 85 184 228 186v-55c-70 -9 -130 -31 -139 -79
z" />
    <glyph glyph-name="guillemotleft" unicode="&#xab;" horiz-adv-x="549" 
d="M251 271l2 10l218 198h81l-159 -203l64 -203h-71zM34 271l2 10l219 198h81l-159 -203l64 -203h-71z" />
    <glyph glyph-name="guilsinglleft" unicode="&#x2039;" horiz-adv-x="332" 
d="M34 271l2 10l219 198h81l-159 -203l64 -203h-71z" />
    <glyph glyph-name="guilsinglright" unicode="&#x203a;" horiz-adv-x="332" 
d="M295 281l-2 -10l-218 -198h-82l159 203l-64 203h71z" />
    <glyph glyph-name="endash" unicode="&#x2013;" horiz-adv-x="580" 
d="M528 264h-482l18 82h482z" />
    <glyph glyph-name="dagger" unicode="&#x2020;" horiz-adv-x="494" 
d="M115 605l169 -20l17 173h97l-58 -173l179 20l-19 -93l-171 19l-43 -303h-97l85 303l-178 -19z" />
    <glyph glyph-name="daggerdbl" unicode="&#x2021;" horiz-adv-x="494" 
d="M284 555l-179 -19l20 93l169 -20l12 149h97l-53 -149l179 20l-20 -93l-170 19l-27 -124l179 19l-20 -93l-170 20l-11 -149h-97l52 149l-178 -20l20 93l170 -19z" />
    <glyph glyph-name="periodcentered" unicode="&#xb7;" horiz-adv-x="303" 
d="M58 304c0 59 44 101 100 101s101 -42 101 -101c0 -58 -45 -100 -101 -100s-100 42 -100 100z" />
    <glyph glyph-name="paragraph" unicode="&#xb6;" horiz-adv-x="659" 
d="M230 -197l84 397c-146 0 -227 87 -227 208c0 160 134 294 334 294h308l-14 -63c-77 0 -104 -12 -117 -73l-162 -763h-70l179 844h-66l-179 -844h-70zM325 252l85 398c-96 -10 -164 -137 -164 -247c0 -77 22 -146 79 -151z" />
    <glyph glyph-name="bullet" unicode="&#x2022;" horiz-adv-x="420" 
d="M61 307c0 86 69 157 153 157s153 -71 153 -157c0 -84 -69 -155 -153 -155s-153 71 -153 155z" />
    <glyph glyph-name="quotesinglbase" unicode="&#x201a;" horiz-adv-x="320" 
d="M143 12h-37c-41 9 -67 32 -67 79c0 48 33 86 92 86c60 0 101 -41 101 -113c0 -99 -85 -184 -228 -186v54c70 10 130 31 139 80z" />
    <glyph glyph-name="quotedblbase" unicode="&#x201e;" horiz-adv-x="570" 
d="M393 12h-36c-41 9 -67 32 -67 79c0 48 33 86 91 86c60 0 102 -41 102 -113c0 -99 -86 -184 -228 -186v54c69 10 129 31 138 80zM143 12h-37c-41 9 -67 32 -67 79c0 48 33 86 92 86c60 0 101 -41 101 -113c0 -99 -85 -184 -228 -186v54c70 10 130 31 139 80z" />
    <glyph glyph-name="quotedblright" unicode="&#x201d;" horiz-adv-x="570" 
d="M503 603h-36c-41 9 -67 33 -67 79c0 48 33 86 91 86c61 0 102 -41 102 -113c0 -99 -85 -184 -228 -186v55c70 9 130 31 138 79zM253 603h-36c-41 9 -67 33 -67 79c0 48 33 86 91 86c60 0 102 -41 102 -113c0 -99 -86 -184 -228 -186v55c69 9 129 31 138 79z" />
    <glyph glyph-name="guillemotright" unicode="&#xbb;" horiz-adv-x="549" 
d="M295 281l-2 -10l-218 -198h-82l159 203l-64 203h71zM511 281l-2 -10l-219 -198h-81l159 203l-63 203h70z" />
    <glyph glyph-name="ellipsis" unicode="&#x2026;" horiz-adv-x="938" 
d="M30 90c0 59 44 101 100 101s101 -42 101 -101c0 -58 -45 -100 -101 -100s-100 42 -100 100zM342 90c0 59 45 101 101 101s101 -42 101 -101c0 -58 -45 -100 -101 -100s-101 42 -101 100zM655 90c0 59 45 101 100 101c57 0 101 -42 101 -101c0 -58 -44 -100 -101 -100
c-55 0 -100 42 -100 100z" />
    <glyph glyph-name="perthousand" unicode="&#x2030;" horiz-adv-x="1329" 
d="M293 665c-52 0 -100 -97 -100 -207c0 -44 13 -74 45 -74c52 0 100 98 100 207c0 44 -13 74 -45 74zM128 -19l607 741h74l-609 -741h-72zM233 337c-86 0 -156 51 -156 145c0 151 118 230 221 230c85 0 156 -50 156 -144c0 -152 -119 -231 -221 -231zM643 38
c52 0 100 97 100 207c0 44 -13 74 -44 74c-53 0 -100 -98 -100 -207c0 -44 12 -74 44 -74zM704 366c85 0 156 -51 156 -145c0 -151 -119 -230 -222 -230c-85 0 -156 50 -156 144c0 152 119 231 222 231zM1056 38c52 0 100 97 100 207c0 44 -13 74 -45 74
c-52 0 -100 -98 -100 -207c0 -44 13 -74 45 -74zM1116 366c85 0 156 -51 156 -145c0 -151 -119 -230 -221 -230c-86 0 -156 50 -156 144c0 152 118 231 221 231z" />
    <glyph glyph-name="questiondown" unicode="&#xbf;" horiz-adv-x="470" 
d="M406 459c0 -55 -42 -98 -95 -98s-95 43 -95 98c0 53 42 96 95 96s95 -43 95 -96zM230 87c-58 -33 -92 -61 -92 -123c0 -40 23 -70 67 -70c56 0 82 47 82 99c0 19 -2 30 -5 43h103c17 -14 28 -32 28 -58c0 -86 -96 -144 -215 -144c-126 0 -198 65 -198 162
c0 95 67 145 139 183c68 36 121 66 121 119c0 8 -1 14 -2 21h42c28 -24 47 -51 47 -89c0 -55 -38 -97 -117 -143z" />
    <glyph glyph-name="grave" unicode="`" horiz-adv-x="500" 
d="M154 765h169l41 -162h-81z" />
    <glyph glyph-name="acute" unicode="&#xb4;" horiz-adv-x="500" 
d="M206 765h185l-195 -162h-87z" />
    <glyph glyph-name="circumflex" unicode="&#x2c6;" horiz-adv-x="500" 
d="M334 765l92 -169h-80l-90 84l-139 -84h-90l183 169h124z" />
    <glyph glyph-name="tilde" unicode="&#x2dc;" horiz-adv-x="500" 
d="M397 765l53 -11c-60 -120 -90 -144 -146 -144c-51 0 -94 65 -132 65c-29 0 -46 -24 -68 -57l-54 11c61 120 90 144 145 144c57 0 94 -64 133 -64c28 0 47 23 69 56z" />
    <glyph glyph-name="macron" unicode="&#xaf;" horiz-adv-x="500" 
d="M90 625l21 93h299l-21 -93h-299z" />
    <glyph glyph-name="breve" unicode="&#x2d8;" horiz-adv-x="500" 
d="M239 601c-80 0 -124 45 -124 114c0 16 3 35 10 56h60c-1 -6 -1 -11 -1 -15c0 -53 36 -68 74 -68c40 0 83 19 108 83h67c-26 -107 -95 -170 -194 -170z" />
    <glyph glyph-name="dotaccent" unicode="&#x2d9;" horiz-adv-x="500" 
d="M258 601c-55 0 -89 39 -89 83c0 51 36 94 97 94c54 0 89 -38 89 -82c0 -51 -37 -95 -97 -95z" />
    <glyph glyph-name="dieresis" unicode="&#xa8;" horiz-adv-x="500" 
d="M141 605c-50 0 -81 37 -81 78c0 47 34 88 87 88c50 0 80 -36 80 -78c0 -47 -33 -88 -86 -88zM354 605c-50 0 -81 37 -81 78c0 47 33 88 86 88c50 0 81 -36 81 -78c0 -47 -33 -88 -86 -88z" />
    <glyph glyph-name="ring" unicode="&#x2da;" horiz-adv-x="500" 
d="M254 648c33 0 52 24 52 52c0 24 -16 40 -43 40c-33 0 -52 -24 -52 -51c0 -24 15 -41 43 -41zM249 595c-60 0 -100 38 -100 91c0 62 55 107 119 107c60 0 100 -38 100 -90c0 -62 -55 -108 -119 -108z" />
    <glyph glyph-name="cedilla" unicode="&#xb8;" horiz-adv-x="500" 
d="M129 -231l-10 46c73 0 123 13 123 41c0 26 -30 35 -79 37l58 115h46l-27 -53c59 -5 89 -29 89 -75c0 -74 -99 -111 -200 -111z" />
    <glyph glyph-name="hungarumlaut" unicode="&#x2dd;" horiz-adv-x="500" 
d="M123 765h157l-176 -162h-81zM321 765h163l-181 -162h-81z" />
    <glyph glyph-name="ogonek" unicode="&#x2db;" horiz-adv-x="500" 
d="M340 41l9 -24c-71 -39 -116 -79 -116 -120c0 -22 12 -38 40 -38c23 0 46 10 77 29l16 -26c-48 -47 -96 -77 -153 -77c-48 0 -85 26 -85 71c0 93 111 143 212 185z" />
    <glyph glyph-name="caron" unicode="&#x2c7;" horiz-adv-x="500" 
d="M144 604l-93 169h80l90 -84l139 84h90l-182 -169h-124z" />
    <glyph glyph-name="emdash" unicode="&#x2014;" horiz-adv-x="1000" 
d="M948 264h-902l18 82h902z" />
    <glyph glyph-name="AE" unicode="&#xc6;" horiz-adv-x="1042" 
d="M39 98l439 514c-8 24 -26 29 -70 29l12 61h658l-40 -186h-62c-15 83 -30 122 -110 122h-122l-50 -244h91c44 0 67 21 90 81h58l-48 -228h-58c0 59 -12 81 -56 81h-91l-39 -183c-3 -14 -5 -27 -5 -35c0 -37 26 -46 73 -46h34c75 0 117 36 196 137h69l-73 -201h-581l13 61
c69 3 89 15 101 70l24 115h-238l-81 -93c-21 -23 -28 -42 -28 -57c0 -23 18 -33 69 -35l-12 -61h-241l13 61c28 5 44 13 65 37zM568 606l-259 -297h196z" />
    <glyph glyph-name="ordfeminine" unicode="&#xaa;" horiz-adv-x="517" 
d="M237 402c47 0 111 110 140 245c-8 21 -16 34 -39 34c-67 0 -131 -130 -131 -226c0 -32 8 -53 30 -53zM404 687l80 38h46l-28 -97l-50 -198c-3 -14 -5 -24 -5 -29c0 -8 3 -11 10 -11c13 0 32 18 58 52l25 -22c-48 -68 -94 -105 -150 -105c-40 0 -70 30 -70 73
c0 22 11 49 22 89h-5c-37 -80 -88 -162 -163 -162c-56 0 -95 47 -95 124c0 138 102 285 241 285c41 0 63 -16 84 -37z" />
    <glyph glyph-name="Lslash" unicode="&#x141;" horiz-adv-x="673" 
d="M381 571l-31 -146l136 51l-15 -70l-136 -51l-45 -211c-3 -14 -5 -27 -5 -36c0 -32 22 -42 70 -42h31c69 0 98 31 200 163h74l-85 -229h-571l13 61c68 3 88 15 100 70l35 167l-92 -35l15 70l92 35l42 198c2 10 4 25 4 32c0 33 -18 41 -73 43l12 61h341l-12 -61
c-69 -3 -89 -15 -100 -70z" />
    <glyph glyph-name="Oslash" unicode="&#xd8;" horiz-adv-x="755" 
d="M675 741l-46 -75c74 -48 116 -131 116 -239c0 -222 -162 -437 -401 -437c-44 0 -83 7 -118 19l-55 -90l-51 28l54 88c-74 48 -116 132 -116 240c0 222 162 437 401 437c43 0 83 -7 117 -20l48 78zM234 256c0 -41 3 -77 10 -106l285 465c-18 19 -41 30 -74 30
c-136 0 -221 -228 -221 -389zM348 57c136 0 221 228 221 391c0 39 -3 75 -10 104l-285 -465c17 -20 41 -30 74 -30z" />
    <glyph glyph-name="OE" unicode="&#x152;" horiz-adv-x="1036" 
d="M513 702h559l-40 -186h-62c-15 83 -29 122 -110 122h-121l-51 -244h91c45 0 67 21 90 81h58l-48 -228h-58c0 59 -11 81 -56 81h-91l-38 -183c-3 -14 -5 -27 -5 -35c0 -37 25 -46 73 -46h34c74 0 116 36 195 137h69l-73 -201h-535c-215 0 -336 109 -336 288
c0 243 186 414 455 414zM569 638h-63c-186 0 -267 -205 -267 -365c0 -127 48 -207 170 -207h39z" />
    <glyph glyph-name="ordmasculine" unicode="&#xba;" horiz-adv-x="436" 
d="M234 361c68 0 106 146 106 235c0 49 -10 80 -39 80c-69 0 -107 -147 -107 -236c0 -48 11 -79 40 -79zM228 314c-90 0 -158 62 -158 164c0 131 90 244 237 244c89 0 158 -62 158 -163c0 -132 -90 -245 -237 -245z" />
    <glyph glyph-name="ae" unicode="&#xe6;" horiz-adv-x="846" 
d="M354 555c64 0 107 -25 141 -73c56 45 125 73 200 73c94 0 143 -56 143 -120c0 -110 -132 -167 -326 -204v-17c0 -80 39 -132 100 -132c59 0 103 27 156 87l27 -25c-65 -107 -160 -154 -249 -154c-111 0 -176 73 -188 172c-49 -91 -112 -172 -200 -172
c-77 0 -130 65 -130 171c0 192 139 394 326 394zM235 100c36 0 82 46 122 122c6 83 44 164 102 226c-16 33 -43 55 -76 55c-111 0 -193 -191 -193 -328c0 -45 13 -75 45 -75zM669 496c-71 0 -137 -114 -153 -228c133 38 192 91 192 173c0 29 -11 55 -39 55z" />
    <glyph glyph-name="dotlessi" unicode="&#x131;" horiz-adv-x="363" 
d="M316 555l-104 -412c-5 -19 -8 -33 -8 -41c0 -10 5 -15 14 -15c19 0 45 25 83 73l29 -26c-65 -94 -122 -144 -192 -144c-58 0 -96 37 -96 89c0 26 5 51 13 86l69 277l-56 44l9 31l206 38h33z" />
    <glyph glyph-name="lslash" unicode="&#x142;" horiz-adv-x="376" 
d="M175 646l-64 42l9 31l215 42h32l-64 -259l107 53l-17 -66l-106 -52l-73 -294c-5 -19 -7 -33 -7 -41c0 -10 5 -15 14 -15c19 0 44 25 82 73l29 -26c-65 -94 -122 -144 -192 -144c-58 0 -95 37 -95 89c0 26 4 51 13 86l49 204l-87 -43l17 66l86 42z" />
    <glyph glyph-name="oslash" unicode="&#xf8;" horiz-adv-x="605" 
d="M541 588l-50 -75c51 -38 83 -101 83 -182c0 -183 -134 -341 -325 -341c-33 0 -64 6 -92 17l-63 -96l-42 26l62 94c-51 38 -83 101 -83 183c0 183 134 341 325 341c33 0 64 -7 92 -18l51 77zM183 167c0 -11 0 -20 1 -30l219 332c-11 18 -29 28 -54 28
c-96 0 -166 -210 -166 -330zM256 48c96 0 166 210 166 330c0 10 -1 19 -1 28l-218 -330c12 -18 29 -28 53 -28z" />
    <glyph glyph-name="oe" unicode="&#x153;" horiz-adv-x="880" 
d="M349 555c75 0 131 -36 165 -94c57 56 130 94 214 94c95 0 144 -56 144 -120c0 -110 -132 -167 -326 -204v-17c0 -80 38 -132 100 -132c59 0 103 27 155 87l28 -25c-65 -107 -160 -154 -249 -154c-69 0 -114 32 -143 80c-53 -50 -115 -80 -195 -80
c-124 0 -212 84 -212 224c0 183 128 341 319 341zM246 48c97 0 155 210 155 332c0 69 -16 117 -57 117c-96 0 -154 -210 -154 -332c0 -69 16 -117 56 -117zM703 496c-71 0 -137 -113 -153 -228c133 39 191 91 191 173c0 29 -10 55 -38 55z" />
    <glyph glyph-name="germandbls" unicode="&#xdf;" horiz-adv-x="687" 
d="M50 482l15 63h78c43 139 144 224 304 224c108 0 184 -44 184 -128c0 -66 -44 -104 -106 -137c-28 -16 -51 -25 -51 -53c0 -61 179 -148 179 -270c0 -116 -94 -191 -215 -191c-105 0 -161 50 -161 114c0 38 25 64 58 75h24c11 -86 44 -140 104 -140c37 0 59 23 59 58
c0 73 -166 162 -166 281c0 53 32 93 85 137c38 31 69 75 69 126s-25 80 -71 80c-71 0 -103 -49 -119 -126l-77 -367c-68 -323 -166 -435 -298 -435c-72 0 -120 29 -120 77c0 46 35 70 74 75h25c3 -61 16 -108 47 -108s44 39 70 183l87 462h-78z" />
    <glyph glyph-name="onesuperior" unicode="&#xb9;" horiz-adv-x="386" 
d="M328 748h46l-77 -364c-2 -8 -3 -15 -3 -21c0 -22 18 -25 70 -28l-10 -48h-291l10 48c72 4 79 7 88 46l49 228h-80l9 46l30 5c80 15 113 39 159 88z" />
    <glyph glyph-name="mu" unicode="&#xb5;" horiz-adv-x="685" 
d="M164 -7l-36 -180l-162 -10l156 639l-55 44l9 31l205 38h33l-100 -397c-3 -13 -5 -27 -5 -35c0 -16 4 -24 18 -24c53 0 171 165 211 320l30 117l165 9l-101 -402c-5 -19 -8 -33 -8 -41c0 -10 5 -15 14 -15c19 0 45 25 83 73l29 -26c-65 -94 -121 -144 -191 -144
c-58 0 -89 41 -89 100c0 31 13 81 36 154h-7c-71 -132 -157 -230 -235 -251z" />
    <glyph glyph-name="trademark" unicode="&#x2122;" horiz-adv-x="940" 
d="M160 702h320l-18 -116h-34c-12 54 -18 79 -59 79h-11l-51 -235c-2 -7 -2 -11 -2 -14c0 -17 13 -20 39 -22l-7 -33h-179l7 33c31 2 44 7 50 34l51 237h-11c-42 0 -58 -25 -94 -79h-33zM684 493l91 171c8 15 12 27 15 38h151l-15 -36c-32 0 -43 -9 -49 -34l-12 -208
c-1 -23 8 -28 35 -30l-6 -33h-179l7 33c35 2 49 7 54 31c1 4 3 19 4 36l7 143l-132 -243h-35l-33 243l-52 -143c-5 -17 -12 -33 -12 -45c0 -15 6 -20 42 -22l-7 -33h-137l7 33c29 2 40 7 49 30l75 208c0 22 -1 34 -32 34l7 36h133c0 -11 -1 -23 1 -37z" />
    <glyph glyph-name="Eth" unicode="&#xd0;" horiz-adv-x="792" 
d="M62 329l13 66h90l36 171c2 10 4 25 4 32c0 33 -18 41 -73 43l12 61h302c215 0 336 -109 336 -288c0 -243 -186 -414 -446 -414h-340l13 61c68 3 88 15 100 70l42 198h-89zM431 636h-45l-51 -241h133l-14 -66h-133l-38 -181c-4 -18 -5 -32 -5 -41c0 -33 18 -41 62 -41h10
c170 0 251 203 251 363c0 127 -48 207 -170 207z" />
    <glyph glyph-name="onehalf" unicode="&#xbd;" horiz-adv-x="973" 
d="M193 0l608 741h73l-608 -741h-73zM328 748h46l-77 -364c-2 -8 -3 -15 -3 -21c0 -22 18 -25 70 -28l-10 -48h-291l10 48c72 4 79 7 88 46l49 228h-80l9 46l30 5c80 15 113 39 159 88zM665 30h107c42 0 52 6 93 54h39l-48 -155h-349l8 43c227 170 256 211 256 267
c0 38 -21 59 -60 59c-42 0 -81 -27 -108 -58l-25 33c38 62 104 117 201 117c74 0 130 -38 130 -112c0 -105 -111 -172 -244 -248z" />
    <glyph glyph-name="plusminus" unicode="&#xb1;" horiz-adv-x="595" 
d="M327 617h86l-29 -136h181l-18 -85h-181l-29 -138h-86l29 138h-180l19 85h179zM42 122l19 86h445l-19 -86h-445z" />
    <glyph glyph-name="Thorn" unicode="&#xde;" horiz-adv-x="672" 
d="M345 488l-58 -274h40c99 0 177 36 177 155c0 79 -38 119 -127 119h-32zM362 571l-3 -17h75c170 0 244 -72 244 -177c0 -162 -133 -224 -324 -224h-79l-2 -9c-3 -11 -5 -24 -5 -36c0 -42 32 -48 107 -50l-11 -58h-378l13 61c68 3 88 15 100 70l92 435c2 10 4 25 4 32
c0 33 -18 41 -73 43l12 61h341l-12 -61c-69 -3 -90 -15 -101 -70z" />
    <glyph glyph-name="onequarter" unicode="&#xbc;" horiz-adv-x="972" 
d="M536 102h144l39 184zM777 -71h-134l25 118h-214l11 45l292 297h118l-60 -287h85l-12 -55h-86zM193 0l608 741h73l-608 -741h-73zM328 748h46l-77 -364c-2 -8 -3 -15 -3 -21c0 -22 18 -25 70 -28l-10 -48h-291l10 48c72 4 79 7 88 46l49 228h-80l9 46l30 5
c80 15 113 39 159 88z" />
    <glyph glyph-name="divide" unicode="&#xf7;" horiz-adv-x="595" 
d="M78 322l19 87h454l-18 -87h-455zM209 184c0 38 31 67 66 67c39 0 69 -29 69 -67s-30 -69 -69 -69c-35 0 -66 31 -66 69zM285 548c0 37 31 67 67 67c38 0 69 -30 69 -67s-31 -69 -69 -69c-36 0 -67 32 -67 69z" />
    <glyph glyph-name="brokenbar" unicode="&#xa6;" horiz-adv-x="293" 
d="M307 770l-80 -376h-93l80 376h93zM193 235l-80 -376h-93l80 376h93z" />
    <glyph glyph-name="degree" unicode="&#xb0;" horiz-adv-x="369" 
d="M215 456c58 0 97 53 97 120c0 41 -22 75 -66 75c-58 0 -98 -53 -98 -120c0 -41 22 -75 67 -75zM210 395c-80 0 -135 55 -135 131c0 103 75 186 175 186c80 0 135 -55 135 -131c0 -103 -75 -186 -175 -186z" />
    <glyph glyph-name="thorn" unicode="&#xfe;" horiz-adv-x="642" 
d="M190 106c9 -32 28 -63 62 -63c109 0 199 191 199 327c0 46 -14 75 -46 75c-66 0 -176 -163 -215 -339zM-12 -81l174 727l-64 42l9 31l215 42h32l-75 -309l-56 -156h7c57 117 147 259 256 259c89 0 129 -66 129 -169c0 -192 -148 -396 -339 -396c-48 0 -84 26 -97 50
l-25 -111c-3 -13 -5 -23 -5 -31c1 -28 23 -32 57 -36l-15 -59h-295l14 59c46 6 67 11 78 57z" />
    <glyph glyph-name="threequarters" unicode="&#xbe;" horiz-adv-x="981" 
d="M313 538c62 -9 109 -50 109 -106c0 -112 -105 -154 -213 -154c-88 0 -150 41 -150 92c0 35 21 53 44 62h79c-9 -19 -12 -38 -12 -53c0 -35 20 -58 52 -58c40 0 70 37 70 95c0 50 -25 75 -64 75c-7 0 -17 -1 -26 -2l-5 29c74 27 110 52 110 95c0 23 -16 43 -48 43
c-42 0 -73 -24 -98 -49l-28 24c35 65 105 113 184 113c73 0 120 -31 120 -93c0 -63 -54 -103 -124 -113zM545 102h144l39 184zM786 -71h-134l25 118h-214l10 45l293 297h118l-61 -287h86l-12 -55h-86zM202 0l607 741h74l-608 -741h-73z" />
    <glyph glyph-name="registered" unicode="&#xae;" horiz-adv-x="555" 
d="M337 581h-8l-19 -90h9c29 0 59 15 59 54c0 23 -15 36 -41 36zM246 608h113c61 0 84 -29 84 -64c0 -44 -41 -65 -69 -73l32 -56c7 -14 18 -21 30 -22l-5 -22h-59c-10 6 -19 18 -25 33l-29 62h-14l-10 -46c-1 -4 -2 -11 -2 -14c0 -10 5 -13 22 -13l-6 -22h-113l5 22
c24 0 28 6 32 25l30 141c1 5 3 11 3 14c0 9 -7 12 -23 13zM315 290c120 0 206 91 206 210c0 103 -70 179 -178 179c-120 0 -207 -91 -207 -210c0 -103 71 -179 179 -179zM315 257c-126 0 -214 92 -214 212c0 136 105 243 242 243c126 0 214 -92 214 -212
c0 -136 -105 -243 -242 -243z" />
    <glyph glyph-name="minus" unicode="&#x2212;" horiz-adv-x="595" 
d="M78 322l19 87h456l-20 -87h-455z" />
    <glyph glyph-name="eth" unicode="&#xf0;" horiz-adv-x="589" 
d="M172 572l-18 42l141 54c-30 25 -68 48 -114 69l28 39c69 -16 127 -42 174 -74l113 44l18 -42l-89 -34c96 -85 137 -202 137 -315c0 -203 -129 -365 -320 -365c-124 0 -212 84 -212 224c0 183 128 330 311 330c14 0 27 -1 40 -4c-12 36 -28 67 -50 93zM401 380
c0 36 -2 68 -6 97c-13 6 -28 9 -47 9c-100 0 -158 -199 -158 -321c0 -69 16 -117 56 -117c97 0 155 210 155 332z" />
    <glyph glyph-name="multiply" unicode="&#xd7;" horiz-adv-x="518" 
d="M222 366l-107 134l70 58l104 -135l162 135l49 -61l-163 -135l105 -133l-67 -56l-107 133l-160 -133l-48 59z" />
    <glyph glyph-name="threesuperior" unicode="&#xb3;" horiz-adv-x="429" 
d="M313 538c62 -9 109 -50 109 -106c0 -112 -105 -154 -213 -154c-88 0 -150 41 -150 92c0 35 21 53 44 62h79c-9 -19 -12 -38 -12 -53c0 -35 20 -58 52 -58c40 0 70 37 70 95c0 50 -25 75 -64 75c-7 0 -17 -1 -26 -2l-5 29c74 27 110 52 110 95c0 23 -16 43 -48 43
c-42 0 -73 -24 -98 -49l-28 24c35 65 105 113 184 113c73 0 120 -31 120 -93c0 -63 -54 -103 -124 -113z" />
    <glyph glyph-name="copyright" unicode="&#xa9;" horiz-adv-x="796" 
d="M398 30c192 0 337 153 337 347c0 167 -118 295 -292 295c-192 0 -337 -153 -337 -347c0 -167 118 -295 292 -295zM398 -10c-197 0 -336 145 -336 335c0 216 166 387 381 387c197 0 336 -145 336 -335c0 -216 -166 -387 -381 -387zM398 141c-118 0 -180 72 -180 166
c0 147 113 257 255 257c59 0 103 -18 131 -44l-20 -93h-57c-4 60 -12 91 -56 91c-79 0 -131 -115 -131 -222c0 -63 21 -106 65 -106c51 0 69 29 105 102h59l-26 -112c-39 -24 -89 -39 -145 -39z" />
    <glyph glyph-name="Aacute" unicode="&#xc1;" horiz-adv-x="751" 
d="M470 145l-14 72h-263l-44 -72c-10 -16 -18 -34 -18 -49c0 -23 17 -33 68 -35l-12 -61h-226l13 61c28 5 48 10 65 37l332 530l-18 77h174l129 -607c5 -25 22 -33 52 -37l-12 -61h-321l13 61c58 3 86 12 86 48c0 11 -1 23 -4 36zM394 540l-161 -259h211zM502 909h184
l-192 -156h-87z" />
    <glyph glyph-name="Acircumflex" unicode="&#xc2;" horiz-adv-x="751" 
d="M470 145l-14 72h-263l-44 -72c-10 -16 -18 -34 -18 -49c0 -23 17 -33 68 -35l-12 -61h-226l13 61c28 5 48 10 65 37l332 530l-18 77h174l129 -607c5 -25 22 -33 52 -37l-12 -61h-321l13 61c58 3 86 12 86 48c0 11 -1 23 -4 36zM554 918l95 -167h-81l-91 82l-141 -82h-91
l185 167h124zM394 540l-161 -259h211z" />
    <glyph glyph-name="Adieresis" unicode="&#xc4;" horiz-adv-x="751" 
d="M470 145l-14 72h-263l-44 -72c-10 -16 -18 -34 -18 -49c0 -23 17 -33 68 -35l-12 -61h-226l13 61c28 5 48 10 65 37l332 530l-18 77h174l129 -607c5 -25 22 -33 52 -37l-12 -61h-321l13 61c58 3 86 12 86 48c0 11 -1 23 -4 36zM394 540l-161 -259h211zM578 748
c-50 0 -81 37 -81 78c0 47 33 88 86 88c50 0 81 -36 81 -78c0 -47 -33 -88 -86 -88zM365 748c-50 0 -81 37 -81 78c0 47 34 88 87 88c50 0 80 -36 80 -78c0 -47 -33 -88 -86 -88z" />
    <glyph glyph-name="Agrave" unicode="&#xc0;" horiz-adv-x="751" 
d="M470 145l-14 72h-263l-44 -72c-10 -16 -18 -34 -18 -49c0 -23 17 -33 68 -35l-12 -61h-226l13 61c28 5 48 10 65 37l332 530l-18 77h174l129 -607c5 -25 22 -33 52 -37l-12 -61h-321l13 61c58 3 86 12 86 48c0 11 -1 23 -4 36zM394 540l-161 -259h211zM300 909h169
l39 -156h-81z" />
    <glyph glyph-name="Aring" unicode="&#xc5;" horiz-adv-x="751" 
d="M470 145l-14 72h-263l-44 -72c-10 -16 -18 -34 -18 -49c0 -23 17 -33 68 -35l-12 -61h-226l13 61c28 5 48 10 65 37l332 530l-18 77h174l129 -607c5 -25 22 -33 52 -37l-12 -61h-321l13 61c58 3 86 12 86 48c0 11 -1 23 -4 36zM467 742c-60 0 -100 38 -100 91
c0 61 55 107 119 107c60 0 100 -38 100 -91c0 -61 -55 -107 -119 -107zM394 540l-161 -259h211zM472 795c33 0 52 24 52 52c0 24 -15 40 -43 40c-33 0 -52 -24 -52 -51c0 -25 16 -41 43 -41z" />
    <glyph glyph-name="Atilde" unicode="&#xc3;" horiz-adv-x="751" 
d="M470 145l-14 72h-263l-44 -72c-10 -16 -18 -34 -18 -49c0 -23 17 -33 68 -35l-12 -61h-226l13 61c28 5 48 10 65 37l332 530l-18 77h174l129 -607c5 -25 22 -33 52 -37l-12 -61h-321l13 61c58 3 86 12 86 48c0 11 -1 23 -4 36zM620 898l53 -12
c-60 -119 -90 -144 -146 -144c-51 0 -94 65 -132 65c-29 0 -46 -24 -68 -56l-54 11c61 119 90 144 145 144c57 0 94 -65 133 -65c28 0 47 23 69 57zM394 540l-161 -259h211z" />
    <glyph glyph-name="Ccedilla" unicode="&#xc7;" horiz-adv-x="696" 
d="M205 -231l-10 46c73 0 123 13 123 41c0 26 -30 35 -79 37l51 103c-154 25 -232 134 -232 275c0 252 189 441 432 441c101 0 176 -30 223 -74l-33 -157h-81c-7 103 -30 165 -111 165c-155 0 -249 -210 -249 -391c0 -120 42 -195 133 -195c90 0 135 59 197 183h85l-44 -187
c-67 -40 -153 -66 -248 -66c-10 0 -19 1 -28 1l-18 -36c59 -5 89 -29 89 -75c0 -74 -99 -111 -200 -111z" />
    <glyph glyph-name="Eacute" unicode="&#xc9;" horiz-adv-x="673" 
d="M487 909h184l-192 -156h-87zM-14 0l13 61c68 3 88 15 100 70l92 435c2 10 4 25 4 32c0 33 -18 41 -73 43l12 61h575l-40 -186h-62c-15 83 -30 122 -110 122h-121l-51 -244h91c44 0 67 21 90 81h58l-48 -228h-58c0 59 -12 81 -56 81h-91l-38 -183c-4 -14 -5 -27 -5 -35
c0 -37 25 -46 73 -46h33c75 0 117 36 196 137h69l-73 -201h-580z" />
    <glyph glyph-name="Ecircumflex" unicode="&#xca;" horiz-adv-x="673" 
d="M-14 0l13 61c68 3 88 15 100 70l92 435c2 10 4 25 4 32c0 33 -18 41 -73 43l12 61h575l-40 -186h-62c-15 83 -30 122 -110 122h-121l-51 -244h91c44 0 67 21 90 81h58l-48 -228h-58c0 59 -12 81 -56 81h-91l-38 -183c-4 -14 -5 -27 -5 -35c0 -37 25 -46 73 -46h33
c75 0 117 36 196 137h69l-73 -201h-580zM539 918l95 -167h-81l-91 82l-141 -82h-91l185 167h124z" />
    <glyph glyph-name="Edieresis" unicode="&#xcb;" horiz-adv-x="673" 
d="M351 748c-50 0 -81 37 -81 78c0 47 34 88 87 88c50 0 80 -36 80 -78c0 -47 -33 -88 -86 -88zM564 748c-50 0 -81 37 -81 78c0 47 33 88 86 88c50 0 81 -36 81 -78c0 -47 -33 -88 -86 -88zM-14 0l13 61c68 3 88 15 100 70l92 435c2 10 4 25 4 32c0 33 -18 41 -73 43l12 61
h575l-40 -186h-62c-15 83 -30 122 -110 122h-121l-51 -244h91c44 0 67 21 90 81h58l-48 -228h-58c0 59 -12 81 -56 81h-91l-38 -183c-4 -14 -5 -27 -5 -35c0 -37 25 -46 73 -46h33c75 0 117 36 196 137h69l-73 -201h-580z" />
    <glyph glyph-name="Egrave" unicode="&#xc8;" horiz-adv-x="673" 
d="M286 909h169l39 -156h-81zM-14 0l13 61c68 3 88 15 100 70l92 435c2 10 4 25 4 32c0 33 -18 41 -73 43l12 61h575l-40 -186h-62c-15 83 -30 122 -110 122h-121l-51 -244h91c44 0 67 21 90 81h58l-48 -228h-58c0 59 -12 81 -56 81h-91l-38 -183c-4 -14 -5 -27 -5 -35
c0 -37 25 -46 73 -46h33c75 0 117 36 196 137h69l-73 -201h-580z" />
    <glyph glyph-name="Iacute" unicode="&#xcd;" horiz-adv-x="407" 
d="M363 571l-92 -435c-2 -10 -4 -25 -4 -32c0 -33 18 -41 72 -43l-12 -61h-341l13 61c68 3 88 15 100 70l92 435c2 10 4 25 4 32c0 33 -18 41 -73 43l12 61h341l-12 -61c-69 -3 -89 -15 -100 -70zM359 909h184l-192 -156h-87z" />
    <glyph glyph-name="Icircumflex" unicode="&#xce;" horiz-adv-x="407" 
d="M363 571l-92 -435c-2 -10 -4 -25 -4 -32c0 -33 18 -41 72 -43l-12 -61h-341l13 61c68 3 88 15 100 70l92 435c2 10 4 25 4 32c0 33 -18 41 -73 43l12 61h341l-12 -61c-69 -3 -89 -15 -100 -70zM412 918l95 -167h-81l-91 82l-141 -82h-91l185 167h124z" />
    <glyph glyph-name="Idieresis" unicode="&#xcf;" horiz-adv-x="407" 
d="M363 571l-92 -435c-2 -10 -4 -25 -4 -32c0 -33 18 -41 72 -43l-12 -61h-341l13 61c68 3 88 15 100 70l92 435c2 10 4 25 4 32c0 33 -18 41 -73 43l12 61h341l-12 -61c-69 -3 -89 -15 -100 -70zM223 748c-50 0 -81 37 -81 78c0 47 34 88 87 88c50 0 80 -36 80 -78
c0 -47 -33 -88 -86 -88zM436 748c-50 0 -81 37 -81 78c0 47 33 88 86 88c50 0 81 -36 81 -78c0 -47 -33 -88 -86 -88z" />
    <glyph glyph-name="Igrave" unicode="&#xcc;" horiz-adv-x="407" 
d="M363 571l-92 -435c-2 -10 -4 -25 -4 -32c0 -33 18 -41 72 -43l-12 -61h-341l13 61c68 3 88 15 100 70l92 435c2 10 4 25 4 32c0 33 -18 41 -73 43l12 61h341l-12 -61c-69 -3 -89 -15 -100 -70zM158 909h169l39 -156h-81z" />
    <glyph glyph-name="Ntilde" unicode="&#xd1;" horiz-adv-x="787" 
d="M671 898l53 -12c-60 -119 -90 -144 -146 -144c-51 0 -94 65 -132 65c-29 0 -46 -24 -68 -56l-54 11c61 119 90 144 145 144c57 0 94 -65 133 -65c28 0 47 23 69 57zM602 266l62 300c3 10 5 25 5 32c0 33 -18 41 -73 43l12 61h252l-12 -61c-68 -3 -89 -15 -101 -70
l-119 -571h-72l-295 517l-79 -381c-2 -10 -4 -25 -4 -32c0 -33 17 -41 72 -43l-13 -61h-251l13 61c68 3 88 15 100 70l97 458c-24 42 -37 48 -75 52l13 61h234z" />
    <glyph glyph-name="Oacute" unicode="&#xd3;" horiz-adv-x="755" 
d="M527 909h184l-192 -156h-87zM348 57c136 0 215 228 215 395c0 115 -27 193 -108 193c-136 0 -215 -228 -215 -395c0 -115 27 -193 108 -193zM344 -10c-177 0 -286 111 -286 285c0 222 162 437 401 437c177 0 286 -111 286 -285c0 -222 -162 -437 -401 -437z" />
    <glyph glyph-name="Ocircumflex" unicode="&#xd4;" horiz-adv-x="755" 
d="M348 57c136 0 215 228 215 395c0 115 -27 193 -108 193c-136 0 -215 -228 -215 -395c0 -115 27 -193 108 -193zM344 -10c-177 0 -286 111 -286 285c0 222 162 437 401 437c177 0 286 -111 286 -285c0 -222 -162 -437 -401 -437zM580 918l95 -167h-81l-91 82l-141 -82h-91
l185 167h124z" />
    <glyph glyph-name="Odieresis" unicode="&#xd6;" horiz-adv-x="755" 
d="M391 748c-50 0 -81 37 -81 78c0 47 34 88 87 88c50 0 80 -36 80 -78c0 -47 -33 -88 -86 -88zM604 748c-50 0 -81 37 -81 78c0 47 33 88 86 88c50 0 81 -36 81 -78c0 -47 -33 -88 -86 -88zM348 57c136 0 215 228 215 395c0 115 -27 193 -108 193
c-136 0 -215 -228 -215 -395c0 -115 27 -193 108 -193zM344 -10c-177 0 -286 111 -286 285c0 222 162 437 401 437c177 0 286 -111 286 -285c0 -222 -162 -437 -401 -437z" />
    <glyph glyph-name="Ograve" unicode="&#xd2;" horiz-adv-x="755" 
d="M326 909h169l39 -156h-81zM348 57c136 0 215 228 215 395c0 115 -27 193 -108 193c-136 0 -215 -228 -215 -395c0 -115 27 -193 108 -193zM344 -10c-177 0 -286 111 -286 285c0 222 162 437 401 437c177 0 286 -111 286 -285c0 -222 -162 -437 -401 -437z" />
    <glyph glyph-name="Otilde" unicode="&#xd5;" horiz-adv-x="755" 
d="M646 898l53 -12c-60 -119 -90 -144 -146 -144c-51 0 -94 65 -132 65c-29 0 -46 -24 -68 -56l-54 11c61 119 90 144 145 144c57 0 94 -65 133 -65c28 0 47 23 69 57zM348 57c136 0 215 228 215 395c0 115 -27 193 -108 193c-136 0 -215 -228 -215 -395
c0 -115 27 -193 108 -193zM344 -10c-177 0 -286 111 -286 285c0 222 162 437 401 437c177 0 286 -111 286 -285c0 -222 -162 -437 -401 -437z" />
    <glyph glyph-name="Scaron" unicode="&#x160;" horiz-adv-x="583" 
d="M263 -10c-116 0 -205 49 -242 93l27 158h79c5 -117 56 -190 148 -190c65 0 113 34 113 103c0 56 -31 84 -120 128c-112 55 -165 118 -165 211c0 138 111 219 260 219c105 0 175 -34 220 -74l-30 -147h-69c-11 88 -38 159 -133 159c-66 0 -103 -40 -103 -95
s35 -81 112 -120c115 -57 182 -109 182 -216c0 -156 -138 -229 -279 -229zM337 754l-95 167h81l91 -82l141 82h91l-185 -167h-124z" />
    <glyph glyph-name="Uacute" unicode="&#xda;" horiz-adv-x="772" 
d="M580 909h184l-192 -156h-87zM596 269l63 297c2 10 4 25 4 32c0 33 -18 41 -72 43l12 61h252l-13 -61c-67 -3 -89 -15 -100 -70l-68 -329c-36 -173 -157 -252 -308 -252c-161 0 -260 77 -260 216c0 22 3 46 10 78l59 282c2 10 4 25 4 32c0 33 -18 41 -73 43l12 61h342
l-13 -61c-69 -3 -89 -15 -100 -70l-60 -280c-5 -25 -8 -48 -8 -70c0 -86 44 -137 124 -137c95 0 162 41 193 185z" />
    <glyph glyph-name="Ucircumflex" unicode="&#xdb;" horiz-adv-x="772" 
d="M596 269l63 297c2 10 4 25 4 32c0 33 -18 41 -72 43l12 61h252l-13 -61c-67 -3 -89 -15 -100 -70l-68 -329c-36 -173 -157 -252 -308 -252c-161 0 -260 77 -260 216c0 22 3 46 10 78l59 282c2 10 4 25 4 32c0 33 -18 41 -73 43l12 61h342l-13 -61
c-69 -3 -89 -15 -100 -70l-60 -280c-5 -25 -8 -48 -8 -70c0 -86 44 -137 124 -137c95 0 162 41 193 185zM633 918l95 -167h-81l-91 82l-141 -82h-91l185 167h124z" />
    <glyph glyph-name="Udieresis" unicode="&#xdc;" horiz-adv-x="772" 
d="M444 748c-50 0 -81 37 -81 78c0 47 34 88 87 88c50 0 80 -36 80 -78c0 -47 -33 -88 -86 -88zM657 748c-50 0 -81 37 -81 78c0 47 33 88 86 88c50 0 81 -36 81 -78c0 -47 -33 -88 -86 -88zM596 269l63 297c2 10 4 25 4 32c0 33 -18 41 -72 43l12 61h252l-13 -61
c-67 -3 -89 -15 -100 -70l-68 -329c-36 -173 -157 -252 -308 -252c-161 0 -260 77 -260 216c0 22 3 46 10 78l59 282c2 10 4 25 4 32c0 33 -18 41 -73 43l12 61h342l-13 -61c-69 -3 -89 -15 -100 -70l-60 -280c-5 -25 -8 -48 -8 -70c0 -86 44 -137 124 -137
c95 0 162 41 193 185z" />
    <glyph glyph-name="Ugrave" unicode="&#xd9;" horiz-adv-x="772" 
d="M379 909h169l39 -156h-81zM596 269l63 297c2 10 4 25 4 32c0 33 -18 41 -72 43l12 61h252l-13 -61c-67 -3 -89 -15 -100 -70l-68 -329c-36 -173 -157 -252 -308 -252c-161 0 -260 77 -260 216c0 22 3 46 10 78l59 282c2 10 4 25 4 32c0 33 -18 41 -73 43l12 61h342
l-13 -61c-69 -3 -89 -15 -100 -70l-60 -280c-5 -25 -8 -48 -8 -70c0 -86 44 -137 124 -137c95 0 162 41 193 185z" />
    <glyph glyph-name="Yacute" unicode="&#xdd;" horiz-adv-x="687" 
d="M408 338l161 207c19 25 34 43 34 62c0 21 -16 31 -64 34l13 61h230l-13 -61c-30 -5 -47 -11 -68 -37l-269 -342l-27 -128c-3 -11 -4 -21 -4 -28c0 -34 24 -43 81 -45l-13 -61h-347l13 61c66 3 94 15 105 70l28 132l-123 341c-9 26 -22 32 -49 37l13 61h312l-13 -61
c-47 0 -81 -10 -81 -51c0 -14 3 -28 10 -46zM540 909h184l-192 -156h-87z" />
    <glyph glyph-name="Ydieresis" unicode="&#x178;" horiz-adv-x="687" 
d="M408 338l161 207c19 25 34 43 34 62c0 21 -16 31 -64 34l13 61h230l-13 -61c-30 -5 -47 -11 -68 -37l-269 -342l-27 -128c-3 -11 -4 -21 -4 -28c0 -34 24 -43 81 -45l-13 -61h-347l13 61c66 3 94 15 105 70l28 132l-123 341c-9 26 -22 32 -49 37l13 61h312l-13 -61
c-47 0 -81 -10 -81 -51c0 -14 3 -28 10 -46zM394 748c-50 0 -81 37 -81 78c0 47 34 88 87 88c50 0 80 -36 80 -78c0 -47 -33 -88 -86 -88zM607 748c-50 0 -81 37 -81 78c0 47 33 88 86 88c50 0 81 -36 81 -78c0 -47 -33 -88 -86 -88z" />
    <glyph glyph-name="Zcaron" unicode="&#x17d;" horiz-adv-x="640" 
d="M363 754l-95 167h81l91 -82l141 82h91l-185 -167h-124zM207 66h135c84 0 107 26 207 159h71l-82 -225h-561l9 43l489 592h-133c-82 0 -104 -47 -166 -137h-61l44 204h544l-10 -44z" />
    <glyph glyph-name="aacute" unicode="&#xe1;" horiz-adv-x="675" 
d="M235 100c68 0 161 160 204 353c-13 30 -24 47 -57 47c-110 0 -192 -188 -192 -325c0 -45 13 -75 45 -75zM476 504l96 53h63l-39 -135l-69 -279c-5 -19 -8 -33 -8 -41c0 -10 5 -15 14 -15c19 0 44 25 82 73l29 -26c-65 -94 -122 -144 -192 -144c-58 0 -91 41 -91 100
c0 32 13 69 29 123h-7c-51 -109 -121 -223 -225 -223c-77 0 -130 65 -130 171c0 192 139 394 332 394c55 0 86 -21 116 -51zM458 765h185l-195 -162h-87z" />
    <glyph glyph-name="acircumflex" unicode="&#xe2;" horiz-adv-x="675" 
d="M235 100c68 0 161 160 204 353c-13 30 -24 47 -57 47c-110 0 -192 -188 -192 -325c0 -45 13 -75 45 -75zM476 504l96 53h63l-39 -135l-69 -279c-5 -19 -8 -33 -8 -41c0 -10 5 -15 14 -15c19 0 44 25 82 73l29 -26c-65 -94 -122 -144 -192 -144c-58 0 -91 41 -91 100
c0 32 13 69 29 123h-7c-51 -109 -121 -223 -225 -223c-77 0 -130 65 -130 171c0 192 139 394 332 394c55 0 86 -21 116 -51zM510 765l92 -169h-80l-90 84l-139 -84h-90l183 169h124z" />
    <glyph glyph-name="adieresis" unicode="&#xe4;" horiz-adv-x="675" 
d="M235 100c68 0 161 160 204 353c-13 30 -24 47 -57 47c-110 0 -192 -188 -192 -325c0 -45 13 -75 45 -75zM476 504l96 53h63l-39 -135l-69 -279c-5 -19 -8 -33 -8 -41c0 -10 5 -15 14 -15c19 0 44 25 82 73l29 -26c-65 -94 -122 -144 -192 -144c-58 0 -91 41 -91 100
c0 32 13 69 29 123h-7c-51 -109 -121 -223 -225 -223c-77 0 -130 65 -130 171c0 192 139 394 332 394c55 0 86 -21 116 -51zM320 605c-50 0 -81 37 -81 78c0 47 34 88 87 88c50 0 80 -36 80 -78c0 -47 -33 -88 -86 -88zM533 605c-50 0 -81 37 -81 78c0 47 33 88 86 88
c50 0 81 -36 81 -78c0 -47 -33 -88 -86 -88z" />
    <glyph glyph-name="agrave" unicode="&#xe0;" horiz-adv-x="675" 
d="M235 100c68 0 161 160 204 353c-13 30 -24 47 -57 47c-110 0 -192 -188 -192 -325c0 -45 13 -75 45 -75zM476 504l96 53h63l-39 -135l-69 -279c-5 -19 -8 -33 -8 -41c0 -10 5 -15 14 -15c19 0 44 25 82 73l29 -26c-65 -94 -122 -144 -192 -144c-58 0 -91 41 -91 100
c0 32 13 69 29 123h-7c-51 -109 -121 -223 -225 -223c-77 0 -130 65 -130 171c0 192 139 394 332 394c55 0 86 -21 116 -51zM252 765h169l41 -162h-81z" />
    <glyph glyph-name="aring" unicode="&#xe5;" horiz-adv-x="675" 
d="M235 100c68 0 161 160 204 353c-13 30 -24 47 -57 47c-110 0 -192 -188 -192 -325c0 -45 13 -75 45 -75zM476 504l96 53h63l-39 -135l-69 -279c-5 -19 -8 -33 -8 -41c0 -10 5 -15 14 -15c19 0 44 25 82 73l29 -26c-65 -94 -122 -144 -192 -144c-58 0 -91 41 -91 100
c0 32 13 69 29 123h-7c-51 -109 -121 -223 -225 -223c-77 0 -130 65 -130 171c0 192 139 394 332 394c55 0 86 -21 116 -51zM425 648c33 0 52 24 52 52c0 24 -16 40 -43 40c-33 0 -52 -24 -52 -51c0 -24 15 -41 43 -41zM420 595c-60 0 -100 38 -100 91c0 62 55 107 119 107
c60 0 100 -38 100 -90c0 -62 -55 -108 -119 -108z" />
    <glyph glyph-name="atilde" unicode="&#xe3;" horiz-adv-x="675" 
d="M235 100c68 0 161 160 204 353c-13 30 -24 47 -57 47c-110 0 -192 -188 -192 -325c0 -45 13 -75 45 -75zM476 504l96 53h63l-39 -135l-69 -279c-5 -19 -8 -33 -8 -41c0 -10 5 -15 14 -15c19 0 44 25 82 73l29 -26c-65 -94 -122 -144 -192 -144c-58 0 -91 41 -91 100
c0 32 13 69 29 123h-7c-51 -109 -121 -223 -225 -223c-77 0 -130 65 -130 171c0 192 139 394 332 394c55 0 86 -21 116 -51zM576 765l53 -11c-60 -120 -90 -144 -146 -144c-51 0 -94 65 -132 65c-29 0 -46 -24 -68 -57l-54 11c61 120 90 144 145 144c57 0 94 -64 133 -64
c28 0 47 23 69 56z" />
    <glyph glyph-name="ccedilla" unicode="&#xe7;" horiz-adv-x="501" 
d="M72 -231l-10 46c73 0 123 13 123 41c0 26 -30 35 -79 37l52 105c-85 22 -130 97 -130 194c0 180 140 363 335 363c78 0 138 -31 138 -101c0 -38 -23 -68 -63 -79h-49c5 70 -3 123 -46 123c-83 0 -152 -159 -152 -285c0 -76 29 -124 86 -124c51 0 93 19 147 80l26 -26
c-56 -98 -140 -153 -233 -153c-6 0 -11 0 -16 1l-18 -36c59 -5 89 -29 89 -75c0 -74 -99 -111 -200 -111z" />
    <glyph glyph-name="eacute" unicode="&#xe9;" horiz-adv-x="518" 
d="M510 435c0 -110 -132 -167 -326 -204v-17c0 -80 39 -132 100 -132c59 0 104 27 156 87l27 -25c-65 -107 -160 -154 -248 -154c-124 0 -191 90 -191 206c0 180 149 359 339 359c94 0 143 -56 143 -120zM341 496c-71 0 -137 -114 -153 -228c133 38 192 91 192 173
c0 29 -11 55 -39 55zM399 765h185l-195 -162h-87z" />
    <glyph glyph-name="ecircumflex" unicode="&#xea;" horiz-adv-x="518" 
d="M510 435c0 -110 -132 -167 -326 -204v-17c0 -80 39 -132 100 -132c59 0 104 27 156 87l27 -25c-65 -107 -160 -154 -248 -154c-124 0 -191 90 -191 206c0 180 149 359 339 359c94 0 143 -56 143 -120zM451 765l92 -169h-80l-90 84l-139 -84h-90l183 169h124zM341 496
c-71 0 -137 -114 -153 -228c133 38 192 91 192 173c0 29 -11 55 -39 55z" />
    <glyph glyph-name="edieresis" unicode="&#xeb;" horiz-adv-x="518" 
d="M510 435c0 -110 -132 -167 -326 -204v-17c0 -80 39 -132 100 -132c59 0 104 27 156 87l27 -25c-65 -107 -160 -154 -248 -154c-124 0 -191 90 -191 206c0 180 149 359 339 359c94 0 143 -56 143 -120zM341 496c-71 0 -137 -114 -153 -228c133 38 192 91 192 173
c0 29 -11 55 -39 55zM473 605c-50 0 -81 37 -81 78c0 47 33 88 86 88c50 0 81 -36 81 -78c0 -47 -33 -88 -86 -88zM260 605c-50 0 -81 37 -81 78c0 47 34 88 87 88c50 0 80 -36 80 -78c0 -47 -33 -88 -86 -88z" />
    <glyph glyph-name="egrave" unicode="&#xe8;" horiz-adv-x="518" 
d="M510 435c0 -110 -132 -167 -326 -204v-17c0 -80 39 -132 100 -132c59 0 104 27 156 87l27 -25c-65 -107 -160 -154 -248 -154c-124 0 -191 90 -191 206c0 180 149 359 339 359c94 0 143 -56 143 -120zM341 496c-71 0 -137 -114 -153 -228c133 38 192 91 192 173
c0 29 -11 55 -39 55zM193 765h169l41 -162h-81z" />
    <glyph glyph-name="iacute" unicode="&#xed;" horiz-adv-x="363" 
d="M286 765h185l-195 -162h-87zM316 555l-104 -412c-5 -19 -8 -33 -8 -41c0 -10 5 -15 14 -15c19 0 45 25 83 73l29 -26c-65 -94 -122 -144 -192 -144c-58 0 -96 37 -96 89c0 26 5 51 13 86l69 277l-56 44l9 31l206 38h33z" />
    <glyph glyph-name="icircumflex" unicode="&#xee;" horiz-adv-x="363" 
d="M346 765l92 -169h-80l-90 84l-139 -84h-90l183 169h124zM316 555l-104 -412c-5 -19 -8 -33 -8 -41c0 -10 5 -15 14 -15c19 0 45 25 83 73l29 -26c-65 -94 -122 -144 -192 -144c-58 0 -96 37 -96 89c0 26 5 51 13 86l69 277l-56 44l9 31l206 38h33z" />
    <glyph glyph-name="idieresis" unicode="&#xef;" horiz-adv-x="363" 
d="M156 605c-50 0 -81 37 -81 78c0 47 34 88 87 88c50 0 80 -36 80 -78c0 -47 -33 -88 -86 -88zM369 605c-50 0 -81 37 -81 78c0 47 33 88 86 88c50 0 81 -36 81 -78c0 -47 -33 -88 -86 -88zM316 555l-104 -412c-5 -19 -8 -33 -8 -41c0 -10 5 -15 14 -15c19 0 45 25 83 73
l29 -26c-65 -94 -122 -144 -192 -144c-58 0 -96 37 -96 89c0 26 5 51 13 86l69 277l-56 44l9 31l206 38h33z" />
    <glyph glyph-name="igrave" unicode="&#xec;" horiz-adv-x="363" 
d="M316 555l-104 -412c-5 -19 -8 -33 -8 -41c0 -10 5 -15 14 -15c19 0 45 25 83 73l29 -26c-65 -94 -122 -144 -192 -144c-58 0 -96 37 -96 89c0 26 5 51 13 86l69 277l-56 44l9 31l206 38h33zM88 765h169l41 -162h-81z" />
    <glyph glyph-name="ntilde" unicode="&#xf1;" horiz-adv-x="676" 
d="M321 558l-29 -112l-51 -149h7c91 158 190 258 284 258c55 0 83 -33 83 -84c0 -13 -3 -31 -6 -44l-77 -284c-5 -19 -9 -33 -9 -41c0 -10 5 -15 14 -15c19 0 44 25 83 73l29 -26c-66 -94 -123 -144 -192 -144c-59 0 -97 37 -97 89c0 26 4 51 14 86l66 231c3 13 5 25 5 33
c0 12 -4 19 -17 19c-42 0 -167 -143 -211 -312l-35 -136h-163l110 442l-56 44l9 31l205 41h34zM579 765l53 -11c-60 -120 -90 -144 -146 -144c-51 0 -94 65 -132 65c-29 0 -46 -24 -68 -57l-54 11c61 120 90 144 145 144c57 0 94 -64 133 -64c28 0 47 23 69 56z" />
    <glyph glyph-name="oacute" unicode="&#xf3;" horiz-adv-x="591" 
d="M412 765h185l-195 -162h-87zM246 48c97 0 155 210 155 332c0 69 -16 117 -57 117c-96 0 -154 -210 -154 -332c0 -69 16 -117 56 -117zM242 -10c-124 0 -212 84 -212 224c0 183 128 341 319 341c124 0 212 -84 212 -224c0 -183 -128 -341 -319 -341z" />
    <glyph glyph-name="ocircumflex" unicode="&#xf4;" horiz-adv-x="591" 
d="M464 765l92 -169h-80l-90 84l-139 -84h-90l183 169h124zM246 48c97 0 155 210 155 332c0 69 -16 117 -57 117c-96 0 -154 -210 -154 -332c0 -69 16 -117 56 -117zM242 -10c-124 0 -212 84 -212 224c0 183 128 341 319 341c124 0 212 -84 212 -224
c0 -183 -128 -341 -319 -341z" />
    <glyph glyph-name="odieresis" unicode="&#xf6;" horiz-adv-x="591" 
d="M270 605c-50 0 -81 37 -81 78c0 47 34 88 87 88c50 0 80 -36 80 -78c0 -47 -33 -88 -86 -88zM483 605c-50 0 -81 37 -81 78c0 47 33 88 86 88c50 0 81 -36 81 -78c0 -47 -33 -88 -86 -88zM246 48c97 0 155 210 155 332c0 69 -16 117 -57 117c-96 0 -154 -210 -154 -332
c0 -69 16 -117 56 -117zM242 -10c-124 0 -212 84 -212 224c0 183 128 341 319 341c124 0 212 -84 212 -224c0 -183 -128 -341 -319 -341z" />
    <glyph glyph-name="ograve" unicode="&#xf2;" horiz-adv-x="591" 
d="M246 48c97 0 155 210 155 332c0 69 -16 117 -57 117c-96 0 -154 -210 -154 -332c0 -69 16 -117 56 -117zM242 -10c-124 0 -212 84 -212 224c0 183 128 341 319 341c124 0 212 -84 212 -224c0 -183 -128 -341 -319 -341zM208 765h169l41 -162h-81z" />
    <glyph glyph-name="otilde" unicode="&#xf5;" horiz-adv-x="591" 
d="M246 48c97 0 155 210 155 332c0 69 -16 117 -57 117c-96 0 -154 -210 -154 -332c0 -69 16 -117 56 -117zM242 -10c-124 0 -212 84 -212 224c0 183 128 341 319 341c124 0 212 -84 212 -224c0 -183 -128 -341 -319 -341zM531 765l53 -11c-60 -120 -90 -144 -146 -144
c-51 0 -94 65 -132 65c-29 0 -46 -24 -68 -57l-54 11c61 120 90 144 145 144c57 0 94 -64 133 -64c28 0 47 23 69 56z" />
    <glyph glyph-name="scaron" unicode="&#x161;" horiz-adv-x="469" 
d="M249 604l-93 169h80l90 -84l139 84h90l-182 -169h-124zM210 43c39 0 61 22 61 57c0 71 -198 139 -198 264c0 113 90 191 218 191c83 0 148 -40 148 -102c0 -28 -24 -50 -53 -59h-29c-13 63 -50 106 -99 106c-41 0 -61 -19 -61 -50c0 -67 207 -147 207 -269
c0 -117 -98 -191 -219 -191c-108 0 -186 50 -186 114c0 38 26 64 59 75h26c16 -84 56 -136 126 -136z" />
    <glyph glyph-name="uacute" unicode="&#xfa;" horiz-adv-x="685" 
d="M453 765h185l-195 -162h-87zM407 244h-7c-81 -150 -172 -254 -264 -254c-63 0 -93 38 -93 95c0 18 3 39 8 61l72 296l-55 44l9 31l205 38h33l-100 -397c-3 -13 -5 -27 -5 -35c0 -16 4 -24 18 -24c53 0 171 165 211 320l30 117l165 9l-100 -402c-5 -19 -9 -33 -9 -41
c0 -10 5 -15 14 -15c19 0 45 25 83 73l29 -26c-65 -94 -120 -144 -190 -144c-59 0 -90 41 -90 100c0 31 13 81 36 154z" />
    <glyph glyph-name="ucircumflex" unicode="&#xfb;" horiz-adv-x="685" 
d="M505 765l92 -169h-80l-90 84l-139 -84h-90l183 169h124zM407 244h-7c-81 -150 -172 -254 -264 -254c-63 0 -93 38 -93 95c0 18 3 39 8 61l72 296l-55 44l9 31l205 38h33l-100 -397c-3 -13 -5 -27 -5 -35c0 -16 4 -24 18 -24c53 0 171 165 211 320l30 117l165 9l-100 -402
c-5 -19 -9 -33 -9 -41c0 -10 5 -15 14 -15c19 0 45 25 83 73l29 -26c-65 -94 -120 -144 -190 -144c-59 0 -90 41 -90 100c0 31 13 81 36 154z" />
    <glyph glyph-name="udieresis" unicode="&#xfc;" horiz-adv-x="685" 
d="M315 605c-50 0 -81 37 -81 78c0 47 34 88 87 88c50 0 80 -36 80 -78c0 -47 -33 -88 -86 -88zM528 605c-50 0 -81 37 -81 78c0 47 33 88 86 88c50 0 81 -36 81 -78c0 -47 -33 -88 -86 -88zM407 244h-7c-81 -150 -172 -254 -264 -254c-63 0 -93 38 -93 95c0 18 3 39 8 61
l72 296l-55 44l9 31l205 38h33l-100 -397c-3 -13 -5 -27 -5 -35c0 -16 4 -24 18 -24c53 0 171 165 211 320l30 117l165 9l-100 -402c-5 -19 -9 -33 -9 -41c0 -10 5 -15 14 -15c19 0 45 25 83 73l29 -26c-65 -94 -120 -144 -190 -144c-59 0 -90 41 -90 100c0 31 13 81 36 154
z" />
    <glyph glyph-name="ugrave" unicode="&#xf9;" horiz-adv-x="685" 
d="M407 244h-7c-81 -150 -172 -254 -264 -254c-63 0 -93 38 -93 95c0 18 3 39 8 61l72 296l-55 44l9 31l205 38h33l-100 -397c-3 -13 -5 -27 -5 -35c0 -16 4 -24 18 -24c53 0 171 165 211 320l30 117l165 9l-100 -402c-5 -19 -9 -33 -9 -41c0 -10 5 -15 14 -15
c19 0 45 25 83 73l29 -26c-65 -94 -120 -144 -190 -144c-59 0 -90 41 -90 100c0 31 13 81 36 154zM248 765h169l41 -162h-81z" />
    <glyph glyph-name="yacute" unicode="&#xfd;" horiz-adv-x="558" 
d="M357 66c-156 -209 -252 -272 -349 -272c-59 0 -113 27 -113 88c0 34 23 65 60 77h29c0 -60 20 -95 75 -95c40 0 81 21 135 76l-111 508l-63 38l9 31l174 38h31l83 -464l12 16c86 121 105 218 105 276c0 60 -34 88 -87 88l1 18c21 34 59 66 114 66c63 0 90 -50 90 -101
c0 -111 -83 -240 -195 -388zM389 765h185l-195 -162h-87z" />
    <glyph glyph-name="ydieresis" unicode="&#xff;" horiz-adv-x="558" 
d="M357 66c-156 -209 -252 -272 -349 -272c-59 0 -113 27 -113 88c0 34 23 65 60 77h29c0 -60 20 -95 75 -95c40 0 81 21 135 76l-111 508l-63 38l9 31l174 38h31l83 -464l12 16c86 121 105 218 105 276c0 60 -34 88 -87 88l1 18c21 34 59 66 114 66c63 0 90 -50 90 -101
c0 -111 -83 -240 -195 -388zM464 605c-50 0 -81 37 -81 78c0 47 33 88 86 88c50 0 81 -36 81 -78c0 -47 -33 -88 -86 -88zM251 605c-50 0 -81 37 -81 78c0 47 34 88 87 88c50 0 80 -36 80 -78c0 -47 -33 -88 -86 -88z" />
    <glyph glyph-name="zcaron" unicode="&#x17e;" horiz-adv-x="532" 
d="M280 604l-93 169h80l90 -84l139 84h90l-182 -169h-124zM367 411h-189c-32 0 -43 -7 -60 -34l-27 -43l-33 9l86 236h32c3 -25 8 -37 23 -37h354v-31l-370 -337l92 -28c19 -6 45 -13 73 -13c51 0 76 8 123 81l32 -10c-56 -149 -107 -218 -199 -218c-49 0 -87 15 -135 41
l-94 51l-49 -81c-34 0 -52 13 -52 35c0 17 7 34 28 53z" />
    <glyph glyph-name="Omega" unicode="&#x2126;" horiz-adv-x="758" 
d="M464 645c-144 0 -203 -233 -203 -353c0 -90 24 -161 47 -206l-18 -86h-268l16 193h38c28 -82 35 -91 125 -91h54c-77 28 -155 125 -155 257c0 193 173 353 373 353c160 0 249 -105 249 -247c0 -171 -126 -306 -286 -363h55c90 0 100 9 163 91h39l-66 -193h-269l18 86
c103 110 183 272 183 418c0 86 -32 141 -95 141z" />
    <glyph glyph-name="pi" unicode="&#x3c0;" horiz-adv-x="678" 
d="M440 429h-132c-43 -204 -74 -298 -131 -429h-173l8 41c71 97 145 199 185 388h-105l24 117h571l-42 -117h-80c-34 -132 -63 -251 -63 -304c0 -24 14 -38 36 -38c8 0 29 2 44 6l-1 -45c-46 -37 -90 -58 -144 -58c-59 0 -96 33 -96 90c0 72 44 197 99 349z" />
    <glyph glyph-name="Euro" unicode="&#x20ac;" horiz-adv-x="711" 
d="M50 383l13 54h80c64 170 214 275 377 275c93 0 156 -29 202 -72l-30 -153h-73c-6 108 -29 157 -102 157c-99 0 -168 -93 -203 -207h231l-21 -54h-224c-4 -22 -8 -44 -10 -65h210l-22 -55h-191v-7c0 -119 30 -197 113 -197c84 0 128 53 181 178h80l-39 -177
c-65 -42 -139 -70 -236 -70c-175 0 -274 98 -274 264v9h-88l13 55h78c3 22 7 44 12 65h-77z" />
    <glyph glyph-name="partialdiff" unicode="&#x2202;" horiz-adv-x="591" 
d="M341 544c14 0 27 -1 40 -4c-29 91 -91 146 -200 197l28 39c255 -59 353 -244 353 -421c0 -203 -129 -365 -320 -365c-124 0 -212 84 -212 224c0 183 128 330 311 330zM401 380c0 36 -2 68 -6 97c-13 6 -28 9 -47 9c-100 0 -158 -199 -158 -321c0 -69 16 -117 56 -117
c97 0 155 210 155 332z" />
    <glyph glyph-name="product" unicode="&#x220f;" horiz-adv-x="817" 
d="M116 702h767l-13 -63c-68 -3 -87 -14 -98 -69l-135 -635c-3 -11 -4 -21 -4 -29c0 -30 20 -38 72 -40l-13 -63h-336l12 63c67 3 88 14 99 69l150 709h-261l-150 -709c-3 -11 -4 -21 -4 -29c0 -30 20 -38 72 -40l-12 -63h-336l13 63c66 3 86 14 97 69l135 635
c2 11 4 20 4 28c0 31 -21 39 -73 41z" />
    <glyph glyph-name="summation" unicode="&#x2211;" horiz-adv-x="635" 
d="M70 -60h190c85 0 122 3 199 98h66l-90 -235h-535l12 59l359 398l-185 374l15 68h542l-40 -187h-75c-18 90 -38 127 -127 127h-131l142 -301l-9 -37z" />
    <glyph glyph-name="radical" unicode="&#x221a;" horiz-adv-x="608" 
d="M333 232l286 480h74l-426 -712h-74l-50 433c-5 40 -15 53 -46 57l-28 2l11 54h228z" />
    <glyph glyph-name="infinity" unicode="&#x221e;" horiz-adv-x="767" 
d="M350 349l-28 39c-26 33 -51 51 -85 51c-52 0 -96 -40 -96 -108c0 -45 32 -72 68 -72c37 0 63 16 92 43zM451 349l29 -39c25 -34 50 -51 84 -51c53 0 96 40 96 108c0 44 -32 72 -68 72s-63 -16 -92 -43zM394 290l-38 -38c-46 -48 -93 -74 -155 -74c-82 0 -145 53 -145 147
c0 115 85 194 187 194c62 0 108 -29 138 -73l27 -38l37 38c46 47 93 74 156 74c81 0 144 -53 144 -147c0 -116 -85 -194 -187 -194c-62 0 -107 29 -138 73z" />
    <glyph glyph-name="integral" unicode="&#x222b;" horiz-adv-x="449" 
d="M311 483l-84 -405c-35 -171 -101 -276 -264 -276c-67 0 -120 25 -120 86c0 31 18 56 52 67h54c-6 -57 -11 -105 22 -105c42 0 53 54 80 181l84 406c36 171 101 275 264 275c67 0 120 -25 120 -85c0 -32 -18 -57 -52 -67h-54c6 56 11 104 -22 104c-42 0 -53 -54 -80 -181z
" />
    <glyph glyph-name="approxequal" unicode="&#x2248;" horiz-adv-x="607" 
d="M98 380l18 86c51 28 93 41 131 41c78 0 122 -40 200 -40c37 0 81 10 133 41l-19 -85c-50 -29 -96 -42 -132 -42c-80 0 -121 41 -200 41c-36 0 -81 -13 -131 -42zM67 230l16 84c52 30 94 41 132 41c78 0 122 -39 200 -39c37 0 83 11 133 40l-18 -84
c-51 -31 -96 -41 -133 -41c-79 0 -121 39 -199 39c-36 0 -81 -12 -131 -40z" />
    <glyph glyph-name="notequal" unicode="&#x2260;" horiz-adv-x="607" 
d="M103 407l17 82h272l93 103h81l-93 -103h103l-18 -82h-158l-73 -81h214l-16 -81h-271l-93 -104h-82l93 104h-102l17 81h158l73 81h-215z" />
    <glyph glyph-name="lessequal" unicode="&#x2264;" horiz-adv-x="472" 
d="M90 404l2 10l372 182l-21 -102l-191 -89l154 -88l-21 -94zM27 103l19 87h332l-19 -87h-332z" />
    <glyph glyph-name="greaterequal" unicode="&#x2265;" horiz-adv-x="472" 
d="M396 190l-18 -87h-332l17 87h333zM443 414l-2 -10l-370 -181l22 102l188 89l-152 85l21 97z" />
    <glyph glyph-name="lozenge" unicode="&#x25ca;" horiz-adv-x="578" 
d="M56 351l280 351h95l131 -351l-280 -351h-95zM451 351l-88 257l-199 -257l90 -256z" />
    <glyph glyph-name="uni00A0" unicode="&#xa0;" horiz-adv-x="200" 
 />
    <glyph glyph-name="twosuperior" unicode="&#xb2;" horiz-adv-x="445" 
d="M206 388h106c43 0 52 6 94 54h38l-48 -155h-349l8 43c227 170 256 211 256 267c0 38 -20 60 -60 60c-42 0 -80 -27 -108 -58l-24 32c37 62 103 117 200 117c74 0 130 -37 130 -112c0 -105 -111 -172 -243 -248z" />
    <glyph glyph-name="Tcedilla" unicode="&#x162;" horiz-adv-x="724" 
d="M302 -157h-58c-26 7 -40 22 -40 48c0 41 33 73 90 73c52 0 81 -31 81 -78c0 -72 -51 -132 -181 -132l1 43c64 0 101 19 107 46zM144 702h640l-34 -230h-64c-21 117 -39 168 -122 168h-28l-105 -495c-5 -22 -6 -32 -6 -39c0 -34 26 -43 82 -45l-12 -61h-357l13 61
c67 3 95 15 106 70l108 509h-29c-82 0 -114 -50 -190 -168h-66z" />
    <glyph glyph-name="tcedilla" unicode="&#x163;" horiz-adv-x="423" 
d="M150 -157h-58c-26 7 -40 22 -40 48c0 41 33 73 90 73c52 0 81 -31 81 -78c0 -72 -51 -132 -181 -132l1 43c64 0 101 19 107 46zM294 482l-76 -316c-6 -24 -9 -40 -9 -52c0 -17 7 -28 23 -28c32 0 67 31 127 95l29 -26c-76 -104 -151 -165 -239 -165
c-71 0 -104 49 -104 104c0 26 3 46 10 76l76 312h-73l12 45c76 16 157 71 216 142h54l-30 -123h119l-16 -64h-119z" />
    <glyph glyph-name="Tcedilla.sc" horiz-adv-x="663" 
d="M489 547l-93 -427c-2 -11 -4 -20 -4 -26c0 -26 21 -34 74 -34l-13 -60h-331l13 60c61 0 84 13 94 59l93 428h-18c-71 0 -100 -47 -163 -146h-69l57 205h577l-32 -205h-63c-15 96 -35 146 -105 146h-17zM274 -157h-58c-26 7 -40 22 -40 48c0 41 33 73 90 73
c52 0 81 -31 81 -78c0 -72 -51 -132 -181 -132l1 43c64 0 101 19 107 46z" />
    <glyph glyph-name="i.dot" horiz-adv-x="363" 
d="M316 555l-104 -412c-5 -19 -8 -33 -8 -41c0 -10 5 -15 14 -15c19 0 45 25 83 73l29 -26c-65 -94 -122 -144 -192 -144c-58 0 -96 37 -96 89c0 26 5 51 13 86l69 277l-56 44l9 31l206 38h33zM261 601c-55 0 -89 39 -89 83c0 51 36 94 97 94c54 0 89 -38 89 -82
c0 -51 -37 -95 -97 -95z" />
    <glyph glyph-name="uni0237" unicode="&#x237;" horiz-adv-x="332" 
d="M30 -8l101 450l-56 44l9 31l206 38h33l-112 -453c-49 -197 -137 -309 -271 -309c-72 0 -120 29 -120 77c0 46 35 70 74 75h25c3 -61 14 -107 44 -107c31 0 43 47 67 154z" />
    <glyph glyph-name="space_uni0326" horiz-adv-x="500" 
d="M257 -157h-58c-26 7 -40 22 -40 48c0 41 33 73 90 73c52 0 81 -31 81 -78c0 -72 -51 -132 -181 -132l1 43c64 0 101 19 107 46z" />
    <glyph glyph-name="space_uni0326.alt" horiz-adv-x="500" 
d="M223 718h58c25 -7 39 -22 39 -48c0 -42 -33 -73 -90 -73c-52 0 -81 31 -81 77c0 73 51 133 181 133l-1 -43c-64 0 -100 -19 -106 -46z" />
    <glyph glyph-name="space_dotbelowcomb" horiz-adv-x="500" 
d="M167 -152c-2 46 35 88 80 90c45 1 83 -36 85 -82c2 -45 -34 -86 -80 -88c-44 -1 -83 36 -85 80z" />
    <glyph glyph-name="uni2117" unicode="&#x2117;" horiz-adv-x="796" 
d="M398 30c192 0 337 153 337 347c0 167 -118 295 -292 295c-192 0 -337 -153 -337 -347c0 -167 118 -295 292 -295zM398 -10c-197 0 -336 145 -336 335c0 216 166 387 381 387c197 0 336 -145 336 -335c0 -216 -166 -387 -381 -387zM441 307h-49l-16 -71
c-1 -8 -2 -14 -2 -18c0 -18 14 -22 52 -23l-9 -41h-211l9 41c38 1 45 8 53 39l54 239c2 7 3 13 3 18c0 15 -10 18 -38 19l9 41h196c99 0 137 -45 137 -108c0 -76 -75 -136 -188 -136zM437 506l-36 -158h20c58 0 102 25 102 94c0 43 -22 64 -68 64h-18z" />
    <glyph glyph-name="Delta" unicode="&#x2206;" horiz-adv-x="686" 
d="M617 0h-638l10 48l432 654h47l159 -654zM354 494l-280 -429h376z" />
    <glyph glyph-name="Abreve" unicode="&#x102;" horiz-adv-x="751" 
d="M470 145l-14 72h-263l-44 -72c-10 -16 -18 -34 -18 -49c0 -23 17 -33 68 -35l-12 -61h-226l13 61c28 5 48 10 65 37l332 530l-18 77h174l129 -607c5 -25 22 -33 52 -37l-12 -61h-321l13 61c58 3 86 12 86 48c0 11 -1 23 -4 36zM459 748c-80 0 -126 45 -126 114
c0 17 3 36 10 56h60c-1 -5 -1 -10 -1 -15c0 -52 38 -68 76 -68c40 0 85 19 110 83h67c-26 -106 -97 -170 -196 -170zM394 540l-161 -259h211z" />
    <glyph glyph-name="Amacron" unicode="&#x100;" horiz-adv-x="751" 
d="M470 145l-14 72h-263l-44 -72c-10 -16 -18 -34 -18 -49c0 -23 17 -33 68 -35l-12 -61h-226l13 61c28 5 48 10 65 37l332 530l-18 77h174l129 -607c5 -25 22 -33 52 -37l-12 -61h-321l13 61c58 3 86 12 86 48c0 11 -1 23 -4 36zM304 763l22 97h310l-22 -97h-310zM394 540
l-161 -259h211z" />
    <glyph glyph-name="Aogonek" unicode="&#x104;" horiz-adv-x="751" 
d="M470 145l-14 72h-263l-44 -72c-10 -16 -18 -34 -18 -49c0 -23 17 -33 68 -35l-12 -61h-226l13 61c28 5 48 10 65 37l332 530l-18 77h174l129 -607c5 -25 22 -33 52 -37l-12 -61h-274c-56 -32 -89 -66 -89 -103c0 -22 12 -38 40 -38c23 0 47 10 78 29l15 -26
c-48 -47 -96 -77 -153 -77c-47 0 -84 27 -84 72c0 77 71 118 150 161c72 40 95 55 95 91c0 11 -1 23 -4 36zM394 540l-161 -259h211z" />
    <glyph glyph-name="Aringacute" unicode="&#x1fa;" horiz-adv-x="751" 
d="M470 145l-14 72h-263l-44 -72c-10 -16 -18 -34 -18 -49c0 -23 17 -33 68 -35l-12 -61h-226l13 61c28 5 48 10 65 37l332 530l-18 77h174l129 -607c5 -25 22 -33 52 -37l-12 -61h-321l13 61c58 3 86 12 86 48c0 11 -1 23 -4 36zM468 735c-63 0 -106 32 -106 80
c0 56 58 96 126 96c64 0 106 -31 106 -79c0 -56 -57 -97 -126 -97zM394 540l-161 -259h211zM546 1054h184l-167 -116h-87zM473 783c36 0 55 21 55 46c0 22 -16 34 -44 34c-36 0 -56 -21 -56 -45c0 -22 16 -35 45 -35z" />
    <glyph glyph-name="AEacute" unicode="&#x1fc;" horiz-adv-x="1042" 
d="M39 98l439 514c-8 24 -26 29 -70 29l12 61h658l-40 -186h-62c-15 83 -30 122 -110 122h-122l-50 -244h91c44 0 67 21 90 81h58l-48 -228h-58c0 59 -12 81 -56 81h-91l-39 -183c-3 -14 -5 -27 -5 -35c0 -37 26 -46 73 -46h34c75 0 117 36 196 137h69l-73 -201h-581l13 61
c69 3 89 15 101 70l24 115h-238l-81 -93c-21 -23 -28 -42 -28 -57c0 -23 18 -33 69 -35l-12 -61h-241l13 61c28 5 44 13 65 37zM568 606l-259 -297h196zM779 909h184l-192 -156h-87z" />
    <glyph glyph-name="Cacute" unicode="&#x106;" horiz-adv-x="696" 
d="M362 -10c-201 0 -304 120 -304 281c0 252 189 441 432 441c101 0 176 -30 223 -74l-33 -157h-81c-7 103 -30 165 -111 165c-155 0 -249 -210 -249 -391c0 -120 42 -195 133 -195c90 0 135 59 197 183h85l-44 -187c-67 -40 -153 -66 -248 -66zM558 909h184l-192 -156h-87z
" />
    <glyph glyph-name="Ccaron" unicode="&#x10c;" horiz-adv-x="696" 
d="M362 -10c-201 0 -304 120 -304 281c0 252 189 441 432 441c101 0 176 -30 223 -74l-33 -157h-81c-7 103 -30 165 -111 165c-155 0 -249 -210 -249 -391c0 -120 42 -195 133 -195c90 0 135 59 197 183h85l-44 -187c-67 -40 -153 -66 -248 -66zM452 754l-95 167h81l91 -82
l141 82h91l-185 -167h-124z" />
    <glyph glyph-name="Ccircumflex" unicode="&#x108;" horiz-adv-x="696" 
d="M362 -10c-201 0 -304 120 -304 281c0 252 189 441 432 441c101 0 176 -30 223 -74l-33 -157h-81c-7 103 -30 165 -111 165c-155 0 -249 -210 -249 -391c0 -120 42 -195 133 -195c90 0 135 59 197 183h85l-44 -187c-67 -40 -153 -66 -248 -66zM611 918l95 -167h-81l-91 82
l-141 -82h-91l185 167h124z" />
    <glyph glyph-name="Cdotaccent" unicode="&#x10a;" horiz-adv-x="696" 
d="M528 749c-55 0 -89 38 -89 83c0 50 36 93 97 93c54 0 89 -38 89 -82c0 -51 -37 -94 -97 -94zM362 -10c-201 0 -304 120 -304 281c0 252 189 441 432 441c101 0 176 -30 223 -74l-33 -157h-81c-7 103 -30 165 -111 165c-155 0 -249 -210 -249 -391
c0 -120 42 -195 133 -195c90 0 135 59 197 183h85l-44 -187c-67 -40 -153 -66 -248 -66z" />
    <glyph glyph-name="Dcaron" unicode="&#x10e;" horiz-adv-x="782" 
d="M402 754l-95 167h81l91 -82l141 82h91l-185 -167h-124zM421 636h-45l-103 -488c-4 -18 -5 -32 -5 -41c0 -33 18 -41 62 -41h10c170 0 251 203 251 363c0 127 -48 207 -170 207zM-14 0l13 61c68 3 88 15 100 70l92 435c2 10 4 25 4 32c0 33 -18 41 -73 43l12 61h302
c215 0 336 -109 336 -288c0 -243 -186 -414 -446 -414h-340z" />
    <glyph glyph-name="Dcroat" unicode="&#x110;" horiz-adv-x="792" 
d="M62 329l13 66h90l36 171c2 10 4 25 4 32c0 33 -18 41 -73 43l12 61h302c215 0 336 -109 336 -288c0 -243 -186 -414 -446 -414h-340l13 61c68 3 88 15 100 70l42 198h-89zM431 636h-45l-51 -241h133l-14 -66h-133l-38 -181c-4 -18 -5 -32 -5 -41c0 -33 18 -41 62 -41h10
c170 0 251 203 251 363c0 127 -48 207 -170 207z" />
    <glyph glyph-name="Ebreve" unicode="&#x114;" horiz-adv-x="673" 
d="M444 748c-80 0 -126 45 -126 114c0 17 3 36 10 56h60c-1 -5 -1 -10 -1 -15c0 -52 38 -68 76 -68c40 0 85 19 110 83h67c-26 -106 -97 -170 -196 -170zM-14 0l13 61c68 3 88 15 100 70l92 435c2 10 4 25 4 32c0 33 -18 41 -73 43l12 61h575l-40 -186h-62
c-15 83 -30 122 -110 122h-121l-51 -244h91c44 0 67 21 90 81h58l-48 -228h-58c0 59 -12 81 -56 81h-91l-38 -183c-4 -14 -5 -27 -5 -35c0 -37 25 -46 73 -46h33c75 0 117 36 196 137h69l-73 -201h-580z" />
    <glyph glyph-name="Ecaron" unicode="&#x11a;" horiz-adv-x="673" 
d="M381 754l-95 167h81l91 -82l141 82h91l-185 -167h-124zM-14 0l13 61c68 3 88 15 100 70l92 435c2 10 4 25 4 32c0 33 -18 41 -73 43l12 61h575l-40 -186h-62c-15 83 -30 122 -110 122h-121l-51 -244h91c44 0 67 21 90 81h58l-48 -228h-58c0 59 -12 81 -56 81h-91
l-38 -183c-4 -14 -5 -27 -5 -35c0 -37 25 -46 73 -46h33c75 0 117 36 196 137h69l-73 -201h-580z" />
    <glyph glyph-name="Edotaccent" unicode="&#x116;" horiz-adv-x="673" 
d="M457 749c-55 0 -89 38 -89 83c0 50 36 93 97 93c54 0 89 -38 89 -82c0 -51 -37 -94 -97 -94zM-14 0l13 61c68 3 88 15 100 70l92 435c2 10 4 25 4 32c0 33 -18 41 -73 43l12 61h575l-40 -186h-62c-15 83 -30 122 -110 122h-121l-51 -244h91c44 0 67 21 90 81h58l-48 -228
h-58c0 59 -12 81 -56 81h-91l-38 -183c-4 -14 -5 -27 -5 -35c0 -37 25 -46 73 -46h33c75 0 117 36 196 137h69l-73 -201h-580z" />
    <glyph glyph-name="Emacron" unicode="&#x112;" horiz-adv-x="673" 
d="M290 763l22 97h310l-22 -97h-310zM-14 0l13 61c68 3 88 15 100 70l92 435c2 10 4 25 4 32c0 33 -18 41 -73 43l12 61h575l-40 -186h-62c-15 83 -30 122 -110 122h-121l-51 -244h91c44 0 67 21 90 81h58l-48 -228h-58c0 59 -12 81 -56 81h-91l-38 -183
c-4 -14 -5 -27 -5 -35c0 -37 25 -46 73 -46h33c75 0 117 36 196 137h69l-73 -201h-580z" />
    <glyph glyph-name="Eogonek" unicode="&#x118;" horiz-adv-x="673" 
d="M-14 0l13 61c68 3 88 15 100 70l92 435c2 10 4 25 4 32c0 33 -18 41 -73 43l12 61h575l-40 -186h-62c-15 83 -30 122 -110 122h-121l-51 -244h91c44 0 67 21 90 81h58l-48 -228h-58c0 59 -12 81 -56 81h-91l-38 -183c-4 -14 -5 -27 -5 -35c0 -37 25 -46 73 -46h33
c75 0 117 36 196 137h69l-73 -201h-103c-54 -33 -86 -68 -86 -103c0 -22 12 -38 40 -38c23 0 46 10 77 29l16 -26c-48 -47 -96 -77 -153 -77c-48 0 -85 26 -85 71c0 65 54 109 121 144h-407z" />
    <glyph glyph-name="Gbreve" unicode="&#x11e;" horiz-adv-x="757" 
d="M508 748c-80 0 -126 45 -126 114c0 17 3 36 10 56h60c-1 -5 -1 -10 -1 -15c0 -52 38 -68 76 -68c40 0 85 19 110 83h67c-26 -106 -97 -170 -196 -170zM58 271c0 251 192 441 441 441c94 0 175 -30 222 -74l-34 -157h-81c-6 103 -36 165 -116 165
c-156 0 -251 -210 -251 -392c0 -120 44 -194 136 -194c41 0 63 7 90 21l31 127c3 12 5 23 5 31c0 31 -21 38 -74 40l14 64h322l-12 -64c-68 -2 -83 -14 -95 -68l-35 -145c-71 -48 -161 -76 -257 -76c-200 0 -306 118 -306 281z" />
    <glyph glyph-name="Gcircumflex" unicode="&#x11c;" horiz-adv-x="757" 
d="M58 271c0 251 192 441 441 441c94 0 175 -30 222 -74l-34 -157h-81c-6 103 -36 165 -116 165c-156 0 -251 -210 -251 -392c0 -120 44 -194 136 -194c41 0 63 7 90 21l31 127c3 12 5 23 5 31c0 31 -21 38 -74 40l14 64h322l-12 -64c-68 -2 -83 -14 -95 -68l-35 -145
c-71 -48 -161 -76 -257 -76c-200 0 -306 118 -306 281zM604 918l95 -167h-81l-91 82l-141 -82h-91l185 167h124z" />
    <glyph glyph-name="Gcommaaccent" unicode="&#x122;" horiz-adv-x="757" 
d="M334 -157h-58c-26 7 -40 22 -40 48c0 41 33 73 90 73c52 0 81 -31 81 -78c0 -72 -51 -132 -181 -132l1 43c64 0 101 19 107 46zM58 271c0 251 192 441 441 441c94 0 175 -30 222 -74l-34 -157h-81c-6 103 -36 165 -116 165c-156 0 -251 -210 -251 -392
c0 -120 44 -194 136 -194c41 0 63 7 90 21l31 127c3 12 5 23 5 31c0 31 -21 38 -74 40l14 64h322l-12 -64c-68 -2 -83 -14 -95 -68l-35 -145c-71 -48 -161 -76 -257 -76c-200 0 -306 118 -306 281z" />
    <glyph glyph-name="Gdotaccent" unicode="&#x120;" horiz-adv-x="757" 
d="M521 749c-55 0 -89 38 -89 83c0 50 36 93 97 93c54 0 89 -38 89 -82c0 -51 -37 -94 -97 -94zM58 271c0 251 192 441 441 441c94 0 175 -30 222 -74l-34 -157h-81c-6 103 -36 165 -116 165c-156 0 -251 -210 -251 -392c0 -120 44 -194 136 -194c41 0 63 7 90 21l31 127
c3 12 5 23 5 31c0 31 -21 38 -74 40l14 64h322l-12 -64c-68 -2 -83 -14 -95 -68l-35 -145c-71 -48 -161 -76 -257 -76c-200 0 -306 118 -306 281z" />
    <glyph glyph-name="Hbar" unicode="&#x126;" horiz-adv-x="888" 
d="M102 457l14 65h83l10 44c2 10 4 25 4 32c0 33 -18 41 -73 43l12 61h341l-12 -61c-69 -3 -89 -15 -100 -70l-11 -49h282l9 44c2 10 4 25 4 32c0 33 -17 41 -72 43l13 61h340l-13 -61c-68 -3 -88 -15 -100 -70l-11 -49h91l-14 -65h-90l-68 -321c-2 -10 -4 -25 -4 -32
c0 -33 18 -41 73 -43l-12 -61h-341l12 61c69 3 90 15 101 70l34 164h-282l-33 -159c-2 -10 -4 -25 -4 -32c0 -33 18 -41 72 -43l-12 -61h-341l13 61c68 3 88 15 100 70l69 326h-84zM357 457l-21 -96h282l20 96h-281z" />
    <glyph glyph-name="Hcircumflex" unicode="&#x124;" horiz-adv-x="860" 
d="M815 571l-92 -435c-2 -10 -4 -25 -4 -32c0 -33 18 -41 73 -43l-12 -61h-341l12 61c69 3 90 15 101 70l41 197h-282l-40 -192c-2 -10 -4 -25 -4 -32c0 -33 18 -41 72 -43l-12 -61h-341l13 61c68 3 88 15 100 70l92 435c2 10 4 25 4 32c0 33 -18 41 -73 43l12 61h341
l-12 -61c-69 -3 -89 -15 -100 -70l-38 -177h282l36 172c2 10 4 25 4 32c0 33 -17 41 -72 43l13 61h340l-13 -61c-68 -3 -88 -15 -100 -70zM639 918l95 -167h-81l-91 82l-141 -82h-91l185 167h124z" />
    <glyph glyph-name="Ibreve" unicode="&#x12c;" horiz-adv-x="407" 
d="M363 571l-92 -435c-2 -10 -4 -25 -4 -32c0 -33 18 -41 72 -43l-12 -61h-341l13 61c68 3 88 15 100 70l92 435c2 10 4 25 4 32c0 33 -18 41 -73 43l12 61h341l-12 -61c-69 -3 -89 -15 -100 -70zM316 748c-80 0 -126 45 -126 114c0 17 3 36 10 56h60c-1 -5 -1 -10 -1 -15
c0 -52 38 -68 76 -68c40 0 85 19 110 83h67c-26 -106 -97 -170 -196 -170z" />
    <glyph glyph-name="Idotaccent" unicode="&#x130;" horiz-adv-x="407" 
d="M363 571l-92 -435c-2 -10 -4 -25 -4 -32c0 -33 18 -41 72 -43l-12 -61h-341l13 61c68 3 88 15 100 70l92 435c2 10 4 25 4 32c0 33 -18 41 -73 43l12 61h341l-12 -61c-69 -3 -89 -15 -100 -70zM329 749c-55 0 -89 38 -89 83c0 50 36 93 97 93c54 0 89 -38 89 -82
c0 -51 -37 -94 -97 -94z" />
    <glyph glyph-name="Imacron" unicode="&#x12a;" horiz-adv-x="407" 
d="M363 571l-92 -435c-2 -10 -4 -25 -4 -32c0 -33 18 -41 72 -43l-12 -61h-341l13 61c68 3 88 15 100 70l92 435c2 10 4 25 4 32c0 33 -18 41 -73 43l12 61h341l-12 -61c-69 -3 -89 -15 -100 -70zM162 763l22 97h310l-22 -97h-310z" />
    <glyph glyph-name="Iogonek" unicode="&#x12e;" horiz-adv-x="407" 
d="M363 571l-92 -435c-2 -10 -4 -25 -4 -32c0 -33 18 -41 72 -43l-12 -61h-118c-54 -33 -86 -68 -86 -103c0 -22 12 -38 40 -38c23 0 46 10 77 29l16 -26c-48 -47 -96 -77 -153 -77c-48 0 -85 26 -85 71c0 65 54 109 121 144h-153l13 61c68 3 88 15 100 70l92 435
c2 10 4 25 4 32c0 33 -18 41 -73 43l12 61h341l-12 -61c-69 -3 -89 -15 -100 -70z" />
    <glyph glyph-name="Itilde" unicode="&#x128;" horiz-adv-x="407" 
d="M363 571l-92 -435c-2 -10 -4 -25 -4 -32c0 -33 18 -41 72 -43l-12 -61h-341l13 61c68 3 88 15 100 70l92 435c2 10 4 25 4 32c0 33 -18 41 -73 43l12 61h341l-12 -61c-69 -3 -89 -15 -100 -70zM477 898l53 -12c-60 -119 -90 -144 -146 -144c-51 0 -94 65 -132 65
c-29 0 -46 -24 -68 -56l-54 11c61 119 90 144 145 144c57 0 94 -65 133 -65c28 0 47 23 69 57z" />
    <glyph glyph-name="IJ" unicode="&#x132;" horiz-adv-x="997" 
d="M363 571l-92 -435c-2 -10 -4 -25 -4 -32c0 -33 18 -41 72 -43l-12 -61h-341l13 61c68 3 88 15 100 70l92 435c2 10 4 25 4 32c0 33 -18 41 -73 43l12 61h341l-12 -61c-69 -3 -89 -15 -100 -70zM717 188l80 378c2 10 4 25 4 32c0 33 -18 41 -73 43l12 61h342l-13 -61
c-69 -3 -89 -15 -100 -70l-76 -354c-34 -159 -130 -227 -285 -227c-140 0 -206 60 -206 138c0 47 28 83 61 99h120c-15 -39 -22 -65 -22 -99c0 -38 16 -75 58 -75c51 0 79 47 98 135z" />
    <glyph glyph-name="Jcircumflex" unicode="&#x134;" horiz-adv-x="591" 
d="M310 188l80 378c2 10 4 25 4 32c0 33 -18 41 -73 43l12 61h342l-13 -61c-69 -3 -89 -15 -100 -70l-76 -354c-34 -159 -130 -227 -285 -227c-140 0 -206 60 -206 138c0 47 28 83 61 99h120c-15 -39 -22 -65 -22 -99c0 -38 16 -75 58 -75c51 0 79 47 98 135zM612 918
l95 -167h-81l-91 82l-141 -82h-91l185 167h124z" />
    <glyph glyph-name="Kcommaaccent" unicode="&#x136;" horiz-adv-x="769" 
d="M370 -157h-58c-26 7 -40 22 -40 48c0 41 33 73 90 73c52 0 81 -31 81 -78c0 -72 -51 -132 -181 -132l1 43c64 0 101 19 107 46zM490 408l135 -273c29 -57 48 -74 99 -74l-12 -61h-196c-29 21 -52 64 -78 120l-108 237l254 210c20 18 35 30 35 44c0 16 -17 28 -58 30
l13 61h261l-12 -61c-47 -2 -67 -9 -111 -47zM363 571l-92 -435c-2 -10 -4 -25 -4 -32c0 -33 18 -41 72 -43l-12 -61h-341l13 61c68 3 88 15 100 70l92 435c2 10 4 25 4 32c0 33 -18 41 -73 43l12 61h341l-12 -61c-69 -3 -89 -15 -100 -70z" />
    <glyph glyph-name="Lacute" unicode="&#x139;" horiz-adv-x="655" 
d="M373 909h184l-192 -156h-87zM363 571l-91 -427c-3 -14 -5 -27 -5 -36c0 -32 22 -42 70 -42h31c69 0 98 31 200 163h74l-85 -229h-571l13 61c68 3 88 15 100 70l92 435c2 10 4 25 4 32c0 33 -18 41 -73 43l12 61h341l-12 -61c-69 -3 -89 -15 -100 -70z" />
    <glyph glyph-name="Lcaron" unicode="&#x13d;" horiz-adv-x="655" 
d="M706 705l-132 -205h-68l53 205h147zM363 571l-91 -427c-3 -14 -5 -27 -5 -36c0 -32 22 -42 70 -42h31c69 0 98 31 200 163h74l-85 -229h-571l13 61c68 3 88 15 100 70l92 435c2 10 4 25 4 32c0 33 -18 41 -73 43l12 61h341l-12 -61c-69 -3 -89 -15 -100 -70z" />
    <glyph glyph-name="Lcommaaccent" unicode="&#x13b;" horiz-adv-x="655" 
d="M288 -157h-58c-26 7 -40 22 -40 48c0 41 33 73 90 73c52 0 81 -31 81 -78c0 -72 -51 -132 -181 -132l1 43c64 0 101 19 107 46zM363 571l-91 -427c-3 -14 -5 -27 -5 -36c0 -32 22 -42 70 -42h31c69 0 98 31 200 163h74l-85 -229h-571l13 61c68 3 88 15 100 70l92 435
c2 10 4 25 4 32c0 33 -18 41 -73 43l12 61h341l-12 -61c-69 -3 -89 -15 -100 -70z" />
    <glyph glyph-name="Ldot" unicode="&#x13f;" horiz-adv-x="655" 
d="M363 571l-91 -427c-3 -14 -5 -27 -5 -36c0 -32 22 -42 70 -42h31c69 0 98 31 200 163h74l-85 -229h-571l13 61c68 3 88 15 100 70l92 435c2 10 4 25 4 32c0 33 -18 41 -73 43l12 61h341l-12 -61c-69 -3 -89 -15 -100 -70zM563 311c-55 0 -89 39 -89 83c0 51 36 94 97 94
c54 0 89 -38 89 -82c0 -51 -37 -95 -97 -95z" />
    <glyph glyph-name="Nacute" unicode="&#x143;" horiz-adv-x="787" 
d="M552 909h184l-192 -156h-87zM602 266l62 300c3 10 5 25 5 32c0 33 -18 41 -73 43l12 61h252l-12 -61c-68 -3 -89 -15 -101 -70l-119 -571h-72l-295 517l-79 -381c-2 -10 -4 -25 -4 -32c0 -33 17 -41 72 -43l-13 -61h-251l13 61c68 3 88 15 100 70l97 458
c-24 42 -37 48 -75 52l13 61h234z" />
    <glyph glyph-name="Ncaron" unicode="&#x147;" horiz-adv-x="787" 
d="M446 754l-95 167h81l91 -82l141 82h91l-185 -167h-124zM602 266l62 300c3 10 5 25 5 32c0 33 -18 41 -73 43l12 61h252l-12 -61c-68 -3 -89 -15 -101 -70l-119 -571h-72l-295 517l-79 -381c-2 -10 -4 -25 -4 -32c0 -33 17 -41 72 -43l-13 -61h-251l13 61
c68 3 88 15 100 70l97 458c-24 42 -37 48 -75 52l13 61h234z" />
    <glyph glyph-name="Ncommaaccent" unicode="&#x145;" horiz-adv-x="787" 
d="M355 -157h-58c-26 7 -40 22 -40 48c0 41 33 73 90 73c52 0 81 -31 81 -78c0 -72 -51 -132 -181 -132l1 43c64 0 101 19 107 46zM602 266l62 300c3 10 5 25 5 32c0 33 -18 41 -73 43l12 61h252l-12 -61c-68 -3 -89 -15 -101 -70l-119 -571h-72l-295 517l-79 -381
c-2 -10 -4 -25 -4 -32c0 -33 17 -41 72 -43l-13 -61h-251l13 61c68 3 88 15 100 70l97 458c-24 42 -37 48 -75 52l13 61h234z" />
    <glyph glyph-name="Eng" unicode="&#x14a;" horiz-adv-x="787" 
d="M747 571l-97 -469c-42 -199 -129 -309 -263 -309c-71 0 -120 29 -120 77c0 46 35 70 74 75h25c3 -61 14 -107 44 -107c31 0 54 33 82 159l18 75l-249 445l-79 -381c-2 -10 -4 -25 -4 -32c0 -33 17 -41 72 -43l-13 -61h-251l13 61c68 3 88 15 100 70l97 458
c-24 42 -37 48 -75 52l13 61h234l234 -436l62 300c3 10 5 25 5 32c0 33 -18 41 -73 43l12 61h252l-12 -61c-68 -3 -89 -15 -101 -70z" />
    <glyph glyph-name="Obreve" unicode="&#x14e;" horiz-adv-x="755" 
d="M485 748c-80 0 -126 45 -126 114c0 17 3 36 10 56h60c-1 -5 -1 -10 -1 -15c0 -52 38 -68 76 -68c40 0 85 19 110 83h67c-26 -106 -97 -170 -196 -170zM348 57c136 0 215 228 215 395c0 115 -27 193 -108 193c-136 0 -215 -228 -215 -395c0 -115 27 -193 108 -193z
M344 -10c-177 0 -286 111 -286 285c0 222 162 437 401 437c177 0 286 -111 286 -285c0 -222 -162 -437 -401 -437z" />
    <glyph glyph-name="Ohungarumlaut" unicode="&#x150;" horiz-adv-x="755" 
d="M348 57c136 0 215 228 215 395c0 115 -27 193 -108 193c-136 0 -215 -228 -215 -395c0 -115 27 -193 108 -193zM344 -10c-177 0 -286 111 -286 285c0 222 162 437 401 437c177 0 286 -111 286 -285c0 -222 -162 -437 -401 -437zM425 909h158l-174 -156h-81zM624 909h162
l-179 -156h-81z" />
    <glyph glyph-name="Omacron" unicode="&#x14c;" horiz-adv-x="755" 
d="M330 763l22 97h310l-22 -97h-310zM348 57c136 0 215 228 215 395c0 115 -27 193 -108 193c-136 0 -215 -228 -215 -395c0 -115 27 -193 108 -193zM344 -10c-177 0 -286 111 -286 285c0 222 162 437 401 437c177 0 286 -111 286 -285c0 -222 -162 -437 -401 -437z" />
    <glyph glyph-name="Oslashacute" unicode="&#x1fe;" horiz-adv-x="755" 
d="M675 741l-46 -75c74 -48 116 -131 116 -239c0 -222 -162 -437 -401 -437c-44 0 -83 7 -118 19l-55 -90l-51 28l54 88c-74 48 -116 132 -116 240c0 222 162 437 401 437c43 0 83 -7 117 -20l48 78zM234 256c0 -41 3 -77 10 -106l285 465c-18 19 -41 30 -74 30
c-136 0 -221 -228 -221 -389zM348 57c136 0 221 228 221 391c0 39 -3 75 -10 104l-285 -465c17 -20 41 -30 74 -30zM532 909h184l-192 -156h-87z" />
    <glyph glyph-name="Racute" unicode="&#x154;" horiz-adv-x="746" 
d="M413 636h-41l-59 -279h35c116 0 195 43 195 162c0 75 -41 117 -130 117zM300 295l-33 -159c-2 -10 -4 -25 -4 -32c0 -33 18 -41 72 -43l-12 -61h-337l13 61c68 3 88 15 100 70l92 435c2 10 4 25 4 32c0 33 -18 41 -73 43l12 61h340c161 0 242 -61 242 -181
c0 -111 -96 -183 -204 -201l86 -181c28 -60 45 -77 103 -78l-13 -61h-201c-27 26 -47 65 -65 112l-71 183h-51zM484 909h184l-192 -156h-87z" />
    <glyph glyph-name="Rcaron" unicode="&#x158;" horiz-adv-x="746" 
d="M378 754l-95 167h81l91 -82l141 82h91l-185 -167h-124zM413 636h-41l-59 -279h35c116 0 195 43 195 162c0 75 -41 117 -130 117zM300 295l-33 -159c-2 -10 -4 -25 -4 -32c0 -33 18 -41 72 -43l-12 -61h-337l13 61c68 3 88 15 100 70l92 435c2 10 4 25 4 32
c0 33 -18 41 -73 43l12 61h340c161 0 242 -61 242 -181c0 -111 -96 -183 -204 -201l86 -181c28 -60 45 -77 103 -78l-13 -61h-201c-27 26 -47 65 -65 112l-71 183h-51z" />
    <glyph glyph-name="Rcommaaccent" unicode="&#x156;" horiz-adv-x="746" 
d="M343 -157h-58c-26 7 -40 22 -40 48c0 41 33 73 90 73c52 0 81 -31 81 -78c0 -72 -51 -132 -181 -132l1 43c64 0 101 19 107 46zM413 636h-41l-59 -279h35c116 0 195 43 195 162c0 75 -41 117 -130 117zM300 295l-33 -159c-2 -10 -4 -25 -4 -32c0 -33 18 -41 72 -43
l-12 -61h-337l13 61c68 3 88 15 100 70l92 435c2 10 4 25 4 32c0 33 -18 41 -73 43l12 61h340c161 0 242 -61 242 -181c0 -111 -96 -183 -204 -201l86 -181c28 -60 45 -77 103 -78l-13 -61h-201c-27 26 -47 65 -65 112l-71 183h-51z" />
    <glyph glyph-name="Sacute" unicode="&#x15a;" horiz-adv-x="583" 
d="M263 -10c-116 0 -205 49 -242 93l27 158h79c5 -117 56 -190 148 -190c65 0 113 34 113 103c0 56 -31 84 -120 128c-112 55 -165 118 -165 211c0 138 111 219 260 219c105 0 175 -34 220 -74l-30 -147h-69c-11 88 -38 159 -133 159c-66 0 -103 -40 -103 -95
s35 -81 112 -120c115 -57 182 -109 182 -216c0 -156 -138 -229 -279 -229zM443 909h184l-192 -156h-87z" />
    <glyph glyph-name="Scedilla" unicode="&#x15e;" horiz-adv-x="583" 
d="M121 -231l-10 46c73 0 123 13 123 41c0 26 -30 35 -79 37l51 101c-88 12 -155 52 -185 89l27 158h79c5 -117 56 -190 148 -190c65 0 113 34 113 103c0 56 -31 84 -120 128c-112 55 -165 118 -165 211c0 138 111 219 260 219c105 0 175 -34 220 -74l-30 -147h-69
c-11 88 -38 159 -133 159c-66 0 -103 -40 -103 -95s35 -81 112 -120c115 -57 182 -109 182 -216c0 -156 -138 -229 -279 -229c-5 0 -9 1 -13 1l-18 -36c59 -5 89 -29 89 -75c0 -74 -99 -111 -200 -111z" />
    <glyph glyph-name="Scircumflex" unicode="&#x15c;" horiz-adv-x="583" 
d="M263 -10c-116 0 -205 49 -242 93l27 158h79c5 -117 56 -190 148 -190c65 0 113 34 113 103c0 56 -31 84 -120 128c-112 55 -165 118 -165 211c0 138 111 219 260 219c105 0 175 -34 220 -74l-30 -147h-69c-11 88 -38 159 -133 159c-66 0 -103 -40 -103 -95
s35 -81 112 -120c115 -57 182 -109 182 -216c0 -156 -138 -229 -279 -229zM496 918l95 -167h-81l-91 82l-141 -82h-91l185 167h124z" />
    <glyph glyph-name="Scommaaccent" unicode="&#x218;" horiz-adv-x="583" 
d="M226 -157h-58c-26 7 -40 22 -40 48c0 41 33 73 90 73c52 0 81 -31 81 -78c0 -72 -51 -132 -181 -132l1 43c64 0 101 19 107 46zM263 -10c-116 0 -205 49 -242 93l27 158h79c5 -117 56 -190 148 -190c65 0 113 34 113 103c0 56 -31 84 -120 128c-112 55 -165 118 -165 211
c0 138 111 219 260 219c105 0 175 -34 220 -74l-30 -147h-69c-11 88 -38 159 -133 159c-66 0 -103 -40 -103 -95s35 -81 112 -120c115 -57 182 -109 182 -216c0 -156 -138 -229 -279 -229z" />
    <glyph glyph-name="Tbar" unicode="&#x166;" horiz-adv-x="724" 
d="M144 702h640l-34 -230h-64c-21 117 -39 168 -122 168h-28l-51 -241h110l-14 -65h-110l-40 -189c-5 -22 -6 -32 -6 -39c0 -34 26 -43 82 -45l-12 -61h-357l13 61c67 3 95 15 106 70l43 203h-106l14 65h106l51 241h-29c-82 0 -114 -50 -190 -168h-66z" />
    <glyph glyph-name="Tcaron" unicode="&#x164;" horiz-adv-x="724" 
d="M413 754l-95 167h81l91 -82l141 82h91l-185 -167h-124zM144 702h640l-34 -230h-64c-21 117 -39 168 -122 168h-28l-105 -495c-5 -22 -6 -32 -6 -39c0 -34 26 -43 82 -45l-12 -61h-357l13 61c67 3 95 15 106 70l108 509h-29c-82 0 -114 -50 -190 -168h-66z" />
    <glyph glyph-name="Ubreve" unicode="&#x16c;" horiz-adv-x="772" 
d="M537 748c-80 0 -126 45 -126 114c0 17 3 36 10 56h60c-1 -5 -1 -10 -1 -15c0 -52 38 -68 76 -68c40 0 85 19 110 83h67c-26 -106 -97 -170 -196 -170zM596 269l63 297c2 10 4 25 4 32c0 33 -18 41 -72 43l12 61h252l-13 -61c-67 -3 -89 -15 -100 -70l-68 -329
c-36 -173 -157 -252 -308 -252c-161 0 -260 77 -260 216c0 22 3 46 10 78l59 282c2 10 4 25 4 32c0 33 -18 41 -73 43l12 61h342l-13 -61c-69 -3 -89 -15 -100 -70l-60 -280c-5 -25 -8 -48 -8 -70c0 -86 44 -137 124 -137c95 0 162 41 193 185z" />
    <glyph glyph-name="Uhungarumlaut" unicode="&#x170;" horiz-adv-x="772" 
d="M596 269l63 297c2 10 4 25 4 32c0 33 -18 41 -72 43l12 61h252l-13 -61c-67 -3 -89 -15 -100 -70l-68 -329c-36 -173 -157 -252 -308 -252c-161 0 -260 77 -260 216c0 22 3 46 10 78l59 282c2 10 4 25 4 32c0 33 -18 41 -73 43l12 61h342l-13 -61
c-69 -3 -89 -15 -100 -70l-60 -280c-5 -25 -8 -48 -8 -70c0 -86 44 -137 124 -137c95 0 162 41 193 185zM477 909h158l-174 -156h-81zM676 909h162l-179 -156h-81z" />
    <glyph glyph-name="Umacron" unicode="&#x16a;" horiz-adv-x="772" 
d="M383 763l22 97h310l-22 -97h-310zM596 269l63 297c2 10 4 25 4 32c0 33 -18 41 -72 43l12 61h252l-13 -61c-67 -3 -89 -15 -100 -70l-68 -329c-36 -173 -157 -252 -308 -252c-161 0 -260 77 -260 216c0 22 3 46 10 78l59 282c2 10 4 25 4 32c0 33 -18 41 -73 43l12 61
h342l-13 -61c-69 -3 -89 -15 -100 -70l-60 -280c-5 -25 -8 -48 -8 -70c0 -86 44 -137 124 -137c95 0 162 41 193 185z" />
    <glyph glyph-name="Uogonek" unicode="&#x172;" horiz-adv-x="772" 
d="M596 269l63 297c2 10 4 25 4 32c0 33 -18 41 -72 43l12 61h252l-13 -61c-67 -3 -89 -15 -100 -70l-68 -329c-28 -134 -106 -211 -210 -240c-56 -34 -90 -69 -90 -105c0 -22 12 -38 40 -38c23 0 46 10 77 29l16 -26c-48 -47 -96 -77 -153 -77c-48 0 -85 26 -85 71
c0 59 44 101 103 134h-6c-161 0 -260 77 -260 216c0 22 3 46 10 78l59 282c2 10 4 25 4 32c0 33 -18 41 -73 43l12 61h342l-13 -61c-69 -3 -89 -15 -100 -70l-60 -280c-5 -25 -8 -48 -8 -70c0 -86 44 -137 124 -137c95 0 162 41 193 185z" />
    <glyph glyph-name="Uring" unicode="&#x16e;" horiz-adv-x="772" 
d="M596 269l63 297c2 10 4 25 4 32c0 33 -18 41 -72 43l12 61h252l-13 -61c-67 -3 -89 -15 -100 -70l-68 -329c-36 -173 -157 -252 -308 -252c-161 0 -260 77 -260 216c0 22 3 46 10 78l59 282c2 10 4 25 4 32c0 33 -18 41 -73 43l12 61h342l-13 -61
c-69 -3 -89 -15 -100 -70l-60 -280c-5 -25 -8 -48 -8 -70c0 -86 44 -137 124 -137c95 0 162 41 193 185zM550 793c33 0 52 24 52 52c0 24 -15 40 -43 40c-33 0 -52 -24 -52 -51c0 -25 16 -41 43 -41zM545 740c-60 0 -100 38 -100 91c0 61 55 107 119 107
c60 0 100 -38 100 -91c0 -61 -55 -107 -119 -107z" />
    <glyph glyph-name="Utilde" unicode="&#x168;" horiz-adv-x="772" 
d="M698 898l53 -12c-60 -119 -90 -144 -146 -144c-51 0 -94 65 -132 65c-29 0 -46 -24 -68 -56l-54 11c61 119 90 144 145 144c57 0 94 -65 133 -65c28 0 47 23 69 57zM596 269l63 297c2 10 4 25 4 32c0 33 -18 41 -72 43l12 61h252l-13 -61c-67 -3 -89 -15 -100 -70
l-68 -329c-36 -173 -157 -252 -308 -252c-161 0 -260 77 -260 216c0 22 3 46 10 78l59 282c2 10 4 25 4 32c0 33 -18 41 -73 43l12 61h342l-13 -61c-69 -3 -89 -15 -100 -70l-60 -280c-5 -25 -8 -48 -8 -70c0 -86 44 -137 124 -137c95 0 162 41 193 185z" />
    <glyph glyph-name="Wacute" unicode="&#x1e82;" horiz-adv-x="1005" 
d="M680 909h184l-192 -156h-87zM732 231l168 312c12 23 25 45 25 66s-16 30 -66 32l13 61h228l-13 -61c-29 -5 -52 -9 -69 -37l-347 -609h-65l-57 396l-225 -396h-63l-116 609c-4 25 -23 32 -49 37l13 61h311l-13 -61c-40 -3 -78 -12 -79 -60c0 -9 1 -20 3 -34l57 -321
l147 258l-16 120c-3 24 -18 32 -44 37l13 61h303l-12 -61c-52 -3 -87 -16 -87 -65c0 -10 1 -21 2 -36z" />
    <glyph glyph-name="Wcircumflex" unicode="&#x174;" horiz-adv-x="1005" 
d="M732 231l168 312c12 23 25 45 25 66s-16 30 -66 32l13 61h228l-13 -61c-29 -5 -52 -9 -69 -37l-347 -609h-65l-57 396l-225 -396h-63l-116 609c-4 25 -23 32 -49 37l13 61h311l-13 -61c-40 -3 -78 -12 -79 -60c0 -9 1 -20 3 -34l57 -321l147 258l-16 120
c-3 24 -18 32 -44 37l13 61h303l-12 -61c-52 -3 -87 -16 -87 -65c0 -10 1 -21 2 -36zM732 918l95 -167h-81l-91 82l-141 -82h-91l185 167h124z" />
    <glyph glyph-name="Wgrave" unicode="&#x1e80;" horiz-adv-x="1005" 
d="M478 909h169l39 -156h-81zM732 231l168 312c12 23 25 45 25 66s-16 30 -66 32l13 61h228l-13 -61c-29 -5 -52 -9 -69 -37l-347 -609h-65l-57 396l-225 -396h-63l-116 609c-4 25 -23 32 -49 37l13 61h311l-13 -61c-40 -3 -78 -12 -79 -60c0 -9 1 -20 3 -34l57 -321
l147 258l-16 120c-3 24 -18 32 -44 37l13 61h303l-12 -61c-52 -3 -87 -16 -87 -65c0 -10 1 -21 2 -36z" />
    <glyph glyph-name="Wdieresis" unicode="&#x1e84;" horiz-adv-x="1005" 
d="M544 748c-50 0 -81 37 -81 78c0 47 34 88 87 88c50 0 80 -36 80 -78c0 -47 -33 -88 -86 -88zM757 748c-50 0 -81 37 -81 78c0 47 33 88 86 88c50 0 81 -36 81 -78c0 -47 -33 -88 -86 -88zM732 231l168 312c12 23 25 45 25 66s-16 30 -66 32l13 61h228l-13 -61
c-29 -5 -52 -9 -69 -37l-347 -609h-65l-57 396l-225 -396h-63l-116 609c-4 25 -23 32 -49 37l13 61h311l-13 -61c-40 -3 -78 -12 -79 -60c0 -9 1 -20 3 -34l57 -321l147 258l-16 120c-3 24 -18 32 -44 37l13 61h303l-12 -61c-52 -3 -87 -16 -87 -65c0 -10 1 -21 2 -36z" />
    <glyph glyph-name="Ycircumflex" unicode="&#x176;" horiz-adv-x="687" 
d="M408 338l161 207c19 25 34 43 34 62c0 21 -16 31 -64 34l13 61h230l-13 -61c-30 -5 -47 -11 -68 -37l-269 -342l-27 -128c-3 -11 -4 -21 -4 -28c0 -34 24 -43 81 -45l-13 -61h-347l13 61c66 3 94 15 105 70l28 132l-123 341c-9 26 -22 32 -49 37l13 61h312l-13 -61
c-47 0 -81 -10 -81 -51c0 -14 3 -28 10 -46zM585 918l95 -167h-81l-91 82l-141 -82h-91l185 167h124z" />
    <glyph glyph-name="Ygrave" unicode="&#x1ef2;" horiz-adv-x="687" 
d="M408 338l161 207c19 25 34 43 34 62c0 21 -16 31 -64 34l13 61h230l-13 -61c-30 -5 -47 -11 -68 -37l-269 -342l-27 -128c-3 -11 -4 -21 -4 -28c0 -34 24 -43 81 -45l-13 -61h-347l13 61c66 3 94 15 105 70l28 132l-123 341c-9 26 -22 32 -49 37l13 61h312l-13 -61
c-47 0 -81 -10 -81 -51c0 -14 3 -28 10 -46zM339 909h169l39 -156h-81z" />
    <glyph glyph-name="Zacute" unicode="&#x179;" horiz-adv-x="640" 
d="M207 66h135c84 0 107 26 207 159h71l-82 -225h-561l9 43l489 592h-133c-82 0 -104 -47 -166 -137h-61l44 204h544l-10 -44zM469 909h184l-192 -156h-87z" />
    <glyph glyph-name="Zdotaccent" unicode="&#x17b;" horiz-adv-x="640" 
d="M439 749c-55 0 -89 38 -89 83c0 50 36 93 97 93c54 0 89 -38 89 -82c0 -51 -37 -94 -97 -94zM207 66h135c84 0 107 26 207 159h71l-82 -225h-561l9 43l489 592h-133c-82 0 -104 -47 -166 -137h-61l44 204h544l-10 -44z" />
    <glyph glyph-name="abreve" unicode="&#x103;" horiz-adv-x="675" 
d="M235 100c68 0 161 160 204 353c-13 30 -24 47 -57 47c-110 0 -192 -188 -192 -325c0 -45 13 -75 45 -75zM476 504l96 53h63l-39 -135l-69 -279c-5 -19 -8 -33 -8 -41c0 -10 5 -15 14 -15c19 0 44 25 82 73l29 -26c-65 -94 -122 -144 -192 -144c-58 0 -91 41 -91 100
c0 32 13 69 29 123h-7c-51 -109 -121 -223 -225 -223c-77 0 -130 65 -130 171c0 192 139 394 332 394c55 0 86 -21 116 -51zM409 601c-80 0 -124 45 -124 114c0 16 3 35 10 56h60c-1 -6 -1 -11 -1 -15c0 -53 36 -68 74 -68c40 0 83 19 108 83h67
c-26 -107 -95 -170 -194 -170z" />
    <glyph glyph-name="amacron" unicode="&#x101;" horiz-adv-x="675" 
d="M235 100c68 0 161 160 204 353c-13 30 -24 47 -57 47c-110 0 -192 -188 -192 -325c0 -45 13 -75 45 -75zM476 504l96 53h63l-39 -135l-69 -279c-5 -19 -8 -33 -8 -41c0 -10 5 -15 14 -15c19 0 44 25 82 73l29 -26c-65 -94 -122 -144 -192 -144c-58 0 -91 41 -91 100
c0 32 13 69 29 123h-7c-51 -109 -121 -223 -225 -223c-77 0 -130 65 -130 171c0 192 139 394 332 394c55 0 86 -21 116 -51zM264 625l21 93h299l-21 -93h-299z" />
    <glyph glyph-name="aogonek" unicode="&#x105;" horiz-adv-x="675" 
d="M476 504l96 53h63l-39 -135l-68 -275c-5 -19 -8 -33 -8 -41c0 -10 5 -15 14 -15c19 0 43 21 81 69l29 -26c-131 -169 -230 -171 -230 -237c0 -22 12 -38 40 -38c22 0 46 10 77 29l15 -26c-48 -47 -96 -77 -152 -77c-48 0 -85 27 -85 72c0 62 50 107 113 141
c-40 11 -61 44 -61 92c0 32 13 69 29 123h-7c-51 -109 -121 -223 -225 -223c-77 0 -130 65 -130 171c0 192 139 394 332 394c55 0 86 -21 116 -51zM235 100c68 0 161 160 204 353c-13 30 -24 47 -57 47c-110 0 -192 -188 -192 -325c0 -45 13 -75 45 -75z" />
    <glyph glyph-name="aringacute" unicode="&#x1fb;" horiz-adv-x="675" 
d="M425 627c36 0 55 20 55 46c0 21 -16 34 -45 34c-36 0 -55 -21 -55 -46c0 -22 16 -34 45 -34zM420 579c-63 0 -106 32 -106 79c0 57 58 97 126 97c64 0 106 -31 106 -79c0 -56 -57 -97 -126 -97zM498 898h184l-167 -116h-87zM235 100c68 0 161 160 204 353
c-13 30 -24 47 -57 47c-110 0 -192 -188 -192 -325c0 -45 13 -75 45 -75zM476 504l96 53h63l-39 -135l-69 -279c-5 -19 -8 -33 -8 -41c0 -10 5 -15 14 -15c19 0 44 25 82 73l29 -26c-65 -94 -122 -144 -192 -144c-58 0 -91 41 -91 100c0 32 13 69 29 123h-7
c-51 -109 -121 -223 -225 -223c-77 0 -130 65 -130 171c0 192 139 394 332 394c55 0 86 -21 116 -51z" />
    <glyph glyph-name="aeacute" unicode="&#x1fd;" horiz-adv-x="846" 
d="M354 555c64 0 107 -25 141 -73c56 45 125 73 200 73c94 0 143 -56 143 -120c0 -110 -132 -167 -326 -204v-17c0 -80 39 -132 100 -132c59 0 103 27 156 87l27 -25c-65 -107 -160 -154 -249 -154c-111 0 -176 73 -188 172c-49 -91 -112 -172 -200 -172
c-77 0 -130 65 -130 171c0 192 139 394 326 394zM235 100c36 0 82 46 122 122c6 83 44 164 102 226c-16 33 -43 55 -76 55c-111 0 -193 -191 -193 -328c0 -45 13 -75 45 -75zM669 496c-71 0 -137 -114 -153 -228c133 38 192 91 192 173c0 29 -11 55 -39 55zM550 765h185
l-195 -162h-87z" />
    <glyph glyph-name="cacute" unicode="&#x107;" horiz-adv-x="501" 
d="M409 765h185l-195 -162h-87zM343 498c-83 0 -152 -159 -152 -285c0 -76 29 -124 86 -124c51 0 93 19 147 80l26 -26c-56 -98 -140 -153 -233 -153c-122 0 -189 85 -189 202c0 180 140 363 335 363c78 0 138 -31 138 -101c0 -38 -23 -68 -63 -79h-49c5 70 -3 123 -46 123z
" />
    <glyph glyph-name="ccaron" unicode="&#x10d;" horiz-adv-x="501" 
d="M302 604l-93 169h80l90 -84l139 84h90l-182 -169h-124zM343 498c-83 0 -152 -159 -152 -285c0 -76 29 -124 86 -124c51 0 93 19 147 80l26 -26c-56 -98 -140 -153 -233 -153c-122 0 -189 85 -189 202c0 180 140 363 335 363c78 0 138 -31 138 -101c0 -38 -23 -68 -63 -79
h-49c5 70 -3 123 -46 123z" />
    <glyph glyph-name="ccircumflex" unicode="&#x109;" horiz-adv-x="501" 
d="M463 765l92 -169h-80l-90 84l-139 -84h-90l183 169h124zM343 498c-83 0 -152 -159 -152 -285c0 -76 29 -124 86 -124c51 0 93 19 147 80l26 -26c-56 -98 -140 -153 -233 -153c-122 0 -189 85 -189 202c0 180 140 363 335 363c78 0 138 -31 138 -101
c0 -38 -23 -68 -63 -79h-49c5 70 -3 123 -46 123z" />
    <glyph glyph-name="cdotaccent" unicode="&#x10b;" horiz-adv-x="501" 
d="M343 498c-83 0 -152 -159 -152 -285c0 -76 29 -124 86 -124c51 0 93 19 147 80l26 -26c-56 -98 -140 -153 -233 -153c-122 0 -189 85 -189 202c0 180 140 363 335 363c78 0 138 -31 138 -101c0 -38 -23 -68 -63 -79h-49c5 70 -3 123 -46 123zM376 601
c-55 0 -89 39 -89 83c0 51 36 94 97 94c54 0 89 -38 89 -82c0 -51 -37 -95 -97 -95z" />
    <glyph glyph-name="dcaron" unicode="&#x10f;" horiz-adv-x="687" 
d="M903 765l-132 -205h-68l53 205h147zM236 100c69 0 172 162 212 365c-15 28 -40 37 -62 37c-112 0 -196 -190 -196 -327c0 -45 14 -75 46 -75zM492 646l-64 42l9 31l211 42h33l-147 -618c-5 -19 -8 -33 -8 -41c0 -10 5 -15 14 -15c19 0 44 25 82 73l29 -26
c-65 -94 -122 -144 -191 -144c-59 0 -92 41 -92 98c0 34 11 71 25 126h-7c-50 -109 -123 -224 -228 -224c-77 0 -130 65 -130 171c0 192 142 394 334 394c48 0 84 -18 100 -38z" />
    <glyph glyph-name="dcroat" unicode="&#x111;" horiz-adv-x="687" 
d="M704 578h-67l-103 -435c-5 -19 -8 -33 -8 -41c0 -10 5 -15 14 -15c19 0 44 25 82 73l29 -26c-65 -94 -122 -144 -191 -144c-59 0 -92 41 -92 98c0 34 11 71 25 126h-7c-50 -109 -123 -224 -228 -224c-77 0 -130 65 -130 171c0 192 136 371 327 371c49 0 85 -19 101 -38
l20 84h-130l13 49h128l14 56h-74l13 43l208 35h33l-32 -134h67zM236 100c69 0 168 155 206 341c-15 28 -40 38 -63 38c-111 0 -189 -167 -189 -304c0 -45 14 -75 46 -75z" />
    <glyph glyph-name="ebreve" unicode="&#x115;" horiz-adv-x="518" 
d="M510 435c0 -110 -132 -167 -326 -204v-17c0 -80 39 -132 100 -132c59 0 104 27 156 87l27 -25c-65 -107 -160 -154 -248 -154c-124 0 -191 90 -191 206c0 180 149 359 339 359c94 0 143 -56 143 -120zM349 601c-80 0 -124 45 -124 114c0 16 3 35 10 56h60
c-1 -6 -1 -11 -1 -15c0 -53 36 -68 74 -68c40 0 83 19 108 83h67c-26 -107 -95 -170 -194 -170zM341 496c-71 0 -137 -114 -153 -228c133 38 192 91 192 173c0 29 -11 55 -39 55z" />
    <glyph glyph-name="ecaron" unicode="&#x11b;" horiz-adv-x="518" 
d="M510 435c0 -110 -132 -167 -326 -204v-17c0 -80 39 -132 100 -132c59 0 104 27 156 87l27 -25c-65 -107 -160 -154 -248 -154c-124 0 -191 90 -191 206c0 180 149 359 339 359c94 0 143 -56 143 -120zM291 604l-93 169h80l90 -84l139 84h90l-182 -169h-124zM341 496
c-71 0 -137 -114 -153 -228c133 38 192 91 192 173c0 29 -11 55 -39 55z" />
    <glyph glyph-name="edotaccent" unicode="&#x117;" horiz-adv-x="518" 
d="M510 435c0 -110 -132 -167 -326 -204v-17c0 -80 39 -132 100 -132c59 0 104 27 156 87l27 -25c-65 -107 -160 -154 -248 -154c-124 0 -191 90 -191 206c0 180 149 359 339 359c94 0 143 -56 143 -120zM365 601c-55 0 -89 39 -89 83c0 51 36 94 97 94c54 0 89 -38 89 -82
c0 -51 -37 -95 -97 -95zM341 496c-71 0 -137 -114 -153 -228c133 38 192 91 192 173c0 29 -11 55 -39 55z" />
    <glyph glyph-name="emacron" unicode="&#x113;" horiz-adv-x="518" 
d="M510 435c0 -110 -132 -167 -326 -204v-17c0 -80 39 -132 100 -132c59 0 104 27 156 87l27 -25c-65 -107 -160 -154 -248 -154c-124 0 -191 90 -191 206c0 180 149 359 339 359c94 0 143 -56 143 -120zM205 625l21 93h299l-21 -93h-299zM341 496
c-71 0 -137 -114 -153 -228c133 38 192 91 192 173c0 29 -11 55 -39 55z" />
    <glyph glyph-name="eogonek" unicode="&#x119;" horiz-adv-x="518" 
d="M111 -144c0 59 44 101 103 134c-121 3 -186 91 -186 206c0 180 149 359 339 359c94 0 143 -56 143 -120c0 -110 -132 -167 -326 -204v-17c0 -80 39 -132 100 -132c59 0 104 27 156 87l27 -25c-38 -63 -87 -105 -139 -129c-69 -38 -112 -77 -112 -118c0 -22 12 -38 40 -38
c23 0 46 10 77 29l16 -26c-48 -47 -96 -77 -153 -77c-48 0 -85 26 -85 71zM341 496c-71 0 -137 -114 -153 -228c133 38 192 91 192 173c0 29 -11 55 -39 55z" />
    <glyph glyph-name="gbreve" unicode="&#x11f;" horiz-adv-x="563" 
d="M327 555c37 0 70 -8 98 -23l193 18l-22 -89h-42l-68 20c17 -24 27 -51 27 -79c0 -127 -124 -202 -267 -202c-22 0 -42 2 -60 7c-22 -9 -35 -20 -35 -36c0 -15 11 -23 32 -28l168 -36c89 -19 147 -53 147 -133c0 -107 -121 -183 -295 -183c-131 0 -265 48 -265 134
c0 68 79 96 147 102c-24 22 -37 42 -37 76c0 55 44 88 107 113c-59 24 -95 74 -95 144c0 120 123 195 267 195zM301 -37l-193 43c-39 -14 -58 -35 -58 -68c0 -57 70 -92 157 -92c86 0 152 29 152 74c0 25 -21 34 -58 43zM367 601c-80 0 -124 45 -124 114c0 16 3 35 10 56h60
c-1 -6 -1 -11 -1 -15c0 -53 36 -68 74 -68c40 0 83 19 108 83h67c-26 -107 -95 -170 -194 -170zM259 248c50 0 103 71 103 178c0 44 -13 81 -48 81c-51 0 -104 -72 -104 -179c0 -43 13 -80 49 -80z" />
    <glyph glyph-name="gcircumflex" unicode="&#x11d;" horiz-adv-x="563" 
d="M327 555c37 0 70 -8 98 -23l193 18l-22 -89h-42l-68 20c17 -24 27 -51 27 -79c0 -127 -124 -202 -267 -202c-22 0 -42 2 -60 7c-22 -9 -35 -20 -35 -36c0 -15 11 -23 32 -28l168 -36c89 -19 147 -53 147 -133c0 -107 -121 -183 -295 -183c-131 0 -265 48 -265 134
c0 68 79 96 147 102c-24 22 -37 42 -37 76c0 55 44 88 107 113c-59 24 -95 74 -95 144c0 120 123 195 267 195zM301 -37l-193 43c-39 -14 -58 -35 -58 -68c0 -57 70 -92 157 -92c86 0 152 29 152 74c0 25 -21 34 -58 43zM468 765l92 -169h-80l-90 84l-139 -84h-90l183 169
h124zM259 248c50 0 103 71 103 178c0 44 -13 81 -48 81c-51 0 -104 -72 -104 -179c0 -43 13 -80 49 -80z" />
    <glyph glyph-name="gcommaaccent" unicode="&#x123;" horiz-adv-x="563" 
d="M327 555c37 0 70 -8 98 -23l193 18l-22 -89h-42l-68 20c17 -24 27 -51 27 -79c0 -127 -124 -202 -267 -202c-22 0 -42 2 -60 7c-22 -9 -35 -20 -35 -36c0 -15 11 -23 32 -28l168 -36c89 -19 147 -53 147 -133c0 -107 -121 -183 -295 -183c-131 0 -265 48 -265 134
c0 68 79 96 147 102c-24 22 -37 42 -37 76c0 55 44 88 107 113c-59 24 -95 74 -95 144c0 120 123 195 267 195zM301 -37l-193 43c-39 -14 -58 -35 -58 -68c0 -57 70 -92 157 -92c86 0 152 29 152 74c0 25 -21 34 -58 43zM259 248c50 0 103 71 103 178c0 44 -13 81 -48 81
c-51 0 -104 -72 -104 -179c0 -43 13 -80 49 -80zM372 718h58c25 -7 39 -22 39 -48c0 -42 -33 -73 -90 -73c-52 0 -81 31 -81 77c0 73 51 133 181 133l-1 -43c-64 0 -100 -19 -106 -46z" />
    <glyph glyph-name="gdotaccent" unicode="&#x121;" horiz-adv-x="563" 
d="M327 555c37 0 70 -8 98 -23l193 18l-22 -89h-42l-68 20c17 -24 27 -51 27 -79c0 -127 -124 -202 -267 -202c-22 0 -42 2 -60 7c-22 -9 -35 -20 -35 -36c0 -15 11 -23 32 -28l168 -36c89 -19 147 -53 147 -133c0 -107 -121 -183 -295 -183c-131 0 -265 48 -265 134
c0 68 79 96 147 102c-24 22 -37 42 -37 76c0 55 44 88 107 113c-59 24 -95 74 -95 144c0 120 123 195 267 195zM301 -37l-193 43c-39 -14 -58 -35 -58 -68c0 -57 70 -92 157 -92c86 0 152 29 152 74c0 25 -21 34 -58 43zM259 248c50 0 103 71 103 178c0 44 -13 81 -48 81
c-51 0 -104 -72 -104 -179c0 -43 13 -80 49 -80zM383 601c-55 0 -89 39 -89 83c0 51 36 94 97 94c54 0 89 -38 89 -82c0 -51 -37 -95 -97 -95z" />
    <glyph glyph-name="hbar" unicode="&#x127;" horiz-adv-x="676" 
d="M289 448l-48 -151h7c91 158 190 258 284 258c55 0 83 -33 83 -84c0 -13 -3 -31 -6 -44l-77 -284c-5 -19 -9 -33 -9 -41c0 -10 5 -15 14 -15c19 0 44 25 83 73l29 -26c-66 -94 -123 -144 -192 -144c-59 0 -97 37 -97 89c0 26 4 51 14 86l66 231c3 13 5 25 5 33
c0 12 -4 19 -17 19c-42 0 -167 -143 -211 -312l-35 -136h-163l136 578h-70l12 49h69l14 56h-72l12 43l212 35h33l-33 -134h123l-13 -49h-122z" />
    <glyph glyph-name="hcircumflex" unicode="&#x125;" horiz-adv-x="671" 
d="M284 448l-49 -151h7c92 158 190 258 285 258c54 0 82 -33 82 -84c0 -13 -3 -31 -6 -44l-76 -284c-5 -19 -9 -33 -9 -41c0 -10 5 -15 14 -15c19 0 44 25 83 73l28 -26c-65 -94 -122 -144 -191 -144c-59 0 -98 37 -98 89c0 26 4 51 14 86l67 231c3 13 5 25 5 33
c0 12 -5 19 -18 19c-42 0 -166 -143 -210 -312l-35 -136h-164l154 646l-64 42l9 31l215 42h32zM534 954l95 -167h-81l-91 82l-141 -82h-91l185 167h124z" />
    <glyph glyph-name="ibreve" unicode="&#x12d;" horiz-adv-x="363" 
d="M316 555l-104 -412c-5 -19 -8 -33 -8 -41c0 -10 5 -15 14 -15c19 0 45 25 83 73l29 -26c-65 -94 -122 -144 -192 -144c-58 0 -96 37 -96 89c0 26 5 51 13 86l69 277l-56 44l9 31l206 38h33zM245 601c-80 0 -124 45 -124 114c0 16 3 35 10 56h60c-1 -6 -1 -11 -1 -15
c0 -53 36 -68 74 -68c40 0 83 19 108 83h67c-26 -107 -95 -170 -194 -170z" />
    <glyph glyph-name="imacron" unicode="&#x12b;" horiz-adv-x="363" 
d="M116 625l21 93h267l-21 -93h-267zM316 555l-104 -412c-5 -19 -8 -33 -8 -41c0 -10 5 -15 14 -15c19 0 45 25 83 73l29 -26c-65 -94 -122 -144 -192 -144c-58 0 -96 37 -96 89c0 26 5 51 13 86l69 277l-56 44l9 31l206 38h33z" />
    <glyph glyph-name="iogonek" unicode="&#x12f;" horiz-adv-x="363" 
d="M256 597c-55 0 -89 39 -89 83c0 51 37 94 97 94c55 0 90 -38 90 -82c0 -51 -38 -95 -98 -95zM42 79c0 26 5 51 13 86l69 277l-56 44l9 31l206 38h33l-103 -408c-5 -19 -8 -33 -8 -41c0 -10 5 -15 14 -15c19 0 43 21 81 69l30 -26c-132 -169 -231 -171 -231 -237
c0 -22 12 -38 40 -38c22 0 46 10 77 29l16 -26c-48 -47 -96 -77 -153 -77c-48 0 -85 27 -85 72c0 62 50 107 113 141c-40 11 -65 38 -65 81z" />
    <glyph glyph-name="itilde" unicode="&#x129;" horiz-adv-x="363" 
d="M388 765l54 -11c-61 -120 -90 -144 -138 -144c-49 0 -74 65 -111 65c-29 0 -46 -24 -68 -57l-54 11c61 120 90 144 138 144c53 0 73 -64 110 -64c29 0 47 23 69 56zM316 555l-104 -412c-5 -19 -8 -33 -8 -41c0 -10 5 -15 14 -15c19 0 45 25 83 73l29 -26
c-65 -94 -122 -144 -192 -144c-58 0 -96 37 -96 89c0 26 5 51 13 86l69 277l-56 44l9 31l206 38h33z" />
    <glyph glyph-name="ij" unicode="&#x133;" horiz-adv-x="695" 
d="M316 555l-104 -412c-5 -19 -8 -33 -8 -41c0 -10 5 -15 14 -15c19 0 45 25 83 73l29 -26c-65 -94 -122 -144 -192 -144c-58 0 -96 37 -96 89c0 26 5 51 13 86l69 277l-56 44l9 31l206 38h33zM256 597c-55 0 -89 39 -89 83c0 51 37 94 97 94c55 0 90 -38 90 -82
c0 -51 -38 -95 -98 -95zM626 597c-54 0 -89 39 -89 83c0 51 37 94 97 94c55 0 89 -38 89 -82c0 -51 -36 -95 -97 -95zM393 -8l101 450l-56 44l9 31l206 38h33l-112 -453c-49 -197 -137 -309 -271 -309c-72 0 -120 29 -120 77c0 46 35 70 74 75h25c3 -61 14 -107 44 -107
c31 0 43 47 67 154z" />
    <glyph glyph-name="jcircumflex" unicode="&#x135;" horiz-adv-x="332" 
d="M30 -8l101 450l-56 44l9 31l206 38h33l-112 -453c-49 -197 -137 -309 -271 -309c-72 0 -120 29 -120 77c0 46 35 70 74 75h25c3 -61 14 -107 44 -107c31 0 43 47 67 154zM338 765l92 -169h-80l-90 84l-139 -84h-90l183 169h124z" />
    <glyph glyph-name="kcommaaccent" unicode="&#x137;" horiz-adv-x="634" 
d="M238 -157h-58c-26 7 -40 22 -40 48c0 41 33 73 90 73c52 0 81 -31 81 -78c0 -72 -51 -132 -181 -132l1 43c64 0 101 19 107 46zM394 361l73 -188c15 -39 27 -66 48 -66s38 13 70 53l26 -26c-63 -100 -111 -144 -174 -144c-55 0 -85 37 -109 103l-68 181l160 190
c57 68 88 91 130 91c51 0 76 -37 76 -74c0 -45 -26 -73 -70 -88h-21c0 31 -9 55 -37 55c-22 0 -44 -12 -78 -56zM360 761l-183 -761h-164l155 646l-64 42l9 31l215 42h32z" />
    <glyph glyph-name="kgreenlandic" unicode="&#x138;" horiz-adv-x="643" 
d="M403 361l74 -188c14 -39 26 -66 48 -66c20 0 37 13 69 53l26 -26c-63 -100 -110 -144 -174 -144c-55 0 -85 37 -109 103l-68 181l160 190c57 68 89 91 131 91c51 0 75 -37 75 -74c0 -45 -26 -73 -70 -88h-20c0 31 -10 55 -37 55c-22 0 -44 -12 -79 -56zM321 558
l-138 -558h-164l110 442l-56 44l9 31l206 41h33z" />
    <glyph glyph-name="lacute" unicode="&#x13a;" horiz-adv-x="349" 
d="M336 949h184l-192 -156h-87zM163 646l-64 42l9 31l215 42h32l-153 -618c-5 -19 -7 -33 -7 -41c0 -10 5 -15 14 -15c19 0 44 25 82 73l29 -26c-65 -94 -122 -144 -192 -144c-58 0 -95 37 -95 89c0 26 4 51 13 86z" />
    <glyph glyph-name="lcaron" unicode="&#x13e;" horiz-adv-x="356" 
d="M576 765l-132 -205h-68l53 205h147zM163 646l-64 42l9 31l215 42h32l-153 -618c-5 -19 -7 -33 -7 -41c0 -10 5 -15 14 -15c19 0 44 25 82 73l29 -26c-65 -94 -122 -144 -192 -144c-58 0 -95 37 -95 89c0 26 4 51 13 86z" />
    <glyph glyph-name="lcommaaccent" unicode="&#x13c;" horiz-adv-x="349" 
d="M101 -157h-58c-26 7 -40 22 -40 48c0 41 33 73 90 73c52 0 81 -31 81 -78c0 -72 -51 -132 -181 -132l1 43c64 0 101 19 107 46zM163 646l-64 42l9 31l215 42h32l-153 -618c-5 -19 -7 -33 -7 -41c0 -10 5 -15 14 -15c19 0 44 25 82 73l29 -26c-65 -94 -122 -144 -192 -144
c-58 0 -95 37 -95 89c0 26 4 51 13 86z" />
    <glyph glyph-name="ldot" unicode="&#x140;" horiz-adv-x="498" 
d="M163 646l-64 42l9 31l215 42h32l-153 -618c-5 -19 -7 -33 -7 -41c0 -10 5 -15 14 -15c19 0 44 25 82 73l29 -26c-65 -94 -122 -144 -192 -144c-58 0 -95 37 -95 89c0 26 4 51 13 86zM420 291c-55 0 -89 39 -89 83c0 51 36 94 97 94c54 0 89 -38 89 -82
c0 -51 -37 -95 -97 -95z" />
    <glyph glyph-name="nacute" unicode="&#x144;" horiz-adv-x="676" 
d="M460 765h185l-195 -162h-87zM321 558l-29 -112l-51 -149h7c91 158 190 258 284 258c55 0 83 -33 83 -84c0 -13 -3 -31 -6 -44l-77 -284c-5 -19 -9 -33 -9 -41c0 -10 5 -15 14 -15c19 0 44 25 83 73l29 -26c-66 -94 -123 -144 -192 -144c-59 0 -97 37 -97 89
c0 26 4 51 14 86l66 231c3 13 5 25 5 33c0 12 -4 19 -17 19c-42 0 -167 -143 -211 -312l-35 -136h-163l110 442l-56 44l9 31l205 41h34z" />
    <glyph glyph-name="ncaron" unicode="&#x148;" horiz-adv-x="676" 
d="M353 604l-93 169h80l90 -84l139 84h90l-182 -169h-124zM321 558l-29 -112l-51 -149h7c91 158 190 258 284 258c55 0 83 -33 83 -84c0 -13 -3 -31 -6 -44l-77 -284c-5 -19 -9 -33 -9 -41c0 -10 5 -15 14 -15c19 0 44 25 83 73l29 -26c-66 -94 -123 -144 -192 -144
c-59 0 -97 37 -97 89c0 26 4 51 14 86l66 231c3 13 5 25 5 33c0 12 -4 19 -17 19c-42 0 -167 -143 -211 -312l-35 -136h-163l110 442l-56 44l9 31l205 41h34z" />
    <glyph glyph-name="ncommaaccent" unicode="&#x146;" horiz-adv-x="676" 
d="M273 -157h-58c-26 7 -40 22 -40 48c0 41 33 73 90 73c52 0 81 -31 81 -78c0 -72 -51 -132 -181 -132l1 43c64 0 101 19 107 46zM321 558l-29 -112l-51 -149h7c91 158 190 258 284 258c55 0 83 -33 83 -84c0 -13 -3 -31 -6 -44l-77 -284c-5 -19 -9 -33 -9 -41
c0 -10 5 -15 14 -15c19 0 44 25 83 73l29 -26c-66 -94 -123 -144 -192 -144c-59 0 -97 37 -97 89c0 26 4 51 14 86l66 231c3 13 5 25 5 33c0 12 -4 19 -17 19c-42 0 -167 -143 -211 -312l-35 -136h-163l110 442l-56 44l9 31l205 41h34z" />
    <glyph glyph-name="eng" unicode="&#x14b;" horiz-adv-x="648" 
d="M341 -8l99 404c3 13 5 25 5 33c0 12 -4 19 -17 19c-42 0 -167 -143 -211 -312l-35 -136h-163l110 442l-56 44l9 31l205 41h34l-29 -112l-51 -149h7c91 158 190 258 284 258c55 0 83 -33 83 -84c0 -13 -3 -31 -6 -44l-86 -325c-51 -197 -137 -309 -271 -309
c-71 0 -121 29 -121 77c0 46 35 70 74 75h25c3 -61 12 -107 43 -107c30 0 42 47 68 154z" />
    <glyph glyph-name="obreve" unicode="&#x14f;" horiz-adv-x="591" 
d="M246 48c97 0 155 210 155 332c0 69 -16 117 -57 117c-96 0 -154 -210 -154 -332c0 -69 16 -117 56 -117zM242 -10c-124 0 -212 84 -212 224c0 183 128 341 319 341c124 0 212 -84 212 -224c0 -183 -128 -341 -319 -341zM363 601c-80 0 -124 45 -124 114c0 16 3 35 10 56
h60c-1 -6 -1 -11 -1 -15c0 -53 36 -68 74 -68c40 0 83 19 108 83h67c-26 -107 -95 -170 -194 -170z" />
    <glyph glyph-name="ohungarumlaut" unicode="&#x151;" horiz-adv-x="591" 
d="M311 765h157l-176 -162h-81zM509 765h163l-181 -162h-81zM246 48c97 0 155 210 155 332c0 69 -16 117 -57 117c-96 0 -154 -210 -154 -332c0 -69 16 -117 56 -117zM242 -10c-124 0 -212 84 -212 224c0 183 128 341 319 341c124 0 212 -84 212 -224
c0 -183 -128 -341 -319 -341z" />
    <glyph glyph-name="omacron" unicode="&#x14d;" horiz-adv-x="591" 
d="M219 625l21 93h299l-21 -93h-299zM246 48c97 0 155 210 155 332c0 69 -16 117 -57 117c-96 0 -154 -210 -154 -332c0 -69 16 -117 56 -117zM242 -10c-124 0 -212 84 -212 224c0 183 128 341 319 341c124 0 212 -84 212 -224c0 -183 -128 -341 -319 -341z" />
    <glyph glyph-name="oslashacute" unicode="&#x1ff;" horiz-adv-x="605" 
d="M541 588l-50 -75c51 -38 83 -101 83 -182c0 -183 -134 -341 -325 -341c-33 0 -64 6 -92 17l-63 -96l-42 26l62 94c-51 38 -83 101 -83 183c0 183 134 341 325 341c33 0 64 -7 92 -18l51 77zM183 167c0 -11 0 -20 1 -30l219 332c-11 18 -29 28 -54 28
c-96 0 -166 -210 -166 -330zM256 48c96 0 166 210 166 330c0 10 -1 19 -1 28l-218 -330c12 -18 29 -28 53 -28zM418 765h185l-195 -162h-87z" />
    <glyph glyph-name="racute" unicode="&#x155;" horiz-adv-x="511" 
d="M396 765h185l-195 -162h-87zM220 229h7c125 243 167 326 243 326c49 0 70 -34 70 -77c0 -57 -45 -101 -83 -119h-21c0 19 -6 37 -28 37c-69 0 -160 -150 -222 -396h-164l110 442l-55 44l9 31l203 41h33l-40 -152z" />
    <glyph glyph-name="rcaron" unicode="&#x159;" horiz-adv-x="511" 
d="M289 604l-93 169h80l90 -84l139 84h90l-182 -169h-124zM220 229h7c125 243 167 326 243 326c49 0 70 -34 70 -77c0 -57 -45 -101 -83 -119h-21c0 19 -6 37 -28 37c-69 0 -160 -150 -222 -396h-164l110 442l-55 44l9 31l203 41h33l-40 -152z" />
    <glyph glyph-name="rcommaaccent" unicode="&#x157;" horiz-adv-x="511" 
d="M99 -157h-58c-26 7 -40 22 -40 48c0 41 33 73 90 73c52 0 81 -31 81 -78c0 -72 -51 -132 -181 -132l1 43c64 0 101 19 107 46zM220 229h7c125 243 167 326 243 326c49 0 70 -34 70 -77c0 -57 -45 -101 -83 -119h-21c0 19 -6 37 -28 37c-69 0 -160 -150 -222 -396h-164
l110 442l-55 44l9 31l203 41h33l-40 -152z" />
    <glyph glyph-name="sacute" unicode="&#x15b;" horiz-adv-x="469" 
d="M357 765h185l-195 -162h-87zM210 43c39 0 61 22 61 57c0 71 -198 139 -198 264c0 113 90 191 218 191c83 0 148 -40 148 -102c0 -28 -24 -50 -53 -59h-29c-13 63 -50 106 -99 106c-41 0 -61 -19 -61 -50c0 -67 207 -147 207 -269c0 -117 -98 -191 -219 -191
c-108 0 -186 50 -186 114c0 38 26 64 59 75h26c16 -84 56 -136 126 -136z" />
    <glyph glyph-name="scedilla" unicode="&#x15f;" horiz-adv-x="469" 
d="M40 -231l-10 46c73 0 123 13 123 41c0 26 -30 35 -79 37l51 103c-76 14 -126 56 -126 108c0 38 26 64 59 75h26c16 -84 56 -136 126 -136c39 0 61 22 61 57c0 71 -198 139 -198 264c0 113 90 191 218 191c83 0 148 -40 148 -102c0 -28 -24 -50 -53 -59h-29
c-13 63 -50 106 -99 106c-41 0 -61 -19 -61 -50c0 -67 207 -147 207 -269c0 -117 -98 -191 -219 -191c-6 0 -11 1 -16 1l-18 -36c59 -5 89 -29 89 -75c0 -74 -99 -111 -200 -111z" />
    <glyph glyph-name="scircumflex" unicode="&#x15d;" horiz-adv-x="469" 
d="M409 765l92 -169h-80l-90 84l-139 -84h-90l183 169h124zM210 43c39 0 61 22 61 57c0 71 -198 139 -198 264c0 113 90 191 218 191c83 0 148 -40 148 -102c0 -28 -24 -50 -53 -59h-29c-13 63 -50 106 -99 106c-41 0 -61 -19 -61 -50c0 -67 207 -147 207 -269
c0 -117 -98 -191 -219 -191c-108 0 -186 50 -186 114c0 38 26 64 59 75h26c16 -84 56 -136 126 -136z" />
    <glyph glyph-name="scommaaccent" unicode="&#x219;" horiz-adv-x="469" 
d="M164 -157h-58c-26 7 -40 22 -40 48c0 41 33 73 90 73c52 0 81 -31 81 -78c0 -72 -51 -132 -181 -132l1 43c64 0 101 19 107 46zM210 43c39 0 61 22 61 57c0 71 -198 139 -198 264c0 113 90 191 218 191c83 0 148 -40 148 -102c0 -28 -24 -50 -53 -59h-29
c-13 63 -50 106 -99 106c-41 0 -61 -19 -61 -50c0 -67 207 -147 207 -269c0 -117 -98 -191 -219 -191c-108 0 -186 50 -186 114c0 38 26 64 59 75h26c16 -84 56 -136 126 -136z" />
    <glyph glyph-name="tbar" unicode="&#x167;" horiz-adv-x="450" 
d="M307 482l-26 -108h128l-14 -62h-129l-35 -146c-6 -24 -8 -40 -8 -52c0 -17 6 -28 22 -28c32 0 67 31 127 95l30 -26c-77 -104 -151 -165 -239 -165c-71 0 -105 49 -105 104c0 26 3 46 10 76l34 142h-62l15 62h62l27 108h-73l12 45c77 16 157 71 216 142h54l-30 -123h119
l-16 -64h-119z" />
    <glyph glyph-name="tcaron" unicode="&#x165;" horiz-adv-x="423" 
d="M575 820l-132 -205h-68l53 205h147zM294 482l-76 -316c-6 -24 -9 -40 -9 -52c0 -17 7 -28 23 -28c32 0 67 31 127 95l29 -26c-76 -104 -151 -165 -239 -165c-71 0 -104 49 -104 104c0 26 3 46 10 76l76 312h-73l12 45c76 16 157 71 216 142h54l-30 -123h119l-16 -64h-119
z" />
    <glyph glyph-name="ubreve" unicode="&#x16d;" horiz-adv-x="685" 
d="M407 244h-7c-81 -150 -172 -254 -264 -254c-63 0 -93 38 -93 95c0 18 3 39 8 61l72 296l-55 44l9 31l205 38h33l-100 -397c-3 -13 -5 -27 -5 -35c0 -16 4 -24 18 -24c53 0 171 165 211 320l30 117l165 9l-100 -402c-5 -19 -9 -33 -9 -41c0 -10 5 -15 14 -15
c19 0 45 25 83 73l29 -26c-65 -94 -120 -144 -190 -144c-59 0 -90 41 -90 100c0 31 13 81 36 154zM404 601c-80 0 -124 45 -124 114c0 16 3 35 10 56h60c-1 -6 -1 -11 -1 -15c0 -53 36 -68 74 -68c40 0 83 19 108 83h67c-26 -107 -95 -170 -194 -170z" />
    <glyph glyph-name="uhungarumlaut" unicode="&#x171;" horiz-adv-x="685" 
d="M407 244h-7c-81 -150 -172 -254 -264 -254c-63 0 -93 38 -93 95c0 18 3 39 8 61l72 296l-55 44l9 31l205 38h33l-100 -397c-3 -13 -5 -27 -5 -35c0 -16 4 -24 18 -24c53 0 171 165 211 320l30 117l165 9l-100 -402c-5 -19 -9 -33 -9 -41c0 -10 5 -15 14 -15
c19 0 45 25 83 73l29 -26c-65 -94 -120 -144 -190 -144c-59 0 -90 41 -90 100c0 31 13 81 36 154zM351 765h157l-176 -162h-81zM549 765h163l-181 -162h-81z" />
    <glyph glyph-name="umacron" unicode="&#x16b;" horiz-adv-x="685" 
d="M407 244h-7c-81 -150 -172 -254 -264 -254c-63 0 -93 38 -93 95c0 18 3 39 8 61l72 296l-55 44l9 31l205 38h33l-100 -397c-3 -13 -5 -27 -5 -35c0 -16 4 -24 18 -24c53 0 171 165 211 320l30 117l165 9l-100 -402c-5 -19 -9 -33 -9 -41c0 -10 5 -15 14 -15
c19 0 45 25 83 73l29 -26c-65 -94 -120 -144 -190 -144c-59 0 -90 41 -90 100c0 31 13 81 36 154zM260 625l21 93h299l-21 -93h-299z" />
    <glyph glyph-name="uogonek" unicode="&#x173;" horiz-adv-x="685" 
d="M634 545l-100 -398c-5 -19 -8 -33 -8 -41c0 -10 5 -15 14 -15c19 0 44 21 81 69l30 -26c-132 -169 -231 -171 -231 -237c0 -22 12 -38 40 -38c23 0 46 10 77 29l16 -26c-48 -47 -96 -77 -153 -77c-48 0 -85 27 -85 72c0 62 50 107 114 141c-40 11 -58 48 -58 92
c0 31 13 81 36 154h-7c-81 -150 -172 -254 -264 -254c-63 0 -93 38 -93 95c0 18 3 39 8 61l72 296l-55 44l9 31l205 38h33l-100 -397c-3 -13 -5 -27 -5 -35c0 -16 4 -24 18 -24c53 0 171 165 211 320l30 117z" />
    <glyph glyph-name="uring" unicode="&#x16f;" horiz-adv-x="685" 
d="M421 648c33 0 52 24 52 52c0 24 -16 40 -43 40c-33 0 -52 -24 -52 -51c0 -24 15 -41 43 -41zM416 595c-60 0 -100 38 -100 91c0 62 55 107 119 107c60 0 100 -38 100 -90c0 -62 -55 -108 -119 -108zM407 244h-7c-81 -150 -172 -254 -264 -254c-63 0 -93 38 -93 95
c0 18 3 39 8 61l72 296l-55 44l9 31l205 38h33l-100 -397c-3 -13 -5 -27 -5 -35c0 -16 4 -24 18 -24c53 0 171 165 211 320l30 117l165 9l-100 -402c-5 -19 -9 -33 -9 -41c0 -10 5 -15 14 -15c19 0 45 25 83 73l29 -26c-65 -94 -120 -144 -190 -144c-59 0 -90 41 -90 100
c0 31 13 81 36 154z" />
    <glyph glyph-name="utilde" unicode="&#x169;" horiz-adv-x="685" 
d="M407 244h-7c-81 -150 -172 -254 -264 -254c-63 0 -93 38 -93 95c0 18 3 39 8 61l72 296l-55 44l9 31l205 38h33l-100 -397c-3 -13 -5 -27 -5 -35c0 -16 4 -24 18 -24c53 0 171 165 211 320l30 117l165 9l-100 -402c-5 -19 -9 -33 -9 -41c0 -10 5 -15 14 -15
c19 0 45 25 83 73l29 -26c-65 -94 -120 -144 -190 -144c-59 0 -90 41 -90 100c0 31 13 81 36 154zM571 765l53 -11c-60 -120 -90 -144 -146 -144c-51 0 -94 65 -132 65c-29 0 -46 -24 -68 -57l-54 11c61 120 90 144 145 144c57 0 94 -64 133 -64c28 0 47 23 69 56z" />
    <glyph glyph-name="wacute" unicode="&#x1e83;" horiz-adv-x="821" 
d="M383 448l-64 38l9 31l167 38h31l30 -408l83 102c40 46 58 98 58 145c0 49 -35 77 -87 77l1 18c21 34 60 66 114 66c63 0 89 -47 89 -99c0 -74 -55 -152 -121 -228l-205 -234h-60l-26 261l-210 -261h-58l-50 454l-64 38l9 31l175 38h31l34 -395l126 162zM532 765h185
l-195 -162h-87z" />
    <glyph glyph-name="wcircumflex" unicode="&#x175;" horiz-adv-x="821" 
d="M383 448l-64 38l9 31l167 38h31l30 -408l83 102c40 46 58 98 58 145c0 49 -35 77 -87 77l1 18c21 34 60 66 114 66c63 0 89 -47 89 -99c0 -74 -55 -152 -121 -228l-205 -234h-60l-26 261l-210 -261h-58l-50 454l-64 38l9 31l175 38h31l34 -395l126 162zM584 765l92 -169
h-80l-90 84l-139 -84h-90l183 169h124z" />
    <glyph glyph-name="wgrave" unicode="&#x1e81;" horiz-adv-x="821" 
d="M383 448l-64 38l9 31l167 38h31l30 -408l83 102c40 46 58 98 58 145c0 49 -35 77 -87 77l1 18c21 34 60 66 114 66c63 0 89 -47 89 -99c0 -74 -55 -152 -121 -228l-205 -234h-60l-26 261l-210 -261h-58l-50 454l-64 38l9 31l175 38h31l34 -395l126 162zM326 765h169
l41 -162h-81z" />
    <glyph glyph-name="wdieresis" unicode="&#x1e85;" horiz-adv-x="821" 
d="M383 448l-64 38l9 31l167 38h31l30 -408l83 102c40 46 58 98 58 145c0 49 -35 77 -87 77l1 18c21 34 60 66 114 66c63 0 89 -47 89 -99c0 -74 -55 -152 -121 -228l-205 -234h-60l-26 261l-210 -261h-58l-50 454l-64 38l9 31l175 38h31l34 -395l126 162zM607 605
c-50 0 -81 37 -81 78c0 47 33 88 86 88c50 0 81 -36 81 -78c0 -47 -33 -88 -86 -88zM394 605c-50 0 -81 37 -81 78c0 47 34 88 87 88c50 0 80 -36 80 -78c0 -47 -33 -88 -86 -88z" />
    <glyph glyph-name="ycircumflex" unicode="&#x177;" horiz-adv-x="558" 
d="M357 66c-156 -209 -252 -272 -349 -272c-59 0 -113 27 -113 88c0 34 23 65 60 77h29c0 -60 20 -95 75 -95c40 0 81 21 135 76l-111 508l-63 38l9 31l174 38h31l83 -464l12 16c86 121 105 218 105 276c0 60 -34 88 -87 88l1 18c21 34 59 66 114 66c63 0 90 -50 90 -101
c0 -111 -83 -240 -195 -388zM442 765l92 -169h-80l-90 84l-139 -84h-90l183 169h124z" />
    <glyph glyph-name="ygrave" unicode="&#x1ef3;" horiz-adv-x="558" 
d="M357 66c-156 -209 -252 -272 -349 -272c-59 0 -113 27 -113 88c0 34 23 65 60 77h29c0 -60 20 -95 75 -95c40 0 81 21 135 76l-111 508l-63 38l9 31l174 38h31l83 -464l12 16c86 121 105 218 105 276c0 60 -34 88 -87 88l1 18c21 34 59 66 114 66c63 0 90 -50 90 -101
c0 -111 -83 -240 -195 -388zM184 765h169l41 -162h-81z" />
    <glyph glyph-name="zacute" unicode="&#x17a;" horiz-adv-x="532" 
d="M388 765h185l-195 -162h-87zM367 411h-189c-32 0 -43 -7 -60 -34l-27 -43l-33 9l86 236h32c3 -25 8 -37 23 -37h354v-31l-370 -337l92 -28c19 -6 45 -13 73 -13c51 0 76 8 123 81l32 -10c-56 -149 -107 -218 -199 -218c-49 0 -87 15 -135 41l-94 51l-49 -81
c-34 0 -52 13 -52 35c0 17 7 34 28 53z" />
    <glyph glyph-name="zdotaccent" unicode="&#x17c;" horiz-adv-x="532" 
d="M367 411h-189c-32 0 -43 -7 -60 -34l-27 -43l-33 9l86 236h32c3 -25 8 -37 23 -37h354v-31l-370 -337l92 -28c19 -6 45 -13 73 -13c51 0 76 8 123 81l32 -10c-56 -149 -107 -218 -199 -218c-49 0 -87 15 -135 41l-94 51l-49 -81c-34 0 -52 13 -52 35c0 17 7 34 28 53z
M355 601c-55 0 -89 39 -89 83c0 51 36 94 97 94c54 0 89 -38 89 -82c0 -51 -37 -95 -97 -95z" />
    <glyph glyph-name="A.sc" horiz-adv-x="677" 
d="M410 134l-10 51h-227l-34 -53c-7 -12 -15 -28 -15 -43c0 -18 12 -28 57 -29l-13 -60h-200l13 60c24 4 41 8 56 31l289 446l-16 73h161l114 -519c5 -21 18 -28 45 -31l-13 -60h-288l13 60c51 2 73 11 73 38c0 11 -2 23 -5 36zM347 452l-135 -208h176z" />
    <glyph glyph-name="B.sc" horiz-adv-x="644" 
d="M331 281h-45l-34 -156c-3 -17 -5 -24 -5 -29c0 -29 20 -38 52 -38h16c59 0 120 38 120 132c0 60 -32 91 -104 91zM367 543h-24l-44 -201h31c87 0 138 41 138 122c0 59 -37 79 -101 79zM120 606h314c133 0 200 -47 200 -133c0 -104 -88 -151 -194 -160
c100 -4 163 -50 163 -127c0 -126 -119 -186 -278 -186h-337l13 60c61 2 74 13 84 59l79 367c3 11 4 19 4 26c0 25 -15 32 -61 34z" />
    <glyph glyph-name="C.sc" horiz-adv-x="632" 
d="M323 -10c-183 0 -274 110 -274 245c0 222 167 381 384 381c93 0 158 -29 200 -68l-31 -138h-81c-6 85 -20 144 -89 144c-130 0 -206 -185 -206 -340c0 -94 31 -157 107 -157s112 52 168 158h83l-38 -167c-60 -36 -139 -58 -223 -58z" />
    <glyph glyph-name="D.sc" horiz-adv-x="710" 
d="M377 543h-34l-89 -411c-3 -15 -5 -27 -5 -36c0 -26 17 -33 45 -33h16c151 0 207 196 207 312c0 108 -42 168 -140 168zM120 606h271c187 0 302 -89 302 -248c0 -212 -161 -358 -396 -358h-309l13 60c61 2 74 13 84 59l79 367c3 11 4 19 4 26c0 25 -15 32 -61 34z" />
    <glyph glyph-name="E.sc" horiz-adv-x="608" 
d="M-12 0l13 60c61 2 74 13 84 59l79 367c3 11 4 19 4 26c0 25 -15 32 -61 34l13 60h510l-36 -167h-62c-13 71 -27 105 -98 105h-91l-44 -200h67c38 0 58 15 78 67h57l-43 -198h-56c0 51 -11 68 -50 68h-66l-33 -151c-2 -12 -4 -22 -4 -30c0 -32 22 -39 62 -39h21
c62 0 100 33 168 118h69l-65 -179h-516z" />
    <glyph glyph-name="F.sc" horiz-adv-x="568" 
d="M120 606h505l-36 -167h-67c-12 70 -25 105 -97 105h-81l-46 -207h57c40 0 59 15 79 67h57l-42 -197h-58c0 52 -10 68 -50 68h-56l-32 -147c-1 -9 -3 -18 -3 -30c0 -35 26 -41 93 -42l-10 -56h-345l13 60c61 2 74 13 84 59l79 367c3 11 4 19 4 26c0 25 -15 32 -61 34z" />
    <glyph glyph-name="G.sc" horiz-adv-x="685" 
d="M49 235c0 221 169 381 393 381c86 0 157 -29 198 -68l-31 -138h-81c-6 85 -26 144 -94 144c-132 0 -208 -185 -208 -339c0 -94 31 -158 108 -158c32 0 48 4 68 13l28 109c2 9 4 18 4 25c0 23 -18 29 -62 31l14 62h292l-13 -62c-59 -2 -70 -12 -81 -57l-29 -120
c-61 -43 -146 -68 -232 -68c-182 0 -274 110 -274 245z" />
    <glyph glyph-name="H.sc" horiz-adv-x="776" 
d="M484 119l35 162h-232l-35 -161c-2 -11 -4 -20 -4 -27c0 -25 16 -32 62 -33l-13 -60h-309l13 60c61 2 74 13 84 59l79 367c3 11 4 19 4 26c0 25 -15 32 -61 34l13 60h309l-13 -60c-61 -3 -74 -13 -84 -59l-31 -143h231l31 142c2 11 4 19 4 26c0 25 -16 32 -62 34l13 60
h310l-13 -60c-61 -3 -75 -13 -85 -59l-79 -367c-2 -11 -4 -20 -4 -27c0 -25 15 -32 61 -33l-13 -60h-309l13 60c61 2 74 13 85 59z" />
    <glyph glyph-name="I.sc" horiz-adv-x="377" 
d="M85 119l79 367c3 11 4 19 4 26c0 25 -15 32 -61 34l13 60h309l-13 -60c-61 -3 -74 -13 -84 -59l-80 -367c-2 -11 -4 -20 -4 -27c0 -25 16 -32 62 -33l-13 -60h-309l13 60c61 2 74 13 84 59z" />
    <glyph glyph-name="J.sc" horiz-adv-x="553" 
d="M282 167l69 319c2 11 4 19 4 26c0 25 -16 32 -62 34l13 60h309l-13 -60c-61 -3 -74 -13 -84 -59l-64 -291c-32 -143 -119 -205 -262 -205c-127 0 -192 54 -192 126c0 44 28 78 59 93h116c-15 -38 -21 -61 -21 -95c0 -28 12 -63 48 -63c42 0 64 45 80 115z" />
    <glyph glyph-name="K.sc" horiz-adv-x="704" 
d="M461 354l108 -232c23 -50 41 -61 84 -62l-13 -60h-184c-25 17 -46 57 -66 103l-86 205l210 171c19 16 36 27 36 46c0 14 -10 20 -50 21l13 60h236l-12 -60c-42 -1 -56 -8 -95 -40zM85 119l79 367c3 11 4 19 4 26c0 25 -15 32 -61 34l13 60h309l-13 -60
c-61 -3 -74 -13 -84 -59l-80 -367c-2 -11 -4 -20 -4 -27c0 -25 16 -32 62 -33l-13 -60h-309l13 60c61 2 74 13 84 59z" />
    <glyph glyph-name="L.sc" horiz-adv-x="598" 
d="M-12 0l13 60c61 2 74 13 84 59l79 367c3 11 4 19 4 26c0 25 -15 32 -61 34l13 60h309l-13 -60c-61 -3 -74 -13 -84 -59l-75 -349c-4 -16 -6 -30 -6 -40c0 -27 18 -35 55 -35h24c57 0 80 23 174 145h74l-78 -208h-512z" />
    <glyph glyph-name="M.sc" horiz-adv-x="881" 
d="M606 136l21 283l-250 -419h-54l-59 420l-106 -272c-7 -18 -12 -38 -12 -52c0 -27 22 -34 74 -36l-12 -60h-238l13 60c49 2 69 13 84 52l146 370c6 46 -4 61 -60 64l13 60h229c0 -21 0 -38 3 -60l41 -319l193 322c13 23 19 37 26 57h232l-13 -60c-60 -3 -77 -17 -87 -63
l-26 -371c-3 -42 15 -50 64 -52l-12 -60h-320l12 60c58 3 93 12 98 76z" />
    <glyph glyph-name="N.sc" horiz-adv-x="705" 
d="M533 239l52 247c2 10 3 19 3 26c0 25 -13 32 -59 34l11 60h220l-12 -60c-61 -3 -76 -13 -86 -59l-104 -487h-69l-259 437l-68 -317c-2 -10 -3 -20 -3 -27c0 -25 13 -32 60 -33l-12 -60h-219l12 60c61 2 75 13 85 59l84 384c-20 35 -32 40 -62 43l12 60h208z" />
    <glyph glyph-name="O.sc" horiz-adv-x="683" 
d="M228 197c0 -82 15 -144 79 -144c113 0 180 212 180 356c0 82 -15 143 -79 143c-113 0 -180 -212 -180 -355zM666 361c0 -187 -142 -371 -359 -371c-157 0 -258 101 -258 255c0 187 142 371 359 371c157 0 258 -102 258 -255z" />
    <glyph glyph-name="P.sc" horiz-adv-x="611" 
d="M-12 0l13 60c61 2 74 13 84 59l79 367c3 11 4 19 4 26c0 25 -15 32 -61 34l13 60h294c152 0 219 -62 219 -152c0 -151 -124 -224 -293 -224h-65l-22 -102c-2 -9 -4 -18 -4 -30c0 -35 27 -41 94 -42l-10 -56h-345zM343 543l-56 -255h28c80 0 153 44 153 156
c0 66 -30 99 -97 99h-28z" />
    <glyph glyph-name="Q.sc" horiz-adv-x="683" 
d="M666 361c0 -158 -102 -314 -264 -359l46 -43c37 -33 63 -51 109 -52l-5 -31c-29 -20 -62 -29 -109 -29c-64 0 -118 23 -156 96l-27 50c-130 18 -211 114 -211 252c0 187 142 371 359 371c157 0 258 -102 258 -255zM228 197c0 -82 15 -144 79 -144c113 0 180 212 180 356
c0 82 -15 143 -79 143c-113 0 -180 -212 -180 -355z" />
    <glyph glyph-name="R.sc" horiz-adv-x="685" 
d="M373 543h-32l-52 -236h27c99 0 167 36 167 139c0 63 -36 97 -110 97zM120 606h311c146 0 219 -52 219 -159c0 -92 -84 -156 -172 -172l69 -153c22 -50 37 -62 86 -62l-13 -60h-191c-22 21 -40 56 -53 94l-54 154h-46l-28 -128c-2 -11 -4 -20 -4 -27c0 -25 16 -32 62 -33
l-13 -60h-305l13 60c61 2 74 13 84 59l79 367c3 11 4 19 4 26c0 25 -15 32 -61 34z" />
    <glyph glyph-name="S.sc" horiz-adv-x="533" 
d="M236 -10c-103 0 -185 41 -217 83l23 134h80c4 -97 46 -159 125 -159c55 0 93 27 93 79c0 45 -25 67 -101 102c-104 47 -152 105 -152 189c0 124 102 198 239 198c97 0 158 -31 197 -66l-26 -127h-69c-8 72 -30 135 -114 135c-54 0 -85 -33 -85 -75c0 -46 30 -65 98 -98
c104 -49 163 -95 163 -190c0 -140 -125 -205 -254 -205z" />
    <glyph glyph-name="T.sc" horiz-adv-x="663" 
d="M489 547l-93 -427c-2 -11 -4 -20 -4 -26c0 -26 21 -34 74 -34l-13 -60h-331l13 60c61 0 84 13 94 59l93 428h-18c-71 0 -100 -47 -163 -146h-69l57 205h577l-32 -205h-63c-15 96 -35 146 -105 146h-17z" />
    <glyph glyph-name="U.sc" horiz-adv-x="697" 
d="M532 239l52 247c2 10 3 19 3 26c0 25 -13 32 -59 34l11 60h220l-12 -60c-61 -3 -76 -13 -86 -59l-58 -274c-33 -151 -140 -223 -277 -223c-142 0 -231 83 -231 198c0 19 3 46 10 76l48 222c2 11 4 19 4 26c0 25 -16 32 -62 34l13 60h310l-13 -60c-61 -3 -75 -13 -85 -59
l-51 -229c-5 -21 -7 -44 -7 -62c0 -73 41 -114 109 -114c74 0 133 33 161 157z" />
    <glyph glyph-name="V.sc" horiz-adv-x="660" 
d="M372 202l184 271c10 16 16 32 16 46c0 17 -13 24 -55 27l13 60h204l-13 -60c-26 -5 -44 -9 -59 -32l-353 -517h-47l-132 517c-6 23 -20 27 -43 32l13 60h292l-12 -60c-57 -4 -75 -18 -75 -49c0 -10 2 -18 5 -30z" />
    <glyph glyph-name="W.sc" horiz-adv-x="903" 
d="M643 208l150 250c12 19 23 41 23 62c0 17 -12 24 -54 26l13 60h201l-13 -60c-25 -5 -45 -8 -59 -32l-318 -517h-63l-35 331l-209 -331h-59l-91 517c-4 22 -19 27 -42 32l13 60h274l-12 -60c-32 -3 -62 -13 -63 -52c0 -8 0 -19 2 -30l40 -257l131 205l-11 102
c-2 19 -15 27 -37 32l13 60h268l-13 -60c-44 -2 -72 -16 -72 -58c0 -8 0 -21 1 -36z" />
    <glyph glyph-name="X.sc" horiz-adv-x="659" 
d="M615 516l-187 -177l133 -250c9 -14 25 -25 50 -29l-12 -60h-279l13 60c32 0 48 9 48 30c0 8 -1 18 -10 35l-63 122l-122 -121c-16 -17 -27 -28 -27 -43c0 -14 8 -23 46 -23l-13 -60h-224l13 60c36 0 61 13 77 29l217 215l-116 212c-8 14 -19 28 -45 30l13 60h283l-13 -60
c-35 0 -56 -9 -56 -31c0 -8 2 -18 12 -35l46 -84l85 84c16 14 28 28 28 44c0 15 -10 22 -43 22l13 60h220l-13 -60c-32 0 -57 -15 -74 -30z" />
    <glyph glyph-name="Y.sc" horiz-adv-x="625" 
d="M493 606h206l-13 -60c-26 -5 -42 -10 -59 -32l-232 -294l-23 -102c-2 -8 -3 -16 -3 -22c0 -27 19 -35 67 -36l-13 -60h-312l13 60c57 2 78 13 88 59l23 102l-105 293c-7 22 -20 27 -43 32l13 60h286l-12 -60c-40 0 -67 -12 -67 -45c0 -13 2 -26 8 -42l57 -165l130 165
c18 24 31 40 31 57c0 19 -12 29 -52 30z" />
    <glyph glyph-name="Z.sc" horiz-adv-x="585" 
d="M204 58h101c72 0 93 21 185 145h69l-75 -203h-504l9 42l421 505h-104c-71 0 -90 -50 -144 -123h-60l39 182h490l-10 -43z" />
    <glyph glyph-name="Aacute.sc" horiz-adv-x="677" 
d="M410 134l-10 51h-227l-34 -53c-7 -12 -15 -28 -15 -43c0 -18 12 -28 57 -29l-13 -60h-200l13 60c24 4 41 8 56 31l289 446l-16 73h161l114 -519c5 -21 18 -28 45 -31l-13 -60h-288l13 60c51 2 73 11 73 38c0 11 -2 23 -5 36zM456 816h185l-195 -162h-87zM347 452
l-135 -208h176z" />
    <glyph glyph-name="Abreve.sc" horiz-adv-x="677" 
d="M410 134l-10 51h-227l-34 -53c-7 -12 -15 -28 -15 -43c0 -18 12 -28 57 -29l-13 -60h-200l13 60c24 4 41 8 56 31l289 446l-16 73h161l114 -519c5 -21 18 -28 45 -31l-13 -60h-288l13 60c51 2 73 11 73 38c0 11 -2 23 -5 36zM407 652c-80 0 -124 45 -124 114
c0 16 3 35 10 56h60c-1 -6 -1 -11 -1 -15c0 -53 36 -68 74 -68c40 0 83 19 108 83h67c-26 -107 -95 -170 -194 -170zM347 452l-135 -208h176z" />
    <glyph glyph-name="Acircumflex.sc" horiz-adv-x="677" 
d="M410 134l-10 51h-227l-34 -53c-7 -12 -15 -28 -15 -43c0 -18 12 -28 57 -29l-13 -60h-200l13 60c24 4 41 8 56 31l289 446l-16 73h161l114 -519c5 -21 18 -28 45 -31l-13 -60h-288l13 60c51 2 73 11 73 38c0 11 -2 23 -5 36zM508 816l92 -169h-80l-90 84l-139 -84h-90
l183 169h124zM347 452l-135 -208h176z" />
    <glyph glyph-name="Adieresis.sc" horiz-adv-x="677" 
d="M410 134l-10 51h-227l-34 -53c-7 -12 -15 -28 -15 -43c0 -18 12 -28 57 -29l-13 -60h-200l13 60c24 4 41 8 56 31l289 446l-16 73h161l114 -519c5 -21 18 -28 45 -31l-13 -60h-288l13 60c51 2 73 11 73 38c0 11 -2 23 -5 36zM531 656c-50 0 -81 37 -81 78
c0 47 33 88 86 88c50 0 81 -36 81 -78c0 -47 -33 -88 -86 -88zM318 656c-50 0 -81 37 -81 78c0 47 34 88 87 88c50 0 80 -36 80 -78c0 -47 -33 -88 -86 -88zM347 452l-135 -208h176z" />
    <glyph glyph-name="Agrave.sc" horiz-adv-x="677" 
d="M410 134l-10 51h-227l-34 -53c-7 -12 -15 -28 -15 -43c0 -18 12 -28 57 -29l-13 -60h-200l13 60c24 4 41 8 56 31l289 446l-16 73h161l114 -519c5 -21 18 -28 45 -31l-13 -60h-288l13 60c51 2 73 11 73 38c0 11 -2 23 -5 36zM250 816h169l41 -162h-81zM347 452l-135 -208
h176z" />
    <glyph glyph-name="Amacron.sc" horiz-adv-x="677" 
d="M410 134l-10 51h-227l-34 -53c-7 -12 -15 -28 -15 -43c0 -18 12 -28 57 -29l-13 -60h-200l13 60c24 4 41 8 56 31l289 446l-16 73h161l114 -519c5 -21 18 -28 45 -31l-13 -60h-288l13 60c51 2 73 11 73 38c0 11 -2 23 -5 36zM263 676l21 93h299l-21 -93h-299zM347 452
l-135 -208h176z" />
    <glyph glyph-name="Aogonek.sc" horiz-adv-x="677" 
d="M410 134l-11 51h-225l-35 -53c-7 -12 -15 -28 -15 -43c0 -18 12 -28 57 -29l-13 -60h-200l13 60c24 4 41 8 56 31l289 446l-16 73h161l114 -519c5 -21 18 -28 45 -31l-13 -60h-264c-57 -30 -86 -68 -86 -103c0 -22 12 -38 40 -38c22 0 46 10 77 29l15 -26
c-48 -47 -96 -77 -152 -77c-48 0 -85 26 -85 72c0 82 71 128 158 169c68 31 95 45 95 72c0 11 -2 23 -5 36zM347 452l-135 -208h176z" />
    <glyph glyph-name="Aring.sc" horiz-adv-x="677" 
d="M410 134l-10 51h-227l-34 -53c-7 -12 -15 -28 -15 -43c0 -18 12 -28 57 -29l-13 -60h-200l13 60c24 4 41 8 56 31l289 446l-16 73h161l114 -519c5 -21 18 -28 45 -31l-13 -60h-288l13 60c51 2 73 11 73 38c0 11 -2 23 -5 36zM419 646c-60 0 -100 38 -100 91
c0 62 55 107 119 107c60 0 100 -38 100 -90c0 -62 -55 -108 -119 -108zM347 452l-135 -208h176zM424 699c33 0 52 24 52 52c0 24 -16 40 -43 40c-33 0 -52 -24 -52 -51c0 -24 15 -41 43 -41z" />
    <glyph glyph-name="Aringacute.sc" horiz-adv-x="677" 
d="M410 134l-10 51h-227l-34 -53c-7 -12 -15 -28 -15 -43c0 -18 12 -28 57 -29l-13 -60h-200l13 60c24 4 41 8 56 31l289 446l-16 73h161l114 -519c5 -21 18 -28 45 -31l-13 -60h-288l13 60c51 2 73 11 73 38c0 11 -2 23 -5 36zM412 640c-64 0 -106 32 -106 80
c0 56 57 96 126 96c63 0 106 -31 106 -78c0 -57 -58 -98 -126 -98zM347 452l-135 -208h176zM490 960h184l-167 -117h-88zM417 688c36 0 55 21 55 46c0 22 -16 34 -45 34c-36 0 -55 -20 -55 -45c0 -22 16 -35 45 -35z" />
    <glyph glyph-name="Atilde.sc" horiz-adv-x="677" 
d="M410 134l-10 51h-227l-34 -53c-7 -12 -15 -28 -15 -43c0 -18 12 -28 57 -29l-13 -60h-200l13 60c24 4 41 8 56 31l289 446l-16 73h161l114 -519c5 -21 18 -28 45 -31l-13 -60h-288l13 60c51 2 73 11 73 38c0 11 -2 23 -5 36zM575 816l53 -11c-60 -120 -90 -144 -146 -144
c-51 0 -94 65 -132 65c-29 0 -46 -24 -68 -57l-54 11c61 120 90 144 145 144c57 0 94 -64 133 -64c28 0 47 23 69 56zM347 452l-135 -208h176z" />
    <glyph glyph-name="AE.sc" horiz-adv-x="934" 
d="M37 91l373 430c-6 22 -21 25 -59 25l12 60h593l-37 -167h-61c-13 71 -27 105 -98 105h-91l-44 -200h66c39 0 59 15 79 67h57l-43 -198h-56c0 51 -11 68 -50 68h-66l-33 -151c-2 -12 -4 -22 -4 -30c0 -32 22 -39 61 -39h21c63 0 101 33 169 118h69l-65 -179h-516l12 60
c61 2 75 13 85 59l20 91h-210l-61 -69c-18 -21 -25 -37 -25 -52c0 -18 12 -28 56 -29l-12 -60h-211l13 60c24 4 38 10 56 31zM498 519l-223 -249h169z" />
    <glyph glyph-name="AEacute.sc" horiz-adv-x="934" 
d="M37 91l373 430c-6 22 -21 25 -59 25l12 60h593l-37 -167h-61c-13 71 -27 105 -98 105h-91l-44 -200h66c39 0 59 15 79 67h57l-43 -198h-56c0 51 -11 68 -50 68h-66l-33 -151c-2 -12 -4 -22 -4 -30c0 -32 22 -39 61 -39h21c63 0 101 33 169 118h69l-65 -179h-516l12 60
c61 2 75 13 85 59l20 91h-210l-61 -69c-18 -21 -25 -37 -25 -52c0 -18 12 -28 56 -29l-12 -60h-211l13 60c24 4 38 10 56 31zM688 816h185l-195 -162h-87zM498 519l-223 -249h169z" />
    <glyph glyph-name="Cacute.sc" horiz-adv-x="632" 
d="M503 816h185l-195 -162h-87zM323 -10c-183 0 -274 110 -274 245c0 222 167 381 384 381c93 0 158 -29 200 -68l-31 -138h-81c-6 85 -20 144 -89 144c-130 0 -206 -185 -206 -340c0 -94 31 -157 107 -157s112 52 168 158h83l-38 -167c-60 -36 -139 -58 -223 -58z" />
    <glyph glyph-name="Ccaron.sc" horiz-adv-x="632" 
d="M395 655l-93 169h80l90 -84l139 84h90l-182 -169h-124zM323 -10c-183 0 -274 110 -274 245c0 222 167 381 384 381c93 0 158 -29 200 -68l-31 -138h-81c-6 85 -20 144 -89 144c-130 0 -206 -185 -206 -340c0 -94 31 -157 107 -157s112 52 168 158h83l-38 -167
c-60 -36 -139 -58 -223 -58z" />
    <glyph glyph-name="Ccedilla.sc" horiz-adv-x="632" 
d="M198 -231l-10 46c73 0 123 13 123 41c0 26 -30 35 -79 37l50 99c-156 15 -233 118 -233 243c0 222 167 381 384 381c93 0 158 -29 200 -68l-31 -138h-81c-6 85 -20 144 -89 144c-130 0 -206 -185 -206 -340c0 -94 31 -157 107 -157s112 52 168 158h83l-38 -167
c-59 -36 -137 -57 -219 -58l-18 -35c59 -5 89 -29 89 -75c0 -74 -99 -111 -200 -111z" />
    <glyph glyph-name="Ccircumflex.sc" horiz-adv-x="632" 
d="M556 816l92 -169h-80l-90 84l-139 -84h-90l183 169h124zM323 -10c-183 0 -274 110 -274 245c0 222 167 381 384 381c93 0 158 -29 200 -68l-31 -138h-81c-6 85 -20 144 -89 144c-130 0 -206 -185 -206 -340c0 -94 31 -157 107 -157s112 52 168 158h83l-38 -167
c-60 -36 -139 -58 -223 -58z" />
    <glyph glyph-name="Cdotaccent.sc" horiz-adv-x="632" 
d="M323 -10c-183 0 -274 110 -274 245c0 222 167 381 384 381c93 0 158 -29 200 -68l-31 -138h-81c-6 85 -20 144 -89 144c-130 0 -206 -185 -206 -340c0 -94 31 -157 107 -157s112 52 168 158h83l-38 -167c-60 -36 -139 -58 -223 -58zM470 652c-55 0 -89 39 -89 83
c0 51 36 94 97 94c54 0 89 -38 89 -82c0 -51 -37 -95 -97 -95z" />
    <glyph glyph-name="Dcaron.sc" horiz-adv-x="710" 
d="M377 543h-34l-89 -411c-3 -15 -5 -27 -5 -36c0 -26 17 -33 45 -33h16c151 0 207 196 207 312c0 108 -42 168 -140 168zM120 606h271c187 0 302 -89 302 -248c0 -212 -161 -358 -396 -358h-309l13 60c61 2 74 13 84 59l79 367c3 11 4 19 4 26c0 25 -15 32 -61 34zM355 655
l-93 169h80l90 -84l139 84h90l-182 -169h-124z" />
    <glyph glyph-name="Dcroat.sc" horiz-adv-x="710" 
d="M120 606h271c187 0 302 -89 302 -248c0 -212 -161 -358 -396 -358h-309l13 60c61 2 74 13 84 59l34 160h-69l14 66h69l31 141c3 11 4 19 4 26c0 25 -15 32 -61 34zM377 543h-34l-43 -198h113l-14 -66h-113l-32 -147c-3 -15 -5 -27 -5 -36c0 -26 17 -33 45 -33h16
c151 0 207 196 207 312c0 108 -42 168 -140 168z" />
    <glyph glyph-name="Eacute.sc" horiz-adv-x="608" 
d="M433 816h185l-195 -162h-87zM-12 0l13 60c61 2 74 13 84 59l79 367c3 11 4 19 4 26c0 25 -15 32 -61 34l13 60h510l-36 -167h-62c-13 71 -27 105 -98 105h-91l-44 -200h67c38 0 58 15 78 67h57l-43 -198h-56c0 51 -11 68 -50 68h-66l-33 -151c-2 -12 -4 -22 -4 -30
c0 -32 22 -39 62 -39h21c62 0 100 33 168 118h69l-65 -179h-516z" />
    <glyph glyph-name="Ebreve.sc" horiz-adv-x="608" 
d="M-12 0l13 60c61 2 74 13 84 59l79 367c3 11 4 19 4 26c0 25 -15 32 -61 34l13 60h510l-36 -167h-62c-13 71 -27 105 -98 105h-91l-44 -200h67c38 0 58 15 78 67h57l-43 -198h-56c0 51 -11 68 -50 68h-66l-33 -151c-2 -12 -4 -22 -4 -30c0 -32 22 -39 62 -39h21
c62 0 100 33 168 118h69l-65 -179h-516zM383 652c-80 0 -124 45 -124 114c0 16 3 35 10 56h60c-1 -6 -1 -11 -1 -15c0 -53 36 -68 74 -68c40 0 83 19 108 83h67c-26 -107 -95 -170 -194 -170z" />
    <glyph glyph-name="Ecaron.sc" horiz-adv-x="608" 
d="M325 655l-93 169h80l90 -84l139 84h90l-182 -169h-124zM-12 0l13 60c61 2 74 13 84 59l79 367c3 11 4 19 4 26c0 25 -15 32 -61 34l13 60h510l-36 -167h-62c-13 71 -27 105 -98 105h-91l-44 -200h67c38 0 58 15 78 67h57l-43 -198h-56c0 51 -11 68 -50 68h-66l-33 -151
c-2 -12 -4 -22 -4 -30c0 -32 22 -39 62 -39h21c62 0 100 33 168 118h69l-65 -179h-516z" />
    <glyph glyph-name="Ecircumflex.sc" horiz-adv-x="608" 
d="M485 816l92 -169h-80l-90 84l-139 -84h-90l183 169h124zM-12 0l13 60c61 2 74 13 84 59l79 367c3 11 4 19 4 26c0 25 -15 32 -61 34l13 60h510l-36 -167h-62c-13 71 -27 105 -98 105h-91l-44 -200h67c38 0 58 15 78 67h57l-43 -198h-56c0 51 -11 68 -50 68h-66l-33 -151
c-2 -12 -4 -22 -4 -30c0 -32 22 -39 62 -39h21c62 0 100 33 168 118h69l-65 -179h-516z" />
    <glyph glyph-name="Edieresis.sc" horiz-adv-x="608" 
d="M294 656c-50 0 -81 37 -81 78c0 47 34 88 87 88c50 0 80 -36 80 -78c0 -47 -33 -88 -86 -88zM507 656c-50 0 -81 37 -81 78c0 47 33 88 86 88c50 0 81 -36 81 -78c0 -47 -33 -88 -86 -88zM-12 0l13 60c61 2 74 13 84 59l79 367c3 11 4 19 4 26c0 25 -15 32 -61 34l13 60
h510l-36 -167h-62c-13 71 -27 105 -98 105h-91l-44 -200h67c38 0 58 15 78 67h57l-43 -198h-56c0 51 -11 68 -50 68h-66l-33 -151c-2 -12 -4 -22 -4 -30c0 -32 22 -39 62 -39h21c62 0 100 33 168 118h69l-65 -179h-516z" />
    <glyph glyph-name="Edotaccent.sc" horiz-adv-x="608" 
d="M399 652c-55 0 -89 39 -89 83c0 51 36 94 97 94c54 0 89 -38 89 -82c0 -51 -37 -95 -97 -95zM-12 0l13 60c61 2 74 13 84 59l79 367c3 11 4 19 4 26c0 25 -15 32 -61 34l13 60h510l-36 -167h-62c-13 71 -27 105 -98 105h-91l-44 -200h67c38 0 58 15 78 67h57l-43 -198
h-56c0 51 -11 68 -50 68h-66l-33 -151c-2 -12 -4 -22 -4 -30c0 -32 22 -39 62 -39h21c62 0 100 33 168 118h69l-65 -179h-516z" />
    <glyph glyph-name="Egrave.sc" horiz-adv-x="608" 
d="M227 816h169l41 -162h-81zM-12 0l13 60c61 2 74 13 84 59l79 367c3 11 4 19 4 26c0 25 -15 32 -61 34l13 60h510l-36 -167h-62c-13 71 -27 105 -98 105h-91l-44 -200h67c38 0 58 15 78 67h57l-43 -198h-56c0 51 -11 68 -50 68h-66l-33 -151c-2 -12 -4 -22 -4 -30
c0 -32 22 -39 62 -39h21c62 0 100 33 168 118h69l-65 -179h-516z" />
    <glyph glyph-name="Emacron.sc" horiz-adv-x="608" 
d="M240 676l21 93h299l-21 -93h-299zM-12 0l13 60c61 2 74 13 84 59l79 367c3 11 4 19 4 26c0 25 -15 32 -61 34l13 60h510l-36 -167h-62c-13 71 -27 105 -98 105h-91l-44 -200h67c38 0 58 15 78 67h57l-43 -198h-56c0 51 -11 68 -50 68h-66l-33 -151c-2 -12 -4 -22 -4 -30
c0 -32 22 -39 62 -39h21c62 0 100 33 168 118h69l-65 -179h-516z" />
    <glyph glyph-name="Eogonek.sc" horiz-adv-x="608" 
d="M-12 0l13 60c61 2 74 13 84 59l79 367c3 11 4 19 4 26c0 25 -15 32 -61 34l13 60h510l-36 -167h-62c-13 71 -27 105 -98 105h-91l-44 -200h67c38 0 58 15 78 67h57l-43 -198h-56c0 51 -11 68 -50 68h-66l-33 -151c-2 -12 -4 -22 -4 -30c0 -32 22 -39 62 -39h21
c62 0 100 33 168 118h69l-65 -179h-79c-54 -33 -86 -68 -86 -103c0 -22 12 -38 40 -38c23 0 46 10 77 29l16 -26c-48 -47 -96 -77 -153 -77c-48 0 -85 26 -85 71c0 65 54 109 121 144h-367z" />
    <glyph glyph-name="Eth.sc" horiz-adv-x="710" 
d="M120 606h271c187 0 302 -89 302 -248c0 -212 -161 -358 -396 -358h-309l13 60c61 2 74 13 84 59l34 160h-69l14 66h69l31 141c3 11 4 19 4 26c0 25 -15 32 -61 34zM377 543h-34l-43 -198h113l-14 -66h-113l-32 -147c-3 -15 -5 -27 -5 -36c0 -26 17 -33 45 -33h16
c151 0 207 196 207 312c0 108 -42 168 -140 168z" />
    <glyph glyph-name="Gbreve.sc" horiz-adv-x="685" 
d="M49 235c0 221 169 381 393 381c86 0 157 -29 198 -68l-31 -138h-81c-6 85 -26 144 -94 144c-132 0 -208 -185 -208 -339c0 -94 31 -158 108 -158c32 0 48 4 68 13l28 109c2 9 4 18 4 25c0 23 -18 29 -62 31l14 62h292l-13 -62c-59 -2 -70 -12 -81 -57l-29 -120
c-61 -43 -146 -68 -232 -68c-182 0 -274 110 -274 245zM447 652c-80 0 -124 45 -124 114c0 16 3 35 10 56h60c-1 -6 -1 -11 -1 -15c0 -53 36 -68 74 -68c40 0 83 19 108 83h67c-26 -107 -95 -170 -194 -170z" />
    <glyph glyph-name="Gcircumflex.sc" horiz-adv-x="685" 
d="M549 816l92 -169h-80l-90 84l-139 -84h-90l183 169h124zM49 235c0 221 169 381 393 381c86 0 157 -29 198 -68l-31 -138h-81c-6 85 -26 144 -94 144c-132 0 -208 -185 -208 -339c0 -94 31 -158 108 -158c32 0 48 4 68 13l28 109c2 9 4 18 4 25c0 23 -18 29 -62 31l14 62
h292l-13 -62c-59 -2 -70 -12 -81 -57l-29 -120c-61 -43 -146 -68 -232 -68c-182 0 -274 110 -274 245z" />
    <glyph glyph-name="Gcommaaccent.sc" horiz-adv-x="685" 
d="M298 -157h-58c-26 7 -40 22 -40 48c0 41 33 73 90 73c52 0 81 -31 81 -78c0 -72 -51 -132 -181 -132l1 43c64 0 101 19 107 46zM49 235c0 221 169 381 393 381c86 0 157 -29 198 -68l-31 -138h-81c-6 85 -26 144 -94 144c-132 0 -208 -185 -208 -339
c0 -94 31 -158 108 -158c32 0 48 4 68 13l28 109c2 9 4 18 4 25c0 23 -18 29 -62 31l14 62h292l-13 -62c-59 -2 -70 -12 -81 -57l-29 -120c-61 -43 -146 -68 -232 -68c-182 0 -274 110 -274 245z" />
    <glyph glyph-name="Gdotaccent.sc" horiz-adv-x="685" 
d="M49 235c0 221 169 381 393 381c86 0 157 -29 198 -68l-31 -138h-81c-6 85 -26 144 -94 144c-132 0 -208 -185 -208 -339c0 -94 31 -158 108 -158c32 0 48 4 68 13l28 109c2 9 4 18 4 25c0 23 -18 29 -62 31l14 62h292l-13 -62c-59 -2 -70 -12 -81 -57l-29 -120
c-61 -43 -146 -68 -232 -68c-182 0 -274 110 -274 245zM463 652c-55 0 -89 39 -89 83c0 51 36 94 97 94c54 0 89 -38 89 -82c0 -51 -37 -95 -97 -95z" />
    <glyph glyph-name="Hbar.sc" horiz-adv-x="776" 
d="M484 119l27 125h-232l-27 -124c-2 -11 -4 -20 -4 -27c0 -25 16 -32 62 -33l-13 -60h-309l13 60c61 2 74 13 84 59l57 266h-69l14 65h69l8 36c3 11 4 19 4 26c0 25 -15 32 -61 34l13 60h309l-13 -60c-61 -3 -74 -13 -84 -59l-8 -37h231l8 36c2 11 4 19 4 26
c0 25 -16 32 -62 34l13 60h310l-13 -60c-61 -3 -75 -13 -85 -59l-8 -37h74l-14 -65h-75l-56 -265c-2 -11 -4 -20 -4 -27c0 -25 15 -32 61 -33l-13 -60h-309l13 60c61 2 74 13 85 59zM309 385l-17 -78h232l17 78h-232z" />
    <glyph glyph-name="Hcircumflex.sc" horiz-adv-x="776" 
d="M484 119l35 162h-232l-35 -161c-2 -11 -4 -20 -4 -27c0 -25 16 -32 62 -33l-13 -60h-309l13 60c61 2 74 13 84 59l79 367c3 11 4 19 4 26c0 25 -15 32 -61 34l13 60h309l-13 -60c-61 -3 -74 -13 -84 -59l-31 -143h231l31 142c2 11 4 19 4 26c0 25 -16 32 -62 34l13 60
h310l-13 -60c-61 -3 -75 -13 -85 -59l-79 -367c-2 -11 -4 -20 -4 -27c0 -25 15 -32 61 -33l-13 -60h-309l13 60c61 2 74 13 85 59zM581 816l92 -169h-80l-90 84l-139 -84h-90l183 169h124z" />
    <glyph glyph-name="Iacute.sc" horiz-adv-x="377" 
d="M330 816h185l-195 -162h-87zM85 119l79 367c3 11 4 19 4 26c0 25 -15 32 -61 34l13 60h309l-13 -60c-61 -3 -74 -13 -84 -59l-80 -367c-2 -11 -4 -20 -4 -27c0 -25 16 -32 62 -33l-13 -60h-309l13 60c61 2 74 13 84 59z" />
    <glyph glyph-name="Ibreve.sc" horiz-adv-x="377" 
d="M85 119l79 367c3 11 4 19 4 26c0 25 -15 32 -61 34l13 60h309l-13 -60c-61 -3 -74 -13 -84 -59l-80 -367c-2 -11 -4 -20 -4 -27c0 -25 16 -32 62 -33l-13 -60h-309l13 60c61 2 74 13 84 59zM281 652c-80 0 -124 45 -124 114c0 16 3 35 10 56h60c-1 -6 -1 -11 -1 -15
c0 -53 36 -68 74 -68c40 0 83 19 108 83h67c-26 -107 -95 -170 -194 -170z" />
    <glyph glyph-name="Icircumflex.sc" horiz-adv-x="377" 
d="M382 816l92 -169h-80l-90 84l-139 -84h-90l183 169h124zM85 119l79 367c3 11 4 19 4 26c0 25 -15 32 -61 34l13 60h309l-13 -60c-61 -3 -74 -13 -84 -59l-80 -367c-2 -11 -4 -20 -4 -27c0 -25 16 -32 62 -33l-13 -60h-309l13 60c61 2 74 13 84 59z" />
    <glyph glyph-name="Idieresis.sc" horiz-adv-x="377" 
d="M192 656c-50 0 -81 37 -81 78c0 47 34 88 87 88c50 0 80 -36 80 -78c0 -47 -33 -88 -86 -88zM405 656c-50 0 -81 37 -81 78c0 47 33 88 86 88c50 0 81 -36 81 -78c0 -47 -33 -88 -86 -88zM85 119l79 367c3 11 4 19 4 26c0 25 -15 32 -61 34l13 60h309l-13 -60
c-61 -3 -74 -13 -84 -59l-80 -367c-2 -11 -4 -20 -4 -27c0 -25 16 -32 62 -33l-13 -60h-309l13 60c61 2 74 13 84 59z" />
    <glyph glyph-name="Idotaccent.sc" horiz-adv-x="377" 
d="M85 119l79 367c3 11 4 19 4 26c0 25 -15 32 -61 34l13 60h309l-13 -60c-61 -3 -74 -13 -84 -59l-80 -367c-2 -11 -4 -20 -4 -27c0 -25 16 -32 62 -33l-13 -60h-309l13 60c61 2 74 13 84 59zM297 652c-55 0 -89 39 -89 83c0 51 36 94 97 94c54 0 89 -38 89 -82
c0 -51 -37 -95 -97 -95z" />
    <glyph glyph-name="Igrave.sc" horiz-adv-x="377" 
d="M85 119l79 367c3 11 4 19 4 26c0 25 -15 32 -61 34l13 60h309l-13 -60c-61 -3 -74 -13 -84 -59l-80 -367c-2 -11 -4 -20 -4 -27c0 -25 16 -32 62 -33l-13 -60h-309l13 60c61 2 74 13 84 59zM125 816h169l41 -162h-81z" />
    <glyph glyph-name="Imacron.sc" horiz-adv-x="377" 
d="M85 119l79 367c3 11 4 19 4 26c0 25 -15 32 -61 34l13 60h309l-13 -60c-61 -3 -74 -13 -84 -59l-80 -367c-2 -11 -4 -20 -4 -27c0 -25 16 -32 62 -33l-13 -60h-309l13 60c61 2 74 13 84 59zM138 676l21 93h299l-21 -93h-299z" />
    <glyph glyph-name="Iogonek.sc" horiz-adv-x="377" 
d="M85 119l79 367c3 11 4 19 4 26c0 25 -15 32 -61 34l13 60h309l-13 -60c-61 -3 -74 -13 -84 -59l-80 -367c-2 -11 -4 -20 -4 -27c0 -25 16 -32 62 -33l-13 -60h-99c-54 -33 -86 -68 -86 -103c0 -22 12 -38 40 -38c23 0 46 10 77 29l16 -26c-48 -47 -96 -77 -153 -77
c-48 0 -85 26 -85 71c0 65 54 109 121 144h-140l13 60c61 2 74 13 84 59z" />
    <glyph glyph-name="Itilde.sc" horiz-adv-x="377" 
d="M85 119l79 367c3 11 4 19 4 26c0 25 -15 32 -61 34l13 60h309l-13 -60c-61 -3 -74 -13 -84 -59l-80 -367c-2 -11 -4 -20 -4 -27c0 -25 16 -32 62 -33l-13 -60h-309l13 60c61 2 74 13 84 59zM449 816l53 -11c-60 -120 -90 -144 -146 -144c-51 0 -94 65 -132 65
c-29 0 -46 -24 -68 -57l-54 11c61 120 90 144 145 144c57 0 94 -64 133 -64c28 0 47 23 69 56z" />
    <glyph glyph-name="IJ.sc" horiz-adv-x="897" 
d="M85 119l79 367c3 11 4 19 4 26c0 25 -15 32 -61 34l13 60h309l-13 -60c-61 -3 -74 -13 -84 -59l-80 -367c-2 -11 -4 -20 -4 -27c0 -25 16 -32 62 -33l-13 -60h-309l13 60c61 2 74 13 84 59zM626 167l69 319c2 11 4 19 4 26c0 25 -16 32 -62 34l13 60h309l-13 -60
c-61 -3 -74 -13 -84 -59l-64 -291c-32 -143 -119 -205 -262 -205c-127 0 -192 54 -192 126c0 44 28 78 59 93h116c-15 -38 -21 -61 -21 -95c0 -28 12 -63 48 -63c42 0 64 45 80 115z" />
    <glyph glyph-name="Jcircumflex.sc" horiz-adv-x="553" 
d="M571 816l92 -169h-80l-90 84l-139 -84h-90l183 169h124zM282 167l69 319c2 11 4 19 4 26c0 25 -16 32 -62 34l13 60h309l-13 -60c-61 -3 -74 -13 -84 -59l-64 -291c-32 -143 -119 -205 -262 -205c-127 0 -192 54 -192 126c0 44 28 78 59 93h116c-15 -38 -21 -61 -21 -95
c0 -28 12 -63 48 -63c42 0 64 45 80 115z" />
    <glyph glyph-name="Kcommaaccent.sc" horiz-adv-x="704" 
d="M313 -157h-58c-26 7 -40 22 -40 48c0 41 33 73 90 73c52 0 81 -31 81 -78c0 -72 -51 -132 -181 -132l1 43c64 0 101 19 107 46zM461 354l108 -232c23 -50 41 -61 84 -62l-13 -60h-184c-25 17 -46 57 -66 103l-86 205l210 171c19 16 36 27 36 46c0 14 -10 20 -50 21l13 60
h236l-12 -60c-42 -1 -56 -8 -95 -40zM85 119l79 367c3 11 4 19 4 26c0 25 -15 32 -61 34l13 60h309l-13 -60c-61 -3 -74 -13 -84 -59l-80 -367c-2 -11 -4 -20 -4 -27c0 -25 16 -32 62 -33l-13 -60h-309l13 60c61 2 74 13 84 59z" />
    <glyph glyph-name="Lacute.sc" horiz-adv-x="598" 
d="M-12 0l13 60c61 2 74 13 84 59l79 367c3 11 4 19 4 26c0 25 -15 32 -61 34l13 60h309l-13 -60c-61 -3 -74 -13 -84 -59l-75 -349c-4 -16 -6 -30 -6 -40c0 -27 18 -35 55 -35h24c57 0 80 23 174 145h74l-78 -208h-512zM334 816h185l-195 -162h-87z" />
    <glyph glyph-name="Lcaron.sc" horiz-adv-x="598" 
d="M-12 0l13 60c61 2 74 13 84 59l79 367c3 11 4 19 4 26c0 25 -15 32 -61 34l13 60h309l-13 -60c-61 -3 -74 -13 -84 -59l-75 -349c-4 -16 -6 -30 -6 -40c0 -27 18 -35 55 -35h24c57 0 80 23 174 145h74l-78 -208h-512zM641 606l-132 -205h-68l53 205h147z" />
    <glyph glyph-name="Lcommaaccent.sc" horiz-adv-x="598" 
d="M-12 0l13 60c61 2 74 13 84 59l79 367c3 11 4 19 4 26c0 25 -15 32 -61 34l13 60h309l-13 -60c-61 -3 -74 -13 -84 -59l-75 -349c-4 -16 -6 -30 -6 -40c0 -27 18 -35 55 -35h24c57 0 80 23 174 145h74l-78 -208h-512zM253 -157h-58c-26 7 -40 22 -40 48c0 41 33 73 90 73
c52 0 81 -31 81 -78c0 -72 -51 -132 -181 -132l1 43c64 0 101 19 107 46z" />
    <glyph glyph-name="Ldot.sc" horiz-adv-x="598" 
d="M-12 0l13 60c61 2 74 13 84 59l79 367c3 11 4 19 4 26c0 25 -15 32 -61 34l13 60h309l-13 -60c-61 -3 -74 -13 -84 -59l-75 -349c-4 -16 -6 -30 -6 -40c0 -27 18 -35 55 -35h24c57 0 80 23 174 145h74l-78 -208h-512zM494 272c-55 0 -89 39 -89 83c0 51 36 94 97 94
c54 0 89 -38 89 -82c0 -51 -37 -95 -97 -95z" />
    <glyph glyph-name="Lslash.sc" horiz-adv-x="598" 
d="M-12 0l13 60c61 2 74 13 84 59l24 112l-78 -29l16 66l76 28l41 190c3 11 4 19 4 26c0 25 -15 32 -61 34l13 60h309l-13 -60c-61 -3 -74 -13 -84 -59l-29 -132l122 46l-15 -66l-121 -46l-32 -151c-4 -16 -6 -30 -6 -40c0 -27 18 -35 55 -35h24c57 0 80 23 174 145h74
l-78 -208h-512z" />
    <glyph glyph-name="Nacute.sc" horiz-adv-x="705" 
d="M495 816h185l-195 -162h-87zM533 239l52 247c2 10 3 19 3 26c0 25 -13 32 -59 34l11 60h220l-12 -60c-61 -3 -76 -13 -86 -59l-104 -487h-69l-259 437l-68 -317c-2 -10 -3 -20 -3 -27c0 -25 13 -32 60 -33l-12 -60h-219l12 60c61 2 75 13 85 59l84 384
c-20 35 -32 40 -62 43l12 60h208z" />
    <glyph glyph-name="Ncaron.sc" horiz-adv-x="705" 
d="M388 655l-93 169h80l90 -84l139 84h90l-182 -169h-124zM533 239l52 247c2 10 3 19 3 26c0 25 -13 32 -59 34l11 60h220l-12 -60c-61 -3 -76 -13 -86 -59l-104 -487h-69l-259 437l-68 -317c-2 -10 -3 -20 -3 -27c0 -25 13 -32 60 -33l-12 -60h-219l12 60c61 2 75 13 85 59
l84 384c-20 35 -32 40 -62 43l12 60h208z" />
    <glyph glyph-name="Ncommaaccent.sc" horiz-adv-x="705" 
d="M296 -157h-58c-26 7 -40 22 -40 48c0 41 33 73 90 73c52 0 81 -31 81 -78c0 -72 -51 -132 -181 -132l1 43c64 0 101 19 107 46zM533 239l52 247c2 10 3 19 3 26c0 25 -13 32 -59 34l11 60h220l-12 -60c-61 -3 -76 -13 -86 -59l-104 -487h-69l-259 437l-68 -317
c-2 -10 -3 -20 -3 -27c0 -25 13 -32 60 -33l-12 -60h-219l12 60c61 2 75 13 85 59l84 384c-20 35 -32 40 -62 43l12 60h208z" />
    <glyph glyph-name="Ntilde.sc" horiz-adv-x="705" 
d="M533 239l52 247c2 10 3 19 3 26c0 25 -13 32 -59 34l11 60h220l-12 -60c-61 -3 -76 -13 -86 -59l-104 -487h-69l-259 437l-68 -317c-2 -10 -3 -20 -3 -27c0 -25 13 -32 60 -33l-12 -60h-219l12 60c61 2 75 13 85 59l84 384c-20 35 -32 40 -62 43l12 60h208zM614 816
l53 -11c-60 -120 -90 -144 -146 -144c-51 0 -94 65 -132 65c-29 0 -46 -24 -68 -57l-54 11c61 120 90 144 145 144c57 0 94 -64 133 -64c28 0 47 23 69 56z" />
    <glyph glyph-name="Eng.sc" horiz-adv-x="705" 
d="M662 487l-85 -398c-37 -176 -119 -267 -240 -267c-67 0 -112 27 -112 71c0 42 32 65 69 69h25c1 -56 9 -101 36 -101c26 0 46 24 74 144l15 68l-214 366l-68 -319c-1 -8 -3 -20 -3 -27c0 -25 13 -32 60 -33l-12 -60h-219l12 60c61 2 75 13 85 59l84 384
c-20 35 -32 40 -62 43l12 60h208l206 -366l51 246c3 7 5 20 5 26c0 25 -15 32 -61 34l12 60h220l-12 -60c-61 -2 -76 -13 -86 -59z" />
    <glyph glyph-name="Oacute.sc" horiz-adv-x="683" 
d="M228 197c0 -82 15 -144 79 -144c113 0 180 212 180 356c0 82 -15 143 -79 143c-113 0 -180 -212 -180 -355zM666 361c0 -187 -142 -371 -359 -371c-157 0 -258 101 -258 255c0 187 142 371 359 371c157 0 258 -102 258 -255zM481 816h185l-195 -162h-87z" />
    <glyph glyph-name="Obreve.sc" horiz-adv-x="683" 
d="M228 197c0 -82 15 -144 79 -144c113 0 180 212 180 356c0 82 -15 143 -79 143c-113 0 -180 -212 -180 -355zM666 361c0 -187 -142 -371 -359 -371c-157 0 -258 101 -258 255c0 187 142 371 359 371c157 0 258 -102 258 -255zM432 652c-80 0 -124 45 -124 114
c0 16 3 35 10 56h60c-1 -6 -1 -11 -1 -15c0 -53 36 -68 74 -68c40 0 83 19 108 83h67c-26 -107 -95 -170 -194 -170z" />
    <glyph glyph-name="Ocircumflex.sc" horiz-adv-x="683" 
d="M533 816l92 -169h-80l-90 84l-139 -84h-90l183 169h124zM228 197c0 -82 15 -144 79 -144c113 0 180 212 180 356c0 82 -15 143 -79 143c-113 0 -180 -212 -180 -355zM666 361c0 -187 -142 -371 -359 -371c-157 0 -258 101 -258 255c0 187 142 371 359 371
c157 0 258 -102 258 -255z" />
    <glyph glyph-name="Odieresis.sc" horiz-adv-x="683" 
d="M343 656c-50 0 -81 37 -81 78c0 47 34 88 87 88c50 0 80 -36 80 -78c0 -47 -33 -88 -86 -88zM556 656c-50 0 -81 37 -81 78c0 47 33 88 86 88c50 0 81 -36 81 -78c0 -47 -33 -88 -86 -88zM228 197c0 -82 15 -144 79 -144c113 0 180 212 180 356c0 82 -15 143 -79 143
c-113 0 -180 -212 -180 -355zM666 361c0 -187 -142 -371 -359 -371c-157 0 -258 101 -258 255c0 187 142 371 359 371c157 0 258 -102 258 -255z" />
    <glyph glyph-name="Ograve.sc" horiz-adv-x="683" 
d="M228 197c0 -82 15 -144 79 -144c113 0 180 212 180 356c0 82 -15 143 -79 143c-113 0 -180 -212 -180 -355zM666 361c0 -187 -142 -371 -359 -371c-157 0 -258 101 -258 255c0 187 142 371 359 371c157 0 258 -102 258 -255zM275 816h169l41 -162h-81z" />
    <glyph glyph-name="Ohungarumlaut.sc" horiz-adv-x="683" 
d="M228 197c0 -82 15 -144 79 -144c113 0 180 212 180 356c0 82 -15 143 -79 143c-113 0 -180 -212 -180 -355zM666 361c0 -187 -142 -371 -359 -371c-157 0 -258 101 -258 255c0 187 142 371 359 371c157 0 258 -102 258 -255zM378 816h157l-176 -162h-81zM576 816h163
l-181 -162h-81z" />
    <glyph glyph-name="Omacron.sc" horiz-adv-x="683" 
d="M228 197c0 -82 15 -144 79 -144c113 0 180 212 180 356c0 82 -15 143 -79 143c-113 0 -180 -212 -180 -355zM666 361c0 -187 -142 -371 -359 -371c-157 0 -258 101 -258 255c0 187 142 371 359 371c157 0 258 -102 258 -255zM288 676l21 93h299l-21 -93h-299z" />
    <glyph glyph-name="Oslash.sc" horiz-adv-x="683" 
d="M408 616c42 0 81 -8 114 -22l53 79l50 -28l-53 -79c60 -45 94 -116 94 -205c0 -187 -142 -371 -359 -371c-40 0 -75 6 -107 18l-60 -91l-50 28l59 89c-63 44 -100 118 -100 211c0 187 142 371 359 371zM408 552c-113 0 -184 -212 -184 -355c0 -17 0 -33 2 -47l244 366
c-13 23 -33 36 -62 36zM491 409c0 11 -1 22 -2 33l-240 -361c13 -18 32 -28 58 -28c113 0 184 212 184 356z" />
    <glyph glyph-name="Oslashacute.sc" horiz-adv-x="683" 
d="M408 616c42 0 81 -8 114 -22l53 79l50 -28l-53 -79c60 -45 94 -116 94 -205c0 -187 -142 -371 -359 -371c-40 0 -75 6 -107 18l-60 -91l-50 28l59 89c-63 44 -100 118 -100 211c0 187 142 371 359 371zM408 552c-113 0 -184 -212 -184 -355c0 -17 0 -33 2 -47l244 366
c-13 23 -33 36 -62 36zM491 409c0 11 -1 22 -2 33l-240 -361c13 -18 32 -28 58 -28c113 0 184 212 184 356zM481 816h185l-195 -162h-87z" />
    <glyph glyph-name="Otilde.sc" horiz-adv-x="683" 
d="M228 197c0 -82 15 -144 79 -144c113 0 180 212 180 356c0 82 -15 143 -79 143c-113 0 -180 -212 -180 -355zM666 361c0 -187 -142 -371 -359 -371c-157 0 -258 101 -258 255c0 187 142 371 359 371c157 0 258 -102 258 -255zM600 816l53 -11c-60 -120 -90 -144 -146 -144
c-51 0 -94 65 -132 65c-29 0 -46 -24 -68 -57l-54 11c61 120 90 144 145 144c57 0 94 -64 133 -64c28 0 47 23 69 56z" />
    <glyph glyph-name="OE.sc" horiz-adv-x="934" 
d="M454 606h503l-36 -167h-63c-12 71 -26 105 -96 105h-92l-43 -200h65c39 0 59 15 79 67h56l-42 -198h-56c0 51 -11 68 -50 68h-65l-33 -151c-3 -12 -5 -22 -5 -30c0 -32 22 -39 61 -39h21c63 0 101 33 168 118h70l-65 -179h-480c-187 0 -302 89 -302 248
c0 211 164 358 405 358zM503 544h-54c-166 0 -224 -198 -224 -313c0 -108 42 -168 139 -168h35z" />
    <glyph glyph-name="Racute.sc" horiz-adv-x="685" 
d="M443 816h185l-195 -162h-87zM373 543h-32l-52 -236h27c99 0 167 36 167 139c0 63 -36 97 -110 97zM120 606h311c146 0 219 -52 219 -159c0 -92 -84 -156 -172 -172l69 -153c22 -50 37 -62 86 -62l-13 -60h-191c-22 21 -40 56 -53 94l-54 154h-46l-28 -128
c-2 -11 -4 -20 -4 -27c0 -25 16 -32 62 -33l-13 -60h-305l13 60c61 2 74 13 84 59l79 367c3 11 4 19 4 26c0 25 -15 32 -61 34z" />
    <glyph glyph-name="Rcaron.sc" horiz-adv-x="685" 
d="M336 655l-93 169h80l90 -84l139 84h90l-182 -169h-124zM373 543h-32l-52 -236h27c99 0 167 36 167 139c0 63 -36 97 -110 97zM120 606h311c146 0 219 -52 219 -159c0 -92 -84 -156 -172 -172l69 -153c22 -50 37 -62 86 -62l-13 -60h-191c-22 21 -40 56 -53 94l-54 154
h-46l-28 -128c-2 -11 -4 -20 -4 -27c0 -25 16 -32 62 -33l-13 -60h-305l13 60c61 2 74 13 84 59l79 367c3 11 4 19 4 26c0 25 -15 32 -61 34z" />
    <glyph glyph-name="Rcommaaccent.sc" horiz-adv-x="685" 
d="M296 -157h-58c-26 7 -40 22 -40 48c0 41 33 73 90 73c52 0 81 -31 81 -78c0 -72 -51 -132 -181 -132l1 43c64 0 101 19 107 46zM373 543h-32l-52 -236h27c99 0 167 36 167 139c0 63 -36 97 -110 97zM120 606h311c146 0 219 -52 219 -159c0 -92 -84 -156 -172 -172
l69 -153c22 -50 37 -62 86 -62l-13 -60h-191c-22 21 -40 56 -53 94l-54 154h-46l-28 -128c-2 -11 -4 -20 -4 -27c0 -25 16 -32 62 -33l-13 -60h-305l13 60c61 2 74 13 84 59l79 367c3 11 4 19 4 26c0 25 -15 32 -61 34z" />
    <glyph glyph-name="Sacute.sc" horiz-adv-x="533" 
d="M406 816h185l-195 -162h-87zM236 -10c-103 0 -185 41 -217 83l23 134h80c4 -97 46 -159 125 -159c55 0 93 27 93 79c0 45 -25 67 -101 102c-104 47 -152 105 -152 189c0 124 102 198 239 198c97 0 158 -31 197 -66l-26 -127h-69c-8 72 -30 135 -114 135
c-54 0 -85 -33 -85 -75c0 -46 30 -65 98 -98c104 -49 163 -95 163 -190c0 -140 -125 -205 -254 -205z" />
    <glyph glyph-name="Scaron.sc" horiz-adv-x="533" 
d="M298 655l-93 169h80l90 -84l139 84h90l-182 -169h-124zM236 -10c-103 0 -185 41 -217 83l23 134h80c4 -97 46 -159 125 -159c55 0 93 27 93 79c0 45 -25 67 -101 102c-104 47 -152 105 -152 189c0 124 102 198 239 198c97 0 158 -31 197 -66l-26 -127h-69
c-8 72 -30 135 -114 135c-54 0 -85 -33 -85 -75c0 -46 30 -65 98 -98c104 -49 163 -95 163 -190c0 -140 -125 -205 -254 -205z" />
    <glyph glyph-name="Scedilla.sc" horiz-adv-x="533" 
d="M101 -231l-10 46c73 0 123 13 123 41c0 26 -30 35 -79 37l50 101c-79 10 -140 44 -166 79l23 134h80c4 -97 46 -159 125 -159c55 0 93 27 93 79c0 45 -25 67 -101 102c-104 47 -152 105 -152 189c0 124 102 198 239 198c97 0 158 -31 197 -66l-26 -127h-69
c-8 72 -30 135 -114 135c-54 0 -85 -33 -85 -75c0 -46 30 -65 98 -98c104 -49 163 -95 163 -190c0 -140 -125 -205 -254 -205h-6l-18 -35c59 -5 89 -29 89 -75c0 -74 -99 -111 -200 -111z" />
    <glyph glyph-name="Scircumflex.sc" horiz-adv-x="533" 
d="M458 816l92 -169h-80l-90 84l-139 -84h-90l183 169h124zM236 -10c-103 0 -185 41 -217 83l23 134h80c4 -97 46 -159 125 -159c55 0 93 27 93 79c0 45 -25 67 -101 102c-104 47 -152 105 -152 189c0 124 102 198 239 198c97 0 158 -31 197 -66l-26 -127h-69
c-8 72 -30 135 -114 135c-54 0 -85 -33 -85 -75c0 -46 30 -65 98 -98c104 -49 163 -95 163 -190c0 -140 -125 -205 -254 -205z" />
    <glyph glyph-name="Scommaaccent.sc" horiz-adv-x="533" 
d="M206 -157h-58c-26 7 -40 22 -40 48c0 41 33 73 90 73c52 0 81 -31 81 -78c0 -72 -51 -132 -181 -132l1 43c64 0 101 19 107 46zM236 -10c-103 0 -185 41 -217 83l23 134h80c4 -97 46 -159 125 -159c55 0 93 27 93 79c0 45 -25 67 -101 102c-104 47 -152 105 -152 189
c0 124 102 198 239 198c97 0 158 -31 197 -66l-26 -127h-69c-8 72 -30 135 -114 135c-54 0 -85 -33 -85 -75c0 -46 30 -65 98 -98c104 -49 163 -95 163 -190c0 -140 -125 -205 -254 -205z" />
    <glyph glyph-name="Tbar.sc" horiz-adv-x="663" 
d="M489 547l-46 -210h97l-14 -66h-97l-33 -151c-2 -11 -4 -20 -4 -26c0 -26 21 -34 74 -34l-13 -60h-331l13 60c61 0 84 13 94 59l33 152h-95l13 66h96l46 210h-18c-71 0 -100 -47 -163 -146h-69l57 205h577l-32 -205h-63c-15 96 -35 146 -105 146h-17z" />
    <glyph glyph-name="Tcaron.sc" horiz-adv-x="663" 
d="M489 547l-93 -427c-2 -11 -4 -20 -4 -26c0 -26 21 -34 74 -34l-13 -60h-331l13 60c61 0 84 13 94 59l93 428h-18c-71 0 -100 -47 -163 -146h-69l57 205h577l-32 -205h-63c-15 96 -35 146 -105 146h-17zM366 655l-93 169h80l90 -84l139 84h90l-182 -169h-124z" />
    <glyph glyph-name="Thorn.sc" horiz-adv-x="619" 
d="M317 417l-51 -229h28c80 0 148 28 148 129c0 66 -31 100 -106 100h-19zM331 487l-2 -8h62c153 0 219 -62 219 -153c0 -144 -117 -195 -287 -195h-69l-1 -3c-1 -9 -3 -18 -3 -30c0 -35 26 -41 93 -42l-10 -56h-345l12 60c61 2 75 13 85 59l79 367c3 7 4 20 4 26
c0 25 -14 32 -60 34l11 60h309l-12 -60c-61 -2 -76 -13 -85 -59z" />
    <glyph glyph-name="Uacute.sc" horiz-adv-x="697" 
d="M524 816h185l-195 -162h-87zM532 239l52 247c2 10 3 19 3 26c0 25 -13 32 -59 34l11 60h220l-12 -60c-61 -3 -76 -13 -86 -59l-58 -274c-33 -151 -140 -223 -277 -223c-142 0 -231 83 -231 198c0 19 3 46 10 76l48 222c2 11 4 19 4 26c0 25 -16 32 -62 34l13 60h310
l-13 -60c-61 -3 -75 -13 -85 -59l-51 -229c-5 -21 -7 -44 -7 -62c0 -73 41 -114 109 -114c74 0 133 33 161 157z" />
    <glyph glyph-name="Ubreve.sc" horiz-adv-x="697" 
d="M532 239l52 247c2 10 3 19 3 26c0 25 -13 32 -59 34l11 60h220l-12 -60c-61 -3 -76 -13 -86 -59l-58 -274c-33 -151 -140 -223 -277 -223c-142 0 -231 83 -231 198c0 19 3 46 10 76l48 222c2 11 4 19 4 26c0 25 -16 32 -62 34l13 60h310l-13 -60c-61 -3 -75 -13 -85 -59
l-51 -229c-5 -21 -7 -44 -7 -62c0 -73 41 -114 109 -114c74 0 133 33 161 157zM474 652c-80 0 -124 45 -124 114c0 16 3 35 10 56h60c-1 -6 -1 -11 -1 -15c0 -53 36 -68 74 -68c40 0 83 19 108 83h67c-26 -107 -95 -170 -194 -170z" />
    <glyph glyph-name="Ucircumflex.sc" horiz-adv-x="697" 
d="M576 816l92 -169h-80l-90 84l-139 -84h-90l183 169h124zM532 239l52 247c2 10 3 19 3 26c0 25 -13 32 -59 34l11 60h220l-12 -60c-61 -3 -76 -13 -86 -59l-58 -274c-33 -151 -140 -223 -277 -223c-142 0 -231 83 -231 198c0 19 3 46 10 76l48 222c2 11 4 19 4 26
c0 25 -16 32 -62 34l13 60h310l-13 -60c-61 -3 -75 -13 -85 -59l-51 -229c-5 -21 -7 -44 -7 -62c0 -73 41 -114 109 -114c74 0 133 33 161 157z" />
    <glyph glyph-name="Udieresis.sc" horiz-adv-x="697" 
d="M386 656c-50 0 -81 37 -81 78c0 47 34 88 87 88c50 0 80 -36 80 -78c0 -47 -33 -88 -86 -88zM599 656c-50 0 -81 37 -81 78c0 47 33 88 86 88c50 0 81 -36 81 -78c0 -47 -33 -88 -86 -88zM532 239l52 247c2 10 3 19 3 26c0 25 -13 32 -59 34l11 60h220l-12 -60
c-61 -3 -76 -13 -86 -59l-58 -274c-33 -151 -140 -223 -277 -223c-142 0 -231 83 -231 198c0 19 3 46 10 76l48 222c2 11 4 19 4 26c0 25 -16 32 -62 34l13 60h310l-13 -60c-61 -3 -75 -13 -85 -59l-51 -229c-5 -21 -7 -44 -7 -62c0 -73 41 -114 109 -114
c74 0 133 33 161 157z" />
    <glyph glyph-name="Ugrave.sc" horiz-adv-x="697" 
d="M319 816h169l41 -162h-81zM532 239l52 247c2 10 3 19 3 26c0 25 -13 32 -59 34l11 60h220l-12 -60c-61 -3 -76 -13 -86 -59l-58 -274c-33 -151 -140 -223 -277 -223c-142 0 -231 83 -231 198c0 19 3 46 10 76l48 222c2 11 4 19 4 26c0 25 -16 32 -62 34l13 60h310
l-13 -60c-61 -3 -75 -13 -85 -59l-51 -229c-5 -21 -7 -44 -7 -62c0 -73 41 -114 109 -114c74 0 133 33 161 157z" />
    <glyph glyph-name="Uhungarumlaut.sc" horiz-adv-x="697" 
d="M422 816h157l-176 -162h-81zM620 816h163l-181 -162h-81zM532 239l52 247c2 10 3 19 3 26c0 25 -13 32 -59 34l11 60h220l-12 -60c-61 -3 -76 -13 -86 -59l-58 -274c-33 -151 -140 -223 -277 -223c-142 0 -231 83 -231 198c0 19 3 46 10 76l48 222c2 11 4 19 4 26
c0 25 -16 32 -62 34l13 60h310l-13 -60c-61 -3 -75 -13 -85 -59l-51 -229c-5 -21 -7 -44 -7 -62c0 -73 41 -114 109 -114c74 0 133 33 161 157z" />
    <glyph glyph-name="Umacron.sc" horiz-adv-x="697" 
d="M331 676l21 93h299l-21 -93h-299zM532 239l52 247c2 10 3 19 3 26c0 25 -13 32 -59 34l11 60h220l-12 -60c-61 -3 -76 -13 -86 -59l-58 -274c-33 -151 -140 -223 -277 -223c-142 0 -231 83 -231 198c0 19 3 46 10 76l48 222c2 11 4 19 4 26c0 25 -16 32 -62 34l13 60h310
l-13 -60c-61 -3 -75 -13 -85 -59l-51 -229c-5 -21 -7 -44 -7 -62c0 -73 41 -114 109 -114c74 0 133 33 161 157z" />
    <glyph glyph-name="Uogonek.sc" horiz-adv-x="697" 
d="M532 239l52 247c2 10 3 19 3 26c0 25 -13 32 -59 34l11 60h220l-12 -60c-61 -3 -76 -13 -86 -59l-58 -274c-24 -109 -86 -177 -170 -206c-60 -36 -98 -72 -98 -110c0 -22 12 -38 40 -38c23 0 46 10 77 29l16 -26c-48 -47 -96 -77 -153 -77c-48 0 -85 26 -85 71
c0 59 44 101 103 134h-7c-142 0 -231 83 -231 198c0 19 3 46 10 76l48 222c2 11 4 19 4 26c0 25 -16 32 -62 34l13 60h310l-13 -60c-61 -3 -75 -13 -85 -59l-51 -229c-5 -21 -7 -44 -7 -62c0 -73 41 -114 109 -114c74 0 133 33 161 157z" />
    <glyph glyph-name="Uring.sc" horiz-adv-x="697" 
d="M492 699c33 0 52 24 52 52c0 24 -16 40 -43 40c-33 0 -52 -24 -52 -51c0 -24 15 -41 43 -41zM487 646c-60 0 -100 38 -100 91c0 62 55 107 119 107c60 0 100 -38 100 -90c0 -62 -55 -108 -119 -108zM532 239l52 247c2 10 3 19 3 26c0 25 -13 32 -59 34l11 60h220l-12 -60
c-61 -3 -76 -13 -86 -59l-58 -274c-33 -151 -140 -223 -277 -223c-142 0 -231 83 -231 198c0 19 3 46 10 76l48 222c2 11 4 19 4 26c0 25 -16 32 -62 34l13 60h310l-13 -60c-61 -3 -75 -13 -85 -59l-51 -229c-5 -21 -7 -44 -7 -62c0 -73 41 -114 109 -114
c74 0 133 33 161 157z" />
    <glyph glyph-name="Utilde.sc" horiz-adv-x="697" 
d="M532 239l52 247c2 10 3 19 3 26c0 25 -13 32 -59 34l11 60h220l-12 -60c-61 -3 -76 -13 -86 -59l-58 -274c-33 -151 -140 -223 -277 -223c-142 0 -231 83 -231 198c0 19 3 46 10 76l48 222c2 11 4 19 4 26c0 25 -16 32 -62 34l13 60h310l-13 -60c-61 -3 -75 -13 -85 -59
l-51 -229c-5 -21 -7 -44 -7 -62c0 -73 41 -114 109 -114c74 0 133 33 161 157zM642 816l53 -11c-60 -120 -90 -144 -146 -144c-51 0 -94 65 -132 65c-29 0 -46 -24 -68 -57l-54 11c61 120 90 144 145 144c57 0 94 -64 133 -64c28 0 47 23 69 56z" />
    <glyph glyph-name="Wacute.sc" horiz-adv-x="903" 
d="M643 208l150 250c12 19 23 41 23 62c0 17 -12 24 -54 26l13 60h201l-13 -60c-25 -5 -45 -8 -59 -32l-318 -517h-63l-35 331l-209 -331h-59l-91 517c-4 22 -19 27 -42 32l13 60h274l-12 -60c-32 -3 -62 -13 -63 -52c0 -8 0 -19 2 -30l40 -257l131 205l-11 102
c-2 19 -15 27 -37 32l13 60h268l-13 -60c-44 -2 -72 -16 -72 -58c0 -8 0 -21 1 -36zM614 816h185l-195 -162h-87z" />
    <glyph glyph-name="Wcircumflex.sc" horiz-adv-x="903" 
d="M666 816l92 -169h-80l-90 84l-139 -84h-90l183 169h124zM643 208l150 250c12 19 23 41 23 62c0 17 -12 24 -54 26l13 60h201l-13 -60c-25 -5 -45 -8 -59 -32l-318 -517h-63l-35 331l-209 -331h-59l-91 517c-4 22 -19 27 -42 32l13 60h274l-12 -60c-32 -3 -62 -13 -63 -52
c0 -8 0 -19 2 -30l40 -257l131 205l-11 102c-2 19 -15 27 -37 32l13 60h268l-13 -60c-44 -2 -72 -16 -72 -58c0 -8 0 -21 1 -36z" />
    <glyph glyph-name="Wgrave.sc" horiz-adv-x="903" 
d="M643 208l150 250c12 19 23 41 23 62c0 17 -12 24 -54 26l13 60h201l-13 -60c-25 -5 -45 -8 -59 -32l-318 -517h-63l-35 331l-209 -331h-59l-91 517c-4 22 -19 27 -42 32l13 60h274l-12 -60c-32 -3 -62 -13 -63 -52c0 -8 0 -19 2 -30l40 -257l131 205l-11 102
c-2 19 -15 27 -37 32l13 60h268l-13 -60c-44 -2 -72 -16 -72 -58c0 -8 0 -21 1 -36zM408 816h169l41 -162h-81z" />
    <glyph glyph-name="Wdieresis.sc" horiz-adv-x="903" 
d="M475 656c-50 0 -81 37 -81 78c0 47 34 88 87 88c50 0 80 -36 80 -78c0 -47 -33 -88 -86 -88zM688 656c-50 0 -81 37 -81 78c0 47 33 88 86 88c50 0 81 -36 81 -78c0 -47 -33 -88 -86 -88zM643 208l150 250c12 19 23 41 23 62c0 17 -12 24 -54 26l13 60h201l-13 -60
c-25 -5 -45 -8 -59 -32l-318 -517h-63l-35 331l-209 -331h-59l-91 517c-4 22 -19 27 -42 32l13 60h274l-12 -60c-32 -3 -62 -13 -63 -52c0 -8 0 -19 2 -30l40 -257l131 205l-11 102c-2 19 -15 27 -37 32l13 60h268l-13 -60c-44 -2 -72 -16 -72 -58c0 -8 0 -21 1 -36z" />
    <glyph glyph-name="Yacute.sc" horiz-adv-x="625" 
d="M496 816h185l-195 -162h-87zM493 606h206l-13 -60c-26 -5 -42 -10 -59 -32l-232 -294l-23 -102c-2 -8 -3 -16 -3 -22c0 -27 19 -35 67 -36l-13 -60h-312l13 60c57 2 78 13 88 59l23 102l-105 293c-7 22 -20 27 -43 32l13 60h286l-12 -60c-40 0 -67 -12 -67 -45
c0 -13 2 -26 8 -42l57 -165l130 165c18 24 31 40 31 57c0 19 -12 29 -52 30z" />
    <glyph glyph-name="Ycircumflex.sc" horiz-adv-x="625" 
d="M548 816l92 -169h-80l-90 84l-139 -84h-90l183 169h124zM493 606h206l-13 -60c-26 -5 -42 -10 -59 -32l-232 -294l-23 -102c-2 -8 -3 -16 -3 -22c0 -27 19 -35 67 -36l-13 -60h-312l13 60c57 2 78 13 88 59l23 102l-105 293c-7 22 -20 27 -43 32l13 60h286l-12 -60
c-40 0 -67 -12 -67 -45c0 -13 2 -26 8 -42l57 -165l130 165c18 24 31 40 31 57c0 19 -12 29 -52 30z" />
    <glyph glyph-name="Ydieresis.sc" horiz-adv-x="625" 
d="M358 656c-50 0 -81 37 -81 78c0 47 34 88 87 88c50 0 80 -36 80 -78c0 -47 -33 -88 -86 -88zM571 656c-50 0 -81 37 -81 78c0 47 33 88 86 88c50 0 81 -36 81 -78c0 -47 -33 -88 -86 -88zM493 606h206l-13 -60c-26 -5 -42 -10 -59 -32l-232 -294l-23 -102
c-2 -8 -3 -16 -3 -22c0 -27 19 -35 67 -36l-13 -60h-312l13 60c57 2 78 13 88 59l23 102l-105 293c-7 22 -20 27 -43 32l13 60h286l-12 -60c-40 0 -67 -12 -67 -45c0 -13 2 -26 8 -42l57 -165l130 165c18 24 31 40 31 57c0 19 -12 29 -52 30z" />
    <glyph glyph-name="Ygrave.sc" horiz-adv-x="625" 
d="M493 606h206l-13 -60c-26 -5 -42 -10 -59 -32l-232 -294l-23 -102c-2 -8 -3 -16 -3 -22c0 -27 19 -35 67 -36l-13 -60h-312l13 60c57 2 78 13 88 59l23 102l-105 293c-7 22 -20 27 -43 32l13 60h286l-12 -60c-40 0 -67 -12 -67 -45c0 -13 2 -26 8 -42l57 -165l130 165
c18 24 31 40 31 57c0 19 -12 29 -52 30zM291 816h169l41 -162h-81z" />
    <glyph glyph-name="Zacute.sc" horiz-adv-x="585" 
d="M444 816h185l-195 -162h-87zM204 58h101c72 0 93 21 185 145h69l-75 -203h-504l9 42l421 505h-104c-71 0 -90 -50 -144 -123h-60l39 182h490l-10 -43z" />
    <glyph glyph-name="Zcaron.sc" horiz-adv-x="585" 
d="M336 655l-93 169h80l90 -84l139 84h90l-182 -169h-124zM204 58h101c72 0 93 21 185 145h69l-75 -203h-504l9 42l421 505h-104c-71 0 -90 -50 -144 -123h-60l39 182h490l-10 -43z" />
    <glyph glyph-name="Zdotaccent.sc" horiz-adv-x="585" 
d="M204 58h101c72 0 93 21 185 145h69l-75 -203h-504l9 42l421 505h-104c-71 0 -90 -50 -144 -123h-60l39 182h490l-10 -43zM411 652c-55 0 -89 39 -89 83c0 51 36 94 97 94c54 0 89 -38 89 -82c0 -51 -37 -95 -97 -95z" />
    <glyph glyph-name="ampersand.sc" horiz-adv-x="677" 
d="M382 616c112 0 175 -50 175 -124c0 -83 -82 -128 -174 -155l100 -156c16 25 26 53 26 81c0 17 -9 24 -34 24l13 59h188l-13 -59c-63 0 -80 -13 -102 -62c-13 -30 -30 -58 -51 -84l22 -34c22 -33 49 -46 89 -46l-12 -60h-175c-18 13 -32 26 -44 39
c-56 -31 -119 -49 -185 -49c-105 0 -190 56 -190 161c0 97 73 156 184 184c-15 28 -30 66 -30 108c0 99 84 173 213 173zM339 110l-117 188c-37 -23 -48 -65 -48 -108c0 -64 42 -118 124 -118c19 0 39 3 58 10zM308 492c0 -38 22 -74 46 -109l6 -9c42 20 68 55 68 119
c0 43 -20 71 -59 71s-61 -26 -61 -72z" />
    <glyph glyph-name="caron.Slovak" horiz-adv-x="500" 
d="M357 765l-132 -205h-68l53 205h147z" />
    <glyph glyph-name="cedilla.alt" horiz-adv-x="500" 
d="M194 -45h35c70 0 100 -29 100 -75c0 -74 -99 -111 -200 -111l-10 46c73 0 123 13 123 41c0 26 -30 35 -79 37z" />
    <glyph glyph-name="grave.cap" horiz-adv-x="500" 
d="M146 909h169l39 -156h-81z" />
    <glyph glyph-name="acute.cap" horiz-adv-x="500" 
d="M205 909h184l-192 -156h-87z" />
    <glyph glyph-name="circumflex.cap" horiz-adv-x="500" 
d="M357 918l95 -167h-81l-91 82l-141 -82h-91l185 167h124z" />
    <glyph glyph-name="tilde.cap" horiz-adv-x="500" 
d="M397 898l53 -12c-60 -119 -90 -144 -146 -144c-51 0 -94 65 -132 65c-29 0 -46 -24 -68 -56l-54 11c61 119 90 144 145 144c57 0 94 -65 133 -65c28 0 47 23 69 57z" />
    <glyph glyph-name="macron.cap" horiz-adv-x="500" 
d="M84 763l22 97h310l-22 -97h-310z" />
    <glyph glyph-name="breve.cap" horiz-adv-x="500" 
d="M215 748c-80 0 -126 45 -126 114c0 17 3 36 10 56h60c-1 -5 -1 -10 -1 -15c0 -52 38 -68 76 -68c40 0 85 19 110 83h67c-26 -106 -97 -170 -196 -170z" />
    <glyph glyph-name="dotaccent.cap" horiz-adv-x="500" 
d="M246 749c-55 0 -89 38 -89 83c0 50 36 93 97 93c54 0 89 -38 89 -82c0 -51 -37 -94 -97 -94z" />
    <glyph glyph-name="dieresis.cap" horiz-adv-x="500" 
d="M141 748c-50 0 -81 37 -81 78c0 47 34 88 87 88c50 0 80 -36 80 -78c0 -47 -33 -88 -86 -88zM354 748c-50 0 -81 37 -81 78c0 47 33 88 86 88c50 0 81 -36 81 -78c0 -47 -33 -88 -86 -88z" />
    <glyph glyph-name="ring.cap" horiz-adv-x="500" 
d="M245 793c33 0 52 24 52 52c0 24 -15 40 -43 40c-33 0 -52 -24 -52 -51c0 -25 16 -41 43 -41zM240 740c-60 0 -100 38 -100 91c0 61 55 107 119 107c60 0 100 -38 100 -91c0 -61 -55 -107 -119 -107z" />
    </font>
</defs>
</svg>
