<?xml version="1.0" encoding="UTF-8"?>
<svg width="32px" height="32px" viewBox="0 0 32 32" version="1.1" xmlns="http://www.w3.org/2000/svg" xmlns:xlink="http://www.w3.org/1999/xlink">
    <!-- Generator: Sketch 63.1 (92452) - https://sketch.com -->
    <title>icon-github</title>
    <desc>Created with Sketch.</desc>
    <g id="Symbols" stroke="none" stroke-width="1" fill="none" fill-rule="evenodd">
        <g id="v2.0-/-footer" transform="translate(-636.000000, -120.000000)">
            <g id="footer">
                <g id="social-media-icons" transform="translate(636.000000, 80.000000)">
                    <g id="icon-github" transform="translate(0.000000, 40.000000)">
                        <rect id="Background,-8px" stroke="#FFFFFF" stroke-width="0.666666667" x="0.333333333" y="0.333333333" width="31.3333333" height="31.3333333" rx="5.33333333"></rect>
                        <path d="M16,6 C10.478125,6 6,10.5902742 6,16.253121 C6,20.7825173 8.86484375,24.6238331 12.8390625,25.9815706 C13.3390625,26.075691 13.5214844,25.7588856 13.5214844,25.4873381 C13.5214844,25.2438265 13.5128906,24.5990013 13.5078125,23.7435065 C10.7265625,24.3639004 10.140625,22.3681465 10.140625,22.3681465 C9.6859375,21.1838309 9.03046875,20.868227 9.03046875,20.868227 C8.12148438,20.2338151 9.09804688,20.24543 9.09804688,20.24543 C10.1015625,20.3179228 10.6296875,21.3019821 10.6296875,21.3019821 C11.521875,22.8687871 12.9703125,22.416208 13.5398437,22.1538722 C13.6308594,21.4914245 13.8890625,21.0396464 14.1746094,20.7833183 C11.9542969,20.5257888 9.61992188,19.6446612 9.61992188,15.7172352 C9.61992188,14.5978027 10.0105469,13.6826315 10.6492187,12.9661146 C10.5464844,12.7065825 10.203125,11.6644488 10.7472656,10.2526421 C10.7472656,10.2526421 11.5867187,9.97708952 13.4972656,11.303587 C15.1361057,10.8434305 16.8654568,10.8434305 18.5042969,11.303587 C20.4132813,9.976689 21.2515625,10.2526421 21.2515625,10.2526421 C21.7984375,11.6644488 21.4539062,12.7065825 21.3511719,12.9661146 C21.9921875,13.683032 22.3789062,14.5982032 22.3789062,15.7172352 C22.3789062,19.6562761 20.0410156,20.5233857 17.8132813,20.7765096 C18.1722656,21.0929145 18.4921875,21.7189156 18.4921875,22.6753396 C18.4921875,24.0458935 18.4800781,25.1517086 18.4800781,25.4881391 C18.4800781,25.7624902 18.6601562,26.0812982 19.1675781,25.9811701 C23.1375,24.6226315 26,20.7821168 26,16.253922 C26,10.5906747 21.5222656,6 16,6 Z" id="Path" fill="#FFFFFF" transform="translate(16.000000, 16.000000) scale(-1, 1) translate(-16.000000, -16.000000) "></path>
                    </g>
                </g>
            </g>
        </g>
    </g>
</svg>