<?xml version="1.0" encoding="UTF-8"?>
<svg width="32px" height="32px" viewBox="0 0 32 32" version="1.1" xmlns="http://www.w3.org/2000/svg" xmlns:xlink="http://www.w3.org/1999/xlink">
    <!-- Generator: Sketch 52.2 (67145) - http://www.bohemiancoding.com/sketch -->
    <title>icon-dribbble</title>
    <desc>Created with Sketch.</desc>
    <defs>
        <path d="M15.111509,6 C10.32496,6.40677773 6.49710254,10.1731265 6,14.9291435 L6,17.0345804 C6.52658064,22.0732721 10.7906551,26 15.9726527,26 C21.5113947,26 26,21.5154827 26,15.9817851 C26,10.7388233 21.9693331,6.43636636 16.833925,6 L15.111509,6 L15.111509,6 Z M22.3354603,10.5774135 C23.4630811,11.9025501 24.1804923,13.5819672 24.3035552,15.4262295 C22.4986326,15.3296903 20.3363719,15.3315118 18.5989061,15.4945355 C18.3810392,14.9408015 18.1549681,14.3979964 17.911577,13.8770492 C19.9161349,13.0118397 21.4576117,11.8734062 22.3354603,10.5774135 L22.3354603,10.5774135 Z M15.9726527,7.63387978 C17.9990884,7.63387978 19.8568824,8.35428051 21.3035552,9.55373406 C20.3956244,10.704918 18.9735643,11.701275 17.1959891,12.4544627 C16.2242479,10.6621129 15.1084777,9.11657559 13.9170465,7.8989071 C14.5761167,7.73041894 15.2616226,7.63387978 15.9726527,7.63387978 L15.9726527,7.63387978 Z M12.1923428,8.54371585 C13.3992707,9.74043716 14.532361,11.273224 15.5241568,13.0591985 C13.6362808,13.6338798 11.4740201,13.9644809 9.16864175,13.9644809 C8.73290793,13.9644809 8.30355515,13.9471767 7.87784868,13.924408 C8.47766636,11.5728597 10.0729262,9.62112933 12.1923428,8.54371585 L12.1923428,8.54371585 Z M7.6308113,15.582878 C8.10574294,15.6029144 8.58614403,15.6129326 9.07474932,15.6074681 C11.704649,15.5728597 14.1577028,15.1657559 16.260711,14.4918033 C16.4567001,14.9034608 16.6453965,15.3269581 16.8249772,15.7595628 C16.5378304,15.8260474 16.2835005,15.9007286 16.0783956,15.9854281 C13.1996354,17.1894353 10.9343665,19.1384335 9.70556062,21.4918033 C8.40929809,20.0200364 7.61622607,18.0956284 7.61622607,15.9817851 C7.61622607,15.8479053 7.62443026,15.715847 7.6308113,15.582878 L7.6308113,15.582878 Z M15.9726527,24.3296903 C14.041021,24.3296903 12.2670921,23.6693989 10.8514129,22.5701275 C11.9635369,20.3697632 13.9480401,18.5491803 16.4512306,17.4153005 C16.6882407,17.3078324 17.0009116,17.2185792 17.3600729,17.140255 C17.6563355,17.9672131 17.9252507,18.8224044 18.1577028,19.7067395 C18.5205105,21.0910747 18.7730173,22.4553734 18.9307201,23.7823315 C18.0100273,24.1311475 17.0154968,24.3296903 15.9726527,24.3296903 L15.9726527,24.3296903 Z M20.4886053,22.9990893 C20.3309025,21.6593807 20.0756609,20.2814208 19.7101185,18.8834244 C19.532361,18.2058288 19.3272562,17.5482696 19.1103008,16.9034608 C20.7493163,16.7704918 22.7146764,16.7905282 24.2743847,16.9034608 C23.9917958,19.4635701 22.5524157,21.6712204 20.4886053,22.9990893 L20.4886053,22.9990893 Z" id="path-1"></path>
    </defs>
    <g id="Symbols" stroke="none" stroke-width="1" fill="none" fill-rule="evenodd">
        <g id="v2.0-/-footer" transform="translate(-636.000000, -80.000000)">
            <g id="footer">
                <g id="social-media-icons" transform="translate(636.000000, 80.000000)">
                    <g id="icon-dribbble">
                        <rect id="Background,-8px" stroke="#FFFFFF" stroke-width="0.666666667" x="0.333333333" y="0.333333333" width="31.3333333" height="31.3333333" rx="5.33333333"></rect>
                        <mask id="mask-2" fill="white">
                            <use xlink:href="#path-1"></use>
                        </mask>
                        <use id="Dribbble-Icon" fill="#FFFFFF" xlink:href="#path-1"></use>
                    </g>
                </g>
            </g>
        </g>
    </g>
</svg>