<?xml version="1.0" encoding="UTF-8"?>
<svg width="34px" height="34px" viewBox="0 0 34 34" version="1.1" xmlns="http://www.w3.org/2000/svg" xmlns:xlink="http://www.w3.org/1999/xlink">
    <!-- Generator: Sketch 52.2 (67145) - http://www.bohemiancoding.com/sketch -->
    <title>icon-facebook</title>
    <desc>Created with Sketch.</desc>
    <g id="Symbols" stroke="none" stroke-width="1" fill="none" fill-rule="evenodd">
        <g id="v2.0-/-footer" transform="translate(-795.000000, -79.000000)">
            <g id="footer">
                <g id="social-media-icons" transform="translate(636.000000, 80.000000)">
                    <g id="icon-facebook" transform="translate(160.000000, 0.000000)">
                        <rect id="Background,-8px" stroke="#FFFFFF" stroke-width="0.666666667" x="0" y="0" width="32" height="32.3265306" rx="5.33333333"></rect>
                        <path d="M26.3960908,16.490934 L22.8264524,16.490934 L22.8264524,14.0932395 C23.0877917,11.8271152 26.7936694,12.2573152 26.7936694,12.2573152 L26.7945262,12.102374 L26.7936694,12.0850621 L26.7936694,8.36214357 L26.7928125,8.36214357 L26.7928125,8.36127798 L26.790242,8.36127798 C26.6625713,8.3309822 19.4179017,6.59373564 17.97925,12.1638311 C17.97925,12.1646967 17.97925,12.1664279 17.9775363,12.1681591 C17.9749658,12.1802774 17.9706815,12.1923957 17.968111,12.204514 C17.7419025,12.9013169 17.7573258,16.0901641 17.7598964,16.490934 L14.6666667,16.490934 L14.6666667,20.7557142 L17.9518308,20.7557142 L17.9518308,32.3555354 L22.7356262,32.3555354 L22.7356262,20.7557142 L26.395234,20.7557142 L26.807379,16.490934 L26.3960908,16.490934" id="Fill-16" fill="#FFFFFE"></path>
                    </g>
                </g>
            </g>
        </g>
    </g>
</svg>