<svg width="175" height="40" viewBox="0 0 175 40" fill="none" xmlns="http://www.w3.org/2000/svg">
<g clip-path="url(#clip0_1275_59272)">
<path d="M2.09901 15.5668C3.45029 13.1661 5.44326 11.1892 7.85468 9.85726C10.3473 8.47935 13.1554 7.77334 16.0033 7.80856C19.5437 7.80856 22.6224 8.67059 25.2392 10.3946C27.8359 12.1055 29.7461 14.6772 30.6339 17.6574H23.3794C22.7038 16.3857 21.6725 15.3383 20.4114 14.6432C19.0533 13.9309 17.5364 13.5755 16.0033 13.6104C14.2717 13.5791 12.5636 14.0141 11.0579 14.8699C9.6167 15.7206 8.4508 16.9681 7.69935 18.4635C6.86341 20.1382 6.44704 21.991 6.48608 23.8623C6.44704 25.7658 6.87972 27.6494 7.74553 29.3451C8.51918 30.8519 9.71361 32.1018 11.1838 32.9429C12.7511 33.8083 14.5198 34.2429 16.3098 34.2024C18.7055 34.2024 20.6758 33.5572 22.2208 32.267C23.8078 30.8883 24.8586 28.9947 25.1889 26.9186H14.387V22.1537H31.3811V27.6364C30.9552 29.8391 30.0319 31.9153 28.6817 33.707C27.2782 35.5982 25.4544 37.1374 23.3543 38.2032C21.0908 39.3451 18.5843 39.9213 16.0495 39.8825C13.184 39.924 10.3571 39.2194 7.84628 37.8379C5.44052 36.5033 3.45128 34.5286 2.09901 32.1327C0.677635 29.6111 -0.0468637 26.7565 -6.55926e-05 23.8623C-0.0450954 20.9603 0.679143 18.0981 2.09901 15.5668Z" fill="#041C4F"/>
<path d="M39.744 38.4047C37.8401 37.3567 36.2724 35.7904 35.2226 33.8875C34.1012 31.8186 33.537 29.4938 33.5853 27.1411C33.5349 24.7842 34.1146 22.4567 35.2646 20.3988C36.35 18.49 37.9502 16.9247 39.8825 15.8816C41.8959 14.8334 44.1324 14.2861 46.4023 14.2861C48.6722 14.2861 50.9086 14.8334 52.922 15.8816C54.8555 16.923 56.4561 18.4887 57.54 20.3988C58.6897 22.4568 59.2694 24.7843 59.2192 27.1411C59.2665 29.5058 58.667 31.8386 57.4854 33.8875C56.3748 35.7958 54.7576 37.3593 52.8128 38.4047C50.7866 39.4827 48.5209 40.0314 46.2259 40C43.964 40.0351 41.7313 39.4856 39.744 38.4047ZM49.4333 33.7531C50.463 33.1553 51.2972 32.2715 51.8347 31.2091C52.4679 29.9488 52.778 28.5509 52.7373 27.1411C52.7742 25.737 52.4642 24.3455 51.8347 23.0898C51.3246 22.0623 50.5355 21.1991 49.5577 20.5992C48.5798 19.9993 47.4528 19.6869 46.3057 19.6977C45.4606 19.6853 44.6226 19.853 43.8473 20.1896C43.0721 20.5261 42.3774 21.024 41.8095 21.6499C40.5808 22.9457 39.9665 24.7761 39.9665 27.1411C39.9665 29.506 40.5668 31.342 41.7675 32.649C42.3233 33.278 43.0091 33.7787 43.7774 34.1165C44.5458 34.4543 45.3784 34.6211 46.2175 34.6054C47.3455 34.6071 48.4542 34.3132 49.4333 33.7531Z" fill="#041C4F"/>
<path d="M71.5282 33.7951L77.8255 14.6893H84.5719L75.3947 39.597H67.6617L58.4888 14.6935H65.2352L71.5282 33.7951Z" fill="#041C4F"/>
<path d="M93.7113 37.8421C91.2832 36.4926 89.2643 34.5129 87.8675 32.1117C86.4084 29.5937 85.6625 26.7259 85.7096 23.8161C85.6671 20.9215 86.413 18.0698 87.8675 15.5668C89.2654 13.1653 91.2839 11.1844 93.7113 9.83207C96.1976 8.47658 98.9841 7.76633 101.816 7.76633C104.648 7.76633 107.434 8.47658 109.92 9.83207C112.335 11.185 114.339 13.1667 115.718 15.5668C117.159 18.0745 117.897 20.9242 117.855 23.8161C117.901 26.7231 117.163 29.5887 115.718 32.1117C114.335 34.5151 112.324 36.4963 109.899 37.8421C107.418 39.2003 104.634 39.9121 101.805 39.9121C98.9764 39.9121 96.1929 39.2003 93.7113 37.8421ZM106.797 32.8296C108.233 31.9705 109.397 30.7234 110.155 29.2317C110.996 27.5528 111.413 25.6934 111.369 23.8161C111.413 21.9375 110.997 20.0767 110.155 18.3963C109.399 16.9102 108.234 15.6708 106.797 14.8237C105.276 13.963 103.552 13.5279 101.805 13.5642C100.052 13.5295 98.3214 13.9644 96.7927 14.8237C95.3404 15.6629 94.1612 16.9034 93.3964 18.3963C92.5573 20.0774 92.1409 21.9377 92.1832 23.8161C92.1409 25.6932 92.5574 27.5522 93.3964 29.2317C94.1619 30.7306 95.3404 31.979 96.7927 32.8296C98.3186 33.6959 100.051 34.1312 101.805 34.089C103.553 34.1329 105.279 33.6973 106.797 32.8296Z" fill="#29C68C"/>
<path d="M125.655 38.7867C123.996 38.1139 122.557 36.9932 121.499 35.55C120.463 34.0928 119.912 32.3463 119.925 30.5584H126.667C126.696 31.7467 127.189 32.8765 128.04 33.707C128.879 34.4878 129.992 34.8741 131.432 34.8741C132.872 34.8741 134.056 34.5172 134.895 33.7951C135.309 33.4425 135.638 33.0004 135.856 32.5023C136.074 32.0041 136.176 31.4628 136.155 30.9194C136.19 30.0742 135.888 29.2498 135.315 28.6272C134.713 28.0055 133.984 27.5214 133.178 27.2082C132.024 26.7646 130.846 26.3821 129.652 26.0621C127.956 25.5884 126.297 24.995 124.685 24.2863C123.388 23.6878 122.26 22.7761 121.402 21.6331C120.487 20.4492 120.029 18.8693 120.029 16.8934C119.991 15.1704 120.477 13.4764 121.423 12.0361C122.394 10.6238 123.753 9.52291 125.336 8.8665C127.157 8.10458 129.118 7.73 131.092 7.76658C134.327 7.76658 136.956 8.55304 138.98 10.1259C141.003 11.6989 142.123 13.8945 142.338 16.7128H135.391C135.379 16.1732 135.25 15.6426 135.013 15.1577C134.776 14.6728 134.436 14.2451 134.018 13.9043C133.048 13.1615 131.846 12.7866 130.626 12.8463C129.56 12.7944 128.514 13.1384 127.687 13.8119C126.952 14.4584 126.587 15.4072 126.587 16.6667C126.575 17.0554 126.644 17.4424 126.788 17.8036C126.933 18.1647 127.15 18.4922 127.427 18.7657C128.02 19.3458 128.722 19.8037 129.492 20.1133C130.332 20.4576 131.478 20.8564 132.977 21.3056C134.675 21.7814 136.338 22.3776 137.951 23.0898C139.262 23.7094 140.404 24.6353 141.281 25.7893C142.208 26.9899 142.67 28.56 142.67 30.5122C142.679 32.1603 142.228 33.7784 141.369 35.1847C140.447 36.6707 139.122 37.8645 137.548 38.6272C135.682 39.5139 133.632 39.9456 131.566 39.8867C129.541 39.9263 127.53 39.552 125.655 38.7867Z" fill="#29C68C"/>
<path d="M174.328 0H142.242L147.494 9.1016L174.328 0Z" fill="#29C68C"/>
<path d="M158.283 27.7876L174.328 0H163.816L158.283 27.7876Z" fill="#66A8FD"/>
<path d="M174.328 0H163.816L163.056 3.82452L174.328 0Z" fill="#041C4F"/>
<path d="M142.242 0L158.283 27.7876L163.539 18.686L142.242 0Z" fill="#041C4F"/>
</g>
<defs>
<clipPath id="clip0_1275_59272">
<rect width="174.328" height="40" fill="white"/>
</clipPath>
</defs>
</svg>
