<svg width="175" height="40" viewBox="0 0 175 40" fill="none" xmlns="http://www.w3.org/2000/svg">
<g clip-path="url(#clip0_1275_59273)">
<path d="M2.56166 15.5668C3.91294 13.1661 5.90591 11.1892 8.31732 9.85726C10.8099 8.47935 13.618 7.77334 16.4659 7.80856C20.0064 7.80856 23.085 8.67059 25.7019 10.3946C28.2985 12.1055 30.2087 14.6772 31.0965 17.6574H23.8421C23.1665 16.3857 22.1351 15.3383 20.874 14.6432C19.5159 13.9309 17.9991 13.5755 16.4659 13.6104C14.7343 13.5791 13.0262 14.0141 11.5205 14.8699C10.0793 15.7206 8.91344 16.9681 8.16199 18.4635C7.32606 20.1382 6.90969 21.991 6.94873 23.8623C6.90969 25.7658 7.34237 27.6494 8.20817 29.3451C8.98183 30.8519 10.1763 32.1018 11.6465 32.9429C13.2138 33.8083 14.9825 34.2429 16.7724 34.2024C19.1681 34.2024 21.1385 33.5572 22.6834 32.267C24.2704 30.8883 25.3213 28.9947 25.6515 26.9186H14.8497V22.1537H31.8438V27.6364C31.4178 29.8391 30.4945 31.9153 29.1444 33.707C27.7408 35.5982 25.917 37.1374 23.8169 38.2032C21.5535 39.3451 19.047 39.9213 16.5121 39.8825C13.6467 39.924 10.8197 39.2194 8.30893 37.8379C5.90317 36.5033 3.91392 34.5286 2.56166 32.1327C1.14028 29.6111 0.415783 26.7565 0.462581 23.8623C0.417551 20.9603 1.14179 18.0981 2.56166 15.5668Z" fill="white"/>
<path d="M40.2066 38.4047C38.3028 37.3567 36.735 35.7904 35.6852 33.8875C34.5639 31.8186 33.9996 29.4938 34.0479 27.1411C33.9975 24.7842 34.5773 22.4567 35.7272 20.3988C36.8127 18.49 38.4129 16.9247 40.3452 15.8816C42.3586 14.8334 44.595 14.2861 46.8649 14.2861C49.1348 14.2861 51.3713 14.8334 53.3846 15.8816C55.3182 16.923 56.9188 18.4887 58.0026 20.3988C59.1524 22.4568 59.7321 24.7843 59.6819 27.1411C59.7292 29.5058 59.1296 31.8386 57.948 33.8875C56.8375 35.7958 55.2202 37.3593 53.2755 38.4047C51.2492 39.4827 48.9835 40.0314 46.6886 40C44.4266 40.0351 42.1939 39.4856 40.2066 38.4047ZM49.896 33.7531C50.9257 33.1553 51.7598 32.2715 52.2973 31.2091C52.9305 29.9488 53.2407 28.5509 53.1999 27.1411C53.2368 25.737 52.9268 24.3455 52.2973 23.0898C51.7873 22.0623 50.9981 21.1991 50.0203 20.5992C49.0425 19.9993 47.9155 19.6869 46.7684 19.6977C45.9233 19.6853 45.0852 19.853 44.31 20.1896C43.5347 20.5261 42.8401 21.024 42.2721 21.6499C41.0435 22.9457 40.4291 24.7761 40.4291 27.1411C40.4291 29.506 41.0295 31.342 42.2301 32.649C42.7857 33.2782 43.4715 33.7791 44.2399 34.1169C45.0083 34.4547 45.841 34.6214 46.6802 34.6054C47.8082 34.6071 48.9169 34.3132 49.896 33.7531Z" fill="white"/>
<path d="M71.9909 33.7951L78.2881 14.6893H85.0345L75.8574 39.597H68.1244L58.9514 14.6935H65.6978L71.9909 33.7951Z" fill="white"/>
<path d="M94.1737 37.8421C91.7456 36.4926 89.7267 34.5129 88.3299 32.1117C86.8708 29.5937 86.1249 26.7259 86.172 23.8161C86.1295 20.9215 86.8754 18.0698 88.3299 15.5668C89.7278 13.1653 91.7463 11.1844 94.1737 9.83207C96.66 8.47658 99.4465 7.76633 102.278 7.76633C105.11 7.76633 107.897 8.47658 110.383 9.83207C112.798 11.185 114.801 13.1667 116.18 15.5668C117.621 18.0745 118.359 20.9242 118.317 23.8161C118.363 26.7231 117.625 29.5887 116.18 32.1117C114.798 34.5151 112.786 36.4963 110.362 37.8421C107.88 39.2003 105.097 39.9121 102.268 39.9121C99.4388 39.9121 96.6553 39.2003 94.1737 37.8421ZM107.259 32.8296C108.695 31.9705 109.86 30.7234 110.618 29.2317C111.459 27.5528 111.875 25.6934 111.831 23.8161C111.875 21.9375 111.459 20.0767 110.618 18.3963C109.861 16.9102 108.696 15.6708 107.259 14.8237C105.739 13.963 104.015 13.5279 102.268 13.5642C100.514 13.5295 98.7838 13.9644 97.2551 14.8237C95.8019 15.6618 94.6224 16.9026 93.8588 18.3963C93.0197 20.0774 92.6033 21.9377 92.6456 23.8161C92.6033 25.6932 93.0198 27.5522 93.8588 29.2317C94.6243 30.7306 95.8028 31.979 97.2551 32.8296C98.781 33.6959 100.514 34.1312 102.268 34.089C104.015 34.1329 105.742 33.6973 107.259 32.8296Z" fill="#29C68C"/>
<path d="M126.118 38.7867C124.459 38.1139 123.02 36.9932 121.961 35.55C120.925 34.0928 120.375 32.3463 120.387 30.5584H127.129C127.159 31.7467 127.652 32.8765 128.502 33.707C129.342 34.4878 130.454 34.8741 131.894 34.8741C133.334 34.8741 134.518 34.5172 135.358 33.7951C135.772 33.4425 136.1 33.0004 136.319 32.5023C136.537 32.0041 136.639 31.4628 136.617 30.9194C136.652 30.0742 136.35 29.2498 135.778 28.6272C135.176 28.0055 134.447 27.5214 133.641 27.2082C132.486 26.7646 131.309 26.3821 130.114 26.0621C128.419 25.5884 126.759 24.995 125.148 24.2863C123.85 23.6878 122.722 22.7761 121.865 21.6331C120.95 20.4492 120.492 18.8693 120.492 16.8934C120.453 15.1704 120.939 13.4764 121.886 12.0361C122.857 10.6238 124.216 9.52291 125.799 8.8665C127.62 8.10458 129.58 7.73 131.554 7.76658C134.79 7.76658 137.419 8.55304 139.443 10.1259C141.466 11.6989 142.586 13.8945 142.801 16.7128H135.853C135.841 16.1732 135.712 15.6426 135.475 15.1577C135.238 14.6728 134.899 14.2451 134.48 13.9043C133.51 13.1615 132.309 12.7866 131.088 12.8463C130.023 12.7944 128.976 13.1384 128.15 13.8119C127.415 14.4584 127.05 15.4072 127.05 16.6667C127.038 17.0554 127.107 17.4424 127.251 17.8036C127.396 18.1647 127.613 18.4922 127.889 18.7657C128.483 19.3458 129.185 19.8037 129.955 20.1133C130.794 20.4576 131.94 20.8564 133.439 21.3056C135.138 21.7814 136.8 22.3776 138.414 23.0898C139.724 23.7085 140.864 24.6346 141.739 25.7893C142.671 26.9899 143.133 28.56 143.133 30.5122C143.141 32.1603 142.691 33.7784 141.831 35.1847C140.909 36.6707 139.585 37.8645 138.011 38.6272C136.144 39.5139 134.094 39.9456 132.029 39.8867C130.004 39.9263 127.993 39.552 126.118 38.7867Z" fill="#29C68C"/>
<path d="M174.791 0H142.705L147.956 9.1016L174.791 0Z" fill="#29C68C"/>
<path d="M158.746 27.7876L174.791 0H164.279L158.746 27.7876Z" fill="#66A8FD"/>
<path d="M174.791 0H164.279L163.519 3.82452L174.791 0Z" fill="white"/>
<path d="M142.705 0L158.746 27.7876L164.002 18.686L142.705 0Z" fill="white"/>
</g>
<defs>
<clipPath id="clip0_1275_59273">
<rect width="174.328" height="40" fill="white" transform="translate(0.462646)"/>
</clipPath>
</defs>
</svg>
