<svg width="138" height="20" viewBox="0 0 138 20" fill="none" xmlns="http://www.w3.org/2000/svg">
<path d="M24.7344 3.33009V11.8118C24.7343 11.9009 24.7577 11.9884 24.8021 12.0656C24.8464 12.1427 24.9103 12.2069 24.9872 12.2515C25.0641 12.2961 25.1514 12.3196 25.2402 12.3198C25.3291 12.3199 25.4164 12.2965 25.4935 12.2521L32.8193 8.00852C32.8963 7.96413 32.9602 7.90018 33.0047 7.82312C33.0492 7.74605 33.0726 7.6586 33.0726 7.56957C33.0726 7.48054 33.0492 7.39309 33.0047 7.31603C32.9602 7.23896 32.8963 7.17501 32.8193 7.13063L25.4935 2.88977C25.4164 2.84535 25.3291 2.82203 25.2402 2.82214C25.1514 2.82226 25.0641 2.8458 24.9872 2.89042C24.9103 2.93503 24.8464 2.99915 24.8021 3.07632C24.7577 3.1535 24.7343 3.24102 24.7344 3.33009V3.33009Z" fill="white"/>
<path d="M8.33666 16.1063V7.62734C8.33687 7.53821 8.31362 7.45061 8.26924 7.37338C8.22487 7.29615 8.16094 7.23203 8.08393 7.1875C8.00692 7.14296 7.91954 7.1196 7.83064 7.11975C7.74173 7.11991 7.65444 7.14359 7.57758 7.18839L0.251744 11.4279C0.175132 11.4727 0.111578 11.5369 0.0674094 11.614C0.0232412 11.6912 0 11.7786 0 11.8675C0 11.9564 0.0232412 12.0438 0.0674094 12.121C0.111578 12.1981 0.175132 12.2623 0.251744 12.3071L7.57758 16.5466C7.65461 16.591 7.74194 16.6144 7.8308 16.6142C7.91966 16.6141 8.00692 16.5906 8.08384 16.546C8.16075 16.5014 8.2246 16.4372 8.26898 16.3601C8.31335 16.2829 8.3367 16.1954 8.33666 16.1063V16.1063Z" fill="white"/>
<path d="M12.3708 10.4717V18.9506C12.3708 19.0397 12.3942 19.1272 12.4385 19.2044C12.4829 19.2816 12.5468 19.3457 12.6237 19.3903C12.7006 19.4349 12.7879 19.4585 12.8767 19.4586C12.9656 19.4587 13.0529 19.4354 13.1299 19.3909L20.4517 15.1515C20.5286 15.1069 20.5925 15.0428 20.6369 14.9656C20.6814 14.8885 20.7048 14.8009 20.7048 14.7118C20.7048 14.6227 20.6814 14.5352 20.6369 14.458C20.5925 14.3809 20.5286 14.3168 20.4517 14.2722L13.1299 10.0327C13.053 9.98836 12.9658 9.96504 12.8771 9.96509C12.7883 9.96514 12.7011 9.98857 12.6243 10.033C12.5474 10.0775 12.4835 10.1414 12.439 10.2184C12.3946 10.2954 12.3711 10.3827 12.3708 10.4717V10.4717Z" fill="white"/>
<path d="M20.7345 8.9869V0.507951C20.7345 0.418873 20.7112 0.331353 20.6668 0.254178C20.6224 0.177003 20.5586 0.11289 20.4817 0.0682749C20.4048 0.0236601 20.3175 0.000113851 20.2286 4.11836e-07C20.1398 -0.000113027 20.0524 0.0232103 19.9754 0.0676286L12.6509 4.3071C12.574 4.35168 12.5101 4.41577 12.4656 4.49294C12.4212 4.57011 12.3978 4.65764 12.3978 4.74674C12.3978 4.83584 12.4212 4.92337 12.4656 5.00054C12.5101 5.07771 12.574 5.1418 12.6509 5.18637L19.9754 9.42585C20.0523 9.47065 20.1396 9.49433 20.2285 9.49449C20.3174 9.49464 20.4047 9.47127 20.4818 9.42674C20.5588 9.38221 20.6227 9.31809 20.6671 9.24086C20.7114 9.16363 20.7347 9.07603 20.7345 8.9869Z" fill="white"/>
<path fill-rule="evenodd" clip-rule="evenodd" d="M63.1792 2.08164C63.1701 1.80594 63.2175 1.53129 63.3185 1.27471C63.4196 1.01813 63.5721 0.785084 63.7667 0.590026C63.9613 0.394967 64.1938 0.242048 64.4497 0.140748C64.7057 0.0394467 64.9797 -0.00807762 65.2547 0.00112018C66.4572 0.00112018 67.3315 0.877636 67.3315 2.08164C67.3315 3.28565 66.4572 4.16216 65.2547 4.16216C64.0523 4.16216 63.1792 3.28702 63.1792 2.08164ZM87.0524 19.6299H89.2953C89.4468 19.6299 89.592 19.5696 89.6991 19.4622C89.8062 19.3549 89.8664 19.2093 89.8664 19.0575V0.744175C89.8664 0.59236 89.8062 0.446763 89.6991 0.339414C89.592 0.232064 89.4468 0.171756 89.2953 0.171756H87.0524C86.901 0.171756 86.7557 0.232064 86.6486 0.339414C86.5415 0.446763 86.4814 0.59236 86.4814 0.744175V19.0575C86.4814 19.2093 86.5415 19.3549 86.6486 19.4622C86.7557 19.5696 86.901 19.6299 87.0524 19.6299ZM98.1929 3.8347C100.725 3.8347 102.614 4.66031 103.932 6.21657C104.03 6.3334 104.078 6.48451 104.065 6.63673C104.052 6.78894 103.98 6.92982 103.863 7.02842L102.294 8.34663C102.185 8.43836 102.045 8.4857 101.903 8.47933C101.76 8.47297 101.625 8.41335 101.524 8.31223C100.646 7.43296 99.4653 6.88944 97.9472 6.88944C96.4084 6.88944 95.4544 7.43984 95.4544 8.43194C95.4544 9.48046 96.4702 9.72676 99.0851 10.3446C102.163 11.0849 104.318 11.9793 104.318 15.0959C104.318 18.2731 102.04 20 98.0693 20C95.3968 20 92.7791 18.9556 91.4477 17.248C91.3585 17.1329 91.3163 16.988 91.3299 16.8428C91.3434 16.6976 91.4115 16.5631 91.5204 16.4664L93.0674 15.0904C93.1818 14.9903 93.3311 14.9397 93.4827 14.9498C93.6343 14.9598 93.7756 15.0297 93.8759 15.1441C94.8367 16.2243 96.2794 16.9769 98.3164 16.9769C99.9471 16.9769 100.924 16.4265 100.924 15.2803C100.924 14.1341 99.9773 13.8988 97.5162 13.3374C94.8697 12.7512 92.0681 11.8238 92.0681 8.55441C92.0681 5.62489 94.4071 3.8347 98.1929 3.8347ZM121.049 11.9793C121.049 7.22794 118.341 3.8347 113.571 3.8347C108.838 3.8347 105.845 7.44397 105.852 11.9793C105.852 16.7306 108.961 20 113.885 20C116.542 20 118.496 19.107 119.996 17.7379C120.104 17.6385 120.169 17.5013 120.178 17.355C120.187 17.2086 120.14 17.0643 120.046 16.9522L118.772 15.4248C118.723 15.3668 118.664 15.3189 118.597 15.284C118.53 15.2491 118.457 15.2278 118.382 15.2214C118.307 15.215 118.231 15.2236 118.159 15.2467C118.087 15.2698 118.021 15.307 117.963 15.356C116.826 16.3518 115.365 16.8956 113.855 16.8848C111.735 16.8848 109.73 15.6725 109.289 13.2741C109.282 13.2333 109.283 13.1913 109.293 13.1511C109.304 13.1109 109.322 13.0734 109.349 13.0412C109.375 13.009 109.407 12.9829 109.445 12.9646C109.482 12.9464 109.523 12.9365 109.564 12.9356H120.478C120.553 12.9356 120.627 12.9208 120.696 12.892C120.766 12.8633 120.829 12.8211 120.882 12.768C120.935 12.7148 120.977 12.6517 121.005 12.5822C121.034 12.5128 121.049 12.4384 121.049 12.3632V11.9793ZM109.331 10.0529C109.812 8.01226 111.203 6.79725 113.505 6.79725C115.782 6.79725 117.063 8.11959 117.366 10.0735C117.373 10.1146 117.37 10.1565 117.359 10.1966C117.348 10.2366 117.328 10.2737 117.301 10.3053C117.274 10.337 117.241 10.3624 117.203 10.3799C117.166 10.3974 117.125 10.4064 117.083 10.4065H109.605C109.562 10.4058 109.52 10.3955 109.482 10.3763C109.443 10.3571 109.41 10.3295 109.383 10.2956C109.357 10.2617 109.339 10.2222 109.329 10.1802C109.32 10.1382 109.321 10.0947 109.331 10.0529ZM125.894 4.20485H123.807C123.655 4.20485 123.509 4.2653 123.402 4.37291C123.294 4.48052 123.234 4.62647 123.234 4.77865V19.0561C123.235 19.208 123.295 19.3536 123.402 19.4609C123.51 19.5683 123.655 19.6285 123.807 19.6285H125.988C126.139 19.6285 126.284 19.5682 126.391 19.4609C126.499 19.3535 126.559 19.2079 126.559 19.0561V12.3481C126.559 8.83236 127.882 6.98163 130.375 6.98163C132.56 6.98163 133.729 8.30811 133.729 10.745V19.063C133.729 19.2148 133.79 19.3604 133.897 19.4677C134.004 19.5751 134.149 19.6354 134.3 19.6354H136.543C136.695 19.6354 136.84 19.5751 136.947 19.4677C137.054 19.3604 137.114 19.2148 137.114 19.063V10.1643C137.114 6.14915 135.083 3.8347 131.544 3.8347C129.706 3.8347 128.122 4.50482 126.97 5.86569C126.933 5.91045 126.882 5.94255 126.826 5.95767C126.77 5.97279 126.71 5.9702 126.655 5.95026C126.6 5.93031 126.553 5.89396 126.519 5.84612C126.485 5.79827 126.467 5.74123 126.467 5.68268V4.77865C126.467 4.62647 126.406 4.48052 126.299 4.37291C126.192 4.2653 126.046 4.20485 125.894 4.20485ZM76.8125 3.8347C81.5825 3.8347 84.2907 7.22794 84.2907 11.9793V12.3632C84.2907 12.4385 84.2759 12.513 84.2471 12.5826C84.2183 12.6521 84.1762 12.7153 84.123 12.7684C84.0698 12.8216 84.0067 12.8637 83.9373 12.8924C83.8678 12.9211 83.7934 12.9358 83.7183 12.9356H72.8057C72.7637 12.9356 72.7222 12.9447 72.6841 12.9625C72.6461 12.9803 72.6123 13.0063 72.5854 13.0386C72.5584 13.0708 72.5388 13.1087 72.528 13.1494C72.5173 13.1901 72.5155 13.2327 72.523 13.2741C72.9636 15.6725 74.9704 16.8848 77.0884 16.8848C78.5987 16.896 80.0607 16.3521 81.1981 15.356C81.2556 15.307 81.3221 15.2698 81.394 15.2467C81.4658 15.2236 81.5415 15.215 81.6167 15.2214C81.6919 15.2278 81.765 15.2491 81.832 15.284C81.8989 15.3189 81.9583 15.3668 82.0066 15.4248L83.2791 16.9522C83.3735 17.0642 83.4212 17.2083 83.4122 17.3547C83.4033 17.501 83.3384 17.6383 83.231 17.7379C81.7307 19.107 79.7761 20 77.12 20C72.1949 20 69.0872 16.7306 69.0872 11.9793C69.0886 7.44397 72.0741 3.8347 76.8125 3.8347ZM76.7521 6.79725C74.4502 6.79725 73.0583 8.01226 72.5779 10.0529C72.568 10.0947 72.5677 10.1382 72.5768 10.1802C72.5859 10.2222 72.6043 10.2617 72.6307 10.2956C72.657 10.3295 72.6906 10.3571 72.729 10.3763C72.7673 10.3955 72.8095 10.4058 72.8524 10.4065H80.3292C80.3707 10.4064 80.4117 10.3974 80.4493 10.3799C80.4869 10.3624 80.5203 10.337 80.5472 10.3053C80.5741 10.2737 80.5938 10.2366 80.605 10.1966C80.6162 10.1565 80.6186 10.1146 80.612 10.0735C80.3045 8.11959 79.0252 6.79725 76.7521 6.79725ZM64.1649 19.6299H66.346C66.497 19.6299 66.6418 19.57 66.7488 19.4632C66.8558 19.3565 66.9163 19.2116 66.917 19.0603V6.05561C66.917 5.90379 66.8569 5.75819 66.7498 5.65085C66.6427 5.5435 66.4974 5.48319 66.346 5.48319H64.1649C64.0899 5.48319 64.0156 5.49799 63.9463 5.52676C63.8771 5.55553 63.8141 5.59769 63.7611 5.65085C63.7081 5.704 63.666 5.7671 63.6373 5.83655C63.6086 5.906 63.5938 5.98044 63.5938 6.05561V19.0575C63.5938 19.1327 63.6086 19.2071 63.6373 19.2766C63.666 19.346 63.7081 19.4091 63.7611 19.4623C63.8141 19.5154 63.8771 19.5576 63.9463 19.5863C64.0156 19.6151 64.0899 19.6299 64.1649 19.6299ZM44.168 0.171756H41.8263C41.6747 0.171756 41.5293 0.23202 41.422 0.33933C41.3147 0.44664 41.2543 0.592234 41.2539 0.744175V19.0575C41.2543 19.2094 41.3147 19.355 41.422 19.4623C41.5293 19.5696 41.6747 19.6299 41.8263 19.6299H44.1914C44.2664 19.6299 44.3406 19.6151 44.4099 19.5863C44.4792 19.5575 44.5421 19.5154 44.5952 19.4622C44.6482 19.4091 44.6902 19.346 44.7189 19.2765C44.7476 19.2071 44.7624 19.1326 44.7624 19.0575V6.24408C44.7622 6.1857 44.7799 6.12867 44.813 6.08063C44.8461 6.0326 44.8931 5.99586 44.9476 5.97535C45.0021 5.95483 45.0616 5.95152 45.118 5.96586C45.1745 5.9802 45.2252 6.0115 45.2634 6.05556L56.7484 19.2377C56.8555 19.361 56.9878 19.4597 57.1363 19.5274C57.2847 19.595 57.446 19.63 57.609 19.6299H60.0043C60.1558 19.6299 60.301 19.5696 60.4081 19.4622C60.5152 19.3549 60.5753 19.2093 60.5753 19.0575V0.744175C60.5753 0.59236 60.5152 0.446763 60.4081 0.339414C60.301 0.232064 60.1558 0.171756 60.0043 0.171756H57.6379C57.4869 0.172484 57.3424 0.233113 57.2359 0.340384C57.1294 0.447654 57.0696 0.592836 57.0696 0.744175V13.5823C57.07 13.6408 57.0526 13.6981 57.0196 13.7463C56.9866 13.7946 56.9396 13.8315 56.8851 13.8522C56.8305 13.8729 56.7709 13.8763 56.7143 13.862C56.6577 13.8477 56.6069 13.8164 56.5686 13.7722L45.0273 0.562542C44.9201 0.439864 44.788 0.341544 44.6398 0.274153C44.4916 0.206762 44.3308 0.171852 44.168 0.171756Z" fill="white"/>
</svg>
