<svg width="138" height="20" viewBox="0 0 138 20" fill="none" xmlns="http://www.w3.org/2000/svg">
<path d="M24.7343 3.33009V11.8118C24.7342 11.9009 24.7576 11.9884 24.8019 12.0656C24.8463 12.1427 24.9102 12.2068 24.9871 12.2515C25.064 12.2961 25.1513 12.3196 25.2401 12.3197C25.329 12.3199 25.4163 12.2965 25.4933 12.2521L32.8192 8.00851C32.8962 7.96412 32.9601 7.90018 33.0046 7.82311C33.049 7.74605 33.0725 7.65859 33.0725 7.56957C33.0725 7.48054 33.049 7.39308 33.0046 7.31602C32.9601 7.23896 32.8962 7.17501 32.8192 7.13062L25.4933 2.88977C25.4163 2.84535 25.329 2.82203 25.2401 2.82214C25.1513 2.82226 25.064 2.8458 24.9871 2.89042C24.9102 2.93503 24.8463 2.99915 24.8019 3.07632C24.7576 3.1535 24.7342 3.24102 24.7343 3.33009V3.33009Z" fill="#6E37FA"/>
<path d="M8.33665 16.1063V7.62734C8.33686 7.53821 8.3136 7.45061 8.26923 7.37338C8.22485 7.29615 8.16093 7.23203 8.08392 7.1875C8.0069 7.14296 7.91953 7.1196 7.83062 7.11975C7.74172 7.11991 7.65443 7.14359 7.57757 7.18839L0.251743 11.4279C0.175131 11.4727 0.111577 11.5369 0.0674093 11.614C0.0232412 11.6912 0 11.7786 0 11.8675C0 11.9564 0.0232412 12.0438 0.0674093 12.121C0.111577 12.1981 0.175131 12.2623 0.251743 12.3071L7.57757 16.5466C7.6546 16.591 7.74192 16.6143 7.83078 16.6142C7.91964 16.6141 8.00691 16.5906 8.08382 16.546C8.16074 16.5013 8.22459 16.4372 8.26896 16.3601C8.31334 16.2829 8.33668 16.1954 8.33665 16.1063V16.1063Z" fill="#F40953"/>
<path d="M12.3708 10.4717V18.9506C12.3708 19.0397 12.3942 19.1272 12.4385 19.2044C12.4829 19.2816 12.5468 19.3457 12.6237 19.3903C12.7006 19.4349 12.7879 19.4584 12.8767 19.4586C12.9656 19.4587 13.0529 19.4353 13.1299 19.3909L20.4516 15.1515C20.5286 15.1069 20.5925 15.0428 20.6369 14.9656C20.6814 14.8885 20.7047 14.8009 20.7047 14.7118C20.7047 14.6227 20.6814 14.5352 20.6369 14.458C20.5925 14.3809 20.5286 14.3168 20.4516 14.2722L13.1299 10.0327C13.053 9.98836 12.9658 9.96504 12.8771 9.96509C12.7883 9.96514 12.7011 9.98857 12.6243 10.033C12.5474 10.0775 12.4835 10.1414 12.439 10.2184C12.3946 10.2954 12.3711 10.3827 12.3708 10.4717V10.4717Z" fill="#FF9408"/>
<path d="M20.7345 8.98689V0.50795C20.7345 0.418872 20.7112 0.331352 20.6668 0.254177C20.6224 0.177003 20.5586 0.11289 20.4817 0.0682748C20.4047 0.02366 20.3175 0.000113851 20.2286 4.11836e-07C20.1398 -0.000113027 20.0524 0.0232102 19.9754 0.0676285L12.6509 4.3071C12.574 4.35167 12.5101 4.41576 12.4656 4.49293C12.4212 4.5701 12.3978 4.65763 12.3978 4.74673C12.3978 4.83583 12.4212 4.92336 12.4656 5.00053C12.5101 5.0777 12.574 5.14179 12.6509 5.18636L19.9754 9.42583C20.0523 9.47064 20.1395 9.49431 20.2285 9.49447C20.3174 9.49463 20.4047 9.47126 20.4817 9.42673C20.5588 9.38219 20.6227 9.31807 20.6671 9.24084C20.7114 9.16361 20.7347 9.07601 20.7345 8.98689Z" fill="#32BBB9"/>
<path fill-rule="evenodd" clip-rule="evenodd" d="M63.1791 2.08164C63.17 1.80594 63.2174 1.53129 63.3184 1.27471C63.4195 1.01812 63.572 0.785083 63.7666 0.590025C63.9612 0.394967 64.1937 0.242048 64.4496 0.140747C64.7056 0.0394466 64.9796 -0.00807761 65.2546 0.00112018C66.4571 0.00112018 67.3314 0.877635 67.3314 2.08164C67.3314 3.28564 66.4571 4.16216 65.2546 4.16216C64.0521 4.16216 63.1791 3.28702 63.1791 2.08164ZM87.0523 19.6298H89.2953C89.4467 19.6298 89.592 19.5695 89.6991 19.4622C89.8062 19.3548 89.8663 19.2092 89.8663 19.0574V0.744166C89.8663 0.592351 89.8062 0.446754 89.6991 0.339405C89.592 0.232056 89.4467 0.171747 89.2953 0.171747H87.0523C86.9009 0.171747 86.7557 0.232056 86.6486 0.339405C86.5415 0.446754 86.4813 0.592351 86.4813 0.744166V19.0574C86.4813 19.2092 86.5415 19.3548 86.6486 19.4622C86.7557 19.5695 86.9009 19.6298 87.0523 19.6298ZM98.1928 3.8347C100.725 3.8347 102.614 4.6603 103.932 6.21656C104.03 6.33339 104.078 6.4845 104.065 6.63672C104.052 6.78894 103.98 6.92981 103.863 7.02841L102.294 8.34662C102.185 8.43835 102.045 8.48569 101.903 8.47932C101.76 8.47295 101.625 8.41334 101.524 8.31222C100.646 7.43295 99.4652 6.88943 97.9471 6.88943C96.4083 6.88943 95.4543 7.43983 95.4543 8.43193C95.4543 9.48045 96.4701 9.72675 99.085 10.3446C102.162 11.0849 104.318 11.9793 104.318 15.0959C104.318 18.2731 102.04 20 98.0692 20C95.3967 20 92.779 18.9556 91.4476 17.248C91.3584 17.1328 91.3162 16.988 91.3298 16.8428C91.3433 16.6976 91.4114 16.5631 91.5203 16.4664L93.0673 15.0904C93.1817 14.9903 93.331 14.9397 93.4826 14.9497C93.6342 14.9598 93.7755 15.0297 93.8758 15.1441C94.8366 16.2242 96.2793 16.9769 98.3163 16.9769C99.947 16.9769 100.924 16.4265 100.924 15.2803C100.924 14.1341 99.9772 13.8988 97.5161 13.3374C94.8696 12.7512 92.068 11.8238 92.068 8.5544C92.068 5.62488 94.407 3.8347 98.1928 3.8347ZM121.049 11.9793C121.049 7.22793 118.341 3.8347 113.571 3.8347C108.838 3.8347 105.845 7.44396 105.852 11.9793C105.852 16.7306 108.961 20 113.885 20C116.542 20 118.496 19.107 119.996 17.7379C120.103 17.6384 120.169 17.5013 120.178 17.3549C120.187 17.2086 120.14 17.0643 120.045 16.9522L118.772 15.4248C118.723 15.3667 118.664 15.3189 118.597 15.284C118.53 15.2491 118.457 15.2278 118.382 15.2214C118.306 15.215 118.231 15.2236 118.159 15.2467C118.087 15.2698 118.02 15.3069 117.963 15.356C116.826 16.3518 115.365 16.8956 113.855 16.8847C111.735 16.8847 109.73 15.6725 109.289 13.2741C109.282 13.2333 109.283 13.1913 109.293 13.1511C109.303 13.1109 109.322 13.0734 109.348 13.0412C109.375 13.009 109.407 12.9829 109.445 12.9646C109.482 12.9464 109.522 12.9365 109.564 12.9356H120.478C120.553 12.9356 120.627 12.9208 120.696 12.892C120.766 12.8633 120.828 12.8211 120.882 12.7679C120.935 12.7148 120.977 12.6517 121.005 12.5822C121.034 12.5128 121.049 12.4383 121.049 12.3632V11.9793ZM109.33 10.0529C109.812 8.01225 111.203 6.79724 113.505 6.79724C115.782 6.79724 117.063 8.11958 117.366 10.0735C117.372 10.1145 117.37 10.1565 117.359 10.1965C117.348 10.2366 117.328 10.2737 117.301 10.3053C117.274 10.337 117.241 10.3624 117.203 10.3799C117.166 10.3973 117.125 10.4064 117.083 10.4065H109.605C109.562 10.4058 109.52 10.3955 109.482 10.3763C109.443 10.3571 109.41 10.3295 109.383 10.2956C109.357 10.2616 109.338 10.2222 109.329 10.1802C109.32 10.1382 109.321 10.0947 109.33 10.0529ZM125.894 4.20485H123.806C123.655 4.20485 123.509 4.2653 123.402 4.37291C123.294 4.48051 123.234 4.62646 123.234 4.77864V19.0561C123.234 19.208 123.295 19.3536 123.402 19.4609C123.509 19.5682 123.655 19.6285 123.806 19.6285H125.988C126.139 19.6285 126.284 19.5682 126.391 19.4608C126.498 19.3535 126.559 19.2079 126.559 19.0561V12.348C126.559 8.83235 127.882 6.98162 130.374 6.98162C132.56 6.98162 133.729 8.30809 133.729 10.745V19.063C133.729 19.2148 133.789 19.3604 133.896 19.4677C134.004 19.5751 134.149 19.6354 134.3 19.6354H136.543C136.695 19.6354 136.84 19.5751 136.947 19.4677C137.054 19.3604 137.114 19.2148 137.114 19.063V10.1643C137.114 6.14914 135.083 3.8347 131.544 3.8347C129.706 3.8347 128.122 4.50481 126.97 5.86568C126.933 5.91044 126.882 5.94254 126.826 5.95766C126.769 5.97278 126.71 5.9702 126.655 5.95025C126.6 5.9303 126.552 5.89395 126.519 5.84611C126.485 5.79826 126.467 5.74122 126.467 5.68268V4.77864C126.467 4.62646 126.406 4.48051 126.299 4.37291C126.192 4.2653 126.046 4.20485 125.894 4.20485ZM76.8124 3.8347C81.5824 3.8347 84.2906 7.22793 84.2906 11.9793V12.3632C84.2906 12.4385 84.2758 12.513 84.247 12.5826C84.2183 12.6521 84.1761 12.7153 84.1229 12.7684C84.0698 12.8216 84.0066 12.8637 83.9372 12.8924C83.8678 12.9211 83.7934 12.9358 83.7183 12.9356H72.8057C72.7637 12.9355 72.7222 12.9447 72.6841 12.9625C72.646 12.9803 72.6123 13.0063 72.5853 13.0385C72.5583 13.0708 72.5388 13.1087 72.528 13.1494C72.5172 13.1901 72.5155 13.2326 72.5229 13.2741C72.9635 15.6725 74.9704 16.8847 77.0884 16.8847C78.5986 16.8959 80.0607 16.3521 81.1981 15.356C81.2555 15.3069 81.3221 15.2698 81.3939 15.2467C81.4657 15.2236 81.5414 15.215 81.6166 15.2214C81.6918 15.2278 81.765 15.2491 81.8319 15.284C81.8988 15.3189 81.9582 15.3667 82.0066 15.4248L83.279 16.9522C83.3734 17.0641 83.4211 17.2083 83.4121 17.3547C83.4032 17.501 83.3383 17.6383 83.231 17.7379C81.7307 19.107 79.776 20 77.1199 20C72.1948 20 69.0872 16.7306 69.0872 11.9793C69.0885 7.44396 72.0741 3.8347 76.8124 3.8347ZM76.7521 6.79724C74.4501 6.79724 73.0583 8.01225 72.5778 10.0529C72.568 10.0947 72.5676 10.1382 72.5767 10.1802C72.5859 10.2222 72.6043 10.2616 72.6306 10.2956C72.657 10.3295 72.6905 10.3571 72.7289 10.3763C72.7673 10.3955 72.8095 10.4058 72.8524 10.4065H80.3292C80.3706 10.4064 80.4116 10.3973 80.4492 10.3799C80.4868 10.3624 80.5202 10.337 80.5471 10.3053C80.574 10.2737 80.5937 10.2366 80.6049 10.1965C80.6161 10.1565 80.6185 10.1145 80.6119 10.0735C80.3045 8.11958 79.0252 6.79724 76.7521 6.79724ZM64.1648 19.6299H66.346C66.4969 19.6299 66.6418 19.57 66.7488 19.4632C66.8558 19.3565 66.9163 19.2116 66.917 19.0602V6.0556C66.917 5.90378 66.8568 5.75818 66.7497 5.65084C66.6426 5.54349 66.4974 5.48318 66.346 5.48318H64.1648C64.0898 5.48318 64.0156 5.49798 63.9463 5.52675C63.877 5.55552 63.8141 5.59768 63.761 5.65084C63.708 5.70399 63.666 5.76709 63.6373 5.83654C63.6086 5.90599 63.5938 5.98042 63.5938 6.0556V19.0575C63.5938 19.1326 63.6086 19.2071 63.6373 19.2765C63.666 19.346 63.708 19.4091 63.761 19.4622C63.8141 19.5154 63.877 19.5576 63.9463 19.5863C64.0156 19.6151 64.0898 19.6299 64.1648 19.6299ZM44.168 0.171747H41.8263C41.6747 0.171747 41.5293 0.232011 41.422 0.339321C41.3147 0.446631 41.2543 0.592224 41.2539 0.744166V19.0574C41.2543 19.2094 41.3147 19.355 41.422 19.4623C41.5293 19.5696 41.6747 19.6298 41.8263 19.6298H44.1914C44.2664 19.6298 44.3406 19.615 44.4099 19.5863C44.4792 19.5575 44.5421 19.5153 44.5951 19.4622C44.6482 19.409 44.6902 19.3459 44.7189 19.2765C44.7476 19.207 44.7624 19.1326 44.7624 19.0574V6.24406C44.7622 6.18568 44.7799 6.12865 44.813 6.08061C44.8461 6.03258 44.8931 5.99584 44.9476 5.97533C45.0021 5.95481 45.0616 5.9515 45.118 5.96584C45.1745 5.98018 45.2252 6.01148 45.2634 6.05555L56.7484 19.2377C56.8555 19.3609 56.9878 19.4597 57.1363 19.5273C57.2847 19.595 57.4459 19.6299 57.609 19.6298H60.0043C60.1557 19.6298 60.301 19.5695 60.4081 19.4622C60.5151 19.3548 60.5753 19.2092 60.5753 19.0574V0.744166C60.5753 0.592351 60.5151 0.446754 60.4081 0.339405C60.301 0.232056 60.1557 0.171747 60.0043 0.171747H57.6378C57.4869 0.172475 57.3423 0.233104 57.2358 0.340375C57.1293 0.447645 57.0696 0.592826 57.0696 0.744166V13.5823C57.07 13.6408 57.0526 13.698 57.0196 13.7463C56.9866 13.7945 56.9396 13.8315 56.885 13.8522C56.8305 13.8729 56.7709 13.8763 56.7143 13.862C56.6577 13.8477 56.6068 13.8163 56.5685 13.7722L45.0273 0.562533C44.9201 0.439855 44.7879 0.341535 44.6398 0.274144C44.4916 0.206753 44.3308 0.171843 44.168 0.171747Z" fill="#002041"/>
</svg>
