<?xml version="1.0" standalone="no"?>
<!DOCTYPE svg PUBLIC "-//W3C//DTD SVG 1.1//EN" "http://www.w3.org/Graphics/SVG/1.1/DTD/svg11.dtd" >
<svg xmlns="http://www.w3.org/2000/svg" xmlns:xlink="http://www.w3.org/1999/xlink" version="1.1">
<metadata>
Created by FontForge 20170731 at Tue Jan 31 19:29:34 2012
 By Aleksey,,,
Copyright (c) 2012 by Process Type Foundry, LLC. All rights reserved.
</metadata>
<defs>
<font id="Chrono-Light" horiz-adv-x="706" >
  <font-face 
    font-family="Chrono Light"
    font-weight="300"
    font-stretch="normal"
    units-per-em="1000"
    panose-1="2 11 4 5 0 0 0 1 0 3"
    ascent="750"
    descent="-250"
    x-height="508"
    cap-height="700"
    bbox="-50 -250 1143 960"
    underline-thickness="23"
    underline-position="-144"
    unicode-range="U+0020-FB02"
  />
<missing-glyph horiz-adv-x="719" 
d="M107 0v700h505v-700h-505zM118 10h483v680h-483v-680zM473 447l-97 -97l97 -96l-17 -17l-96 97l-96 -97l-17 17l96 96l-96 97l16 17l97 -98l97 98z" />
    <glyph glyph-name=".notdef" horiz-adv-x="719" 
d="M107 0v700h505v-700h-505zM118 10h483v680h-483v-680zM473 447l-97 -97l97 -96l-17 -17l-96 97l-96 -97l-17 17l96 96l-96 97l16 17l97 -98l97 98z" />
    <glyph glyph-name=".null" horiz-adv-x="0" 
 />
    <glyph glyph-name="nonmarkingreturn" horiz-adv-x="333" 
 />
    <glyph glyph-name="space" unicode=" " horiz-adv-x="240" 
 />
    <glyph glyph-name="exclam" unicode="!" horiz-adv-x="246" 
d="M112 152l-14 228v320h50v-320l-12 -228h-24zM84 33q0 17 11 28t28 11t28 -11t11 -28t-11 -28t-28 -11t-28 11t-11 28z" />
    <glyph glyph-name="quotedbl" unicode="&#x22;" horiz-adv-x="428" 
d="M296 443v257h40v-257h-40zM92 443v257h40v-257h-40z" />
    <glyph glyph-name="numbersign" unicode="#" horiz-adv-x="674" 
d="M415 0l25 223h-228l-25 -223h-38l25 223h-111v34h115l23 197h-117v34h121l24 212h38l-24 -212h228l24 212h38l-24 -212h107v-34h-111l-23 -197h113v-34h-117l-25 -223h-38zM239 454l-23 -197h228l23 197h-228z" />
    <glyph glyph-name="dollar" unicode="$" horiz-adv-x="598" 
d="M281 -110v111q-90 6 -147 56t-57 131v18h46v-17q0 -71 50 -110.5t131 -39.5q78 0 127 38.5t49 103.5q0 88 -96 124l-168 64q-66 25 -98.5 62.5t-32.5 96.5q0 76 51 121t140 50v111h46v-111q82 -7 133.5 -55t51.5 -123v-28h-45v27q0 65 -45 103.5t-121 38.5t-120.5 -35
t-44.5 -99q0 -47 25.5 -74t73.5 -45l167 -64q129 -49 129 -162q0 -78 -56.5 -127.5t-142.5 -55.5v-110h-46z" />
    <glyph glyph-name="percent" unicode="%" horiz-adv-x="838" 
d="M220 0l365 700h39l-365 -700h-39zM360 561v-92q0 -66 -39 -106.5t-106 -40.5t-106 40.5t-39 106.5v92q0 66 39 106.5t106 40.5t106 -40.5t39 -106.5zM215 353q51 0 79.5 31t28.5 83v96q0 52 -28.5 83t-79.5 31q-50 0 -79 -31t-29 -83v-96q0 -52 29 -83t79 -31zM773 231
v-92q0 -66 -39 -106.5t-106 -40.5t-106 40.5t-39 106.5v92q0 66 39 106.5t106 40.5t106 -40.5t39 -106.5zM628 23q51 0 79.5 31t28.5 83v96q0 52 -28.5 83t-79.5 31q-50 0 -79 -31t-29 -83v-96q0 -52 29 -83t79 -31z" />
    <glyph glyph-name="ampersand" unicode="&#x26;" horiz-adv-x="700" 
d="M489 533h-42v29q0 50 -35.5 83t-91.5 33q-59 0 -96.5 -29.5t-37.5 -83.5q0 -62 61 -125l291 -297q23 51 23 113v71h42v-74q0 -80 -35 -141l97 -98l-28 -28l-91 92q-74 -92 -217 -92q-117 0 -188 59.5t-71 157.5q0 144 149 207l-7 8q-70 70 -70 146q0 66 49 108t128 42
q74 0 122 -43.5t48 -107.5v-30zM329 23q128 0 189 84l-271 275q-132 -60 -132 -178q0 -83 60 -132t154 -49z" />
    <glyph glyph-name="quotesingle" unicode="'" horiz-adv-x="224" 
d="M92 443v257h40v-257h-40z" />
    <glyph glyph-name="parenleft" unicode="(" horiz-adv-x="295" 
d="M203 782h47q-64 -135 -92 -240t-28 -218t28 -218t92 -240h-47q-63 128 -92 234t-29 224t29 224t92 234z" />
    <glyph glyph-name="parenright" unicode=")" horiz-adv-x="295" 
d="M45 782h47q63 -128 92 -234t29 -224t-29 -224t-92 -234h-47q64 135 92 240t28 218t-28 218t-92 240z" />
    <glyph glyph-name="asterisk" unicode="*" horiz-adv-x="434" 
d="M72 610l14 23l118 -70v137h27v-137l117 70l14 -23l-119 -70l119 -69l-14 -23l-117 69v-137h-27v137l-118 -69l-14 23l118 69z" />
    <glyph glyph-name="plus" unicode="+" horiz-adv-x="608" 
d="M283 130v211h-198v38h198v211h42v-211h198v-38h-198v-211h-42z" />
    <glyph glyph-name="comma" unicode="," horiz-adv-x="222" 
d="M35 -107l51 205h53l-64 -205h-40z" />
    <glyph glyph-name="hyphen" unicode="-" horiz-adv-x="415" 
d="M73 290v39h269v-39h-269z" />
    <glyph glyph-name="period" unicode="." horiz-adv-x="222" 
d="M72 33q0 17 11 28t28 11t28 -11t11 -28t-11 -28t-28 -11t-28 11t-11 28z" />
    <glyph glyph-name="slash" unicode="/" horiz-adv-x="448" 
d="M62 -105l282 855h46l-282 -855h-46z" />
    <glyph glyph-name="zero" unicode="0" horiz-adv-x="626" 
d="M313 -14q-110 0 -173 64t-63 164v272q0 100 63 164t173 64t173 -64t63 -164v-272q0 -100 -63 -164t-173 -64zM501 488q0 82 -49.5 134t-138.5 52t-138.5 -52t-49.5 -134v-276q0 -82 49.5 -134t138.5 -52t138.5 52t49.5 134v276z" />
    <glyph glyph-name="one" unicode="1" horiz-adv-x="328" 
d="M177 0v648l-144 -73v45l152 80h40v-700h-48z" />
    <glyph glyph-name="two" unicode="2" horiz-adv-x="595" 
d="M77 0v39l303 326q84 89 84 164q0 64 -46 104.5t-116 40.5q-75 0 -121 -41.5t-46 -115.5v-16h-45v18q0 91 58.5 143t153.5 52q90 0 150 -51.5t60 -133.5q0 -55 -24 -96.5t-75 -96.5l-280 -296h383v-40h-439z" />
    <glyph glyph-name="three" unicode="3" horiz-adv-x="605" 
d="M297 -14q-90 0 -156.5 53.5t-72.5 144.5h44q7 -73 58.5 -115.5t127.5 -42.5q83 0 135 45.5t52 116.5q0 74 -50 116.5t-131 42.5h-91v40l242 274h-342v39h399v-40l-246 -275h46q96 0 158 -53.5t62 -140.5q0 -89 -68.5 -147t-166.5 -58z" />
    <glyph glyph-name="four" unicode="4" horiz-adv-x="608" 
d="M404 0v176h-339v38l242 486h45l-239 -486h291v172h45v-172h101v-38h-101v-176h-45z" />
    <glyph glyph-name="five" unicode="5" horiz-adv-x="623" 
d="M310 -14q-86 0 -148.5 48.5t-81.5 130.5h46q17 -62 65.5 -100.5t119.5 -38.5q87 0 142 55t55 137q0 79 -52.5 134.5t-134.5 55.5q-55 0 -103 -27t-73 -65h-48l65 384h336v-40h-297l-52 -290q65 78 179 78q97 0 162 -66.5t65 -163.5q0 -98 -70 -165t-175 -67z" />
    <glyph glyph-name="six" unicode="6" horiz-adv-x="596" 
d="M299 -14q-101 0 -167.5 65.5t-66.5 163.5q0 85 58 177l192 308h51l-210 -326v-1q55 74 160 74q96 0 158 -66.5t62 -162.5q0 -95 -67 -163.5t-170 -68.5zM299 25q85 0 137.5 55.5t52.5 136.5t-51 136.5t-134 55.5q-81 0 -136.5 -56t-55.5 -139t52.5 -136t134.5 -53z" />
    <glyph glyph-name="seven" unicode="7" horiz-adv-x="555" 
d="M129 0l317 660h-376v40h425v-34l-317 -666h-49z" />
    <glyph glyph-name="eight" unicode="8" horiz-adv-x="630" 
d="M315 -14q-104 0 -170 54.5t-66 140.5q0 70 41 118t113 65q-56 19 -90.5 62t-34.5 105q0 83 56.5 133t150.5 50t150.5 -50t56.5 -133q0 -62 -34.5 -105t-90.5 -62q72 -17 113 -65t41 -118q0 -86 -66 -140.5t-170 -54.5zM315 23q82 0 136 44t54 114q0 75 -52.5 118
t-137.5 43t-137.5 -43t-52.5 -118q0 -70 54 -114t136 -44zM153 529q0 -61 46 -104t116 -43t116 43t46 104q0 68 -44.5 108t-117.5 40t-117.5 -40t-44.5 -108z" />
    <glyph glyph-name="nine" unicode="9" horiz-adv-x="594" 
d="M296 714q101 0 167.5 -65t66.5 -163q0 -84 -58 -178l-192 -308h-51l210 326v1q-23 -33 -66 -53.5t-94 -20.5q-96 0 -158 66.5t-62 162.5q0 100 66.5 166t170.5 66zM296 675q-85 0 -137.5 -55.5t-52.5 -136.5q0 -84 49 -138t136 -54q80 0 136 57t56 138t-53 135t-134 54z
" />
    <glyph glyph-name="colon" unicode=":" horiz-adv-x="222" 
d="M72 33q0 17 11 28t28 11t28 -11t11 -28t-11 -28t-28 -11t-28 11t-11 28zM72 379q0 17 11 28t28 11t28 -11t11 -28t-11 -28t-28 -11t-28 11t-11 28z" />
    <glyph glyph-name="semicolon" unicode=";" horiz-adv-x="222" 
d="M27 -107l51 205h53l-64 -205h-40zM72 380q0 17 11 28t28 11t28 -11t11 -28t-11 -28t-28 -11t-28 11t-11 28z" />
    <glyph glyph-name="less" unicode="&#x3c;" horiz-adv-x="593" 
d="M65 375l438 225v-41l-389 -199l389 -199v-41l-438 225v30z" />
    <glyph glyph-name="equal" unicode="=" horiz-adv-x="613" 
d="M95 223v37h423v-37h-423zM95 460v37h423v-37h-423z" />
    <glyph glyph-name="greater" unicode="&#x3e;" horiz-adv-x="593" 
d="M90 600l438 -225v-30l-438 -225v41l389 199l-389 199v41z" />
    <glyph glyph-name="question" unicode="?" horiz-adv-x="496" 
d="M195 159v60q0 65 16.5 100.5t63.5 70.5l43 32q75 56 75 127q0 56 -41.5 91t-109.5 35t-107 -36.5t-39 -102.5v-16h-44v17q0 82 52 129.5t138 47.5q89 0 144 -46.5t55 -118.5q0 -88 -80 -148l-48 -36q-44 -33 -59 -61t-15 -85v-60h-44zM181 33q0 17 11 28t28 11t28 -11
t11 -28t-11 -28t-28 -11t-28 11t-11 28z" />
    <glyph glyph-name="at" unicode="@" horiz-adv-x="945" 
d="M475 -113q-185 0 -291.5 113t-106.5 282q0 185 117.5 308.5t303.5 123.5q169 0 272 -100.5t103 -250.5q0 -100 -47.5 -175t-135.5 -75q-48 0 -82 29.5t-36 73.5q-18 -42 -55 -66.5t-82 -24.5q-63 0 -101 40t-38 104q0 17 3 37l5 29q12 72 52 113t104 41q49 0 83.5 -28
t44.5 -66l14 85h37l-36 -202q-3 -18 -3 -33q0 -48 26 -74.5t68 -26.5q65 0 103 65t38 153q0 137 -93 227.5t-245 90.5q-168 0 -275 -113t-107 -286q0 -97 39 -177t123.5 -131.5t201.5 -51.5q97 0 186 28l-5 -34q-84 -28 -185 -28zM343 329l-5 -28q-3 -18 -3 -34
q0 -50 27.5 -79.5t76.5 -29.5q46 0 80 34.5t43 85.5l6 35q2 14 2 22q0 48 -30.5 84.5t-77.5 36.5q-97 0 -119 -127z" />
    <glyph glyph-name="A" unicode="A" horiz-adv-x="662" 
d="M356 700l266 -700h-51l-71 192h-339l-70 -192h-51l266 700h50zM331 654l-155 -421h309z" />
    <glyph glyph-name="B" unicode="B" horiz-adv-x="656" 
d="M97 0v700h276q85 0 136 -50t51 -124q0 -55 -28.5 -97.5t-81.5 -65.5q151 -38 151 -175q0 -85 -59.5 -136.5t-162.5 -51.5h-282zM144 39h230q87 0 133 40t46 111q0 66 -49 107.5t-129 41.5h-231v-300zM144 378h218q70 0 110 42.5t40 101.5q0 60 -39.5 99.5t-110.5 39.5
h-218v-283z" />
    <glyph glyph-name="C" unicode="C" horiz-adv-x="699" 
d="M359 -14q-135 0 -208.5 84t-73.5 217v126q0 133 73.5 217t208.5 84q115 0 188 -68t82 -169h-47q-11 85 -69.5 140.5t-154.5 55.5q-112 0 -172 -71.5t-60 -187.5v-128q0 -116 60 -187.5t172 -71.5q96 0 154.5 55.5t69.5 140.5h47q-9 -101 -82 -169t-188 -68z" />
    <glyph glyph-name="D" unicode="D" horiz-adv-x="697" 
d="M622 269q0 -117 -73.5 -193t-202.5 -76h-249v700h249q129 0 202.5 -76t73.5 -193v-162zM573 430q0 104 -61.5 166.5t-171.5 62.5h-194v-618h194q110 0 171.5 62.5t61.5 166.5v160z" />
    <glyph glyph-name="E" unicode="E" horiz-adv-x="605" 
d="M97 0v700h449v-41h-400v-283h371v-42h-371v-293h401v-41h-450z" />
    <glyph glyph-name="F" unicode="F" horiz-adv-x="579" 
d="M97 0v700h439v-41h-390v-292h361v-42h-361v-325h-49z" />
    <glyph glyph-name="G" unicode="G" horiz-adv-x="708" 
d="M364 -14q-139 0 -213 87t-74 221v115q0 137 73 221t207 84q122 0 194.5 -67.5t77.5 -172.5h-47q-5 86 -64.5 142.5t-159.5 56.5q-114 0 -173 -72t-59 -190v-118q0 -118 60 -192t178 -74q104 0 164.5 62t60.5 165v31h-214v41h261v-68q0 -120 -73.5 -196t-198.5 -76z" />
    <glyph glyph-name="H" unicode="H" horiz-adv-x="702" 
d="M97 0v700h49v-325h410v325h49v-700h-49v332h-410v-332h-49z" />
    <glyph glyph-name="I" unicode="I" horiz-adv-x="253" 
d="M102 0v700h49v-700h-49z" />
    <glyph glyph-name="J" unicode="J" horiz-adv-x="581" 
d="M266 -14q-99 0 -159.5 54t-60.5 140v5h48v-5q0 -69 46 -111t126 -42q79 0 125.5 42.5t46.5 113.5v517h49v-517q0 -87 -62 -142t-159 -55z" />
    <glyph glyph-name="K" unicode="K" horiz-adv-x="591" 
d="M97 0v700h49v-343l349 343h62l-353 -346l366 -354h-63l-361 350v-350h-49z" />
    <glyph glyph-name="L" unicode="L" horiz-adv-x="563" 
d="M97 0v700h49v-659h375v-41h-424z" />
    <glyph glyph-name="M" unicode="M" horiz-adv-x="778" 
d="M681 700v-700h-46v612l-220 -435h-52l-220 435v-612h-46v700h49l243 -481l243 481h49z" />
    <glyph glyph-name="N" unicode="N" 
d="M97 0v700h46l419 -621v621h47v-700h-46l-419 620v-620h-47z" />
    <glyph glyph-name="O" unicode="O" horiz-adv-x="724" 
d="M647 410v-120q0 -131 -73.5 -217.5t-211.5 -86.5t-211.5 86.5t-73.5 217.5v120q0 131 73.5 217.5t211.5 86.5t211.5 -86.5t73.5 -217.5zM599 288v124q0 113 -60 187.5t-177 74.5t-177 -74.5t-60 -187.5v-124q0 -113 60 -187.5t177 -74.5t177 74.5t60 187.5z" />
    <glyph glyph-name="P" unicode="P" horiz-adv-x="631" 
d="M97 0v700h266q104 0 166 -61.5t62 -154.5t-62 -155t-166 -62h-217v-267h-49zM146 308h212q90 0 137 50.5t47 125.5t-47 125t-137 50h-212v-351z" />
    <glyph glyph-name="Q" unicode="Q" horiz-adv-x="724" 
d="M647 410v-120q0 -84 -31 -153t-92 -108l57 -95l-34 -20l-58 97q-56 -25 -127 -25q-138 0 -211.5 86.5t-73.5 217.5v120q0 131 73.5 217.5t211.5 86.5t211.5 -86.5t73.5 -217.5zM599 288v124q0 113 -60 187.5t-177 74.5t-177 -74.5t-60 -187.5v-124q0 -113 60 -187.5
t177 -74.5q58 0 106 21l-54 92l34 19l54 -91q97 69 97 221z" />
    <glyph glyph-name="R" unicode="R" horiz-adv-x="666" 
d="M545 0l-150 271h-22h-227v-271h-49v700h278q104 0 165 -62.5t61 -152.5q0 -75 -42.5 -131t-116.5 -75l157 -279h-54zM146 311h220q90 0 138 49.5t48 124.5t-48.5 125t-136.5 50h-221v-349z" />
    <glyph glyph-name="S" unicode="S" horiz-adv-x="652" 
d="M330 -14q-111 0 -183 57t-72 149v16h47v-15q0 -76 58 -121.5t150 -45.5t150 42t58 115q0 100 -112 129l-207 54q-132 35 -132 161q0 86 63.5 136.5t168.5 50.5t171.5 -55t66.5 -142v-16h-45v15q0 70 -52.5 114t-140.5 44q-85 0 -135 -38.5t-50 -105.5q0 -50 24 -79.5
t75 -43.5l209 -55q67 -18 105 -60t38 -106q0 -92 -72.5 -146t-182.5 -54z" />
    <glyph glyph-name="T" unicode="T" horiz-adv-x="551" 
d="M251 0v659h-222v41h493v-41h-222v-659h-49z" />
    <glyph glyph-name="U" unicode="U" 
d="M353 -14q-118 0 -189 68t-71 174v472h49v-477q0 -88 57 -142t154 -54t154 54t57 142v477h49v-472q0 -106 -71 -174t-189 -68z" />
    <glyph glyph-name="V" unicode="V" horiz-adv-x="610" 
d="M582 700l-248 -700h-58l-248 700h48l229 -654l229 654h48z" />
    <glyph glyph-name="W" unicode="W" horiz-adv-x="902" 
d="M864 700l-166 -700h-51l-196 648l-196 -648h-51l-166 700h48l145 -636l193 636h54l193 -636l145 636h48z" />
    <glyph glyph-name="X" unicode="X" horiz-adv-x="618" 
d="M335 356l245 -356h-53l-218 318l-218 -318h-53l245 356l-236 344h51l211 -306l211 306h51z" />
    <glyph glyph-name="Y" unicode="Y" horiz-adv-x="582" 
d="M315 271v-271h-48v271l-251 429h51l224 -384l224 384h51z" />
    <glyph glyph-name="Z" unicode="Z" horiz-adv-x="616" 
d="M68 0v41l418 618h-399v41h451v-41l-418 -618h430v-41h-482z" />
    <glyph glyph-name="bracketleft" unicode="[" horiz-adv-x="353" 
d="M92 -134v916h216v-39h-168v-838h168v-39h-216z" />
    <glyph glyph-name="backslash" unicode="\" horiz-adv-x="448" 
d="M104 750l282 -855h-46l-282 855h46z" />
    <glyph glyph-name="bracketright" unicode="]" horiz-adv-x="353" 
d="M260 782v-916h-216v39h168v838h-168v39h216z" />
    <glyph glyph-name="asciicircum" unicode="^" horiz-adv-x="492" 
d="M266 700l159 -274h-48l-131 234l-131 -234h-48l159 274h40z" />
    <glyph glyph-name="underscore" unicode="_" horiz-adv-x="487" 
d="M-1 -112v24h489v-24h-489z" />
    <glyph glyph-name="grave" unicode="`" horiz-adv-x="338" 
d="M155 719l85 -136h-48l-94 136h57z" />
    <glyph glyph-name="a" unicode="a" horiz-adv-x="555" 
d="M248 -12q-88 0 -142 45.5t-54 117.5q0 73 56.5 115t147.5 42q55 0 102.5 -22.5t70.5 -53.5v101q0 64 -39.5 106t-105.5 42q-110 0 -149 -94h-45q18 62 70 97.5t124 35.5q85 0 139 -52.5t54 -132.5v-335h-46v71q-22 -34 -72 -58.5t-111 -24.5zM251 25q70 0 124 33.5
t54 91.5q0 54 -54 87t-119 33q-70 0 -114 -31t-44 -89q0 -57 42 -91t111 -34z" />
    <glyph glyph-name="b" unicode="b" horiz-adv-x="587" 
d="M87 730h48v-316q21 47 69 76.5t113 29.5q96 0 152.5 -62t56.5 -159v-90q0 -97 -56.5 -159t-152.5 -62q-68 0 -116 31t-69 80v-99h-45v730zM478 212v84q0 82 -44.5 133.5t-125.5 51.5q-74 0 -123.5 -53.5t-49.5 -133.5v-80q0 -80 50 -133.5t124 -53.5q81 0 125 51.5
t44 133.5z" />
    <glyph glyph-name="c" unicode="c" horiz-adv-x="557" 
d="M280 -12q-99 0 -159 62t-60 159v90q0 97 60 159t159 62q90 0 147 -52t67 -133h-44q-11 65 -54 105.5t-116 40.5q-80 0 -125.5 -51.5t-45.5 -131.5v-88q0 -80 45.5 -131.5t125.5 -51.5q73 0 116 40.5t54 105.5h44q-10 -81 -67 -133t-147 -52z" />
    <glyph glyph-name="d" unicode="d" horiz-adv-x="587" 
d="M452 730h48v-730h-45v99q-21 -49 -69 -80t-116 -31q-96 0 -152.5 62t-56.5 159v90q0 97 56.5 159t152.5 62q65 0 113 -29.5t69 -76.5v316zM109 296v-84q0 -82 44 -133.5t125 -51.5q74 0 124 53.5t50 133.5v80q0 80 -49.5 133.5t-123.5 53.5q-81 0 -125.5 -51.5
t-44.5 -133.5z" />
    <glyph glyph-name="e" unicode="e" horiz-adv-x="553" 
d="M280 -12q-100 0 -159.5 60t-59.5 158v88q0 103 57.5 164.5t158.5 61.5q98 0 154 -63t56 -156v-68h-379v-30q0 -77 45.5 -127t126.5 -50q60 0 101 31t57 84h42q-15 -68 -69.5 -110.5t-130.5 -42.5zM108 296v-24h333v31q0 79 -42.5 129t-121.5 50q-83 0 -126 -50t-43 -136z
" />
    <glyph glyph-name="f" unicode="f" horiz-adv-x="344" 
d="M124 0v469h-79v39h79v74q0 76 35.5 112t108.5 36h61v-39h-58q-54 0 -76.5 -25t-22.5 -80v-78h139v-39h-139v-469h-48z" />
    <glyph glyph-name="g" unicode="g" horiz-adv-x="585" 
d="M286 -186q-73 0 -132 31.5t-84 88.5h48q49 -82 168 -82q75 0 119.5 39t44.5 105v132q-16 -41 -66.5 -74.5t-114.5 -33.5q-95 0 -151.5 58.5t-56.5 146.5v89q0 90 56 148t151 58q71 0 118 -32t66 -75v95h46v-513q0 -78 -61 -129.5t-151 -51.5zM275 59q73 0 124 48.5
t51 124.5v73q0 72 -50.5 124t-121.5 52q-81 0 -125.5 -46t-44.5 -125v-80q0 -80 43.5 -125.5t123.5 -45.5z" />
    <glyph glyph-name="h" unicode="h" horiz-adv-x="582" 
d="M87 0v730h48v-320q46 110 179 110q85 0 135.5 -53.5t50.5 -147.5v-319h-48v313q0 79 -37.5 122.5t-111.5 43.5q-72 0 -120 -48.5t-48 -134.5v-296h-48z" />
    <glyph glyph-name="i" unicode="i" horiz-adv-x="232" 
d="M92 0v508h48v-508h-48zM78 658q0 16 10.5 26.5t27.5 10.5t27.5 -10.5t10.5 -26.5q0 -14 -10.5 -25.5t-27.5 -11.5t-27.5 11.5t-10.5 25.5z" />
    <glyph glyph-name="j" unicode="j" horiz-adv-x="232" 
d="M-14 -174v39h27q42 0 60.5 18t18.5 56v569h48v-570q0 -112 -116 -112h-38zM78 658q0 16 10.5 26.5t27.5 10.5t27.5 -10.5t10.5 -26.5q0 -14 -10.5 -25.5t-27.5 -11.5t-27.5 11.5t-10.5 25.5z" />
    <glyph glyph-name="k" unicode="k" horiz-adv-x="495" 
d="M87 0v730h48v-462l251 240h64l-257 -244l269 -264h-64l-263 260v-260h-48z" />
    <glyph glyph-name="l" unicode="l" horiz-adv-x="232" 
d="M92 0v730h48v-730h-48z" />
    <glyph glyph-name="m" unicode="m" horiz-adv-x="935" 
d="M494 0h-48v313q0 79 -37 122.5t-111 43.5q-70 0 -116.5 -48.5t-46.5 -134.5v-296h-48v508h45v-103q17 52 63 83.5t114 31.5q62 0 106.5 -29.5t63.5 -83.5q26 55 75 84t114 29q85 0 135 -53.5t50 -147.5v-319h-48v313q0 79 -37 122.5t-111 43.5q-69 0 -116 -48.5
t-47 -134.5v-296z" />
    <glyph glyph-name="n" unicode="n" horiz-adv-x="582" 
d="M87 0v508h45v-103q18 52 65 83.5t117 31.5q85 0 135.5 -53.5t50.5 -147.5v-319h-48v313q0 79 -37.5 122.5t-111.5 43.5q-72 0 -120 -48.5t-48 -134.5v-296h-48z" />
    <glyph glyph-name="o" unicode="o" horiz-adv-x="560" 
d="M280 -12q-101 0 -160 62.5t-59 158.5v90q0 96 59 158.5t160 62.5t160 -62.5t59 -158.5v-90q0 -96 -59 -158.5t-160 -62.5zM453 297q0 81 -46 132.5t-127 51.5t-127 -51.5t-46 -132.5v-86q0 -81 46 -132.5t127 -51.5t127 51.5t46 132.5v86z" />
    <glyph glyph-name="p" unicode="p" horiz-adv-x="587" 
d="M135 -174h-48v682h45v-99q21 49 69 80t116 31q96 0 152.5 -62t56.5 -159v-90q0 -97 -56.5 -159t-152.5 -62q-65 0 -113 29.5t-69 76.5v-268zM478 212v84q0 82 -44 133.5t-125 51.5q-74 0 -124 -53.5t-50 -133.5v-80q0 -80 49.5 -133.5t123.5 -53.5q81 0 125.5 51.5
t44.5 133.5z" />
    <glyph glyph-name="q" unicode="q" horiz-adv-x="587" 
d="M500 -174h-48v268q-21 -47 -69 -76.5t-113 -29.5q-96 0 -152.5 62t-56.5 159v90q0 97 56.5 159t152.5 62q68 0 116 -31t69 -80v99h45v-682zM109 296v-84q0 -82 44.5 -133.5t125.5 -51.5q74 0 123.5 53.5t49.5 133.5v80q0 80 -50 133.5t-124 53.5q-81 0 -125 -51.5
t-44 -133.5z" />
    <glyph glyph-name="r" unicode="r" horiz-adv-x="342" 
d="M87 0v508h45v-126q12 58 60.5 93.5t120.5 35.5h5v-44h-5q-80 0 -129 -55t-49 -157v-255h-48z" />
    <glyph glyph-name="s" unicode="s" horiz-adv-x="525" 
d="M268 -12q-89 0 -147.5 43t-58.5 114v3h47v-2q0 -55 46 -87t114 -32q66 0 110 29.5t44 78.5q0 65 -73 83l-167 41q-107 27 -107 121q0 64 50.5 102t132.5 38t133.5 -43.5t51.5 -113.5v-3h-47v3q0 53 -37 85.5t-101 32.5q-63 0 -99.5 -26.5t-36.5 -74.5q0 -61 69 -78
l165 -41q113 -28 113 -125q0 -66 -59 -107t-143 -41z" />
    <glyph glyph-name="t" unicode="t" horiz-adv-x="366" 
d="M318 0h-52q-134 0 -134 132v337h-93v39h93v147h48v-147h140v-39h-140v-337q0 -50 21 -71.5t72 -21.5h45v-39z" />
    <glyph glyph-name="u" unicode="u" horiz-adv-x="578" 
d="M491 508v-508h-45v103q-16 -51 -63 -83t-117 -32q-85 0 -134.5 53.5t-49.5 147.5v319h48v-313q0 -79 37 -122.5t110 -43.5q72 0 119 48.5t47 134.5v296h48z" />
    <glyph glyph-name="v" unicode="v" horiz-adv-x="498" 
d="M464 508l-187 -508h-56l-187 508h48l167 -460l167 460h48z" />
    <glyph glyph-name="w" unicode="w" horiz-adv-x="746" 
d="M708 508l-141 -508h-48l-146 456l-146 -456h-48l-141 508h45l121 -451l144 451h50l144 -451l121 451h45z" />
    <glyph glyph-name="x" unicode="x" horiz-adv-x="480" 
d="M266 258l178 -258h-51l-153 223l-153 -223h-51l178 258l-171 250h50l147 -214l147 214h50z" />
    <glyph glyph-name="y" unicode="y" horiz-adv-x="493" 
d="M164 -174l60 174l-190 508h49l165 -450l162 450h49l-185 -506l-63 -176h-47z" />
    <glyph glyph-name="z" unicode="z" horiz-adv-x="491" 
d="M60 0v38l319 430h-306v40h359v-38l-319 -430h323v-40h-376z" />
    <glyph glyph-name="braceleft" unicode="{" horiz-adv-x="423" 
d="M312 782h66v-39h-60q-100 0 -100 -100v-201q0 -100 -88 -118q88 -18 88 -118v-201q0 -100 100 -100h60v-39h-66q-69 0 -105.5 37t-36.5 99v199q0 49 -26.5 76t-77.5 27h-31v40h31q51 0 77.5 27t26.5 76v199q0 62 36.5 99t105.5 37z" />
    <glyph glyph-name="bar" unicode="|" horiz-adv-x="296" 
d="M127 -150v950h42v-950h-42z" />
    <glyph glyph-name="braceright" unicode="}" horiz-adv-x="423" 
d="M45 782h66q69 0 105.5 -37t36.5 -99v-199q0 -49 26.5 -76t77.5 -27h31v-40h-31q-51 0 -77.5 -27t-26.5 -76v-199q0 -62 -36.5 -99t-105.5 -37h-66v39h60q100 0 100 100v201q0 100 88 118q-88 18 -88 118v201q0 100 -100 100h-60v39z" />
    <glyph glyph-name="asciitilde" unicode="~" horiz-adv-x="586" 
d="M475 424l41 -6q-6 -127 -100 -127q-35 0 -120.5 50t-112.5 50q-33 0 -47 -23t-21 -72l-41 5q5 64 30.5 96t78.5 32q38 0 125.5 -50t108.5 -50q22 0 34.5 14.5t16 31t7.5 49.5z" />
    <glyph glyph-name="uni00A0" unicode="&#xa0;" horiz-adv-x="240" 
 />
    <glyph glyph-name="exclamdown" unicode="&#xa1;" horiz-adv-x="246" 
d="M134 548l14 -228v-320h-50v320l12 228h24zM162 667q0 -17 -11 -28t-28 -11t-28 11t-11 28t11 28t28 11t28 -11t11 -28z" />
    <glyph glyph-name="cent" unicode="&#xa2;" horiz-adv-x="569" 
d="M265 0v101q-84 8 -136 63.5t-52 144.5v82q0 90 52.5 146t136.5 62v101h47v-101q72 -5 121 -50t58 -108h-44q-9 52 -51.5 86t-106.5 34q-76 0 -121 -45.5t-45 -125.5v-80q0 -80 45 -125.5t121 -45.5q64 0 106.5 34t51.5 86h44q-9 -63 -58 -107.5t-122 -50.5v-101h-47z" />
    <glyph glyph-name="sterling" unicode="&#xa3;" horiz-adv-x="655" 
d="M78 0v40h124v274h-109v40h109v157q0 99 50.5 151t145.5 52q89 0 140.5 -51.5t51.5 -131.5v-14h-45v14q0 63 -39 103.5t-108 40.5q-148 0 -148 -163v-158h220v-40h-220v-274h308v-40h-480z" />
    <glyph glyph-name="currency" unicode="&#xa4;" horiz-adv-x="588" 
d="M466 317q0 -66 -38 -110l82 -121h-49l-63 94q-44 -29 -104 -29t-104 29l-63 -94h-49l81 121q-37 45 -37 110v65q0 64 37 109l-81 122h49l63 -95q43 30 104 30t104 -30l63 95h49l-82 -122q38 -44 38 -109v-65zM294 186q63 0 97 36.5t34 93.5v67q0 57 -34 93.5t-97 36.5
t-97 -36.5t-34 -93.5v-67q0 -57 34 -93.5t97 -36.5z" />
    <glyph glyph-name="yen" unicode="&#xa5;" horiz-adv-x="568" 
d="M80 360v36h129l-144 304h51l168 -366l168 366h51l-144 -304h128v-36h-145l-34 -72v-71h179v-36h-179v-181h-48v181h-180v36h180v71l-34 72h-146z" />
    <glyph glyph-name="brokenbar" unicode="&#xa6;" horiz-adv-x="296" 
d="M127 -150v378h42v-378h-42zM127 422v378h42v-378h-42z" />
    <glyph glyph-name="section" unicode="&#xa7;" horiz-adv-x="602" 
d="M300 -124q-86 0 -139 43t-53 114v12h43v-11q0 -55 39.5 -88.5t109.5 -33.5q62 0 102 30.5t40 82.5q0 72 -80 103l-173 68q-107 42 -107 135q0 45 24.5 81.5t56.5 54.5q-41 36 -41 96q0 67 50 109t133 42q88 0 139.5 -42.5t51.5 -115.5v-12h-41v12q0 57 -39 89.5
t-111 32.5q-64 0 -102 -30t-38 -84q0 -69 81 -102l186 -78q92 -39 92 -129q0 -75 -72 -139q33 -36 33 -90q0 -64 -53 -107t-132 -43zM370 166q32 -13 54 -28q58 56 58 117q0 66 -67 94l-177 75q-28 11 -47 23q-67 -48 -67 -115q0 -70 83 -102z" />
    <glyph glyph-name="dieresis" unicode="&#xa8;" horiz-adv-x="472" 
d="M98 646q0 15 10 25.5t27 10.5t27 -10.5t10 -25.5q0 -14 -10 -25t-27 -11t-27 11t-10 25zM300 646q0 15 10 25.5t27 10.5t27 -10.5t10 -25.5q0 -14 -10 -25t-27 -11t-27 11t-10 25z" />
    <glyph glyph-name="copyright" unicode="&#xa9;" horiz-adv-x="872" 
d="M436 712q160 0 259.5 -105.5t99.5 -256.5t-99.5 -256.5t-259.5 -105.5t-259.5 105.5t-99.5 256.5t99.5 256.5t259.5 105.5zM436 8q153 0 245 99.5t92 242.5t-92 242.5t-245 99.5t-245 -99.5t-92 -242.5t92 -242.5t245 -99.5zM327 320q0 -56 28.5 -90.5t82.5 -34.5
q45 0 71.5 25t32.5 64h30q-6 -49 -42 -82.5t-92 -33.5q-68 0 -105 43t-37 108v62q0 65 37 108t105 43q56 0 92 -33.5t42 -82.5h-30q-6 39 -32.5 64t-71.5 25q-54 0 -82.5 -34.5t-28.5 -90.5v-60z" />
    <glyph glyph-name="ordfeminine" unicode="&#xaa;" horiz-adv-x="422" 
d="M70 273v28h278v-28h-278zM198 373q-57 0 -91.5 29.5t-34.5 74.5q0 47 35 74t93 27q35 0 65 -13.5t44 -32.5v55q0 40 -24.5 66.5t-65.5 26.5q-66 0 -90 -56h-31q11 40 43 62.5t78 22.5q54 0 89 -34t35 -83v-211h-33v42q-13 -19 -43.5 -34.5t-68.5 -15.5zM201 400
q42 0 75 21t33 55t-33 54.5t-74 20.5q-42 0 -69 -19t-27 -55q0 -35 27 -56t68 -21z" />
    <glyph glyph-name="guillemotleft" unicode="&#xab;" horiz-adv-x="586" 
d="M219 60l-177 210l177 210h54l-176 -210l176 -210h-54zM470 60l-177 210l177 210h54l-176 -210l176 -210h-54z" />
    <glyph glyph-name="logicalnot" unicode="&#xac;" horiz-adv-x="588" 
d="M460 130v211h-395v38h438v-249h-43z" />
    <glyph glyph-name="registered" unicode="&#xae;" horiz-adv-x="535" 
d="M267 292q-94 0 -153 60.5t-59 149.5q0 88 59 149t153 61t153.5 -61t59.5 -149q0 -89 -59.5 -149.5t-153.5 -60.5zM267 305q89 0 143.5 57.5t54.5 139.5t-54.5 139.5t-143.5 57.5t-143 -57.5t-54 -139.5t54 -139.5t143 -57.5zM323 412l-39 70h-58v-70h-21v191h83
q29 0 45.5 -18t16.5 -43q0 -46 -45 -58l42 -72h-24zM226 499h55q24 0 36 12t12 31t-12.5 31.5t-35.5 12.5h-55v-87z" />
    <glyph glyph-name="macron" unicode="&#xaf;" horiz-adv-x="487" 
d="M98 627v38h291v-38h-291z" />
    <glyph glyph-name="degree" unicode="&#xb0;" horiz-adv-x="398" 
d="M199 711q69 0 106.5 -43t37.5 -102t-37.5 -102t-106.5 -43t-106.5 43t-37.5 102t37.5 102t106.5 43zM199 447q54 0 84 35.5t30 83.5t-30 83.5t-84 35.5t-84 -35.5t-30 -83.5t30 -83.5t84 -35.5z" />
    <glyph glyph-name="plusminus" unicode="&#xb1;" horiz-adv-x="618" 
d="M90 0v37h438v-37h-438zM288 152v200h-198v38h198v200h42v-200h198v-38h-198v-200h-42z" />
    <glyph glyph-name="twosuperior" unicode="&#xb2;" horiz-adv-x="414" 
d="M80 467v29l176 167q41 39 41 76q0 32 -23.5 53t-62.5 21q-43 0 -66 -21.5t-23 -60.5v-8h-34v9q0 52 33.5 82t90.5 30q54 0 88 -29.5t34 -75.5q0 -49 -55 -100l-153 -141h203v-31h-249z" />
    <glyph glyph-name="threesuperior" unicode="&#xb3;" horiz-adv-x="415" 
d="M203 461q-50 0 -86.5 29t-41.5 77h33q5 -37 31.5 -57t64.5 -20q42 0 68.5 23t26.5 58t-25 56t-69 21h-50v29l124 131h-171v29h214v-29l-124 -131h17q52 0 86 -29t34 -75q0 -49 -38 -80.5t-94 -31.5z" />
    <glyph glyph-name="acute" unicode="&#xb4;" horiz-adv-x="338" 
d="M98 583l85 136h57l-94 -136h-48z" />
    <glyph glyph-name="mu" unicode="&#xb5;" horiz-adv-x="583" 
d="M496 508v-508h-45v103q-16 -51 -63 -83t-117 -32q-46 0 -82.5 19t-53.5 52v-233h-48v682h48v-321q0 -75 37.5 -116.5t109.5 -41.5t119 48.5t47 134.5v296h48z" />
    <glyph glyph-name="paragraph" unicode="&#xb6;" horiz-adv-x="568" 
d="M430 -174v843h-112v-462q-121 0 -188.5 66t-67.5 180q0 115 66 181t189 66h149v-874h-36z" />
    <glyph glyph-name="periodcentered" unicode="&#xb7;" horiz-adv-x="222" 
d="M72 294q0 17 11 28t28 11t28 -11t11 -28t-11 -28t-28 -11t-28 11t-11 28z" />
    <glyph glyph-name="cedilla" unicode="&#xb8;" horiz-adv-x="354" 
d="M164 -186q-34 0 -66 6v32q29 -6 60 -6q60 0 60 35q0 33 -55 36l-44 3l15 80h34l-8 -52l19 -1q34 -2 55.5 -18.5t21.5 -45.5q0 -33 -25 -51t-67 -18z" />
    <glyph glyph-name="onesuperior" unicode="&#xb9;" horiz-adv-x="292" 
d="M150 467v333l-85 -38v34l90 41h32v-370h-37z" />
    <glyph glyph-name="ordmasculine" unicode="&#xba;" horiz-adv-x="442" 
d="M88 273v28h266v-28h-266zM364 562v-42q0 -64 -38.5 -105.5t-104.5 -41.5t-104.5 41.5t-38.5 105.5v42q0 64 38.5 105.5t104.5 41.5t104.5 -41.5t38.5 -105.5zM331 520v42q0 52 -29 85.5t-81 33.5t-81 -33.5t-29 -85.5v-42q0 -52 29 -85.5t81 -33.5t81 33.5t29 85.5z" />
    <glyph glyph-name="guillemotright" unicode="&#xbb;" horiz-adv-x="586" 
d="M544 270l-177 -210h-54l176 210l-176 210h54zM293 270l-177 -210h-54l176 210l-176 210h54z" />
    <glyph glyph-name="onequarter" unicode="&#xbc;" horiz-adv-x="780" 
d="M620 0v88h-191v30l129 252h36l-126 -251h152v84h35v-84h51v-31h-51v-88h-35zM162 330v333l-85 -38v34l90 41h32v-370h-37zM165 0l365 700h39l-365 -700h-39z" />
    <glyph glyph-name="onehalf" unicode="&#xbd;" horiz-adv-x="801" 
d="M471 0v29l176 167q41 39 41 76q0 32 -23.5 53t-62.5 21q-43 0 -66 -21.5t-23 -60.5v-8h-34v9q0 52 33.5 82t90.5 30q54 0 88 -29.5t34 -75.5q0 -49 -55 -100l-153 -141h203v-31h-249zM162 330v333l-85 -38v34l90 41h32v-370h-37zM165 0l365 700h39l-365 -700h-39z" />
    <glyph glyph-name="threequarters" unicode="&#xbe;" horiz-adv-x="853" 
d="M210 324q-50 0 -86.5 29t-41.5 77h33q5 -37 31.5 -57t64.5 -20q42 0 68.5 23t26.5 58t-25 56t-69 21h-50v29l124 131h-171v29h214v-29l-124 -131h17q52 0 86 -29t34 -75q0 -49 -38 -80.5t-94 -31.5zM693 0v88h-191v30l129 252h36l-126 -251h152v84h35v-84h51v-31h-51v-88
h-35zM238 0l365 700h39l-365 -700h-39z" />
    <glyph glyph-name="questiondown" unicode="&#xbf;" horiz-adv-x="496" 
d="M301 541v-60q0 -65 -16.5 -100.5t-63.5 -70.5l-43 -32q-75 -56 -75 -127q0 -56 41.5 -91t109.5 -35t107 36.5t39 102.5v16h44v-17q0 -82 -52 -129.5t-138 -47.5q-89 0 -144 46.5t-55 118.5q0 88 80 148l48 36q44 33 59 61t15 85v60h44zM315 667q0 -17 -11 -28t-28 -11
t-28 11t-11 28t11 28t28 11t28 -11t11 -28z" />
    <glyph glyph-name="Agrave" unicode="&#xc0;" horiz-adv-x="662" 
d="M356 700l266 -700h-51l-71 192h-339l-70 -192h-51l266 700h50zM331 654l-155 -421h309zM301 763l-84 119h58l74 -119h-48z" />
    <glyph glyph-name="Aacute" unicode="&#xc1;" horiz-adv-x="662" 
d="M356 700l266 -700h-51l-71 192h-339l-70 -192h-51l266 700h50zM331 654l-155 -421h309zM317 763l74 119h58l-84 -119h-48z" />
    <glyph glyph-name="Acircumflex" unicode="&#xc2;" horiz-adv-x="662" 
d="M356 700l266 -700h-51l-71 192h-339l-70 -192h-51l266 700h50zM331 654l-155 -421h309zM354 882l114 -119h-49l-88 92l-88 -92h-49l114 119h46z" />
    <glyph glyph-name="Atilde" unicode="&#xc3;" horiz-adv-x="662" 
d="M356 700l266 -700h-51l-71 192h-339l-70 -192h-51l266 700h50zM331 654l-155 -421h309zM191 767l-34 6q9 51 29.5 77t61.5 26q33 0 94 -35.5t78 -35.5q27 0 41 35q3 8 9 28l3 11l33 -9q-23 -100 -85 -100q-25 0 -86.5 35.5t-86.5 35.5q-26 0 -38 -18.5t-19 -55.5z" />
    <glyph glyph-name="Adieresis" unicode="&#xc4;" horiz-adv-x="662" 
d="M356 700l266 -700h-51l-71 192h-339l-70 -192h-51l266 700h50zM331 654l-155 -421h309zM182 817q0 15 10 25.5t27 10.5t27 -10.5t10 -25.5q0 -14 -10 -25t-27 -11t-27 11t-10 25zM406 817q0 15 10 25.5t27 10.5t27 -10.5t10 -25.5q0 -14 -10 -25t-27 -11t-27 11t-10 25z
" />
    <glyph glyph-name="Aring" unicode="&#xc5;" horiz-adv-x="662" 
d="M91 0h-51l258 678q-25 9 -39 29t-14 46q0 34 23.5 57t62.5 23t62.5 -23t23.5 -57q0 -26 -14 -46t-39 -29l258 -678h-51l-71 192h-339zM331 654l-155 -421h309zM331 700q26 0 40.5 15t14.5 38t-14.5 38t-40.5 15t-40.5 -15t-14.5 -38t14.5 -38t40.5 -15z" />
    <glyph glyph-name="AE" unicode="&#xc6;" horiz-adv-x="1027" 
d="M519 0v199h-314l-135 -199h-53l480 700h471v-41h-400v-283h371v-42h-371v-293h401v-41h-450zM232 239h287v421z" />
    <glyph glyph-name="Ccedilla" unicode="&#xc7;" horiz-adv-x="699" 
d="M363 -186q-35 0 -66 6v32q28 -6 60 -6q60 0 60 35q0 33 -55 36l-44 3l12 67q-122 9 -187.5 91.5t-65.5 208.5v126q0 133 73.5 217t208.5 84q115 0 188 -68t82 -169h-47q-11 85 -69.5 140.5t-154.5 55.5q-112 0 -172 -71.5t-60 -187.5v-128q0 -116 60 -187.5t172 -71.5
q96 0 154.5 55.5t69.5 140.5h47q-9 -100 -80.5 -167.5t-183.5 -69.5l-6 -38l19 -1q34 -2 55.5 -18.5t21.5 -45.5q0 -33 -25 -51t-67 -18z" />
    <glyph glyph-name="Egrave" unicode="&#xc8;" horiz-adv-x="605" 
d="M97 0v700h449v-41h-400v-283h371v-42h-371v-293h401v-41h-450zM305 763l-84 119h58l74 -119h-48z" />
    <glyph glyph-name="Eacute" unicode="&#xc9;" horiz-adv-x="605" 
d="M97 0v700h449v-41h-400v-283h371v-42h-371v-293h401v-41h-450zM288 763l74 119h58l-84 -119h-48z" />
    <glyph glyph-name="Ecircumflex" unicode="&#xca;" horiz-adv-x="605" 
d="M97 0v700h449v-41h-400v-283h371v-42h-371v-293h401v-41h-450zM347 882l114 -119h-49l-88 92l-88 -92h-49l114 119h46z" />
    <glyph glyph-name="Edieresis" unicode="&#xcb;" horiz-adv-x="605" 
d="M97 0v700h449v-41h-400v-283h371v-42h-371v-293h401v-41h-450zM175 817q0 15 10 25.5t27 10.5t27 -10.5t10 -25.5q0 -14 -10.5 -25t-26.5 -11t-26.5 11t-10.5 25zM399 817q0 15 10 25.5t27 10.5t27 -10.5t10 -25.5q0 -14 -10.5 -25t-26.5 -11t-26.5 11t-10.5 25z" />
    <glyph glyph-name="Igrave" unicode="&#xcc;" horiz-adv-x="253" 
d="M102 0v700h49v-700h-49zM98 763l-84 119h58l74 -119h-48z" />
    <glyph glyph-name="Iacute" unicode="&#xcd;" horiz-adv-x="253" 
d="M102 0v700h49v-700h-49zM107 763l74 119h58l-84 -119h-48z" />
    <glyph glyph-name="Icircumflex" unicode="&#xce;" horiz-adv-x="253" 
d="M102 0v700h49v-700h-49zM149 882l114 -119h-49l-88 92l-88 -92h-49l114 119h46z" />
    <glyph glyph-name="Idieresis" unicode="&#xcf;" horiz-adv-x="253" 
d="M102 0v700h49v-700h-49zM-23 817q0 15 10 25.5t27 10.5t27 -10.5t10 -25.5q0 -14 -10 -25t-27 -11q-16 0 -26.5 11t-10.5 25zM201 817q0 15 10 25.5t27 10.5t27 -10.5t10 -25.5q0 -14 -10 -25t-27 -11q-16 0 -26.5 11t-10.5 25z" />
    <glyph glyph-name="Eth" unicode="&#xd0;" horiz-adv-x="730" 
d="M45 331v38h85v331h249q129 0 202.5 -76t73.5 -193v-162q0 -117 -73.5 -193t-202.5 -76h-249v331h-85zM606 430q0 104 -61.5 166.5t-171.5 62.5h-194v-290h201v-38h-201v-290h194q110 0 171.5 62.5t61.5 166.5v160z" />
    <glyph glyph-name="Ntilde" unicode="&#xd1;" 
d="M97 0v700h46l419 -621v621h47v-700h-46l-419 620v-620h-47zM216 767l-34 6q9 51 29.5 77t61.5 26q33 0 94 -35.5t78 -35.5q27 0 41 35q3 8 9 28l3 11l33 -9q-23 -100 -85 -100q-25 0 -86.5 35.5t-86.5 35.5q-26 0 -38 -18.5t-19 -55.5z" />
    <glyph glyph-name="Ograve" unicode="&#xd2;" horiz-adv-x="724" 
d="M647 410v-120q0 -131 -73.5 -217.5t-211.5 -86.5t-211.5 86.5t-73.5 217.5v120q0 131 73.5 217.5t211.5 86.5t211.5 -86.5t73.5 -217.5zM599 288v124q0 113 -60 187.5t-177 74.5t-177 -74.5t-60 -187.5v-124q0 -113 60 -187.5t177 -74.5t177 74.5t60 187.5zM332 763
l-84 119h58l74 -119h-48z" />
    <glyph glyph-name="Oacute" unicode="&#xd3;" horiz-adv-x="724" 
d="M647 410v-120q0 -131 -73.5 -217.5t-211.5 -86.5t-211.5 86.5t-73.5 217.5v120q0 131 73.5 217.5t211.5 86.5t211.5 -86.5t73.5 -217.5zM599 288v124q0 113 -60 187.5t-177 74.5t-177 -74.5t-60 -187.5v-124q0 -113 60 -187.5t177 -74.5t177 74.5t60 187.5zM336 763
l74 119h58l-84 -119h-48z" />
    <glyph glyph-name="Ocircumflex" unicode="&#xd4;" horiz-adv-x="724" 
d="M647 410v-120q0 -131 -73.5 -217.5t-211.5 -86.5t-211.5 86.5t-73.5 217.5v120q0 131 73.5 217.5t211.5 86.5t211.5 -86.5t73.5 -217.5zM599 288v124q0 113 -60 187.5t-177 74.5t-177 -74.5t-60 -187.5v-124q0 -113 60 -187.5t177 -74.5t177 74.5t60 187.5zM385 882
l114 -119h-49l-88 92l-88 -92h-49l114 119h46z" />
    <glyph glyph-name="Otilde" unicode="&#xd5;" horiz-adv-x="724" 
d="M647 410v-120q0 -131 -73.5 -217.5t-211.5 -86.5t-211.5 86.5t-73.5 217.5v120q0 131 73.5 217.5t211.5 86.5t211.5 -86.5t73.5 -217.5zM599 288v124q0 113 -60 187.5t-177 74.5t-177 -74.5t-60 -187.5v-124q0 -113 60 -187.5t177 -74.5t177 74.5t60 187.5zM225 767
l-34 6q9 51 29.5 77t61.5 26q33 0 94 -35.5t78 -35.5q27 0 41 35q3 8 9 28l3 11l33 -9q-23 -100 -85 -100q-25 0 -86.5 35.5t-86.5 35.5q-26 0 -38 -18.5t-19 -55.5z" />
    <glyph glyph-name="Odieresis" unicode="&#xd6;" horiz-adv-x="724" 
d="M647 410v-120q0 -131 -73.5 -217.5t-211.5 -86.5t-211.5 86.5t-73.5 217.5v120q0 131 73.5 217.5t211.5 86.5t211.5 -86.5t73.5 -217.5zM599 288v124q0 113 -60 187.5t-177 74.5t-177 -74.5t-60 -187.5v-124q0 -113 60 -187.5t177 -74.5t177 74.5t60 187.5zM213 817
q0 15 10 25.5t27 10.5t27 -10.5t10 -25.5q0 -14 -10.5 -25t-26.5 -11t-26.5 11t-10.5 25zM437 817q0 15 10 25.5t27 10.5t27 -10.5t10 -25.5q0 -14 -10.5 -25t-26.5 -11t-26.5 11t-10.5 25z" />
    <glyph glyph-name="multiply" unicode="&#xd7;" horiz-adv-x="561" 
d="M113 165l-28 29l167 166l-167 168l28 28l167 -167l168 167l28 -28l-168 -168l168 -166l-28 -29l-168 167z" />
    <glyph glyph-name="Oslash" unicode="&#xd8;" horiz-adv-x="724" 
d="M647 410v-120q0 -131 -73.5 -217.5t-211.5 -86.5q-110 0 -181 57l-62 -93h-42l77 118q-77 83 -77 222v120q0 131 73.5 217.5t211.5 86.5q108 0 181 -58l62 94h42l-78 -118q78 -84 78 -222zM599 288v124q0 110 -56 181l-338 -513q60 -54 157 -54q117 0 177 74.5t60 187.5z
M125 288q0 -112 55 -181l339 513q-62 54 -157 54q-117 0 -177 -74.5t-60 -187.5v-124z" />
    <glyph glyph-name="Ugrave" unicode="&#xd9;" 
d="M353 -14q-118 0 -189 68t-71 174v472h49v-477q0 -88 57 -142t154 -54t154 54t57 142v477h49v-472q0 -106 -71 -174t-189 -68zM343 763l-84 119h58l74 -119h-48z" />
    <glyph glyph-name="Uacute" unicode="&#xda;" 
d="M353 -14q-118 0 -189 68t-71 174v472h49v-477q0 -88 57 -142t154 -54t154 54t57 142v477h49v-472q0 -106 -71 -174t-189 -68zM314 763l74 119h58l-84 -119h-48z" />
    <glyph glyph-name="Ucircumflex" unicode="&#xdb;" 
d="M353 -14q-118 0 -189 68t-71 174v472h49v-477q0 -88 57 -142t154 -54t154 54t57 142v477h49v-472q0 -106 -71 -174t-189 -68zM376 882l114 -119h-49l-88 92l-88 -92h-49l114 119h46z" />
    <glyph glyph-name="Udieresis" unicode="&#xdc;" 
d="M353 -14q-118 0 -189 68t-71 174v472h49v-477q0 -88 57 -142t154 -54t154 54t57 142v477h49v-472q0 -106 -71 -174t-189 -68zM204 817q0 15 10 25.5t27 10.5t27 -10.5t10 -25.5q0 -14 -10 -25t-27 -11t-27 11t-10 25zM428 817q0 15 10 25.5t27 10.5t27 -10.5t10 -25.5
q0 -14 -10 -25t-27 -11t-27 11t-10 25z" />
    <glyph glyph-name="Yacute" unicode="&#xdd;" horiz-adv-x="582" 
d="M315 271v-271h-48v271l-251 429h51l224 -384l224 384h51zM266 763l74 119h58l-84 -119h-48z" />
    <glyph glyph-name="Thorn" unicode="&#xde;" horiz-adv-x="631" 
d="M97 0v700h49v-128h217q104 0 166 -61.5t62 -154.5t-62 -155t-166 -62h-217v-139h-49zM146 180h212q90 0 137 50.5t47 125.5t-47 125t-137 50h-212v-351z" />
    <glyph glyph-name="germandbls" unicode="&#xdf;" horiz-adv-x="591" 
d="M87 0v542q0 91 55.5 141.5t148.5 50.5t149.5 -53t56.5 -134q0 -61 -33 -107t-90 -68q69 -9 116 -57t47 -124q0 -85 -58.5 -138t-149.5 -53h-39v39h37q73 0 118 41.5t45 112.5q0 68 -49 111.5t-126 43.5h-25v39q75 5 117.5 50t42.5 107q0 66 -43.5 108.5t-115.5 42.5
q-70 0 -113 -37.5t-43 -114.5v-543h-48z" />
    <glyph glyph-name="agrave" unicode="&#xe0;" horiz-adv-x="555" 
d="M248 -12q-88 0 -142 45.5t-54 117.5q0 73 56.5 115t147.5 42q55 0 102.5 -22.5t70.5 -53.5v101q0 64 -39.5 106t-105.5 42q-110 0 -149 -94h-45q18 62 70 97.5t124 35.5q85 0 139 -52.5t54 -132.5v-335h-46v71q-22 -34 -72 -58.5t-111 -24.5zM251 25q70 0 124 33.5
t54 91.5q0 54 -54 87t-119 33q-70 0 -114 -31t-44 -89q0 -57 42 -91t111 -34zM224 719l85 -136h-48l-94 136h57z" />
    <glyph glyph-name="aacute" unicode="&#xe1;" horiz-adv-x="555" 
d="M248 -12q-88 0 -142 45.5t-54 117.5q0 73 56.5 115t147.5 42q55 0 102.5 -22.5t70.5 -53.5v101q0 64 -39.5 106t-105.5 42q-110 0 -149 -94h-45q18 62 70 97.5t124 35.5q85 0 139 -52.5t54 -132.5v-335h-46v71q-22 -34 -72 -58.5t-111 -24.5zM251 25q70 0 124 33.5
t54 91.5q0 54 -54 87t-119 33q-70 0 -114 -31t-44 -89q0 -57 42 -91t111 -34zM256 583l85 136h57l-94 -136h-48z" />
    <glyph glyph-name="acircumflex" unicode="&#xe2;" horiz-adv-x="555" 
d="M248 -12q-88 0 -142 45.5t-54 117.5q0 73 56.5 115t147.5 42q55 0 102.5 -22.5t70.5 -53.5v101q0 64 -39.5 106t-105.5 42q-110 0 -149 -94h-45q18 62 70 97.5t124 35.5q85 0 139 -52.5t54 -132.5v-335h-46v71q-22 -34 -72 -58.5t-111 -24.5zM251 25q70 0 124 33.5
t54 91.5q0 54 -54 87t-119 33q-70 0 -114 -31t-44 -89q0 -57 42 -91t111 -34zM310 719l110 -136h-47l-86 106l-86 -106h-47l110 136h46z" />
    <glyph glyph-name="atilde" unicode="&#xe3;" horiz-adv-x="555" 
d="M248 -12q-88 0 -142 45.5t-54 117.5q0 73 56.5 115t147.5 42q55 0 102.5 -22.5t70.5 -53.5v101q0 64 -39.5 106t-105.5 42q-110 0 -149 -94h-45q18 62 70 97.5t124 35.5q85 0 139 -52.5t54 -132.5v-335h-46v71q-22 -34 -72 -58.5t-111 -24.5zM251 25q70 0 124 33.5
t54 91.5q0 54 -54 87t-119 33q-70 0 -114 -31t-44 -89q0 -57 42 -91t111 -34zM156 591l-34 7q16 102 90 102q33 0 87.5 -35.5t71.5 -35.5q12 0 21 5.5t14.5 19.5t7.5 21t7 28l34 -7q-7 -29 -14.5 -48.5t-25.5 -36t-44 -16.5q-25 0 -79 35.5t-79 35.5q-26 0 -37 -18t-20 -57z
" />
    <glyph glyph-name="adieresis" unicode="&#xe4;" horiz-adv-x="555" 
d="M248 -12q-88 0 -142 45.5t-54 117.5q0 73 56.5 115t147.5 42q55 0 102.5 -22.5t70.5 -53.5v101q0 64 -39.5 106t-105.5 42q-110 0 -149 -94h-45q18 62 70 97.5t124 35.5q85 0 139 -52.5t54 -132.5v-335h-46v71q-22 -34 -72 -58.5t-111 -24.5zM251 25q70 0 124 33.5
t54 91.5q0 54 -54 87t-119 33q-70 0 -114 -31t-44 -89q0 -57 42 -91t111 -34zM151 646q0 15 10 25.5t27 10.5t27 -10.5t10 -25.5q0 -14 -10.5 -25t-26.5 -11t-26.5 11t-10.5 25zM353 646q0 15 10 25.5t27 10.5t27 -10.5t10 -25.5q0 -14 -10.5 -25t-26.5 -11t-26.5 11
t-10.5 25z" />
    <glyph glyph-name="aring" unicode="&#xe5;" horiz-adv-x="555" 
d="M248 -12q-88 0 -142 45.5t-54 117.5q0 73 56.5 115t147.5 42q55 0 102.5 -22.5t70.5 -53.5v101q0 64 -39.5 106t-105.5 42q-110 0 -149 -94h-45q18 62 70 97.5t124 35.5q85 0 139 -52.5t54 -132.5v-335h-46v71q-22 -34 -72 -58.5t-111 -24.5zM251 25q70 0 124 33.5
t54 91.5q0 54 -54 87t-119 33q-70 0 -114 -31t-44 -89q0 -57 42 -91t111 -34zM287 610q26 0 40.5 15t14.5 38t-14.5 38t-40.5 15t-40.5 -15t-14.5 -38t14.5 -38t40.5 -15zM287 583q-39 0 -62.5 23t-23.5 57t23.5 57t62.5 23t62.5 -23t23.5 -57t-23.5 -57t-62.5 -23z" />
    <glyph glyph-name="ae" unicode="&#xe6;" horiz-adv-x="922" 
d="M649 -12q-67 0 -117 28t-77 78q-20 -45 -74.5 -75.5t-124.5 -30.5q-95 0 -149.5 47t-54.5 117q0 74 56 116t148 42q54 0 102 -21t71 -50v93q0 62 -40 105.5t-106 43.5q-110 0 -148 -95h-44q19 64 68.5 99t123.5 35q60 0 105.5 -28.5t68.5 -75.5q54 104 189 104
q98 0 154 -63t56 -156v-68h-379v-30q0 -77 45.5 -127t126.5 -50q60 0 101 31t57 84h42q-15 -68 -69.5 -110.5t-130.5 -42.5zM253 25q72 0 124 35t52 93q0 54 -54 86.5t-120 32.5q-69 0 -113 -31t-44 -90q0 -57 43 -91.5t112 -34.5zM477 296v-24h333v31q0 79 -42.5 129
t-121.5 50q-83 0 -126 -50t-43 -136z" />
    <glyph glyph-name="ccedilla" unicode="&#xe7;" horiz-adv-x="557" 
d="M284 -186q-35 0 -66 6v32q28 -6 60 -6q60 0 60 35q0 33 -55 36l-44 3l13 70q-87 8 -139 68.5t-52 150.5v90q0 97 60 159t159 62q90 0 147 -52t67 -133h-44q-11 65 -54 105.5t-116 40.5q-80 0 -125.5 -51.5t-45.5 -131.5v-88q0 -80 45.5 -131.5t125.5 -51.5q73 0 116 40.5
t54 105.5h44q-10 -80 -65 -131.5t-143 -53.5l-6 -40l19 -1q34 -2 55.5 -18.5t21.5 -45.5q0 -33 -25 -51t-67 -18z" />
    <glyph glyph-name="egrave" unicode="&#xe8;" horiz-adv-x="553" 
d="M280 -12q-100 0 -159.5 60t-59.5 158v88q0 103 57.5 164.5t158.5 61.5q98 0 154 -63t56 -156v-68h-379v-30q0 -77 45.5 -127t126.5 -50q60 0 101 31t57 84h42q-15 -68 -69.5 -110.5t-130.5 -42.5zM108 296v-24h333v31q0 79 -42.5 129t-121.5 50q-83 0 -126 -50t-43 -136z
M214 719l85 -136h-48l-94 136h57z" />
    <glyph glyph-name="eacute" unicode="&#xe9;" horiz-adv-x="553" 
d="M280 -12q-100 0 -159.5 60t-59.5 158v88q0 103 57.5 164.5t158.5 61.5q98 0 154 -63t56 -156v-68h-379v-30q0 -77 45.5 -127t126.5 -50q60 0 101 31t57 84h42q-15 -68 -69.5 -110.5t-130.5 -42.5zM108 296v-24h333v31q0 79 -42.5 129t-121.5 50q-83 0 -126 -50t-43 -136z
M246 583l85 136h57l-94 -136h-48z" />
    <glyph glyph-name="ecircumflex" unicode="&#xea;" horiz-adv-x="553" 
d="M280 -12q-100 0 -159.5 60t-59.5 158v88q0 103 57.5 164.5t158.5 61.5q98 0 154 -63t56 -156v-68h-379v-30q0 -77 45.5 -127t126.5 -50q60 0 101 31t57 84h42q-15 -68 -69.5 -110.5t-130.5 -42.5zM108 296v-24h333v31q0 79 -42.5 129t-121.5 50q-83 0 -126 -50t-43 -136z
M300 719l110 -136h-47l-86 106l-86 -106h-47l110 136h46z" />
    <glyph glyph-name="edieresis" unicode="&#xeb;" horiz-adv-x="553" 
d="M280 -12q-100 0 -159.5 60t-59.5 158v88q0 103 57.5 164.5t158.5 61.5q98 0 154 -63t56 -156v-68h-379v-30q0 -77 45.5 -127t126.5 -50q60 0 101 31t57 84h42q-15 -68 -69.5 -110.5t-130.5 -42.5zM108 296v-24h333v31q0 79 -42.5 129t-121.5 50q-83 0 -126 -50t-43 -136z
M140 646q0 15 10 25.5t27 10.5t27 -10.5t10 -25.5q0 -14 -10 -25t-27 -11t-27 11t-10 25zM342 646q0 15 10 25.5t27 10.5t27 -10.5t10 -25.5q0 -14 -10 -25t-27 -11t-27 11t-10 25z" />
    <glyph glyph-name="igrave" unicode="&#xec;" horiz-adv-x="232" 
d="M92 0v508h48v-508h-48zM52 719l85 -136h-48l-94 136h57z" />
    <glyph glyph-name="iacute" unicode="&#xed;" horiz-adv-x="232" 
d="M92 0v508h48v-508h-48zM96 583l85 136h57l-94 -136h-48z" />
    <glyph glyph-name="icircumflex" unicode="&#xee;" horiz-adv-x="232" 
d="M92 0v508h48v-508h-48zM139 719l110 -136h-47l-86 106l-86 -106h-47l110 136h46z" />
    <glyph glyph-name="idieresis" unicode="&#xef;" horiz-adv-x="232" 
d="M92 0v508h48v-508h-48zM-22 646q0 15 10 25.5t27 10.5t27 -10.5t10 -25.5q0 -14 -10 -25t-27 -11q-16 0 -26.5 11t-10.5 25zM180 646q0 15 10 25.5t27 10.5t27 -10.5t10 -25.5q0 -14 -10 -25t-27 -11t-27 11t-10 25z" />
    <glyph glyph-name="eth" unicode="&#xf0;" horiz-adv-x="561" 
d="M149 568l-12 33l138 41q-48 41 -128 88h61q59 -30 111 -74l113 34l11 -34l-93 -28q66 -64 108 -153t42 -182v-78q0 -99 -60.5 -164t-160.5 -65q-99 0 -158.5 62.5t-59.5 156.5v65q0 106 56.5 167.5t152.5 61.5q64 0 110 -29.5t65 -73.5q-36 126 -138 219zM279 25
q81 0 127 52t46 133v61q0 80 -51 134.5t-120 54.5q-82 0 -127 -50t-45 -139v-68q0 -81 46.5 -129.5t123.5 -48.5z" />
    <glyph glyph-name="ntilde" unicode="&#xf1;" horiz-adv-x="582" 
d="M87 0v508h45v-103q18 52 65 83.5t117 31.5q85 0 135.5 -53.5t50.5 -147.5v-319h-48v313q0 79 -37.5 122.5t-111.5 43.5q-72 0 -120 -48.5t-48 -134.5v-296h-48zM158 591l-34 7q16 102 90 102q33 0 87.5 -35.5t71.5 -35.5q12 0 21 5.5t14.5 19.5t7.5 21t7 28l34 -7
q-7 -29 -14.5 -48.5t-25.5 -36t-44 -16.5q-25 0 -79 35.5t-79 35.5q-26 0 -37 -18t-20 -57z" />
    <glyph glyph-name="ograve" unicode="&#xf2;" horiz-adv-x="560" 
d="M280 -12q-101 0 -160 62.5t-59 158.5v90q0 96 59 158.5t160 62.5t160 -62.5t59 -158.5v-90q0 -96 -59 -158.5t-160 -62.5zM453 297q0 81 -46 132.5t-127 51.5t-127 -51.5t-46 -132.5v-86q0 -81 46 -132.5t127 -51.5t127 51.5t46 132.5v86zM220 719l85 -136h-48l-94 136
h57z" />
    <glyph glyph-name="oacute" unicode="&#xf3;" horiz-adv-x="560" 
d="M280 -12q-101 0 -160 62.5t-59 158.5v90q0 96 59 158.5t160 62.5t160 -62.5t59 -158.5v-90q0 -96 -59 -158.5t-160 -62.5zM453 297q0 81 -46 132.5t-127 51.5t-127 -51.5t-46 -132.5v-86q0 -81 46 -132.5t127 -51.5t127 51.5t46 132.5v86zM255 583l85 136h57l-94 -136
h-48z" />
    <glyph glyph-name="ocircumflex" unicode="&#xf4;" horiz-adv-x="560" 
d="M280 -12q-101 0 -160 62.5t-59 158.5v90q0 96 59 158.5t160 62.5t160 -62.5t59 -158.5v-90q0 -96 -59 -158.5t-160 -62.5zM453 297q0 81 -46 132.5t-127 51.5t-127 -51.5t-46 -132.5v-86q0 -81 46 -132.5t127 -51.5t127 51.5t46 132.5v86zM303 719l110 -136h-47l-86 106
l-86 -106h-47l110 136h46z" />
    <glyph glyph-name="otilde" unicode="&#xf5;" horiz-adv-x="560" 
d="M280 -12q-101 0 -160 62.5t-59 158.5v90q0 96 59 158.5t160 62.5t160 -62.5t59 -158.5v-90q0 -96 -59 -158.5t-160 -62.5zM453 297q0 81 -46 132.5t-127 51.5t-127 -51.5t-46 -132.5v-86q0 -81 46 -132.5t127 -51.5t127 51.5t46 132.5v86zM149 591l-34 7q16 102 90 102
q33 0 87.5 -35.5t71.5 -35.5q12 0 21 5.5t14.5 19.5t7.5 21t7 28l34 -7q-7 -29 -14.5 -48.5t-25.5 -36t-44 -16.5q-24 0 -78.5 35.5t-79.5 35.5q-26 0 -37 -18t-20 -57z" />
    <glyph glyph-name="odieresis" unicode="&#xf6;" horiz-adv-x="560" 
d="M280 -12q-101 0 -160 62.5t-59 158.5v90q0 96 59 158.5t160 62.5t160 -62.5t59 -158.5v-90q0 -96 -59 -158.5t-160 -62.5zM453 297q0 81 -46 132.5t-127 51.5t-127 -51.5t-46 -132.5v-86q0 -81 46 -132.5t127 -51.5t127 51.5t46 132.5v86zM142 646q0 15 10 25.5t27 10.5
t27 -10.5t10 -25.5q0 -14 -10 -25t-27 -11t-27 11t-10 25zM344 646q0 15 10 25.5t27 10.5t27 -10.5t10 -25.5q0 -14 -10 -25t-27 -11t-27 11t-10 25z" />
    <glyph glyph-name="divide" unicode="&#xf7;" horiz-adv-x="594" 
d="M85 340v40h424v-40h-424zM260 172q0 16 10.5 26.5t26.5 10.5t26.5 -10.5t10.5 -26.5t-10.5 -26.5t-26.5 -10.5t-26.5 10.5t-10.5 26.5zM260 548q0 16 10.5 26.5t26.5 10.5t26.5 -10.5t10.5 -26.5t-10.5 -26.5t-26.5 -10.5t-26.5 10.5t-10.5 26.5z" />
    <glyph glyph-name="oslash" unicode="&#xf8;" horiz-adv-x="560" 
d="M280 -12q-77 0 -131 37l-49 -75h-39l63 96q-63 61 -63 163v90q0 96 59 158.5t160 62.5q74 0 130 -37l50 76h39l-64 -97q64 -62 64 -163v-90q0 -96 -59 -158.5t-160 -62.5zM453 297q0 77 -42 128l-239 -365q44 -33 108 -33q81 0 127 51.5t46 132.5v86zM107 211
q0 -78 41 -128l239 365q-44 33 -107 33q-81 0 -127 -51.5t-46 -132.5v-86z" />
    <glyph glyph-name="ugrave" unicode="&#xf9;" horiz-adv-x="578" 
d="M491 508v-508h-45v103q-16 -51 -63 -83t-117 -32q-85 0 -134.5 53.5t-49.5 147.5v319h48v-313q0 -79 37 -122.5t110 -43.5q72 0 119 48.5t47 134.5v296h48zM238 719l85 -136h-48l-94 136h57z" />
    <glyph glyph-name="uacute" unicode="&#xfa;" horiz-adv-x="578" 
d="M491 508v-508h-45v103q-16 -51 -63 -83t-117 -32q-85 0 -134.5 53.5t-49.5 147.5v319h48v-313q0 -79 37 -122.5t110 -43.5q72 0 119 48.5t47 134.5v296h48zM255 583l85 136h57l-94 -136h-48z" />
    <glyph glyph-name="ucircumflex" unicode="&#xfb;" horiz-adv-x="578" 
d="M491 508v-508h-45v103q-16 -51 -63 -83t-117 -32q-85 0 -134.5 53.5t-49.5 147.5v319h48v-313q0 -79 37 -122.5t110 -43.5q72 0 119 48.5t47 134.5v296h48zM316 719l110 -136h-47l-86 106l-86 -106h-47l110 136h46z" />
    <glyph glyph-name="udieresis" unicode="&#xfc;" horiz-adv-x="578" 
d="M491 508v-508h-45v103q-16 -51 -63 -83t-117 -32q-85 0 -134.5 53.5t-49.5 147.5v319h48v-313q0 -79 37 -122.5t110 -43.5q72 0 119 48.5t47 134.5v296h48zM153 646q0 15 10 25.5t27 10.5t27 -10.5t10 -25.5q0 -14 -10.5 -25t-26.5 -11t-26.5 11t-10.5 25zM355 646
q0 15 10 25.5t27 10.5t27 -10.5t10 -25.5q0 -14 -10.5 -25t-26.5 -11t-26.5 11t-10.5 25z" />
    <glyph glyph-name="yacute" unicode="&#xfd;" horiz-adv-x="493" 
d="M164 -174l60 174l-190 508h49l165 -450l162 450h49l-185 -506l-63 -176h-47zM219 583l85 136h57l-94 -136h-48z" />
    <glyph glyph-name="thorn" unicode="&#xfe;" horiz-adv-x="587" 
d="M135 -174h-48v904h48v-316q54 106 182 106q96 0 152.5 -62t56.5 -159v-90q0 -97 -56.5 -159t-152.5 -62q-65 0 -113 29.5t-69 76.5v-268zM478 212v84q0 82 -44 133.5t-125 51.5q-74 0 -124 -53.5t-50 -133.5v-80q0 -80 49.5 -133.5t123.5 -53.5q81 0 125.5 51.5
t44.5 133.5z" />
    <glyph glyph-name="ydieresis" unicode="&#xff;" horiz-adv-x="493" 
d="M164 -174l60 174l-190 508h49l165 -450l162 450h49l-185 -506l-63 -176h-47zM108 646q0 15 10 25.5t27 10.5t27 -10.5t10 -25.5q0 -14 -10 -25t-27 -11t-27 11t-10 25zM310 646q0 15 10 25.5t27 10.5t27 -10.5t10 -25.5q0 -14 -10 -25t-27 -11t-27 11t-10 25z" />
    <glyph glyph-name="Amacron" unicode="&#x100;" horiz-adv-x="662" 
d="M356 700l266 -700h-51l-71 192h-339l-70 -192h-51l266 700h50zM331 654l-155 -421h309zM180 805v38h303v-38h-303z" />
    <glyph glyph-name="amacron" unicode="&#x101;" horiz-adv-x="555" 
d="M248 -12q-88 0 -142 45.5t-54 117.5q0 73 56.5 115t147.5 42q55 0 102.5 -22.5t70.5 -53.5v101q0 64 -39.5 106t-105.5 42q-110 0 -149 -94h-45q18 62 70 97.5t124 35.5q85 0 139 -52.5t54 -132.5v-335h-46v71q-22 -34 -72 -58.5t-111 -24.5zM251 25q70 0 124 33.5
t54 91.5q0 54 -54 87t-119 33q-70 0 -114 -31t-44 -89q0 -57 42 -91t111 -34zM143 627v38h291v-38h-291z" />
    <glyph glyph-name="Abreve" unicode="&#x102;" horiz-adv-x="662" 
d="M356 700l266 -700h-51l-71 192h-339l-70 -192h-51l266 700h50zM331 654l-155 -421h309zM331 763q-70 0 -110 33t-43 86h39q3 -39 32.5 -62.5t81.5 -23.5t81.5 23.5t32.5 62.5h39q-3 -53 -43 -86t-110 -33z" />
    <glyph glyph-name="abreve" unicode="&#x103;" horiz-adv-x="555" 
d="M248 -12q-88 0 -142 45.5t-54 117.5q0 73 56.5 115t147.5 42q55 0 102.5 -22.5t70.5 -53.5v101q0 64 -39.5 106t-105.5 42q-110 0 -149 -94h-45q18 62 70 97.5t124 35.5q85 0 139 -52.5t54 -132.5v-335h-46v71q-22 -34 -72 -58.5t-111 -24.5zM251 25q70 0 124 33.5
t54 91.5q0 54 -54 87t-119 33q-70 0 -114 -31t-44 -89q0 -57 42 -91t111 -34zM290 583q-70 0 -109 38.5t-39 97.5h38q0 -47 28 -75.5t82 -28.5t82 28.5t28 75.5h38q0 -59 -39 -97.5t-109 -38.5z" />
    <glyph glyph-name="Aogonek" unicode="&#x104;" horiz-adv-x="662" 
d="M569 -186q-40 0 -62.5 20.5t-22.5 55.5q0 39 27.5 68t59.5 42l-71 192h-339l-70 -192h-51l266 700h50l266 -700q-27 -15 -44.5 -26.5t-34.5 -33.5t-17 -47q0 -44 57 -44q19 0 34 3v-32q-22 -6 -48 -6zM331 654l-155 -421h309z" />
    <glyph glyph-name="aogonek" unicode="&#x105;" horiz-adv-x="555" 
d="M248 -12q-88 0 -142 45.5t-54 117.5q0 73 56.5 115t147.5 42q55 0 102.5 -22.5t70.5 -53.5v101q0 64 -39.5 106t-105.5 42q-110 0 -149 -94h-45q18 62 70 97.5t124 35.5q85 0 139 -52.5t54 -132.5v-335q-30 -18 -46.5 -30t-30.5 -32.5t-14 -44.5q0 -44 57 -44q19 0 34 3
v-32q-22 -6 -48 -6q-40 0 -62.5 20.5t-22.5 55.5q0 39 25 67t62 43v71q-22 -34 -72 -58.5t-111 -24.5zM251 25q70 0 124 33.5t54 91.5q0 54 -54 87t-119 33q-70 0 -114 -31t-44 -89q0 -57 42 -91t111 -34z" />
    <glyph glyph-name="Cacute" unicode="&#x106;" horiz-adv-x="699" 
d="M359 -14q-135 0 -208.5 84t-73.5 217v126q0 133 73.5 217t208.5 84q115 0 188 -68t82 -169h-47q-11 85 -69.5 140.5t-154.5 55.5q-112 0 -172 -71.5t-60 -187.5v-128q0 -116 60 -187.5t172 -71.5q96 0 154.5 55.5t69.5 140.5h47q-9 -101 -82 -169t-188 -68zM327 763
l74 119h58l-84 -119h-48z" />
    <glyph glyph-name="cacute" unicode="&#x107;" horiz-adv-x="557" 
d="M280 -12q-99 0 -159 62t-60 159v90q0 97 60 159t159 62q90 0 147 -52t67 -133h-44q-11 65 -54 105.5t-116 40.5q-80 0 -125.5 -51.5t-45.5 -131.5v-88q0 -80 45.5 -131.5t125.5 -51.5q73 0 116 40.5t54 105.5h44q-10 -81 -67 -133t-147 -52zM258 583l85 136h57l-94 -136
h-48z" />
    <glyph glyph-name="Ccircumflex" unicode="&#x108;" horiz-adv-x="699" 
d="M359 -14q-135 0 -208.5 84t-73.5 217v126q0 133 73.5 217t208.5 84q115 0 188 -68t82 -169h-47q-11 85 -69.5 140.5t-154.5 55.5q-112 0 -172 -71.5t-60 -187.5v-128q0 -116 60 -187.5t172 -71.5q96 0 154.5 55.5t69.5 140.5h47q-9 -101 -82 -169t-188 -68zM380 882
l114 -119h-49l-88 92l-88 -92h-49l114 119h46z" />
    <glyph glyph-name="ccircumflex" unicode="&#x109;" horiz-adv-x="557" 
d="M280 -12q-99 0 -159 62t-60 159v90q0 97 60 159t159 62q90 0 147 -52t67 -133h-44q-11 65 -54 105.5t-116 40.5q-80 0 -125.5 -51.5t-45.5 -131.5v-88q0 -80 45.5 -131.5t125.5 -51.5q73 0 116 40.5t54 105.5h44q-10 -81 -67 -133t-147 -52zM304 719l110 -136h-47
l-86 106l-86 -106h-47l110 136h46z" />
    <glyph glyph-name="Cdotaccent" unicode="&#x10a;" horiz-adv-x="699" 
d="M359 -14q-135 0 -208.5 84t-73.5 217v126q0 133 73.5 217t208.5 84q115 0 188 -68t82 -169h-47q-11 85 -69.5 140.5t-154.5 55.5q-112 0 -172 -71.5t-60 -187.5v-128q0 -116 60 -187.5t172 -71.5q96 0 154.5 55.5t69.5 140.5h47q-9 -101 -82 -169t-188 -68zM316 818
q0 16 10.5 26.5t27.5 10.5t27.5 -10.5t10.5 -26.5q0 -14 -10.5 -25.5t-27.5 -11.5t-27.5 11.5t-10.5 25.5z" />
    <glyph glyph-name="cdotaccent" unicode="&#x10b;" horiz-adv-x="557" 
d="M280 -12q-99 0 -159 62t-60 159v90q0 97 60 159t159 62q90 0 147 -52t67 -133h-44q-11 65 -54 105.5t-116 40.5q-80 0 -125.5 -51.5t-45.5 -131.5v-88q0 -80 45.5 -131.5t125.5 -51.5q73 0 116 40.5t54 105.5h44q-10 -81 -67 -133t-147 -52zM239 658q0 16 10.5 26.5
t27.5 10.5t27.5 -10.5t10.5 -26.5q0 -14 -10.5 -25.5t-27.5 -11.5t-27.5 11.5t-10.5 25.5z" />
    <glyph glyph-name="Ccaron" unicode="&#x10c;" horiz-adv-x="699" 
d="M359 -14q-135 0 -208.5 84t-73.5 217v126q0 133 73.5 217t208.5 84q115 0 188 -68t82 -169h-47q-11 85 -69.5 140.5t-154.5 55.5q-112 0 -172 -71.5t-60 -187.5v-128q0 -116 60 -187.5t172 -71.5q96 0 154.5 55.5t69.5 140.5h47q-9 -101 -82 -169t-188 -68zM497 882
l-114 -119h-46l-114 119h49l88 -92l88 92h49z" />
    <glyph glyph-name="ccaron" unicode="&#x10d;" horiz-adv-x="557" 
d="M280 -12q-99 0 -159 62t-60 159v90q0 97 60 159t159 62q90 0 147 -52t67 -133h-44q-11 65 -54 105.5t-116 40.5q-80 0 -125.5 -51.5t-45.5 -131.5v-88q0 -80 45.5 -131.5t125.5 -51.5q73 0 116 40.5t54 105.5h44q-10 -81 -67 -133t-147 -52zM414 719l-110 -136h-46
l-110 136h47l86 -106l86 106h47z" />
    <glyph glyph-name="Dcaron" unicode="&#x10e;" horiz-adv-x="697" 
d="M622 269q0 -117 -73.5 -193t-202.5 -76h-249v700h249q129 0 202.5 -76t73.5 -193v-162zM573 430q0 104 -61.5 166.5t-171.5 62.5h-194v-618h194q110 0 171.5 62.5t61.5 166.5v160zM464 882l-114 -119h-46l-114 119h49l88 -92l88 92h49z" />
    <glyph glyph-name="dcaron" unicode="&#x10f;" horiz-adv-x="714" 
d="M616 547l40 183h52l-52 -183h-40zM452 730h48v-730h-45v99q-21 -49 -69 -80t-116 -31q-96 0 -152.5 62t-56.5 159v90q0 97 56.5 159t152.5 62q65 0 113 -29.5t69 -76.5v316zM109 296v-84q0 -82 44 -133.5t125 -51.5q74 0 124 53.5t50 133.5v80q0 80 -49.5 133.5
t-123.5 53.5q-81 0 -125.5 -51.5t-44.5 -133.5z" />
    <glyph glyph-name="Dcroat" unicode="&#x110;" horiz-adv-x="728" 
d="M42 331v38h85v331h249q129 0 202.5 -76t73.5 -193v-162q0 -117 -73.5 -193t-202.5 -76h-249v331h-85zM603 430q0 104 -61.5 166.5t-171.5 62.5h-194v-290h201v-38h-201v-290h194q110 0 171.5 62.5t61.5 166.5v160z" />
    <glyph glyph-name="dcroat" unicode="&#x111;" horiz-adv-x="608" 
d="M452 730h48v-95h85v-37h-85v-598h-45v99q-21 -49 -69 -80t-116 -31q-96 0 -152.5 62t-56.5 159v90q0 97 56.5 159t152.5 62q65 0 113 -29.5t69 -76.5v184h-140v37h140v95zM109 296v-84q0 -82 44 -133.5t125 -51.5q74 0 124 53.5t50 133.5v80q0 80 -49.5 133.5
t-123.5 53.5q-81 0 -125.5 -51.5t-44.5 -133.5z" />
    <glyph glyph-name="Emacron" unicode="&#x112;" horiz-adv-x="605" 
d="M97 0v700h449v-41h-400v-283h371v-42h-371v-293h401v-41h-450zM170 805v38h303v-38h-303z" />
    <glyph glyph-name="emacron" unicode="&#x113;" horiz-adv-x="553" 
d="M280 -12q-100 0 -159.5 60t-59.5 158v88q0 103 57.5 164.5t158.5 61.5q98 0 154 -63t56 -156v-68h-379v-30q0 -77 45.5 -127t126.5 -50q60 0 101 31t57 84h42q-15 -68 -69.5 -110.5t-130.5 -42.5zM108 296v-24h333v31q0 79 -42.5 129t-121.5 50q-83 0 -126 -50t-43 -136z
M130 627v38h291v-38h-291z" />
    <glyph glyph-name="Ebreve" unicode="&#x114;" horiz-adv-x="605" 
d="M97 0v700h449v-41h-400v-283h371v-42h-371v-293h401v-41h-450zM329 763q-70 0 -110 33t-43 86h39q3 -39 32.5 -62.5t81.5 -23.5t81.5 23.5t32.5 62.5h39q-3 -53 -43 -86t-110 -33z" />
    <glyph glyph-name="ebreve" unicode="&#x115;" horiz-adv-x="553" 
d="M280 -12q-100 0 -159.5 60t-59.5 158v88q0 103 57.5 164.5t158.5 61.5q98 0 154 -63t56 -156v-68h-379v-30q0 -77 45.5 -127t126.5 -50q60 0 101 31t57 84h42q-15 -68 -69.5 -110.5t-130.5 -42.5zM108 296v-24h333v31q0 79 -42.5 129t-121.5 50q-83 0 -126 -50t-43 -136z
M279 583q-70 0 -109 38.5t-39 97.5h38q0 -47 28 -75.5t82 -28.5t82 28.5t28 75.5h38q0 -59 -39 -97.5t-109 -38.5z" />
    <glyph glyph-name="Edotaccent" unicode="&#x116;" horiz-adv-x="605" 
d="M97 0v700h449v-41h-400v-283h371v-42h-371v-293h401v-41h-450zM286 818q0 16 10.5 26.5t27.5 10.5t27.5 -10.5t10.5 -26.5q0 -14 -10.5 -25.5t-27.5 -11.5t-27.5 11.5t-10.5 25.5z" />
    <glyph glyph-name="edotaccent" unicode="&#x117;" horiz-adv-x="553" 
d="M280 -12q-100 0 -159.5 60t-59.5 158v88q0 103 57.5 164.5t158.5 61.5q98 0 154 -63t56 -156v-68h-379v-30q0 -77 45.5 -127t126.5 -50q60 0 101 31t57 84h42q-15 -68 -69.5 -110.5t-130.5 -42.5zM108 296v-24h333v31q0 79 -42.5 129t-121.5 50q-83 0 -126 -50t-43 -136z
M239 658q0 16 10.5 26.5t27.5 10.5t27.5 -10.5t10.5 -26.5q0 -14 -10.5 -25.5t-27.5 -11.5t-27.5 11.5t-10.5 25.5z" />
    <glyph glyph-name="Eogonek" unicode="&#x118;" horiz-adv-x="605" 
d="M97 0v700h449v-41h-400v-283h371v-42h-371v-293h401v-41q-29 -17 -45.5 -29t-31 -33t-14.5 -45q0 -44 57 -44q19 0 34 3v-32q-22 -6 -48 -6q-40 0 -62.5 20.5t-22.5 55.5q0 38 27.5 68t59.5 42h-404z" />
    <glyph glyph-name="eogonek" unicode="&#x119;" horiz-adv-x="553" 
d="M280 -12q-100 0 -159.5 60t-59.5 158v88q0 103 57.5 164.5t158.5 61.5q98 0 154 -63t56 -156v-68h-379v-30q0 -77 45.5 -127t126.5 -50q60 0 101 31t57 84h42q-17 -72 -74 -114q-36 -27 -54.5 -42.5t-35.5 -41t-17 -50.5q0 -44 57 -44q19 0 34 3v-32q-22 -6 -48 -6
q-40 0 -62.5 21t-22.5 56q0 57 65 101q-17 -4 -42 -4zM108 296v-24h333v31q0 79 -42.5 129t-121.5 50q-83 0 -126 -50t-43 -136z" />
    <glyph glyph-name="Ecaron" unicode="&#x11a;" horiz-adv-x="605" 
d="M97 0v700h449v-41h-400v-283h371v-42h-371v-293h401v-41h-450zM461 882l-114 -119h-46l-114 119h49l88 -92l88 92h49z" />
    <glyph glyph-name="ecaron" unicode="&#x11b;" horiz-adv-x="553" 
d="M280 -12q-100 0 -159.5 60t-59.5 158v88q0 103 57.5 164.5t158.5 61.5q98 0 154 -63t56 -156v-68h-379v-30q0 -77 45.5 -127t126.5 -50q60 0 101 31t57 84h42q-15 -68 -69.5 -110.5t-130.5 -42.5zM108 296v-24h333v31q0 79 -42.5 129t-121.5 50q-83 0 -126 -50t-43 -136z
M410 719l-110 -136h-46l-110 136h47l86 -106l86 106h47z" />
    <glyph glyph-name="Gcircumflex" unicode="&#x11c;" horiz-adv-x="708" 
d="M364 -14q-139 0 -213 87t-74 221v115q0 137 73 221t207 84q122 0 194.5 -67.5t77.5 -172.5h-47q-5 86 -64.5 142.5t-159.5 56.5q-114 0 -173 -72t-59 -190v-118q0 -118 60 -192t178 -74q104 0 164.5 62t60.5 165v31h-214v41h261v-68q0 -120 -73.5 -196t-198.5 -76z
M379 882l114 -119h-49l-88 92l-88 -92h-49l114 119h46z" />
    <glyph glyph-name="gcircumflex" unicode="&#x11d;" horiz-adv-x="585" 
d="M286 -186q-73 0 -132 31.5t-84 88.5h48q49 -82 168 -82q75 0 119.5 39t44.5 105v132q-16 -41 -66.5 -74.5t-114.5 -33.5q-95 0 -151.5 58.5t-56.5 146.5v89q0 90 56 148t151 58q71 0 118 -32t66 -75v95h46v-513q0 -78 -61 -129.5t-151 -51.5zM275 59q73 0 124 48.5
t51 124.5v73q0 72 -50.5 124t-121.5 52q-81 0 -125.5 -46t-44.5 -125v-80q0 -80 43.5 -125.5t123.5 -45.5zM319 719l110 -136h-47l-86 106l-86 -106h-47l110 136h46z" />
    <glyph glyph-name="Gbreve" unicode="&#x11e;" horiz-adv-x="708" 
d="M364 -14q-139 0 -213 87t-74 221v115q0 137 73 221t207 84q122 0 194.5 -67.5t77.5 -172.5h-47q-5 86 -64.5 142.5t-159.5 56.5q-114 0 -173 -72t-59 -190v-118q0 -118 60 -192t178 -74q104 0 164.5 62t60.5 165v31h-214v41h261v-68q0 -120 -73.5 -196t-198.5 -76z
M354 763q-70 0 -110 33t-43 86h39q3 -39 32.5 -62.5t81.5 -23.5t81.5 23.5t32.5 62.5h39q-3 -53 -43 -86t-110 -33z" />
    <glyph glyph-name="gbreve" unicode="&#x11f;" horiz-adv-x="585" 
d="M286 -186q-73 0 -132 31.5t-84 88.5h48q49 -82 168 -82q75 0 119.5 39t44.5 105v132q-16 -41 -66.5 -74.5t-114.5 -33.5q-95 0 -151.5 58.5t-56.5 146.5v89q0 90 56 148t151 58q71 0 118 -32t66 -75v95h46v-513q0 -78 -61 -129.5t-151 -51.5zM275 59q73 0 124 48.5
t51 124.5v73q0 72 -50.5 124t-121.5 52q-81 0 -125.5 -46t-44.5 -125v-80q0 -80 43.5 -125.5t123.5 -45.5zM295 583q-70 0 -109 38.5t-39 97.5h38q0 -47 28 -75.5t82 -28.5t82 28.5t28 75.5h38q0 -59 -39 -97.5t-109 -38.5z" />
    <glyph glyph-name="Gdotaccent" unicode="&#x120;" horiz-adv-x="708" 
d="M364 -14q-139 0 -213 87t-74 221v115q0 137 73 221t207 84q122 0 194.5 -67.5t77.5 -172.5h-47q-5 86 -64.5 142.5t-159.5 56.5q-114 0 -173 -72t-59 -190v-118q0 -118 60 -192t178 -74q104 0 164.5 62t60.5 165v31h-214v41h261v-68q0 -120 -73.5 -196t-198.5 -76z
M319 818q0 16 10.5 26.5t27.5 10.5t27.5 -10.5t10.5 -26.5q0 -14 -10.5 -25.5t-27.5 -11.5t-27.5 11.5t-10.5 25.5z" />
    <glyph glyph-name="gdotaccent" unicode="&#x121;" horiz-adv-x="585" 
d="M286 -186q-73 0 -132 31.5t-84 88.5h48q49 -82 168 -82q75 0 119.5 39t44.5 105v132q-16 -41 -66.5 -74.5t-114.5 -33.5q-95 0 -151.5 58.5t-56.5 146.5v89q0 90 56 148t151 58q71 0 118 -32t66 -75v95h46v-513q0 -78 -61 -129.5t-151 -51.5zM275 59q73 0 124 48.5
t51 124.5v73q0 72 -50.5 124t-121.5 52q-81 0 -125.5 -46t-44.5 -125v-80q0 -80 43.5 -125.5t123.5 -45.5zM251 658q0 16 10.5 26.5t27.5 10.5t27.5 -10.5t10.5 -26.5q0 -14 -10.5 -25.5t-27.5 -11.5t-27.5 11.5t-10.5 25.5z" />
    <glyph glyph-name="Gcommaaccent" unicode="&#x122;" horiz-adv-x="708" 
d="M364 -14q-139 0 -213 87t-74 221v115q0 137 73 221t207 84q122 0 194.5 -67.5t77.5 -172.5h-47q-5 86 -64.5 142.5t-159.5 56.5q-114 0 -173 -72t-59 -190v-118q0 -118 60 -192t178 -74q104 0 164.5 62t60.5 165v31h-214v41h261v-68q0 -120 -73.5 -196t-198.5 -76z
M301 -250l42 167h52l-54 -167h-40z" />
    <glyph glyph-name="gcommaaccent" unicode="&#x123;" horiz-adv-x="585" 
d="M286 -186q-73 0 -132 31.5t-84 88.5h48q49 -82 168 -82q75 0 119.5 39t44.5 105v132q-16 -41 -66.5 -74.5t-114.5 -33.5q-95 0 -151.5 58.5t-56.5 146.5v89q0 90 56 148t151 58q71 0 118 -32t66 -75v95h46v-513q0 -78 -61 -129.5t-151 -51.5zM275 59q73 0 124 48.5
t51 124.5v73q0 72 -50.5 124t-121.5 52q-81 0 -125.5 -46t-44.5 -125v-80q0 -80 43.5 -125.5t123.5 -45.5zM257 583l44 136h46l-33 -136h-57z" />
    <glyph glyph-name="Hcircumflex" unicode="&#x124;" horiz-adv-x="702" 
d="M97 0v700h49v-325h410v325h49v-700h-49v332h-410v-332h-49zM374 882l114 -119h-49l-88 92l-88 -92h-49l114 119h46z" />
    <glyph glyph-name="hcircumflex" unicode="&#x125;" horiz-adv-x="582" 
d="M87 0v730h48v-320q46 110 179 110q85 0 135.5 -53.5t50.5 -147.5v-319h-48v313q0 79 -37.5 122.5t-111.5 43.5q-72 0 -120 -48.5t-48 -134.5v-296h-48zM134 912l114 -119h-49l-88 92l-88 -92h-49l114 119h46z" />
    <glyph glyph-name="Hbar" unicode="&#x126;" horiz-adv-x="762" 
d="M42 528v34h85v138h49v-138h410v138h49v-138h85v-34h-85v-528h-49v332h-410v-332h-49v528h-85zM176 375h410v153h-410v-153z" />
    <glyph glyph-name="hbar" unicode="&#x127;" horiz-adv-x="603" 
d="M23 598v37h85v95h48v-95h140v-37h-140v-188q46 110 179 110q85 0 135.5 -53.5t50.5 -147.5v-319h-48v313q0 79 -37.5 122.5t-111.5 43.5q-72 0 -120 -48.5t-48 -134.5v-296h-48v598h-85z" />
    <glyph glyph-name="Itilde" unicode="&#x128;" horiz-adv-x="253" 
d="M102 0v700h49v-700h-49zM-14 767l-34 6q9 51 29.5 77t61.5 26q33 0 94 -35.5t78 -35.5q27 0 41 35q3 8 9 28l3 11l33 -9q-23 -100 -85 -100q-25 0 -86.5 35.5t-86.5 35.5q-26 0 -38 -18.5t-19 -55.5z" />
    <glyph glyph-name="itilde" unicode="&#x129;" horiz-adv-x="232" 
d="M92 0v508h48v-508h-48zM-16 591l-34 7q16 102 90 102q33 0 87.5 -35.5t71.5 -35.5q12 0 21 5.5t14.5 19.5t7.5 21t7 28l34 -7q-7 -29 -14.5 -48.5t-25.5 -36t-44 -16.5q-25 0 -79 35.5t-79 35.5q-26 0 -37 -18t-20 -57z" />
    <glyph glyph-name="uni012A" unicode="&#x12a;" horiz-adv-x="253" 
d="M102 0v700h49v-700h-49zM-25 805v38h303v-38h-303z" />
    <glyph glyph-name="imacron" unicode="&#x12b;" horiz-adv-x="232" 
d="M92 0v508h48v-508h-48zM-29 627v38h291v-38h-291z" />
    <glyph glyph-name="Ibreve" unicode="&#x12c;" horiz-adv-x="253" 
d="M102 0v700h49v-700h-49zM126 763q-70 0 -110 33t-43 86h39q3 -39 32.5 -62.5t81.5 -23.5t81.5 23.5t32.5 62.5h39q-3 -53 -43 -86t-110 -33z" />
    <glyph glyph-name="uni012D" unicode="&#x12d;" horiz-adv-x="232" 
d="M92 0v508h48v-508h-48zM116 583q-70 0 -109 38.5t-39 97.5h38q0 -47 28 -75.5t82 -28.5t82 28.5t28 75.5h38q0 -59 -39 -97.5t-109 -38.5z" />
    <glyph glyph-name="Iogonek" unicode="&#x12e;" horiz-adv-x="253" 
d="M102 0v700h49v-700q-24 -22 -33.5 -32t-20 -30.5t-10.5 -43.5q0 -45 47 -45q10 0 17 1v-34q-12 -2 -28 -2q-35 0 -56.5 21.5t-21.5 57.5q0 66 57 107z" />
    <glyph glyph-name="iogonek" unicode="&#x12f;" horiz-adv-x="232" 
d="M112 -186q-35 0 -56.5 21.5t-21.5 57.5q0 63 58 107v508h48v-508q-17 -18 -31.5 -31.5t-23.5 -32.5t-9 -42q0 -45 47 -45q10 0 17 1v-34q-12 -2 -28 -2zM78 658q0 16 10.5 26.5t27.5 10.5t27.5 -10.5t10.5 -26.5q0 -14 -10.5 -25.5t-27.5 -11.5t-27.5 11.5t-10.5 25.5z
" />
    <glyph glyph-name="Idotaccent" unicode="&#x130;" horiz-adv-x="253" 
d="M102 0v700h49v-700h-49zM88 818q0 16 10.5 26.5t27.5 10.5t27.5 -10.5t10.5 -26.5q0 -14 -10.5 -25.5t-27.5 -11.5t-27.5 11.5t-10.5 25.5z" />
    <glyph glyph-name="dotlessi" unicode="&#x131;" horiz-adv-x="232" 
d="M92 0v508h48v-508h-48z" />
    <glyph glyph-name="IJ" unicode="&#x132;" horiz-adv-x="834" 
d="M102 0v700h49v-700h-49zM519 -14q-99 0 -159.5 54t-60.5 140v5h48v-5q0 -69 46 -111t126 -42q79 0 125.5 42.5t46.5 113.5v517h49v-517q0 -87 -62 -142t-159 -55z" />
    <glyph glyph-name="ij" unicode="&#x133;" horiz-adv-x="464" 
d="M92 0v508h48v-508h-48zM78 658q0 16 10.5 26.5t27.5 10.5t27.5 -10.5t10.5 -26.5q0 -14 -10.5 -25.5t-27.5 -11.5t-27.5 11.5t-10.5 25.5zM218 -174v39h27q42 0 60.5 18t18.5 56v569h48v-570q0 -112 -116 -112h-38zM310 658q0 16 10.5 26.5t27.5 10.5t27.5 -10.5
t10.5 -26.5q0 -14 -10.5 -25.5t-27.5 -11.5t-27.5 11.5t-10.5 25.5z" />
    <glyph glyph-name="Jcircumflex" unicode="&#x134;" horiz-adv-x="581" 
d="M266 -14q-99 0 -159.5 54t-60.5 140v5h48v-5q0 -69 46 -111t126 -42q79 0 125.5 42.5t46.5 113.5v517h49v-517q0 -87 -62 -142t-159 -55zM485 882l114 -119h-49l-88 92l-88 -92h-49l114 119h46z" />
    <glyph glyph-name="jcircumflex" unicode="&#x135;" horiz-adv-x="232" 
d="M-14 -174v39h27q42 0 60.5 18t18.5 56v569h48v-570q0 -112 -116 -112h-38zM139 719l110 -136h-47l-86 106l-86 -106h-47l110 136h46z" />
    <glyph glyph-name="Kcommaaccent" unicode="&#x136;" horiz-adv-x="591" 
d="M97 0v700h49v-343l349 343h62l-353 -346l366 -354h-63l-361 350v-350h-49zM248 -250l42 167h52l-54 -167h-40z" />
    <glyph glyph-name="kcommaaccent" unicode="&#x137;" horiz-adv-x="495" 
d="M87 0v730h48v-462l251 240h64l-257 -244l269 -264h-64l-263 260v-260h-48zM196 -250l42 167h52l-54 -167h-40z" />
    <glyph glyph-name="kgreenlandic" unicode="&#x138;" horiz-adv-x="495" 
d="M87 0v508h48v-240l251 240h64l-257 -244l269 -264h-64l-263 260v-260h-48z" />
    <glyph glyph-name="Lacute" unicode="&#x139;" horiz-adv-x="563" 
d="M97 0v700h49v-659h375v-41h-424zM104 763l74 119h58l-84 -119h-48z" />
    <glyph glyph-name="lacute" unicode="&#x13a;" horiz-adv-x="232" 
d="M92 0v730h48v-730h-48zM96 793l74 119h58l-84 -119h-48z" />
    <glyph glyph-name="Lcommaaccent" unicode="&#x13b;" horiz-adv-x="563" 
d="M97 0v700h49v-659h375v-41h-424zM250 -250l42 167h52l-54 -167h-40z" />
    <glyph glyph-name="lcommaaccent" unicode="&#x13c;" horiz-adv-x="232" 
d="M92 0v730h48v-730h-48zM46 -250l42 167h52l-54 -167h-40z" />
    <glyph glyph-name="Lcaron" unicode="&#x13d;" horiz-adv-x="563" 
d="M329 517l40 183h52l-52 -183h-40zM97 0v700h49v-659h375v-41h-424z" />
    <glyph glyph-name="lcaron" unicode="&#x13e;" horiz-adv-x="355" 
d="M257 547l40 183h52l-52 -183h-40zM92 0v730h48v-730h-48z" />
    <glyph glyph-name="Ldot" unicode="&#x13f;" horiz-adv-x="564" 
d="M97 0v700h49v-659h375v-41h-424zM307 347q0 17 11 28t28 11t28 -11t11 -28t-11 -28t-28 -11t-28 11t-11 28z" />
    <glyph glyph-name="ldot" unicode="&#x140;" horiz-adv-x="353" 
d="M92 0v730h48v-730h-48zM240 305q0 17 11 28t28 11t28 -11t11 -28t-11 -28t-28 -11t-28 11t-11 28z" />
    <glyph glyph-name="Lslash" unicode="&#x141;" horiz-adv-x="583" 
d="M25 278v43l92 56v323h49v-293l183 111v-43l-183 -111v-323h375v-41h-424v334z" />
    <glyph glyph-name="lslash" unicode="&#x142;" horiz-adv-x="244" 
d="M34 306v46l62 55v323h48v-281l77 69v-46l-77 -69v-403h-48v361z" />
    <glyph glyph-name="Nacute" unicode="&#x143;" 
d="M97 0v700h46l419 -621v621h47v-700h-46l-419 620v-620h-47zM326 763l74 119h58l-84 -119h-48z" />
    <glyph glyph-name="nacute" unicode="&#x144;" horiz-adv-x="582" 
d="M87 0v508h45v-103q18 52 65 83.5t117 31.5q85 0 135.5 -53.5t50.5 -147.5v-319h-48v313q0 79 -37.5 122.5t-111.5 43.5q-72 0 -120 -48.5t-48 -134.5v-296h-48zM256 583l85 136h57l-94 -136h-48z" />
    <glyph glyph-name="Ncommaaccent" unicode="&#x145;" 
d="M97 0v700h46l419 -621v621h47v-700h-46l-419 620v-620h-47zM291 -250l42 167h52l-54 -167h-40z" />
    <glyph glyph-name="ncommaaccent" unicode="&#x146;" horiz-adv-x="582" 
d="M87 0v508h45v-103q18 52 65 83.5t117 31.5q85 0 135.5 -53.5t50.5 -147.5v-319h-48v313q0 79 -37.5 122.5t-111.5 43.5q-72 0 -120 -48.5t-48 -134.5v-296h-48zM236 -250l42 167h52l-54 -167h-40z" />
    <glyph glyph-name="Ncaron" unicode="&#x147;" 
d="M97 0v700h46l419 -621v621h47v-700h-46l-419 620v-620h-47zM492 882l-114 -119h-46l-114 119h49l88 -92l88 92h49z" />
    <glyph glyph-name="ncaron" unicode="&#x148;" horiz-adv-x="582" 
d="M87 0v508h45v-103q18 52 65 83.5t117 31.5q85 0 135.5 -53.5t50.5 -147.5v-319h-48v313q0 79 -37.5 122.5t-111.5 43.5q-72 0 -120 -48.5t-48 -134.5v-296h-48zM427 719l-110 -136h-46l-110 136h47l86 -106l86 106h47z" />
    <glyph glyph-name="napostrophe" unicode="&#x149;" horiz-adv-x="687" 
d="M25 547l40 183h52l-52 -183h-40zM192 0v508h45v-103q18 52 65 83.5t117 31.5q85 0 135.5 -53.5t50.5 -147.5v-319h-48v313q0 79 -37.5 122.5t-111.5 43.5q-72 0 -120 -48.5t-48 -134.5v-296h-48z" />
    <glyph glyph-name="Eng" unicode="&#x14a;" 
d="M97 0v700h46l419 -621v621h47v-706q0 -77 -45.5 -122.5t-127.5 -45.5h-31v40h22q135 0 135 129v6l-418 619v-620h-47z" />
    <glyph glyph-name="eng" unicode="&#x14b;" horiz-adv-x="582" 
d="M87 0v508h45v-103q18 52 65 83.5t117 31.5q85 0 135.5 -53.5t50.5 -147.5v-335q0 -74 -44.5 -116t-122.5 -42h-15v40h16q118 0 118 119v328q0 79 -37.5 122.5t-111.5 43.5q-72 0 -120 -48.5t-48 -134.5v-296h-48z" />
    <glyph glyph-name="Omacron" unicode="&#x14c;" horiz-adv-x="724" 
d="M647 410v-120q0 -131 -73.5 -217.5t-211.5 -86.5t-211.5 86.5t-73.5 217.5v120q0 131 73.5 217.5t211.5 86.5t211.5 -86.5t73.5 -217.5zM599 288v124q0 113 -60 187.5t-177 74.5t-177 -74.5t-60 -187.5v-124q0 -113 60 -187.5t177 -74.5t177 74.5t60 187.5zM211 805v38
h303v-38h-303z" />
    <glyph glyph-name="omacron" unicode="&#x14d;" horiz-adv-x="560" 
d="M280 -12q-101 0 -160 62.5t-59 158.5v90q0 96 59 158.5t160 62.5t160 -62.5t59 -158.5v-90q0 -96 -59 -158.5t-160 -62.5zM453 297q0 81 -46 132.5t-127 51.5t-127 -51.5t-46 -132.5v-86q0 -81 46 -132.5t127 -51.5t127 51.5t46 132.5v86zM135 627v38h291v-38h-291z" />
    <glyph glyph-name="Obreve" unicode="&#x14e;" horiz-adv-x="724" 
d="M647 410v-120q0 -131 -73.5 -217.5t-211.5 -86.5t-211.5 86.5t-73.5 217.5v120q0 131 73.5 217.5t211.5 86.5t211.5 -86.5t73.5 -217.5zM599 288v124q0 113 -60 187.5t-177 74.5t-177 -74.5t-60 -187.5v-124q0 -113 60 -187.5t177 -74.5t177 74.5t60 187.5zM362 763
q-70 0 -110 33t-43 86h39q3 -39 32.5 -62.5t81.5 -23.5t81.5 23.5t32.5 62.5h39q-3 -53 -43 -86t-110 -33z" />
    <glyph glyph-name="obreve" unicode="&#x14f;" horiz-adv-x="560" 
d="M280 -12q-101 0 -160 62.5t-59 158.5v90q0 96 59 158.5t160 62.5t160 -62.5t59 -158.5v-90q0 -96 -59 -158.5t-160 -62.5zM453 297q0 81 -46 132.5t-127 51.5t-127 -51.5t-46 -132.5v-86q0 -81 46 -132.5t127 -51.5t127 51.5t46 132.5v86zM280 583q-70 0 -109 38.5
t-39 97.5h38q0 -47 28 -75.5t82 -28.5t82 28.5t28 75.5h38q0 -59 -39 -97.5t-109 -38.5z" />
    <glyph glyph-name="Ohungarumlaut" unicode="&#x150;" horiz-adv-x="724" 
d="M647 410v-120q0 -131 -73.5 -217.5t-211.5 -86.5t-211.5 86.5t-73.5 217.5v120q0 131 73.5 217.5t211.5 86.5t211.5 -86.5t73.5 -217.5zM599 288v124q0 113 -60 187.5t-177 74.5t-177 -74.5t-60 -187.5v-124q0 -113 60 -187.5t177 -74.5t177 74.5t60 187.5zM238 763
l59 119h51l-66 -119h-44zM452 763l58 119h52l-67 -119h-43z" />
    <glyph glyph-name="ohungarumlaut" unicode="&#x151;" horiz-adv-x="560" 
d="M280 -12q-101 0 -160 62.5t-59 158.5v90q0 96 59 158.5t160 62.5t160 -62.5t59 -158.5v-90q0 -96 -59 -158.5t-160 -62.5zM453 297q0 81 -46 132.5t-127 51.5t-127 -51.5t-46 -132.5v-86q0 -81 46 -132.5t127 -51.5t127 51.5t46 132.5v86zM170 583l68 136h51l-76 -136
h-43zM354 583l68 136h51l-76 -136h-43z" />
    <glyph glyph-name="OE" unicode="&#x152;" horiz-adv-x="1073" 
d="M383 0q-149 0 -227.5 84.5t-78.5 217.5v96q0 133 78.5 217.5t227.5 84.5h631v-41h-400v-283h371v-42h-371v-293h401v-41h-632zM126 300q0 -115 66.5 -187t190.5 -72h182v618h-182q-124 0 -190.5 -72t-66.5 -187v-100z" />
    <glyph glyph-name="oe" unicode="&#x153;" horiz-adv-x="945" 
d="M280 -12q-101 0 -160 62.5t-59 158.5v90q0 96 59 158.5t160 62.5q69 0 119 -31t76 -86q23 56 73 86.5t121 30.5q98 0 154 -63t56 -156v-68h-379v-30q0 -77 45.5 -127t126.5 -50q60 0 101 31t57 84h42q-15 -68 -69.5 -110.5t-130.5 -42.5q-70 0 -122 31.5t-75 83.5
q-23 -50 -75 -82.5t-120 -32.5zM453 297q0 81 -46 132.5t-127 51.5t-127 -51.5t-46 -132.5v-86q0 -81 46 -132.5t127 -51.5t127 51.5t46 132.5v86zM500 296v-24h333v31q0 79 -42.5 129t-121.5 50q-83 0 -126 -50t-43 -136z" />
    <glyph glyph-name="Racute" unicode="&#x154;" horiz-adv-x="666" 
d="M545 0l-150 271h-22h-227v-271h-49v700h278q104 0 165 -62.5t61 -152.5q0 -75 -42.5 -131t-116.5 -75l157 -279h-54zM146 311h220q90 0 138 49.5t48 124.5t-48.5 125t-136.5 50h-221v-349zM287 763l74 119h58l-84 -119h-48z" />
    <glyph glyph-name="racute" unicode="&#x155;" horiz-adv-x="342" 
d="M87 0v508h45v-126q12 58 60.5 93.5t120.5 35.5h5v-44h-5q-80 0 -129 -55t-49 -157v-255h-48zM159 583l85 136h57l-94 -136h-48z" />
    <glyph glyph-name="Rcommaaccent" unicode="&#x156;" horiz-adv-x="666" 
d="M545 0l-150 271h-22h-227v-271h-49v700h278q104 0 165 -62.5t61 -152.5q0 -75 -42.5 -131t-116.5 -75l157 -279h-54zM146 311h220q90 0 138 49.5t48 124.5t-48.5 125t-136.5 50h-221v-349zM274 -250l42 167h52l-54 -167h-40z" />
    <glyph glyph-name="rcommaaccent" unicode="&#x157;" horiz-adv-x="342" 
d="M87 0v508h45v-126q12 58 60.5 93.5t120.5 35.5h5v-44h-5q-80 0 -129 -55t-49 -157v-255h-48zM41 -250l42 167h52l-54 -167h-40z" />
    <glyph glyph-name="Rcaron" unicode="&#x158;" horiz-adv-x="666" 
d="M545 0l-150 271h-22h-227v-271h-49v700h278q104 0 165 -62.5t61 -152.5q0 -75 -42.5 -131t-116.5 -75l157 -279h-54zM146 311h220q90 0 138 49.5t48 124.5t-48.5 125t-136.5 50h-221v-349zM452 882l-114 -119h-46l-114 119h49l88 -92l88 92h49z" />
    <glyph glyph-name="rcaron" unicode="&#x159;" horiz-adv-x="342" 
d="M87 0v508h45v-126q12 58 60.5 93.5t120.5 35.5h5v-44h-5q-80 0 -129 -55t-49 -157v-255h-48zM335 719l-110 -136h-46l-110 136h47l86 -106l86 106h47z" />
    <glyph glyph-name="Sacute" unicode="&#x15a;" horiz-adv-x="652" 
d="M330 -14q-111 0 -183 57t-72 149v16h47v-15q0 -76 58 -121.5t150 -45.5t150 42t58 115q0 100 -112 129l-207 54q-132 35 -132 161q0 86 63.5 136.5t168.5 50.5t171.5 -55t66.5 -142v-16h-45v15q0 70 -52.5 114t-140.5 44q-85 0 -135 -38.5t-50 -105.5q0 -50 24 -79.5
t75 -43.5l209 -55q67 -18 105 -60t38 -106q0 -92 -72.5 -146t-182.5 -54zM297 763l74 119h58l-84 -119h-48z" />
    <glyph glyph-name="sacute" unicode="&#x15b;" horiz-adv-x="525" 
d="M268 -12q-89 0 -147.5 43t-58.5 114v3h47v-2q0 -55 46 -87t114 -32q66 0 110 29.5t44 78.5q0 65 -73 83l-167 41q-107 27 -107 121q0 64 50.5 102t132.5 38t133.5 -43.5t51.5 -113.5v-3h-47v3q0 53 -37 85.5t-101 32.5q-63 0 -99.5 -26.5t-36.5 -74.5q0 -61 69 -78
l165 -41q113 -28 113 -125q0 -66 -59 -107t-143 -41zM229 583l85 136h57l-94 -136h-48z" />
    <glyph glyph-name="Scircumflex" unicode="&#x15c;" horiz-adv-x="652" 
d="M330 -14q-111 0 -183 57t-72 149v16h47v-15q0 -76 58 -121.5t150 -45.5t150 42t58 115q0 100 -112 129l-207 54q-132 35 -132 161q0 86 63.5 136.5t168.5 50.5t171.5 -55t66.5 -142v-16h-45v15q0 70 -52.5 114t-140.5 44q-85 0 -135 -38.5t-50 -105.5q0 -50 24 -79.5
t75 -43.5l209 -55q67 -18 105 -60t38 -106q0 -92 -72.5 -146t-182.5 -54zM348 882l114 -119h-49l-88 92l-88 -92h-49l114 119h46z" />
    <glyph glyph-name="scircumflex" unicode="&#x15d;" horiz-adv-x="525" 
d="M268 -12q-89 0 -147.5 43t-58.5 114v3h47v-2q0 -55 46 -87t114 -32q66 0 110 29.5t44 78.5q0 65 -73 83l-167 41q-107 27 -107 121q0 64 50.5 102t132.5 38t133.5 -43.5t51.5 -113.5v-3h-47v3q0 53 -37 85.5t-101 32.5q-63 0 -99.5 -26.5t-36.5 -74.5q0 -61 69 -78
l165 -41q113 -28 113 -125q0 -66 -59 -107t-143 -41zM285 719l110 -136h-47l-86 106l-86 -106h-47l110 136h46z" />
    <glyph glyph-name="Scedilla" unicode="&#x15e;" horiz-adv-x="652" 
d="M337 -186q-35 0 -66 6v32q29 -6 60 -6q60 0 60 35q0 33 -55 36l-44 3l12 67q-100 7 -164.5 63t-64.5 142v16h47v-15q0 -76 58 -121.5t150 -45.5t150 42t58 115q0 100 -112 129l-207 54q-132 35 -132 161q0 86 63.5 136.5t168.5 50.5t171.5 -55t66.5 -142v-16h-45v15
q0 70 -52.5 114t-140.5 44q-85 0 -135 -38.5t-50 -105.5q0 -50 24 -79.5t75 -43.5l209 -55q67 -18 105 -60t38 -106q0 -91 -69.5 -144.5t-176.5 -55.5l-6 -38l19 -1q34 -2 55.5 -18.5t21.5 -45.5q0 -33 -25 -51t-67 -18z" />
    <glyph glyph-name="Scedilla" unicode="&#xf6c1;" horiz-adv-x="652" 
d="M337 -186q-35 0 -66 6v32q29 -6 60 -6q60 0 60 35q0 33 -55 36l-44 3l12 67q-100 7 -164.5 63t-64.5 142v16h47v-15q0 -76 58 -121.5t150 -45.5t150 42t58 115q0 100 -112 129l-207 54q-132 35 -132 161q0 86 63.5 136.5t168.5 50.5t171.5 -55t66.5 -142v-16h-45v15
q0 70 -52.5 114t-140.5 44q-85 0 -135 -38.5t-50 -105.5q0 -50 24 -79.5t75 -43.5l209 -55q67 -18 105 -60t38 -106q0 -91 -69.5 -144.5t-176.5 -55.5l-6 -38l19 -1q34 -2 55.5 -18.5t21.5 -45.5q0 -33 -25 -51t-67 -18z" />
    <glyph glyph-name="scedilla" unicode="&#x15f;" horiz-adv-x="525" 
d="M279 -186q-35 0 -66 6v32q29 -6 60 -6q60 0 60 35q0 33 -55 36l-44 3l13 69q-82 5 -133.5 47.5t-51.5 108.5v3h47v-2q0 -55 46 -87t114 -32q66 0 110 29.5t44 78.5q0 65 -73 83l-167 41q-107 27 -107 121q0 64 50.5 102t132.5 38t133.5 -43.5t51.5 -113.5v-3h-47v3
q0 53 -37 85.5t-101 32.5q-63 0 -99.5 -26.5t-36.5 -74.5q0 -61 69 -78l165 -41q113 -28 113 -125q0 -63 -54.5 -103.5t-134.5 -43.5l-6 -41l19 -1q34 -2 55.5 -18.5t21.5 -45.5q0 -33 -25 -51t-67 -18z" />
    <glyph glyph-name="scedilla" unicode="&#xf6c2;" horiz-adv-x="525" 
d="M279 -186q-35 0 -66 6v32q29 -6 60 -6q60 0 60 35q0 33 -55 36l-44 3l13 69q-82 5 -133.5 47.5t-51.5 108.5v3h47v-2q0 -55 46 -87t114 -32q66 0 110 29.5t44 78.5q0 65 -73 83l-167 41q-107 27 -107 121q0 64 50.5 102t132.5 38t133.5 -43.5t51.5 -113.5v-3h-47v3
q0 53 -37 85.5t-101 32.5q-63 0 -99.5 -26.5t-36.5 -74.5q0 -61 69 -78l165 -41q113 -28 113 -125q0 -63 -54.5 -103.5t-134.5 -43.5l-6 -41l19 -1q34 -2 55.5 -18.5t21.5 -45.5q0 -33 -25 -51t-67 -18z" />
    <glyph glyph-name="Scaron" unicode="&#x160;" horiz-adv-x="652" 
d="M330 -14q-111 0 -183 57t-72 149v16h47v-15q0 -76 58 -121.5t150 -45.5t150 42t58 115q0 100 -112 129l-207 54q-132 35 -132 161q0 86 63.5 136.5t168.5 50.5t171.5 -55t66.5 -142v-16h-45v15q0 70 -52.5 114t-140.5 44q-85 0 -135 -38.5t-50 -105.5q0 -50 24 -79.5
t75 -43.5l209 -55q67 -18 105 -60t38 -106q0 -92 -72.5 -146t-182.5 -54zM462 882l-114 -119h-46l-114 119h49l88 -92l88 92h49z" />
    <glyph glyph-name="scaron" unicode="&#x161;" horiz-adv-x="525" 
d="M268 -12q-89 0 -147.5 43t-58.5 114v3h47v-2q0 -55 46 -87t114 -32q66 0 110 29.5t44 78.5q0 65 -73 83l-167 41q-107 27 -107 121q0 64 50.5 102t132.5 38t133.5 -43.5t51.5 -113.5v-3h-47v3q0 53 -37 85.5t-101 32.5q-63 0 -99.5 -26.5t-36.5 -74.5q0 -61 69 -78
l165 -41q113 -28 113 -125q0 -66 -59 -107t-143 -41zM389 719l-110 -136h-46l-110 136h47l86 -106l86 106h47z" />
    <glyph glyph-name="Tcommaaccent" unicode="&#x162;" horiz-adv-x="551" 
d="M251 0v659h-222v41h493v-41h-222v-659h-49zM206 -250l42 167h52l-54 -167h-40z" />
    <glyph glyph-name="Tcommaaccent" unicode="&#x21a;" horiz-adv-x="551" 
d="M251 0v659h-222v41h493v-41h-222v-659h-49zM206 -250l42 167h52l-54 -167h-40z" />
    <glyph glyph-name="tcommaaccent" unicode="&#x163;" horiz-adv-x="366" 
d="M318 0h-52q-134 0 -134 132v337h-93v39h93v147h48v-147h140v-39h-140v-337q0 -50 21 -71.5t72 -21.5h45v-39zM163 -250l42 167h52l-54 -167h-40z" />
    <glyph glyph-name="tcommaaccent" unicode="&#x21b;" horiz-adv-x="366" 
d="M318 0h-52q-134 0 -134 132v337h-93v39h93v147h48v-147h140v-39h-140v-337q0 -50 21 -71.5t72 -21.5h45v-39zM163 -250l42 167h52l-54 -167h-40z" />
    <glyph glyph-name="Tcaron" unicode="&#x164;" horiz-adv-x="551" 
d="M251 0v659h-222v41h493v-41h-222v-659h-49zM412 882l-114 -119h-46l-114 119h49l88 -92l88 92h49z" />
    <glyph glyph-name="tcaron" unicode="&#x165;" horiz-adv-x="371" 
d="M266 596l28 134h48l-37 -134h-39zM318 0h-52q-134 0 -134 132v337h-93v39h93v147h48v-147h140v-39h-140v-337q0 -50 21 -71.5t72 -21.5h45v-39z" />
    <glyph glyph-name="Tbar" unicode="&#x166;" horiz-adv-x="551" 
d="M93 319v39h158v301h-222v41h493v-41h-222v-301h158v-39h-158v-319h-49v319h-158z" />
    <glyph glyph-name="tbar" unicode="&#x167;" horiz-adv-x="366" 
d="M39 247v38h93v184h-93v39h93v147h48v-147h140v-39h-140v-184h121v-38h-121v-115q0 -50 21 -71.5t72 -21.5h45v-39h-52q-134 0 -134 132v115h-93z" />
    <glyph glyph-name="Utilde" unicode="&#x168;" 
d="M353 -14q-118 0 -189 68t-71 174v472h49v-477q0 -88 57 -142t154 -54t154 54t57 142v477h49v-472q0 -106 -71 -174t-189 -68zM215 767l-34 6q9 51 29.5 77t61.5 26q33 0 94 -35.5t78 -35.5q27 0 41 35q3 8 9 28l3 11l33 -9q-23 -100 -85 -100q-25 0 -86.5 35.5
t-86.5 35.5q-26 0 -38 -18.5t-19 -55.5z" />
    <glyph glyph-name="utilde" unicode="&#x169;" horiz-adv-x="578" 
d="M491 508v-508h-45v103q-16 -51 -63 -83t-117 -32q-85 0 -134.5 53.5t-49.5 147.5v319h48v-313q0 -79 37 -122.5t110 -43.5q72 0 119 48.5t47 134.5v296h48zM158 591l-34 7q16 102 90 102q33 0 87.5 -35.5t71.5 -35.5q12 0 21 5.5t14.5 19.5t7.5 21t7 28l34 -7
q-7 -29 -14.5 -48.5t-25.5 -36t-44 -16.5q-25 0 -79 35.5t-79 35.5q-26 0 -37 -18t-20 -57z" />
    <glyph glyph-name="Umacron" unicode="&#x16a;" 
d="M353 -14q-118 0 -189 68t-71 174v472h49v-477q0 -88 57 -142t154 -54t154 54t57 142v477h49v-472q0 -106 -71 -174t-189 -68zM202 805v38h303v-38h-303z" />
    <glyph glyph-name="umacron" unicode="&#x16b;" horiz-adv-x="578" 
d="M491 508v-508h-45v103q-16 -51 -63 -83t-117 -32q-85 0 -134.5 53.5t-49.5 147.5v319h48v-313q0 -79 37 -122.5t110 -43.5q72 0 119 48.5t47 134.5v296h48zM149 627v38h291v-38h-291z" />
    <glyph glyph-name="Ubreve" unicode="&#x16c;" 
d="M353 -14q-118 0 -189 68t-71 174v472h49v-477q0 -88 57 -142t154 -54t154 54t57 142v477h49v-472q0 -106 -71 -174t-189 -68zM353 763q-70 0 -110 33t-43 86h39q3 -39 32.5 -62.5t81.5 -23.5t81.5 23.5t32.5 62.5h39q-3 -53 -43 -86t-110 -33z" />
    <glyph glyph-name="ubreve" unicode="&#x16d;" horiz-adv-x="578" 
d="M491 508v-508h-45v103q-16 -51 -63 -83t-117 -32q-85 0 -134.5 53.5t-49.5 147.5v319h48v-313q0 -79 37 -122.5t110 -43.5q72 0 119 48.5t47 134.5v296h48zM294 583q-70 0 -109 38.5t-39 97.5h38q0 -47 28 -75.5t82 -28.5t82 28.5t28 75.5h38q0 -59 -39 -97.5t-109 -38.5
z" />
    <glyph glyph-name="Uring" unicode="&#x16e;" 
d="M353 -14q-118 0 -189 68t-71 174v472h49v-477q0 -88 57 -142t154 -54t154 54t57 142v477h49v-472q0 -106 -71 -174t-189 -68zM353 790q26 0 40.5 15t14.5 38t-14.5 38t-40.5 15t-40.5 -15t-14.5 -38t14.5 -38t40.5 -15zM353 763q-39 0 -62.5 23t-23.5 57t23.5 57t62.5 23
t62.5 -23t23.5 -57t-23.5 -57t-62.5 -23z" />
    <glyph glyph-name="uring" unicode="&#x16f;" horiz-adv-x="578" 
d="M491 508v-508h-45v103q-16 -51 -63 -83t-117 -32q-85 0 -134.5 53.5t-49.5 147.5v319h48v-313q0 -79 37 -122.5t110 -43.5q72 0 119 48.5t47 134.5v296h48zM291 610q26 0 40.5 15t14.5 38t-14.5 38t-40.5 15t-40.5 -15t-14.5 -38t14.5 -38t40.5 -15zM291 583
q-39 0 -62.5 23t-23.5 57t23.5 57t62.5 23t62.5 -23t23.5 -57t-23.5 -57t-62.5 -23z" />
    <glyph glyph-name="Uhungarumlaut" unicode="&#x170;" 
d="M353 -14q-118 0 -189 68t-71 174v472h49v-477q0 -88 57 -142t154 -54t154 54t57 142v477h49v-472q0 -106 -71 -174t-189 -68zM219 763l59 119h51l-66 -119h-44zM433 763l58 119h52l-67 -119h-43z" />
    <glyph glyph-name="uhungarumlaut" unicode="&#x171;" horiz-adv-x="578" 
d="M491 508v-508h-45v103q-16 -51 -63 -83t-117 -32q-85 0 -134.5 53.5t-49.5 147.5v319h48v-313q0 -79 37 -122.5t110 -43.5q72 0 119 48.5t47 134.5v296h48zM167 583l68 136h51l-76 -136h-43zM351 583l68 136h51l-76 -136h-43z" />
    <glyph glyph-name="Uogonek" unicode="&#x172;" 
d="M353 -14q-118 0 -189 68t-71 174v472h49v-477q0 -88 57 -142t154 -54t154 54t57 142v477h49v-472q0 -140 -121 -210q-35 -20 -50.5 -30t-35 -26t-27 -32t-7.5 -37q0 -44 57 -44q19 0 34 3v-32q-22 -6 -48 -6q-39 0 -62 21.5t-23 56.5q0 58 54 95q-10 -1 -31 -1z" />
    <glyph glyph-name="uogonek" unicode="&#x173;" horiz-adv-x="578" 
d="M491 508v-508q-91 -47 -91 -103q0 -48 57 -48q19 0 34 3v-32q-22 -6 -48 -6q-39 1 -62.5 22t-22.5 60q1 70 88 104v103q-16 -51 -63 -83t-117 -32q-85 0 -134.5 53.5t-49.5 147.5v319h48v-313q0 -79 37 -122.5t110 -43.5q72 0 119 48.5t47 134.5v296h48z" />
    <glyph glyph-name="Wcircumflex" unicode="&#x174;" horiz-adv-x="902" 
d="M864 700l-166 -700h-51l-196 648l-196 -648h-51l-166 700h48l145 -636l193 636h54l193 -636l145 636h48zM474 882l114 -119h-49l-88 92l-88 -92h-49l114 119h46z" />
    <glyph glyph-name="wcircumflex" unicode="&#x175;" horiz-adv-x="746" 
d="M708 508l-141 -508h-48l-146 456l-146 -456h-48l-141 508h45l121 -451l144 451h50l144 -451l121 451h45zM396 719l110 -136h-47l-86 106l-86 -106h-47l110 136h46z" />
    <glyph glyph-name="Ycircumflex" unicode="&#x176;" horiz-adv-x="582" 
d="M315 271v-271h-48v271l-251 429h51l224 -384l224 384h51zM314 882l114 -119h-49l-88 92l-88 -92h-49l114 119h46z" />
    <glyph glyph-name="ycircumflex" unicode="&#x177;" horiz-adv-x="493" 
d="M164 -174l60 174l-190 508h49l165 -450l162 450h49l-185 -506l-63 -176h-47zM277 719l110 -136h-47l-86 106l-86 -106h-47l110 136h46z" />
    <glyph glyph-name="Ydieresis" unicode="&#x178;" horiz-adv-x="582" 
d="M315 271v-271h-48v271l-251 429h51l224 -384l224 384h51zM142 817q0 15 10 25.5t27 10.5t27 -10.5t10 -25.5q0 -14 -10 -25t-27 -11t-27 11t-10 25zM366 817q0 15 10 25.5t27 10.5t27 -10.5t10 -25.5q0 -14 -10 -25t-27 -11t-27 11t-10 25z" />
    <glyph glyph-name="Zacute" unicode="&#x179;" horiz-adv-x="616" 
d="M68 0v41l418 618h-399v41h451v-41l-418 -618h430v-41h-482zM282 763l74 119h58l-84 -119h-48z" />
    <glyph glyph-name="zacute" unicode="&#x17a;" horiz-adv-x="491" 
d="M60 0v38l319 430h-306v40h359v-38l-319 -430h323v-40h-376zM217 583l85 136h57l-94 -136h-48z" />
    <glyph glyph-name="Zdotaccent" unicode="&#x17b;" horiz-adv-x="616" 
d="M68 0v41l418 618h-399v41h451v-41l-418 -618h430v-41h-482zM274 818q0 16 10.5 26.5t27.5 10.5t27.5 -10.5t10.5 -26.5q0 -14 -10.5 -25.5t-27.5 -11.5t-27.5 11.5t-10.5 25.5z" />
    <glyph glyph-name="zdotaccent" unicode="&#x17c;" horiz-adv-x="491" 
d="M60 0v38l319 430h-306v40h359v-38l-319 -430h323v-40h-376zM214 658q0 16 10.5 26.5t27.5 10.5t27.5 -10.5t10.5 -26.5q0 -14 -10.5 -25.5t-27.5 -11.5t-27.5 11.5t-10.5 25.5z" />
    <glyph glyph-name="Zcaron" unicode="&#x17d;" horiz-adv-x="616" 
d="M68 0v41l418 618h-399v41h451v-41l-418 -618h430v-41h-482zM455 882l-114 -119h-46l-114 119h49l88 -92l88 92h49z" />
    <glyph glyph-name="zcaron" unicode="&#x17e;" horiz-adv-x="491" 
d="M60 0v38l319 430h-306v40h359v-38l-319 -430h323v-40h-376zM391 719l-110 -136h-46l-110 136h47l86 -106l86 106h47z" />
    <glyph glyph-name="florin" unicode="&#x192;" horiz-adv-x="505" 
d="M45 -174v39h51q44 0 64.5 21t24.5 68l36 409h-105v39h108l15 171q12 127 128 127h68v-39h-59q-43 0 -64 -20t-25 -70l-15 -169h127v-39h-130l-36 -410q-11 -127 -129 -127h-59z" />
    <glyph glyph-name="Aringacute" unicode="&#x1fa;" horiz-adv-x="662" 
d="M417 750q0 -54 -53 -72l258 -678h-51l-71 192h-339l-70 -192h-51l257 678q-52 17 -52 72q0 34 23.5 55.5t62.5 21.5t62.5 -21.5t23.5 -55.5zM331 654l-155 -421h309zM331 700q26 0 40.5 13.5t14.5 36.5t-14.5 36.5t-40.5 13.5t-40.5 -13.5t-14.5 -36.5t14.5 -36.5
t40.5 -13.5zM318 862l59 98h58l-69 -98h-48z" />
    <glyph glyph-name="aringacute" unicode="&#x1fb;" horiz-adv-x="555" 
d="M278 761l59 98h57l-68 -98h-48zM294 591q26 0 40.5 14t14.5 37t-14.5 37t-40.5 14t-40.5 -14t-14.5 -37t14.5 -37t40.5 -14zM294 564q-39 0 -62.5 22t-23.5 56t23.5 56t62.5 22t62.5 -22t23.5 -56t-23.5 -56t-62.5 -22zM248 -12q-88 0 -142 45.5t-54 117.5q0 73 56.5 115
t147.5 42q55 0 102.5 -22.5t70.5 -53.5v101q0 64 -39.5 106t-105.5 42q-110 0 -149 -94h-45q18 62 70 97.5t124 35.5q85 0 139 -52.5t54 -132.5v-335h-46v71q-22 -34 -72 -58.5t-111 -24.5zM251 25q70 0 124 33.5t54 91.5q0 54 -54 87t-119 33q-70 0 -114 -31t-44 -89
q0 -57 42 -91t111 -34z" />
    <glyph glyph-name="AEacute" unicode="&#x1fc;" horiz-adv-x="1027" 
d="M533 763l74 119h58l-84 -119h-48zM519 0v199h-314l-135 -199h-53l480 700h471v-41h-400v-283h371v-42h-371v-293h401v-41h-450zM232 239h287v421z" />
    <glyph glyph-name="aeacute" unicode="&#x1fd;" horiz-adv-x="922" 
d="M434 583l85 136h57l-94 -136h-48zM649 -12q-67 0 -117 28t-77 78q-20 -45 -74.5 -75.5t-124.5 -30.5q-95 0 -149.5 47t-54.5 117q0 74 56 116t148 42q54 0 102 -21t71 -50v93q0 62 -40 105.5t-106 43.5q-110 0 -148 -95h-44q19 64 68.5 99t123.5 35q60 0 105.5 -28.5
t68.5 -75.5q54 104 189 104q98 0 154 -63t56 -156v-68h-379v-30q0 -77 45.5 -127t126.5 -50q60 0 101 31t57 84h42q-15 -68 -69.5 -110.5t-130.5 -42.5zM253 25q72 0 124 35t52 93q0 54 -54 86.5t-120 32.5q-69 0 -113 -31t-44 -90q0 -57 43 -91.5t112 -34.5zM477 296v-24
h333v31q0 79 -42.5 129t-121.5 50q-83 0 -126 -50t-43 -136z" />
    <glyph glyph-name="Oslashacute" unicode="&#x1fe;" horiz-adv-x="724" 
d="M334 763l74 119h58l-84 -119h-48zM647 410v-120q0 -131 -73.5 -217.5t-211.5 -86.5q-110 0 -181 57l-62 -93h-42l77 118q-77 83 -77 222v120q0 131 73.5 217.5t211.5 86.5q108 0 181 -58l62 94h42l-78 -118q78 -84 78 -222zM599 288v124q0 110 -56 181l-338 -513
q60 -54 157 -54q117 0 177 74.5t60 187.5zM125 288q0 -112 55 -181l339 513q-62 54 -157 54q-117 0 -177 -74.5t-60 -187.5v-124z" />
    <glyph glyph-name="oslashacute" unicode="&#x1ff;" horiz-adv-x="560" 
d="M251 583l85 136h57l-94 -136h-48zM280 -12q-77 0 -131 37l-49 -75h-39l63 96q-63 61 -63 163v90q0 96 59 158.5t160 62.5q74 0 130 -37l50 76h39l-64 -97q64 -62 64 -163v-90q0 -96 -59 -158.5t-160 -62.5zM453 297q0 77 -42 128l-239 -365q44 -33 108 -33q81 0 127 51.5
t46 132.5v86zM107 211q0 -78 41 -128l239 365q-44 33 -107 33q-81 0 -127 -51.5t-46 -132.5v-86z" />
    <glyph glyph-name="Scommaaccent" unicode="&#x218;" horiz-adv-x="652" 
d="M330 -14q-111 0 -183 57t-72 149v16h47v-15q0 -76 58 -121.5t150 -45.5t150 42t58 115q0 100 -112 129l-207 54q-132 35 -132 161q0 86 63.5 136.5t168.5 50.5t171.5 -55t66.5 -142v-16h-45v15q0 70 -52.5 114t-140.5 44q-85 0 -135 -38.5t-50 -105.5q0 -50 24 -79.5
t75 -43.5l209 -55q67 -18 105 -60t38 -106q0 -92 -72.5 -146t-182.5 -54zM273 -250l42 167h52l-54 -167h-40z" />
    <glyph glyph-name="scommaaccent" unicode="&#x219;" horiz-adv-x="525" 
d="M268 -12q-89 0 -147.5 43t-58.5 114v3h47v-2q0 -55 46 -87t114 -32q66 0 110 29.5t44 78.5q0 65 -73 83l-167 41q-107 27 -107 121q0 64 50.5 102t132.5 38t133.5 -43.5t51.5 -113.5v-3h-47v3q0 53 -37 85.5t-101 32.5q-63 0 -99.5 -26.5t-36.5 -74.5q0 -61 69 -78
l165 -41q113 -28 113 -125q0 -66 -59 -107t-143 -41zM214 -250l42 167h52l-54 -167h-40z" />
    <glyph glyph-name="circumflex" unicode="&#x2c6;" horiz-adv-x="462" 
d="M254 719l110 -136h-47l-86 106l-86 -106h-47l110 136h46z" />
    <glyph glyph-name="caron" unicode="&#x2c7;" horiz-adv-x="462" 
d="M364 719l-110 -136h-46l-110 136h47l86 -106l86 106h47z" />
    <glyph glyph-name="breve" unicode="&#x2d8;" horiz-adv-x="492" 
d="M246 583q-70 0 -109 38.5t-39 97.5h38q0 -47 28 -75.5t82 -28.5t82 28.5t28 75.5h38q0 -59 -39 -97.5t-109 -38.5z" />
    <glyph glyph-name="dotaccent" unicode="&#x2d9;" horiz-adv-x="272" 
d="M98 658q0 16 10.5 26.5t27.5 10.5t27.5 -10.5t10.5 -26.5q0 -14 -10.5 -25.5t-27.5 -11.5t-27.5 11.5t-10.5 25.5z" />
    <glyph glyph-name="ring" unicode="&#x2da;" horiz-adv-x="368" 
d="M184 610q26 0 40.5 15t14.5 38t-14.5 38t-40.5 15t-40.5 -15t-14.5 -38t14.5 -38t40.5 -15zM184 583q-39 0 -62.5 23t-23.5 57t23.5 57t62.5 23t62.5 -23t23.5 -57t-23.5 -57t-62.5 -23z" />
    <glyph glyph-name="ogonek" unicode="&#x2db;" horiz-adv-x="329" 
d="M183 -186q-40 0 -62.5 20.5t-22.5 55.5q0 38 26.5 67.5t60.5 42.5h46q-31 -19 -46 -30t-30 -32t-15 -45q0 -44 57 -44q19 0 34 3v-32q-22 -6 -48 -6z" />
    <glyph glyph-name="tilde" unicode="&#x2dc;" horiz-adv-x="529" 
d="M132 591l-34 7q16 102 90 102q33 0 87.5 -35.5t71.5 -35.5q12 0 21 5.5t14.5 19.5t7.5 21t7 28l34 -7q-7 -29 -14.5 -48.5t-25.5 -36t-44 -16.5q-25 0 -79 35.5t-79 35.5q-26 0 -37 -18t-20 -57z" />
    <glyph glyph-name="hungarumlaut" unicode="&#x2dd;" horiz-adv-x="499" 
d="M98 583l68 136h51l-76 -136h-43zM282 583l68 136h51l-76 -136h-43z" />
    <glyph glyph-name="uni0312" unicode="&#x312;" horiz-adv-x="284" 
d="M97 583l44 136h46l-33 -136h-57z" />
    <glyph glyph-name="uni0315" unicode="&#x315;" horiz-adv-x="287" 
d="M97 547l40 183h52l-52 -183h-40z" />
    <glyph glyph-name="uni0326" unicode="&#x326;" horiz-adv-x="289" 
d="M97 -250l42 167h52l-54 -167h-40z" />
    <glyph glyph-name="Omega" unicode="&#x3a9;" horiz-adv-x="718" 
d="M628 39v-39h-167v39q127 142 127 304v57q0 126 -58.5 200.5t-170.5 74.5t-170.5 -74.5t-58.5 -200.5v-57q0 -162 127 -304v-39h-167v39h116q-53 59 -88.5 140t-35.5 166v56q0 143 71 228t206 85t206 -85t71 -228v-56q0 -85 -35.5 -166t-88.5 -140h116z" />
    <glyph glyph-name="pi" unicode="&#x3c0;" horiz-adv-x="727" 
d="M181 0v469h-114v39h593v-39h-138v-336q0 -49 19.5 -71.5t64.5 -22.5h52v-39h-61q-123 0 -123 132v337h-245v-469h-48z" />
    <glyph glyph-name="Wgrave" unicode="&#x1e80;" horiz-adv-x="902" 
d="M864 700l-166 -700h-51l-196 648l-196 -648h-51l-166 700h48l145 -636l193 636h54l193 -636l145 636h48zM418 763l-84 119h58l74 -119h-48z" />
    <glyph glyph-name="wgrave" unicode="&#x1e81;" horiz-adv-x="746" 
d="M708 508l-141 -508h-48l-146 456l-146 -456h-48l-141 508h45l121 -451l144 451h50l144 -451l121 451h45zM299 719l85 -136h-48l-94 136h57z" />
    <glyph glyph-name="Wacute" unicode="&#x1e82;" horiz-adv-x="902" 
d="M864 700l-166 -700h-51l-196 648l-196 -648h-51l-166 700h48l145 -636l193 636h54l193 -636l145 636h48zM437 763l74 119h58l-84 -119h-48z" />
    <glyph glyph-name="wacute" unicode="&#x1e83;" horiz-adv-x="746" 
d="M708 508l-141 -508h-48l-146 456l-146 -456h-48l-141 508h45l121 -451l144 451h50l144 -451l121 451h45zM360 583l85 136h57l-94 -136h-48z" />
    <glyph glyph-name="Wdieresis" unicode="&#x1e84;" horiz-adv-x="902" 
d="M864 700l-166 -700h-51l-196 648l-196 -648h-51l-166 700h48l145 -636l193 636h54l193 -636l145 636h48zM302 817q0 15 10 25.5t27 10.5t27 -10.5t10 -25.5q0 -14 -10 -25t-27 -11t-27 11t-10 25zM526 817q0 15 10 25.5t27 10.5t27 -10.5t10 -25.5q0 -14 -10 -25t-27 -11
t-27 11t-10 25z" />
    <glyph glyph-name="wdieresis" unicode="&#x1e85;" horiz-adv-x="746" 
d="M708 508l-141 -508h-48l-146 456l-146 -456h-48l-141 508h45l121 -451l144 451h50l144 -451l121 451h45zM235 646q0 15 10 25.5t27 10.5t27 -10.5t10 -25.5q0 -14 -10.5 -25t-26.5 -11t-26.5 11t-10.5 25zM437 646q0 15 10 25.5t27 10.5t27 -10.5t10 -25.5
q0 -14 -10.5 -25t-26.5 -11t-26.5 11t-10.5 25z" />
    <glyph glyph-name="Ygrave" unicode="&#x1ef2;" horiz-adv-x="582" 
d="M315 271v-271h-48v271l-251 429h51l224 -384l224 384h51zM270 763l-84 119h58l74 -119h-48z" />
    <glyph glyph-name="ygrave" unicode="&#x1ef3;" horiz-adv-x="493" 
d="M164 -174l60 174l-190 508h49l165 -450l162 450h49l-185 -506l-63 -176h-47zM192 719l85 -136h-48l-94 136h57z" />
    <glyph glyph-name="endash" unicode="&#x2013;" horiz-adv-x="612" 
d="M73 290v39h466v-39h-466z" />
    <glyph glyph-name="emdash" unicode="&#x2014;" horiz-adv-x="911" 
d="M73 290v39h765v-39h-765z" />
    <glyph glyph-name="quoteleft" unicode="&#x2018;" horiz-adv-x="208" 
d="M151 700l-46 -205h-54l60 205h40z" />
    <glyph glyph-name="quoteright" unicode="&#x2019;" horiz-adv-x="208" 
d="M57 495l46 205h54l-60 -205h-40z" />
    <glyph glyph-name="quotesinglbase" unicode="&#x201a;" horiz-adv-x="222" 
d="M40 -107l46 205h54l-60 -205h-40z" />
    <glyph glyph-name="quotedblleft" unicode="&#x201c;" horiz-adv-x="396" 
d="M339 700l-46 -205h-54l60 205h40zM151 700l-46 -205h-54l60 205h40z" />
    <glyph glyph-name="quotedblright" unicode="&#x201d;" horiz-adv-x="396" 
d="M57 495l46 205h54l-60 -205h-40zM245 495l46 205h54l-60 -205h-40z" />
    <glyph glyph-name="quotedblbase" unicode="&#x201e;" horiz-adv-x="410" 
d="M40 -107l46 205h54l-60 -205h-40zM228 -107l46 205h54l-60 -205h-40z" />
    <glyph glyph-name="dagger" unicode="&#x2020;" horiz-adv-x="496" 
d="M228 -100v579h-150v34h150v187h40v-187h150v-34h-150v-579h-40z" />
    <glyph glyph-name="daggerdbl" unicode="&#x2021;" horiz-adv-x="506" 
d="M233 121v358h-150v34h150v187h40v-187h150v-34h-150v-358h150v-34h-150v-187h-40v187h-150v34h150z" />
    <glyph glyph-name="bullet" unicode="&#x2022;" horiz-adv-x="414" 
d="M207 249q-50 0 -80 30t-30 77t30 77t80 30t80 -30t30 -77t-30 -77t-80 -30z" />
    <glyph glyph-name="ellipsis" unicode="&#x2026;" horiz-adv-x="666" 
d="M72 33q0 17 11 28t28 11t28 -11t11 -28t-11 -28t-28 -11t-28 11t-11 28zM294 33q0 17 11 28t28 11t28 -11t11 -28t-11 -28t-28 -11t-28 11t-11 28zM516 33q0 17 11 28t28 11t28 -11t11 -28t-11 -28t-28 -11t-28 11t-11 28z" />
    <glyph glyph-name="perthousand" unicode="&#x2030;" horiz-adv-x="1208" 
d="M220 0l365 700h39l-365 -700h-39zM360 561v-92q0 -66 -39 -106.5t-106 -40.5t-106 40.5t-39 106.5v92q0 66 39 106.5t106 40.5t106 -40.5t39 -106.5zM215 353q51 0 79.5 31t28.5 83v96q0 52 -28.5 83t-79.5 31q-50 0 -79 -31t-29 -83v-96q0 -52 29 -83t79 -31zM773 231
v-92q0 -66 -39 -106.5t-106 -40.5t-106 40.5t-39 106.5v92q0 66 39 106.5t106 40.5t106 -40.5t39 -106.5zM628 23q51 0 79.5 31t28.5 83v96q0 52 -28.5 83t-79.5 31q-50 0 -79 -31t-29 -83v-96q0 -52 29 -83t79 -31zM1143 231v-92q0 -66 -39 -106.5t-106 -40.5t-106 40.5
t-39 106.5v92q0 66 39 106.5t106 40.5t106 -40.5t39 -106.5zM998 23q51 0 79.5 31t28.5 83v96q0 52 -28.5 83t-79.5 31q-50 0 -79 -31t-29 -83v-96q0 -52 29 -83t79 -31z" />
    <glyph glyph-name="guilsinglleft" unicode="&#x2039;" horiz-adv-x="335" 
d="M219 60l-177 210l177 210h54l-176 -210l176 -210h-54z" />
    <glyph glyph-name="guilsinglright" unicode="&#x203a;" horiz-adv-x="335" 
d="M293 270l-177 -210h-54l176 210l-176 210h54z" />
    <glyph glyph-name="fraction" unicode="&#x2044;" horiz-adv-x="364" 
d="M-20 0l365 700h39l-365 -700h-39z" />
    <glyph glyph-name="Euro" unicode="&#x20ac;" horiz-adv-x="658" 
d="M50 420v39h83v27q0 100 60.5 164t169.5 64q96 0 156 -60.5t69 -146.5h-45q-10 72 -56.5 120t-123.5 48q-88 0 -135 -50.5t-47 -137.5v-28h235v-39h-235v-140h235v-39h-235v-28q0 -87 47 -137.5t135 -50.5q77 0 123.5 48t56.5 120h45q-9 -86 -69 -146.5t-156 -60.5
q-109 0 -169.5 64t-60.5 164v27h-83v39h83v140h-83z" />
    <glyph glyph-name="published" unicode="&#x2117;" horiz-adv-x="872" 
d="M334 172v354h133q53 0 85 -32t32 -80q0 -47 -32.5 -79t-84.5 -32h-103v-131h-30zM364 328h98q44 0 68 24.5t24 61.5t-24 62t-68 25h-98v-173zM436 712q160 0 259.5 -105.5t99.5 -256.5t-99.5 -256.5t-259.5 -105.5t-259.5 105.5t-99.5 256.5t99.5 256.5t259.5 105.5z
M436 8q153 0 245 99.5t92 242.5t-92 242.5t-245 99.5t-245 -99.5t-92 -242.5t92 -242.5t245 -99.5z" />
    <glyph glyph-name="trademark" unicode="&#x2122;" horiz-adv-x="647" 
d="M150 416v262h-92v22h210v-22h-91v-262h-27zM570 700v-284h-25v237l-83 -162h-28l-83 162v-237h-25v284h27l95 -186l95 186h27z" />
    <glyph glyph-name="partialdiff" unicode="&#x2202;" horiz-adv-x="584" 
d="M288 -14q-98 0 -160.5 64.5t-62.5 157.5v30q0 101 59.5 162t158.5 61q70 0 120 -31.5t70 -75.5q-17 144 -93 225.5t-238 81.5h-14v39h17q82 0 146.5 -22t106.5 -60.5t70 -93t39.5 -116t11.5 -133.5v-54q0 -101 -64 -168t-167 -67zM289 24q81 0 132 53t51 134v32
q0 73 -53.5 126.5t-126.5 53.5q-85 0 -132.5 -48.5t-47.5 -135.5v-32q0 -82 50 -132.5t127 -50.5z" />
    <glyph glyph-name="Delta" unicode="&#x2206;" horiz-adv-x="664" 
d="M599 36v-36h-534v36l244 664h46zM552 39l-220 615l-220 -615h440z" />
    <glyph glyph-name="product" unicode="&#x220f;" horiz-adv-x="788" 
d="M201 -174v835h-139v39h664v-39h-139v-835h-48v835h-290v-835h-48z" />
    <glyph glyph-name="summation" unicode="&#x2211;" horiz-adv-x="612" 
d="M82 661v39h458v-39h-406l248 -398l-248 -398h406v-39h-458v39l250 398z" />
    <glyph glyph-name="minus" unicode="&#x2212;" horiz-adv-x="598" 
d="M85 341v38h428v-38h-428z" />
    <glyph glyph-name="radical" unicode="&#x221a;" horiz-adv-x="687" 
d="M339 -100l-137 380h-132v40h163l132 -379l205 809h42l-216 -850h-57z" />
    <glyph glyph-name="infinity" unicode="&#x221e;" horiz-adv-x="874" 
d="M633 197q-66 0 -118 38t-78 89q-26 -51 -78 -89t-118 -38q-71 0 -117 45t-46 118t46 118t117 45q66 0 118 -38t78 -89q26 51 78 89t118 38q71 0 117 -45t46 -118t-46 -118t-117 -45zM628 234q55 0 91 34.5t36 91.5t-36 91.5t-91 34.5q-61 0 -104 -38t-66 -88
q23 -50 66 -88t104 -38zM246 234q61 0 104 38t66 88q-23 50 -66 88t-104 38q-55 0 -91 -34.5t-36 -91.5t36 -91.5t91 -34.5z" />
    <glyph glyph-name="integral" unicode="&#x222b;" horiz-adv-x="441" 
d="M62 -174v39h32q52 0 75 23t23 75v599q0 70 32 104t104 34h41v-39h-35q-53 0 -73.5 -22.5t-20.5 -76.5v-597q0 -139 -138 -139h-40z" />
    <glyph glyph-name="approxequal" unicode="&#x2248;" horiz-adv-x="594" 
d="M411 211q-40 0 -112 36q-64 33 -101 33q-20 0 -37.5 -7.5t-28 -17t-27.5 -26.5l-25 24q57 64 120 64q42 0 112 -36q61 -33 99 -33q50 0 86 39l22 -24q-42 -52 -108 -52zM411 404q-40 0 -112 36q-64 33 -101 33q-20 0 -37.5 -7.5t-28 -17t-27.5 -26.5l-25 24q57 64 120 64
q42 0 112 -36q61 -33 99 -33q50 0 86 39l22 -24q-42 -52 -108 -52z" />
    <glyph glyph-name="notequal" unicode="&#x2260;" horiz-adv-x="623" 
d="M100 460v37h260l66 128h42l-66 -128h121v-37h-140l-103 -200h243v-37h-262l-65 -128h-41l65 128h-120v37h139l102 200h-241z" />
    <glyph glyph-name="lessequal" unicode="&#x2264;" horiz-adv-x="618" 
d="M85 0v39h438v-39h-438zM85 393l438 197v-43l-382 -172l382 -172v-43l-438 197v36z" />
    <glyph glyph-name="greaterequal" unicode="&#x2265;" horiz-adv-x="618" 
d="M533 39v-39h-438v39h438zM95 590l438 -197v-36l-438 -197v43l382 172l-382 172v43z" />
    <glyph glyph-name="lozenge" unicode="&#x25ca;" horiz-adv-x="648" 
d="M576 350l-231 -350h-42l-231 350l231 350h42zM324 39l204 311l-204 311l-204 -311z" />
    <glyph glyph-name="apple" unicode="&#xf8ff;" horiz-adv-x="867" 
d="M117 163v362q0 74 50.5 124.5t124.5 50.5h350q74 0 124.5 -50t50.5 -124t-50.5 -124t-124.5 -50h-175v-189q0 -74 -50.5 -124.5t-124.5 -50.5t-124.5 50.5t-50.5 124.5z" />
    <glyph glyph-name="fi" unicode="&#xfb01;" horiz-adv-x="576" 
d="M124 0v469h-79v39h79v74q0 76 35.5 112t108.5 36h61v-39h-58q-54 0 -76.5 -25t-22.5 -80v-78h139v-39h-139v-469h-48zM436 0v508h48v-508h-48zM422 658q0 16 10.5 26.5t27.5 10.5t27.5 -10.5t10.5 -26.5q0 -14 -10.5 -25.5t-27.5 -11.5t-27.5 11.5t-10.5 25.5z" />
    <glyph glyph-name="fl" unicode="&#xfb02;" horiz-adv-x="576" 
d="M124 0v469h-79v39h79v74q0 76 35.5 112t108.5 36h61v-39h-58q-54 0 -76.5 -25t-22.5 -80v-78h139v-39h-139v-469h-48zM436 0v730h48v-730h-48z" />
    <glyph glyph-name="acute.case" horiz-adv-x="328" 
d="M98 763l74 119h58l-84 -119h-48z" />
    <glyph glyph-name="breve.case" horiz-adv-x="502" 
d="M251 763q-70 0 -110 33t-43 86h39q3 -39 32.5 -62.5t81.5 -23.5t81.5 23.5t32.5 62.5h39q-3 -53 -43 -86t-110 -33z" />
    <glyph glyph-name="caron.case" horiz-adv-x="470" 
d="M372 882l-114 -119h-46l-114 119h49l88 -92l88 92h49z" />
    <glyph glyph-name="circumflex.case" horiz-adv-x="470" 
d="M258 882l114 -119h-49l-88 92l-88 -92h-49l114 119h46z" />
    <glyph glyph-name="dieresis.case" horiz-adv-x="494" 
d="M98 817q0 15 10 25.5t27 10.5t27 -10.5t10 -25.5q0 -14 -10 -25t-27 -11t-27 11t-10 25zM322 817q0 15 10 25.5t27 10.5t27 -10.5t10 -25.5q0 -14 -10 -25t-27 -11t-27 11t-10 25z" />
    <glyph glyph-name="dotaccent.case" horiz-adv-x="272" 
d="M98 818q0 16 10.5 26.5t27.5 10.5t27.5 -10.5t10.5 -26.5q0 -14 -10.5 -25.5t-27.5 -11.5t-27.5 11.5t-10.5 25.5z" />
    <glyph glyph-name="grave.case" horiz-adv-x="328" 
d="M182 763l-84 119h58l74 -119h-48z" />
    <glyph glyph-name="hungarumlaut.case" horiz-adv-x="520" 
d="M98 763l59 119h51l-66 -119h-44zM312 763l58 119h52l-67 -119h-43z" />
    <glyph glyph-name="macron.case" horiz-adv-x="499" 
d="M98 805v38h303v-38h-303z" />
    <glyph glyph-name="ring.case" horiz-adv-x="368" 
d="M184 790q26 0 40.5 15t14.5 38t-14.5 38t-40.5 15t-40.5 -15t-14.5 -38t14.5 -38t40.5 -15zM184 763q-39 0 -62.5 23t-23.5 57t23.5 57t62.5 23t62.5 -23t23.5 -57t-23.5 -57t-62.5 -23z" />
    <glyph glyph-name="tilde.case" horiz-adv-x="545" 
d="M132 767l-34 6q9 51 29.5 77t61.5 26q33 0 94 -35.5t78 -35.5q27 0 41 35q3 8 9 28l3 11l33 -9q-23 -100 -85 -100q-25 0 -86.5 35.5t-86.5 35.5q-26 0 -38 -18.5t-19 -55.5z" />
    <glyph glyph-name="J.salt" horiz-adv-x="596" 
d="M282 -14q-99 0 -159.5 54t-60.5 140v5h48v-5q0 -69 46 -111t126 -42q79 0 125.5 42.5t46.5 113.5v477h-339v40h388v-517q0 -87 -62 -142t-159 -55z" />
    <glyph glyph-name="IJ.salt" horiz-adv-x="849" 
d="M102 0v700h49v-700h-49zM535 -14q-99 0 -159.5 54t-60.5 140v5h48v-5q0 -69 46 -111t126 -42q79 0 125.5 42.5t46.5 113.5v477h-339v40h388v-517q0 -87 -62 -142t-159 -55z" />
    <glyph glyph-name="Jcircumflex.salt" horiz-adv-x="600" 
d="M344 882l114 -119h-49l-88 92l-88 -92h-49l114 119h46zM287 -14q-99 0 -159.5 54t-60.5 140v5h48v-5q0 -69 46 -111t126 -42q79 0 125.5 42.5t46.5 113.5v477h-339v40h388v-517q0 -87 -62 -142t-159 -55z" />
    <glyph glyph-name="ornm01.ornm" horiz-adv-x="1034" 
d="M551 0l349 350l-349 350h55l350 -350l-350 -350h-55zM108 330v40h554v-40h-554z" />
    <glyph glyph-name="ornm02.ornm" horiz-adv-x="1034" 
d="M134 350l349 -350h-55l-350 350l350 350h55zM926 370v-40h-554v40h554z" />
    <glyph glyph-name="ornm03.ornm" horiz-adv-x="854" 
d="M674 166v495h-494l39 39h497v-494zM136 94l-29 29l383 384l30 -30z" />
    <glyph glyph-name="ornm04.ornm" horiz-adv-x="854" 
d="M180 166l-42 40v494h497l40 -39h-495v-495zM718 94l-384 383l30 30l383 -384z" />
    <glyph glyph-name="ornm05.ornm" horiz-adv-x="854" 
d="M219 0l-39 39h494v495l42 -40v-494h-497zM490 193l-383 384l29 29l384 -383z" />
    <glyph glyph-name="ornm06.ornm" horiz-adv-x="854" 
d="M138 0v494l42 40v-495h495l-40 -39h-497zM364 193l-30 30l384 383l29 -29z" />
    <glyph glyph-name="ornm07.ornm" horiz-adv-x="916" 
d="M108 308v56l350 350l350 -350v-56l-350 350zM437 -131v549h42v-549h-42z" />
    <glyph glyph-name="ornm08.ornm" horiz-adv-x="916" 
d="M458 -145l-350 350v56l350 -350l350 350v-56zM437 151v549h42v-549h-42z" />
    <glyph glyph-name="ornm09.ornm" horiz-adv-x="894" 
d="M496 23l275 275l-275 275h55l276 -275l-276 -275h-55zM97 278v40h440v-40h-440z" />
    <glyph glyph-name="ornm10.ornm" horiz-adv-x="894" 
d="M343 23l-276 275l276 275h55l-275 -275l275 -275h-55zM357 278v40h440v-40h-440z" />
    <glyph glyph-name="ornm11.ornm" horiz-adv-x="755" 
d="M587 81v389h-389l39 38h391v-388zM124 -20l-27 27l311 310l27 -27z" />
    <glyph glyph-name="ornm12.ornm" horiz-adv-x="755" 
d="M168 81l-41 39v388h391l39 -38h-389v-389zM631 -20l-311 310l27 27l311 -310z" />
    <glyph glyph-name="ornm13.ornm" horiz-adv-x="755" 
d="M237 0l-39 38h389v389l41 -39v-388h-391zM408 191l-311 310l27 27l311 -310z" />
    <glyph glyph-name="ornm14.ornm" horiz-adv-x="755" 
d="M127 0v388l41 39v-389h389l-39 -38h-391zM347 191l-27 27l311 310l27 -27z" />
    <glyph glyph-name="ornm15.ornm" horiz-adv-x="765" 
d="M107 263v56l276 275l275 -275v-56l-275 276zM361 -115v419h43v-419h-43z" />
    <glyph glyph-name="ornm16.ornm" horiz-adv-x="765" 
d="M383 -125l-276 275v56l276 -276l275 276v-56zM361 165v419h43v-419h-43z" />
    <glyph glyph-name="ornm17.ornm" horiz-adv-x="796" 
d="M262 742h21q8 -7 12.5 -21t7 -33t3.5 -24q9 -5 40 -12t41 -17q21 14 44.5 14t46.5 -10q-5 -8 -3.5 -10t13.5 -2q0 -13 6 -23q2 1 7.5 9.5t15.5 4.5q7 -6 24.5 -17.5t24.5 -19.5q15 0 32 11.5t24 13.5q5 -16 37.5 -14.5t43.5 -10.5q3 0 11.5 1t15.5 1t11 -2
q-15 -17 -50 -30t-45 -20q-13 -8 -23.5 -19.5t-21.5 -26.5t-19 -24q-5 -5 -35 -28.5t-39 -39.5q0 -9 3 -31t2 -36q-5 -5 -19.5 -14t-22 -18.5t-8.5 -23.5q19 -21 20 -26q-10 -14 -10 -40t-2 -45q7 -5 33.5 -22.5t42 -31t25.5 -30.5q13 12 27.5 4t18.5 -21q-5 -24 -2 -58
h-481q0 159 6 233q-27 15 -35 41q2 2 13.5 10.5t12.5 17.5q5 19 -5 51.5t-11 39.5q-2 16 0 59.5t-2 63.5q-1 14 -11.5 39.5t-11.5 35.5q-1 14 2 38.5t2 41.5t-10 29q29 1 88.5 -1.5t86.5 -0.5q3 4 3.5 11t-0.5 18t-1 15z" />
    <glyph glyph-name="ornm18.ornm" horiz-adv-x="935" 
d="M74 111q-6 -1 -8 4.5t3 8.5q41 12 66 34l16 15q17 24 28 52q2 7 6 17.5t6.5 18t3.5 14.5l-2 58q-3 36 -3 41q0 31 11.5 54.5t34.5 39t33 20.5t32 14q69 23 138 23q23 0 69 -4l60 -4q9 0 21 2q6 1 11.5 6.5t9.5 12t8 16t6.5 16t5.5 15t3 9.5q9 32 41 68q1 2 2.5 18t4.5 20
q4 1 15 0t13 -2q3 0 28 -5q12 0 14 -3q2 -1 4.5 -5t5.5 -6q7 -1 12 -6q1 -3 13 -15q8 -8 8 -16q0 -5 25 -21q5 -4 11 -7.5t13 -8t12 -7.5q17 -8 14 -18q-3 -7 -20 -12.5t-27 -5.5q-9 0 -24 3q-40 10 -55 1q-3 -1 -8.5 -13t-6.5 -17q-3 -31 -7 -50q-5 -21 -14.5 -51.5
t-10.5 -36.5q-1 -5 -2.5 -16.5t-3.5 -22t-5 -19.5q-18 -31 -19 -34q-5 -7 -13 -55t-10 -73q-5 -46 -3 -109q0 -8 9.5 -20t17.5 -11q5 0 9 -1.5t6 -2.5l1 -2q2 -2 1.5 -9t-3.5 -8l-4 -2l-20 1l6 -10l-4 -4h-42q-5 2 -12 15q0 1 -2 9t-4 18t-3 13q-2 4 -6 7t-4 5t1.5 13
t1.5 24q0 2 -3 5t-5 7q-1 3 -1 23v44t-1 34q0 4 -2.5 25.5t-2.5 29.5q-2 8 0.5 15.5t2.5 8.5q-1 4 -5 5t-13 0t-12 -1q-49 0 -95 34q-12 9 -26.5 25.5t-25.5 26.5t-22 10q-26 0 -41 -17q-8 -7 -16 -35q-1 -4 -1 -21q-1 -13 -10 -48q-3 -12 -14 -43q-2 -6 -8.5 -15.5
t-11.5 -16.5l-5 -6q-4 -5 -10.5 -11.5t-10.5 -11t-4 -7.5q-3 -4 -5.5 -11.5t-3.5 -12.5l-1 -5q-1 -54 0 -62q0 -6 1.5 -10.5t1.5 -5.5q3 -2 7 -5t7 -5q12 -3 13 -6q2 -12 -4 -14h-26q-7 2 -14 7l-10 9q-1 1 -2.5 16t-3 31.5t-1.5 17.5l-1 4q0 4 -0.5 9.5t-0.5 12.5v14t1 13
q0 9 -3 9q-2 0 -5 -5t-9 -12t-8 -10q-2 -4 -11.5 -35t-10.5 -39v-41l8 -8q8 -3 8 -10t-7 -12h-19q-8 0 -19 14q-3 6 0 51q0 4 1 14.5t1 18.5q0 22 2 38q-28 -20 -58 -23z" />
    </font>
</defs>
</svg>
