<?xml version="1.0" standalone="no"?>
<!DOCTYPE svg PUBLIC "-//W3C//DTD SVG 1.1//EN" "http://www.w3.org/Graphics/SVG/1.1/DTD/svg11.dtd" >
<svg xmlns="http://www.w3.org/2000/svg" xmlns:xlink="http://www.w3.org/1999/xlink" version="1.1">
<metadata>
Created by FontForge 20170731 at Tue Jan 31 19:34:39 2012
 By Aleksey,,,
Copyright (c) 2012 by Process Type Foundry, LLC. All rights reserved.
</metadata>
<defs>
<font id="Chrono-Thin" horiz-adv-x="214" >
  <font-face 
    font-family="Chrono Thin"
    font-weight="100"
    font-stretch="normal"
    units-per-em="1000"
    panose-1="2 11 5 6 0 0 0 2 0 4"
    ascent="750"
    descent="-250"
    x-height="504"
    cap-height="700"
    bbox="-44 -250 1111 970"
    underline-thickness="8"
    underline-position="-116"
    unicode-range="U+0020-FB02"
  />
<missing-glyph horiz-adv-x="726" 
d="M110 0v700h506v-700h-506zM119 8h488v684h-488v-684zM470 450l-101 -100l101 -100l-7 -6l-100 100l-99 -100l-7 6l100 100l-100 100l6 7l100 -101l101 101z" />
    <glyph glyph-name=".notdef" horiz-adv-x="726" 
d="M110 0v700h506v-700h-506zM119 8h488v684h-488v-684zM470 450l-101 -100l101 -100l-7 -6l-100 100l-99 -100l-7 6l100 100l-100 100l6 7l100 -101l101 101z" />
    <glyph glyph-name=".null" horiz-adv-x="0" 
 />
    <glyph glyph-name="nonmarkingreturn" horiz-adv-x="333" 
 />
    <glyph glyph-name="space" unicode=" " horiz-adv-x="240" 
 />
    <glyph glyph-name="exclam" unicode="!" horiz-adv-x="224" 
d="M116 152h-8l-3 287v261h14v-261zM98 12q0 14 14 14t14 -14t-14 -14t-14 14z" />
    <glyph glyph-name="quotedbl" unicode="&#x22;" horiz-adv-x="412" 
d="M312 452h-12v248h12v-248zM112 452h-12v248h12v-248z" />
    <glyph glyph-name="numbersign" unicode="#" horiz-adv-x="669" 
d="M158 0l27 236h-115v11h117l25 217h-121v11h122l26 225h13l-26 -225h253l26 225h13l-26 -225h112v-11h-114l-25 -217h118v-11h-119l-27 -236h-13l27 236h-253l-27 -236h-13zM224 464l-25 -217h254l25 217h-254z" />
    <glyph glyph-name="dollar" unicode="$" horiz-adv-x="601" 
d="M85 199h12v-19q0 -78 60 -123.5t149 -45.5t145.5 44t56.5 119q0 98 -109 140l-185 71q-59 23 -90.5 58t-31.5 93q0 77 55 120t147 44v110h12v-110q84 -3 141 -51t57 -121v-31h-12v31q0 70 -56.5 115.5t-138.5 45.5q-87 0 -139.5 -40.5t-52.5 -112.5q0 -55 28 -86.5
t85 -53.5l186 -72q117 -45 117 -150q0 -78 -59.5 -125t-149.5 -49v-110h-12v110q-92 2 -153.5 50t-61.5 130v19z" />
    <glyph glyph-name="percent" unicode="%" horiz-adv-x="811" 
d="M219 0l366 700h13l-366 -700h-13zM351 562v-91q0 -66 -37.5 -105t-100.5 -39t-100.5 39.5t-37.5 104.5v91q0 65 37.5 104.5t100.5 39.5t100.5 -39t37.5 -105zM339 469v95q0 59 -34 95.5t-92 36.5t-92 -36.5t-34 -95.5v-95q0 -59 34 -95.5t92 -36.5t92 36.5t34 95.5z
M741 229v-91q0 -66 -37.5 -105t-100.5 -39t-100.5 39.5t-37.5 104.5v91q0 65 37.5 104.5t100.5 39.5t100.5 -39t37.5 -105zM729 136v95q0 59 -34 95.5t-92 36.5t-92 -36.5t-34 -95.5v-95q0 -59 34 -95.5t92 -36.5t92 36.5t34 95.5z" />
    <glyph glyph-name="ampersand" unicode="&#x26;" horiz-adv-x="707" 
d="M474 544h-12v30q0 55 -40.5 92.5t-104.5 37.5q-69 0 -112 -36t-43 -98q0 -74 66 -138l317 -316q28 55 28 126v78h13v-77q0 -78 -32 -136l108 -107l-9 -8l-105 104q-69 -110 -227 -110q-105 0 -173 59.5t-68 142.5q0 75 37 127.5t121 90.5l-18 18q-70 70 -70 146
q0 65 46.5 104.5t120.5 39.5q68 0 112.5 -40.5t44.5 -99.5v-30zM321 -3q156 0 218 108l-292 292q-80 -37 -117 -85.5t-37 -123.5q0 -80 66 -135.5t162 -55.5z" />
    <glyph glyph-name="quotesingle" unicode="'" horiz-adv-x="212" 
d="M112 452h-12v248h12v-248z" />
    <glyph glyph-name="parenleft" unicode="(" horiz-adv-x="279" 
d="M211 782h15q-65 -130 -93.5 -236t-28.5 -222t28.5 -222t93.5 -236h-15q-64 126 -92.5 232t-28.5 226t28.5 226t92.5 232z" />
    <glyph glyph-name="parenright" unicode=")" horiz-adv-x="279" 
d="M53 782h15q64 -126 92.5 -232t28.5 -226t-28.5 -226t-92.5 -232h-15q65 130 93.5 236t28.5 222t-28.5 222t-93.5 236z" />
    <glyph glyph-name="asterisk" unicode="*" horiz-adv-x="431" 
d="M80 619l5 9l126 -75v147h10v-146l125 74l5 -9l-126 -74l126 -74l-5 -8l-125 73v-145h-10v146l-126 -74l-5 8l126 74z" />
    <glyph glyph-name="plus" unicode="+" horiz-adv-x="610" 
d="M299 134v221h-209v10h209v221h12v-221h209v-10h-209v-221h-12z" />
    <glyph glyph-name="comma" unicode="," horiz-adv-x="204" 
d="M45 -99l45 182h15l-48 -182h-12z" />
    <glyph glyph-name="hyphen" unicode="-" horiz-adv-x="418" 
d="M338 299h-258v11h258v-11z" />
    <glyph glyph-name="period" unicode="." horiz-adv-x="204" 
d="M88 12q0 14 14 14t14 -14t-14 -14t-14 14z" />
    <glyph glyph-name="slash" unicode="/" horiz-adv-x="431" 
d="M366 750l-282 -855h-14l282 855h14z" />
    <glyph glyph-name="zero" unicode="0" horiz-adv-x="622" 
d="M537 208q0 -97 -59.5 -159.5t-166.5 -62.5t-166.5 62.5t-59.5 159.5v284q0 97 59.5 159.5t166.5 62.5t166.5 -62.5t59.5 -159.5v-284zM523 493q0 90 -56 149t-156 59t-156 -59t-56 -149v-286q0 -90 56 -149t156 -59t156 59t56 149v286z" />
    <glyph glyph-name="one" unicode="1" horiz-adv-x="302" 
d="M178 0v685l-143 -82v14l145 83h12v-700h-14z" />
    <glyph glyph-name="two" unicode="2" horiz-adv-x="588" 
d="M109 509h-13v17q0 88 57 138t146 50q83 0 140.5 -50t57.5 -127q0 -51 -24.5 -94t-68.5 -92l-306 -338h406v-13h-422v14l311 343q90 99 90 180q0 72 -52.5 118t-131.5 46q-83 0 -136.5 -46.5t-53.5 -128.5v-17z" />
    <glyph glyph-name="three" unicode="3" horiz-adv-x="602" 
d="M129 688v12h375v-13l-270 -312h71q95 0 156 -53t61 -139q0 -85 -66 -141t-160 -56q-84 0 -149.5 51.5t-71.5 138.5h13q7 -81 67 -129t141 -48q90 0 151 52t61 132t-56 130t-147 50h-88v12l270 313h-358z" />
    <glyph glyph-name="four" unicode="4" horiz-adv-x="607" 
d="M327 700h14l-251 -502h332v183h14v-183h106v-12h-106v-186h-14v186h-347v13z" />
    <glyph glyph-name="five" unicode="5" horiz-adv-x="622" 
d="M88 157h14q22 -72 75.5 -115t133.5 -43q95 0 158.5 63.5t63.5 152.5q0 88 -57 150.5t-154 62.5q-120 0 -197 -104h-18l65 376h321v-13h-309l-62 -348q33 44 86 73t114 29q103 0 164 -66t61 -160q0 -95 -68 -162t-168 -67q-83 0 -142.5 47t-80.5 124z" />
    <glyph glyph-name="six" unicode="6" horiz-adv-x="586" 
d="M322 700h15l-227 -373v-1q26 48 74.5 81t115.5 33q98 0 159.5 -67t61.5 -159q0 -95 -64 -161.5t-164 -66.5q-94 0 -158.5 64.5t-64.5 158.5q0 74 42 143zM84 209q0 -90 61 -150.5t148 -60.5q95 0 154.5 63t59.5 152t-57.5 152t-149.5 63q-84 0 -150 -64t-66 -155z" />
    <glyph glyph-name="seven" unicode="7" horiz-adv-x="550" 
d="M143 0l327 688h-395v12h410v-10l-327 -690h-15z" />
    <glyph glyph-name="eight" unicode="8" horiz-adv-x="628" 
d="M314 714q90 0 144 -49t54 -130q0 -66 -45.5 -112t-107.5 -60q74 -7 128 -56.5t54 -130.5q0 -83 -65 -136.5t-162 -53.5t-162 53.5t-65 136.5q0 81 54 130.5t128 56.5q-62 14 -107.5 60t-45.5 112q0 81 54 130t144 49zM528 176q0 83 -59 132t-155 49t-155 -49t-59 -132
q0 -78 61 -128.5t153 -50.5t153 50.5t61 128.5zM129 535q0 -68 54 -117t131 -49t131 49t54 117q0 75 -51.5 121.5t-133.5 46.5t-133.5 -46.5t-51.5 -121.5z" />
    <glyph glyph-name="nine" unicode="9" horiz-adv-x="586" 
d="M264 0h-15l227 373v1q-26 -48 -74.5 -81t-115.5 -33q-98 0 -159.5 67t-61.5 159q0 95 64 161.5t164 66.5q94 0 158.5 -64.5t64.5 -158.5q0 -74 -42 -143zM502 491q0 90 -61 150.5t-148 60.5q-95 0 -154.5 -63t-59.5 -152t57.5 -152t149.5 -63q84 0 150 64t66 155z" />
    <glyph glyph-name="colon" unicode=":" horiz-adv-x="204" 
d="M88 12q0 14 14 14t14 -14t-14 -14t-14 14zM88 376q0 14 14 14t14 -14t-14 -14t-14 14z" />
    <glyph glyph-name="semicolon" unicode=";" horiz-adv-x="204" 
d="M45 -99l45 182h15l-48 -182h-12zM84 376q0 14 14 14t14 -14t-14 -14t-14 14z" />
    <glyph glyph-name="less" unicode="&#x3c;" horiz-adv-x="595" 
d="M65 355v10l430 231v-13l-418 -223l418 -223v-13z" />
    <glyph glyph-name="equal" unicode="=" horiz-adv-x="610" 
d="M100 473v10h410v-10h-410zM100 237v10h410v-10h-410z" />
    <glyph glyph-name="greater" unicode="&#x3e;" horiz-adv-x="595" 
d="M530 365v-10l-430 -231v13l418 223l-418 223v13z" />
    <glyph glyph-name="question" unicode="?" horiz-adv-x="487" 
d="M280 373l53 44q75 62 75 139q0 66 -46.5 106t-124.5 40q-75 0 -119.5 -41t-44.5 -116v-15h-13v15q0 78 48 123.5t129 45.5q84 0 134.5 -44.5t50.5 -113.5q0 -83 -80 -147l-55 -45q-42 -34 -55.5 -68.5t-13.5 -107.5v-48h-12v49q0 77 14.5 112t59.5 72zM199 12q0 14 14 14
t14 -14t-14 -14t-14 14z" />
    <glyph glyph-name="at" unicode="@" horiz-adv-x="951" 
d="M468 -110q-172 0 -277.5 112t-105.5 277q0 187 116 311t296 124q170 0 272 -96t102 -247q0 -58 -17.5 -113.5t-59.5 -98t-100 -42.5q-49 0 -82.5 35t-33.5 82q-16 -43 -53.5 -74t-88.5 -31q-59 0 -95 40.5t-36 97.5q0 15 3 33l7 40q26 147 149 147q55 0 91 -38t41 -88
l20 115h12l-37 -210q-2 -12 -2 -24q0 -47 29.5 -80t76.5 -33q52 0 90.5 39.5t55.5 92.5t17 108q0 149 -98.5 241t-263.5 92q-171 0 -284.5 -121t-113.5 -302q0 -100 41.5 -184.5t127.5 -139t202 -54.5q118 0 206 31l-2 -11q-86 -31 -205 -31zM438 141q50 0 90.5 38t49.5 92
l7 41q2 12 2 27q0 56 -35.5 96t-88.5 40q-110 0 -134 -135l-7 -40q-3 -18 -3 -33q0 -52 32 -89t87 -37z" />
    <glyph glyph-name="A" unicode="A" horiz-adv-x="646" 
d="M581 0l-79 210h-358l-79 -210h-15l265 700h16l265 -700h-15zM323 687l-175 -465h349z" />
    <glyph glyph-name="B" unicode="B" horiz-adv-x="647" 
d="M547 530q0 -61 -33.5 -105t-92.5 -63q75 -12 120.5 -58.5t45.5 -117.5q0 -82 -57.5 -134t-160.5 -52h-264v700h259q84 0 133.5 -49.5t49.5 -120.5zM119 12h246q100 0 153.5 48t53.5 126q0 75 -53.5 121.5t-143.5 46.5h-256v-342zM119 688v-322h241q82 0 127 48t45 115
t-45.5 113t-125.5 46h-242z" />
    <glyph glyph-name="C" unicode="C" horiz-adv-x="697" 
d="M356 -14q-129 0 -200 82.5t-71 213.5v136q0 131 71 213.5t200 82.5q111 0 182.5 -65.5t80.5 -161.5h-14q-10 92 -76.5 153t-172.5 61q-122 0 -189 -78.5t-67 -205.5v-134q0 -127 67 -205.5t189 -78.5q106 0 172.5 61t76.5 153h14q-9 -96 -80.5 -161.5t-182.5 -65.5z" />
    <glyph glyph-name="D" unicode="D" horiz-adv-x="691" 
d="M105 700h242q123 0 192 -75.5t69 -189.5v-170q0 -115 -71.5 -190t-199.5 -75h-232v700zM120 13h217q121 0 188.5 71.5t67.5 180.5v170q0 109 -64.5 180.5t-181.5 71.5h-227v-674z" />
    <glyph glyph-name="E" unicode="E" horiz-adv-x="598" 
d="M105 0v700h432v-13h-417v-325h388v-13h-388v-336h418v-13h-433z" />
    <glyph glyph-name="F" unicode="F" horiz-adv-x="571" 
d="M120 0h-15v700h421v-13h-406v-330h377v-13h-377v-344z" />
    <glyph glyph-name="G" unicode="G" horiz-adv-x="704" 
d="M612 478h-14q-2 95 -68 159t-178 64q-125 0 -188.5 -79t-63.5 -210v-121q0 -129 65.5 -210.5t194.5 -81.5q114 0 179.5 71.5t65.5 180.5v48h-235v13h249v-61q0 -116 -70 -190.5t-189 -74.5q-136 0 -205.5 86t-69.5 220v119q0 136 68 219.5t199 83.5q117 0 187.5 -67.5
t72.5 -168.5z" />
    <glyph glyph-name="H" unicode="H" horiz-adv-x="695" 
d="M105 0v700h15v-339h455v339h15v-700h-15v348h-455v-348h-15z" />
    <glyph glyph-name="I" unicode="I" horiz-adv-x="235" 
d="M110 0v700h15v-700h-15z" />
    <glyph glyph-name="J" unicode="J" horiz-adv-x="576" 
d="M60 174h14v-4q0 -77 53.5 -124t140.5 -47q85 0 139 49t54 126v526h15v-526q0 -82 -58.5 -135t-149.5 -53q-94 0 -151 51.5t-57 132.5v4z" />
    <glyph glyph-name="K" unicode="K" horiz-adv-x="571" 
d="M120 0h-15v700h15v-345l391 345h21l-394 -346l408 -354h-21l-405 353v-353z" />
    <glyph glyph-name="L" unicode="L" horiz-adv-x="557" 
d="M105 0v700h15v-687h392v-13h-407z" />
    <glyph glyph-name="M" unicode="M" horiz-adv-x="766" 
d="M661 700v-700h-13v684l-258 -507h-14l-258 507v-684h-13v700h17l261 -509l261 509h17z" />
    <glyph glyph-name="N" unicode="N" horiz-adv-x="704" 
d="M105 0v700h13l467 -675v675h14v-700h-13l-467 675v-675h-14z" />
    <glyph glyph-name="O" unicode="O" horiz-adv-x="722" 
d="M85 286v128q0 129 71 214.5t205 85.5t205 -85.5t71 -214.5v-128q0 -129 -71 -214.5t-205 -85.5t-205 85.5t-71 214.5zM361 701q-128 0 -194.5 -82.5t-66.5 -204.5v-128q0 -122 66.5 -204.5t194.5 -82.5t194.5 82.5t66.5 204.5v128q0 122 -66.5 204.5t-194.5 82.5z" />
    <glyph glyph-name="P" unicode="P" horiz-adv-x="622" 
d="M120 282v-282h-15v700h257q98 0 156.5 -60.5t58.5 -148.5t-58.5 -148.5t-156.5 -60.5h-242zM120 295h237q98 0 151.5 57.5t53.5 138.5t-53.5 138.5t-151.5 57.5h-237v-392z" />
    <glyph glyph-name="Q" unicode="Q" horiz-adv-x="722" 
d="M85 286v128q0 129 71 214.5t205 85.5t205 -85.5t71 -214.5v-128q0 -84 -32 -153t-93 -107l70 -107l-10 -7l-70 108q-63 -34 -141 -34q-134 0 -205 85.5t-71 214.5zM432 128l10 6l63 -97q58 37 87.5 103t29.5 146v128q0 122 -66.5 204.5t-194.5 82.5t-194.5 -82.5
t-66.5 -204.5v-128q0 -122 66.5 -204.5t194.5 -82.5q78 0 133 32z" />
    <glyph glyph-name="R" unicode="R" horiz-adv-x="654" 
d="M120 288v-288h-15v700h264q99 0 157 -59.5t58 -146.5q0 -75 -44.5 -131t-122.5 -71l161 -292h-16l-159 290q-18 -2 -34 -2h-249zM120 301h244q99 0 152 56.5t53 136.5t-53 136.5t-152 56.5h-244v-386z" />
    <glyph glyph-name="S" unicode="S" horiz-adv-x="649" 
d="M83 203h14v-17q0 -86 67.5 -137t165.5 -51t164 48.5t66 132.5q0 54 -33 91.5t-94 53.5l-218 57q-125 32 -125 151q0 84 62.5 133t164.5 49q103 0 169.5 -53.5t66.5 -137.5v-18h-13v18q0 79 -62.5 129t-160.5 50q-96 0 -154.5 -44.5t-58.5 -125.5q0 -58 28 -91t87 -48
l215 -57q140 -37 140 -157q0 -90 -70.5 -141.5t-173.5 -51.5q-107 0 -177 55t-70 145v17z" />
    <glyph glyph-name="T" unicode="T" horiz-adv-x="539" 
d="M262 0v687h-232v13h479v-13h-232v-687h-15z" />
    <glyph glyph-name="U" unicode="U" horiz-adv-x="696" 
d="M98 218v482h15v-485q0 -93 65.5 -154.5t169.5 -61.5t169.5 61.5t65.5 154.5v485h15v-482q0 -101 -68.5 -166.5t-181.5 -65.5t-181.5 65.5t-68.5 166.5z" />
    <glyph glyph-name="V" unicode="V" horiz-adv-x="592" 
d="M287 0l-257 700h15l251 -687l251 687h15l-257 -700h-18z" />
    <glyph glyph-name="W" unicode="W" horiz-adv-x="877" 
d="M837 700l-165 -700h-15l-219 687l-218 -687h-15l-165 700h14l159 -683l216 683h18l217 -683l159 683h14z" />
    <glyph glyph-name="X" unicode="X" horiz-adv-x="583" 
d="M540 700l-241 -345l249 -355h-15l-242 345l-241 -345h-15l249 355l-241 345h15l233 -334l234 334h15z" />
    <glyph glyph-name="Y" unicode="Y" horiz-adv-x="568" 
d="M291 278v-278h-14v278l-259 422h16l250 -408l250 408h16z" />
    <glyph glyph-name="Z" unicode="Z" horiz-adv-x="607" 
d="M70 0v13l441 674h-421v13h436v-13l-441 -674h454v-13h-469z" />
    <glyph glyph-name="bracketleft" unicode="[" horiz-adv-x="341" 
d="M100 -134v916h191v-12h-177v-892h177v-12h-191z" />
    <glyph glyph-name="backslash" unicode="\" horiz-adv-x="431" 
d="M347 -105l-282 855h14l282 -855h-14z" />
    <glyph glyph-name="bracketright" unicode="]" horiz-adv-x="341" 
d="M241 782v-916h-191v12h177v892h-177v12h191z" />
    <glyph glyph-name="asciicircum" unicode="^" horiz-adv-x="472" 
d="M242 700l155 -270h-15l-146 259l-146 -259h-15l155 270h12z" />
    <glyph glyph-name="underscore" unicode="_" horiz-adv-x="475" 
d="M-1 -96h477v-8h-477v8z" />
    <glyph glyph-name="grave" unicode="`" horiz-adv-x="315" 
d="M210 585h-14l-91 129h16z" />
    <glyph glyph-name="a" unicode="a" horiz-adv-x="556" 
d="M468 0h-13v92q-19 -42 -71 -73t-130 -31q-82 0 -137 43t-55 112q0 74 54 116.5t142 42.5q73 0 124.5 -29t71.5 -72v131q0 77 -46.5 124.5t-123.5 47.5q-66 0 -109.5 -29.5t-60.5 -81.5h-13q17 59 65 91t118 32q83 0 133.5 -51.5t50.5 -129.5v-335zM254 -1q48 0 92 14.5
t76 49.5t32 84q0 65 -57.5 104t-137.5 39q-85 0 -134.5 -39.5t-49.5 -107.5q0 -63 51 -103.5t128 -40.5z" />
    <glyph glyph-name="b" unicode="b" horiz-adv-x="577" 
d="M109 730v-353q13 50 65.5 94.5t129.5 44.5q92 0 148.5 -60.5t56.5 -151.5v-104q0 -91 -56.5 -151.5t-148.5 -60.5q-79 0 -132 46t-64 97v-131h-13v730h14zM495 203v98q0 90 -52 146.5t-140 56.5q-81 0 -137.5 -55t-56.5 -142v-110q0 -87 56.5 -142t137.5 -55
q88 0 140 56.5t52 146.5z" />
    <glyph glyph-name="c" unicode="c" horiz-adv-x="557" 
d="M68 205v94q0 94 59.5 155.5t148.5 61.5q87 0 143 -51t65 -129h-13q-8 74 -61 121t-134 47q-84 0 -139 -57.5t-55 -148.5v-92q0 -91 55 -148.5t139 -57.5q81 0 134 47t61 121h13q-9 -78 -65 -129t-143 -51q-89 0 -148.5 61.5t-59.5 155.5z" />
    <glyph glyph-name="d" unicode="d" horiz-adv-x="577" 
d="M482 730v-730h-13v131q-11 -51 -64 -97t-132 -46q-92 0 -148.5 60.5t-56.5 151.5v104q0 91 56.5 151.5t148.5 60.5q77 0 129 -44.5t66 -94.5v353h14zM468 197v110q0 87 -56.5 142t-137.5 55q-88 0 -140 -56.5t-52 -146.5v-98q0 -90 52 -146.5t140 -56.5q81 0 137.5 55
t56.5 142z" />
    <glyph glyph-name="e" unicode="e" horiz-adv-x="548" 
d="M476 242h-394v-43q0 -90 55 -144.5t140 -54.5q68 0 118 37.5t61 99.5h14q-12 -66 -65.5 -107.5t-127.5 -41.5q-92 0 -150.5 58.5t-58.5 154.5v94q0 102 56.5 161.5t150.5 59.5q92 0 146.5 -62t54.5 -153v-59zM82 294v-40h381v45q0 87 -50.5 146t-137.5 59q-89 0 -141 -56
t-52 -154z" />
    <glyph glyph-name="f" unicode="f" horiz-adv-x="338" 
d="M136 0v492h-84v12h84v81q0 76 34 110.5t105 34.5h48v-12h-47q-67 0 -96.5 -31.5t-29.5 -101.5v-81h155v-12h-155v-492h-14z" />
    <glyph glyph-name="g" unicode="g" horiz-adv-x="577" 
d="M482 504v-516q0 -73 -56.5 -123.5t-145.5 -50.5q-65 0 -120 28t-81 78h14q27 -45 77 -69.5t110 -24.5q81 0 134.5 45.5t53.5 117.5v167q-12 -49 -65 -93.5t-130 -44.5q-92 0 -148.5 57.5t-56.5 144.5v94q0 89 55.5 145.5t149.5 56.5q77 0 129 -41t66 -89v118h14zM468 316
q0 82 -56.5 135t-137.5 53q-88 0 -140 -54t-52 -139v-88q0 -85 52 -139t140 -54q78 0 136 55t58 137v94z" />
    <glyph glyph-name="h" unicode="h" horiz-adv-x="576" 
d="M109 0h-14v730h14v-353q17 62 67 100.5t125 38.5q85 0 135 -54t50 -149v-313h-14v311q0 90 -45 141t-127 51q-86 0 -138.5 -56t-52.5 -155v-292z" />
    <glyph glyph-name="i" unicode="i" 
d="M114 0h-14v504h14v-504zM93 650q0 14 14 14t14 -14t-14 -14t-14 14z" />
    <glyph glyph-name="j" unicode="j" 
d="M114 504v-568q0 -54 -28.5 -82t-79.5 -28h-26v13h25q95 0 95 97v568h14zM93 650q0 14 14 14t14 -14t-14 -14t-14 14z" />
    <glyph glyph-name="k" unicode="k" horiz-adv-x="474" 
d="M95 0v730h14v-466l293 240h20l-294 -241l308 -263h-20l-307 262v-262h-14z" />
    <glyph glyph-name="l" unicode="l" 
d="M114 0h-14v730h14v-730z" />
    <glyph glyph-name="m" unicode="m" horiz-adv-x="939" 
d="M109 0h-14v504h13v-128q16 64 63 102t121 38q70 0 117 -38t63 -105q19 67 69 105t121 38q86 0 136.5 -56t50.5 -151v-309h-14v307q0 90 -46 143t-128 53t-132 -54t-50 -147v-302h-14v307q0 90 -46 143t-128 53q-84 0 -133 -55.5t-49 -155.5v-292z" />
    <glyph glyph-name="n" unicode="n" horiz-adv-x="576" 
d="M109 0h-14v504h13v-128q17 62 67 101t126 39q85 0 135 -54t50 -149v-313h-14v311q0 90 -45 141t-127 51q-86 0 -138.5 -56t-52.5 -155v-292z" />
    <glyph glyph-name="o" unicode="o" horiz-adv-x="558" 
d="M490 302v-100q0 -91 -58 -152.5t-153 -61.5t-153 61.5t-58 152.5v100q0 91 58 152.5t153 61.5t153 -61.5t58 -152.5zM279 0q88 0 142.5 58.5t54.5 144.5v98q0 86 -54.5 144.5t-142.5 58.5t-142.5 -58.5t-54.5 -144.5v-98q0 -86 54.5 -144.5t142.5 -58.5z" />
    <glyph glyph-name="p" unicode="p" horiz-adv-x="577" 
d="M109 126v-300h-14v678h13v-131q11 51 64 97t132 46q92 0 148.5 -60.5t56.5 -151.5v-104q0 -91 -56.5 -151.5t-148.5 -60.5q-77 0 -130 44t-65 94zM495 203v98q0 90 -52 146.5t-140 56.5q-81 0 -137.5 -55t-56.5 -142v-110q0 -87 56.5 -142t137.5 -55q88 0 140 56.5
t52 146.5z" />
    <glyph glyph-name="q" unicode="q" horiz-adv-x="577" 
d="M468 -174v300q-13 -50 -65.5 -94t-129.5 -44q-92 0 -148.5 60.5t-56.5 151.5v104q0 91 56.5 151.5t148.5 60.5q79 0 132 -46t64 -97v131h13v-678h-14zM82 301v-98q0 -90 52 -146.5t140 -56.5q81 0 137.5 55t56.5 142v110q0 87 -56.5 142t-137.5 55q-88 0 -140 -56.5
t-52 -146.5z" />
    <glyph glyph-name="r" unicode="r" horiz-adv-x="327" 
d="M305 506v-12h-12q-83 0 -133.5 -61t-50.5 -174v-259h-14v504h13v-158q11 69 60.5 114.5t124.5 45.5h12z" />
    <glyph glyph-name="s" unicode="s" horiz-adv-x="522" 
d="M70 145h13v-12q0 -63 54.5 -98.5t131.5 -35.5q74 0 126 35.5t52 91.5q0 79 -94 102l-173 44q-98 24 -98 109q0 60 50 97.5t128 37.5q82 0 131 -41.5t49 -105.5v-13h-13v12q0 61 -46 99t-121 38q-72 0 -118.5 -34.5t-46.5 -89.5q0 -76 88 -98l173 -44q104 -26 104 -113
q0 -60 -56 -99t-135 -39q-84 0 -141.5 38.5t-57.5 106.5v12z" />
    <glyph glyph-name="t" unicode="t" horiz-adv-x="358" 
d="M143 127v365h-100v12h100v147h14v-147h151v-12h-151v-365q0 -61 26.5 -88t87.5 -27h37v-12h-37q-69 0 -98.5 31.5t-29.5 95.5z" />
    <glyph glyph-name="u" unicode="u" horiz-adv-x="572" 
d="M463 504h14v-504h-13v128q-14 -61 -63.5 -100.5t-123.5 -39.5q-86 0 -136.5 56t-50.5 151v309h14v-307q0 -90 46 -143t128 -53q84 0 134.5 55.5t50.5 155.5v292z" />
    <glyph glyph-name="v" unicode="v" horiz-adv-x="490" 
d="M237 0l-197 504h15l190 -490l190 490h15l-197 -504h-16z" />
    <glyph glyph-name="w" unicode="w" horiz-adv-x="728" 
d="M685 504l-144 -504h-16l-161 487l-161 -487h-16l-144 504h14l138 -488l162 488h14l162 -488l138 488h14z" />
    <glyph glyph-name="x" unicode="x" horiz-adv-x="469" 
d="M417 504l-175 -248l182 -256h-16l-174 246l-173 -246h-16l182 256l-175 248h15l167 -237l168 237h15z" />
    <glyph glyph-name="y" unicode="y" horiz-adv-x="490" 
d="M177 -174h-13l73 180l-197 498h15l189 -485l191 485h15z" />
    <glyph glyph-name="z" unicode="z" horiz-adv-x="485" 
d="M65 0v12l342 480h-328v12h343v-12l-342 -480h345v-12h-360z" />
    <glyph glyph-name="braceleft" unicode="{" horiz-adv-x="424" 
d="M201 660v-227q0 -46 -24.5 -75.5t-69.5 -33.5q45 -4 69.5 -33.5t24.5 -75.5v-227q0 -50 29 -80t83 -30h61v-12h-62q-58 0 -91.5 33.5t-33.5 86.5v226q0 50 -28.5 78t-82.5 28h-36v12h36q54 0 82.5 28t28.5 78v226q0 53 33.5 86.5t91.5 33.5h62v-12h-61q-54 0 -83 -30
t-29 -80z" />
    <glyph glyph-name="bar" unicode="|" horiz-adv-x="282" 
d="M147 -150h-12v950h12v-950z" />
    <glyph glyph-name="braceright" unicode="}" horiz-adv-x="424" 
d="M223 433v227q0 50 -29 80t-83 30h-61v12h62q58 0 91.5 -33.5t33.5 -86.5v-226q0 -50 28.5 -78t82.5 -28h36v-12h-36q-54 0 -82.5 -28t-28.5 -78v-226q0 -53 -33.5 -86.5t-91.5 -33.5h-62v12h61q54 0 83 30t29 80v227q0 46 24.5 75.5t69.5 33.5q-45 4 -69.5 33.5
t-24.5 75.5z" />
    <glyph glyph-name="asciitilde" unicode="~" horiz-adv-x="573" 
d="M487 415h11q-6 -112 -82 -112q-32 0 -120 51t-123 51q-77 0 -82 -102h-11q5 112 93 112q37 0 125 -51t118 -51q65 0 71 102z" />
    <glyph glyph-name="uni00A0" unicode="&#xa0;" horiz-adv-x="240" 
 />
    <glyph glyph-name="exclamdown" unicode="&#xa1;" horiz-adv-x="224" 
d="M108 548h8l3 -287v-261h-14v261zM126 688q0 -14 -14 -14t-14 14t14 14t14 -14z" />
    <glyph glyph-name="cent" unicode="&#xa2;" horiz-adv-x="567" 
d="M482 452h-13q-10 59 -60 97.5t-120 38.5q-83 0 -136.5 -51t-53.5 -143v-88q0 -92 53.5 -143t136.5 -51q70 0 120 38.5t60 97.5h13q-11 -62 -62.5 -104.5t-124.5 -43.5v-100h-13v100q-86 2 -141.5 57t-55.5 148v90q0 93 56.5 148t142.5 57v100h13v-100q73 -3 123.5 -45
t61.5 -103z" />
    <glyph glyph-name="sterling" unicode="&#xa3;" horiz-adv-x="653" 
d="M226 12h324v-12h-465v12h127v317h-112v11h112v174q0 98 46.5 149t137.5 51q84 0 133 -50.5t49 -124.5v-13h-13v13q0 70 -45.5 116.5t-123.5 46.5q-170 0 -170 -188v-174h236v-11h-236v-317z" />
    <glyph glyph-name="currency" unicode="&#xa4;" horiz-adv-x="574" 
d="M126 315v70q0 68 40 111l-81 118h15l75 -109q43 40 112 40q67 0 112 -40l75 109h15l-81 -118q40 -45 40 -111v-70q0 -66 -40 -111l81 -118h-15l-75 109q-43 -40 -112 -40q-68 0 -112 39l-75 -108h-15l81 118q-40 43 -40 111zM435 316v68q0 64 -38.5 107t-109.5 43
t-109.5 -43t-38.5 -107v-68q0 -64 38.5 -107t109.5 -43t109.5 43t38.5 107z" />
    <glyph glyph-name="yen" unicode="&#xa5;" horiz-adv-x="574" 
d="M91 197v11h189v92l-37 72h-152v11h147l-162 317h15l196 -387l196 387h15l-162 -317h147v-11h-153l-36 -72v-92h189v-11h-189v-197h-14v197h-189z" />
    <glyph glyph-name="brokenbar" unicode="&#xa6;" horiz-adv-x="282" 
d="M147 800v-371h-12v371h12zM147 -150h-12v371h12v-371z" />
    <glyph glyph-name="section" unicode="&#xa7;" horiz-adv-x="594" 
d="M90 340q0 76 83 137q-41 38 -41 95q0 64 47.5 103t121.5 39q83 0 131 -40.5t48 -108.5v-12h-12v12q0 64 -44.5 101t-122.5 37q-70 0 -113 -36t-43 -95q0 -83 89 -120l195 -80q80 -33 80 -114t-78 -144q38 -38 38 -92q0 -62 -49.5 -102t-122.5 -40q-79 0 -128.5 40.5
t-49.5 108.5v12h12v-12q0 -63 45 -100.5t121 -37.5q67 0 113 36.5t46 94.5q0 85 -90 120l-176 69q-100 39 -100 129zM370 152q32 -13 53 -31q74 62 74 136q0 76 -72 105l-195 80q-27 10 -50 29q-78 -62 -78 -131q0 -83 92 -119z" />
    <glyph glyph-name="dieresis" unicode="&#xa8;" horiz-adv-x="429" 
d="M103 650q0 14 14 14t14 -14t-14 -14t-14 14zM297 650q0 14 14 14t14 -14t-14 -14t-14 14z" />
    <glyph glyph-name="copyright" unicode="&#xa9;" horiz-adv-x="884" 
d="M85 350q0 150 99.5 256t257.5 106t257.5 -106t99.5 -256t-99.5 -256t-257.5 -106t-257.5 106t-99.5 256zM95 350q0 -146 96 -249.5t251 -103.5t251 103.5t96 249.5t-96 249.5t-251 103.5t-251 -103.5t-96 -249.5zM569 423h-12q-6 42 -36.5 70t-79.5 28q-60 0 -92 -39
t-32 -101v-62q0 -62 32 -101t92 -39q49 0 79.5 28t36.5 70h12q-6 -45 -40 -77t-88 -32q-65 0 -100.5 42t-35.5 107v66q0 65 35.5 107t100.5 42q54 0 88 -32t40 -77z" />
    <glyph glyph-name="ordfeminine" unicode="&#xaa;" horiz-adv-x="420" 
d="M77 283v10h263v-10h-263zM333 386h-11v57q-11 -26 -44 -45t-82 -19q-51 0 -85 27t-34 69q0 47 33.5 73.5t88.5 26.5q46 0 78.5 -18t43.5 -44v80q0 48 -29.5 76.5t-75.5 28.5q-81 0 -104 -68h-11q25 78 115 78q53 0 85 -32.5t32 -80.5v-209zM196 389q49 0 87 22.5t38 66.5
q0 39 -36 63t-85 24q-52 0 -82 -24t-30 -66q0 -39 30 -62.5t78 -23.5z" />
    <glyph glyph-name="guillemotleft" unicode="&#xab;" horiz-adv-x="553" 
d="M232 60l-182 208l182 208h15l-182 -208l182 -208h-15zM468 60l-182 208l182 208h15l-182 -208l182 -208h-15z" />
    <glyph glyph-name="logicalnot" unicode="&#xac;" horiz-adv-x="580" 
d="M60 355v10h430v-231h-12v221h-418z" />
    <glyph glyph-name="registered" unicode="&#xae;" horiz-adv-x="584" 
d="M80 504q0 86 59.5 147t152.5 61t152.5 -61t59.5 -147t-59.5 -147t-152.5 -61t-152.5 61t-59.5 147zM292 705q-90 0 -147 -58.5t-57 -142.5t57 -142.5t147 -58.5t147 58.5t57 142.5t-57 142.5t-147 58.5zM317 491h-72v-75h-9v191h76q27 0 43 -17.5t16 -40.5
q0 -20 -12 -35.5t-33 -20.5l43 -77h-10zM245 498h64q26 0 39.5 15.5t13.5 35.5t-13.5 35.5t-39.5 15.5h-64v-102z" />
    <glyph glyph-name="macron" unicode="&#xaf;" horiz-adv-x="486" 
d="M105 639v12h276v-12h-276z" />
    <glyph glyph-name="degree" unicode="&#xb0;" horiz-adv-x="446" 
d="M223 710q65 0 101.5 -43t36.5 -97t-36.5 -97t-101.5 -43t-101.5 43t-36.5 97t36.5 97t101.5 43zM349 570q0 51 -34 90.5t-92 39.5t-92 -39.5t-34 -90.5t34 -90.5t92 -39.5t92 39.5t34 90.5z" />
    <glyph glyph-name="plusminus" unicode="&#xb1;" horiz-adv-x="620" 
d="M304 134v221h-209v10h209v221h12v-221h209v-10h-209v-221h-12zM95 0v10h430v-10h-430z" />
    <glyph glyph-name="twosuperior" unicode="&#xb2;" horiz-adv-x="419" 
d="M90 470v10l187 183q40 42 40 81q0 37 -28 63t-72 26q-49 0 -77 -26t-28 -71v-9h-11v10q0 49 31.5 77.5t84.5 28.5q49 0 80.5 -28.5t31.5 -70.5q0 -44 -44 -88l-181 -176h222v-10h-236z" />
    <glyph glyph-name="threesuperior" unicode="&#xb3;" horiz-adv-x="419" 
d="M121 827v10h199v-10l-142 -157h36q52 0 83.5 -28t31.5 -72q0 -45 -35 -75.5t-87 -30.5q-48 0 -81.5 27t-40.5 72h11q7 -42 37.5 -65.5t73.5 -23.5q46 0 78 27t32 68q0 40 -27.5 65.5t-75.5 25.5h-50v10l142 157h-185z" />
    <glyph glyph-name="acute" unicode="&#xb4;" horiz-adv-x="315" 
d="M119 585h-14l89 129h16z" />
    <glyph glyph-name="mu" unicode="&#xb5;" horiz-adv-x="577" 
d="M468 504h14v-504h-13v128q-15 -61 -64.5 -100.5t-122.5 -39.5q-63 0 -109 32t-64 88v-282h-14v678h14v-307q0 -90 46 -143t128 -53q84 0 134.5 55.5t50.5 155.5v292z" />
    <glyph glyph-name="paragraph" unicode="&#xb6;" horiz-adv-x="558" 
d="M315 224q-119 0 -182 64t-63 174q0 109 62.5 173.5t181.5 64.5h134v-874h-12v864h-121v-466z" />
    <glyph glyph-name="periodcentered" unicode="&#xb7;" horiz-adv-x="204" 
d="M88 290q0 14 14 14t14 -14t-14 -14t-14 14z" />
    <glyph glyph-name="cedilla" unicode="&#xb8;" horiz-adv-x="359" 
d="M148 0h12l-13 -58l30 -2q35 -2 56 -18t21 -45q0 -28 -23 -45.5t-61 -17.5q-32 0 -65 7v11q33 -7 65 -7q31 0 51 14t20 38q0 47 -68 52l-42 3z" />
    <glyph glyph-name="onesuperior" unicode="&#xb9;" horiz-adv-x="285" 
d="M158 470v355l-83 -43v12l84 43h11v-367h-12z" />
    <glyph glyph-name="ordmasculine" unicode="&#xba;" horiz-adv-x="446" 
d="M96 283v10h254v-10h-254zM85 562q0 63 36.5 104.5t101.5 41.5t101.5 -41.5t36.5 -104.5v-38q0 -63 -36.5 -104.5t-101.5 -41.5t-101.5 41.5t-36.5 104.5v38zM349 524v38q0 58 -33.5 97t-92.5 39t-92.5 -39t-33.5 -97v-38q0 -58 33.5 -97t92.5 -39t92.5 39t33.5 97z" />
    <glyph glyph-name="guillemotright" unicode="&#xbb;" horiz-adv-x="553" 
d="M503 268l-182 -208h-15l182 208l-182 208h15zM267 268l-182 -208h-15l182 208l-182 208h15z" />
    <glyph glyph-name="onequarter" unicode="&#xbc;" horiz-adv-x="760" 
d="M168 333v355l-83 -43v12l84 43h11v-367h-12zM164 0l366 700h13l-366 -700h-13zM419 97v9l132 261h11l-131 -261h181v89h11v-89h52v-9h-52v-97h-11v97h-193z" />
    <glyph glyph-name="onehalf" unicode="&#xbd;" horiz-adv-x="785" 
d="M168 333v355l-83 -43v12l84 43h11v-367h-12zM164 0l366 700h13l-366 -700h-13zM456 0v10l187 183q40 42 40 81q0 37 -28 63t-72 26q-49 0 -77 -26t-28 -71v-9h-11v10q0 49 31.5 77.5t84.5 28.5q49 0 80.5 -28.5t31.5 -70.5q0 -44 -44 -88l-181 -176h222v-10h-236z" />
    <glyph glyph-name="threequarters" unicode="&#xbe;" horiz-adv-x="842" 
d="M246 0l366 700h13l-366 -700h-13zM126 690v10h199v-10l-142 -157h36q52 0 83.5 -28t31.5 -72q0 -45 -35 -75.5t-87 -30.5q-48 0 -81.5 27t-40.5 72h11q7 -42 37.5 -65.5t73.5 -23.5q46 0 78 27t32 68q0 40 -27.5 65.5t-75.5 25.5h-50v10l142 157h-185zM501 97v9l132 261
h11l-131 -261h181v89h11v-89h52v-9h-52v-97h-11v97h-193z" />
    <glyph glyph-name="questiondown" unicode="&#xbf;" horiz-adv-x="487" 
d="M207 327l-53 -44q-75 -62 -75 -139q0 -66 46.5 -106t124.5 -40q75 0 119.5 41t44.5 116v15h13v-15q0 -78 -48 -123.5t-129 -45.5q-84 0 -134.5 44.5t-50.5 113.5q0 83 80 147l55 45q42 34 55.5 68.5t13.5 107.5v48h12v-49q0 -77 -14.5 -112t-59.5 -72zM288 688
q0 -14 -14 -14t-14 14t14 14t14 -14z" />
    <glyph glyph-name="Agrave" unicode="&#xc0;" horiz-adv-x="646" 
d="M581 0l-79 210h-358l-79 -210h-15l265 700h16l265 -700h-15zM323 687l-175 -465h349zM329 766h-14l-78 112h16z" />
    <glyph glyph-name="Aacute" unicode="&#xc1;" horiz-adv-x="646" 
d="M581 0l-79 210h-358l-79 -210h-15l265 700h16l265 -700h-15zM323 687l-175 -465h349zM330 766h-14l76 112h16z" />
    <glyph glyph-name="Acircumflex" unicode="&#xc2;" horiz-adv-x="646" 
d="M581 0l-79 210h-358l-79 -210h-15l265 700h16l265 -700h-15zM323 687l-175 -465h349zM206 766l110 112h14l110 -112h-17l-100 103l-100 -103h-17z" />
    <glyph glyph-name="Atilde" unicode="&#xc3;" horiz-adv-x="646" 
d="M581 0l-79 210h-358l-79 -210h-15l265 700h16l265 -700h-15zM323 687l-175 -465h349zM175 771l-11 3q8 41 25 66t51 25t89 -40t77 -40q15 0 25.5 6.5t17 21t9.5 24.5t8 31l11 -3q-6 -27 -11.5 -42.5t-21 -32t-38.5 -16.5q-24 0 -80 40t-86 40t-43.5 -21.5t-21.5 -61.5z
" />
    <glyph glyph-name="Adieresis" unicode="&#xc4;" horiz-adv-x="646" 
d="M581 0l-79 210h-358l-79 -210h-15l265 700h16l265 -700h-15zM323 687l-175 -465h349zM197 826q0 14 14 14t14 -14t-14 -14t-14 14zM421 826q0 14 14 14t14 -14t-14 -14t-14 14z" />
    <glyph glyph-name="Aring" unicode="&#xc5;" horiz-adv-x="646" 
d="M245 765q0 32 21.5 54t56.5 22t56.5 -22t21.5 -54q0 -29 -17.5 -50t-48.5 -26l261 -689h-15l-79 210h-358l-79 -210h-15l261 689q-31 5 -48.5 26t-17.5 50zM323 687l-175 -465h349zM258 765q0 -28 18 -46.5t47 -18.5t47 18.5t18 46.5t-18 46.5t-47 18.5t-47 -18.5
t-18 -46.5z" />
    <glyph glyph-name="AE" unicode="&#xc6;" horiz-adv-x="1009" 
d="M516 0v219h-326l-151 -219h-17l485 700h441v-13h-417v-325h388v-13h-388v-336h418v-13h-433zM199 231h317v457z" />
    <glyph glyph-name="Ccedilla" unicode="&#xc7;" horiz-adv-x="697" 
d="M356 -14h-6l-10 -44l30 -2q35 -2 56 -18t21 -45q0 -28 -23 -45.5t-61 -17.5q-32 0 -65 7v11q33 -7 65 -7q31 0 51 14t20 38q0 47 -68 52l-42 3l13 55q-118 5 -185 87.5t-67 207.5v136q0 131 71 213.5t200 82.5q111 0 182.5 -65.5t80.5 -161.5h-14q-10 92 -76.5 153
t-172.5 61q-122 0 -189 -78.5t-67 -205.5v-134q0 -127 67 -205.5t189 -78.5q105 0 172 61t77 153h14q-9 -96 -80.5 -161.5t-182.5 -65.5z" />
    <glyph glyph-name="Egrave" unicode="&#xc8;" horiz-adv-x="598" 
d="M105 0v700h432v-13h-417v-325h388v-13h-388v-336h418v-13h-433zM341 766h-14l-78 112h16z" />
    <glyph glyph-name="Eacute" unicode="&#xc9;" horiz-adv-x="598" 
d="M105 0v700h432v-13h-417v-325h388v-13h-388v-336h418v-13h-433zM311 766h-14l76 112h16z" />
    <glyph glyph-name="Ecircumflex" unicode="&#xca;" horiz-adv-x="598" 
d="M105 0v700h432v-13h-417v-325h388v-13h-388v-336h418v-13h-433zM202 766l110 112h14l110 -112h-17l-100 103l-100 -103h-17z" />
    <glyph glyph-name="Edieresis" unicode="&#xcb;" horiz-adv-x="598" 
d="M105 0v700h432v-13h-417v-325h388v-13h-388v-336h418v-13h-433zM195 826q0 14 14 14t14 -14t-14 -14t-14 14zM419 826q0 14 14 14t14 -14t-14 -14t-14 14z" />
    <glyph glyph-name="Igrave" unicode="&#xcc;" horiz-adv-x="235" 
d="M110 0v700h15v-700h-15zM123 766h-14l-78 112h16z" />
    <glyph glyph-name="Iacute" unicode="&#xcd;" horiz-adv-x="235" 
d="M110 0v700h15v-700h-15zM124 766h-14l76 112h16z" />
    <glyph glyph-name="Icircumflex" unicode="&#xce;" horiz-adv-x="235" 
d="M110 0v700h15v-700h-15zM0 766l110 112h14l110 -112h-17l-100 103l-100 -103h-17z" />
    <glyph glyph-name="Idieresis" unicode="&#xcf;" horiz-adv-x="235" 
d="M110 0v700h15v-700h-15zM-9 826q0 14 14 14t14 -14t-14 -14t-14 14zM215 826q0 14 14 14t14 -14t-14 -14t-14 14z" />
    <glyph glyph-name="Eth" unicode="&#xd0;" horiz-adv-x="725" 
d="M45 344v12h94v344h242q123 0 192 -75.5t69 -189.5v-170q0 -115 -71.5 -190t-199.5 -75h-232v344h-94zM154 13h217q121 0 188.5 71.5t67.5 180.5v170q0 109 -64.5 180.5t-181.5 71.5h-227v-331h215v-12h-215v-331z" />
    <glyph glyph-name="Ntilde" unicode="&#xd1;" horiz-adv-x="704" 
d="M105 0v700h13l467 -675v675h14v-700h-13l-467 675v-675h-14zM204 771l-11 3q8 41 25 66t51 25q33 0 88.5 -40t77.5 -40q15 0 25.5 6.5t17 21t9.5 24.5t8 31l11 -3q-6 -27 -11.5 -42.5t-21 -32t-38.5 -16.5q-25 0 -80 40t-86 40q-30 0 -43.5 -21.5t-21.5 -61.5z" />
    <glyph glyph-name="Ograve" unicode="&#xd2;" horiz-adv-x="722" 
d="M85 286v128q0 129 71 214.5t205 85.5t205 -85.5t71 -214.5v-128q0 -129 -71 -214.5t-205 -85.5t-205 85.5t-71 214.5zM361 701q-128 0 -194.5 -82.5t-66.5 -204.5v-128q0 -122 66.5 -204.5t194.5 -82.5t194.5 82.5t66.5 204.5v128q0 122 -66.5 204.5t-194.5 82.5z
M367 766h-14l-78 112h16z" />
    <glyph glyph-name="Oacute" unicode="&#xd3;" horiz-adv-x="722" 
d="M85 286v128q0 129 71 214.5t205 85.5t205 -85.5t71 -214.5v-128q0 -129 -71 -214.5t-205 -85.5t-205 85.5t-71 214.5zM361 701q-128 0 -194.5 -82.5t-66.5 -204.5v-128q0 -122 66.5 -204.5t194.5 -82.5t194.5 82.5t66.5 204.5v128q0 122 -66.5 204.5t-194.5 82.5z
M368 766h-14l76 112h16z" />
    <glyph glyph-name="Ocircumflex" unicode="&#xd4;" horiz-adv-x="722" 
d="M85 286v128q0 129 71 214.5t205 85.5t205 -85.5t71 -214.5v-128q0 -129 -71 -214.5t-205 -85.5t-205 85.5t-71 214.5zM361 701q-128 0 -194.5 -82.5t-66.5 -204.5v-128q0 -122 66.5 -204.5t194.5 -82.5t194.5 82.5t66.5 204.5v128q0 122 -66.5 204.5t-194.5 82.5z
M244 766l110 112h14l110 -112h-17l-100 103l-100 -103h-17z" />
    <glyph glyph-name="Otilde" unicode="&#xd5;" horiz-adv-x="722" 
d="M85 286v128q0 129 71 214.5t205 85.5t205 -85.5t71 -214.5v-128q0 -129 -71 -214.5t-205 -85.5t-205 85.5t-71 214.5zM361 701q-128 0 -194.5 -82.5t-66.5 -204.5v-128q0 -122 66.5 -204.5t194.5 -82.5t194.5 82.5t66.5 204.5v128q0 122 -66.5 204.5t-194.5 82.5z
M216 771l-11 3q8 41 25 66t51 25q33 0 88.5 -40t77.5 -40q15 0 25.5 6.5t17 21t9.5 24.5t8 31l11 -3q-6 -27 -11.5 -42.5t-21 -32t-38.5 -16.5q-25 0 -80 40t-86 40q-30 0 -43.5 -21.5t-21.5 -61.5z" />
    <glyph glyph-name="Odieresis" unicode="&#xd6;" horiz-adv-x="722" 
d="M85 286v128q0 129 71 214.5t205 85.5t205 -85.5t71 -214.5v-128q0 -129 -71 -214.5t-205 -85.5t-205 85.5t-71 214.5zM361 701q-128 0 -194.5 -82.5t-66.5 -204.5v-128q0 -122 66.5 -204.5t194.5 -82.5t194.5 82.5t66.5 204.5v128q0 122 -66.5 204.5t-194.5 82.5z
M235 826q0 14 14 14t14 -14t-14 -14t-14 14zM459 826q0 14 14 14t14 -14t-14 -14t-14 14z" />
    <glyph glyph-name="multiply" unicode="&#xd7;" horiz-adv-x="544" 
d="M90 186l174 174l-174 174l8 8l174 -174l174 174l8 -8l-174 -174l174 -174l-8 -8l-174 174l-174 -174z" />
    <glyph glyph-name="Oslash" unicode="&#xd8;" horiz-adv-x="722" 
d="M85 286v128q0 129 71 214.5t205 85.5q117 0 190 -71l72 107h14l-78 -115q78 -84 78 -221v-128q0 -129 -71 -214.5t-205 -85.5q-117 0 -190 70l-72 -106h-14l77 115q-77 81 -77 221zM361 701q-128 0 -194.5 -82.5t-66.5 -204.5v-128q0 -132 70 -209l373 554
q-68 70 -182 70zM622 414q0 129 -71 209l-372 -555q67 -69 182 -69q128 0 194.5 82.5t66.5 204.5v128z" />
    <glyph glyph-name="Ugrave" unicode="&#xd9;" horiz-adv-x="696" 
d="M98 218v482h15v-485q0 -93 65.5 -154.5t169.5 -61.5t169.5 61.5t65.5 154.5v485h15v-482q0 -101 -68.5 -166.5t-181.5 -65.5t-181.5 65.5t-68.5 166.5zM359 766h-14l-78 112h16z" />
    <glyph glyph-name="Uacute" unicode="&#xda;" horiz-adv-x="696" 
d="M98 218v482h15v-485q0 -93 65.5 -154.5t169.5 -61.5t169.5 61.5t65.5 154.5v485h15v-482q0 -101 -68.5 -166.5t-181.5 -65.5t-181.5 65.5t-68.5 166.5zM344 766h-14l76 112h16z" />
    <glyph glyph-name="Ucircumflex" unicode="&#xdb;" horiz-adv-x="696" 
d="M98 218v482h15v-485q0 -93 65.5 -154.5t169.5 -61.5t169.5 61.5t65.5 154.5v485h15v-482q0 -101 -68.5 -166.5t-181.5 -65.5t-181.5 65.5t-68.5 166.5zM231 766l110 112h14l110 -112h-17l-100 103l-100 -103h-17z" />
    <glyph glyph-name="Udieresis" unicode="&#xdc;" horiz-adv-x="696" 
d="M98 218v482h15v-485q0 -93 65.5 -154.5t169.5 -61.5t169.5 61.5t65.5 154.5v485h15v-482q0 -101 -68.5 -166.5t-181.5 -65.5t-181.5 65.5t-68.5 166.5zM222 826q0 14 14 14t14 -14t-14 -14t-14 14zM446 826q0 14 14 14t14 -14t-14 -14t-14 14z" />
    <glyph glyph-name="Yacute" unicode="&#xdd;" horiz-adv-x="568" 
d="M291 278v-278h-14v278l-259 422h16l250 -408l250 408h16zM287 766h-14l76 112h16z" />
    <glyph glyph-name="Thorn" unicode="&#xde;" horiz-adv-x="602" 
d="M105 0v700h15v-128h222q96 0 155.5 -62.5t59.5 -150.5q0 -82 -57.5 -142.5t-157.5 -60.5h-222v-156h-15zM120 169h217q97 0 151 56t54 134q0 79 -53.5 139.5t-151.5 60.5h-217v-390z" />
    <glyph glyph-name="germandbls" unicode="&#xdf;" horiz-adv-x="582" 
d="M95 0v551q0 90 53 136.5t139 46.5t139.5 -52.5t53.5 -131.5q0 -65 -39 -113t-103 -64q80 -8 131 -58t51 -128q0 -84 -56.5 -135.5t-138.5 -51.5h-42v12h41q79 0 130.5 48t51.5 126q0 82 -55.5 130.5t-142.5 48.5h-24v12q87 1 134.5 52.5t47.5 120.5q0 74 -49.5 123
t-129.5 49q-79 0 -128.5 -42t-49.5 -129v-551h-14z" />
    <glyph glyph-name="agrave" unicode="&#xe0;" horiz-adv-x="556" 
d="M468 0h-13v92q-19 -42 -71 -73t-130 -31q-82 0 -137 43t-55 112q0 74 54 116.5t142 42.5q73 0 124.5 -29t71.5 -72v131q0 77 -46.5 124.5t-123.5 47.5q-66 0 -109.5 -29.5t-60.5 -81.5h-13q17 59 65 91t118 32q83 0 133.5 -51.5t50.5 -129.5v-335zM254 -1q48 0 92 14.5
t76 49.5t32 84q0 65 -57.5 104t-137.5 39q-85 0 -134.5 -39.5t-49.5 -107.5q0 -63 51 -103.5t128 -40.5zM302 585h-14l-91 129h16z" />
    <glyph glyph-name="aacute" unicode="&#xe1;" horiz-adv-x="556" 
d="M468 0h-13v92q-19 -42 -71 -73t-130 -31q-82 0 -137 43t-55 112q0 74 54 116.5t142 42.5q73 0 124.5 -29t71.5 -72v131q0 77 -46.5 124.5t-123.5 47.5q-66 0 -109.5 -29.5t-60.5 -81.5h-13q17 59 65 91t118 32q83 0 133.5 -51.5t50.5 -129.5v-335zM254 -1q48 0 92 14.5
t76 49.5t32 84q0 65 -57.5 104t-137.5 39q-85 0 -134.5 -39.5t-49.5 -107.5q0 -63 51 -103.5t128 -40.5zM288 585h-14l89 129h16z" />
    <glyph glyph-name="acircumflex" unicode="&#xe2;" horiz-adv-x="556" 
d="M468 0h-13v92q-19 -42 -71 -73t-130 -31q-82 0 -137 43t-55 112q0 74 54 116.5t142 42.5q73 0 124.5 -29t71.5 -72v131q0 77 -46.5 124.5t-123.5 47.5q-66 0 -109.5 -29.5t-60.5 -81.5h-13q17 59 65 91t118 32q83 0 133.5 -51.5t50.5 -129.5v-335zM254 -1q48 0 92 14.5
t76 49.5t32 84q0 65 -57.5 104t-137.5 39q-85 0 -134.5 -39.5t-49.5 -107.5q0 -63 51 -103.5t128 -40.5zM175 585l109 129h14l109 -129h-15l-101 120l-101 -120h-15z" />
    <glyph glyph-name="atilde" unicode="&#xe3;" horiz-adv-x="556" 
d="M468 0h-13v92q-19 -42 -71 -73t-130 -31q-82 0 -137 43t-55 112q0 74 54 116.5t142 42.5q73 0 124.5 -29t71.5 -72v131q0 77 -46.5 124.5t-123.5 47.5q-66 0 -109.5 -29.5t-60.5 -81.5h-13q17 59 65 91t118 32q83 0 133.5 -51.5t50.5 -129.5v-335zM254 -1q48 0 92 14.5
t76 49.5t32 84q0 65 -57.5 104t-137.5 39q-85 0 -134.5 -39.5t-49.5 -107.5q0 -63 51 -103.5t128 -40.5zM149 601l-11 2q16 92 76 92q32 0 83.5 -40.5t72.5 -40.5q20 0 33 14t18 29.5t9 40.5l11 -2q-5 -21 -8.5 -33t-11.5 -27.5t-20.5 -23.5t-30.5 -8q-25 0 -76.5 40.5
t-79.5 40.5q-30 0 -43.5 -22.5t-21.5 -61.5z" />
    <glyph glyph-name="adieresis" unicode="&#xe4;" horiz-adv-x="556" 
d="M468 0h-13v92q-19 -42 -71 -73t-130 -31q-82 0 -137 43t-55 112q0 74 54 116.5t142 42.5q73 0 124.5 -29t71.5 -72v131q0 77 -46.5 124.5t-123.5 47.5q-66 0 -109.5 -29.5t-60.5 -81.5h-13q17 59 65 91t118 32q83 0 133.5 -51.5t50.5 -129.5v-335zM254 -1q48 0 92 14.5
t76 49.5t32 84q0 65 -57.5 104t-137.5 39q-85 0 -134.5 -39.5t-49.5 -107.5q0 -63 51 -103.5t128 -40.5zM176 650q0 14 14 14t14 -14t-14 -14t-14 14zM370 650q0 14 14 14t14 -14t-14 -14t-14 14z" />
    <glyph glyph-name="aring" unicode="&#xe5;" horiz-adv-x="556" 
d="M468 0h-13v92q-19 -42 -71 -73t-130 -31q-82 0 -137 43t-55 112q0 74 54 116.5t142 42.5q73 0 124.5 -29t71.5 -72v131q0 77 -46.5 124.5t-123.5 47.5q-66 0 -109.5 -29.5t-60.5 -81.5h-13q17 59 65 91t118 32q83 0 133.5 -51.5t50.5 -129.5v-335zM254 -1q48 0 92 14.5
t76 49.5t32 84q0 65 -57.5 104t-137.5 39q-85 0 -134.5 -39.5t-49.5 -107.5q0 -63 51 -103.5t128 -40.5zM209 661q0 32 21.5 54t56.5 22t56.5 -22t21.5 -54t-21.5 -54t-56.5 -22t-56.5 22t-21.5 54zM222 661q0 -28 18 -46.5t47 -18.5t47 18.5t18 46.5t-18 46.5t-47 18.5
t-47 -18.5t-18 -46.5z" />
    <glyph glyph-name="ae" unicode="&#xe6;" horiz-adv-x="934" 
d="M862 242h-394v-43q0 -90 55 -144.5t140 -54.5q68 0 118 37.5t61 99.5h14q-12 -66 -65.5 -107.5t-127.5 -41.5q-71 0 -124 37t-73 100q-12 -65 -71.5 -101t-140.5 -36q-83 0 -137.5 43t-54.5 112q0 74 54 116.5t142 42.5q73 0 124.5 -29t71.5 -72v131q0 77 -46.5 124.5
t-123.5 47.5q-66 0 -110 -29.5t-60 -81.5h-13q16 58 64 90.5t119 32.5q72 0 120.5 -39.5t59.5 -103.5q42 143 197 143q92 0 146.5 -62t54.5 -153v-59zM254 -1q78 0 139 38t61 110q0 65 -57.5 104t-137.5 39q-85 0 -134.5 -39.5t-49.5 -107.5q0 -64 50.5 -104t128.5 -40z
M468 294v-40h381v45q0 87 -50.5 146t-137.5 59q-89 0 -141 -56t-52 -154z" />
    <glyph glyph-name="ccedilla" unicode="&#xe7;" horiz-adv-x="557" 
d="M68 205v94q0 94 59.5 155.5t148.5 61.5q87 0 143 -51t65 -129h-13q-8 74 -61 121t-134 47q-84 0 -139 -57.5t-55 -148.5v-92q0 -91 55 -148.5t139 -57.5q81 0 134 47t61 121h13q-8 -78 -64.5 -128.5t-142.5 -51.5l-10 -46l30 -2q35 -2 56 -18t21 -45q0 -28 -23 -45.5
t-61 -17.5q-32 0 -65 7v11q33 -7 65 -7q31 0 51 14t20 38q0 47 -68 52l-42 3l14 56q-85 5 -141 65.5t-56 151.5z" />
    <glyph glyph-name="egrave" unicode="&#xe8;" horiz-adv-x="548" 
d="M476 242h-394v-43q0 -90 55 -144.5t140 -54.5q68 0 118 37.5t61 99.5h14q-12 -66 -65.5 -107.5t-127.5 -41.5q-92 0 -150.5 58.5t-58.5 154.5v94q0 102 56.5 161.5t150.5 59.5q92 0 146.5 -62t54.5 -153v-59zM82 294v-40h381v45q0 87 -50.5 146t-137.5 59q-89 0 -141 -56
t-52 -154zM279 585h-14l-91 129h16z" />
    <glyph glyph-name="eacute" unicode="&#xe9;" horiz-adv-x="548" 
d="M476 242h-394v-43q0 -90 55 -144.5t140 -54.5q68 0 118 37.5t61 99.5h14q-12 -66 -65.5 -107.5t-127.5 -41.5q-92 0 -150.5 58.5t-58.5 154.5v94q0 102 56.5 161.5t150.5 59.5q92 0 146.5 -62t54.5 -153v-59zM82 294v-40h381v45q0 87 -50.5 146t-137.5 59q-89 0 -141 -56
t-52 -154zM264 585h-14l89 129h16z" />
    <glyph glyph-name="ecircumflex" unicode="&#xea;" horiz-adv-x="548" 
d="M476 242h-394v-43q0 -90 55 -144.5t140 -54.5q68 0 118 37.5t61 99.5h14q-12 -66 -65.5 -107.5t-127.5 -41.5q-92 0 -150.5 58.5t-58.5 154.5v94q0 102 56.5 161.5t150.5 59.5q92 0 146.5 -62t54.5 -153v-59zM82 294v-40h381v45q0 87 -50.5 146t-137.5 59q-89 0 -141 -56
t-52 -154zM159 585l109 129h14l109 -129h-15l-101 120l-101 -120h-15z" />
    <glyph glyph-name="edieresis" unicode="&#xeb;" horiz-adv-x="548" 
d="M476 242h-394v-43q0 -90 55 -144.5t140 -54.5q68 0 118 37.5t61 99.5h14q-12 -66 -65.5 -107.5t-127.5 -41.5q-92 0 -150.5 58.5t-58.5 154.5v94q0 102 56.5 161.5t150.5 59.5q92 0 146.5 -62t54.5 -153v-59zM82 294v-40h381v45q0 87 -50.5 146t-137.5 59q-89 0 -141 -56
t-52 -154zM165 650q0 14 14 14t14 -14t-14 -14t-14 14zM359 650q0 14 14 14t14 -14t-14 -14t-14 14z" />
    <glyph glyph-name="igrave" unicode="&#xec;" 
d="M114 0h-14v504h14v-504zM114 585h-14l-91 129h16z" />
    <glyph glyph-name="iacute" unicode="&#xed;" 
d="M114 0h-14v504h14v-504zM113 585h-14l89 129h16z" />
    <glyph glyph-name="icircumflex" unicode="&#xee;" 
d="M114 0h-14v504h14v-504zM-9 585l109 129h14l109 -129h-15l-101 120l-101 -120h-15z" />
    <glyph glyph-name="idieresis" unicode="&#xef;" 
d="M114 0h-14v504h14v-504zM-4 650q0 14 14 14t14 -14t-14 -14t-14 14zM190 650q0 14 14 14t14 -14t-14 -14t-14 14z" />
    <glyph glyph-name="eth" unicode="&#xf0;" horiz-adv-x="560" 
d="M150 588l-3 10l148 41q-49 44 -121 91h20q62 -40 114 -88l124 35l3 -9l-120 -33q79 -71 128 -161t49 -184v-78q0 -94 -58.5 -160t-154.5 -66q-89 0 -150 61t-61 154v66q0 104 58 166.5t153 62.5q73 0 128.5 -48.5t69.5 -106.5q-30 161 -174 290zM478 211v59
q0 91 -60.5 152.5t-137.5 61.5q-91 0 -144.5 -58.5t-53.5 -158.5v-65q0 -91 57 -147.5t140 -56.5q90 0 144.5 61t54.5 152z" />
    <glyph glyph-name="ntilde" unicode="&#xf1;" horiz-adv-x="576" 
d="M109 0h-14v504h13v-128q17 62 67 101t126 39q85 0 135 -54t50 -149v-313h-14v311q0 90 -45 141t-127 51q-86 0 -138.5 -56t-52.5 -155v-292zM145 601l-11 2q16 92 76 92q32 0 83.5 -40.5t72.5 -40.5q20 0 33 14t18 29.5t9 40.5l11 -2q-5 -21 -8.5 -33t-11.5 -27.5
t-20.5 -23.5t-30.5 -8q-25 0 -76.5 40.5t-79.5 40.5q-30 0 -43.5 -22.5t-21.5 -61.5z" />
    <glyph glyph-name="ograve" unicode="&#xf2;" horiz-adv-x="558" 
d="M490 302v-100q0 -91 -58 -152.5t-153 -61.5t-153 61.5t-58 152.5v100q0 91 58 152.5t153 61.5t153 -61.5t58 -152.5zM279 0q88 0 142.5 58.5t54.5 144.5v98q0 86 -54.5 144.5t-142.5 58.5t-142.5 -58.5t-54.5 -144.5v-98q0 -86 54.5 -144.5t142.5 -58.5zM286 585h-14
l-91 129h16z" />
    <glyph glyph-name="oacute" unicode="&#xf3;" horiz-adv-x="558" 
d="M490 302v-100q0 -91 -58 -152.5t-153 -61.5t-153 61.5t-58 152.5v100q0 91 58 152.5t153 61.5t153 -61.5t58 -152.5zM279 0q88 0 142.5 58.5t54.5 144.5v98q0 86 -54.5 144.5t-142.5 58.5t-142.5 -58.5t-54.5 -144.5v-98q0 -86 54.5 -144.5t142.5 -58.5zM283 585h-14
l89 129h16z" />
    <glyph glyph-name="ocircumflex" unicode="&#xf4;" horiz-adv-x="558" 
d="M490 302v-100q0 -91 -58 -152.5t-153 -61.5t-153 61.5t-58 152.5v100q0 91 58 152.5t153 61.5t153 -61.5t58 -152.5zM279 0q88 0 142.5 58.5t54.5 144.5v98q0 86 -54.5 144.5t-142.5 58.5t-142.5 -58.5t-54.5 -144.5v-98q0 -86 54.5 -144.5t142.5 -58.5zM163 585l109 129
h14l109 -129h-15l-101 120l-101 -120h-15z" />
    <glyph glyph-name="otilde" unicode="&#xf5;" horiz-adv-x="558" 
d="M490 302v-100q0 -91 -58 -152.5t-153 -61.5t-153 61.5t-58 152.5v100q0 91 58 152.5t153 61.5t153 -61.5t58 -152.5zM279 0q88 0 142.5 58.5t54.5 144.5v98q0 86 -54.5 144.5t-142.5 58.5t-142.5 -58.5t-54.5 -144.5v-98q0 -86 54.5 -144.5t142.5 -58.5zM144 601l-11 2
q16 92 76 92q32 0 83.5 -40.5t72.5 -40.5q20 0 33 14t18 29.5t9 40.5l11 -2q-5 -21 -8.5 -33t-11.5 -27.5t-20.5 -23.5t-30.5 -8q-25 0 -76.5 40.5t-79.5 40.5q-30 0 -43.5 -22.5t-21.5 -61.5z" />
    <glyph glyph-name="odieresis" unicode="&#xf6;" horiz-adv-x="558" 
d="M490 302v-100q0 -91 -58 -152.5t-153 -61.5t-153 61.5t-58 152.5v100q0 91 58 152.5t153 61.5t153 -61.5t58 -152.5zM279 0q88 0 142.5 58.5t54.5 144.5v98q0 86 -54.5 144.5t-142.5 58.5t-142.5 -58.5t-54.5 -144.5v-98q0 -86 54.5 -144.5t142.5 -58.5zM168 650
q0 14 14 14t14 -14t-14 -14t-14 14zM362 650q0 14 14 14t14 -14t-14 -14t-14 14z" />
    <glyph glyph-name="divide" unicode="&#xf7;" horiz-adv-x="590" 
d="M90 355v10h410v-10h-410zM281 176q0 14 14 14t14 -14t-14 -14t-14 14zM281 544q0 14 14 14t14 -14t-14 -14t-14 14z" />
    <glyph glyph-name="oslash" unicode="&#xf8;" horiz-adv-x="558" 
d="M490 302v-100q0 -91 -58 -152.5t-153 -61.5q-83 0 -140 49l-58 -87h-13l63 94q-63 60 -63 158v100q0 91 58 152.5t153 61.5q82 0 139 -49l59 88h13l-64 -95q64 -61 64 -158zM279 0q88 0 142.5 58.5t54.5 144.5v98q0 91 -58 149l-272 -402q53 -48 133 -48zM82 203
q0 -92 56 -148l272 402q-52 47 -131 47q-88 0 -142.5 -58.5t-54.5 -144.5v-98z" />
    <glyph glyph-name="ugrave" unicode="&#xf9;" horiz-adv-x="572" 
d="M463 504h14v-504h-13v128q-14 -61 -63.5 -100.5t-123.5 -39.5q-86 0 -136.5 56t-50.5 151v309h14v-307q0 -90 46 -143t128 -53q84 0 134.5 55.5t50.5 155.5v292zM318 585h-14l-91 129h16z" />
    <glyph glyph-name="uacute" unicode="&#xfa;" horiz-adv-x="572" 
d="M463 504h14v-504h-13v128q-14 -61 -63.5 -100.5t-123.5 -39.5q-86 0 -136.5 56t-50.5 151v309h14v-307q0 -90 46 -143t128 -53q84 0 134.5 55.5t50.5 155.5v292zM278 585h-14l89 129h16z" />
    <glyph glyph-name="ucircumflex" unicode="&#xfb;" horiz-adv-x="572" 
d="M463 504h14v-504h-13v128q-14 -61 -63.5 -100.5t-123.5 -39.5q-86 0 -136.5 56t-50.5 151v309h14v-307q0 -90 46 -143t128 -53q84 0 134.5 55.5t50.5 155.5v292zM175 585l109 129h14l109 -129h-15l-101 120l-101 -120h-15z" />
    <glyph glyph-name="udieresis" unicode="&#xfc;" horiz-adv-x="572" 
d="M463 504h14v-504h-13v128q-14 -61 -63.5 -100.5t-123.5 -39.5q-86 0 -136.5 56t-50.5 151v309h14v-307q0 -90 46 -143t128 -53q84 0 134.5 55.5t50.5 155.5v292zM175 650q0 14 14 14t14 -14t-14 -14t-14 14zM369 650q0 14 14 14t14 -14t-14 -14t-14 14z" />
    <glyph glyph-name="yacute" unicode="&#xfd;" horiz-adv-x="490" 
d="M177 -174h-13l73 180l-197 498h15l189 -485l191 485h15zM251 585h-14l89 129h16z" />
    <glyph glyph-name="thorn" unicode="&#xfe;" horiz-adv-x="577" 
d="M109 126v-300h-14v904h14v-353q13 50 65.5 94.5t129.5 44.5q92 0 148.5 -60.5t56.5 -151.5v-104q0 -91 -56.5 -151.5t-148.5 -60.5q-77 0 -130 44t-65 94zM495 203v98q0 90 -52 146.5t-140 56.5q-80 0 -137 -52.5t-57 -135.5v-119q0 -87 56.5 -142t137.5 -55
q88 0 140 56.5t52 146.5z" />
    <glyph glyph-name="ydieresis" unicode="&#xff;" horiz-adv-x="490" 
d="M177 -174h-13l73 180l-197 498h15l189 -485l191 485h15zM134 650q0 14 14 14t14 -14t-14 -14t-14 14zM328 650q0 14 14 14t14 -14t-14 -14t-14 14z" />
    <glyph glyph-name="Amacron" unicode="&#x100;" horiz-adv-x="646" 
d="M581 0l-79 210h-358l-79 -210h-15l265 700h16l265 -700h-15zM323 687l-175 -465h349zM188 821v12h270v-12h-270z" />
    <glyph glyph-name="amacron" unicode="&#x101;" horiz-adv-x="556" 
d="M468 0h-13v92q-19 -42 -71 -73t-130 -31q-82 0 -137 43t-55 112q0 74 54 116.5t142 42.5q73 0 124.5 -29t71.5 -72v131q0 77 -46.5 124.5t-123.5 47.5q-66 0 -109.5 -29.5t-60.5 -81.5h-13q17 59 65 91t118 32q83 0 133.5 -51.5t50.5 -129.5v-335zM254 -1q48 0 92 14.5
t76 49.5t32 84q0 65 -57.5 104t-137.5 39q-85 0 -134.5 -39.5t-49.5 -107.5q0 -63 51 -103.5t128 -40.5zM151 639v12h276v-12h-276z" />
    <glyph glyph-name="Abreve" unicode="&#x102;" horiz-adv-x="646" 
d="M581 0l-79 210h-358l-79 -210h-15l265 700h16l265 -700h-15zM323 687l-175 -465h349zM323 766q-69 0 -105.5 32.5t-36.5 79.5h13q0 -44 33 -72.5t96 -28.5t96 28.5t33 72.5h13q0 -47 -36.5 -79.5t-105.5 -32.5z" />
    <glyph glyph-name="abreve" unicode="&#x103;" horiz-adv-x="556" 
d="M468 0h-13v92q-19 -42 -71 -73t-130 -31q-82 0 -137 43t-55 112q0 74 54 116.5t142 42.5q73 0 124.5 -29t71.5 -72v131q0 77 -46.5 124.5t-123.5 47.5q-66 0 -109.5 -29.5t-60.5 -81.5h-13q17 59 65 91t118 32q83 0 133.5 -51.5t50.5 -129.5v-335zM254 -1q48 0 92 14.5
t76 49.5t32 84q0 65 -57.5 104t-137.5 39q-85 0 -134.5 -39.5t-49.5 -107.5q0 -63 51 -103.5t128 -40.5zM294 585q-67 0 -102 37t-35 92h13q0 -53 31.5 -85.5t92.5 -32.5t92.5 32.5t31.5 85.5h13q0 -55 -35 -92t-102 -37z" />
    <glyph glyph-name="Aogonek" unicode="&#x104;" horiz-adv-x="646" 
d="M482 -115q0 40 32 71.5t67 43.5l-79 210h-358l-79 -210h-15l265 700h16l265 -700q-37 -18 -69 -48t-32 -68q0 -27 17 -43t47 -16q15 0 37 4v-11q-18 -4 -36 -4q-37 0 -57.5 19.5t-20.5 51.5zM323 687l-175 -465h349z" />
    <glyph glyph-name="aogonek" unicode="&#x105;" horiz-adv-x="556" 
d="M468 0q-101 -52 -101 -116q0 -27 17 -43t47 -16q15 0 37 4v-11q-18 -4 -36 -4q-37 0 -57.5 19.5t-20.5 51.5q0 40 35 73t66 42v92q-19 -42 -71 -73t-130 -31q-82 0 -137 43t-55 112q0 74 54 116.5t142 42.5q73 0 124.5 -29t71.5 -72v131q0 77 -46.5 124.5t-123.5 47.5
q-66 0 -109.5 -29.5t-60.5 -81.5h-13q17 59 65 91t118 32q83 0 133.5 -51.5t50.5 -129.5v-335zM254 -1q48 0 92 14.5t76 49.5t32 84q0 65 -57.5 104t-137.5 39q-85 0 -134.5 -39.5t-49.5 -107.5q0 -63 51 -103.5t128 -40.5z" />
    <glyph glyph-name="Cacute" unicode="&#x106;" horiz-adv-x="697" 
d="M356 -14q-129 0 -200 82.5t-71 213.5v136q0 131 71 213.5t200 82.5q111 0 182.5 -65.5t80.5 -161.5h-14q-10 92 -76.5 153t-172.5 61q-122 0 -189 -78.5t-67 -205.5v-134q0 -127 67 -205.5t189 -78.5q106 0 172.5 61t76.5 153h14q-9 -96 -80.5 -161.5t-182.5 -65.5z
M351 766h-14l76 112h16z" />
    <glyph glyph-name="cacute" unicode="&#x107;" horiz-adv-x="557" 
d="M68 205v94q0 94 59.5 155.5t148.5 61.5q87 0 143 -51t65 -129h-13q-8 74 -61 121t-134 47q-84 0 -139 -57.5t-55 -148.5v-92q0 -91 55 -148.5t139 -57.5q81 0 134 47t61 121h13q-9 -78 -65 -129t-143 -51q-89 0 -148.5 61.5t-59.5 155.5zM281 585h-14l89 129h16z" />
    <glyph glyph-name="Ccircumflex" unicode="&#x108;" horiz-adv-x="697" 
d="M356 -14q-129 0 -200 82.5t-71 213.5v136q0 131 71 213.5t200 82.5q111 0 182.5 -65.5t80.5 -161.5h-14q-10 92 -76.5 153t-172.5 61q-122 0 -189 -78.5t-67 -205.5v-134q0 -127 67 -205.5t189 -78.5q106 0 172.5 61t76.5 153h14q-9 -96 -80.5 -161.5t-182.5 -65.5z
M234 766l110 112h14l110 -112h-17l-100 103l-100 -103h-17z" />
    <glyph glyph-name="ccircumflex" unicode="&#x109;" horiz-adv-x="557" 
d="M68 205v94q0 94 59.5 155.5t148.5 61.5q87 0 143 -51t65 -129h-13q-8 74 -61 121t-134 47q-84 0 -139 -57.5t-55 -148.5v-92q0 -91 55 -148.5t139 -57.5q81 0 134 47t61 121h13q-9 -78 -65 -129t-143 -51q-89 0 -148.5 61.5t-59.5 155.5zM166 585l109 129h14l109 -129
h-15l-101 120l-101 -120h-15z" />
    <glyph glyph-name="Cdotaccent" unicode="&#x10a;" horiz-adv-x="697" 
d="M356 -14q-129 0 -200 82.5t-71 213.5v136q0 131 71 213.5t200 82.5q111 0 182.5 -65.5t80.5 -161.5h-14q-10 92 -76.5 153t-172.5 61q-122 0 -189 -78.5t-67 -205.5v-134q0 -127 67 -205.5t189 -78.5q106 0 172.5 61t76.5 153h14q-9 -96 -80.5 -161.5t-182.5 -65.5z
M338 830q0 14 14 14t14 -14t-14 -14t-14 14z" />
    <glyph glyph-name="cdotaccent" unicode="&#x10b;" horiz-adv-x="557" 
d="M68 205v94q0 94 59.5 155.5t148.5 61.5q87 0 143 -51t65 -129h-13q-8 74 -61 121t-134 47q-84 0 -139 -57.5t-55 -148.5v-92q0 -91 55 -148.5t139 -57.5q81 0 134 47t61 121h13q-9 -78 -65 -129t-143 -51q-89 0 -148.5 61.5t-59.5 155.5zM264 650q0 14 14 14t14 -14
t-14 -14t-14 14z" />
    <glyph glyph-name="Ccaron" unicode="&#x10c;" horiz-adv-x="697" 
d="M356 -14q-129 0 -200 82.5t-71 213.5v136q0 131 71 213.5t200 82.5q111 0 182.5 -65.5t80.5 -161.5h-14q-10 92 -76.5 153t-172.5 61q-122 0 -189 -78.5t-67 -205.5v-134q0 -127 67 -205.5t189 -78.5q106 0 172.5 61t76.5 153h14q-9 -96 -80.5 -161.5t-182.5 -65.5z
M347 766l-110 112h17l100 -103l100 103h17l-110 -112h-14z" />
    <glyph glyph-name="ccaron" unicode="&#x10d;" horiz-adv-x="557" 
d="M68 205v94q0 94 59.5 155.5t148.5 61.5q87 0 143 -51t65 -129h-13q-8 74 -61 121t-134 47q-84 0 -139 -57.5t-55 -148.5v-92q0 -91 55 -148.5t139 -57.5q81 0 134 47t61 121h13q-9 -78 -65 -129t-143 -51q-89 0 -148.5 61.5t-59.5 155.5zM274 585l-109 129h15l101 -120
l101 120h15l-109 -129h-14z" />
    <glyph glyph-name="Dcaron" unicode="&#x10e;" horiz-adv-x="691" 
d="M105 700h242q123 0 192 -75.5t69 -189.5v-170q0 -115 -71.5 -190t-199.5 -75h-232v700zM120 13h217q121 0 188.5 71.5t67.5 180.5v170q0 109 -64.5 180.5t-181.5 71.5h-227v-674zM319 766l-110 112h17l100 -103l100 103h17l-110 -112h-14z" />
    <glyph glyph-name="dcaron" unicode="&#x10f;" horiz-adv-x="689" 
d="M482 730v-730h-13v131q-11 -51 -64 -97t-132 -46q-92 0 -148.5 60.5t-56.5 151.5v104q0 91 56.5 151.5t148.5 60.5q77 0 129 -44.5t66 -94.5v353h14zM468 197v110q0 87 -56.5 142t-137.5 55q-88 0 -140 -56.5t-52 -146.5v-98q0 -90 52 -146.5t140 -56.5q81 0 137.5 55
t56.5 142zM614 562l40 168h16l-43 -168h-13z" />
    <glyph glyph-name="Dcroat" unicode="&#x110;" horiz-adv-x="725" 
d="M45 344v12h94v344h242q123 0 192 -75.5t69 -189.5v-170q0 -115 -71.5 -190t-199.5 -75h-232v344h-94zM154 13h217q121 0 188.5 71.5t67.5 180.5v170q0 109 -64.5 180.5t-181.5 71.5h-227v-331h215v-12h-215v-331z" />
    <glyph glyph-name="dcroat" unicode="&#x111;" horiz-adv-x="597" 
d="M482 730v-104h95v-11h-95v-615h-13v131q-11 -51 -64 -97t-132 -46q-92 0 -148.5 60.5t-56.5 151.5v104q0 91 56.5 151.5t148.5 60.5q77 0 129 -44.5t66 -94.5v238h-149v11h149v104h14zM468 197v110q0 87 -56.5 142t-137.5 55q-88 0 -140 -56.5t-52 -146.5v-98
q0 -90 52 -146.5t140 -56.5q81 0 137.5 55t56.5 142z" />
    <glyph glyph-name="Emacron" unicode="&#x112;" horiz-adv-x="598" 
d="M105 0v700h432v-13h-417v-325h388v-13h-388v-336h418v-13h-433zM189 821v12h270v-12h-270z" />
    <glyph glyph-name="emacron" unicode="&#x113;" horiz-adv-x="548" 
d="M476 242h-394v-43q0 -90 55 -144.5t140 -54.5q68 0 118 37.5t61 99.5h14q-12 -66 -65.5 -107.5t-127.5 -41.5q-92 0 -150.5 58.5t-58.5 154.5v94q0 102 56.5 161.5t150.5 59.5q92 0 146.5 -62t54.5 -153v-59zM82 294v-40h381v45q0 87 -50.5 146t-137.5 59q-89 0 -141 -56
t-52 -154zM134 639v12h276v-12h-276z" />
    <glyph glyph-name="Ebreve" unicode="&#x114;" horiz-adv-x="598" 
d="M105 0v700h432v-13h-417v-325h388v-13h-388v-336h418v-13h-433zM324 766q-69 0 -105.5 32.5t-36.5 79.5h13q0 -44 33 -72.5t96 -28.5t96 28.5t33 72.5h13q0 -47 -36.5 -79.5t-105.5 -32.5z" />
    <glyph glyph-name="ebreve" unicode="&#x115;" horiz-adv-x="548" 
d="M476 242h-394v-43q0 -90 55 -144.5t140 -54.5q68 0 118 37.5t61 99.5h14q-12 -66 -65.5 -107.5t-127.5 -41.5q-92 0 -150.5 58.5t-58.5 154.5v94q0 102 56.5 161.5t150.5 59.5q92 0 146.5 -62t54.5 -153v-59zM82 294v-40h381v45q0 87 -50.5 146t-137.5 59q-89 0 -141 -56
t-52 -154zM274 585q-67 0 -102 37t-35 92h13q0 -53 31.5 -85.5t92.5 -32.5t92.5 32.5t31.5 85.5h13q0 -55 -35 -92t-102 -37z" />
    <glyph glyph-name="Edotaccent" unicode="&#x116;" horiz-adv-x="598" 
d="M105 0v700h432v-13h-417v-325h388v-13h-388v-336h418v-13h-433zM309 830q0 14 14 14t14 -14t-14 -14t-14 14z" />
    <glyph glyph-name="edotaccent" unicode="&#x117;" horiz-adv-x="548" 
d="M476 242h-394v-43q0 -90 55 -144.5t140 -54.5q68 0 118 37.5t61 99.5h14q-12 -66 -65.5 -107.5t-127.5 -41.5q-92 0 -150.5 58.5t-58.5 154.5v94q0 102 56.5 161.5t150.5 59.5q92 0 146.5 -62t54.5 -153v-59zM82 294v-40h381v45q0 87 -50.5 146t-137.5 59q-89 0 -141 -56
t-52 -154zM258 650q0 14 14 14t14 -14t-14 -14t-14 14z" />
    <glyph glyph-name="Eogonek" unicode="&#x118;" horiz-adv-x="598" 
d="M105 0v700h432v-13h-417v-325h388v-13h-388v-336h418v-13q-101 -53 -101 -116q0 -27 17 -43t47 -16q15 0 37 4v-11q-18 -4 -36 -4q-37 0 -57.5 19.5t-20.5 51.5q0 41 33 72.5t66 42.5h-418z" />
    <glyph glyph-name="eogonek" unicode="&#x119;" horiz-adv-x="548" 
d="M263 -110q0 36 22 64t48 41q-24 -7 -56 -7q-92 0 -150.5 58.5t-58.5 154.5v94q0 102 56.5 161.5t150.5 59.5q92 0 146.5 -62t54.5 -153v-59h-394v-43q0 -90 55 -144.5t140 -54.5q68 0 118 37.5t61 99.5h14q-14 -77 -94 -126q-51 -31 -75.5 -57t-24.5 -65q0 -28 18.5 -46
t49.5 -18q15 0 37 4v-11q-18 -4 -36 -4q-37 0 -59.5 21.5t-22.5 54.5zM82 294v-40h381v45q0 87 -50.5 146t-137.5 59q-89 0 -141 -56t-52 -154z" />
    <glyph glyph-name="Ecaron" unicode="&#x11a;" horiz-adv-x="598" 
d="M105 0v700h432v-13h-417v-325h388v-13h-388v-336h418v-13h-433zM316 766l-110 112h17l100 -103l100 103h17l-110 -112h-14z" />
    <glyph glyph-name="ecaron" unicode="&#x11b;" horiz-adv-x="548" 
d="M476 242h-394v-43q0 -90 55 -144.5t140 -54.5q68 0 118 37.5t61 99.5h14q-12 -66 -65.5 -107.5t-127.5 -41.5q-92 0 -150.5 58.5t-58.5 154.5v94q0 102 56.5 161.5t150.5 59.5q92 0 146.5 -62t54.5 -153v-59zM82 294v-40h381v45q0 87 -50.5 146t-137.5 59q-89 0 -141 -56
t-52 -154zM265 585l-109 129h15l101 -120l101 120h15l-109 -129h-14z" />
    <glyph glyph-name="Gcircumflex" unicode="&#x11c;" horiz-adv-x="704" 
d="M612 478h-14q-2 95 -68 159t-178 64q-125 0 -188.5 -79t-63.5 -210v-121q0 -129 65.5 -210.5t194.5 -81.5q114 0 179.5 71.5t65.5 180.5v48h-235v13h249v-61q0 -116 -70 -190.5t-189 -74.5q-136 0 -205.5 86t-69.5 220v119q0 136 68 219.5t199 83.5q117 0 187.5 -67.5
t72.5 -168.5zM231 766l110 112h14l110 -112h-17l-100 103l-100 -103h-17z" />
    <glyph glyph-name="gcircumflex" unicode="&#x11d;" horiz-adv-x="577" 
d="M482 504v-516q0 -73 -56.5 -123.5t-145.5 -50.5q-65 0 -120 28t-81 78h14q27 -45 77 -69.5t110 -24.5q81 0 134.5 45.5t53.5 117.5v167q-12 -49 -65 -93.5t-130 -44.5q-92 0 -148.5 57.5t-56.5 144.5v94q0 89 55.5 145.5t149.5 56.5q77 0 129 -41t66 -89v118h14zM468 316
q0 82 -56.5 135t-137.5 53q-88 0 -140 -54t-52 -139v-88q0 -85 52 -139t140 -54q78 0 136 55t58 137v94zM175 585l109 129h14l109 -129h-15l-101 120l-101 -120h-15z" />
    <glyph glyph-name="Gbreve" unicode="&#x11e;" horiz-adv-x="704" 
d="M612 478h-14q-2 95 -68 159t-178 64q-125 0 -188.5 -79t-63.5 -210v-121q0 -129 65.5 -210.5t194.5 -81.5q114 0 179.5 71.5t65.5 180.5v48h-235v13h249v-61q0 -116 -70 -190.5t-189 -74.5q-136 0 -205.5 86t-69.5 220v119q0 136 68 219.5t199 83.5q117 0 187.5 -67.5
t72.5 -168.5zM355 766q-69 0 -105.5 32.5t-36.5 79.5h13q0 -44 33 -72.5t96 -28.5t96 28.5t33 72.5h13q0 -47 -36.5 -79.5t-105.5 -32.5z" />
    <glyph glyph-name="gbreve" unicode="&#x11f;" horiz-adv-x="577" 
d="M482 504v-516q0 -73 -56.5 -123.5t-145.5 -50.5q-65 0 -120 28t-81 78h14q27 -45 77 -69.5t110 -24.5q81 0 134.5 45.5t53.5 117.5v167q-12 -49 -65 -93.5t-130 -44.5q-92 0 -148.5 57.5t-56.5 144.5v94q0 89 55.5 145.5t149.5 56.5q77 0 129 -41t66 -89v118h14zM468 316
q0 82 -56.5 135t-137.5 53q-88 0 -140 -54t-52 -139v-88q0 -85 52 -139t140 -54q78 0 136 55t58 137v94zM291 585q-67 0 -102 37t-35 92h13q0 -53 31.5 -85.5t92.5 -32.5t92.5 32.5t31.5 85.5h13q0 -55 -35 -92t-102 -37z" />
    <glyph glyph-name="Gdotaccent" unicode="&#x120;" horiz-adv-x="704" 
d="M612 478h-14q-2 95 -68 159t-178 64q-125 0 -188.5 -79t-63.5 -210v-121q0 -129 65.5 -210.5t194.5 -81.5q114 0 179.5 71.5t65.5 180.5v48h-235v13h249v-61q0 -116 -70 -190.5t-189 -74.5q-136 0 -205.5 86t-69.5 220v119q0 136 68 219.5t199 83.5q117 0 187.5 -67.5
t72.5 -168.5zM338 830q0 14 14 14t14 -14t-14 -14t-14 14z" />
    <glyph glyph-name="gdotaccent" unicode="&#x121;" horiz-adv-x="577" 
d="M482 504v-516q0 -73 -56.5 -123.5t-145.5 -50.5q-65 0 -120 28t-81 78h14q27 -45 77 -69.5t110 -24.5q81 0 134.5 45.5t53.5 117.5v167q-12 -49 -65 -93.5t-130 -44.5q-92 0 -148.5 57.5t-56.5 144.5v94q0 89 55.5 145.5t149.5 56.5q77 0 129 -41t66 -89v118h14zM468 316
q0 82 -56.5 135t-137.5 53q-88 0 -140 -54t-52 -139v-88q0 -85 52 -139t140 -54q78 0 136 55t58 137v94zM269 650q0 14 14 14t14 -14t-14 -14t-14 14z" />
    <glyph glyph-name="Gcommaaccent" unicode="&#x122;" horiz-adv-x="704" 
d="M612 478h-14q-2 95 -68 159t-178 64q-125 0 -188.5 -79t-63.5 -210v-121q0 -129 65.5 -210.5t194.5 -81.5q114 0 179.5 71.5t65.5 180.5v48h-235v13h249v-61q0 -116 -70 -190.5t-189 -74.5q-136 0 -205.5 86t-69.5 220v119q0 136 68 219.5t199 83.5q117 0 187.5 -67.5
t72.5 -168.5zM322 -250l45 163h14l-48 -163h-11z" />
    <glyph glyph-name="gcommaaccent" unicode="&#x123;" horiz-adv-x="577" 
d="M482 504v-516q0 -73 -56.5 -123.5t-145.5 -50.5q-65 0 -120 28t-81 78h14q27 -45 77 -69.5t110 -24.5q81 0 134.5 45.5t53.5 117.5v167q-12 -49 -65 -93.5t-130 -44.5q-92 0 -148.5 57.5t-56.5 144.5v94q0 89 55.5 145.5t149.5 56.5q77 0 129 -41t66 -89v118h14zM468 316
q0 82 -56.5 135t-137.5 53q-88 0 -140 -54t-52 -139v-88q0 -85 52 -139t140 -54q78 0 136 55t58 137v94zM326 714l-30 -129h-15l33 129h12z" />
    <glyph glyph-name="Hcircumflex" unicode="&#x124;" horiz-adv-x="695" 
d="M105 0v700h15v-339h455v339h15v-700h-15v348h-455v-348h-15zM230 766l110 112h14l110 -112h-17l-100 103l-100 -103h-17z" />
    <glyph glyph-name="hcircumflex" unicode="&#x125;" horiz-adv-x="576" 
d="M109 0h-14v730h14v-353q17 62 67 100.5t125 38.5q85 0 135 -54t50 -149v-313h-14v311q0 90 -45 141t-127 51q-86 0 -138.5 -56t-52.5 -155v-292zM-14 780l110 112h14l110 -112h-17l-100 103l-100 -103h-17z" />
    <glyph glyph-name="Hbar" unicode="&#x126;" horiz-adv-x="755" 
d="M135 0v528h-90v11h90v161h15v-161h455v161h15v-161h90v-11h-90v-528h-15v348h-455v-348h-15zM150 361h455v167h-455v-167z" />
    <glyph glyph-name="hbar" unicode="&#x127;" horiz-adv-x="596" 
d="M20 615v11h95v104h14v-104h149v-11h-149v-238q17 62 67 100.5t125 38.5q85 0 135 -54t50 -149v-313h-14v311q0 90 -45 141t-127 51q-86 0 -138.5 -56t-52.5 -155v-292h-14v615h-95z" />
    <glyph glyph-name="Itilde" unicode="&#x128;" horiz-adv-x="235" 
d="M110 0v700h15v-700h-15zM-31 771l-11 3q8 41 25 66t51 25t89 -40t77 -40q15 0 25.5 6.5t17 21t9.5 24.5t8 31l11 -3q-6 -27 -11.5 -42.5t-21 -32t-38.5 -16.5q-24 0 -80 40t-86 40t-43.5 -21.5t-21.5 -61.5z" />
    <glyph glyph-name="itilde" unicode="&#x129;" 
d="M114 0h-14v504h14v-504zM-33 601l-11 2q16 92 76 92q32 0 83.5 -40.5t72.5 -40.5q20 0 33 14t18 29.5t9 40.5l11 -2q-5 -21 -8.5 -33t-11.5 -27.5t-20.5 -23.5t-30.5 -8q-25 0 -76.5 40.5t-79.5 40.5q-30 0 -43.5 -22.5t-21.5 -61.5z" />
    <glyph glyph-name="uni012A" unicode="&#x12a;" horiz-adv-x="235" 
d="M110 0v700h15v-700h-15zM-18 821v12h270v-12h-270z" />
    <glyph glyph-name="imacron" unicode="&#x12b;" 
d="M114 0h-14v504h14v-504zM-31 639v12h276v-12h-276z" />
    <glyph glyph-name="Ibreve" unicode="&#x12c;" horiz-adv-x="235" 
d="M110 0v700h15v-700h-15zM117 766q-69 0 -105.5 32.5t-36.5 79.5h13q0 -44 33 -72.5t96 -28.5t96 28.5t33 72.5h13q0 -47 -36.5 -79.5t-105.5 -32.5z" />
    <glyph glyph-name="uni012D" unicode="&#x12d;" 
d="M114 0h-14v504h14v-504zM107 585q-67 0 -102 37t-35 92h13q0 -53 31.5 -85.5t92.5 -32.5t92.5 32.5t31.5 85.5h13q0 -55 -35 -92t-102 -37z" />
    <glyph glyph-name="Iogonek" unicode="&#x12e;" horiz-adv-x="235" 
d="M110 0v700h15v-700q-70 -56 -70 -117q0 -26 14 -42t41 -16q9 0 15 1v-11q-5 -1 -15 -1q-33 0 -50.5 19t-17.5 50q0 72 68 117z" />
    <glyph glyph-name="iogonek" unicode="&#x12f;" 
d="M114 0q-70 -56 -70 -117q0 -26 14 -42t41 -16q9 0 15 1v-11q-5 -1 -15 -1q-33 0 -50.5 19t-17.5 50q0 71 69 117v504h14v-504zM93 650q0 14 14 14t14 -14t-14 -14t-14 14z" />
    <glyph glyph-name="Idotaccent" unicode="&#x130;" horiz-adv-x="235" 
d="M110 0v700h15v-700h-15zM103 830q0 14 14 14t14 -14t-14 -14t-14 14z" />
    <glyph glyph-name="dotlessi" unicode="&#x131;" 
d="M114 0h-14v504h14v-504z" />
    <glyph glyph-name="IJ" unicode="&#x132;" horiz-adv-x="811" 
d="M110 0v700h15v-700h-15zM295 174h14v-4q0 -77 53.5 -124t140.5 -47q85 0 139 49t54 126v526h15v-526q0 -82 -58.5 -135t-149.5 -53q-94 0 -151 51.5t-57 132.5v4z" />
    <glyph glyph-name="ij" unicode="&#x133;" horiz-adv-x="428" 
d="M114 0h-14v504h14v-504zM93 650q0 14 14 14t14 -14t-14 -14t-14 14zM328 504v-568q0 -54 -28.5 -82t-79.5 -28h-26v13h25q95 0 95 97v568h14zM307 650q0 14 14 14t14 -14t-14 -14t-14 14z" />
    <glyph glyph-name="Jcircumflex" unicode="&#x134;" horiz-adv-x="576" 
d="M60 174h14v-4q0 -77 53.5 -124t140.5 -47q85 0 139 49t54 126v526h15v-526q0 -82 -58.5 -135t-149.5 -53q-94 0 -151 51.5t-57 132.5v4zM352 766l110 112h14l110 -112h-17l-100 103l-100 -103h-17z" />
    <glyph glyph-name="jcircumflex" unicode="&#x135;" 
d="M114 504v-568q0 -54 -28.5 -82t-79.5 -28h-26v13h25q95 0 95 97v568h14zM-9 585l109 129h14l109 -129h-15l-101 120l-101 -120h-15z" />
    <glyph glyph-name="Kcommaaccent" unicode="&#x136;" horiz-adv-x="571" 
d="M120 0h-15v700h15v-345l391 345h21l-394 -346l408 -354h-21l-405 353v-353zM255 -250l45 163h14l-48 -163h-11z" />
    <glyph glyph-name="kcommaaccent" unicode="&#x137;" horiz-adv-x="474" 
d="M95 0v730h14v-466l293 240h20l-294 -241l308 -263h-20l-307 262v-262h-14zM211 -250l45 163h14l-48 -163h-11z" />
    <glyph glyph-name="kgreenlandic" unicode="&#x138;" horiz-adv-x="474" 
d="M95 0v504h14v-240l293 240h20l-294 -241l308 -263h-20l-307 262v-262h-14z" />
    <glyph glyph-name="Lacute" unicode="&#x139;" horiz-adv-x="557" 
d="M105 0v700h15v-687h392v-13h-407zM119 766h-14l76 112h16z" />
    <glyph glyph-name="lacute" unicode="&#x13a;" 
d="M116 796h-14l64 94h16zM114 0h-14v730h14v-730z" />
    <glyph glyph-name="Lcommaaccent" unicode="&#x13b;" horiz-adv-x="557" 
d="M105 0v700h15v-687h392v-13h-407zM257 -250l45 163h14l-48 -163h-11z" />
    <glyph glyph-name="lcommaaccent" unicode="&#x13c;" 
d="M114 0h-14v730h14v-730zM55 -250l45 163h14l-48 -163h-11z" />
    <glyph glyph-name="Lcaron" unicode="&#x13d;" horiz-adv-x="557" 
d="M105 0v700h15v-687h392v-13h-407zM334 532l40 168h16l-43 -168h-13z" />
    <glyph glyph-name="lcaron" unicode="&#x13e;" horiz-adv-x="317" 
d="M114 0h-14v730h14v-730zM246 562l40 168h16l-43 -168h-13z" />
    <glyph glyph-name="Ldot" unicode="&#x13f;" horiz-adv-x="557" 
d="M105 0v700h15v-687h392v-13h-407zM316 340q0 14 14 14t14 -14t-14 -14t-14 14z" />
    <glyph glyph-name="ldot" unicode="&#x140;" horiz-adv-x="306" 
d="M114 0h-14v730h14v-730zM240 303q0 14 14 14t14 -14t-14 -14t-14 14z" />
    <glyph glyph-name="Lslash" unicode="&#x141;" horiz-adv-x="573" 
d="M121 0v366l-101 -62v14l101 62v320h15v-311l200 123v-14l-200 -123v-362h392v-13h-407z" />
    <glyph glyph-name="lslash" unicode="&#x142;" horiz-adv-x="224" 
d="M119 0h-14v406l-69 -64v16l69 64v308h14v-295l82 77v-16l-82 -77v-419z" />
    <glyph glyph-name="Nacute" unicode="&#x143;" horiz-adv-x="704" 
d="M105 0v700h13l467 -675v675h14v-700h-13l-467 675v-675h-14zM347 766h-14l76 112h16z" />
    <glyph glyph-name="nacute" unicode="&#x144;" horiz-adv-x="576" 
d="M109 0h-14v504h13v-128q17 62 67 101t126 39q85 0 135 -54t50 -149v-313h-14v311q0 90 -45 141t-127 51q-86 0 -138.5 -56t-52.5 -155v-292zM283 585h-14l89 129h16z" />
    <glyph glyph-name="Ncommaaccent" unicode="&#x145;" horiz-adv-x="704" 
d="M105 0v700h13l467 -675v675h14v-700h-13l-467 675v-675h-14zM314 -250l45 163h14l-48 -163h-11z" />
    <glyph glyph-name="ncommaaccent" unicode="&#x146;" horiz-adv-x="576" 
d="M109 0h-14v504h13v-128q17 62 67 101t126 39q85 0 135 -54t50 -149v-313h-14v311q0 90 -45 141t-127 51q-86 0 -138.5 -56t-52.5 -155v-292zM255 -250l45 163h14l-48 -163h-11z" />
    <glyph glyph-name="Ncaron" unicode="&#x147;" horiz-adv-x="704" 
d="M105 0v700h13l467 -675v675h14v-700h-13l-467 675v-675h-14zM345 766l-110 112h17l100 -103l100 103h17l-110 -112h-14z" />
    <glyph glyph-name="ncaron" unicode="&#x148;" horiz-adv-x="576" 
d="M109 0h-14v504h13v-128q17 62 67 101t126 39q85 0 135 -54t50 -149v-313h-14v311q0 90 -45 141t-127 51q-86 0 -138.5 -56t-52.5 -155v-292zM283 585l-109 129h15l101 -120l101 120h15l-109 -129h-14z" />
    <glyph glyph-name="napostrophe" unicode="&#x149;" horiz-adv-x="656" 
d="M189 0h-14v504h13v-128q17 62 67 101t126 39q85 0 135 -54t50 -149v-313h-14v311q0 90 -45 141t-127 51q-86 0 -138.5 -56t-52.5 -155v-292zM23 562l40 168h16l-43 -168h-13z" />
    <glyph glyph-name="Eng" unicode="&#x14a;" horiz-adv-x="704" 
d="M105 0v700h13l467 -675v675h14v-704q0 -75 -46 -122.5t-125 -47.5h-17v13h16q75 0 116 44t41 113v7l-465 672v-675h-14z" />
    <glyph glyph-name="eng" unicode="&#x14b;" horiz-adv-x="576" 
d="M109 0h-14v504h13v-128q17 62 67 101t126 39q85 0 135 -54t50 -149v-328q0 -74 -42 -116.5t-111 -42.5h-8v13h6q65 0 103 39t38 107v326q0 90 -45 141t-127 51q-86 0 -138.5 -56t-52.5 -155v-292z" />
    <glyph glyph-name="Omacron" unicode="&#x14c;" horiz-adv-x="722" 
d="M85 286v128q0 129 71 214.5t205 85.5t205 -85.5t71 -214.5v-128q0 -129 -71 -214.5t-205 -85.5t-205 85.5t-71 214.5zM361 701q-128 0 -194.5 -82.5t-66.5 -204.5v-128q0 -122 66.5 -204.5t194.5 -82.5t194.5 82.5t66.5 204.5v128q0 122 -66.5 204.5t-194.5 82.5z
M226 821v12h270v-12h-270z" />
    <glyph glyph-name="omacron" unicode="&#x14d;" horiz-adv-x="558" 
d="M490 302v-100q0 -91 -58 -152.5t-153 -61.5t-153 61.5t-58 152.5v100q0 91 58 152.5t153 61.5t153 -61.5t58 -152.5zM279 0q88 0 142.5 58.5t54.5 144.5v98q0 86 -54.5 144.5t-142.5 58.5t-142.5 -58.5t-54.5 -144.5v-98q0 -86 54.5 -144.5t142.5 -58.5zM141 639v12h276
v-12h-276z" />
    <glyph glyph-name="Obreve" unicode="&#x14e;" horiz-adv-x="722" 
d="M85 286v128q0 129 71 214.5t205 85.5t205 -85.5t71 -214.5v-128q0 -129 -71 -214.5t-205 -85.5t-205 85.5t-71 214.5zM361 701q-128 0 -194.5 -82.5t-66.5 -204.5v-128q0 -122 66.5 -204.5t194.5 -82.5t194.5 82.5t66.5 204.5v128q0 122 -66.5 204.5t-194.5 82.5z
M361 766q-69 0 -105.5 32.5t-36.5 79.5h13q0 -44 33 -72.5t96 -28.5t96 28.5t33 72.5h13q0 -47 -36.5 -79.5t-105.5 -32.5z" />
    <glyph glyph-name="obreve" unicode="&#x14f;" horiz-adv-x="558" 
d="M490 302v-100q0 -91 -58 -152.5t-153 -61.5t-153 61.5t-58 152.5v100q0 91 58 152.5t153 61.5t153 -61.5t58 -152.5zM279 0q88 0 142.5 58.5t54.5 144.5v98q0 86 -54.5 144.5t-142.5 58.5t-142.5 -58.5t-54.5 -144.5v-98q0 -86 54.5 -144.5t142.5 -58.5zM279 585
q-67 0 -102 37t-35 92h13q0 -53 31.5 -85.5t92.5 -32.5t92.5 32.5t31.5 85.5h13q0 -55 -35 -92t-102 -37z" />
    <glyph glyph-name="Ohungarumlaut" unicode="&#x150;" horiz-adv-x="722" 
d="M85 286v128q0 129 71 214.5t205 85.5t205 -85.5t71 -214.5v-128q0 -129 -71 -214.5t-205 -85.5t-205 85.5t-71 214.5zM361 701q-128 0 -194.5 -82.5t-66.5 -204.5v-128q0 -122 66.5 -204.5t194.5 -82.5t194.5 82.5t66.5 204.5v128q0 122 -66.5 204.5t-194.5 82.5z
M276 766h-14l65 112h16zM478 766h-14l65 112h16z" />
    <glyph glyph-name="ohungarumlaut" unicode="&#x151;" horiz-adv-x="558" 
d="M490 302v-100q0 -91 -58 -152.5t-153 -61.5t-153 61.5t-58 152.5v100q0 91 58 152.5t153 61.5t153 -61.5t58 -152.5zM279 0q88 0 142.5 58.5t54.5 144.5v98q0 86 -54.5 144.5t-142.5 58.5t-142.5 -58.5t-54.5 -144.5v-98q0 -86 54.5 -144.5t142.5 -58.5zM215 585h-14
l75 129h16zM382 585h-14l75 129h16z" />
    <glyph glyph-name="OE" unicode="&#x152;" horiz-adv-x="1060" 
d="M999 700v-13h-417v-325h388v-13h-388v-336h418v-13h-623q-144 0 -218 83.5t-74 212.5v108q0 129 74 212.5t218 83.5h622zM100 296q0 -122 69.5 -202.5t207.5 -80.5h190v674h-190q-138 0 -207.5 -80.5t-69.5 -202.5v-108z" />
    <glyph glyph-name="oe" unicode="&#x153;" horiz-adv-x="956" 
d="M884 242h-394v-43q0 -90 55 -144.5t140 -54.5q68 0 118 37.5t61 99.5h14q-12 -66 -65.5 -107.5t-127.5 -41.5q-77 0 -131 41.5t-71 113.5q-16 -67 -71.5 -111t-132.5 -44q-95 0 -153 61.5t-58 152.5v100q0 91 58 152.5t153 61.5q78 0 133 -44t71 -113q16 75 69 116
t131 41q92 0 146.5 -62t54.5 -153v-59zM279 0q88 0 142 56.5t55 144.5v104q0 85 -55 142t-142 57q-88 0 -142.5 -58.5t-54.5 -144.5v-98q0 -86 54.5 -144.5t142.5 -58.5zM490 254h381v45q0 87 -50.5 146t-137.5 59t-140 -53.5t-53 -146.5v-50z" />
    <glyph glyph-name="Racute" unicode="&#x154;" horiz-adv-x="654" 
d="M120 288v-288h-15v700h264q99 0 157 -59.5t58 -146.5q0 -75 -44.5 -131t-122.5 -71l161 -292h-16l-159 290q-18 -2 -34 -2h-249zM120 301h244q99 0 152 56.5t53 136.5t-53 136.5t-152 56.5h-244v-386zM299 766h-14l76 112h16z" />
    <glyph glyph-name="racute" unicode="&#x155;" horiz-adv-x="327" 
d="M305 506v-12h-12q-83 0 -133.5 -61t-50.5 -174v-259h-14v504h13v-158q11 69 60.5 114.5t124.5 45.5h12zM179 585h-14l89 129h16z" />
    <glyph glyph-name="Rcommaaccent" unicode="&#x156;" horiz-adv-x="654" 
d="M120 288v-288h-15v700h264q99 0 157 -59.5t58 -146.5q0 -75 -44.5 -131t-122.5 -71l161 -292h-16l-159 290q-18 -2 -34 -2h-249zM120 301h244q99 0 152 56.5t53 136.5t-53 136.5t-152 56.5h-244v-386zM278 -250l45 163h14l-48 -163h-11z" />
    <glyph glyph-name="rcommaaccent" unicode="&#x157;" horiz-adv-x="327" 
d="M305 506v-12h-12q-83 0 -133.5 -61t-50.5 -174v-259h-14v504h13v-158q11 69 60.5 114.5t124.5 45.5h12zM50 -250l45 163h14l-48 -163h-11z" />
    <glyph glyph-name="Rcaron" unicode="&#x158;" horiz-adv-x="654" 
d="M120 288v-288h-15v700h264q99 0 157 -59.5t58 -146.5q0 -75 -44.5 -131t-122.5 -71l161 -292h-16l-159 290q-18 -2 -34 -2h-249zM120 301h244q99 0 152 56.5t53 136.5t-53 136.5t-152 56.5h-244v-386zM310 766l-110 112h17l100 -103l100 103h17l-110 -112h-14z" />
    <glyph glyph-name="rcaron" unicode="&#x159;" horiz-adv-x="327" 
d="M305 506v-12h-12q-83 0 -133.5 -61t-50.5 -174v-259h-14v504h13v-158q11 69 60.5 114.5t124.5 45.5h12zM184 585l-109 129h15l101 -120l101 120h15l-109 -129h-14z" />
    <glyph glyph-name="Sacute" unicode="&#x15a;" horiz-adv-x="649" 
d="M83 203h14v-17q0 -86 67.5 -137t165.5 -51t164 48.5t66 132.5q0 54 -33 91.5t-94 53.5l-218 57q-125 32 -125 151q0 84 62.5 133t164.5 49q103 0 169.5 -53.5t66.5 -137.5v-18h-13v18q0 79 -62.5 129t-160.5 50q-96 0 -154.5 -44.5t-58.5 -125.5q0 -58 28 -91t87 -48
l215 -57q140 -37 140 -157q0 -90 -70.5 -141.5t-173.5 -51.5q-107 0 -177 55t-70 145v17zM322 766h-14l76 112h16z" />
    <glyph glyph-name="sacute" unicode="&#x15b;" horiz-adv-x="522" 
d="M70 145h13v-12q0 -63 54.5 -98.5t131.5 -35.5q74 0 126 35.5t52 91.5q0 79 -94 102l-173 44q-98 24 -98 109q0 60 50 97.5t128 37.5q82 0 131 -41.5t49 -105.5v-13h-13v12q0 61 -46 99t-121 38q-72 0 -118.5 -34.5t-46.5 -89.5q0 -76 88 -98l173 -44q104 -26 104 -113
q0 -60 -56 -99t-135 -39q-84 0 -141.5 38.5t-57.5 106.5v12zM258 585h-14l89 129h16z" />
    <glyph glyph-name="Scircumflex" unicode="&#x15c;" horiz-adv-x="649" 
d="M83 203h14v-17q0 -86 67.5 -137t165.5 -51t164 48.5t66 132.5q0 54 -33 91.5t-94 53.5l-218 57q-125 32 -125 151q0 84 62.5 133t164.5 49q103 0 169.5 -53.5t66.5 -137.5v-18h-13v18q0 79 -62.5 129t-160.5 50q-96 0 -154.5 -44.5t-58.5 -125.5q0 -58 28 -91t87 -48
l215 -57q140 -37 140 -157q0 -90 -70.5 -141.5t-173.5 -51.5q-107 0 -177 55t-70 145v17zM204 766l110 112h14l110 -112h-17l-100 103l-100 -103h-17z" />
    <glyph glyph-name="scircumflex" unicode="&#x15d;" horiz-adv-x="522" 
d="M70 145h13v-12q0 -63 54.5 -98.5t131.5 -35.5q74 0 126 35.5t52 91.5q0 79 -94 102l-173 44q-98 24 -98 109q0 60 50 97.5t128 37.5q82 0 131 -41.5t49 -105.5v-13h-13v12q0 61 -46 99t-121 38q-72 0 -118.5 -34.5t-46.5 -89.5q0 -76 88 -98l173 -44q104 -26 104 -113
q0 -60 -56 -99t-135 -39q-84 0 -141.5 38.5t-57.5 106.5v12zM151 585l109 129h14l109 -129h-15l-101 120l-101 -120h-15z" />
    <glyph glyph-name="Scedilla" unicode="&#x15e;" horiz-adv-x="649" 
d="M83 203h14v-17q0 -86 67.5 -137t165.5 -51t164 48.5t66 132.5q0 54 -33 91.5t-94 53.5l-218 57q-125 32 -125 151q0 84 62.5 133t164.5 49q103 0 169.5 -53.5t66.5 -137.5v-18h-13v18q0 79 -62.5 129t-160.5 50q-96 0 -154.5 -44.5t-58.5 -125.5q0 -58 28 -91t87 -48
l215 -57q140 -37 140 -157q0 -90 -70.5 -141.5t-173.5 -51.5h-3l-10 -44l30 -2q35 -2 56 -18t21 -45q0 -28 -23 -45.5t-61 -17.5q-32 0 -65 7v11q33 -7 65 -7q31 0 51 14t20 38q0 47 -68 52l-42 3l14 54q-102 5 -167 59t-65 141v17z" />
    <glyph glyph-name="Scedilla" unicode="&#xf6c1;" horiz-adv-x="649" 
d="M83 203h14v-17q0 -86 67.5 -137t165.5 -51t164 48.5t66 132.5q0 54 -33 91.5t-94 53.5l-218 57q-125 32 -125 151q0 84 62.5 133t164.5 49q103 0 169.5 -53.5t66.5 -137.5v-18h-13v18q0 79 -62.5 129t-160.5 50q-96 0 -154.5 -44.5t-58.5 -125.5q0 -58 28 -91t87 -48
l215 -57q140 -37 140 -157q0 -90 -70.5 -141.5t-173.5 -51.5h-3l-10 -44l30 -2q35 -2 56 -18t21 -45q0 -28 -23 -45.5t-61 -17.5q-32 0 -65 7v11q33 -7 65 -7q31 0 51 14t20 38q0 47 -68 52l-42 3l14 54q-102 5 -167 59t-65 141v17z" />
    <glyph glyph-name="scedilla" unicode="&#x15f;" horiz-adv-x="522" 
d="M70 145h13v-12q0 -63 54.5 -98.5t131.5 -35.5q72 0 125 35.5t53 91.5q0 79 -94 102l-173 44q-98 24 -98 109q0 60 50 97.5t128 37.5q82 0 131 -41.5t49 -105.5v-13h-13v12q0 61 -46 99t-121 38q-72 0 -118.5 -34.5t-46.5 -89.5q0 -76 88 -98l173 -44q104 -26 104 -113
q0 -59 -54.5 -97.5t-131.5 -40.5l-10 -46l30 -2q35 -2 56 -18t21 -45q0 -28 -23 -45.5t-61 -17.5q-32 0 -65 7v11q33 -7 65 -7q31 0 51 14t20 38q0 47 -68 52l-42 3l14 56q-81 2 -136.5 40.5t-55.5 104.5v12z" />
    <glyph glyph-name="scedilla" unicode="&#xf6c2;" horiz-adv-x="522" 
d="M70 145h13v-12q0 -63 54.5 -98.5t131.5 -35.5q72 0 125 35.5t53 91.5q0 79 -94 102l-173 44q-98 24 -98 109q0 60 50 97.5t128 37.5q82 0 131 -41.5t49 -105.5v-13h-13v12q0 61 -46 99t-121 38q-72 0 -118.5 -34.5t-46.5 -89.5q0 -76 88 -98l173 -44q104 -26 104 -113
q0 -59 -54.5 -97.5t-131.5 -40.5l-10 -46l30 -2q35 -2 56 -18t21 -45q0 -28 -23 -45.5t-61 -17.5q-32 0 -65 7v11q33 -7 65 -7q31 0 51 14t20 38q0 47 -68 52l-42 3l14 56q-81 2 -136.5 40.5t-55.5 104.5v12z" />
    <glyph glyph-name="Scaron" unicode="&#x160;" horiz-adv-x="649" 
d="M83 203h14v-17q0 -86 67.5 -137t165.5 -51t164 48.5t66 132.5q0 54 -33 91.5t-94 53.5l-218 57q-125 32 -125 151q0 84 62.5 133t164.5 49q103 0 169.5 -53.5t66.5 -137.5v-18h-13v18q0 79 -62.5 129t-160.5 50q-96 0 -154.5 -44.5t-58.5 -125.5q0 -58 28 -91t87 -48
l215 -57q140 -37 140 -157q0 -90 -70.5 -141.5t-173.5 -51.5q-107 0 -177 55t-70 145v17zM317 766l-110 112h17l100 -103l100 103h17l-110 -112h-14z" />
    <glyph glyph-name="scaron" unicode="&#x161;" horiz-adv-x="522" 
d="M70 145h13v-12q0 -63 54.5 -98.5t131.5 -35.5q74 0 126 35.5t52 91.5q0 79 -94 102l-173 44q-98 24 -98 109q0 60 50 97.5t128 37.5q82 0 131 -41.5t49 -105.5v-13h-13v12q0 61 -46 99t-121 38q-72 0 -118.5 -34.5t-46.5 -89.5q0 -76 88 -98l173 -44q104 -26 104 -113
q0 -60 -56 -99t-135 -39q-84 0 -141.5 38.5t-57.5 106.5v12zM256 585l-109 129h15l101 -120l101 120h15l-109 -129h-14z" />
    <glyph glyph-name="Tcommaaccent" unicode="&#x162;" horiz-adv-x="539" 
d="M262 0v687h-232v13h479v-13h-232v-687h-15zM217 -250l45 163h14l-48 -163h-11z" />
    <glyph glyph-name="Tcommaaccent" unicode="&#x21a;" horiz-adv-x="539" 
d="M262 0v687h-232v13h479v-13h-232v-687h-15zM217 -250l45 163h14l-48 -163h-11z" />
    <glyph glyph-name="tcommaaccent" unicode="&#x163;" horiz-adv-x="358" 
d="M143 127v365h-100v12h100v147h14v-147h151v-12h-151v-365q0 -61 26.5 -88t87.5 -27h37v-12h-37q-69 0 -98.5 31.5t-29.5 95.5zM173 -250l45 163h14l-48 -163h-11z" />
    <glyph glyph-name="tcommaaccent" unicode="&#x21b;" horiz-adv-x="358" 
d="M143 127v365h-100v12h100v147h14v-147h151v-12h-151v-365q0 -61 26.5 -88t87.5 -27h37v-12h-37q-69 0 -98.5 31.5t-29.5 95.5zM173 -250l45 163h14l-48 -163h-11z" />
    <glyph glyph-name="Tcaron" unicode="&#x164;" horiz-adv-x="539" 
d="M262 0v687h-232v13h479v-13h-232v-687h-15zM262 766l-110 112h17l100 -103l100 103h17l-110 -112h-14z" />
    <glyph glyph-name="tcaron" unicode="&#x165;" horiz-adv-x="369" 
d="M264 603l30 127h15l-33 -127h-12zM143 127v365h-100v12h100v147h14v-147h151v-12h-151v-365q0 -61 26.5 -88t87.5 -27h37v-12h-37q-69 0 -98.5 31.5t-29.5 95.5z" />
    <glyph glyph-name="Tbar" unicode="&#x166;" horiz-adv-x="539" 
d="M262 0v336h-168v12h168v339h-232v13h479v-13h-232v-339h168v-12h-168v-336h-15z" />
    <glyph glyph-name="tbar" unicode="&#x167;" horiz-adv-x="358" 
d="M143 127v135h-100v11h100v219h-100v12h100v147h14v-147h151v-12h-151v-219h131v-11h-131v-135q0 -61 26.5 -88t87.5 -27h37v-12h-37q-69 0 -98.5 31.5t-29.5 95.5z" />
    <glyph glyph-name="Utilde" unicode="&#x168;" horiz-adv-x="696" 
d="M98 218v482h15v-485q0 -93 65.5 -154.5t169.5 -61.5t169.5 61.5t65.5 154.5v485h15v-482q0 -101 -68.5 -166.5t-181.5 -65.5t-181.5 65.5t-68.5 166.5zM200 771l-11 3q8 41 25 66t51 25q33 0 89 -40t77 -40q15 0 25.5 6.5t17 21t9.5 24.5t8 31l11 -3q-6 -27 -11.5 -42.5
t-21 -32t-38.5 -16.5q-25 0 -80 40t-86 40q-30 0 -43.5 -21.5t-21.5 -61.5z" />
    <glyph glyph-name="utilde" unicode="&#x169;" horiz-adv-x="572" 
d="M463 504h14v-504h-13v128q-14 -61 -63.5 -100.5t-123.5 -39.5q-86 0 -136.5 56t-50.5 151v309h14v-307q0 -90 46 -143t128 -53q84 0 134.5 55.5t50.5 155.5v292zM153 601l-11 2q16 92 76 92q32 0 83.5 -40.5t72.5 -40.5q20 0 33 14t18 29.5t9 40.5l11 -2q-5 -21 -8.5 -33
t-11.5 -27.5t-20.5 -23.5t-30.5 -8q-25 0 -76.5 40.5t-79.5 40.5q-30 0 -43.5 -22.5t-21.5 -61.5z" />
    <glyph glyph-name="Umacron" unicode="&#x16a;" horiz-adv-x="696" 
d="M98 218v482h15v-485q0 -93 65.5 -154.5t169.5 -61.5t169.5 61.5t65.5 154.5v485h15v-482q0 -101 -68.5 -166.5t-181.5 -65.5t-181.5 65.5t-68.5 166.5zM213 821v12h270v-12h-270z" />
    <glyph glyph-name="umacron" unicode="&#x16b;" horiz-adv-x="572" 
d="M463 504h14v-504h-13v128q-14 -61 -63.5 -100.5t-123.5 -39.5q-86 0 -136.5 56t-50.5 151v309h14v-307q0 -90 46 -143t128 -53q84 0 134.5 55.5t50.5 155.5v292zM154 639v12h276v-12h-276z" />
    <glyph glyph-name="Ubreve" unicode="&#x16c;" horiz-adv-x="696" 
d="M98 218v482h15v-485q0 -93 65.5 -154.5t169.5 -61.5t169.5 61.5t65.5 154.5v485h15v-482q0 -101 -68.5 -166.5t-181.5 -65.5t-181.5 65.5t-68.5 166.5zM348 766q-69 0 -105.5 32.5t-36.5 79.5h13q0 -44 33 -72.5t96 -28.5t96 28.5t33 72.5h13q0 -47 -36.5 -79.5
t-105.5 -32.5z" />
    <glyph glyph-name="ubreve" unicode="&#x16d;" horiz-adv-x="572" 
d="M463 504h14v-504h-13v128q-14 -61 -63.5 -100.5t-123.5 -39.5q-86 0 -136.5 56t-50.5 151v309h14v-307q0 -90 46 -143t128 -53q84 0 134.5 55.5t50.5 155.5v292zM290 585q-67 0 -102 37t-35 92h13q0 -53 31.5 -85.5t92.5 -32.5t92.5 32.5t31.5 85.5h13q0 -55 -35 -92
t-102 -37z" />
    <glyph glyph-name="Uring" unicode="&#x16e;" horiz-adv-x="696" 
d="M98 218v482h15v-485q0 -93 65.5 -154.5t169.5 -61.5t169.5 61.5t65.5 154.5v485h15v-482q0 -101 -68.5 -166.5t-181.5 -65.5t-181.5 65.5t-68.5 166.5zM270 842q0 32 21.5 54t56.5 22t56.5 -22t21.5 -54t-21.5 -54t-56.5 -22t-56.5 22t-21.5 54zM283 842q0 -28 18 -46.5
t47 -18.5t47 18.5t18 46.5t-18 46.5t-47 18.5t-47 -18.5t-18 -46.5z" />
    <glyph glyph-name="uring" unicode="&#x16f;" horiz-adv-x="572" 
d="M463 504h14v-504h-13v128q-14 -61 -63.5 -100.5t-123.5 -39.5q-86 0 -136.5 56t-50.5 151v309h14v-307q0 -90 46 -143t128 -53q84 0 134.5 55.5t50.5 155.5v292zM209 661q0 32 21.5 54t56.5 22t56.5 -22t21.5 -54t-21.5 -54t-56.5 -22t-56.5 22t-21.5 54zM222 661
q0 -28 18 -46.5t47 -18.5t47 18.5t18 46.5t-18 46.5t-47 18.5t-47 -18.5t-18 -46.5z" />
    <glyph glyph-name="Uhungarumlaut" unicode="&#x170;" horiz-adv-x="696" 
d="M98 218v482h15v-485q0 -93 65.5 -154.5t169.5 -61.5t169.5 61.5t65.5 154.5v485h15v-482q0 -101 -68.5 -166.5t-181.5 -65.5t-181.5 65.5t-68.5 166.5zM256 766h-14l65 112h16zM458 766h-14l65 112h16z" />
    <glyph glyph-name="uhungarumlaut" unicode="&#x171;" horiz-adv-x="572" 
d="M463 504h14v-504h-13v128q-14 -61 -63.5 -100.5t-123.5 -39.5q-86 0 -136.5 56t-50.5 151v309h14v-307q0 -90 46 -143t128 -53q84 0 134.5 55.5t50.5 155.5v292zM209 585h-14l75 129h16zM376 585h-14l75 129h16z" />
    <glyph glyph-name="Uogonek" unicode="&#x172;" horiz-adv-x="696" 
d="M330 -115q0 36 25 64.5t59 43.5q-35 -7 -66 -7q-113 0 -181.5 65.5t-68.5 166.5v482h15v-485q0 -93 65.5 -154.5t169.5 -61.5t169.5 61.5t65.5 154.5v485h15v-482q0 -72 -38.5 -128.5t-103.5 -84.5q-113 -50 -113 -121q0 -27 17 -43t47 -16q15 0 37 4v-11q-18 -4 -36 -4
q-38 0 -58 19.5t-20 51.5z" />
    <glyph glyph-name="uogonek" unicode="&#x173;" horiz-adv-x="572" 
d="M363 -115q0 72 101 115v128q-14 -61 -63.5 -100.5t-123.5 -39.5q-86 0 -136.5 56t-50.5 151v309h14v-307q0 -90 46 -143t128 -53q84 0 134.5 55.5t50.5 155.5v292h14v-504q-101 -53 -101 -116q0 -27 17 -43t47 -16q15 0 37 4v-11q-18 -4 -36 -4q-37 0 -57.5 19.5
t-20.5 51.5z" />
    <glyph glyph-name="Wcircumflex" unicode="&#x174;" horiz-adv-x="877" 
d="M837 700l-165 -700h-15l-219 687l-218 -687h-15l-165 700h14l159 -683l216 683h18l217 -683l159 683h14zM321 766l110 112h14l110 -112h-17l-100 103l-100 -103h-17z" />
    <glyph glyph-name="wcircumflex" unicode="&#x175;" horiz-adv-x="728" 
d="M685 504l-144 -504h-16l-161 487l-161 -487h-16l-144 504h14l138 -488l162 488h14l162 -488l138 488h14zM248 585l109 129h14l109 -129h-15l-101 120l-101 -120h-15z" />
    <glyph glyph-name="Ycircumflex" unicode="&#x176;" horiz-adv-x="568" 
d="M291 278v-278h-14v278l-259 422h16l250 -408l250 408h16zM167 766l110 112h14l110 -112h-17l-100 103l-100 -103h-17z" />
    <glyph glyph-name="ycircumflex" unicode="&#x177;" horiz-adv-x="490" 
d="M177 -174h-13l73 180l-197 498h15l189 -485l191 485h15zM133 585l109 129h14l109 -129h-15l-101 120l-101 -120h-15z" />
    <glyph glyph-name="Ydieresis" unicode="&#x178;" horiz-adv-x="568" 
d="M291 278v-278h-14v278l-259 422h16l250 -408l250 408h16zM158 826q0 14 14 14t14 -14t-14 -14t-14 14zM382 826q0 14 14 14t14 -14t-14 -14t-14 14z" />
    <glyph glyph-name="Zacute" unicode="&#x179;" horiz-adv-x="607" 
d="M70 0v13l441 674h-421v13h436v-13l-441 -674h454v-13h-469zM299 766h-14l76 112h16z" />
    <glyph glyph-name="zacute" unicode="&#x17a;" horiz-adv-x="485" 
d="M65 0v12l342 480h-328v12h343v-12l-342 -480h345v-12h-360zM248 585h-14l89 129h16z" />
    <glyph glyph-name="Zdotaccent" unicode="&#x17b;" horiz-adv-x="607" 
d="M70 0v13l441 674h-421v13h436v-13l-441 -674h454v-13h-469zM287 830q0 14 14 14t14 -14t-14 -14t-14 14z" />
    <glyph glyph-name="zdotaccent" unicode="&#x17c;" horiz-adv-x="485" 
d="M65 0v12l342 480h-328v12h343v-12l-342 -480h345v-12h-360zM237 650q0 14 14 14t14 -14t-14 -14t-14 14z" />
    <glyph glyph-name="Zcaron" unicode="&#x17d;" horiz-adv-x="607" 
d="M70 0v13l441 674h-421v13h436v-13l-441 -674h454v-13h-469zM307 766l-110 112h17l100 -103l100 103h17l-110 -112h-14z" />
    <glyph glyph-name="zcaron" unicode="&#x17e;" horiz-adv-x="485" 
d="M65 0v12l342 480h-328v12h343v-12l-342 -480h345v-12h-360zM245 585l-109 129h15l101 -120l101 120h15l-109 -129h-14z" />
    <glyph glyph-name="florin" unicode="&#x192;" horiz-adv-x="511" 
d="M50 -162h53q92 0 102 105l38 434h-117v12h118l17 193q6 65 33.5 91.5t89.5 26.5h52v-12h-51q-55 0 -80 -23t-30 -83l-17 -193h139v-12h-140l-38 -434q-10 -117 -116 -117h-53v12z" />
    <glyph glyph-name="Aringacute" unicode="&#x1fa;" horiz-adv-x="646" 
d="M581 0l-79 210h-358l-79 -210h-15l262 690q-30 4 -48.5 23.5t-18.5 46.5q0 30 21.5 50.5t56.5 20.5t56.5 -20.5t21.5 -50.5q0 -27 -18.5 -46.5t-48.5 -23.5l262 -690h-15zM323 687l-175 -465h349zM258 760q0 -26 18 -43t47 -17t47 17t18 43t-18 43t-47 17t-47 -17
t-18 -43zM336 876h-14l64 94h16z" />
    <glyph glyph-name="aringacute" unicode="&#x1fb;" horiz-adv-x="556" 
d="M301 756h-14l64 94h16zM210 640q0 30 21.5 50.5t56.5 20.5t56.5 -20.5t21.5 -50.5t-21.5 -50.5t-56.5 -20.5t-56.5 20.5t-21.5 50.5zM223 640q0 -26 18 -43t47 -17t47 17t18 43t-18 43t-47 17t-47 -17t-18 -43zM468 0h-13v92q-19 -42 -71 -73t-130 -31q-82 0 -137 43
t-55 112q0 74 54 116.5t142 42.5q73 0 124.5 -29t71.5 -72v131q0 77 -46.5 124.5t-123.5 47.5q-66 0 -109.5 -29.5t-60.5 -81.5h-13q17 59 65 91t118 32q83 0 133.5 -51.5t50.5 -129.5v-335zM254 -1q48 0 92 14.5t76 49.5t32 84q0 65 -57.5 104t-137.5 39
q-85 0 -134.5 -39.5t-49.5 -107.5q0 -63 51 -103.5t128 -40.5z" />
    <glyph glyph-name="AEacute" unicode="&#x1fc;" horiz-adv-x="1009" 
d="M546 766h-14l76 112h16zM516 0v219h-326l-151 -219h-17l485 700h441v-13h-417v-325h388v-13h-388v-336h418v-13h-433zM199 231h317v457z" />
    <glyph glyph-name="aeacute" unicode="&#x1fd;" horiz-adv-x="934" 
d="M474 585h-14l89 129h16zM862 242h-394v-43q0 -90 55 -144.5t140 -54.5q68 0 118 37.5t61 99.5h14q-12 -66 -65.5 -107.5t-127.5 -41.5q-71 0 -124 37t-73 100q-12 -65 -71.5 -101t-140.5 -36q-83 0 -137.5 43t-54.5 112q0 74 54 116.5t142 42.5q73 0 124.5 -29t71.5 -72
v131q0 77 -46.5 124.5t-123.5 47.5q-66 0 -110 -29.5t-60 -81.5h-13q16 58 64 90.5t119 32.5q72 0 120.5 -39.5t59.5 -103.5q42 143 197 143q92 0 146.5 -62t54.5 -153v-59zM254 -1q78 0 139 38t61 110q0 65 -57.5 104t-137.5 39q-85 0 -134.5 -39.5t-49.5 -107.5
q0 -64 50.5 -104t128.5 -40zM468 294v-40h381v45q0 87 -50.5 146t-137.5 59q-89 0 -141 -56t-52 -154z" />
    <glyph glyph-name="Oslashacute" unicode="&#x1fe;" horiz-adv-x="722" 
d="M357 766h-14l76 112h16zM85 286v128q0 129 71 214.5t205 85.5q117 0 190 -71l72 107h14l-78 -115q78 -84 78 -221v-128q0 -129 -71 -214.5t-205 -85.5q-117 0 -190 70l-72 -106h-14l77 115q-77 81 -77 221zM361 701q-128 0 -194.5 -82.5t-66.5 -204.5v-128
q0 -132 70 -209l373 554q-68 70 -182 70zM622 414q0 129 -71 209l-372 -555q67 -69 182 -69q128 0 194.5 82.5t66.5 204.5v128z" />
    <glyph glyph-name="oslashacute" unicode="&#x1ff;" horiz-adv-x="558" 
d="M271 585h-14l89 129h16zM490 302v-100q0 -91 -58 -152.5t-153 -61.5q-83 0 -140 49l-58 -87h-13l63 94q-63 60 -63 158v100q0 91 58 152.5t153 61.5q82 0 139 -49l59 88h13l-64 -95q64 -61 64 -158zM279 0q88 0 142.5 58.5t54.5 144.5v98q0 91 -58 149l-272 -402
q53 -48 133 -48zM82 203q0 -92 56 -148l272 402q-52 47 -131 47q-88 0 -142.5 -58.5t-54.5 -144.5v-98z" />
    <glyph glyph-name="Scommaaccent" unicode="&#x218;" horiz-adv-x="649" 
d="M83 203h14v-17q0 -86 67.5 -137t165.5 -51t164 48.5t66 132.5q0 54 -33 91.5t-94 53.5l-218 57q-125 32 -125 151q0 84 62.5 133t164.5 49q103 0 169.5 -53.5t66.5 -137.5v-18h-13v18q0 79 -62.5 129t-160.5 50q-96 0 -154.5 -44.5t-58.5 -125.5q0 -58 28 -91t87 -48
l215 -57q140 -37 140 -157q0 -90 -70.5 -141.5t-173.5 -51.5q-107 0 -177 55t-70 145v17zM291 -250l45 163h14l-48 -163h-11z" />
    <glyph glyph-name="scommaaccent" unicode="&#x219;" horiz-adv-x="522" 
d="M70 145h13v-12q0 -63 54.5 -98.5t131.5 -35.5q74 0 126 35.5t52 91.5q0 79 -94 102l-173 44q-98 24 -98 109q0 60 50 97.5t128 37.5q82 0 131 -41.5t49 -105.5v-13h-13v12q0 61 -46 99t-121 38q-72 0 -118.5 -34.5t-46.5 -89.5q0 -76 88 -98l173 -44q104 -26 104 -113
q0 -60 -56 -99t-135 -39q-84 0 -141.5 38.5t-57.5 106.5v12zM221 -250l45 163h14l-48 -163h-11z" />
    <glyph glyph-name="circumflex" unicode="&#x2c6;" horiz-adv-x="442" 
d="M105 585l109 129h14l109 -129h-15l-101 120l-101 -120h-15z" />
    <glyph glyph-name="caron" unicode="&#x2c7;" horiz-adv-x="442" 
d="M214 585l-109 129h15l101 -120l101 120h15l-109 -129h-14z" />
    <glyph glyph-name="breve" unicode="&#x2d8;" horiz-adv-x="484" 
d="M242 585q-67 0 -102 37t-35 92h13q0 -53 31.5 -85.5t92.5 -32.5t92.5 32.5t31.5 85.5h13q0 -55 -35 -92t-102 -37z" />
    <glyph glyph-name="dotaccent" unicode="&#x2d9;" horiz-adv-x="224" 
d="M98 650q0 14 14 14t14 -14t-14 -14t-14 14z" />
    <glyph glyph-name="ring" unicode="&#x2da;" horiz-adv-x="366" 
d="M105 661q0 32 21.5 54t56.5 22t56.5 -22t21.5 -54t-21.5 -54t-56.5 -22t-56.5 22t-21.5 54zM118 661q0 -28 18 -46.5t47 -18.5t47 18.5t18 46.5t-18 46.5t-47 18.5t-47 -18.5t-18 -46.5z" />
    <glyph glyph-name="ogonek" unicode="&#x2db;" horiz-adv-x="324" 
d="M105 -115q0 39 35 72t66 43h13q-101 -52 -101 -116q0 -27 17 -43t47 -16q15 0 37 4v-11q-18 -4 -36 -4q-37 0 -57.5 19.5t-20.5 51.5z" />
    <glyph glyph-name="tilde" unicode="&#x2dc;" horiz-adv-x="513" 
d="M116 601l-11 2q16 92 76 92q32 0 83.5 -40.5t72.5 -40.5q20 0 33 14t18 29.5t9 40.5l11 -2q-5 -21 -8.5 -33t-11.5 -27.5t-20.5 -23.5t-30.5 -8q-25 0 -76.5 40.5t-79.5 40.5q-30 0 -43.5 -22.5t-21.5 -61.5z" />
    <glyph glyph-name="hungarumlaut" unicode="&#x2dd;" horiz-adv-x="468" 
d="M119 585h-14l75 129h16zM286 585h-14l75 129h16z" />
    <glyph glyph-name="uni0312" unicode="&#x312;" horiz-adv-x="255" 
d="M150 714l-30 -129h-15l33 129h12z" />
    <glyph glyph-name="uni0315" unicode="&#x315;" horiz-adv-x="266" 
d="M105 562l40 168h16l-43 -168h-13z" />
    <glyph glyph-name="uni0326" unicode="&#x326;" horiz-adv-x="269" 
d="M105 -250l45 163h14l-48 -163h-11z" />
    <glyph glyph-name="Omega" unicode="&#x3a9;" horiz-adv-x="722" 
d="M632 404v-64q0 -94 -39 -184t-96 -143h127v-13h-144v13q62 58 100 145t38 181v66q0 138 -66.5 217.5t-190.5 79.5t-190.5 -79.5t-66.5 -217.5v-66q0 -94 38 -181t100 -145v-13h-144v13h127q-57 53 -96 143t-39 184v64q0 146 70 228t201 82t201 -82t70 -228z" />
    <glyph glyph-name="pi" unicode="&#x3c0;" horiz-adv-x="723" 
d="M490 492h-282v-492h-14v492h-119v12h573v-12h-144v-368q0 -112 95 -112h49v-12h-49q-109 0 -109 123v369z" />
    <glyph glyph-name="Wgrave" unicode="&#x1e80;" horiz-adv-x="877" 
d="M837 700l-165 -700h-15l-219 687l-218 -687h-15l-165 700h14l159 -683l216 683h18l217 -683l159 683h14zM444 766h-14l-78 112h16z" />
    <glyph glyph-name="wgrave" unicode="&#x1e81;" horiz-adv-x="728" 
d="M685 504l-144 -504h-16l-161 487l-161 -487h-16l-144 504h14l138 -488l162 488h14l162 -488l138 488h14zM371 585h-14l-91 129h16z" />
    <glyph glyph-name="Wacute" unicode="&#x1e82;" horiz-adv-x="877" 
d="M837 700l-165 -700h-15l-219 687l-218 -687h-15l-165 700h14l159 -683l216 683h18l217 -683l159 683h14zM445 766h-14l76 112h16z" />
    <glyph glyph-name="wacute" unicode="&#x1e83;" horiz-adv-x="728" 
d="M685 504l-144 -504h-16l-161 487l-161 -487h-16l-144 504h14l138 -488l162 488h14l162 -488l138 488h14zM371 585h-14l89 129h16z" />
    <glyph glyph-name="Wdieresis" unicode="&#x1e84;" horiz-adv-x="877" 
d="M837 700l-165 -700h-15l-219 687l-218 -687h-15l-165 700h14l159 -683l216 683h18l217 -683l159 683h14zM312 826q0 14 14 14t14 -14t-14 -14t-14 14zM536 826q0 14 14 14t14 -14t-14 -14t-14 14z" />
    <glyph glyph-name="wdieresis" unicode="&#x1e85;" horiz-adv-x="728" 
d="M685 504l-144 -504h-16l-161 487l-161 -487h-16l-144 504h14l138 -488l162 488h14l162 -488l138 488h14zM253 650q0 14 14 14t14 -14t-14 -14t-14 14zM447 650q0 14 14 14t14 -14t-14 -14t-14 14z" />
    <glyph glyph-name="Ygrave" unicode="&#x1ef2;" horiz-adv-x="568" 
d="M291 278v-278h-14v278l-259 422h16l250 -408l250 408h16zM290 766h-14l-78 112h16z" />
    <glyph glyph-name="ygrave" unicode="&#x1ef3;" horiz-adv-x="490" 
d="M177 -174h-13l73 180l-197 498h15l189 -485l191 485h15zM256 585h-14l-91 129h16z" />
    <glyph glyph-name="endash" unicode="&#x2013;" horiz-adv-x="611" 
d="M531 299h-451v11h451v-11z" />
    <glyph glyph-name="emdash" unicode="&#x2014;" horiz-adv-x="910" 
d="M830 299h-750v11h750v-11z" />
    <glyph glyph-name="quoteleft" unicode="&#x2018;" horiz-adv-x="185" 
d="M120 700l-45 -182h-15l48 182h12z" />
    <glyph glyph-name="quoteright" unicode="&#x2019;" horiz-adv-x="185" 
d="M65 518l45 182h15l-48 -182h-12z" />
    <glyph glyph-name="quotesinglbase" unicode="&#x201a;" horiz-adv-x="204" 
d="M45 -99l45 182h15l-48 -182h-12z" />
    <glyph glyph-name="quotedblleft" unicode="&#x201c;" horiz-adv-x="350" 
d="M285 700l-45 -182h-15l48 182h12zM120 700l-45 -182h-15l48 182h12z" />
    <glyph glyph-name="quotedblright" unicode="&#x201d;" horiz-adv-x="350" 
d="M65 518l45 182h15l-48 -182h-12zM230 518l45 182h15l-48 -182h-12z" />
    <glyph glyph-name="quotedblbase" unicode="&#x201e;" horiz-adv-x="369" 
d="M45 -99l45 182h15l-48 -182h-12zM210 -99l45 182h15l-48 -182h-12z" />
    <glyph glyph-name="dagger" unicode="&#x2020;" horiz-adv-x="498" 
d="M243 700h12v-196h158v-10h-158v-594h-12v594h-158v10h158v196z" />
    <glyph glyph-name="daggerdbl" unicode="&#x2021;" horiz-adv-x="508" 
d="M260 -100h-12v196h-158v10h158v388h-158v10h158v196h12v-196h158v-10h-158v-388h158v-10h-158v-196z" />
    <glyph glyph-name="bullet" unicode="&#x2022;" horiz-adv-x="408" 
d="M204 453q44 0 71.5 -27.5t27.5 -69.5t-27.5 -69.5t-71.5 -27.5t-71.5 27.5t-27.5 69.5t27.5 69.5t71.5 27.5z" />
    <glyph glyph-name="ellipsis" unicode="&#x2026;" horiz-adv-x="612" 
d="M88 12q0 14 14 14t14 -14t-14 -14t-14 14zM292 12q0 14 14 14t14 -14t-14 -14t-14 14zM496 12q0 14 14 14t14 -14t-14 -14t-14 14z" />
    <glyph glyph-name="perthousand" unicode="&#x2030;" horiz-adv-x="1181" 
d="M219 0l366 700h13l-366 -700h-13zM351 562v-91q0 -66 -37.5 -105t-100.5 -39t-100.5 39.5t-37.5 104.5v91q0 65 37.5 104.5t100.5 39.5t100.5 -39t37.5 -105zM339 469v95q0 59 -34 95.5t-92 36.5t-92 -36.5t-34 -95.5v-95q0 -59 34 -95.5t92 -36.5t92 36.5t34 95.5z
M741 229v-91q0 -66 -37.5 -105t-100.5 -39t-100.5 39.5t-37.5 104.5v91q0 65 37.5 104.5t100.5 39.5t100.5 -39t37.5 -105zM729 136v95q0 59 -34 95.5t-92 36.5t-92 -36.5t-34 -95.5v-95q0 -59 34 -95.5t92 -36.5t92 36.5t34 95.5zM1111 229v-91q0 -66 -37.5 -105
t-100.5 -39t-100.5 39.5t-37.5 104.5v91q0 65 37.5 104.5t100.5 39.5t100.5 -39t37.5 -105zM1099 136v95q0 59 -34 95.5t-92 36.5t-92 -36.5t-34 -95.5v-95q0 -59 34 -95.5t92 -36.5t92 36.5t34 95.5z" />
    <glyph glyph-name="guilsinglleft" unicode="&#x2039;" horiz-adv-x="317" 
d="M232 60l-182 208l182 208h15l-182 -208l182 -208h-15z" />
    <glyph glyph-name="guilsinglright" unicode="&#x203a;" horiz-adv-x="317" 
d="M267 268l-182 -208h-15l182 208l-182 208h15z" />
    <glyph glyph-name="fraction" unicode="&#x2044;" horiz-adv-x="369" 
d="M3 0h-13l376 700h13z" />
    <glyph glyph-name="Euro" unicode="&#x20ac;" horiz-adv-x="670" 
d="M50 434v11h97v45q0 95 61 159.5t162 64.5q92 0 153 -60t67 -147h-12q-6 83 -64 139t-144 56q-96 0 -153.5 -61.5t-57.5 -154.5v-41h251v-11h-251v-168h251v-11h-251v-41q0 -93 57.5 -154.5t153.5 -61.5q86 0 144 56t64 139h12q-6 -87 -67 -147t-153 -60q-101 0 -162 64.5
t-61 159.5v45h-97v11h97v168h-97z" />
    <glyph glyph-name="published" unicode="&#x2117;" horiz-adv-x="884" 
d="M468 312h-114v-139h-12v354h126q50 0 80.5 -31t30.5 -77t-30.5 -76.5t-80.5 -30.5zM354 322h111q49 0 75.5 28.5t26.5 68.5t-26.5 69t-75.5 29h-111v-195zM85 350q0 150 99.5 256t257.5 106t257.5 -106t99.5 -256t-99.5 -256t-257.5 -106t-257.5 106t-99.5 256zM95 350
q0 -146 96 -249.5t251 -103.5t251 103.5t96 249.5t-96 249.5t-251 103.5t-251 -103.5t-96 -249.5z" />
    <glyph glyph-name="trademark" unicode="&#x2122;" horiz-adv-x="638" 
d="M160 420v272h-95v8h200v-8h-95v-272h-10zM440 499l101 201h12v-280h-10v263l-98 -193h-10l-98 193v-263h-10v280h12z" />
    <glyph glyph-name="partialdiff" unicode="&#x2202;" horiz-adv-x="583" 
d="M132 689v11h12q81 0 144 -23t104 -62t67.5 -94t37.5 -115t11 -129v-64q0 -96 -61.5 -161.5t-159.5 -65.5q-92 0 -153 63.5t-61 155.5v29q0 99 59 161.5t157 62.5q76 0 133.5 -49t73.5 -110q-2 63 -13.5 117t-37 105.5t-64.5 87.5t-99.5 58t-137.5 22h-12zM494 212v28
q0 80 -60 143t-144 63q-93 0 -148 -58t-55 -154v-28q0 -90 57.5 -149t142.5 -59q92 0 149.5 61t57.5 153z" />
    <glyph glyph-name="Delta" unicode="&#x2206;" horiz-adv-x="666" 
d="M339 700l252 -690v-10h-516v10l252 690h12zM90 12h486l-243 674z" />
    <glyph glyph-name="product" unicode="&#x220f;" horiz-adv-x="774" 
d="M207 -174v862h-137v12h634v-12h-137v-862h-14v862h-332v-862h-14z" />
    <glyph glyph-name="summation" unicode="&#x2211;" horiz-adv-x="615" 
d="M90 -162l263 425l-263 425v12h445v-12h-429l262 -425l-262 -425h429v-12h-445v12z" />
    <glyph glyph-name="minus" unicode="&#x2212;" horiz-adv-x="596" 
d="M90 355v10h416v-10h-416z" />
    <glyph glyph-name="radical" unicode="&#x221a;" horiz-adv-x="669" 
d="M75 293v12h144l139 -396l213 841h13l-215 -850h-21l-139 393h-134z" />
    <glyph glyph-name="infinity" unicode="&#x221e;" horiz-adv-x="862" 
d="M624 210q-65 0 -116.5 42.5t-76.5 95.5q-26 -53 -77.5 -95.5t-115.5 -42.5q-65 0 -108 41.5t-43 108.5t43 108.5t108 41.5t116 -42.5t77 -96.5q25 54 76.5 96.5t116.5 42.5t108 -41.5t43 -108.5t-43 -108.5t-108 -41.5zM624 500q-64 0 -113.5 -42.5t-73.5 -97.5
q24 -55 73.5 -97.5t113.5 -42.5q58 0 98.5 38.5t40.5 101.5t-40.5 101.5t-98.5 38.5zM238 500q-58 0 -98.5 -38.5t-40.5 -101.5t40.5 -101.5t98.5 -38.5q64 0 113.5 42.5t73.5 97.5q-24 55 -73.5 97.5t-113.5 42.5z" />
    <glyph glyph-name="integral" unicode="&#x222b;" horiz-adv-x="446" 
d="M211 -42v610q0 66 29 99t97 33h29v-12h-28q-62 1 -87.5 -29t-25.5 -92v-610q0 -65 -30 -98t-97 -33h-28v12h27q61 -1 87.5 29.5t26.5 90.5z" />
    <glyph glyph-name="approxequal" unicode="&#x2248;" horiz-adv-x="582" 
d="M97 248l-7 7q49 53 102 53q42 0 108 -35q63 -34 103 -34q52 0 87 40l7 -7q-37 -43 -94 -43q-40 0 -108 36q-63 33 -103 33q-47 0 -95 -50zM97 431l-7 7q49 53 102 53q42 0 108 -35q63 -34 103 -34q52 0 87 40l7 -7q-37 -43 -94 -43q-40 0 -108 36q-63 33 -103 33
q-47 0 -95 -50z" />
    <glyph glyph-name="notequal" unicode="&#x2260;" horiz-adv-x="620" 
d="M105 473v10h264l71 134h12l-71 -134h134v-10h-140l-119 -226h259v-10h-265l-70 -134h-12l71 134h-134v10h139l120 226h-259z" />
    <glyph glyph-name="lessequal" unicode="&#x2264;" horiz-adv-x="625" 
d="M90 366v10l430 210v-11l-418 -204l418 -204v-11zM90 0v10h430v-10h-430z" />
    <glyph glyph-name="greaterequal" unicode="&#x2265;" horiz-adv-x="625" 
d="M535 376v-10l-430 -210v11l418 204l-418 204v11zM535 10v-10h-430v10h430z" />
    <glyph glyph-name="lozenge" unicode="&#x25ca;" horiz-adv-x="634" 
d="M311 0l-231 350l231 350h12l231 -350l-231 -350h-12zM317 12l223 338l-223 338l-223 -338z" />
    <glyph glyph-name="apple" unicode="&#xf8ff;" horiz-adv-x="875" 
d="M125 163v362q0 74 50.5 124.5t124.5 50.5h350q74 0 124.5 -50t50.5 -124t-50.5 -124t-124.5 -50h-175v-189q0 -74 -50.5 -124.5t-124.5 -50.5t-124.5 50.5t-50.5 124.5z" />
    <glyph glyph-name="fi" unicode="&#xfb01;" horiz-adv-x="552" 
d="M136 0v492h-84v12h84v81q0 76 34 110.5t105 34.5h48v-12h-47q-67 0 -96.5 -31.5t-29.5 -101.5v-81h155v-12h-155v-492h-14zM452 0h-14v504h14v-504zM431 650q0 14 14 14t14 -14t-14 -14t-14 14z" />
    <glyph glyph-name="fl" unicode="&#xfb02;" horiz-adv-x="552" 
d="M136 0v492h-84v12h84v81q0 76 34 110.5t105 34.5h48v-12h-47q-67 0 -96.5 -31.5t-29.5 -101.5v-81h155v-12h-155v-492h-14zM452 0h-14v730h14v-730z" />
    <glyph glyph-name="grave.case" horiz-adv-x="302" 
d="M197 766h-14l-78 112h16z" />
    <glyph glyph-name="acute.case" horiz-adv-x="302" 
d="M119 766h-14l76 112h16z" />
    <glyph glyph-name="circumflex.case" horiz-adv-x="444" 
d="M105 766l110 112h14l110 -112h-17l-100 103l-100 -103h-17z" />
    <glyph glyph-name="tilde.case" horiz-adv-x="523" 
d="M116 771l-11 3q8 41 25 66t51 25q33 0 89 -40t77 -40q15 0 25.5 6.5t17 21t9.5 24.5t8 31l11 -3q-6 -27 -11.5 -42.5t-21 -32t-38.5 -16.5q-25 0 -80 40t-86 40q-30 0 -43.5 -21.5t-21.5 -61.5z" />
    <glyph glyph-name="dieresis.case" horiz-adv-x="453" 
d="M100 826q0 14 14 14t14 -14t-14 -14t-14 14zM324 826q0 14 14 14t14 -14t-14 -14t-14 14z" />
    <glyph glyph-name="macron.case" horiz-adv-x="480" 
d="M105 821v12h270v-12h-270z" />
    <glyph glyph-name="breve.case" horiz-adv-x="494" 
d="M247 766q-69 0 -105.5 32.5t-36.5 79.5h13q0 -44 33 -72.5t96 -28.5t96 28.5t33 72.5h13q0 -47 -36.5 -79.5t-105.5 -32.5z" />
    <glyph glyph-name="dotaccent.case" horiz-adv-x="224" 
d="M98 830q0 14 14 14t14 -14t-14 -14t-14 14z" />
    <glyph glyph-name="caron.case" horiz-adv-x="444" 
d="M215 766l-110 112h17l100 -103l100 103h17l-110 -112h-14z" />
    <glyph glyph-name="hungarumlaut.case" horiz-adv-x="493" 
d="M119 766h-14l65 112h16zM321 766h-14l65 112h16z" />
    <glyph glyph-name="ring.case" horiz-adv-x="366" 
d="M105 842q0 32 21.5 54t56.5 22t56.5 -22t21.5 -54t-21.5 -54t-56.5 -22t-56.5 22t-21.5 54zM118 842q0 -28 18 -46.5t47 -18.5t47 18.5t18 46.5t-18 46.5t-47 18.5t-47 -18.5t-18 -46.5z" />
    <glyph glyph-name="J.salt" horiz-adv-x="590" 
d="M125 688v12h365v-526q0 -82 -59.5 -135t-150.5 -53q-93 0 -151.5 52t-58.5 132v4h14v-4q0 -77 54.5 -124t141.5 -47q86 0 140.5 49t54.5 126v514h-350z" />
    <glyph glyph-name="IJ.salt" horiz-adv-x="825" 
d="M110 0v700h15v-700h-15zM360 688v12h365v-526q0 -82 -59.5 -135t-150.5 -53q-93 0 -151.5 52t-58.5 132v4h14v-4q0 -77 54.5 -124t141.5 -47q86 0 140.5 49t54.5 126v514h-350z" />
    <glyph glyph-name="Jcircumflex.salt" horiz-adv-x="590" 
d="M125 688v12h365v-526q0 -82 -59.5 -135t-150.5 -53q-93 0 -151.5 52t-58.5 132v4h14v-4q0 -77 54.5 -124t141.5 -47q86 0 140.5 49t54.5 126v514h-350zM196 766l110 112h14l110 -112h-17l-100 103l-100 -103h-17z" />
    <glyph glyph-name="ornm01.ornm" horiz-adv-x="1019" 
d="M115 344v12h551v-12h-551zM567 700h17l350 -350l-350 -350h-17l350 350z" />
    <glyph glyph-name="ornm02.ornm" horiz-adv-x="1019" 
d="M904 356v-12h-551v12h551zM435 700h17l-350 -350l350 -350h-17l-350 350z" />
    <glyph glyph-name="ornm03.ornm" horiz-adv-x="843" 
d="M123 118l-8 8l389 390l9 -9zM191 689l12 11h495v-494l-13 -12v495h-494z" />
    <glyph glyph-name="ornm04.ornm" horiz-adv-x="843" 
d="M728 126l-8 -8l-390 389l9 9zM640 700l12 -11h-494v-495l-13 12v494h495z" />
    <glyph glyph-name="ornm05.ornm" horiz-adv-x="843" 
d="M115 574l8 8l390 -389l-9 -9zM203 0l-12 11h494v495l13 -12v-494h-495z" />
    <glyph glyph-name="ornm06.ornm" horiz-adv-x="843" 
d="M720 582l8 -8l-389 -390l-9 9zM652 11l-12 -11h-495v494l13 12v-495h494z" />
    <glyph glyph-name="ornm07.ornm" horiz-adv-x="930" 
d="M472 -120h-14v566h14v-566zM815 364v-17l-350 350l-350 -350v17l350 350z" />
    <glyph glyph-name="ornm08.ornm" horiz-adv-x="930" 
d="M458 700h14v-566h-14v566zM815 233v-17l-350 -350l-350 350v17l350 -350z" />
    <glyph glyph-name="ornm09.ornm" horiz-adv-x="870" 
d="M105 292v12h431v-12h-431zM505 571h17l273 -273l-273 -273h-17l273 273z" />
    <glyph glyph-name="ornm10.ornm" horiz-adv-x="870" 
d="M765 304v-12h-431v12h431zM348 571h17l-273 -273l273 -273h-17l-273 273z" />
    <glyph glyph-name="ornm11.ornm" horiz-adv-x="733" 
d="M113 12l-8 8l305 305l8 -8zM199 492l12 12h387v-386l-13 -12v386h-386z" />
    <glyph glyph-name="ornm12.ornm" horiz-adv-x="733" 
d="M628 20l-8 -8l-305 305l8 8zM522 504l12 -12h-386v-386l-13 12v386h387z" />
    <glyph glyph-name="ornm13.ornm" horiz-adv-x="733" 
d="M105 484l8 8l305 -305l-8 -8zM211 0l-12 12h386v386l13 -12v-386h-387z" />
    <glyph glyph-name="ornm14.ornm" horiz-adv-x="733" 
d="M620 492l8 -8l-305 -305l-8 8zM534 12l-12 -12h-387v386l13 12v-386h386z" />
    <glyph glyph-name="ornm15.ornm" horiz-adv-x="776" 
d="M395 -100h-14v431h14v-431zM661 317v-17l-273 273l-273 -273v17l273 273z" />
    <glyph glyph-name="ornm16.ornm" horiz-adv-x="776" 
d="M381 580h14v-431h-14v431zM661 180v-17l-273 -273l-273 273v17l273 -273z" />
    <glyph glyph-name="ornm17.ornm" horiz-adv-x="806" 
d="M267 742h21q8 -7 12.5 -21t7 -33t3.5 -24q9 -5 40 -12t41 -17q21 14 44.5 14t46.5 -10q-5 -8 -3.5 -10t13.5 -2q0 -13 6 -23q2 1 7.5 9.5t15.5 4.5q7 -6 24.5 -17.5t24.5 -19.5q15 0 32 11.5t24 13.5q5 -16 37.5 -14.5t43.5 -10.5q3 0 11.5 1t15.5 1t11 -2
q-15 -17 -50 -30t-45 -20q-13 -8 -23.5 -19.5t-21.5 -26.5t-19 -24q-5 -5 -35 -28.5t-39 -39.5q0 -9 3 -31t2 -36q-5 -5 -19.5 -14t-22 -18.5t-8.5 -23.5q19 -21 20 -26q-10 -14 -10 -40t-2 -45q7 -5 33.5 -22.5t42 -31t25.5 -30.5q13 12 27.5 4t18.5 -21q-5 -24 -2 -58
h-481q0 159 6 233q-27 15 -35 41q2 2 13.5 10.5t12.5 17.5q5 19 -5 51.5t-11 39.5q-2 16 0 59.5t-2 63.5q-1 14 -11.5 39.5t-11.5 35.5q-1 14 2 38.5t2 41.5t-10 29q29 1 88.5 -1.5t86.5 -0.5q3 4 3.5 11t-0.5 18t-1 15z" />
    <glyph glyph-name="ornm18.ornm" horiz-adv-x="945" 
d="M79 111q-6 -1 -8 4.5t3 8.5q41 12 66 34l16 15q17 24 28 52q2 7 6 17.5t6.5 18t3.5 14.5l-2 58q-3 36 -3 41q0 31 11.5 54.5t34.5 39t33 20.5t32 14q69 23 138 23q23 0 69 -4l60 -4q9 0 21 2q6 1 11.5 6.5t9.5 12t8 16t6.5 16t5.5 15t3 9.5q9 32 41 68q1 2 2.5 18t4.5 20
q4 1 15 0t13 -2q3 0 28 -5q12 0 14 -3q2 -1 4.5 -5t5.5 -6q8 -1 12 -6q1 -3 13 -15q8 -8 8 -16q0 -5 25 -21q5 -4 11 -7.5t13 -8t12 -7.5q17 -8 14 -18q-3 -7 -20 -12.5t-27 -5.5q-9 0 -24 3q-40 10 -55 1q-3 -1 -8.5 -13t-6.5 -17q-3 -31 -7 -50q-5 -21 -14.5 -51.5
t-10.5 -36.5q-1 -5 -2.5 -16.5t-3.5 -22t-5 -19.5q-18 -31 -19 -34q-5 -7 -13 -55t-10 -73q-5 -46 -3 -109q0 -8 9.5 -20t17.5 -11q5 0 9 -1.5t5 -2.5l2 -2q2 -2 1.5 -9t-3.5 -8l-4 -2l-20 1l6 -10l-4 -4h-42q-5 2 -12 15q0 1 -2 9t-4 18t-3 13q-2 4 -6 7t-4 5t1.5 13
t1.5 24q0 2 -3 5t-5 7q-1 3 -1 23v44t-1 34q0 4 -2.5 25.5t-2.5 29.5q-2 8 0.5 15.5t2.5 8.5q-1 4 -5 5t-13 0t-12 -1q-49 0 -95 34q-12 9 -26.5 25.5t-25.5 26.5t-22 10q-26 0 -41 -17q-8 -7 -16 -35q-1 -4 -1 -21q-1 -13 -10 -48q-3 -12 -14 -43q-2 -6 -8.5 -15.5
t-11.5 -16.5l-5 -6q-4 -5 -10.5 -11.5t-10.5 -11t-4 -7.5q-3 -4 -5.5 -11.5t-3.5 -12.5l-1 -5q-1 -54 0 -62q0 -6 1.5 -10.5t1.5 -5.5q3 -2 7 -5t7 -5q12 -3 13 -6q2 -12 -4 -14h-26q-7 2 -14 7l-10 9q-1 1 -2.5 16t-3 31.5t-1.5 17.5v4q-1 4 -1.5 9.5t-0.5 12.5v14t1 13
q0 9 -3 9q-2 0 -5 -5t-9 -12t-8 -10q-2 -4 -11.5 -35t-10.5 -39v-41l8 -8q8 -3 8 -10t-7 -12h-19q-8 0 -19 14q-3 6 0 51q0 4 1 14.5t1 18.5q0 22 2 38q-28 -20 -58 -23z" />
    </font>
</defs>
</svg>
