<?xml version="1.0" standalone="no"?>
<!DOCTYPE svg PUBLIC "-//W3C//DTD SVG 1.1//EN" "http://www.w3.org/Graphics/SVG/1.1/DTD/svg11.dtd" >
<svg xmlns="http://www.w3.org/2000/svg" xmlns:xlink="http://www.w3.org/1999/xlink" version="1.1">
<metadata>
Created by FontForge 20170731 at Thu May 12 04:26:01 2016
 By Aleksey,,,
Copyright (c) 2016 Apple Inc. All rights reserved.
</metadata>
<defs>
<font id="SFMono-SemiboldItalic" horiz-adv-x="1266" >
  <font-face 
    font-family="SF Mono"
    font-weight="600"
    font-style="italic"
    font-stretch="extra-condensed"
    units-per-em="2048"
    panose-1="2 11 0 9 0 0 2 0 0 0"
    ascent="1638"
    descent="-410"
    x-height="1095"
    cap-height="1443"
    bbox="-29 -594 1688 2184"
    underline-thickness="100"
    underline-position="-450"
    slope="-10"
    unicode-range="U+0020-FB02"
  />
<missing-glyph 
 />
    <glyph glyph-name=".notdef" 
 />
    <glyph glyph-name=".null" 
 />
    <glyph glyph-name="nonmarkingreturn" horiz-adv-x="0" 
 />
    <glyph glyph-name="space" unicode=" " 
 />
    <glyph glyph-name="exclam" unicode="!" 
d="M754 1443h270l-198 -994h-227zM656 -26q-68 0 -115.5 47t-47.5 114t47.5 113.5t115.5 46.5t115.5 -46.5t47.5 -113.5t-47.5 -114t-115.5 -47z" />
    <glyph glyph-name="quotedbl" unicode="&#x22;" 
d="M670 799h-233l113 644h232zM1111 799h-233l112 644h234z" />
    <glyph glyph-name="numbersign" unicode="#" 
d="M1337 872h-205l-109 -283h205l-70 -196h-205l-148 -393h-192l147 393h-250l-146 -393h-193l148 393h-203l71 196h203l108 283h-202l69 195h203l141 377h193l-142 -377h249l142 377h193l-142 -377h204zM684 885l-117 -311h268l117 311h-268z" />
    <glyph glyph-name="dollar" unicode="$" 
d="M801 608l-81 -458q131 5 212.5 70.5t81.5 166.5q0 77 -47.5 126t-165.5 95zM719 859l77 433q-118 -7 -190 -67t-72 -152q0 -70 44 -121t141 -93zM1309 1058h-212v15q0 73 -48.5 129t-129.5 78l-81 -463l53 -17q178 -61 259.5 -155t81.5 -235q0 -197 -151 -320t-393 -124
l-19 -107h-126l21 117q-176 29 -286 134t-110 248q0 37 2 45h210q0 -5 -0.5 -11.5t-0.5 -7.5q0 -83 58.5 -142.5t158.5 -80.5l86 487l-30 10q-173 61 -256.5 158.5t-83.5 236.5q0 186 144.5 304.5t371.5 119.5l19 107h126l-21 -119q159 -31 259 -132t100 -235q0 -28 -2 -40z
" />
    <glyph glyph-name="percent" unicode="%" 
d="M448 744q-121 0 -191.5 72t-70.5 196q0 41 6 83l14 73q25 137 112 219.5t208 82.5q122 0 193 -71.5t71 -194.5q0 -38 -6 -76l-14 -74q-25 -143 -111.5 -226.5t-210.5 -83.5zM352 1022q0 -124 109 -124q115 0 146 172l10 58q6 36 6 65q0 125 -107 125q-115 0 -147 -173
l-10 -58q-7 -29 -7 -65zM994 -28q-122 0 -192.5 72t-70.5 196q0 44 7 82l14 74q25 138 111.5 220t208.5 82t193 -71.5t71 -194.5q0 -41 -7 -76l-13 -74q-26 -143 -112 -226.5t-210 -83.5zM898 250q0 -125 108 -125q115 0 147 173l10 58q6 34 6 65q0 124 -108 124
q-114 0 -146 -172l-10 -58q-7 -31 -7 -65zM1520 1443l-29 -164l-1491 -1279l29 164z" />
    <glyph glyph-name="ampersand" unicode="&#x26;" 
d="M532 642q-189 -97 -204 -252q-10 -98 49 -161t163 -67q150 -6 281 99l-248 403zM969 0l-63 106q-85 -68 -190 -102.5t-214 -30.5q-188 7 -295.5 116.5t-93.5 279.5q10 128 92 233.5t231 181.5l58 30q-120 184 -105 328q14 149 123 241.5t265 88.5q146 -4 230 -91t70 -221
q-11 -118 -88.5 -210.5t-239.5 -177.5l210 -343q37 47 60 110.5t40 167.5l4 28h191l-9 -63q-41 -267 -186 -428l165 -244h-255zM883 1145q8 62 -28 104t-100 45q-66 2 -116 -41.5t-58 -109.5q-11 -96 85 -241q108 59 158.5 116t58.5 127z" />
    <glyph glyph-name="quotesingle" unicode="'" 
d="M890 799h-232l113 644h232z" />
    <glyph glyph-name="parenleft" unicode="(" 
d="M929 1623h259q-234 -221 -367 -507.5t-133 -569.5q0 -396 163 -726h-232q-78 126 -125 317t-47 383q0 633 482 1103z" />
    <glyph glyph-name="parenright" unicode=")" 
d="M591 -181h-259q234 221 367 507.5t133 569.5q0 396 -163 726h232q78 -126 125 -317t47 -383q0 -633 -482 -1103z" />
    <glyph glyph-name="asterisk" unicode="*" 
d="M1329 745l-426 -137l352 -275l-120 -150l-336 304l-63 -447l-185 34l93 440l-418 -170l-64 183l425 138l-351 275l120 149l336 -304l63 448l185 -34l-93 -440l418 170z" />
    <glyph glyph-name="plus" unicode="+" 
d="M837 536l-77 -432h-217l76 432h-430l35 210h431l77 433h217l-77 -433h431l-36 -210h-430z" />
    <glyph glyph-name="comma" unicode="," 
d="M549 -335h-234l261 737h289z" />
    <glyph glyph-name="hyphen" unicode="-" 
d="M1259 536h-1059l35 210h1059z" />
    <glyph glyph-name="hyphen" unicode="&#x2011;" 
d="M1259 536h-1059l35 210h1059z" />
    <glyph glyph-name="period" unicode="." 
d="M667 -14q-85 0 -145 61.5t-60 147.5t60 147t145 61q84 0 144 -61t60 -147t-60 -147.5t-144 -61.5z" />
    <glyph glyph-name="slash" unicode="/" 
d="M373 -186h-235l1005 1815h240z" />
    <glyph glyph-name="zero" unicode="0" 
d="M676 -29q-223 0 -345 144.5t-121 405.5q2 117 18 222q2 11 9.5 53.5t8.5 46.5q60 296 216 463t376 167q222 0 344 -146t121 -409q0 -79 -12 -168q-1 -24 -21 -141q-57 -300 -213.5 -469t-380.5 -169zM829 1267q-124 0 -218.5 -128t-135.5 -352l-9 -48q-11 -53 -12 -101
l606 396q-19 112 -79 172.5t-152 60.5zM683 177q129 0 223 126t135 353l9 48q10 50 10 105l-606 -398q19 -114 78 -174t151 -60z" />
    <glyph glyph-name="one" unicode="1" 
d="M828 203h393l-34 -203h-395h-238h-391l35 203h392l179 998h-14l-421 -232l38 230l432 244h242z" />
    <glyph glyph-name="two" unicode="2" 
d="M318 1042q3 183 148.5 307t359.5 124q204 0 335 -105.5t131 -269.5q0 -126 -78 -240t-285 -290l-405 -347l-3 -15h665l-34 -206h-998l30 178l588 512q159 138 220.5 221.5t61.5 159.5q0 87 -68 143t-174 56q-112 0 -188 -64.5t-82 -164.5q-224 0 -224 1z" />
    <glyph glyph-name="three" unicode="3" 
d="M579 649l32 194h146q139 0 224.5 63t85.5 165q0 91 -69 146.5t-181 55.5q-103 0 -176.5 -51.5t-88.5 -134.5h-218q15 173 151.5 280t341.5 107q208 0 337 -100.5t129 -263.5q0 -137 -91.5 -235.5t-235.5 -116.5l-2 -16q122 -26 192.5 -110.5t70.5 -206.5
q0 -203 -150.5 -328.5t-393.5 -125.5q-218 0 -358.5 105.5t-140.5 268.5q0 35 4 56h224v-21q0 -85 80 -142t200 -57q133 0 216.5 69t83.5 179q0 100 -78 160t-207 60h-128z" />
    <glyph glyph-name="four" unicode="4" 
d="M769 0l51 286h-650l33 193l629 964h250l-615 -941l-3 -16h396l68 384h216l-68 -386h205l-33 -198h-204l-51 -286h-224z" />
    <glyph glyph-name="five" unicode="5" 
d="M685 -29q-205 0 -342.5 113t-137.5 283q0 22 1 30h231q2 -90 77.5 -152.5t181.5 -62.5q138 0 225 88.5t87 228.5q0 113 -72.5 186t-185.5 73q-80 0 -147 -32.5t-107 -91.5h-235l207 809h842l-34 -206h-643l-116 -421h16q45 60 122 93.5t169 33.5q181 0 299 -121.5
t118 -309.5q0 -151 -73 -275t-200.5 -195t-282.5 -71z" />
    <glyph glyph-name="six" unicode="6" 
d="M1269 484q0 -221 -156.5 -367t-393.5 -146q-230 0 -376.5 139.5t-146.5 357.5q0 152 68 285.5t228 293.5l393 396h305l-464 -454q-103 -103 -117 -120h21q85 65 208 65q184 0 307.5 -129.5t123.5 -320.5zM730 181q130 0 217 82.5t87 206.5t-85 205t-216 81
q-129 0 -215.5 -82.5t-86.5 -206.5t84.5 -205t214.5 -81z" />
    <glyph glyph-name="seven" unicode="7" 
d="M256 0l853 1224l3 15h-752l35 205h1001l-35 -208l-841 -1236h-264z" />
    <glyph glyph-name="eight" unicode="8" 
d="M819 844q109 0 179 63t70 161q0 97 -66.5 157t-175.5 60t-178.5 -63t-69.5 -162q0 -95 67.5 -155.5t173.5 -60.5zM706 160q130 0 212.5 70t82.5 181q0 109 -80.5 178t-208.5 69q-129 0 -211.5 -71t-82.5 -181t80 -178t208 -68zM1303 1095q0 -130 -91 -223t-227 -103
l-3 -15q123 -41 194 -137t71 -222q0 -191 -149.5 -308.5t-392.5 -117.5q-239 0 -388 115t-149 299q0 151 111 258.5t279 119.5l3 15q-105 46 -163 126.5t-58 180.5q0 171 136.5 281t349.5 110q211 0 344 -106t133 -273z" />
    <glyph glyph-name="nine" unicode="9" 
d="M262 960q0 221 156.5 367t393.5 146q230 0 376.5 -139.5t146.5 -357.5q0 -152 -68 -285.5t-228 -293.5l-393 -396h-305l464 454q103 103 117 120h-21q-85 -65 -208 -65q-184 0 -307.5 129.5t-123.5 320.5zM801 1263q-130 0 -217 -82.5t-87 -206.5t85 -205t216 -81
q129 0 215.5 82.5t86.5 206.5t-84.5 205t-214.5 81z" />
    <glyph glyph-name="colon" unicode=":" 
d="M667 -14q-84 0 -144 61.5t-60 147.5t60 147t144 61q85 0 144.5 -61t59.5 -147t-60 -147.5t-144 -61.5zM802 748q-84 0 -144.5 61.5t-60.5 147.5t60.5 147t144.5 61t144 -61t60 -147t-60 -147.5t-144 -61.5z" />
    <glyph glyph-name="semicolon" unicode=";" 
d="M803 748q-84 0 -144.5 61.5t-60.5 147.5t60.5 147t144.5 61t144 -61t60 -147t-60 -147.5t-144 -61.5zM569 -328h-235l259 730h290z" />
    <glyph glyph-name="less" unicode="&#x3c;" 
d="M1258 968l-717 -332l-3 -18l596 -331l-41 -247l-815 500l34 203l992 500z" />
    <glyph glyph-name="equal" unicode="=" 
d="M1214 282h-1059l38 229h1059zM1299 770h-1059l38 229h1059z" />
    <glyph glyph-name="greater" unicode="&#x3e;" 
d="M235 315l717 332l3 18l-596 331l41 247l815 -500l-34 -203l-992 -500z" />
    <glyph glyph-name="question" unicode="?" 
d="M641 -26q-69 0 -116 46.5t-47 114.5t47 114t116 46q68 0 115.5 -46.5t47.5 -113.5t-47.5 -114t-115.5 -47zM368 1076q28 181 166 287t335 100q190 -6 305 -111.5t103 -262.5q-18 -241 -270 -365q-113 -55 -158.5 -107.5t-52.5 -138.5l-4 -28h-228l3 32q10 141 64.5 221
t183.5 142q103 50 149 100.5t53 120.5q10 79 -39.5 129.5t-139.5 55.5q-92 4 -157 -43.5t-82 -131.5h-231z" />
    <glyph glyph-name="at" unicode="@" 
d="M675 -206q-500 0 -500 534q0 97 26 267l29 153q126 731 629 731q235 0 360 -123.5t125 -356.5q0 -99 -18 -203l-45 -247q-25 -142 -90 -201t-194 -59h-276q-50 0 -79 30t-29 83q0 17 4 37l69 404q11 62 47.5 97.5t88.5 35.5t81.5 -30.5t29.5 -83.5q0 -12 -4 -36l-71 -408
h135q65 0 99 28.5t46 92.5l42 237q19 105 19 199q0 179 -90 271t-265 92q-190 0 -302 -143t-167 -459l-24 -129q-26 -145 -26 -262q0 -211 93.5 -311.5t287.5 -100.5q117 0 199 25l-24 -137q-64 -27 -206 -27z" />
    <glyph glyph-name="A" unicode="A" 
d="M560 571h352l-60 619h-10zM967 0l-37 379h-458l-173 -379h-251l700 1443h278l188 -1443h-247z" />
    <glyph glyph-name="B" unicode="B" 
d="M621 1252l-75 -415h231q122 0 199 64.5t78 165.5q0 90 -58 137.5t-168 47.5h-207zM431 194h267q144 0 229.5 68.5t85.5 183.5q0 101 -71 155t-205 54h-222zM161 0l254 1443h467q199 0 311.5 -89t111.5 -245q-1 -133 -86 -230t-224 -123l-3 -14q122 -21 196 -110t73 -215
q-1 -188 -144.5 -302.5t-380.5 -114.5h-575z" />
    <glyph glyph-name="C" unicode="C" 
d="M1269 429q-29 -210 -179.5 -334.5t-374.5 -124.5q-233 0 -372.5 141t-139.5 377q0 74 14 154l45 258q48 278 202.5 425t399.5 147q219 0 357 -126t138 -327q0 -29 -6 -75h-243q3 33 3 63q0 111 -70.5 178t-188.5 67q-133 0 -221.5 -92.5t-120.5 -265.5l-48 -272
q-12 -70 -12 -137q0 -137 73.5 -215.5t203.5 -78.5q119 0 195.5 66.5t101.5 192.5q1 5 1 11h246q-2 -25 -4 -32z" />
    <glyph glyph-name="D" unicode="D" 
d="M786 1443q259 0 400 -143t141 -405q0 -66 -7 -134q-1 -23 -21 -128q-110 -633 -690 -633h-473l254 1443h396zM743 1235h-146l-183 -1024h168q200 0 315.5 108.5t153.5 330.5q16 80 18 109q7 61 7 119q0 175 -85 266t-248 91z" />
    <glyph glyph-name="E" unicode="E" 
d="M1133 211l-35 -211h-887l254 1443h887l-36 -211h-644l-73 -402h608l-34 -197h-607l-77 -422h644z" />
    <glyph glyph-name="F" unicode="F" 
d="M473 0h-242l254 1443h887l-35 -211h-646l-78 -434h588l-34 -202h-589z" />
    <glyph glyph-name="G" unicode="G" 
d="M1247 423q-37 -215 -180 -334t-363 -119q-230 0 -368 139t-138 370q0 80 14 161l49 280q47 265 201.5 408.5t392.5 143.5q217 0 351.5 -124t134.5 -323q0 -28 -3 -53h-236q2 28 2 42q0 106 -72.5 173t-188.5 67q-132 0 -221 -94t-120 -268l-48 -273q-14 -82 -14 -139
q0 -137 74.5 -216t203.5 -79q120 0 199 70t101 196l22 115h-305l33 187h538z" />
    <glyph glyph-name="H" unicode="H" 
d="M1134 0h-238l112 629h-527l-111 -629h-238l254 1443h238l-107 -603h527l106 603h238z" />
    <glyph glyph-name="I" unicode="I" 
d="M1050 0h-834l35 208h297l184 1027h-297l35 208h834l-35 -208h-296l-184 -1027h296z" />
    <glyph glyph-name="J" unicode="J" 
d="M639 -29q-197 0 -319.5 108.5t-122.5 283.5q0 29 4 50h227q-2 -16 -2 -26q0 -86 60.5 -141t156.5 -55q98 0 160.5 60.5t82.5 174.5l146 809h-509l34 208h752l-186 -1049q-37 -209 -159.5 -316t-324.5 -107z" />
    <glyph glyph-name="K" unicode="K" 
d="M881 803l376 -803h-268l-306 648l-188 -181l-83 -467h-231l254 1443h231l-122 -677h15l667 677h280z" />
    <glyph glyph-name="L" unicode="L" 
d="M1172 215l-37 -215h-891l254 1443h239l-218 -1228h653z" />
    <glyph glyph-name="M" unicode="M" 
d="M389 508l-91 -508h-206l254 1443h253l127 -854h15l426 854h261l-254 -1443h-206l91 508l128 580h-18l-389 -749h-171l-125 749h-17z" />
    <glyph glyph-name="N" unicode="N" 
d="M349 0h-212l254 1443h220l360 -1028h16l184 1028h212l-254 -1443h-219l-361 1032h-16z" />
    <glyph glyph-name="O" unicode="O" 
d="M1274 535q-50 -276 -199 -420t-386 -144q-220 0 -359 141t-139 364q0 136 15 210l40 225q48 270 199 415.5t381 145.5q225 0 364 -141.5t139 -370.5q0 -107 -15 -200zM703 187q261 0 330 388l40 224q14 79 14 156q0 137 -74 219t-198 82q-260 0 -328 -380l-38 -218
q-15 -85 -15 -165q0 -142 72 -224t197 -82z" />
    <glyph glyph-name="P" unicode="P" 
d="M422 1443h460q211 0 334.5 -112t123.5 -303q0 -245 -161.5 -395t-426.5 -150h-255l-87 -483h-242zM630 1241l-99 -556h216q163 0 256.5 87t93.5 239q0 110 -68 170t-193 60h-206z" />
    <glyph glyph-name="Q" unicode="Q" 
d="M1035 570l40 225q14 79 14 158q0 137 -74.5 220t-198.5 83q-262 0 -330 -383l-39 -220q-15 -85 -15 -167q0 -142 72.5 -225t197.5 -83q38 0 67 7l-121 276h232l65 -148q61 94 90 257zM206 686l40 225q48 270 199 415.5t381 145.5q225 0 364 -141.5t139 -370.5
q0 -102 -15 -200l-41 -225q-54 -305 -229 -448l108 -248h-232l-67 152q-77 -20 -164 -20q-220 0 -359 141t-139 364q0 136 15 210z" />
    <glyph glyph-name="R" unicode="R" 
d="M619 1242l-90 -503h225q137 0 220.5 62.5t104.5 174.5q5 25 5 58q0 97 -61.5 152.5t-170.5 55.5h-233zM399 0h-241l254 1443h485q197 0 318 -107.5t120 -289.5q0 -52 -8 -97q-23 -139 -108.5 -234t-221.5 -133l189 -582h-256l-172 551q-22 -2 -70 -2h-192z" />
    <glyph glyph-name="S" unicode="S" 
d="M177 424h233q-2 -20 -2 -25q0 -98 84.5 -160.5t217.5 -62.5q124 0 202.5 60t78.5 154q0 74 -52 124t-177 94l-114 40q-172 61 -254 155.5t-82 231.5q0 195 141 316t368 121q215 0 353 -110.5t138 -284.5q0 -27 -3 -40h-232q1 4 1 23q0 89 -72.5 148.5t-181.5 59.5
q-117 0 -190 -56.5t-73 -147.5q0 -74 50 -124t164 -90l118 -42q181 -64 263 -154t82 -224q0 -209 -144.5 -334t-386.5 -125q-230 0 -381.5 115.5t-151.5 292.5q0 29 3 45z" />
    <glyph glyph-name="T" unicode="T" 
d="M754 0h-242l219 1232h-422l35 211h1086l-36 -211h-422z" />
    <glyph glyph-name="U" unicode="U" 
d="M207 546l158 897h242l-158 -893q-10 -57 -10 -94q0 -123 73 -195t191 -72q116 0 196.5 79t105.5 219l170 956h241l-177 -991q-41 -228 -184 -354.5t-358 -126.5q-225 0 -362.5 127t-137.5 338q0 51 10 110z" />
    <glyph glyph-name="V" unicode="V" 
d="M678 253l547 1190h252l-705 -1443h-278l-197 1443h250l122 -1190h9z" />
    <glyph glyph-name="W" unicode="W" 
d="M797 869h-13l-327 -869h-224l22 1443h216l-20 -527l-29 -597h13l300 794h193l19 -794h14l169 585l168 539h222l-482 -1443h-222z" />
    <glyph glyph-name="X" unicode="X" 
d="M38 0l568 728l-316 715h258l228 -546h12l422 546h269l-583 -722l329 -721h-252l-242 535h-12l-422 -535h-259z" />
    <glyph glyph-name="Y" unicode="Y" 
d="M754 0h-241l99 561l-327 882h253l221 -636h15l439 636h272l-632 -882z" />
    <glyph glyph-name="Z" unicode="Z" 
d="M134 0l29 172l884 1046l2 14h-675l35 211h976l-29 -174l-885 -1044l-2 -14h714l-36 -211h-1013z" />
    <glyph glyph-name="bracketleft" unicode="[" 
d="M633 1629h587l-31 -186h-357l-254 -1443h362l-31 -186h-593z" />
    <glyph glyph-name="backslash" unicode="\" 
d="M1061 -186h-226l-376 1815h231z" />
    <glyph glyph-name="bracketright" unicode="]" 
d="M617 1629h587l-316 -1815h-593l31 186h362l254 1443h-357z" />
    <glyph glyph-name="asciicircum" unicode="^" 
d="M844 1188l-322 -536h-247l498 791h229l223 -791h-231l-132 536h-18z" />
    <glyph glyph-name="underscore" unicode="_" 
d="M1094 -337h-1038l33 204h1038z" />
    <glyph glyph-name="grave" unicode="`" 
d="M1065 1296h-225l-213 347h259z" />
    <glyph glyph-name="a" unicode="a" 
d="M543 -17q-145 0 -237 85.5t-93 219.5q-2 173 121.5 266.5t355.5 97.5l256 4l10 61q6 29 6 55q0 70 -52 111.5t-139 41.5q-75 0 -133 -34t-79 -91h-229q26 137 156 225t306 88q182 0 291.5 -87t109.5 -232q0 -52 -17 -141l-115 -653h-221l26 149h-17
q-40 -79 -120.5 -122.5t-185.5 -43.5zM630 172q100 0 176 63.5t94 163.5l19 100l-220 -3q-120 -1 -185 -46.5t-66 -127.5q-1 -68 49 -109t133 -41z" />
    <glyph glyph-name="b" unicode="b" 
d="M780 -17q-128 0 -215 63t-107 171h-17l-38 -217h-241l268 1518h240l-105 -597h20q41 89 125 141t189 52q165 0 263 -104t98 -278q0 -50 -11 -116l-34 -190q-37 -211 -151 -327t-284 -116zM719 186q102 0 172.5 66.5t91.5 182.5l30 169q6 41 6 89q0 102 -62 162.5
t-168 60.5q-101 0 -176.5 -70t-96.5 -185l-30 -167q-6 -37 -6 -75q0 -100 67.5 -166.5t171.5 -66.5z" />
    <glyph glyph-name="c" unicode="c" 
d="M1245 716h-228v12q0 86 -62.5 141t-159.5 55q-235 0 -290 -297l-13 -78q-14 -75 -14 -126q0 -120 60.5 -184.5t172.5 -64.5q186 0 244 173h228q-35 -168 -166.5 -269t-318.5 -101q-208 0 -329.5 112t-121.5 303q0 66 12 143q10 69 26 152q36 202 174.5 317.5t344.5 115.5
q197 0 320 -101t123 -264q0 -11 -2 -39z" />
    <glyph glyph-name="d" unicode="d" 
d="M690 1114q123 0 211.5 -63t105.5 -167h14l113 634h238l-268 -1518h-236l34 196h-15q-36 -97 -122.5 -155t-194.5 -58q-168 0 -267.5 102.5t-99.5 275.5q0 78 10 136l31 177q36 207 154.5 323.5t291.5 116.5zM744 914q-106 0 -174.5 -65.5t-90.5 -187.5l-27 -156
q-8 -48 -8 -91q0 -101 60.5 -163t160.5 -62q110 0 185.5 68t97.5 187l29 166q6 34 6 68q0 102 -68 169t-171 67z" />
    <glyph glyph-name="e" unicode="e" 
d="M794 934q-107 0 -180 -61.5t-96 -170.5q-5 -25 -10 -55h500q6 27 6 55q10 103 -51 167.5t-169 64.5zM1166 297q-25 -141 -156 -230t-315 -89q-206 0 -325 114t-119 310q0 59 16 159l23 131q33 196 172 310.5t344 114.5q197 0 319 -118.5t110 -297.5q0 -52 -11 -110
l-15 -100h-725q-10 -43 -10 -77q-8 -114 55.5 -182.5t177.5 -68.5q85 0 147.5 36.5t81.5 97.5h230z" />
    <glyph glyph-name="f" unicode="f" 
d="M456 0l159 900h-293l33 188h292l17 91q30 177 140 255.5t325 78.5q47 0 151.5 -4.5t126.5 -10.5l-30 -177q-20 5 -125.5 10t-146.5 5q-185 0 -211 -145l-18 -103h458l-32 -188h-454l-160 -900h-232z" />
    <glyph glyph-name="g" unicode="g" 
d="M737 914q-101 0 -172.5 -69t-93.5 -188l-20 -113q-9 -52 -9 -98q0 -107 63.5 -171t168.5 -64q101 0 175 69t94 182l23 133q8 48 8 85q0 103 -66.5 168.5t-170.5 65.5zM570 -411q-195 0 -320 86.5t-125 222.5v22h228v-8q4 -64 70.5 -105t165.5 -41q241 0 285 246l35 201
h-15q-36 -92 -126 -148.5t-202 -56.5q-161 0 -263.5 107.5t-102.5 277.5q0 67 12 141l22 138q34 205 153 323.5t292 118.5q129 0 215.5 -60.5t115.5 -170.5h17l36 212h232l-191 -1090q-36 -202 -173.5 -309t-360.5 -107z" />
    <glyph glyph-name="h" unicode="h" 
d="M158 0l267 1518h226l-108 -607h14q46 94 135 149t199 55q155 0 249.5 -93t94.5 -247q0 -45 -15 -137l-111 -638h-233l109 616q10 58 10 95q0 88 -57.5 144t-150.5 56q-107 0 -184 -71t-99 -195l-114 -645h-232z" />
    <glyph glyph-name="i" unicode="i" 
d="M911 1338q-74 0 -121.5 44.5t-47.5 114.5t47.5 114.5t121.5 44.5q75 0 122.5 -44.5t47.5 -114.5t-47.5 -114.5t-122.5 -44.5zM1115 0h-932l32 186h361l130 723h-349l31 186h576l-161 -909h344z" />
    <glyph glyph-name="j" unicode="j" 
d="M1028 1338q-74 0 -121.5 44.5t-47.5 114.5t47.5 114.5t121.5 44.5q75 0 122 -44t47 -115t-47 -115t-122 -44zM1086 1095l-189 -1067q-35 -200 -146 -287.5t-330 -87.5q-191 0 -302 10l35 204q99 -10 283 -10q109 0 163.5 42t70.5 136l156 874h-471l33 186h697z" />
    <glyph glyph-name="k" unicode="k" 
d="M531 397l-71 -397h-232l268 1518h232l-151 -854h14l493 431h299l-519 -455l354 -640h-261l-285 514z" />
    <glyph glyph-name="l" unicode="l" 
d="M1115 0h-932l32 186h358l205 1146h-347l32 186h579l-236 -1332h341z" />
    <glyph glyph-name="m" unicode="m" 
d="M423 748l-133 -748h-200l192 1095h201l-28 -164h25q32 89 89 137.5t130 48.5q81 0 129.5 -50t52.5 -136h25q33 90 90.5 138t132.5 48q92 0 144.5 -56.5t52.5 -155.5q0 -54 -10 -114l-140 -791h-200l132 752q7 34 7 61q0 49 -24.5 75.5t-69.5 26.5q-58 0 -99 -43t-55 -121
l-133 -751h-198l132 753q7 40 7 60q0 49 -25 75.5t-70 26.5q-58 0 -100 -44t-57 -123z" />
    <glyph glyph-name="n" unicode="n" 
d="M160 0l193 1095h225l-32 -184h14q43 95 130 150.5t201 55.5q156 0 248.5 -94t92.5 -248q0 -57 -15 -139l-111 -636h-233l109 616q9 54 9 98q0 89 -55 144t-148 55q-106 0 -182.5 -71.5t-98.5 -196.5l-114 -645h-233z" />
    <glyph glyph-name="o" unicode="o" 
d="M688 -22q-205 0 -333 123t-128 313q0 60 10 116l27 156q35 200 170 315.5t331 115.5q210 0 339.5 -123t129.5 -316q0 -52 -10 -112l-28 -156q-37 -205 -170.5 -318.5t-337.5 -113.5zM761 924q-108 0 -179.5 -70t-94.5 -199l-25 -144q-8 -45 -8 -91q0 -111 68 -180
t177 -69q110 0 180.5 70.5t94.5 204.5l26 147q6 41 6 84q0 110 -68 178.5t-177 68.5z" />
    <glyph glyph-name="p" unicode="p" 
d="M772 -17q-129 0 -217.5 64t-102.5 164h-14l-102 -578h-238l257 1462h236l-34 -195h15q36 98 123.5 156t194.5 58q164 0 265.5 -101.5t101.5 -277.5q0 -61 -12 -135l-31 -178q-37 -208 -153.5 -323.5t-288.5 -115.5zM716 188q105 0 174 64.5t91 188.5l28 156q7 44 7 91
q0 100 -60 162.5t-161 62.5q-109 0 -185 -67t-98 -188l-29 -166q-4 -28 -4 -73q0 -100 66 -165.5t171 -65.5z" />
    <glyph glyph-name="q" unicode="q" 
d="M681 1114q127 0 212 -62.5t108 -171.5h17l38 215h241l-258 -1462h-240l95 544h-20q-41 -90 -125 -142t-189 -52q-166 0 -263.5 103.5t-97.5 278.5q0 43 11 115l34 191q36 210 151.5 326.5t285.5 116.5zM740 916q-102 0 -172 -66.5t-91 -182.5l-30 -169q-7 -36 -7 -89
q0 -103 62 -163t168 -60q102 0 177.5 70t96.5 185l29 167q7 36 7 75q0 101 -68 167t-172 66z" />
    <glyph glyph-name="r" unicode="r" 
d="M747 815h35q107 309 396 309q99 0 172 -41l-44 -250q-74 46 -199 46q-166 0 -275.5 -101.5t-142.5 -284.5l-56 -319h327l-31 -174h-326h-224h-213l31 174h213l132 747h-234l30 174h458z" />
    <glyph glyph-name="s" unicode="s" 
d="M343 773q0 156 123 251.5t323 95.5q182 0 294.5 -81.5t117.5 -216.5q0 -15 -2 -31h-222v6q-6 67 -58 104.5t-140 37.5q-91 0 -147.5 -38t-56.5 -99q0 -46 35.5 -78t113.5 -57l146 -47q144 -46 208.5 -114.5t64.5 -174.5q0 -157 -129 -255.5t-334 -98.5q-198 0 -321 85
t-127 225q0 7 2 23h228v-5q8 -68 67.5 -107t157.5 -39t156.5 38.5t58.5 103.5q0 46 -35.5 78t-115.5 58l-147 48q-134 44 -197.5 114t-63.5 174z" />
    <glyph glyph-name="t" unicode="t" 
d="M668 1401h228l-54 -313h423l-33 -188h-418l-101 -552q-4 -23 -4 -41q0 -121 168 -121q192 0 219 3l-32 -186q-32 -6 -268 -6q-160 0 -242.5 64.5t-82.5 188.5q0 46 10 99l100 551h-288l33 188h288z" />
    <glyph glyph-name="u" unicode="u" 
d="M1299 1095l-193 -1095h-225l32 184h-14q-43 -95 -130 -150.5t-201 -55.5q-156 0 -248.5 94t-92.5 248q0 57 15 139l111 636h233l-109 -616q-9 -54 -9 -98q0 -89 55 -144t148 -55q106 0 182.5 71.5t98.5 196.5l114 645h233z" />
    <glyph glyph-name="v" unicode="v" 
d="M306 1095h243l117 -864h15l411 864h254l-581 -1095h-262z" />
    <glyph glyph-name="w" unicode="w" 
d="M1428 1095l-419 -1095h-210l-20 784h-11l-303 -784h-208l-33 1095h215l-29 -815h29l284 813h200l-2 -813h28l253 815h226z" />
    <glyph glyph-name="x" unicode="x" 
d="M712 390h-15l-311 -390h-256l454 545l-264 550h258l170 -388h16l302 388h263l-454 -540l264 -555h-250z" />
    <glyph glyph-name="y" unicode="y" 
d="M257 -393q-77 0 -97 2l33 193q11 -3 65 -3q79 0 127.5 31.5t89.5 112.5l24 49l-201 1103h248l116 -874h15l420 874h255l-589 -1120q-110 -211 -218 -289.5t-288 -78.5z" />
    <glyph glyph-name="z" unicode="z" 
d="M190 0l25 145l720 745l2 16h-580l32 189h871l-27 -160l-706 -730l-2 -15h583l-32 -190h-886z" />
    <glyph glyph-name="braceleft" unicode="{" 
d="M994 -186h-151q-164 0 -235.5 56.5t-71.5 186.5q0 55 13 129l36 207q6 33 6 63q0 90 -66 133.5t-202 43.5l40 237q176 0 248.5 42t91.5 155l38 222q18 99 45.5 161.5t76.5 102.5t118.5 55.5t176.5 15.5h151l-32 -191h-101q-113 0 -149 -32.5t-57 -154.5l-49 -274
q-35 -202 -328 -213l-4 -18q114 -8 181.5 -64.5t67.5 -142.5q0 -41 -4 -60l-46 -258q-11 -66 -11 -102q0 -62 32.5 -86.5t115.5 -24.5h100z" />
    <glyph glyph-name="bar" unicode="|" 
d="M661 -483h-226l370 2112h227z" />
    <glyph glyph-name="braceright" unicode="}" 
d="M521 1625h151q164 0 235.5 -56.5t71.5 -186.5q0 -55 -13 -129l-36 -207q-6 -33 -6 -63q0 -90 66 -133.5t202 -43.5l-40 -237q-176 0 -248.5 -42t-91.5 -155l-38 -222q-18 -99 -45.5 -161.5t-76.5 -102.5t-118.5 -55.5t-176.5 -15.5h-151l32 191h101q113 0 149 32.5
t57 154.5l49 274q35 202 328 213l4 18q-114 8 -181.5 64.5t-67.5 142.5q0 41 4 60l46 258q11 66 11 102q0 62 -32.5 86.5t-115.5 24.5h-100z" />
    <glyph glyph-name="asciitilde" unicode="~" 
d="M548 938q72 0 130.5 -29t127.5 -99q47 -48 79.5 -67t65.5 -19q111 0 119 178h197q2 -24 2 -37q0 -166 -80.5 -265.5t-214.5 -99.5q-72 0 -131.5 29t-127.5 98q-47 49 -78 68t-63 19q-116 0 -123 -178h-199q-2 24 -2 38q0 166 81 265t217 99z" />
    <glyph glyph-name="exclamdown" unicode="&#xa1;" 
d="M740 -350h-270l198 994h227zM838 1119q68 0 115.5 -47t47.5 -114t-47.5 -113.5t-115.5 -46.5t-115.5 46.5t-47.5 113.5t47.5 114t115.5 47z" />
    <glyph glyph-name="cent" unicode="&#xa2;" 
d="M1202 498q-26 -148 -137 -242t-277 -111l-32 -180h-212l35 199q-135 38 -211.5 141t-76.5 248q0 67 14 165l26 141q33 178 150 287t293 127l30 175h212l-33 -191q144 -35 217.5 -135.5t61.5 -248.5h-228q0 90 -54.5 140t-153.5 50q-105 0 -176 -66.5t-93 -186.5l-20 -111
q-11 -58 -11 -110q0 -114 59 -175.5t167 -61.5q87 0 145.5 38t76.5 108h228z" />
    <glyph glyph-name="sterling" unicode="&#xa3;" 
d="M1208 225l-37 -225h-1063l35 211q138 16 229 103.5t111 222.5q9 48 9 105h-270l32 190h217q-19 121 -19 186q0 218 146 337t415 119q83 0 175 -16t157 -42l-36 -217q-144 57 -296 57q-154 0 -236 -73.5t-82 -212.5q0 -51 13 -138h426l-32 -190h-373q4 -55 -7 -106
q-11 -105 -63 -180t-141 -113l-2 -18h692z" />
    <glyph glyph-name="currency" unicode="&#xa4;" 
d="M1313 930l-176 -128q45 -107 23 -230q-21 -123 -102 -209l123 -180l-164 -122l-123 186q-105 -46 -225 -24q-117 20 -204 100l-179 -134l-115 173l178 129q-44 105 -23 230q21 123 101 208l-124 181l165 122l122 -186q107 45 226 25q122 -22 204 -101l179 134zM701 411
q100 -17 178 38.5t96 156.5t-36 180t-154 97q-100 17 -178.5 -39t-96.5 -157q-17 -101 37 -180t154 -96z" />
    <glyph glyph-name="yen" unicode="&#xa5;" 
d="M1485 1443l-542 -756h204l-28 -158h-272l-25 -144h272l-28 -158h-272l-40 -227h-241l40 227h-272l28 158h272l25 144h-272l28 158h203l-280 756h253l221 -636h15l439 636h272z" />
    <glyph glyph-name="brokenbar" unicode="&#xa6;" 
d="M884 782h-226l147 847h227zM661 -484h-226l147 847h227z" />
    <glyph glyph-name="section" unicode="&#xa7;" 
d="M632 -278q-179 0 -293.5 85t-114.5 219q0 32 2 42h220q0 -71 56 -114t148 -43q82 0 134 38.5t52 99.5q0 45 -32.5 77t-105.5 58l-152 64q-127 50 -187 116.5t-60 158.5q0 106 70.5 185t192.5 111l3 18q-84 48 -123 106t-39 134q0 151 121 249t308 98q184 0 293 -83.5
t109 -224.5q0 -24 -1 -32h-219q0 67 -53.5 108.5t-138.5 41.5q-82 0 -135 -39t-53 -100q0 -46 32 -77t104 -56l152 -63q127 -53 186 -120.5t59 -161.5q0 -107 -80 -191t-203 -106l-3 -18q95 -37 140 -92.5t45 -136.5q0 -156 -120.5 -253.5t-313.5 -97.5zM645 447l111 -47
q86 12 137.5 58t51.5 112q0 94 -125 134l-108 41q-75 -9 -129.5 -57.5t-54.5 -106.5q0 -90 117 -134z" />
    <glyph glyph-name="dieresis" unicode="&#xa8;" 
d="M668 1308q-54 0 -94.5 41t-40.5 98t40.5 98t94.5 41q55 0 95.5 -41t40.5 -98t-40.5 -98t-95.5 -41zM1107 1308q-55 0 -95 41t-40 98t40 98t95 41t95 -41t40 -98t-40 -98t-95 -41z" />
    <glyph glyph-name="copyright" unicode="&#xa9;" 
d="M807 460q-145 0 -265 70t-189 192t-69 269t69 269t189 192t265 70t265 -70t189 -192t69 -269t-69 -269t-189 -192t-265 -70zM807 558q176 0 297 125.5t121 307.5t-121 307.5t-297 125.5t-297 -125.5t-121 -307.5t121 -307.5t297 -125.5zM1065 1066h-132q-9 88 -102 88
q-63 0 -102.5 -57t-39.5 -148q0 -59 28 -89.5t81 -30.5q78 0 105 71h132q-21 -87 -86.5 -138t-156.5 -51q-109 0 -173.5 61.5t-64.5 165.5q0 152 79 242.5t211 90.5q100 0 161.5 -57t59.5 -148z" />
    <glyph glyph-name="ordfeminine" unicode="&#xaa;" 
d="M645 510q-121 0 -196.5 68.5t-75.5 178.5q0 148 106 231t294 83h219l9 53q5 25 5 43q0 55 -39 86t-109 31q-124 0 -158 -88h-216q31 123 135 195.5t250 72.5q167 0 264 -73t97 -200q0 -36 -7 -68l-107 -600h-216l19 104h-16q-42 -56 -109.5 -86.5t-148.5 -30.5zM739 676
q83 0 144 47t75 122l15 82h-190q-87 -1 -137 -38.5t-50 -102.5q0 -50 39 -80t104 -30z" />
    <glyph glyph-name="guillemotleft" unicode="&#xab;" 
d="M442 640l-1 -5l267 -417h-223l-270 418l1 6l418 419h231zM927 640l-1 -5l267 -417h-223l-270 418l1 6l418 419h231z" />
    <glyph glyph-name="logicalnot" unicode="&#xac;" 
d="M1293 746l-105 -608h-211l69 398h-847l35 210h1059z" />
    <glyph glyph-name="registered" unicode="&#xae;" 
d="M669 735h-119l91 518h251q74 0 115 -39t41 -109q0 -124 -133 -174l97 -196h-144l-86 177h-82zM741 1145l-23 -134h107q45 0 70 20t25 57q0 57 -71 57h-108zM807 460q-145 0 -265 70t-189 192t-69 269t69 269t189 192t265 70t265 -70t189 -192t69 -269t-69 -269t-189 -192
t-265 -70zM807 558q176 0 297 125.5t121 307.5t-121 307.5t-297 125.5t-297 -125.5t-121 -307.5t121 -307.5t297 -125.5z" />
    <glyph glyph-name="macron" unicode="&#xaf;" 
d="M1221 1361h-696l29 166h696z" />
    <glyph glyph-name="degree" unicode="&#xb0;" 
d="M837 815q-146 0 -242.5 97.5t-96.5 243.5t96.5 243.5t242.5 97.5q145 0 241.5 -97.5t96.5 -243.5t-96.5 -243.5t-241.5 -97.5zM837 968q80 0 132 53t52 135t-52 135t-132 53t-132 -53t-52 -135t52 -135t132 -53z" />
    <glyph glyph-name="plusminus" unicode="&#xb1;" 
d="M1149 85h-1000l33 197h1000zM853 655l-46 -254h-209l46 254h-395l33 194h395l46 253h209l-46 -253h395l-32 -194h-396z" />
    <glyph glyph-name="acute" unicode="&#xb4;" 
d="M843 1296h-236l301 347h269z" />
    <glyph glyph-name="mugreek" unicode="&#xb5;" 
d="M326 -363h-228l257 1458h228l-115 -650q-8 -46 -8 -84q0 -77 54.5 -127t139.5 -50q98 0 169.5 68.5t91.5 182.5l116 660h228l-143 -803q-4 -24 -4 -46q0 -68 75 -68q37 0 60 7l-31 -184q-58 -15 -118 -15q-194 0 -203 180v23h-13q-37 -105 -105.5 -158t-154.5 -53
q-74 0 -129.5 30t-74.5 82h-12z" />
    <glyph glyph-name="mugreek" unicode="&#x3bc;" 
d="M326 -363h-228l257 1458h228l-115 -650q-8 -46 -8 -84q0 -77 54.5 -127t139.5 -50q98 0 169.5 68.5t91.5 182.5l116 660h228l-143 -803q-4 -24 -4 -46q0 -68 75 -68q37 0 60 7l-31 -184q-58 -15 -118 -15q-194 0 -203 180v23h-13q-37 -105 -105.5 -158t-154.5 -53
q-74 0 -129.5 30t-74.5 82h-12z" />
    <glyph glyph-name="paragraph" unicode="&#xb6;" 
d="M770 -186h-194l120 678q-188 24 -307.5 155t-119.5 313q0 211 140 347t355 136h292zM931 -186l286 1629h194l-285 -1629h-195z" />
    <glyph glyph-name="periodcentered" unicode="&#xb7;" 
d="M764 568q-76 0 -122 46.5t-46 121.5q0 74 46 121t122 47q75 0 121 -47t46 -121q0 -75 -46 -121.5t-121 -46.5z" />
    <glyph glyph-name="cedilla" unicode="&#xb8;" 
d="M473 -231l12 104l70 127h154l-67 -122q82 -7 128 -47.5t46 -106.5q0 -99 -72.5 -155.5t-199.5 -56.5q-75 0 -152 23l21 124q51 -19 128 -19q54 0 84 17.5t30 48.5q0 63 -127 63h-55z" />
    <glyph glyph-name="ordmasculine" unicode="&#xba;" 
d="M586 897q0 -102 47.5 -155t137.5 -53q95 0 159 72.5t87 207.5q10 54 10 101q0 101 -47.5 155t-137.5 54q-95 0 -159.5 -73t-86.5 -208q-10 -63 -10 -101zM761 503q-186 0 -293.5 105t-107.5 286q0 67 13 138q40 200 168 316t311 116q186 0 294 -104.5t108 -285.5
q0 -64 -12 -128q-37 -203 -166 -323t-315 -120z" />
    <glyph glyph-name="guillemotright" unicode="&#xbb;" 
d="M1049 639l1 5l-267 417h223l270 -418l-1 -6l-418 -419h-231zM564 639l1 5l-267 417h223l270 -418l-1 -6l-418 -419h-231z" />
    <glyph glyph-name="onequarter" unicode="&#xbc;" 
d="M994 0l21 116h-333l29 169q127 185 318 413h275l-77 -434h84l-21 -126h-84l-25 -138h-187zM874 267l-1 -4h173l54 299h-4q-159 -198 -222 -295zM316 747l93 522h-3l-193 -130l29 173l200 131h193l-122 -696h-197zM1520 1443l-29 -164l-1491 -1279l29 164z" />
    <glyph glyph-name="onehalf" unicode="&#xbd;" 
d="M316 747l93 522h-3l-193 -130l29 173l200 131h193l-122 -696h-197zM829 481q9 105 91.5 170.5t203.5 65.5q114 0 186.5 -54.5t72.5 -140.5q0 -65 -37 -119t-126 -118l-173 -122v-6h275l-27 -157h-537l25 147l315 238q46 34 65.5 60t19.5 52q0 30 -21 48.5t-55 18.5
q-36 0 -61.5 -22.5t-31.5 -60.5h-185zM1520 1443l-29 -164l-1491 -1279l29 164z" />
    <glyph glyph-name="threequarters" unicode="&#xbe;" 
d="M994 0l21 116h-333l29 169q127 185 318 413h275l-77 -434h84l-21 -126h-84l-25 -138h-187zM874 267l-1 -4h173l54 299h-4q-150 -186 -222 -295zM339 1036l23 137h83q43 0 70 22t27 56q0 28 -22 45t-58 17q-38 0 -64 -18t-34 -51h-175q18 104 95 163t196 59
q113 0 182 -49.5t69 -129.5q0 -70 -49 -120.5t-123 -57.5l-3 -11q66 -8 103.5 -46t37.5 -96q0 -97 -84 -162t-209 -65q-131 0 -204.5 53.5t-73.5 148.5q0 14 2 38h187v-9q0 -32 24 -51.5t64 -19.5q43 0 69.5 22.5t26.5 59.5q0 29 -21 47t-57 18h-82zM1520 1443l-29 -164
l-1491 -1279l29 164z" />
    <glyph glyph-name="questiondown" unicode="&#xbf;" 
d="M817 1117q69 0 116 -46.5t47 -114.5t-47 -114t-116 -46q-68 0 -115.5 46.5t-47.5 113.5t47.5 114t115.5 47zM1090 15q-28 -181 -166 -287t-335 -100q-190 6 -305 111.5t-103 262.5q18 241 270 365q113 55 158.5 107.5t52.5 138.5l4 28h228l-3 -32q-10 -141 -64.5 -221
t-183.5 -142q-103 -50 -149 -100.5t-53 -120.5q-10 -79 39.5 -129.5t139.5 -55.5q92 -4 157 43.5t82 131.5h231z" />
    <glyph glyph-name="Agrave" unicode="&#xc0;" 
d="M1009 1606h-223l-234 312h253zM560 571h352l-60 619h-10zM967 0l-37 379h-458l-173 -379h-251l700 1443h278l188 -1443h-247z" />
    <glyph glyph-name="Aacute" unicode="&#xc1;" 
d="M1344 1918l-342 -312h-236l313 312h265zM560 571h352l-60 619h-10zM748 1443h278l188 -1443h-247l-37 379h-458l-173 -379h-251z" />
    <glyph glyph-name="Acircumflex" unicode="&#xc2;" 
d="M963 1802l-199 -196h-230l339 324h218l226 -324h-210l-129 196h-15zM560 571h352l-60 619h-10zM748 1443h278l188 -1443h-247l-37 379h-458l-173 -379h-251z" />
    <glyph glyph-name="Atilde" unicode="&#xc3;" 
d="M560 571h352l-60 619h-10zM748 1443h278l188 -1443h-247l-37 379h-458l-173 -379h-251zM1158 1885h153q-11 -127 -78 -205.5t-167 -78.5q-43 0 -79.5 15.5t-60.5 37.5t-45.5 44.5t-45.5 38t-49 15.5q-80 0 -95 -139h-154q13 133 79 211t167 78q44 0 81.5 -16t62.5 -38
t46.5 -44.5t44 -38.5t45.5 -16q80 0 95 136z" />
    <glyph glyph-name="Adieresis" unicode="&#xc4;" 
d="M722 1632q-54 0 -94.5 41t-40.5 98t40.5 98t94.5 41q55 0 95.5 -41t40.5 -98t-40.5 -98t-95.5 -41zM560 571h352l-60 619h-10zM748 1443h278l188 -1443h-247l-37 379h-458l-173 -379h-251zM1161 1910q55 0 95 -41t40 -98t-40 -98t-95 -41t-95 41t-40 98t40 98t95 41z" />
    <glyph glyph-name="Aring" unicode="&#xc5;" 
d="M924 1845q-42 0 -70 -27.5t-28 -69.5q0 -41 28.5 -68.5t69.5 -27.5q43 0 71 27.5t28 68.5q0 42 -28.5 69.5t-70.5 27.5zM925 1553q-85 0 -142 56.5t-57 139.5t57 139t142 56q84 0 141 -56t57 -139t-57 -139.5t-141 -56.5zM560 571h352l-60 619h-10zM967 0l-37 379h-458
l-173 -379h-251l700 1443h278l188 -1443h-247z" />
    <glyph glyph-name="AE" unicode="&#xc6;" 
d="M728 589l111 628h-88l-261 -628h238zM1461 1233h-400l-74 -407h364l-34 -199h-364l-76 -416h400l-35 -211h-619l69 387h-285l-161 -387h-243l634 1443h859z" />
    <glyph glyph-name="Ccedilla" unicode="&#xc7;" 
d="M1353 944h-243q3 33 3 63q0 111 -70.5 178t-188.5 67q-133 0 -221.5 -92.5t-120.5 -265.5l-48 -272q-12 -70 -12 -137q0 -137 73.5 -215.5t203.5 -78.5q119 0 195.5 66.5t101.5 192.5q1 5 1 11h246q-2 -25 -4 -32q-28 -206 -173.5 -330t-363.5 -129l-51 -92
q82 -7 128 -47.5t46 -106.5q0 -99 -72.5 -155.5t-199.5 -56.5q-75 0 -152 23l21 124q51 -19 128 -19q54 0 84 17.5t30 48.5q0 63 -127 63h-55l12 104l61 110q-178 37 -280 171t-102 334q0 74 14 154l45 258q48 278 202.5 425t399.5 147q219 0 357 -126t138 -327
q0 -29 -6 -75z" />
    <glyph glyph-name="Egrave" unicode="&#xc8;" 
d="M1133 211l-35 -211h-887l254 1443h887l-36 -211h-644l-73 -402h608l-34 -197h-607l-77 -422h644zM818 1918l204 -312h-223l-234 312h253z" />
    <glyph glyph-name="Eacute" unicode="&#xc9;" 
d="M778 1606l313 312h265l-342 -312h-236zM1133 211l-35 -211h-887l254 1443h887l-36 -211h-644l-73 -402h608l-34 -197h-607l-77 -422h644z" />
    <glyph glyph-name="Ecircumflex" unicode="&#xca;" 
d="M1103 1930l226 -324h-210l-129 196h-15l-199 -196h-230l339 324h218zM1133 211l-35 -211h-887l254 1443h887l-36 -211h-644l-73 -402h608l-34 -197h-607l-77 -422h644z" />
    <glyph glyph-name="Edieresis" unicode="&#xcb;" 
d="M735 1632q-54 0 -94.5 41t-40.5 98t40.5 98t94.5 41q55 0 95.5 -41t40.5 -98t-40.5 -98t-95.5 -41zM1174 1632q-55 0 -95 41t-40 98t40 98t95 41t95 -41t40 -98t-40 -98t-95 -41zM1133 211l-35 -211h-887l254 1443h887l-36 -211h-644l-73 -402h608l-34 -197h-607
l-77 -422h644z" />
    <glyph glyph-name="Igrave" unicode="&#xcc;" 
d="M806 1918l204 -312h-223l-234 312h253zM1050 0h-834l35 208h297l184 1027h-297l35 208h834l-35 -208h-296l-184 -1027h296z" />
    <glyph glyph-name="Iacute" unicode="&#xcd;" 
d="M1050 0h-834l35 208h297l184 1027h-297l35 208h834l-35 -208h-296l-184 -1027h296zM766 1606l313 312h265l-342 -312h-236z" />
    <glyph glyph-name="Icircumflex" unicode="&#xce;" 
d="M1050 0h-834l35 208h297l184 1027h-297l35 208h834l-35 -208h-296l-184 -1027h296zM1091 1930l226 -324h-210l-129 196h-15l-199 -196h-230l339 324h218z" />
    <glyph glyph-name="Idieresis" unicode="&#xcf;" 
d="M1050 0h-834l35 208h297l184 1027h-297l35 208h834l-35 -208h-296l-184 -1027h296zM723 1632q-54 0 -94.5 41t-40.5 98t40.5 98t94.5 41q55 0 95.5 -41t40.5 -98t-40.5 -98t-95.5 -41zM1162 1632q-55 0 -95 41t-40 98t40 98t95 41t95 -41t40 -98t-40 -98t-95 -41z" />
    <glyph glyph-name="Eth" unicode="&#xd0;" 
d="M414 211h168q200 0 315.5 108.5t153.5 330.5q16 80 18 109q7 61 7 119q0 175 -85 266t-248 91h-146l-72 -404h245l-34 -199h-247zM390 1443h396q259 0 400 -143t141 -405q0 -66 -7 -134q-1 -23 -21 -128q-110 -633 -690 -633h-473l111 632h-125l33 199h127z" />
    <glyph glyph-name="Ntilde" unicode="&#xd1;" 
d="M786 1752q-80 0 -95 -139h-154q13 133 79 211t167 78q44 0 81.5 -16t62.5 -38t46.5 -44.5t44 -38.5t45.5 -16q80 0 95 136h153q-11 -127 -78 -205.5t-167 -78.5q-43 0 -79.5 15.5t-60.5 37.5t-45.5 44.5t-45.5 38t-49 15.5zM349 0h-212l254 1443h220l360 -1028h16
l184 1028h212l-254 -1443h-219l-361 1032h-16z" />
    <glyph glyph-name="Ograve" unicode="&#xd2;" 
d="M487 876l-38 -218q-15 -85 -15 -165q0 -142 72 -224t197 -82q261 0 330 388l40 224q14 79 14 156q0 137 -74 219t-198 82q-260 0 -328 -380zM1314 760l-40 -225q-50 -276 -199 -420t-386 -144q-220 0 -359 141t-139 364q0 136 15 210l40 225q48 270 199 415.5t381 145.5
q225 0 364 -141.5t139 -370.5q0 -107 -15 -200zM805 1918l204 -312h-223l-234 312h253z" />
    <glyph glyph-name="Oacute" unicode="&#xd3;" 
d="M766 1606l313 312h265l-342 -312h-236zM1274 535q-50 -276 -199 -420t-386 -144q-220 0 -359 141t-139 364q0 136 15 210l40 225q48 270 199 415.5t381 145.5q225 0 364 -141.5t139 -370.5q0 -107 -15 -200zM703 187q261 0 330 388l40 224q14 79 14 156q0 137 -74 219
t-198 82q-260 0 -328 -380l-38 -218q-15 -85 -15 -165q0 -142 72 -224t197 -82z" />
    <glyph glyph-name="Ocircumflex" unicode="&#xd4;" 
d="M1091 1930l226 -324h-210l-129 196h-15l-199 -196h-230l339 324h218zM1274 535q-50 -276 -199 -420t-386 -144q-220 0 -359 141t-139 364q0 136 15 210l40 225q48 270 199 415.5t381 145.5q225 0 364 -141.5t139 -370.5q0 -107 -15 -200zM703 187q261 0 330 388l40 224
q14 79 14 156q0 137 -74 219t-198 82q-260 0 -328 -380l-38 -218q-15 -85 -15 -165q0 -142 72 -224t197 -82z" />
    <glyph glyph-name="Otilde" unicode="&#xd5;" 
d="M1274 535q-50 -276 -199 -420t-386 -144q-220 0 -359 141t-139 364q0 136 15 210l40 225q48 270 199 415.5t381 145.5q225 0 364 -141.5t139 -370.5q0 -107 -15 -200zM703 187q261 0 330 388l40 224q14 79 14 156q0 137 -74 219t-198 82q-260 0 -328 -380l-38 -218
q-15 -85 -15 -165q0 -142 72 -224t197 -82zM786 1752q-80 0 -95 -139h-154q13 133 79 211t167 78q44 0 81.5 -16t62.5 -38t46.5 -44.5t44 -38.5t45.5 -16q80 0 95 136h153q-11 -127 -78 -205.5t-167 -78.5q-43 0 -79.5 15.5t-60.5 37.5t-45.5 44.5t-45.5 38t-49 15.5z" />
    <glyph glyph-name="Odieresis" unicode="&#xd6;" 
d="M722 1632q-54 0 -94.5 41t-40.5 98t40.5 98t94.5 41q55 0 95.5 -41t40.5 -98t-40.5 -98t-95.5 -41zM1161 1632q-55 0 -95 41t-40 98t40 98t95 41t95 -41t40 -98t-40 -98t-95 -41zM1274 535q-50 -276 -199 -420t-386 -144q-220 0 -359 141t-139 364q0 136 15 210l40 225
q48 270 199 415.5t381 145.5q225 0 364 -141.5t139 -370.5q0 -107 -15 -200zM703 187q261 0 330 388l40 224q14 79 14 156q0 137 -74 219t-198 82q-260 0 -328 -380l-38 -218q-15 -85 -15 -165q0 -142 72 -224t197 -82z" />
    <glyph glyph-name="multiply" unicode="&#xd7;" 
d="M772 797l366 256l119 -185l-365 -258l254 -365l-174 -132l-254 364l-366 -256l-119 185l365 257l-255 367l174 132z" />
    <glyph glyph-name="Oslash" unicode="&#xd8;" 
d="M1033 575l40 224q14 79 14 156q0 27 -3 51l-604 -701q72 -118 223 -118q261 0 330 388zM487 876l-38 -218q-15 -85 -15 -165q0 -30 3 -57l605 698q-73 122 -227 122q-260 0 -328 -380zM1460 1443l-191 -222q60 -114 60 -261q0 -107 -15 -200l-40 -225q-50 -276 -199 -420
t-386 -144q-228 0 -367 150l-104 -121h-158l191 220q-60 114 -60 256q0 136 15 210l40 225q48 270 199 415.5t381 145.5q236 0 375 -153l108 124h151z" />
    <glyph glyph-name="Ugrave" unicode="&#xd9;" 
d="M207 546l158 897h242l-158 -893q-10 -57 -10 -94q0 -123 73 -195t191 -72q116 0 196.5 79t105.5 219l170 956h241l-177 -991q-41 -228 -184 -354.5t-358 -126.5q-225 0 -362.5 127t-137.5 338q0 51 10 110zM826 1918l204 -312h-223l-234 312h253z" />
    <glyph glyph-name="Uacute" unicode="&#xda;" 
d="M770 1606l313 312h265l-342 -312h-236zM207 546l158 897h242l-158 -893q-10 -57 -10 -94q0 -123 73 -195t191 -72q116 0 196.5 79t105.5 219l170 956h241l-177 -991q-41 -228 -184 -354.5t-358 -126.5q-225 0 -362.5 127t-137.5 338q0 51 10 110z" />
    <glyph glyph-name="Ucircumflex" unicode="&#xdb;" 
d="M1095 1930l226 -324h-210l-129 196h-15l-199 -196h-230l339 324h218zM207 546l158 897h242l-158 -893q-10 -57 -10 -94q0 -123 73 -195t191 -72q116 0 196.5 79t105.5 219l170 956h241l-177 -991q-41 -228 -184 -354.5t-358 -126.5q-225 0 -362.5 127t-137.5 338
q0 51 10 110z" />
    <glyph glyph-name="Udieresis" unicode="&#xdc;" 
d="M726 1632q-54 0 -94.5 41t-40.5 98t40.5 98t94.5 41q55 0 95.5 -41t40.5 -98t-40.5 -98t-95.5 -41zM1165 1632q-55 0 -95 41t-40 98t40 98t95 41t95 -41t40 -98t-40 -98t-95 -41zM207 546l158 897h242l-158 -893q-10 -57 -10 -94q0 -123 73 -195t191 -72q116 0 196.5 79
t105.5 219l170 956h241l-177 -991q-41 -228 -184 -354.5t-358 -126.5q-225 0 -362.5 127t-137.5 338q0 51 10 110z" />
    <glyph glyph-name="Yacute" unicode="&#xdd;" 
d="M754 0h-241l99 561l-327 882h253l221 -636h15l439 636h272l-632 -882zM754 1606l313 312h265l-342 -312h-236z" />
    <glyph glyph-name="Thorn" unicode="&#xde;" 
d="M431 1443h253l-44 -248h243q203 0 315.5 -112t99.5 -302q-13 -225 -152.5 -349.5t-380.5 -124.5h-279l-56 -307h-253zM604 982l-82 -459h239q132 0 207.5 64.5t83.5 183.5q9 103 -48.5 157t-174.5 54h-225z" />
    <glyph glyph-name="germandbls" unicode="&#xdf;" 
d="M385 0h-246l199 1123q30 175 153 269.5t319 94.5q208 0 330.5 -99t122.5 -267q0 -134 -81 -234.5t-207 -124.5l-2 -12q135 -24 211 -114.5t76 -227.5q0 -196 -127 -312.5t-339 -116.5q-132 0 -255 41l36 213q33 -17 87.5 -28t102.5 -11q112 0 178.5 59t66.5 158
q0 101 -75.5 164t-197.5 63h-58l37 220h43q117 0 188.5 61.5t71.5 162.5q0 86 -59 137t-157 51q-95 0 -153.5 -48.5t-74.5 -142.5z" />
    <glyph glyph-name="agrave" unicode="&#xe0;" 
d="M543 -17q-145 0 -237 85.5t-93 219.5q-2 173 121.5 266.5t355.5 97.5l256 4l10 61q6 29 6 55q0 70 -52 111.5t-139 41.5q-75 0 -133 -34t-79 -91h-229q26 137 156 225t306 88q182 0 291.5 -87t109.5 -232q0 -52 -17 -141l-115 -653h-221l26 149h-17
q-40 -79 -120.5 -122.5t-185.5 -43.5zM630 172q100 0 176 63.5t94 163.5l19 100l-220 -3q-120 -1 -185 -46.5t-66 -127.5q-1 -68 49 -109t133 -41zM1016 1296h-225l-213 347h259z" />
    <glyph glyph-name="aacute" unicode="&#xe1;" 
d="M952 1296h-236l301 347h269zM919 499l-220 -3q-120 -1 -185 -46.5t-66 -127.5q-1 -68 49 -109t133 -41q100 0 176 63.5t94 163.5zM866 149h-17q-40 -79 -120.5 -122.5t-185.5 -43.5q-145 0 -237 85.5t-93 219.5q-2 173 121.5 266.5t355.5 97.5l256 4l10 61q6 29 6 55
q0 70 -52 111.5t-139 41.5q-75 0 -133 -34t-79 -91h-229q26 137 156 225t306 88q182 0 291.5 -87t109.5 -232q0 -52 -17 -141l-115 -653h-221z" />
    <glyph glyph-name="acircumflex" unicode="&#xe2;" 
d="M543 -17q-145 0 -237 85.5t-93 219.5q-2 173 121.5 266.5t355.5 97.5l256 4l10 61q6 29 6 55q0 70 -52 111.5t-139 41.5q-75 0 -133 -34t-79 -91h-229q26 137 156 225t306 88q182 0 291.5 -87t109.5 -232q0 -52 -17 -141l-115 -653h-221l26 149h-17
q-40 -79 -120.5 -122.5t-185.5 -43.5zM630 172q100 0 176 63.5t94 163.5l19 100l-220 -3q-120 -1 -185 -46.5t-66 -127.5q-1 -68 49 -109t133 -41zM799 1627h253l209 -351h-227l-117 216h-17l-192 -216h-240z" />
    <glyph glyph-name="atilde" unicode="&#xe3;" 
d="M543 -17q-145 0 -237 85.5t-93 219.5q-2 173 121.5 266.5t355.5 97.5l256 4l10 61q6 29 6 55q0 70 -52 111.5t-139 41.5q-75 0 -133 -34t-79 -91h-229q26 137 156 225t306 88q182 0 291.5 -87t109.5 -232q0 -52 -17 -141l-115 -653h-221l26 149h-17
q-40 -79 -120.5 -122.5t-185.5 -43.5zM630 172q100 0 176 63.5t94 163.5l19 100l-220 -3q-120 -1 -185 -46.5t-66 -127.5q-1 -68 49 -109t133 -41zM745 1418q-40 0 -62 -35.5t-28 -111.5h-167q14 143 82 224.5t176 81.5q45 0 83 -16t63.5 -38.5t48 -44.5t45.5 -38t46 -16
q41 0 62.5 34.5t27.5 108.5h167q-13 -140 -82.5 -222t-175.5 -82q-45 0 -83 16t-63.5 38.5t-48 45.5t-45.5 39t-46 16z" />
    <glyph glyph-name="adieresis" unicode="&#xe4;" 
d="M543 -17q-145 0 -237 85.5t-93 219.5q-2 173 121.5 266.5t355.5 97.5l256 4l10 61q6 29 6 55q0 70 -52 111.5t-139 41.5q-75 0 -133 -34t-79 -91h-229q26 137 156 225t306 88q182 0 291.5 -87t109.5 -232q0 -52 -17 -141l-115 -653h-221l26 149h-17
q-40 -79 -120.5 -122.5t-185.5 -43.5zM630 172q100 0 176 63.5t94 163.5l19 100l-220 -3q-120 -1 -185 -46.5t-66 -127.5q-1 -68 49 -109t133 -41zM674 1292q-54 0 -94.5 41t-40.5 98t40.5 98t94.5 41q55 0 95.5 -41t40.5 -98t-40.5 -98t-95.5 -41zM1113 1292q-55 0 -95 41
t-40 98t40 98t95 41t95 -41t40 -98t-40 -98t-95 -41z" />
    <glyph glyph-name="aring" unicode="&#xe5;" 
d="M543 -17q-145 0 -237 85.5t-93 219.5q-2 173 121.5 266.5t355.5 97.5l256 4l10 61q6 29 6 55q0 70 -52 111.5t-139 41.5q-75 0 -133 -34t-79 -91h-229q26 137 156 225t306 88q182 0 291.5 -87t109.5 -232q0 -52 -17 -141l-115 -653h-221l26 149h-17
q-40 -79 -120.5 -122.5t-185.5 -43.5zM630 172q100 0 176 63.5t94 163.5l19 100l-220 -3q-120 -1 -185 -46.5t-66 -127.5q-1 -68 49 -109t133 -41zM900 1372q46 0 77.5 31.5t31.5 78.5t-31.5 78.5t-77.5 31.5t-77 -31.5t-31 -78.5t31 -78.5t77 -31.5zM900 1245
q-96 0 -164.5 69.5t-68.5 167.5t68.5 167.5t164.5 69.5q97 0 165.5 -69.5t68.5 -167.5t-68.5 -167.5t-165.5 -69.5z" />
    <glyph glyph-name="ae" unicode="&#xe6;" 
d="M1283 329q-29 -156 -126.5 -250.5t-227.5 -94.5q-98 0 -165 56.5t-86 155.5h-5q-41 -99 -121 -155.5t-179 -56.5q-114 0 -189 81.5t-75 204.5q0 159 97.5 257.5t267.5 109.5l170 13l13 71q6 40 6 69q0 62 -32 98t-87 36t-94.5 -37t-52.5 -102h-184q21 148 116 240t226 92
q182 0 234 -158h5q41 73 113 115.5t154 42.5q136 0 213 -109.5t66 -286.5q0 -42 -14 -138q-3 -17 -16 -99h-506q-11 -56 -11 -110q0 -89 39.5 -141.5t106.5 -52.5q59 0 104 40.5t61 108.5h179zM1152 651q8 64 8 103q0 79 -35 125t-96 46q-65 0 -114.5 -60t-70.5 -165
q-9 -45 -9 -49h317zM416 181q68 0 120 60t67 154l16 91l-150 -11q-76 -5 -123.5 -52.5t-47.5 -117.5q0 -55 33 -89.5t85 -34.5z" />
    <glyph glyph-name="ccedilla" unicode="&#xe7;" 
d="M1245 716h-228v12q0 86 -62.5 141t-159.5 55q-235 0 -290 -297l-13 -78q-14 -75 -14 -126q0 -120 60.5 -184.5t172.5 -64.5q186 0 244 173h228q-33 -160 -155.5 -260t-297.5 -109l-55 -100q82 -7 128 -47.5t46 -106.5q0 -99 -72.5 -155.5t-199.5 -56.5q-75 0 -152 23
l21 124q51 -19 128 -19q54 0 84 17.5t30 48.5q0 63 -127 63h-55l12 104l63 115q-157 29 -245.5 136t-88.5 268q0 66 12 143q10 69 26 152q36 202 174.5 317.5t344.5 115.5q197 0 320 -101t123 -264q0 -11 -2 -39z" />
    <glyph glyph-name="egrave" unicode="&#xe8;" 
d="M1008 1296h-225l-213 347h259zM794 934q-107 0 -180 -61.5t-96 -170.5q-5 -25 -10 -55h500q6 27 6 55q10 103 -51 167.5t-169 64.5zM1166 297q-25 -141 -156 -230t-315 -89q-206 0 -325 114t-119 310q0 59 16 159l23 131q33 196 172 310.5t344 114.5q197 0 319 -118.5
t110 -297.5q0 -52 -11 -110l-15 -100h-725q-10 -43 -10 -77q-8 -114 55.5 -182.5t177.5 -68.5q85 0 147.5 36.5t81.5 97.5h230z" />
    <glyph glyph-name="eacute" unicode="&#xe9;" 
d="M936 297h230q-25 -141 -156 -230t-315 -89q-206 0 -325 114t-119 310q0 59 16 159l23 131q33 196 172 310.5t344 114.5q197 0 319 -118.5t110 -297.5q0 -52 -11 -110l-15 -100h-725q-10 -43 -10 -77q-8 -114 55.5 -182.5t177.5 -68.5q85 0 147.5 36.5t81.5 97.5zM508 647
h500q6 27 6 55q10 103 -51 167.5t-169 64.5q-107 0 -180 -61.5t-96 -170.5q-5 -25 -10 -55zM944 1296h-236l301 347h269z" />
    <glyph glyph-name="ecircumflex" unicode="&#xea;" 
d="M791 1627h253l209 -351h-227l-117 216h-17l-192 -216h-240zM794 934q-107 0 -180 -61.5t-96 -170.5q-5 -25 -10 -55h500q6 27 6 55q10 103 -51 167.5t-169 64.5zM1166 297q-25 -141 -156 -230t-315 -89q-206 0 -325 114t-119 310q0 59 16 159l23 131q33 196 172 310.5
t344 114.5q197 0 319 -118.5t110 -297.5q0 -52 -11 -110l-15 -100h-725q-10 -43 -10 -77q-8 -114 55.5 -182.5t177.5 -68.5q85 0 147.5 36.5t81.5 97.5h230z" />
    <glyph glyph-name="edieresis" unicode="&#xeb;" 
d="M794 934q-107 0 -180 -61.5t-96 -170.5q-5 -25 -10 -55h500q6 27 6 55q10 103 -51 167.5t-169 64.5zM1166 297q-25 -141 -156 -230t-315 -89q-206 0 -325 114t-119 310q0 59 16 159l23 131q33 196 172 310.5t344 114.5q197 0 319 -118.5t110 -297.5q0 -52 -11 -110
l-15 -100h-725q-10 -43 -10 -77q-8 -114 55.5 -182.5t177.5 -68.5q85 0 147.5 36.5t81.5 97.5h230zM678 1305q-54 0 -94.5 41t-40.5 98t40.5 98t94.5 41q55 0 95.5 -41t40.5 -98t-40.5 -98t-95.5 -41zM1117 1305q-55 0 -95 41t-40 98t40 98t95 41t95 -41t40 -98t-40 -98
t-95 -41z" />
    <glyph glyph-name="igrave" unicode="&#xec;" 
d="M1038 1296h-225l-213 347h259zM1115 0h-932l32 186h361l130 723h-349l31 186h576l-161 -909h344z" />
    <glyph glyph-name="iacute" unicode="&#xed;" 
d="M1115 0h-932l32 186h361l130 723h-349l31 186h576l-161 -909h344zM973 1296h-236l301 347h269z" />
    <glyph glyph-name="icircumflex" unicode="&#xee;" 
d="M820 1627h253l209 -351h-227l-117 216h-17l-192 -216h-240zM1115 0h-932l32 186h361l130 723h-349l31 186h576l-161 -909h344z" />
    <glyph glyph-name="idieresis" unicode="&#xef;" 
d="M1115 0h-932l32 186h361l130 723h-349l31 186h576l-161 -909h344zM695 1299q-54 0 -94.5 41t-40.5 98t40.5 98t94.5 41q55 0 95.5 -41t40.5 -98t-40.5 -98t-95.5 -41zM1134 1299q-55 0 -95 41t-40 98t40 98t95 41t95 -41t40 -98t-40 -98t-95 -41z" />
    <glyph glyph-name="eth" unicode="&#xf0;" 
d="M933 456l10 66q7 39 7 86q0 100 -61.5 163t-160.5 63q-103 0 -173.5 -69.5t-89.5 -189.5l-7 -48q-7 -43 -7 -99q0 -106 62 -172.5t161 -66.5q100 0 169 71t90 196zM1372 1530l-25 -149l-246 -85q118 -249 118 -523q0 -169 -43 -356q-46 -206 -182.5 -321t-337.5 -115
q-204 0 -328 124t-124 329q0 49 9 121l13 75q33 179 154 288.5t288 109.5q104 0 182 -41.5t122 -119.5h12q-13 168 -102 354l-315 -109l26 148l223 77q-77 122 -170 197h294q54 -57 95 -121z" />
    <glyph glyph-name="ntilde" unicode="&#xf1;" 
d="M747 1418q-40 0 -62 -35.5t-28 -111.5h-167q14 143 82 224.5t176 81.5q45 0 83 -16t63.5 -38.5t48 -44.5t45.5 -38t46 -16q41 0 62.5 34.5t27.5 108.5h167q-13 -140 -82.5 -222t-175.5 -82q-45 0 -83 16t-63.5 38.5t-48 45.5t-45.5 39t-46 16zM160 0l193 1095h225
l-32 -184h14q43 95 130 150.5t201 55.5q156 0 248.5 -94t92.5 -248q0 -57 -15 -139l-111 -636h-233l109 616q9 54 9 98q0 89 -55 144t-148 55q-106 0 -182.5 -71.5t-98.5 -196.5l-114 -645h-233z" />
    <glyph glyph-name="ograve" unicode="&#xf2;" 
d="M999 1296h-225l-213 347h259zM688 -22q-205 0 -333 123t-128 313q0 60 10 116l27 156q35 200 170 315.5t331 115.5q210 0 339.5 -123t129.5 -316q0 -52 -10 -112l-28 -156q-37 -205 -170.5 -318.5t-337.5 -113.5zM761 924q-108 0 -179.5 -70t-94.5 -199l-25 -144
q-8 -45 -8 -91q0 -111 68 -180t177 -69q110 0 180.5 70.5t94.5 204.5l26 147q6 41 6 84q0 110 -68 178.5t-177 68.5z" />
    <glyph glyph-name="oacute" unicode="&#xf3;" 
d="M974 446l26 147q6 41 6 84q0 110 -68 178.5t-177 68.5q-108 0 -179.5 -70t-94.5 -199l-25 -144q-8 -45 -8 -91q0 -111 68 -180t177 -69q110 0 180.5 70.5t94.5 204.5zM1224 566l-28 -156q-37 -205 -170.5 -318.5t-337.5 -113.5q-205 0 -333 123t-128 313q0 60 10 116
l27 156q35 200 170 315.5t331 115.5q210 0 339.5 -123t129.5 -316q0 -52 -10 -112zM935 1296h-236l301 347h269z" />
    <glyph glyph-name="ocircumflex" unicode="&#xf4;" 
d="M782 1627h253l209 -351h-227l-117 216h-17l-192 -216h-240zM688 -22q-205 0 -333 123t-128 313q0 60 10 116l27 156q35 200 170 315.5t331 115.5q210 0 339.5 -123t129.5 -316q0 -52 -10 -112l-28 -156q-37 -205 -170.5 -318.5t-337.5 -113.5zM761 924q-108 0 -179.5 -70
t-94.5 -199l-25 -144q-8 -45 -8 -91q0 -111 68 -180t177 -69q110 0 180.5 70.5t94.5 204.5l26 147q6 41 6 84q0 110 -68 178.5t-177 68.5z" />
    <glyph glyph-name="otilde" unicode="&#xf5;" 
d="M721 1418q-40 0 -62 -35.5t-28 -111.5h-167q14 143 82 224.5t176 81.5q45 0 83 -16t63.5 -38.5t48 -44.5t45.5 -38t46 -16q41 0 62.5 34.5t27.5 108.5h167q-13 -140 -82.5 -222t-175.5 -82q-45 0 -83 16t-63.5 38.5t-48 45.5t-45.5 39t-46 16zM688 -22q-205 0 -333 123
t-128 313q0 60 10 116l27 156q35 200 170 315.5t331 115.5q210 0 339.5 -123t129.5 -316q0 -52 -10 -112l-28 -156q-37 -205 -170.5 -318.5t-337.5 -113.5zM761 924q-108 0 -179.5 -70t-94.5 -199l-25 -144q-8 -45 -8 -91q0 -111 68 -180t177 -69q110 0 180.5 70.5
t94.5 204.5l26 147q6 41 6 84q0 110 -68 178.5t-177 68.5z" />
    <glyph glyph-name="odieresis" unicode="&#xf6;" 
d="M657 1292q-54 0 -94.5 41t-40.5 98t40.5 98t94.5 41q55 0 95.5 -41t40.5 -98t-40.5 -98t-95.5 -41zM1096 1292q-55 0 -95 41t-40 98t40 98t95 41t95 -41t40 -98t-40 -98t-95 -41zM688 -22q-205 0 -333 123t-128 313q0 60 10 116l27 156q35 200 170 315.5t331 115.5
q210 0 339.5 -123t129.5 -316q0 -52 -10 -112l-28 -156q-37 -205 -170.5 -318.5t-337.5 -113.5zM761 924q-108 0 -179.5 -70t-94.5 -199l-25 -144q-8 -45 -8 -91q0 -111 68 -180t177 -69q110 0 180.5 70.5t94.5 204.5l26 147q6 41 6 84q0 110 -68 178.5t-177 68.5z" />
    <glyph glyph-name="divide" unicode="&#xf7;" 
d="M1242 541h-1032l34 200h1032zM794 872q-65 0 -106.5 42t-41.5 108q0 65 41.5 107t106.5 42q66 0 107.5 -42t41.5 -107q0 -66 -41.5 -108t-107.5 -42zM692 112q-65 0 -106.5 41.5t-41.5 106.5q0 66 41.5 108t106.5 42q66 0 107.5 -42t41.5 -108q0 -65 -41.5 -106.5
t-107.5 -41.5z" />
    <glyph glyph-name="oslash" unicode="&#xf8;" 
d="M965 446l26 147q6 41 6 84q0 75 -32 131l-394 -610q51 -27 119 -27q110 0 180.5 70.5t94.5 204.5zM478 655l-25 -144q-8 -45 -8 -91q0 -84 41 -147l397 618q-58 33 -131 33q-108 0 -179.5 -70t-94.5 -199zM1176 1134l-87 -134q136 -123 136 -322q0 -52 -10 -112l-28 -156
q-37 -205 -170.5 -318.5t-337.5 -113.5q-123 0 -220 46l-41 -63h-133l79 123q-70 60 -108 145t-38 185q0 60 10 116l27 156q35 200 170 315.5t331 115.5q134 0 238 -53l45 70h137z" />
    <glyph glyph-name="ugrave" unicode="&#xf9;" 
d="M1001 1296h-225l-213 347h259zM1299 1095l-193 -1095h-225l32 184h-14q-43 -95 -130 -150.5t-201 -55.5q-156 0 -248.5 94t-92.5 248q0 57 15 139l111 636h233l-109 -616q-9 -54 -9 -98q0 -89 55 -144t148 -55q106 0 182.5 71.5t98.5 196.5l114 645h233z" />
    <glyph glyph-name="uacute" unicode="&#xfa;" 
d="M1299 1095l-193 -1095h-225l32 184h-14q-43 -95 -130 -150.5t-201 -55.5q-156 0 -248.5 94t-92.5 248q0 57 15 139l111 636h233l-109 -616q-9 -54 -9 -98q0 -89 55 -144t148 -55q106 0 182.5 71.5t98.5 196.5l114 645h233zM936 1296h-236l301 347h269z" />
    <glyph glyph-name="ucircumflex" unicode="&#xfb;" 
d="M783 1627h253l209 -351h-227l-117 216h-17l-192 -216h-240zM1299 1095l-193 -1095h-225l32 184h-14q-43 -95 -130 -150.5t-201 -55.5q-156 0 -248.5 94t-92.5 248q0 57 15 139l111 636h233l-109 -616q-9 -54 -9 -98q0 -89 55 -144t148 -55q106 0 182.5 71.5t98.5 196.5
l114 645h233z" />
    <glyph glyph-name="udieresis" unicode="&#xfc;" 
d="M1299 1095l-193 -1095h-225l32 184h-14q-43 -95 -130 -150.5t-201 -55.5q-156 0 -248.5 94t-92.5 248q0 57 15 139l111 636h233l-109 -616q-9 -54 -9 -98q0 -89 55 -144t148 -55q106 0 182.5 71.5t98.5 196.5l114 645h233zM658 1292q-54 0 -94.5 41t-40.5 98t40.5 98
t94.5 41q55 0 95.5 -41t40.5 -98t-40.5 -98t-95.5 -41zM1097 1292q-55 0 -95 41t-40 98t40 98t95 41t95 -41t40 -98t-40 -98t-95 -41z" />
    <glyph glyph-name="yacute" unicode="&#xfd;" 
d="M929 1296h-236l301 347h269zM1352 1095l-589 -1120q-110 -211 -218 -289.5t-288 -78.5q-77 0 -97 2l33 193q11 -3 65 -3q79 0 127.5 31.5t89.5 112.5l24 49l-201 1103h248l116 -874h15l420 874h255z" />
    <glyph glyph-name="thorn" unicode="&#xfe;" 
d="M780 -22q-129 0 -222 64.5t-113 168.5h-13l-98 -556h-241l320 1814h241l-96 -544h15q41 85 127.5 135t192.5 50q167 0 267 -106t100 -282q0 -57 -11 -126l-30 -172q-37 -209 -153.5 -327.5t-285.5 -118.5zM717 189q100 0 170.5 67.5t92.5 184.5l26 153q6 33 6 79
q0 108 -62 172.5t-166 64.5q-103 0 -176 -66.5t-96 -179.5q-3 -14 -27 -158q-7 -43 -7 -82q0 -103 67 -169t172 -66z" />
    <glyph glyph-name="ydieresis" unicode="&#xff;" 
d="M257 -393q-77 0 -97 2l33 193q11 -3 65 -3q79 0 127.5 31.5t89.5 112.5l24 49l-201 1103h248l116 -874h15l420 874h255l-589 -1120q-110 -211 -218 -289.5t-288 -78.5zM651 1305q-54 0 -94.5 41t-40.5 98t40.5 98t94.5 41q55 0 95.5 -41t40.5 -98t-40.5 -98t-95.5 -41z
M1090 1305q-55 0 -95 41t-40 98t40 98t95 41t95 -41t40 -98t-40 -98t-95 -41z" />
    <glyph glyph-name="Amacron" unicode="&#x100;" 
d="M560 571h352l-60 619h-10zM748 1443h278l188 -1443h-247l-37 379h-458l-173 -379h-251zM606 1838h696l-29 -166h-696z" />
    <glyph glyph-name="amacron" unicode="&#x101;" 
d="M543 -17q-145 0 -237 85.5t-93 219.5q-2 173 121.5 266.5t355.5 97.5l256 4l10 61q6 29 6 55q0 70 -52 111.5t-139 41.5q-75 0 -133 -34t-79 -91h-229q26 137 156 225t306 88q182 0 291.5 -87t109.5 -232q0 -52 -17 -141l-115 -653h-221l26 149h-17
q-40 -79 -120.5 -122.5t-185.5 -43.5zM630 172q100 0 176 63.5t94 163.5l19 100l-220 -3q-120 -1 -185 -46.5t-66 -127.5q-1 -68 49 -109t133 -41zM1227 1361h-696l29 166h696z" />
    <glyph glyph-name="Abreve" unicode="&#x102;" 
d="M560 571h352l-60 619h-10zM748 1443h278l188 -1443h-247l-37 379h-458l-173 -379h-251zM1157 1923h177q-26 -146 -139.5 -235t-273.5 -89t-255 93.5t-74 230.5h171q-7 -81 39.5 -130t129.5 -49q85 0 147 49.5t78 129.5z" />
    <glyph glyph-name="abreve" unicode="&#x103;" 
d="M543 -17q-145 0 -237 85.5t-93 219.5q-2 173 121.5 266.5t355.5 97.5l256 4l10 61q6 29 6 55q0 70 -52 111.5t-139 41.5q-75 0 -133 -34t-79 -91h-229q26 137 156 225t306 88q182 0 291.5 -87t109.5 -232q0 -52 -17 -141l-115 -653h-221l26 149h-17
q-40 -79 -120.5 -122.5t-185.5 -43.5zM630 172q100 0 176 63.5t94 163.5l19 100l-220 -3q-120 -1 -185 -46.5t-66 -127.5q-1 -68 49 -109t133 -41zM882 1238q-165 0 -264.5 101t-73.5 243h174q-10 -84 39.5 -135t140.5 -51q88 0 149 51t71 135h177q-17 -154 -131.5 -249
t-281.5 -95z" />
    <glyph glyph-name="Aogonek" unicode="&#x104;" 
d="M843 1190l-287 -619h359l-63 619h-9zM964 28l-35 351h-453l-177 -379h-251l700 1443h279l188 -1443q-124 -24 -189 -72t-65 -115q0 -47 35.5 -76.5t93.5 -29.5q40 0 66 6l-25 -142q-45 -16 -118 -16q-112 0 -182 59.5t-70 154.5q0 157 203 259z" />
    <glyph glyph-name="aogonek" unicode="&#x105;" 
d="M630 172q98 0 176.5 65t96.5 162l19 100l-223 -3q-120 -1 -185 -46.5t-66 -127.5q-1 -68 49 -109t133 -41zM853 23l22 126h-23q-39 -74 -125 -120t-184 -46q-145 0 -237 85.5t-93 219.5q-2 173 121.5 266.5t355.5 97.5l258 4l11 61q5 33 5 57q0 69 -51.5 110t-139.5 41
q-75 0 -134 -34t-80 -91h-229q26 137 156.5 225t308.5 88q181 0 290.5 -87t109.5 -232q0 -59 -16 -141l-115 -653q-117 -37 -170 -83t-53 -109q0 -46 33 -73.5t88 -27.5q29 0 51 6l-25 -142q-42 -16 -106 -16q-104 0 -172.5 58.5t-68.5 148.5q0 83 46.5 140.5t165.5 120.5z
" />
    <glyph glyph-name="Cacute" unicode="&#x106;" 
d="M771 1606l313 312h265l-342 -312h-236zM1269 429q-29 -210 -179.5 -334.5t-374.5 -124.5q-233 0 -372.5 141t-139.5 377q0 74 14 154l45 258q48 278 202.5 425t399.5 147q219 0 357 -126t138 -327q0 -29 -6 -75h-243q3 33 3 63q0 111 -70.5 178t-188.5 67
q-133 0 -221.5 -92.5t-120.5 -265.5l-48 -272q-12 -70 -12 -137q0 -137 73.5 -215.5t203.5 -78.5q119 0 195.5 66.5t101.5 192.5q1 5 1 11h246q-2 -25 -4 -32z" />
    <glyph glyph-name="cacute" unicode="&#x107;" 
d="M937 1296h-236l301 347h269zM1245 716h-228v12q0 86 -62.5 141t-159.5 55q-235 0 -290 -297l-13 -78q-14 -75 -14 -126q0 -120 60.5 -184.5t172.5 -64.5q186 0 244 173h228q-35 -168 -166.5 -269t-318.5 -101q-208 0 -329.5 112t-121.5 303q0 66 12 143q10 69 26 152
q36 202 174.5 317.5t344.5 115.5q197 0 320 -101t123 -264q0 -11 -2 -39z" />
    <glyph glyph-name="Ccircumflex" unicode="&#x108;" 
d="M1269 429q-29 -210 -179.5 -334.5t-374.5 -124.5q-233 0 -372.5 141t-139.5 377q0 74 14 154l45 258q48 278 202.5 425t399.5 147q219 0 357 -126t138 -327q0 -29 -6 -75h-243q3 33 3 63q0 111 -70.5 178t-188.5 67q-133 0 -221.5 -92.5t-120.5 -265.5l-48 -272
q-12 -70 -12 -137q0 -137 73.5 -215.5t203.5 -78.5q119 0 195.5 66.5t101.5 192.5q1 5 1 11h246q-2 -25 -4 -32zM1096 1930l226 -324h-210l-129 196h-15l-199 -196h-230l339 324h218z" />
    <glyph glyph-name="ccircumflex" unicode="&#x109;" 
d="M784 1627h253l209 -351h-227l-117 216h-17l-192 -216h-240zM1245 716h-228v12q0 86 -62.5 141t-159.5 55q-235 0 -290 -297l-13 -78q-14 -75 -14 -126q0 -120 60.5 -184.5t172.5 -64.5q186 0 244 173h228q-35 -168 -166.5 -269t-318.5 -101q-208 0 -329.5 112t-121.5 303
q0 66 12 143q10 69 26 152q36 202 174.5 317.5t344.5 115.5q197 0 320 -101t123 -264q0 -11 -2 -39z" />
    <glyph glyph-name="Cdotaccent" unicode="&#x10a;" 
d="M949 1615q-59 0 -102 44t-43 105t43 104.5t102 43.5t102.5 -43.5t43.5 -104.5t-43.5 -105t-102.5 -44zM1269 429q-29 -210 -179.5 -334.5t-374.5 -124.5q-233 0 -372.5 141t-139.5 377q0 74 14 154l45 258q48 278 202.5 425t399.5 147q219 0 357 -126t138 -327
q0 -29 -6 -75h-243q3 33 3 63q0 111 -70.5 178t-188.5 67q-133 0 -221.5 -92.5t-120.5 -265.5l-48 -272q-12 -70 -12 -137q0 -137 73.5 -215.5t203.5 -78.5q119 0 195.5 66.5t101.5 192.5q1 5 1 11h246q-2 -25 -4 -32z" />
    <glyph glyph-name="cdotaccent" unicode="&#x10b;" 
d="M1245 716h-228v12q0 86 -62.5 141t-159.5 55q-235 0 -290 -297l-13 -78q-14 -75 -14 -126q0 -120 60.5 -184.5t172.5 -64.5q186 0 244 173h228q-35 -168 -166.5 -269t-318.5 -101q-208 0 -329.5 112t-121.5 303q0 66 12 143q10 69 26 152q36 202 174.5 317.5t344.5 115.5
q197 0 320 -101t123 -264q0 -11 -2 -39zM877 1289q-59 0 -102 44t-43 105t43 104.5t102 43.5t102.5 -43.5t43.5 -104.5t-43.5 -105t-102.5 -44z" />
    <glyph glyph-name="Ccaron" unicode="&#x10c;" 
d="M1269 429q-29 -210 -179.5 -334.5t-374.5 -124.5q-233 0 -372.5 141t-139.5 377q0 74 14 154l45 258q48 278 202.5 425t399.5 147q219 0 357 -126t138 -327q0 -29 -6 -75h-243q3 33 3 63q0 111 -70.5 178t-188.5 67q-133 0 -221.5 -92.5t-120.5 -265.5l-48 -272
q-12 -70 -12 -137q0 -137 73.5 -215.5t203.5 -78.5q119 0 195.5 66.5t101.5 192.5q1 5 1 11h246q-2 -25 -4 -32zM811 1600l-226 324h210l129 -196h15l199 196h230l-339 -324h-218z" />
    <glyph glyph-name="ccaron" unicode="&#x10d;" 
d="M975 1296h-253l-209 351h227l117 -216h17l192 216h240zM1245 716h-228v12q0 86 -62.5 141t-159.5 55q-235 0 -290 -297l-13 -78q-14 -75 -14 -126q0 -120 60.5 -184.5t172.5 -64.5q186 0 244 173h228q-35 -168 -166.5 -269t-318.5 -101q-208 0 -329.5 112t-121.5 303
q0 66 12 143q10 69 26 152q36 202 174.5 317.5t344.5 115.5q197 0 320 -101t123 -264q0 -11 -2 -39z" />
    <glyph glyph-name="Dcaron" unicode="&#x10e;" 
d="M743 1600l-226 324h210l129 -196h15l199 196h230l-339 -324h-218zM786 1443q259 0 400 -143t141 -405q0 -66 -7 -134q-1 -23 -21 -128q-110 -633 -690 -633h-473l254 1443h396zM743 1235h-146l-183 -1024h168q200 0 315.5 108.5t153.5 330.5q16 80 18 109q7 61 7 119
q0 175 -85 266t-248 91z" />
    <glyph glyph-name="dcaron" unicode="&#x10f;" 
d="M1343 1518h190l-119 -477h-155zM594 1114q112 0 182.5 -58t88.5 -155h12l110 617h213l-267 -1518h-210l32 178h-16q-78 -195 -270 -195q-150 0 -238 94.5t-88 254.5q0 76 12 136l39 232q34 195 139 304.5t261 109.5zM630 914q-97 0 -155.5 -58t-80.5 -181l-32 -188
q-7 -37 -7 -80q0 -101 51 -159.5t142 -58.5q100 0 164 61t86 179l34 197q6 37 6 79q0 89 -57.5 149t-150.5 60z" />
    <glyph glyph-name="Dcroat" unicode="&#x110;" 
d="M429 200h162q196 0 316 111t160 330q15 69 20 121q7 70 7 138q0 343 -338 343h-141l-74 -414h272l-33 -189h-273zM425 1443h356q257 0 400.5 -142t143.5 -395q0 -88 -7 -147q-1 -12 -11.5 -73t-11.5 -67q-55 -303 -233.5 -461t-469.5 -158h-421l113 640h-143l33 189h143z
" />
    <glyph glyph-name="dcroat" unicode="&#x111;" 
d="M944 444l29 166q6 34 6 68q0 102 -68 169t-171 67q-106 0 -174.5 -65.5t-90.5 -187.5l-27 -156q-8 -48 -8 -91q0 -101 60.5 -163t160.5 -62q110 0 185.5 68t97.5 187zM1498 1393l-22 -131h-153l-223 -1262h-236l34 196h-15q-36 -97 -122.5 -155t-194.5 -58
q-168 0 -267.5 102.5t-99.5 275.5q0 78 10 136l31 177q36 207 154.5 323.5t291.5 116.5q123 0 211.5 -63t105.5 -167h14l67 378h-180l22 131h182l22 125h238l-22 -125h152z" />
    <glyph glyph-name="Emacron" unicode="&#x112;" 
d="M1133 211l-35 -211h-887l254 1443h887l-36 -211h-644l-73 -402h608l-34 -197h-607l-77 -422h644zM1286 1672h-696l29 166h696z" />
    <glyph glyph-name="emacron" unicode="&#x113;" 
d="M794 934q-107 0 -180 -61.5t-96 -170.5q-5 -25 -10 -55h500q6 27 6 55q10 103 -51 167.5t-169 64.5zM1166 297q-25 -141 -156 -230t-315 -89q-206 0 -325 114t-119 310q0 59 16 159l23 131q33 196 172 310.5t344 114.5q197 0 319 -118.5t110 -297.5q0 -52 -11 -110
l-15 -100h-725q-10 -43 -10 -77q-8 -114 55.5 -182.5t177.5 -68.5q85 0 147.5 36.5t81.5 97.5h230zM1219 1361h-696l29 166h696z" />
    <glyph glyph-name="Ebreve" unicode="&#x114;" 
d="M1133 211l-35 -211h-887l254 1443h887l-36 -211h-644l-73 -402h608l-34 -197h-607l-77 -422h644zM934 1599q-160 0 -255 93.5t-74 230.5h171q-7 -81 39.5 -130t129.5 -49q85 0 147 49.5t78 129.5h177q-26 -146 -139.5 -235t-273.5 -89z" />
    <glyph glyph-name="ebreve" unicode="&#x115;" 
d="M794 934q-107 0 -180 -61.5t-96 -170.5q-5 -25 -10 -55h500q6 27 6 55q10 103 -51 167.5t-169 64.5zM1166 297q-25 -141 -156 -230t-315 -89q-206 0 -325 114t-119 310q0 59 16 159l23 131q33 196 172 310.5t344 114.5q197 0 319 -118.5t110 -297.5q0 -52 -11 -110
l-15 -100h-725q-10 -43 -10 -77q-8 -114 55.5 -182.5t177.5 -68.5q85 0 147.5 36.5t81.5 97.5h230zM874 1238q-165 0 -264.5 101t-73.5 243h174q-10 -84 39.5 -135t140.5 -51q88 0 149 51t71 135h177q-17 -154 -131.5 -249t-281.5 -95z" />
    <glyph glyph-name="Edotaccent" unicode="&#x116;" 
d="M956 1615q-59 0 -102 44t-43 105t43 104.5t102 43.5t102.5 -43.5t43.5 -104.5t-43.5 -105t-102.5 -44zM1133 211l-35 -211h-887l254 1443h887l-36 -211h-644l-73 -402h608l-34 -197h-607l-77 -422h644z" />
    <glyph glyph-name="edotaccent" unicode="&#x117;" 
d="M884 1289q-59 0 -102 44t-43 105t43 104.5t102 43.5t102.5 -43.5t43.5 -104.5t-43.5 -105t-102.5 -44zM794 934q-107 0 -180 -61.5t-96 -170.5q-5 -25 -10 -55h500q6 27 6 55q10 103 -51 167.5t-169 64.5zM1166 297q-25 -141 -156 -230t-315 -89q-206 0 -325 114
t-119 310q0 59 16 159l23 131q33 196 172 310.5t344 114.5q197 0 319 -118.5t110 -297.5q0 -52 -11 -110l-15 -100h-725q-10 -43 -10 -77q-8 -114 55.5 -182.5t177.5 -68.5q85 0 147.5 36.5t81.5 97.5h230z" />
    <glyph glyph-name="Eogonek" unicode="&#x118;" 
d="M828 -15l2 15h-619l254 1443h887l-36 -211h-644l-73 -402h608l-34 -197h-607l-77 -422h650l-35 -208q-125 -26 -190 -76t-65 -118q0 -47 34.5 -74.5t94.5 -27.5q34 0 66 6l-25 -142q-45 -16 -118 -16q-109 0 -179.5 56t-70.5 142q0 158 177 232z" />
    <glyph glyph-name="eogonek" unicode="&#x119;" 
d="M844 -440q-107 0 -178 57.5t-71 144.5q0 65 38.5 118t123.5 105l-1 15q-31 -17 -71 -17q-198 -4 -316 110t-118 309q0 57 16 159l23 131q33 196 172 310.5t344 114.5q197 0 319 -118.5t110 -297.5q0 -55 -11 -110l-15 -100h-725q-10 -43 -10 -77q-8 -114 55.5 -182.5
t177.5 -68.5q87 0 153.5 37t85.5 97h228q-15 -80 -60.5 -139.5t-135.5 -121.5q-107 -74 -145.5 -119t-38.5 -101q0 -46 36.5 -75t95.5 -29q42 0 64 6l-25 -141q-45 -17 -121 -17zM794 934q-105 0 -177 -58.5t-96 -163.5q-11 -43 -13 -65h500q6 27 6 55q10 103 -51 167.5
t-169 64.5z" />
    <glyph glyph-name="Ecaron" unicode="&#x11a;" 
d="M818 1600l-226 324h210l129 -196h15l199 196h230l-339 -324h-218zM1133 211l-35 -211h-887l254 1443h887l-36 -211h-644l-73 -402h608l-34 -197h-607l-77 -422h644z" />
    <glyph glyph-name="ecaron" unicode="&#x11b;" 
d="M982 1296h-253l-209 351h227l117 -216h17l192 216h240zM794 934q-107 0 -180 -61.5t-96 -170.5q-5 -25 -10 -55h500q6 27 6 55q10 103 -51 167.5t-169 64.5zM1166 297q-25 -141 -156 -230t-315 -89q-206 0 -325 114t-119 310q0 59 16 159l23 131q33 196 172 310.5
t344 114.5q197 0 319 -118.5t110 -297.5q0 -52 -11 -110l-15 -100h-725q-10 -43 -10 -77q-8 -114 55.5 -182.5t177.5 -68.5q85 0 147.5 36.5t81.5 97.5h230z" />
    <glyph glyph-name="Gcircumflex" unicode="&#x11c;" 
d="M1061 1930l226 -324h-210l-129 196h-15l-199 -196h-230l339 324h218zM1247 423q-37 -215 -180 -334t-363 -119q-230 0 -368 139t-138 370q0 80 14 161l49 280q47 265 201.5 408.5t392.5 143.5q217 0 351.5 -124t134.5 -323q0 -28 -3 -53h-236q2 28 2 42q0 106 -72.5 173
t-188.5 67q-132 0 -221 -94t-120 -268l-48 -273q-14 -82 -14 -139q0 -137 74.5 -216t203.5 -79q120 0 199 70t101 196l22 115h-305l33 187h538z" />
    <glyph glyph-name="gcircumflex" unicode="&#x11d;" 
d="M738 1627h253l209 -351h-227l-117 216h-17l-192 -216h-240zM737 914q-101 0 -172.5 -69t-93.5 -188l-20 -113q-9 -52 -9 -98q0 -107 63.5 -171t168.5 -64q101 0 175 69t94 182l23 133q8 48 8 85q0 103 -66.5 168.5t-170.5 65.5zM570 -411q-195 0 -320 86.5t-125 222.5v22
h228v-8q4 -64 70.5 -105t165.5 -41q241 0 285 246l35 201h-15q-36 -92 -126 -148.5t-202 -56.5q-161 0 -263.5 107.5t-102.5 277.5q0 67 12 141l22 138q34 205 153 323.5t292 118.5q129 0 215.5 -60.5t115.5 -170.5h17l36 212h232l-191 -1090q-36 -202 -173.5 -309
t-360.5 -107z" />
    <glyph glyph-name="Gbreve" unicode="&#x11e;" 
d="M1247 423q-37 -215 -180 -334t-363 -119q-230 0 -368 139t-138 370q0 80 14 161l49 280q47 265 201.5 408.5t392.5 143.5q217 0 351.5 -124t134.5 -323q0 -28 -3 -53h-236q2 28 2 42q0 106 -72.5 173t-188.5 67q-132 0 -221 -94t-120 -268l-48 -273q-14 -82 -14 -139
q0 -137 74.5 -216t203.5 -79q120 0 199 70t101 196l22 115h-305l33 187h538zM891 1599q-160 0 -255 93.5t-74 230.5h171q-7 -81 39.5 -130t129.5 -49q85 0 147 49.5t78 129.5h177q-26 -146 -139.5 -235t-273.5 -89z" />
    <glyph glyph-name="gbreve" unicode="&#x11f;" 
d="M821 1238q-165 0 -264.5 101t-73.5 243h174q-10 -84 39.5 -135t140.5 -51q88 0 149 51t71 135h177q-17 -154 -131.5 -249t-281.5 -95zM737 914q-101 0 -172.5 -69t-93.5 -188l-20 -113q-9 -52 -9 -98q0 -107 63.5 -171t168.5 -64q101 0 175 69t94 182l23 133q8 48 8 85
q0 103 -66.5 168.5t-170.5 65.5zM570 -411q-195 0 -320 86.5t-125 222.5v22h228v-8q4 -64 70.5 -105t165.5 -41q241 0 285 246l35 201h-15q-36 -92 -126 -148.5t-202 -56.5q-161 0 -263.5 107.5t-102.5 277.5q0 67 12 141l22 138q34 205 153 323.5t292 118.5
q129 0 215.5 -60.5t115.5 -170.5h17l36 212h232l-191 -1090q-36 -202 -173.5 -309t-360.5 -107z" />
    <glyph glyph-name="Gdotaccent" unicode="&#x120;" 
d="M913 1615q-59 0 -102 44t-43 105t43 104.5t102 43.5t102.5 -43.5t43.5 -104.5t-43.5 -105t-102.5 -44zM1247 423q-37 -215 -180 -334t-363 -119q-230 0 -368 139t-138 370q0 80 14 161l49 280q47 265 201.5 408.5t392.5 143.5q217 0 351.5 -124t134.5 -323q0 -28 -3 -53
h-236q2 28 2 42q0 106 -72.5 173t-188.5 67q-132 0 -221 -94t-120 -268l-48 -273q-14 -82 -14 -139q0 -137 74.5 -216t203.5 -79q120 0 199 70t101 196l22 115h-305l33 187h538z" />
    <glyph glyph-name="gdotaccent" unicode="&#x121;" 
d="M831 1289q-59 0 -102 44t-43 105t43 104.5t102 43.5t102.5 -43.5t43.5 -104.5t-43.5 -105t-102.5 -44zM737 914q-101 0 -172.5 -69t-93.5 -188l-20 -113q-9 -52 -9 -98q0 -107 63.5 -171t168.5 -64q101 0 175 69t94 182l23 133q8 48 8 85q0 103 -66.5 168.5t-170.5 65.5z
M570 -411q-195 0 -320 86.5t-125 222.5v22h228v-8q4 -64 70.5 -105t165.5 -41q241 0 285 246l35 201h-15q-36 -92 -126 -148.5t-202 -56.5q-161 0 -263.5 107.5t-102.5 277.5q0 67 12 141l22 138q34 205 153 323.5t292 118.5q129 0 215.5 -60.5t115.5 -170.5h17l36 212h232
l-191 -1090q-36 -202 -173.5 -309t-360.5 -107z" />
    <glyph glyph-name="Gcommaaccent" unicode="&#x122;" 
d="M602 -503h-208l151 357h236zM1247 423q-37 -215 -180 -334t-363 -119q-230 0 -368 139t-138 370q0 80 14 161l49 280q47 265 201.5 408.5t392.5 143.5q217 0 351.5 -124t134.5 -323q0 -28 -3 -53h-236q2 28 2 42q0 106 -72.5 173t-188.5 67q-132 0 -221 -94t-120 -268
l-48 -273q-14 -82 -14 -139q0 -137 74.5 -216t203.5 -79q120 0 199 70t101 196l22 115h-305l33 187h538z" />
    <glyph glyph-name="gcommaaccent" unicode="&#x123;" 
d="M912 1273h-208l151 357h236zM737 914q-101 0 -172.5 -69t-93.5 -188l-20 -113q-9 -52 -9 -98q0 -107 63.5 -171t168.5 -64q101 0 175 69t94 182l23 133q8 48 8 85q0 103 -66.5 168.5t-170.5 65.5zM570 -411q-195 0 -320 86.5t-125 222.5v22h228v-8q4 -64 70.5 -105
t165.5 -41q241 0 285 246l35 201h-15q-36 -92 -126 -148.5t-202 -56.5q-161 0 -263.5 107.5t-102.5 277.5q0 67 12 141l22 138q34 205 153 323.5t292 118.5q129 0 215.5 -60.5t115.5 -170.5h17l36 212h232l-191 -1090q-36 -202 -173.5 -309t-360.5 -107z" />
    <glyph glyph-name="Hcircumflex" unicode="&#x124;" 
d="M1134 0h-238l112 629h-527l-111 -629h-238l254 1443h238l-107 -603h527l106 603h238zM1082 1930l226 -324h-210l-129 196h-15l-199 -196h-230l339 324h218z" />
    <glyph glyph-name="hcircumflex" unicode="&#x125;" 
d="M158 0l267 1518h226l-108 -607h14q46 94 135 149t199 55q155 0 249.5 -93t94.5 -247q0 -45 -15 -137l-111 -638h-233l109 616q10 58 10 95q0 88 -57.5 144t-150.5 56q-107 0 -184 -71t-99 -195l-114 -645h-232zM743 2005l226 -324h-210l-129 196h-15l-199 -196h-230
l339 324h218z" />
    <glyph glyph-name="Hbar" unicode="&#x126;" 
d="M533 835h491l43 240h-491zM504 629l-112 -629h-242l189 1071h-108l29 172h108l36 200h242l-35 -200h479l35 200h242l-35 -200h111l-29 -172h-111l-190 -1071h-242l112 629h-479z" />
    <glyph glyph-name="hbar" unicode="&#x127;" 
d="M543 911h14q46 94 135 149t199 55q155 0 249.5 -93t94.5 -247q0 -45 -15 -137l-111 -638h-233l109 616q10 58 10 95q0 88 -57.5 144t-150.5 56q-107 0 -184 -71t-99 -195l-114 -645h-232l222 1263h-140l22 131h141l22 124h226l-22 -124h256l-22 -131h-257z" />
    <glyph glyph-name="Itilde" unicode="&#x128;" 
d="M1050 0h-834l35 208h297l184 1027h-297l35 208h834l-35 -208h-296l-184 -1027h296zM787 1752q-80 0 -95 -139h-154q13 133 79 211t167 78q44 0 81.5 -16t62.5 -38t46.5 -44.5t44 -38.5t45.5 -16q80 0 95 136h153q-11 -127 -78 -205.5t-167 -78.5q-43 0 -79.5 15.5
t-60.5 37.5t-45.5 44.5t-45.5 38t-49 15.5z" />
    <glyph glyph-name="itilde" unicode="&#x129;" 
d="M1115 0h-932l32 186h361l130 723h-349l31 186h576l-161 -909h344zM766 1418q-40 0 -62 -35.5t-28 -111.5h-167q14 143 82 224.5t176 81.5q45 0 83 -16t63.5 -38.5t48 -44.5t45.5 -38t46 -16q41 0 62.5 34.5t27.5 108.5h167q-13 -140 -82.5 -222t-175.5 -82q-45 0 -83 16
t-63.5 38.5t-48 45.5t-45.5 39t-46 16z" />
    <glyph glyph-name="Imacron" unicode="&#x12a;" 
d="M1050 0h-834l35 208h297l184 1027h-297l35 208h834l-35 -208h-296l-184 -1027h296zM1274 1672h-696l29 166h696z" />
    <glyph glyph-name="imacron" unicode="&#x12b;" 
d="M1115 0h-932l32 186h361l130 723h-349l31 186h576l-161 -909h344zM1248 1361h-696l29 166h696z" />
    <glyph glyph-name="Ibreve" unicode="&#x12c;" 
d="M1050 0h-834l35 208h297l184 1027h-297l35 208h834l-35 -208h-296l-184 -1027h296zM922 1599q-160 0 -255 93.5t-74 230.5h171q-7 -81 39.5 -130t129.5 -49q85 0 147 49.5t78 129.5h177q-26 -146 -139.5 -235t-273.5 -89z" />
    <glyph glyph-name="ibreve" unicode="&#x12d;" 
d="M1115 0h-932l32 186h361l130 723h-349l31 186h576l-161 -909h344zM903 1238q-165 0 -264.5 101t-73.5 243h174q-10 -84 39.5 -135t140.5 -51q88 0 149 51t71 135h177q-17 -154 -131.5 -249t-281.5 -95z" />
    <glyph glyph-name="Iogonek" unicode="&#x12e;" 
d="M784 0h-568l35 208h297l184 1027h-297l35 208h834l-35 -208h-296l-184 -1027h296l-35 -205q-118 -25 -182.5 -75.5t-64.5 -118.5q0 -46 35.5 -74t92.5 -28q37 0 67 6l-25 -142q-45 -16 -117 -16q-110 0 -180.5 57t-70.5 146q0 74 46 133t131 94z" />
    <glyph glyph-name="iogonek" unicode="&#x12f;" 
d="M911 1338q-74 0 -121.5 44.5t-47.5 114.5t47.5 114.5t121.5 44.5q75 0 122.5 -44.5t47.5 -114.5t-47.5 -114.5t-122.5 -44.5zM866 -6v6h-683l32 186h361l130 723h-349l31 186h576l-161 -909h344l-32 -183l-22 -6q-102 -28 -157.5 -78t-55.5 -114q0 -45 32 -71.5t87 -26.5
q34 0 62 6l-25 -142q-42 -16 -113 -16q-106 0 -174 56t-68 142q0 151 185 241z" />
    <glyph glyph-name="Idotaccent" unicode="&#x130;" 
d="M1050 0h-834l35 208h297l184 1027h-297l35 208h834l-35 -208h-296l-184 -1027h296zM944 1615q-59 0 -102 44t-43 105t43 104.5t102 43.5t102.5 -43.5t43.5 -104.5t-43.5 -105t-102.5 -44z" />
    <glyph glyph-name="dotlessi" unicode="&#x131;" 
d="M1115 0h-932l32 186h361l130 723h-349l31 186h576l-161 -909h344z" />
    <glyph glyph-name="IJ" unicode="&#x132;" 
d="M858 -35q-147 0 -226 81t-79 230q0 51 11 119h219q-9 -59 -9 -89q0 -58 26 -89t76 -31q66 0 106.5 55.5t62.5 181.5l145 811h-359l35 209h585l-184 -1040q-76 -438 -409 -438zM387 0h-227l254 1443h227z" />
    <glyph glyph-name="ij" unicode="&#x133;" 
d="M463 0h-221l193 1095h221zM1233 1095l-188 -1067q-35 -203 -152.5 -289t-351.5 -86q-200 0 -268 5l33 194q50 -5 266 -5q120 0 177.5 40.5t74.5 138.5l188 1069h221zM1182 1338q-75 0 -122 44t-47 115t47 115t122 44q74 0 121.5 -44.5t47.5 -114.5t-47.5 -114.5
t-121.5 -44.5zM613 1338q-74 0 -121.5 44.5t-47.5 114.5t47.5 114.5t121.5 44.5q75 0 122.5 -44.5t47.5 -114.5t-47.5 -114.5t-122.5 -44.5z" />
    <glyph glyph-name="Jcircumflex" unicode="&#x134;" 
d="M639 -29q-197 0 -319.5 108.5t-122.5 283.5q0 29 4 50h227q-2 -16 -2 -26q0 -86 60.5 -141t156.5 -55q98 0 160.5 60.5t82.5 174.5l146 809h-509l34 208h752l-186 -1049q-37 -209 -159.5 -316t-324.5 -107zM1106 1930l226 -324h-210l-129 196h-15l-199 -196h-230l339 324
h218z" />
    <glyph glyph-name="jcircumflex" unicode="&#x135;" 
d="M1086 1095l-189 -1067q-35 -200 -146 -287.5t-330 -87.5q-191 0 -302 10l35 204q99 -10 283 -10q109 0 163.5 42t70.5 136l156 874h-471l33 186h697zM939 1627h253l209 -351h-227l-117 216h-17l-192 -216h-240z" />
    <glyph glyph-name="Kcommaaccent" unicode="&#x136;" 
d="M881 803l376 -803h-268l-306 648l-188 -181l-83 -467h-231l254 1443h231l-122 -677h15l667 677h280zM619 -503h-208l151 357h236z" />
    <glyph glyph-name="kcommaaccent" unicode="&#x137;" 
d="M531 397l-71 -397h-232l268 1518h232l-151 -854h14l493 431h299l-519 -455l354 -640h-261l-285 514zM619 -503h-208l151 357h236z" />
    <glyph glyph-name="Lacute" unicode="&#x139;" 
d="M497 1606l313 312h265l-342 -312h-236zM1172 215l-37 -215h-891l254 1443h239l-218 -1228h653z" />
    <glyph glyph-name="lacute" unicode="&#x13a;" 
d="M917 1681l313 312h265l-342 -312h-236zM1115 0h-932l32 186h358l205 1146h-347l32 186h579l-236 -1332h341z" />
    <glyph glyph-name="Lcommaaccent" unicode="&#x13b;" 
d="M623 -503h-208l151 357h236zM1172 215l-37 -215h-891l254 1443h239l-218 -1228h653z" />
    <glyph glyph-name="lcommaaccent" unicode="&#x13c;" 
d="M554 -503h-208l151 357h236zM1115 0h-932l32 186h358l205 1146h-347l32 186h579l-236 -1332h341z" />
    <glyph glyph-name="Lcaron" unicode="&#x13d;" 
d="M1024 1443h201l-128 -492h-159zM1172 215l-37 -215h-891l254 1443h239l-218 -1228h653z" />
    <glyph glyph-name="lcaron" unicode="&#x13e;" 
d="M1263 1518h211l-128 -477h-167zM1115 0h-932l32 186h358l205 1146h-347l32 186h579l-236 -1332h341z" />
    <glyph glyph-name="Ldot" unicode="&#x13f;" 
d="M1145 925q-59 0 -102 44t-43 105t43 104.5t102 43.5t102.5 -43.5t43.5 -104.5t-43.5 -105t-102.5 -44zM1172 215l-37 -215h-891l254 1443h239l-218 -1228h653z" />
    <glyph glyph-name="ldot" unicode="&#x140;" 
d="M1115 0h-932l32 186h358l205 1146h-347l32 186h579l-236 -1332h341zM1275 701q-59 0 -102 44t-43 105t43 104.5t102 43.5t102.5 -43.5t43.5 -104.5t-43.5 -105t-102.5 -44z" />
    <glyph glyph-name="Lslash" unicode="&#x141;" 
d="M519 215h653l-37 -215h-891l95 541l-192 -97l35 204l193 98l123 697h239l-100 -563l531 270l-36 -210l-532 -268z" />
    <glyph glyph-name="lslash" unicode="&#x142;" 
d="M1259 942l-350 -176l-103 -580h341l-32 -186h-932l32 186h358l81 452l-381 -192l35 200l382 194l88 492h-347l32 186h579l-97 -548l349 177z" />
    <glyph glyph-name="Nacute" unicode="&#x143;" 
d="M765 1606l313 312h265l-342 -312h-236zM349 0h-212l254 1443h220l360 -1028h16l184 1028h212l-254 -1443h-219l-361 1032h-16z" />
    <glyph glyph-name="nacute" unicode="&#x144;" 
d="M160 0l193 1095h225l-32 -184h14q43 95 130 150.5t201 55.5q156 0 248.5 -94t92.5 -248q0 -57 -15 -139l-111 -636h-233l109 616q9 54 9 98q0 89 -55 144t-148 55q-106 0 -182.5 -71.5t-98.5 -196.5l-114 -645h-233zM954 1296h-236l301 347h269z" />
    <glyph glyph-name="Ncommaaccent" unicode="&#x145;" 
d="M563 -503h-208l151 357h236zM349 0h-212l254 1443h220l360 -1028h16l184 1028h212l-254 -1443h-219l-361 1032h-16z" />
    <glyph glyph-name="ncommaaccent" unicode="&#x146;" 
d="M540 -503h-208l151 357h236zM160 0l193 1095h225l-32 -184h14q43 95 130 150.5t201 55.5q156 0 248.5 -94t92.5 -248q0 -57 -15 -139l-111 -636h-233l109 616q9 54 9 98q0 89 -55 144t-148 55q-106 0 -182.5 -71.5t-98.5 -196.5l-114 -645h-233z" />
    <glyph glyph-name="Ncaron" unicode="&#x147;" 
d="M805 1600l-226 324h210l129 -196h15l199 196h230l-339 -324h-218zM349 0h-212l254 1443h220l360 -1028h16l184 1028h212l-254 -1443h-219l-361 1032h-16z" />
    <glyph glyph-name="ncaron" unicode="&#x148;" 
d="M992 1296h-253l-209 351h227l117 -216h17l192 216h240zM160 0l193 1095h225l-32 -184h14q43 95 130 150.5t201 55.5q156 0 248.5 -94t92.5 -248q0 -57 -15 -139l-111 -636h-233l109 616q9 54 9 98q0 89 -55 144t-148 55q-106 0 -182.5 -71.5t-98.5 -196.5l-114 -645h-233
z" />
    <glyph glyph-name="Omacron" unicode="&#x14c;" 
d="M1274 535q-50 -276 -199 -420t-386 -144q-220 0 -359 141t-139 364q0 136 15 210l40 225q48 270 199 415.5t381 145.5q225 0 364 -141.5t139 -370.5q0 -107 -15 -200zM703 187q261 0 330 388l40 224q14 79 14 156q0 137 -74 219t-198 82q-260 0 -328 -380l-38 -218
q-15 -85 -15 -165q0 -142 72 -224t197 -82zM1273 1672h-696l29 166h696z" />
    <glyph glyph-name="omacron" unicode="&#x14d;" 
d="M1210 1361h-696l29 166h696zM688 -22q-205 0 -333 123t-128 313q0 60 10 116l27 156q35 200 170 315.5t331 115.5q210 0 339.5 -123t129.5 -316q0 -52 -10 -112l-28 -156q-37 -205 -170.5 -318.5t-337.5 -113.5zM761 924q-108 0 -179.5 -70t-94.5 -199l-25 -144
q-8 -45 -8 -91q0 -111 68 -180t177 -69q110 0 180.5 70.5t94.5 204.5l26 147q6 41 6 84q0 110 -68 178.5t-177 68.5z" />
    <glyph glyph-name="Obreve" unicode="&#x14e;" 
d="M1274 535q-50 -276 -199 -420t-386 -144q-220 0 -359 141t-139 364q0 136 15 210l40 225q48 270 199 415.5t381 145.5q225 0 364 -141.5t139 -370.5q0 -107 -15 -200zM703 187q261 0 330 388l40 224q14 79 14 156q0 137 -74 219t-198 82q-260 0 -328 -380l-38 -218
q-15 -85 -15 -165q0 -142 72 -224t197 -82zM921 1599q-160 0 -255 93.5t-74 230.5h171q-7 -81 39.5 -130t129.5 -49q85 0 147 49.5t78 129.5h177q-26 -146 -139.5 -235t-273.5 -89z" />
    <glyph glyph-name="obreve" unicode="&#x14f;" 
d="M865 1238q-165 0 -264.5 101t-73.5 243h174q-10 -84 39.5 -135t140.5 -51q88 0 149 51t71 135h177q-17 -154 -131.5 -249t-281.5 -95zM688 -22q-205 0 -333 123t-128 313q0 60 10 116l27 156q35 200 170 315.5t331 115.5q210 0 339.5 -123t129.5 -316q0 -52 -10 -112
l-28 -156q-37 -205 -170.5 -318.5t-337.5 -113.5zM761 924q-108 0 -179.5 -70t-94.5 -199l-25 -144q-8 -45 -8 -91q0 -111 68 -180t177 -69q110 0 180.5 70.5t94.5 204.5l26 147q6 41 6 84q0 110 -68 178.5t-177 68.5z" />
    <glyph glyph-name="Ohungarumlaut" unicode="&#x150;" 
d="M1036 1606l296 312h228l-317 -312h-207zM633 1606l296 312h228l-317 -312h-207zM1274 535q-50 -276 -199 -420t-386 -144q-220 0 -359 141t-139 364q0 136 15 210l40 225q48 270 199 415.5t381 145.5q225 0 364 -141.5t139 -370.5q0 -107 -15 -200zM703 187
q261 0 330 388l40 224q14 79 14 156q0 137 -74 219t-198 82q-260 0 -328 -380l-38 -218q-15 -85 -15 -165q0 -142 72 -224t197 -82z" />
    <glyph glyph-name="ohungarumlaut" unicode="&#x151;" 
d="M942 1296l270 348h234l-295 -348h-209zM532 1296l270 348h234l-295 -348h-209zM688 -22q-205 0 -333 123t-128 313q0 60 10 116l27 156q35 200 170 315.5t331 115.5q210 0 339.5 -123t129.5 -316q0 -52 -10 -112l-28 -156q-37 -205 -170.5 -318.5t-337.5 -113.5zM761 924
q-108 0 -179.5 -70t-94.5 -199l-25 -144q-8 -45 -8 -91q0 -111 68 -180t177 -69q110 0 180.5 70.5t94.5 204.5l26 147q6 41 6 84q0 110 -68 178.5t-177 68.5z" />
    <glyph glyph-name="OE" unicode="&#x152;" 
d="M411 874l-37 -206q-18 -109 -18 -214q0 -104 43 -163.5t118 -59.5q190 0 249 330l40 219q19 94 19 193q0 240 -170 240q-183 0 -244 -339zM709 185q-52 -117 -118.5 -168t-168.5 -51q-140 0 -220 106t-80 292q0 152 27 309l43 250q48 281 154.5 417.5t275.5 136.5
q116 0 185 -68.5t83 -194.5h10l41 229h567l-37 -221h-376l-70 -385h341l-36 -211h-341l-74 -406h376l-37 -220h-567l32 185h-10z" />
    <glyph glyph-name="oe" unicode="&#x153;" 
d="M1167 658q10 41 10 103q0 77 -33 121.5t-91 44.5q-61 0 -107 -52t-69 -148q-7 -23 -14 -69h304zM703 171h-4q-39 -92 -110 -141t-164 -49q-138 0 -214.5 90.5t-76.5 253.5q0 98 12 162l32 185q76 438 384 438q88 0 151 -48.5t85 -131.5h5q41 88 115.5 138t165.5 50
q137 0 211 -106.5t62 -284.5q0 -56 -14 -140l-15 -102h-498q-11 -71 -11 -105q0 -91 39 -145.5t104 -54.5q59 0 103 40t60 109h179q-29 -156 -127 -250.5t-228 -94.5q-90 0 -154.5 49t-91.5 138zM547 918q-69 0 -116 -66.5t-68 -194.5l-29 -178q-10 -60 -10 -118
q0 -90 34 -139t97 -49q145 0 188 263l30 182q10 47 10 105q0 95 -34.5 145t-101.5 50z" />
    <glyph glyph-name="Racute" unicode="&#x154;" 
d="M719 1606l313 312h265l-342 -312h-236zM619 1242l-90 -503h225q137 0 220.5 62.5t104.5 174.5q5 25 5 58q0 97 -61.5 152.5t-170.5 55.5h-233zM399 0h-241l254 1443h485q197 0 318 -107.5t120 -289.5q0 -52 -8 -97q-23 -139 -108.5 -234t-221.5 -133l189 -582h-256
l-172 551q-22 -2 -70 -2h-192z" />
    <glyph glyph-name="racute" unicode="&#x155;" 
d="M1294 1643l-334 -347h-236l301 347h269zM747 815h35q107 309 396 309q99 0 172 -41l-44 -250q-74 46 -199 46q-166 0 -275.5 -101.5t-142.5 -284.5l-56 -319h327l-31 -174h-326h-224h-213l31 174h213l132 747h-234l30 174h458z" />
    <glyph glyph-name="Rcommaaccent" unicode="&#x156;" 
d="M619 1242l-90 -503h225q137 0 220.5 62.5t104.5 174.5q5 25 5 58q0 97 -61.5 152.5t-170.5 55.5h-233zM399 0h-241l254 1443h485q197 0 318 -107.5t120 -289.5q0 -52 -8 -97q-23 -139 -108.5 -234t-221.5 -133l189 -582h-256l-172 551q-22 -2 -70 -2h-192zM574 -503h-208
l151 357h236z" />
    <glyph glyph-name="rcommaaccent" unicode="&#x157;" 
d="M208 -513l151 357h236l-179 -357h-208zM747 815h35q107 309 396 309q99 0 172 -41l-44 -250q-74 46 -199 46q-166 0 -275.5 -101.5t-142.5 -284.5l-56 -319h327l-31 -174h-326h-224h-213l31 174h213l132 747h-234l30 174h458z" />
    <glyph glyph-name="Rcaron" unicode="&#x158;" 
d="M619 1242l-90 -503h225q137 0 220.5 62.5t104.5 174.5q5 25 5 58q0 97 -61.5 152.5t-170.5 55.5h-233zM399 0h-241l254 1443h485q197 0 318 -107.5t120 -289.5q0 -52 -8 -97q-23 -139 -108.5 -234t-221.5 -133l189 -582h-256l-172 551q-22 -2 -70 -2h-192zM759 1600
l-226 324h210l129 -196h15l199 196h230l-339 -324h-218z" />
    <glyph glyph-name="rcaron" unicode="&#x159;" 
d="M998 1296h-253l-209 351h227l117 -216h17l192 216h240zM747 815h35q107 309 396 309q99 0 172 -41l-44 -250q-74 46 -199 46q-166 0 -275.5 -101.5t-142.5 -284.5l-56 -319h327l-31 -174h-326h-224h-213l31 174h213l132 747h-234l30 174h458z" />
    <glyph glyph-name="Sacute" unicode="&#x15a;" 
d="M746 1606l313 312h265l-342 -312h-236zM177 424h233q-2 -20 -2 -25q0 -98 84.5 -160.5t217.5 -62.5q124 0 202.5 60t78.5 154q0 74 -52 124t-177 94l-114 40q-172 61 -254 155.5t-82 231.5q0 195 141 316t368 121q215 0 353 -110.5t138 -284.5q0 -27 -3 -40h-232
q1 4 1 23q0 89 -72.5 148.5t-181.5 59.5q-117 0 -190 -56.5t-73 -147.5q0 -74 50 -124t164 -90l118 -42q181 -64 263 -154t82 -224q0 -209 -144.5 -334t-386.5 -125q-230 0 -381.5 115.5t-151.5 292.5q0 29 3 45z" />
    <glyph glyph-name="sacute" unicode="&#x15b;" 
d="M934 1296h-236l301 347h269zM751 437l-147 48q-134 44 -197.5 114t-63.5 174q0 156 123 251.5t323 95.5q182 0 294.5 -81.5t117.5 -216.5q0 -15 -2 -31h-222v6q-6 67 -58 104.5t-140 37.5q-91 0 -147.5 -38t-56.5 -99q0 -46 35.5 -78t113.5 -57l146 -47
q144 -46 208.5 -114.5t64.5 -174.5q0 -157 -129 -255.5t-334 -98.5q-198 0 -321 85t-127 225q0 7 2 23h228v-5q8 -68 67.5 -107t157.5 -39t156.5 38.5t58.5 103.5q0 46 -35.5 78t-115.5 58z" />
    <glyph glyph-name="Scircumflex" unicode="&#x15c;" 
d="M177 424h233q-2 -20 -2 -25q0 -98 84.5 -160.5t217.5 -62.5q124 0 202.5 60t78.5 154q0 74 -52 124t-177 94l-114 40q-172 61 -254 155.5t-82 231.5q0 195 141 316t368 121q215 0 353 -110.5t138 -284.5q0 -27 -3 -40h-232q1 4 1 23q0 89 -72.5 148.5t-181.5 59.5
q-117 0 -190 -56.5t-73 -147.5q0 -74 50 -124t164 -90l118 -42q181 -64 263 -154t82 -224q0 -209 -144.5 -334t-386.5 -125q-230 0 -381.5 115.5t-151.5 292.5q0 29 3 45zM1071 1930l226 -324h-210l-129 196h-15l-199 -196h-230l339 324h218z" />
    <glyph glyph-name="scircumflex" unicode="&#x15d;" 
d="M781 1627h253l209 -351h-227l-117 216h-17l-192 -216h-240zM343 773q0 156 123 251.5t323 95.5q182 0 294.5 -81.5t117.5 -216.5q0 -15 -2 -31h-222v6q-6 67 -58 104.5t-140 37.5q-91 0 -147.5 -38t-56.5 -99q0 -46 35.5 -78t113.5 -57l146 -47q144 -46 208.5 -114.5
t64.5 -174.5q0 -157 -129 -255.5t-334 -98.5q-198 0 -321 85t-127 225q0 7 2 23h228v-5q8 -68 67.5 -107t157.5 -39t156.5 38.5t58.5 103.5q0 46 -35.5 78t-115.5 58l-147 48q-134 44 -197.5 114t-63.5 174z" />
    <glyph glyph-name="Scedilla" unicode="&#x15e;" 
d="M1309 1037h-232q1 4 1 23q0 89 -72.5 148.5t-181.5 59.5q-117 0 -190 -56.5t-73 -147.5q0 -74 50 -124t164 -90l118 -42q181 -64 263 -154t82 -224q0 -209 -144.5 -334t-386.5 -125h-1l-51 -93q82 -7 128 -47.5t46 -106.5q0 -99 -72.5 -155.5t-199.5 -56.5q-75 0 -152 23
l21 124q51 -19 128 -19q54 0 84 17.5t30 48.5q0 63 -127 63h-55l12 104l62 112q-174 35 -280 141.5t-106 252.5q0 29 3 45h233q-2 -20 -2 -25q0 -98 84.5 -160.5t217.5 -62.5q124 0 202.5 60t78.5 154q0 74 -52 124t-177 94l-114 40q-172 61 -254 155.5t-82 231.5
q0 195 141 316t368 121q215 0 353 -110.5t138 -284.5q0 -27 -3 -40z" />
    <glyph glyph-name="scedilla" unicode="&#x15f;" 
d="M1199 791h-222v6q-6 67 -58 104.5t-140 37.5q-91 0 -147.5 -38t-56.5 -99q0 -46 35.5 -78t113.5 -57l146 -47q144 -46 208.5 -114.5t64.5 -174.5q0 -151 -120.5 -248.5t-315.5 -105.5l-55 -99q82 -7 128 -47.5t46 -106.5q0 -99 -72.5 -155.5t-199.5 -56.5q-75 0 -152 23
l21 124q51 -19 128 -19q54 0 84 17.5t30 48.5q0 63 -127 63h-55l12 104l63 114q-148 24 -235.5 104t-90.5 196q0 7 2 23h228v-5q8 -68 67.5 -107t157.5 -39t156.5 38.5t58.5 103.5q0 46 -35.5 78t-115.5 58l-147 48q-134 44 -197.5 114t-63.5 174q0 156 123 251.5t323 95.5
q182 0 294.5 -81.5t117.5 -216.5q0 -15 -2 -31z" />
    <glyph glyph-name="Scaron" unicode="&#x160;" 
d="M177 424h233q-2 -20 -2 -25q0 -98 84.5 -160.5t217.5 -62.5q124 0 202.5 60t78.5 154q0 74 -52 124t-177 94l-114 40q-172 61 -254 155.5t-82 231.5q0 195 141 316t368 121q215 0 353 -110.5t138 -284.5q0 -27 -3 -40h-232q1 4 1 23q0 89 -72.5 148.5t-181.5 59.5
q-117 0 -190 -56.5t-73 -147.5q0 -74 50 -124t164 -90l118 -42q181 -64 263 -154t82 -224q0 -209 -144.5 -334t-386.5 -125q-230 0 -381.5 115.5t-151.5 292.5q0 29 3 45zM786 1600l-226 324h210l129 -196h15l199 196h230l-339 -324h-218z" />
    <glyph glyph-name="scaron" unicode="&#x161;" 
d="M972 1296h-253l-209 351h227l117 -216h17l192 216h240zM343 773q0 156 123 251.5t323 95.5q182 0 294.5 -81.5t117.5 -216.5q0 -15 -2 -31h-222v6q-6 67 -58 104.5t-140 37.5q-91 0 -147.5 -38t-56.5 -99q0 -46 35.5 -78t113.5 -57l146 -47q144 -46 208.5 -114.5
t64.5 -174.5q0 -157 -129 -255.5t-334 -98.5q-198 0 -321 85t-127 225q0 7 2 23h228v-5q8 -68 67.5 -107t157.5 -39t156.5 38.5t58.5 103.5q0 46 -35.5 78t-115.5 58l-147 48q-134 44 -197.5 114t-63.5 174z" />
    <glyph glyph-name="Tcedilla" unicode="&#x162;" 
d="M592 -1l-80 1l219 1232h-422l35 211h1086l-36 -211h-422l-218 -1232l-44 -122q71 -11 111 -52t40 -102q0 -99 -72.5 -155.5t-199.5 -56.5q-76 0 -153 23l22 124q51 -19 128 -19q54 0 84 17.5t30 48.5q0 64 -126 64h-45l20 109z" />
    <glyph glyph-name="tcedilla" unicode="&#x163;" 
d="M661 -489q-71 0 -141 18l12 125q37 -14 114 -14q55 0 85.5 17t30.5 49q0 30 -31 43.5t-99 13.5h-58l12 104l68 147q-183 47 -183 236q0 48 10 99l100 551h-288l33 188h288l54 313h228l-54 -313h423l-33 -188h-418l-101 -552q-4 -20 -4 -46q0 -116 168 -116q193 0 219 3
l-32 -186q-32 -6 -195 -6q-46 0 -68 2l-59 -122q87 -7 137 -49t50 -108q0 -100 -70.5 -154.5t-197.5 -54.5z" />
    <glyph glyph-name="Tcaron" unicode="&#x164;" 
d="M806 1600l-226 324h210l129 -196h15l199 196h230l-339 -324h-218zM754 0h-242l219 1232h-422l35 211h1086l-36 -211h-422z" />
    <glyph glyph-name="tcaron" unicode="&#x165;" 
d="M1193 1230h-162l83 478h205zM668 1401h228l-54 -313h423l-33 -188h-418l-101 -552q-4 -23 -4 -41q0 -121 168 -121q192 0 219 3l-32 -186q-32 -6 -268 -6q-160 0 -242.5 64.5t-82.5 188.5q0 46 10 99l100 551h-288l33 188h288z" />
    <glyph glyph-name="Tbar" unicode="&#x166;" 
d="M1394 1232h-422l-77 -436h288l-30 -179h-290l-109 -617h-242l110 617h-289l30 179h290l78 436h-422l35 211h1086z" />
    <glyph glyph-name="tbar" unicode="&#x167;" 
d="M1232 900h-418l-42 -230h419l-25 -141h-420l-33 -181q-4 -23 -4 -41q0 -121 168 -121q192 0 219 3l-32 -186q-32 -6 -268 -6q-160 0 -242.5 64.5t-82.5 188.5q0 46 10 99l33 180h-286l24 141h287l42 230h-288l33 188h288l54 313h228l-54 -313h423z" />
    <glyph glyph-name="Utilde" unicode="&#x168;" 
d="M207 546l158 897h242l-158 -893q-10 -57 -10 -94q0 -123 73 -195t191 -72q116 0 196.5 79t105.5 219l170 956h241l-177 -991q-41 -228 -184 -354.5t-358 -126.5q-225 0 -362.5 127t-137.5 338q0 51 10 110zM790 1752q-80 0 -95 -139h-154q13 133 79 211t167 78
q44 0 81.5 -16t62.5 -38t46.5 -44.5t44 -38.5t45.5 -16q80 0 95 136h153q-11 -127 -78 -205.5t-167 -78.5q-43 0 -79.5 15.5t-60.5 37.5t-45.5 44.5t-45.5 38t-49 15.5z" />
    <glyph glyph-name="utilde" unicode="&#x169;" 
d="M1299 1095l-193 -1095h-225l32 184h-14q-43 -95 -130 -150.5t-201 -55.5q-156 0 -248.5 94t-92.5 248q0 57 15 139l111 636h233l-109 -616q-9 -54 -9 -98q0 -89 55 -144t148 -55q106 0 182.5 71.5t98.5 196.5l114 645h233zM729 1418q-40 0 -62 -35.5t-28 -111.5h-167
q14 143 82 224.5t176 81.5q45 0 83 -16t63.5 -38.5t48 -44.5t45.5 -38t46 -16q41 0 62.5 34.5t27.5 108.5h167q-13 -140 -82.5 -222t-175.5 -82q-45 0 -83 16t-63.5 38.5t-48 45.5t-45.5 39t-46 16z" />
    <glyph glyph-name="Umacron" unicode="&#x16a;" 
d="M207 546l158 897h242l-158 -893q-10 -57 -10 -94q0 -123 73 -195t191 -72q116 0 196.5 79t105.5 219l170 956h241l-177 -991q-41 -228 -184 -354.5t-358 -126.5q-225 0 -362.5 127t-137.5 338q0 51 10 110zM1268 1672h-696l29 166h696z" />
    <glyph glyph-name="umacron" unicode="&#x16b;" 
d="M1299 1095l-193 -1095h-225l32 184h-14q-43 -95 -130 -150.5t-201 -55.5q-156 0 -248.5 94t-92.5 248q0 57 15 139l111 636h233l-109 -616q-9 -54 -9 -98q0 -89 55 -144t148 -55q106 0 182.5 71.5t98.5 196.5l114 645h233zM1211 1361h-696l29 166h696z" />
    <glyph glyph-name="Ubreve" unicode="&#x16c;" 
d="M207 546l158 897h242l-158 -893q-10 -57 -10 -94q0 -123 73 -195t191 -72q116 0 196.5 79t105.5 219l170 956h241l-177 -991q-41 -228 -184 -354.5t-358 -126.5q-225 0 -362.5 127t-137.5 338q0 51 10 110zM925 1599q-160 0 -255 93.5t-74 230.5h171q-7 -81 39.5 -130
t129.5 -49q85 0 147 49.5t78 129.5h177q-26 -146 -139.5 -235t-273.5 -89z" />
    <glyph glyph-name="ubreve" unicode="&#x16d;" 
d="M1299 1095l-193 -1095h-225l32 184h-14q-43 -95 -130 -150.5t-201 -55.5q-156 0 -248.5 94t-92.5 248q0 57 15 139l111 636h233l-109 -616q-9 -54 -9 -98q0 -89 55 -144t148 -55q106 0 182.5 71.5t98.5 196.5l114 645h233zM866 1238q-165 0 -264.5 101t-73.5 243h174
q-10 -84 39.5 -135t140.5 -51q88 0 149 51t71 135h177q-17 -154 -131.5 -249t-281.5 -95z" />
    <glyph glyph-name="Uring" unicode="&#x16e;" 
d="M924 1553q-85 0 -142 56.5t-57 139.5t57 139t142 56q84 0 141 -56t57 -139t-57 -139.5t-141 -56.5zM923 1652q43 0 71 27.5t28 68.5q0 42 -28.5 69.5t-70.5 27.5t-70 -27.5t-28 -69.5q0 -41 28.5 -68.5t69.5 -27.5zM207 546l158 897h242l-158 -893q-10 -57 -10 -94
q0 -123 73 -195t191 -72q116 0 196.5 79t105.5 219l170 956h241l-177 -991q-41 -228 -184 -354.5t-358 -126.5q-225 0 -362.5 127t-137.5 338q0 51 10 110z" />
    <glyph glyph-name="uring" unicode="&#x16f;" 
d="M1299 1095l-193 -1095h-225l32 184h-14q-43 -95 -130 -150.5t-201 -55.5q-156 0 -248.5 94t-92.5 248q0 57 15 139l111 636h233l-109 -616q-9 -54 -9 -98q0 -89 55 -144t148 -55q106 0 182.5 71.5t98.5 196.5l114 645h233zM884 1372q46 0 77.5 31.5t31.5 78.5t-31.5 78.5
t-77.5 31.5t-77 -31.5t-31 -78.5t31 -78.5t77 -31.5zM884 1245q-96 0 -164.5 69.5t-68.5 167.5t68.5 167.5t164.5 69.5q97 0 165.5 -69.5t68.5 -167.5t-68.5 -167.5t-165.5 -69.5z" />
    <glyph glyph-name="Uhungarumlaut" unicode="&#x170;" 
d="M207 546l158 897h242l-158 -893q-10 -57 -10 -94q0 -123 73 -195t191 -72q116 0 196.5 79t105.5 219l170 956h241l-177 -991q-41 -228 -184 -354.5t-358 -126.5q-225 0 -362.5 127t-137.5 338q0 51 10 110zM1002 1606l296 312h228l-317 -312h-207zM599 1606l296 312h228
l-317 -312h-207z" />
    <glyph glyph-name="uhungarumlaut" unicode="&#x171;" 
d="M943 1296l270 348h234l-295 -348h-209zM533 1296l270 348h234l-295 -348h-209zM1299 1095l-193 -1095h-225l32 184h-14q-43 -95 -130 -150.5t-201 -55.5q-156 0 -248.5 94t-92.5 248q0 57 15 139l111 636h233l-109 -616q-9 -54 -9 -98q0 -89 55 -144t148 -55
q106 0 182.5 71.5t98.5 196.5l114 645h233z" />
    <glyph glyph-name="Uogonek" unicode="&#x172;" 
d="M866 -440q-109 0 -180 55t-71 140q0 130 151 221l1 15q-29 -15 -75 -15q-222 -4 -358.5 123t-136.5 337q0 64 10 110l159 897h241l-158 -893q-10 -48 -10 -94q0 -121 72.5 -194t191.5 -73q115 0 196 79.5t106 218.5l170 956h241l-177 -991q-48 -265 -228 -394
q-114 -85 -156 -137.5t-42 -110.5q0 -44 34 -70.5t89 -26.5q56 0 73 6l-26 -143q-45 -16 -117 -16z" />
    <glyph glyph-name="uogonek" unicode="&#x173;" 
d="M1299 1095l-193 -1095q-217 -76 -217 -192q0 -42 32 -68t83 -26q26 0 52 6l-25 -146q-38 -19 -109 -19q-96 0 -160 54.5t-64 135.5q0 77 43 137.5t140 117.5l32 184h-14q-43 -95 -130 -150.5t-201 -55.5q-156 0 -248.5 94t-92.5 248q0 57 15 139l111 636h233l-109 -616
q-9 -54 -9 -98q0 -89 55 -144t148 -55q106 0 182.5 71.5t98.5 196.5l114 645h233z" />
    <glyph glyph-name="Wcircumflex" unicode="&#x174;" 
d="M1091 1930l226 -324h-210l-129 196h-15l-199 -196h-230l339 324h218zM797 869h-13l-327 -869h-224l22 1443h216l-20 -527l-29 -597h13l300 794h193l19 -794h14l169 585l168 539h222l-482 -1443h-222z" />
    <glyph glyph-name="wcircumflex" unicode="&#x175;" 
d="M782 1627h253l209 -351h-227l-117 216h-17l-192 -216h-240zM1428 1095l-419 -1095h-210l-20 784h-11l-303 -784h-208l-33 1095h215l-29 -815h29l284 813h200l-2 -813h28l253 815h226z" />
    <glyph glyph-name="Ycircumflex" unicode="&#x176;" 
d="M754 0h-241l99 561l-327 882h253l221 -636h15l439 636h272l-632 -882zM1079 1930l226 -324h-210l-129 196h-15l-199 -196h-230l339 324h218z" />
    <glyph glyph-name="ycircumflex" unicode="&#x177;" 
d="M257 -393q-77 0 -97 2l33 193q11 -3 65 -3q79 0 127.5 31.5t89.5 112.5l24 49l-201 1103h248l116 -874h15l420 874h255l-589 -1120q-110 -211 -218 -289.5t-288 -78.5zM776 1627h253l209 -351h-227l-117 216h-17l-192 -216h-240z" />
    <glyph glyph-name="Ydieresis" unicode="&#x178;" 
d="M754 0h-241l99 561l-327 882h253l221 -636h15l439 636h272l-632 -882zM711 1632q-54 0 -94.5 41t-40.5 98t40.5 98t94.5 41q55 0 95.5 -41t40.5 -98t-40.5 -98t-95.5 -41zM1150 1632q-55 0 -95 41t-40 98t40 98t95 41t95 -41t40 -98t-40 -98t-95 -41z" />
    <glyph glyph-name="Zacute" unicode="&#x179;" 
d="M765 1606l313 312h265l-342 -312h-236zM134 0l29 172l884 1046l2 14h-675l35 211h976l-29 -174l-885 -1044l-2 -14h714l-36 -211h-1013z" />
    <glyph glyph-name="zacute" unicode="&#x17a;" 
d="M190 0l25 145l720 745l2 16h-580l32 189h871l-27 -160l-706 -730l-2 -15h583l-32 -190h-886zM945 1296h-236l301 347h269z" />
    <glyph glyph-name="Zdotaccent" unicode="&#x17b;" 
d="M943 1615q-59 0 -102 44t-43 105t43 104.5t102 43.5t102.5 -43.5t43.5 -104.5t-43.5 -105t-102.5 -44zM134 0l29 172l884 1046l2 14h-675l35 211h976l-29 -174l-885 -1044l-2 -14h714l-36 -211h-1013z" />
    <glyph glyph-name="zdotaccent" unicode="&#x17c;" 
d="M885 1294q-59 0 -102 44t-43 105t43 104.5t102 43.5t102.5 -43.5t43.5 -104.5t-43.5 -105t-102.5 -44zM190 0l25 145l720 745l2 16h-580l32 189h871l-27 -160l-706 -730l-2 -15h583l-32 -190h-886z" />
    <glyph glyph-name="Zcaron" unicode="&#x17d;" 
d="M134 0l29 172l884 1046l2 14h-675l35 211h976l-29 -174l-885 -1044l-2 -14h714l-36 -211h-1013zM805 1600l-226 324h210l129 -196h15l199 196h230l-339 -324h-218z" />
    <glyph glyph-name="zcaron" unicode="&#x17e;" 
d="M983 1296h-253l-209 351h227l117 -216h17l192 216h240zM190 0l25 145l720 745l2 16h-580l32 189h871l-27 -160l-706 -730l-2 -15h583l-32 -190h-886z" />
    <glyph glyph-name="florin" unicode="&#x192;" 
d="M1448 1452l-36 -213q-66 17 -163 17q-99 0 -159.5 -47t-93.5 -150l-60 -187h348l-33 -191h-377l-102 -315q-63 -202 -183.5 -296.5t-316.5 -94.5q-112 0 -188 23l36 212q71 -21 155 -21q186 0 250 196l95 296h-311l33 191h339l71 223q62 193 186 285t325 92
q107 0 185 -20z" />
    <glyph glyph-name="Ohorn" unicode="&#x1a0;" 
d="M687 -29q-219 0 -357 141t-138 364q0 138 15 210l40 225q48 270 199 415.5t382 145.5q84 0 151.5 -18t125 -35.5t118.5 -17.5q122 0 145 126l27 150h189q-5 -26 -16 -87.5t-18.5 -102t-11.5 -48.5q-27 -98 -94.5 -149t-164.5 -47h-27l-2 -10q76 -126 76 -273
q0 -117 -23 -238l-33 -187q-49 -277 -198 -420.5t-385 -143.5zM703 187q259 0 327 388l40 224q14 77 14 156q0 137 -73.5 219t-196.5 82q-257 0 -326 -380l-39 -218q-15 -91 -15 -165q0 -140 73 -223t196 -83z" />
    <glyph glyph-name="ohorn" unicode="&#x1a1;" 
d="M761 924q-108 0 -179.5 -70t-94.5 -199l-25 -144q-8 -45 -8 -91q0 -110 68 -179.5t177 -69.5q110 0 181 70.5t95 204.5l25 147q6 37 6 84q0 110 -68 178.5t-177 68.5zM688 -22q-203 0 -332 122t-129 314q0 49 12 121l26 151q35 200 168.5 315.5t331.5 115.5
q74 0 178.5 -20.5t168.5 -20.5q60 0 87.5 20t35.5 70l24 140h189l-36 -204q-15 -86 -68 -132.5t-136 -46.5h-55l-2 -12q83 -77 83 -233q0 -45 -10 -112l-28 -156q-36 -204 -169.5 -318t-338.5 -114z" />
    <glyph glyph-name="Uhorn" unicode="&#x1af;" 
d="M684 -29q-219 0 -351.5 124t-132.5 329q0 57 10 108l160 911h241l-161 -912q-9 -49 -9 -90q0 -114 68 -183t182 -69q110 0 187 75t101 206l173 973h193q109 0 131 117l24 142h188l-29 -178q-22 -121 -90 -183.5t-178 -62.5h-26l-149 -838q-39 -221 -180 -345t-352 -124z
" />
    <glyph glyph-name="uhorn" unicode="&#x1b0;" 
d="M881 176q-40 -91 -120.5 -144.5t-192.5 -53.5q-156 0 -248.5 94t-92.5 248q0 57 15 139l112 636h229l-110 -634q-10 -57 -10 -93q0 -84 52.5 -136.5t141.5 -52.5q101 0 174 68t95 186l118 662h184q89 0 103 83l27 152h190l-35 -201q-16 -94 -81.5 -146.5t-161.5 -52.5
h-25l-165 -930h-217l31 176h-13z" />
    <glyph glyph-name="uni01C4" unicode="&#x1c4;" 
d="M1333 1586h-208l-202 312h195l115 -198h16l185 198h210zM659 0l28 167l557 1075l2 16h-343l31 185h543l-28 -167l-551 -1075l-1 -16h364l-32 -185h-570zM290 1443h202q167 0 242 -86t75 -277q0 -96 -21 -247q-55 -444 -183.5 -638.5t-362.5 -194.5h-206zM444 1276
l-197 -1109h18q124 0 206.5 160t127.5 504q25 169 25 253q0 104 -37 148t-124 44h-19z" />
    <glyph glyph-name="uni01C5" unicode="&#x1c5;" 
d="M1326 1295h-218l-152 351h178l85 -239h19l169 239h194zM708 0l25 145l481 770l2 16h-332l28 164h522l-27 -160l-465 -755l-2 -16h338l-28 -164h-542zM290 1443h202q167 0 242 -86t75 -277q0 -94 -21 -247q-55 -444 -183.5 -638.5t-362.5 -194.5h-206zM444 1276
l-197 -1109h18q124 0 206.5 160t127.5 504q25 172 25 253q0 104 -37 148t-124 44h-19z" />
    <glyph glyph-name="uni01C6" unicode="&#x1c6;" 
d="M325 652l-34 -207q-25 -149 -3.5 -214.5t95.5 -65.5q77 0 121 63.5t72 216.5l35 207q28 152 7 215.5t-99 63.5t-123.5 -64.5t-70.5 -214.5zM537 180h-19q-46 -109 -95.5 -153t-123.5 -44q-272 0 -197 437l42 256q39 233 116.5 335.5t212.5 102.5q89 0 129.5 -46.5
t41.5 -151.5h20l106 602h177l-268 -1518h-173zM741 0l25 145l451 770l3 16h-312l28 164h499l-27 -160l-446 -755l-3 -16h318l-28 -164h-508zM1340 1295h-219l-129 351h181l62 -239h19l146 239h192z" />
    <glyph glyph-name="uni01C7" unicode="&#x1c7;" 
d="M538 1443l-221 -1246h275l-33 -197h-490l254 1443h215zM1448 1443l-34 -197h-1l-152 -865q-37 -213 -124.5 -311.5t-237.5 -98.5q-131 0 -201.5 73.5t-70.5 210.5q0 49 9 105h200q-8 -54 -8 -82q0 -110 85 -110q60 0 92.5 50t57.5 188l148 840h-315l33 197h317h202z" />
    <glyph glyph-name="uni01C8" unicode="&#x1c8;" 
d="M1308 1095l-188 -1067q-34 -199 -153 -287t-350 -88q-200 0 -268 5l33 194q50 -5 266 -5q116 0 175.5 42.5t76.5 136.5l188 1069h220zM706 197l-34 -197h-522l254 1443h211l-221 -1246h312zM1245 1338q-75 0 -122 44t-47 115t47 115t122 44t122 -44t47 -115t-47 -115
t-122 -44z" />
    <glyph glyph-name="uni01C9" unicode="&#x1c9;" 
d="M517 0h-221l235 1327h-303l33 191h524zM1268 1095l-188 -1067q-34 -199 -153 -287t-351 -88q-200 0 -268 5l33 194q50 -5 266 -5q117 0 176 42.5t76 136.5l188 1069h221zM1206 1338q-75 0 -122.5 44.5t-47.5 114.5t47.5 114.5t122.5 44.5q74 0 121.5 -44.5t47.5 -114.5
t-47.5 -114.5t-121.5 -44.5z" />
    <glyph glyph-name="uni01CA" unicode="&#x1ca;" 
d="M946 -29q-130 0 -180.5 100.5t-15.5 288.5h169q-19 -110 -7.5 -157.5t55.5 -47.5q47 0 70.5 44.5t47.5 178.5l188 1065h174l-187 -1062q-38 -215 -112.5 -312.5t-201.5 -97.5zM218 0h-159l254 1443h180l54 -1003h15l23 231l140 772h158l-254 -1443h-178l-55 1007h-15
l-23 -230z" />
    <glyph glyph-name="uni01CB" unicode="&#x1cb;" 
d="M247 0h-170l254 1443h196l96 -1003h18l179 1003h170l-254 -1443h-194l-96 1007h-18zM1309 1095l-188 -1067q-35 -202 -151 -288.5t-348 -86.5q-200 0 -268 5l32 184q40 -4 280 -4q118 0 176.5 43.5t76.5 144.5l188 1069h202zM1270 1350q-72 0 -118 43t-46 110t46 110
t118 43q71 0 117 -43t46 -110t-46 -110t-117 -43z" />
    <glyph glyph-name="uni01CC" unicode="&#x1cc;" 
d="M111 0l193 1095h202l-33 -187h16q64 209 228 209q102 0 146.5 -71.5t21.5 -199.5l-148 -846h-210l133 750q28 163 -64 163q-114 0 -154 -223l-121 -690h-210zM1312 1095l-188 -1067q-34 -199 -153 -287t-351 -88q-211 0 -266 5l33 194q42 -5 275 -5q117 0 176 42.5
t76 136.5l188 1069h210zM1269 1338q-75 0 -122 44t-47 115t47 115t122 44q74 0 121.5 -44.5t47.5 -114.5t-47.5 -114.5t-121.5 -44.5z" />
    <glyph glyph-name="Acaron" unicode="&#x1cd;" 
d="M1023 1600h-218l-226 324h210l129 -196h15l199 196h230zM560 571h352l-60 619h-10zM748 1443h278l188 -1443h-247l-37 379h-458l-173 -379h-251z" />
    <glyph glyph-name="acaron" unicode="&#x1ce;" 
d="M543 -17q-145 0 -237 85.5t-93 219.5q-2 173 121.5 266.5t355.5 97.5l256 4l10 61q6 29 6 55q0 70 -52 111.5t-139 41.5q-75 0 -133 -34t-79 -91h-229q26 137 156 225t306 88q182 0 291.5 -87t109.5 -232q0 -52 -17 -141l-115 -653h-221l26 149h-17
q-40 -79 -120.5 -122.5t-185.5 -43.5zM630 172q100 0 176 63.5t94 163.5l19 100l-220 -3q-120 -1 -185 -46.5t-66 -127.5q-1 -68 49 -109t133 -41zM990 1296h-253l-209 351h227l117 -216h17l192 216h240z" />
    <glyph glyph-name="Icaron" unicode="&#x1cf;" 
d="M1050 0h-834l35 208h297l184 1027h-297l35 208h834l-35 -208h-296l-184 -1027h296zM806 1600l-226 324h210l129 -196h15l199 196h230l-339 -324h-218z" />
    <glyph glyph-name="icaron" unicode="&#x1d0;" 
d="M1011 1296h-253l-209 351h227l117 -216h17l192 216h240zM1115 0h-932l32 186h361l130 723h-349l31 186h576l-161 -909h344z" />
    <glyph glyph-name="Ocaron" unicode="&#x1d1;" 
d="M805 1600l-226 324h210l129 -196h15l199 196h230l-339 -324h-218zM1274 535q-50 -276 -199 -420t-386 -144q-220 0 -359 141t-139 364q0 136 15 210l40 225q48 270 199 415.5t381 145.5q225 0 364 -141.5t139 -370.5q0 -107 -15 -200zM703 187q261 0 330 388l40 224
q14 79 14 156q0 137 -74 219t-198 82q-260 0 -328 -380l-38 -218q-15 -85 -15 -165q0 -142 72 -224t197 -82z" />
    <glyph glyph-name="ocaron" unicode="&#x1d2;" 
d="M966 1296h-253l-209 351h227l117 -216h17l192 216h240zM688 -22q-205 0 -333 123t-128 313q0 60 10 116l27 156q35 200 170 315.5t331 115.5q210 0 339.5 -123t129.5 -316q0 -52 -10 -112l-28 -156q-37 -205 -170.5 -318.5t-337.5 -113.5zM761 924q-108 0 -179.5 -70
t-94.5 -199l-25 -144q-8 -45 -8 -91q0 -111 68 -180t177 -69q110 0 180.5 70.5t94.5 204.5l26 147q6 41 6 84q0 110 -68 178.5t-177 68.5z" />
    <glyph glyph-name="Ucaron" unicode="&#x1d3;" 
d="M809 1600l-226 324h210l129 -196h15l199 196h230l-339 -324h-218zM207 546l158 897h242l-158 -893q-10 -57 -10 -94q0 -123 73 -195t191 -72q116 0 196.5 79t105.5 219l170 956h241l-177 -991q-41 -228 -184 -354.5t-358 -126.5q-225 0 -362.5 127t-137.5 338
q0 51 10 110z" />
    <glyph glyph-name="ucaron" unicode="&#x1d4;" 
d="M974 1296h-253l-209 351h227l117 -216h17l192 216h240zM1299 1095l-193 -1095h-225l32 184h-14q-43 -95 -130 -150.5t-201 -55.5q-156 0 -248.5 94t-92.5 248q0 57 15 139l111 636h233l-109 -616q-9 -54 -9 -98q0 -89 55 -144t148 -55q106 0 182.5 71.5t98.5 196.5
l114 645h233z" />
    <glyph glyph-name="Udieresismacron" unicode="&#x1d5;" 
d="M207 546l158 897h242l-158 -893q-10 -57 -10 -94q0 -123 73 -195t191 -72q116 0 196.5 79t105.5 219l170 956h241l-177 -991q-41 -228 -184 -354.5t-358 -126.5q-225 0 -362.5 127t-137.5 338q0 51 10 110zM1148 1827q53 0 90.5 -38.5t37.5 -93.5t-37.5 -93.5
t-90.5 -38.5t-90.5 38.5t-37.5 93.5t37.5 93.5t90.5 38.5zM1339 2101l-25 -148h-704l26 148h703zM719 1827q53 0 90.5 -38.5t37.5 -93.5t-37.5 -93.5t-90.5 -38.5t-90.5 38.5t-37.5 93.5t37.5 93.5t90.5 38.5z" />
    <glyph glyph-name="udieresismacron" unicode="&#x1d6;" 
d="M1299 1095l-193 -1095h-225l32 184h-14q-43 -95 -130 -150.5t-201 -55.5q-156 0 -248.5 94t-92.5 248q0 57 15 139l111 636h233l-109 -616q-9 -54 -9 -98q0 -89 55 -144t148 -55q106 0 182.5 71.5t98.5 196.5l114 645h233zM1094 1567q54 0 94.5 -41t40.5 -98t-40.5 -98
t-94.5 -41q-55 0 -95.5 41t-40.5 98t40.5 98t95.5 41zM655 1567q55 0 95 -41t40 -98t-40 -98t-95 -41t-95 41t-40 98t40 98t95 41zM604 1891h696l-29 -166h-696z" />
    <glyph glyph-name="Udieresisacute" unicode="&#x1d7;" 
d="M813 1896l222 234h246l-257 -234h-211zM716 1564q-53 0 -91 38.5t-38 93.5t38 93.5t91 38.5t90.5 -38.5t37.5 -93.5t-37.5 -93.5t-90.5 -38.5zM1144 1564q-53 0 -90.5 38.5t-37.5 93.5t37.5 93.5t90.5 38.5t91 -38.5t38 -93.5t-38 -93.5t-91 -38.5zM207 546l158 897h242
l-158 -893q-10 -57 -10 -94q0 -123 73 -195t191 -72q116 0 196.5 79t105.5 219l170 956h241l-177 -991q-41 -228 -184 -354.5t-358 -126.5q-225 0 -362.5 127t-137.5 338q0 51 10 110z" />
    <glyph glyph-name="udieresisacute" unicode="&#x1d8;" 
d="M781 1654l271 324h240l-304 -324h-207zM654 1288q-54 0 -94.5 41t-40.5 98t40.5 98t94.5 41q55 0 95.5 -41t40.5 -98t-40.5 -98t-95.5 -41zM1093 1288q-55 0 -95 41t-40 98t40 98t95 41t95 -41t40 -98t-40 -98t-95 -41zM1299 1095l-193 -1095h-225l32 184h-14
q-43 -95 -130 -150.5t-201 -55.5q-156 0 -248.5 94t-92.5 248q0 57 15 139l111 636h233l-109 -616q-9 -54 -9 -98q0 -89 55 -144t148 -55q106 0 182.5 71.5t98.5 196.5l114 645h233z" />
    <glyph glyph-name="Udieresiscaron" unicode="&#x1d9;" 
d="M1058 1881h-221l-230 276h217l129 -162h16l184 162h230zM716 1564q-53 0 -90.5 38.5t-37.5 93.5t37.5 93.5t90.5 38.5t91 -38.5t38 -93.5t-38 -93.5t-91 -38.5zM1145 1564q-53 0 -90.5 38.5t-37.5 93.5t37.5 93.5t90.5 38.5t91 -38.5t38 -93.5t-38 -93.5t-91 -38.5z
M207 546l158 897h242l-158 -893q-10 -57 -10 -94q0 -123 73 -195t191 -72q116 0 196.5 79t105.5 219l170 956h241l-177 -991q-41 -228 -184 -354.5t-358 -126.5q-225 0 -362.5 127t-137.5 338q0 51 10 110z" />
    <glyph glyph-name="udieresiscaron" unicode="&#x1da;" 
d="M1026 1654h-225l-214 332h204l128 -213h15l203 213h218zM654 1288q-54 0 -94.5 41t-40.5 98t40.5 98t94.5 41q55 0 95.5 -41t40.5 -98t-40.5 -98t-95.5 -41zM1093 1288q-55 0 -95 41t-40 98t40 98t95 41t95 -41t40 -98t-40 -98t-95 -41zM1299 1095l-193 -1095h-225
l32 184h-14q-43 -95 -130 -150.5t-201 -55.5q-156 0 -248.5 94t-92.5 248q0 57 15 139l111 636h233l-109 -616q-9 -54 -9 -98q0 -89 55 -144t148 -55q106 0 182.5 71.5t98.5 196.5l114 645h233z" />
    <glyph glyph-name="Udieresisgrave" unicode="&#x1db;" 
d="M207 546l158 897h242l-158 -893q-10 -57 -10 -94q0 -123 73 -195t191 -72q116 0 196.5 79t105.5 219l170 956h241l-177 -991q-41 -228 -184 -354.5t-358 -126.5q-225 0 -362.5 127t-137.5 338q0 51 10 110zM717 1564q-53 0 -90.5 38.5t-37.5 93.5t37.5 93.5t90.5 38.5
t90.5 -38.5t37.5 -93.5t-37.5 -93.5t-90.5 -38.5zM1146 1564q-53 0 -90.5 38.5t-37.5 93.5t37.5 93.5t90.5 38.5t90.5 -38.5t37.5 -93.5t-37.5 -93.5t-90.5 -38.5zM917 2130l141 -234h-207l-176 234h242z" />
    <glyph glyph-name="udieresisgrave" unicode="&#x1dc;" 
d="M1299 1095l-193 -1095h-225l32 184h-14q-43 -95 -130 -150.5t-201 -55.5q-156 0 -248.5 94t-92.5 248q0 57 15 139l111 636h233l-109 -616q-9 -54 -9 -98q0 -89 55 -144t148 -55q106 0 182.5 71.5t98.5 196.5l114 645h233zM656 1288q-55 0 -95 41t-40 98t40 98t95 41
t95 -41t40 -98t-40 -98t-95 -41zM1095 1288q-55 0 -95.5 41t-40.5 98t40.5 98t95.5 41q54 0 94.5 -41t40.5 -98t-40.5 -98t-94.5 -41zM697 1978l271 -324h-207l-304 324h240z" />
    <glyph glyph-name="Adieresismacron" unicode="&#x1de;" 
d="M560 571h352l-60 619h-10zM748 1443h278l188 -1443h-247l-37 379h-458l-173 -379h-251zM843 1695q0 -55 -37.5 -93.5t-90.5 -38.5t-90.5 38.5t-37.5 93.5t37.5 93.5t90.5 38.5t90.5 -38.5t37.5 -93.5zM1144 1827q53 0 90.5 -38.5t37.5 -93.5t-37.5 -93.5t-90.5 -38.5
t-90.5 38.5t-37.5 93.5t37.5 93.5t90.5 38.5zM632 2101h703l-25 -148h-704z" />
    <glyph glyph-name="adieresismacron" unicode="&#x1df;" 
d="M543 -17q-145 0 -237 85.5t-93 219.5q-2 173 121.5 266.5t355.5 97.5l256 4l10 61q6 29 6 55q0 70 -52 111.5t-139 41.5q-75 0 -133 -34t-79 -91h-229q26 137 156 225t306 88q182 0 291.5 -87t109.5 -232q0 -52 -17 -141l-115 -653h-221l26 149h-17
q-40 -79 -120.5 -122.5t-185.5 -43.5zM630 172q100 0 176 63.5t94 163.5l19 100l-220 -3q-120 -1 -185 -46.5t-66 -127.5q-1 -68 49 -109t133 -41zM1110 1567q54 0 94.5 -41t40.5 -98t-40.5 -98t-94.5 -41q-55 0 -95.5 41t-40.5 98t40.5 98t95.5 41zM671 1567q55 0 95 -41
t40 -98t-40 -98t-95 -41t-95 41t-40 98t40 98t95 41zM620 1891h696l-29 -166h-696z" />
    <glyph glyph-name="Adotmacron" unicode="&#x1e0;" 
d="M560 571h352l-60 619h-10zM748 1443h278l188 -1443h-247l-37 379h-458l-173 -379h-251zM1056 1706q0 -57 -39 -97t-95 -40t-95 40t-39 97q0 58 39 98t95 40t95 -40t39 -98zM639 2101h704l-26 -148h-704z" />
    <glyph glyph-name="adotmacron" unicode="&#x1e1;" 
d="M543 -17q-145 0 -237 85.5t-93 219.5q-2 173 121.5 266.5t355.5 97.5l256 4l10 61q6 29 6 55q0 70 -52 111.5t-139 41.5q-75 0 -133 -34t-79 -91h-229q26 137 156 225t306 88q182 0 291.5 -87t109.5 -232q0 -52 -17 -141l-115 -653h-221l26 149h-17
q-40 -79 -120.5 -122.5t-185.5 -43.5zM630 172q100 0 176 63.5t94 163.5l19 100l-220 -3q-120 -1 -185 -46.5t-66 -127.5q-1 -68 49 -109t133 -41zM1291 1725h-696l29 166h696zM889 1272q-59 0 -102 44t-43 105t43 104.5t102 43.5t102.5 -43.5t43.5 -104.5t-43.5 -105
t-102.5 -44z" />
    <glyph glyph-name="AEmacron" unicode="&#x1e2;" 
d="M1477 1838l-29 -166h-696l29 166h696zM728 589l111 628h-88l-261 -628h238zM1461 1233h-400l-74 -407h364l-34 -199h-364l-76 -416h400l-35 -211h-619l69 387h-285l-161 -387h-243l634 1443h859z" />
    <glyph glyph-name="aemacron" unicode="&#x1e3;" 
d="M1283 329q-29 -156 -126.5 -250.5t-227.5 -94.5q-98 0 -165 56.5t-86 155.5h-5q-41 -99 -121 -155.5t-179 -56.5q-114 0 -189 81.5t-75 204.5q0 159 97.5 257.5t267.5 109.5l170 13l13 71q6 40 6 69q0 62 -32 98t-87 36t-94.5 -37t-52.5 -102h-184q21 148 116 240t226 92
q182 0 234 -158h5q41 73 113 115.5t154 42.5q136 0 213 -109.5t66 -286.5q0 -42 -14 -138q-3 -17 -16 -99h-506q-11 -56 -11 -110q0 -89 39.5 -141.5t106.5 -52.5q59 0 104 40.5t61 108.5h179zM1152 651q8 64 8 103q0 79 -35 125t-96 46q-65 0 -114.5 -60t-70.5 -165
q-9 -45 -9 -49h317zM416 181q68 0 120 60t67 154l16 91l-150 -11q-76 -5 -123.5 -52.5t-47.5 -117.5q0 -55 33 -89.5t85 -34.5zM1207 1361h-696l29 166h696z" />
    <glyph glyph-name="Gcaron" unicode="&#x1e6;" 
d="M775 1600l-226 324h210l129 -196h15l199 196h230l-339 -324h-218zM1247 423q-37 -215 -180 -334t-363 -119q-230 0 -368 139t-138 370q0 80 14 161l49 280q47 265 201.5 408.5t392.5 143.5q217 0 351.5 -124t134.5 -323q0 -28 -3 -53h-236q2 28 2 42q0 106 -72.5 173
t-188.5 67q-132 0 -221 -94t-120 -268l-48 -273q-14 -82 -14 -139q0 -137 74.5 -216t203.5 -79q120 0 199 70t101 196l22 115h-305l33 187h538z" />
    <glyph glyph-name="gcaron" unicode="&#x1e7;" 
d="M929 1296h-253l-209 351h227l117 -216h17l192 216h240zM737 914q-101 0 -172.5 -69t-93.5 -188l-20 -113q-9 -52 -9 -98q0 -107 63.5 -171t168.5 -64q101 0 175 69t94 182l23 133q8 48 8 85q0 103 -66.5 168.5t-170.5 65.5zM570 -411q-195 0 -320 86.5t-125 222.5v22h228
v-8q4 -64 70.5 -105t165.5 -41q241 0 285 246l35 201h-15q-36 -92 -126 -148.5t-202 -56.5q-161 0 -263.5 107.5t-102.5 277.5q0 67 12 141l22 138q34 205 153 323.5t292 118.5q129 0 215.5 -60.5t115.5 -170.5h17l36 212h232l-191 -1090q-36 -202 -173.5 -309t-360.5 -107z
" />
    <glyph glyph-name="Kcaron" unicode="&#x1e8;" 
d="M881 803l376 -803h-268l-306 648l-188 -181l-83 -467h-231l254 1443h231l-122 -677h15l667 677h280zM844 1600l-226 324h210l129 -196h15l199 196h230l-339 -324h-218z" />
    <glyph glyph-name="kcaron" unicode="&#x1e9;" 
d="M531 397l-71 -397h-232l268 1518h232l-151 -854h14l493 431h299l-519 -455l354 -640h-261l-285 514zM531 1675l-226 324h210l129 -196h15l199 196h230l-339 -324h-218z" />
    <glyph glyph-name="Oogonek" unicode="&#x1ea;" 
d="M856 -440q-109 0 -179.5 55.5t-70.5 140.5q0 130 158 226l-1 14q-35 -20 -90 -20q-138 -2 -248 61t-172 178t-62 261q0 142 15 210l40 225q48 270 199 415.5t381 145.5q225 0 364 -141.5t139 -370.5q0 -111 -15 -200l-40 -225q-57 -321 -266 -475q-118 -89 -160.5 -140.5
t-42.5 -107.5q0 -44 32.5 -71.5t84.5 -27.5q60 0 79 6l-26 -143q-42 -16 -119 -16zM703 187q262 0 330 388l40 224q14 79 14 156q0 137 -74 219t-198 82q-260 0 -327 -380l-39 -218q-15 -92 -15 -165q0 -142 72 -224t197 -82z" />
    <glyph glyph-name="oogonek" unicode="&#x1eb;" 
d="M831 -440q-107 0 -178 57.5t-71 143.5q0 136 172 224l-1 15q-32 -16 -69 -16q-200 -4 -328.5 117t-128.5 313q0 63 10 116l28 156q34 200 168.5 315.5t331.5 115.5q208 0 338.5 -122t130.5 -317q0 -44 -10 -112l-28 -156q-43 -239 -222 -359q-109 -77 -151 -128t-42 -106
q0 -46 35 -75.5t88 -29.5q52 0 72 6l-25 -141q-57 -17 -120 -17zM761 924q-108 0 -179.5 -70t-94.5 -199l-25 -144q-8 -51 -8 -91q0 -110 68 -179.5t177 -69.5q110 0 182 71.5t94 203.5l25 147q6 35 6 84q0 110 -68 178.5t-177 68.5z" />
    <glyph glyph-name="Oogonekmacron" unicode="&#x1ec;" 
d="M856 -440q-109 0 -179.5 55.5t-70.5 140.5q0 130 158 226l-1 14q-35 -20 -90 -20q-138 -2 -248 61t-172 178t-62 261q0 142 15 210l40 225q48 270 199 415.5t381 145.5q225 0 364 -141.5t139 -370.5q0 -111 -15 -200l-40 -225q-57 -321 -266 -475q-118 -89 -160.5 -140.5
t-42.5 -107.5q0 -44 32.5 -71.5t84.5 -27.5q60 0 79 6l-26 -143q-42 -16 -119 -16zM703 187q262 0 330 388l40 224q14 79 14 156q0 137 -74 219t-198 82q-260 0 -327 -380l-39 -218q-15 -92 -15 -165q0 -142 72 -224t197 -82zM1276 1672h-696l29 166h696z" />
    <glyph glyph-name="oogonekmacron" unicode="&#x1ed;" 
d="M1210 1361h-696l29 166h696zM831 -440q-107 0 -178 57.5t-71 143.5q0 136 172 224l-1 15q-32 -16 -69 -16q-200 -4 -328.5 117t-128.5 313q0 63 10 116l28 156q34 200 168.5 315.5t331.5 115.5q208 0 338.5 -122t130.5 -317q0 -44 -10 -112l-28 -156q-43 -239 -222 -359
q-109 -77 -151 -128t-42 -106q0 -46 35 -75.5t88 -29.5q52 0 72 6l-25 -141q-57 -17 -120 -17zM761 924q-108 0 -179.5 -70t-94.5 -199l-25 -144q-8 -51 -8 -91q0 -110 68 -179.5t177 -69.5q110 0 182 71.5t94 203.5l25 147q6 35 6 84q0 110 -68 178.5t-177 68.5z" />
    <glyph glyph-name="uni01F1" unicode="&#x1f1;" 
d="M659 0l28 167l557 1075l2 16h-343l31 185h543l-28 -167l-551 -1075l-1 -16h364l-32 -185h-570zM290 1443h202q167 0 242 -86t75 -277q0 -96 -21 -247q-55 -444 -183.5 -638.5t-362.5 -194.5h-206zM444 1276l-197 -1109h18q124 0 206.5 160t127.5 504q25 169 25 253
q0 104 -37 148t-124 44h-19z" />
    <glyph glyph-name="uni01F2" unicode="&#x1f2;" 
d="M708 0l25 145l481 770l2 16h-332l28 164h522l-27 -160l-465 -755l-2 -16h338l-28 -164h-542zM290 1443h202q167 0 242 -86t75 -277q0 -94 -21 -247q-55 -444 -183.5 -638.5t-362.5 -194.5h-206zM444 1276l-197 -1109h18q124 0 206.5 160t127.5 504q25 172 25 253
q0 104 -37 148t-124 44h-19z" />
    <glyph glyph-name="uni01F3" unicode="&#x1f3;" 
d="M326 652l-34 -207q-25 -149 -3.5 -214.5t95.5 -65.5q77 0 121 63.5t72 216.5l35 207q28 152 7 215.5t-99 63.5t-123.5 -64.5t-70.5 -214.5zM538 180h-19q-46 -109 -95.5 -153t-123.5 -44q-272 0 -197 437l42 256q39 233 116.5 335.5t212.5 102.5q89 0 129.5 -46.5
t41.5 -151.5h20l106 602h177l-268 -1518h-173zM742 0l25 145l451 770l3 16h-312l28 164h499l-27 -160l-446 -755l-3 -16h318l-28 -164h-508z" />
    <glyph glyph-name="Gacute" unicode="&#x1f4;" 
d="M736 1606l313 312h265l-342 -312h-236zM1247 423q-37 -215 -180 -334t-363 -119q-230 0 -368 139t-138 370q0 80 14 161l49 280q47 265 201.5 408.5t392.5 143.5q217 0 351.5 -124t134.5 -323q0 -28 -3 -53h-236q2 28 2 42q0 106 -72.5 173t-188.5 67q-132 0 -221 -94
t-120 -268l-48 -273q-14 -82 -14 -139q0 -137 74.5 -216t203.5 -79q120 0 199 70t101 196l22 115h-305l33 187h538z" />
    <glyph glyph-name="gacute" unicode="&#x1f5;" 
d="M1295 1095l-191 -1090q-36 -202 -173.5 -309t-360.5 -107q-195 0 -320 86.5t-125 222.5v22h228v-8q4 -64 70.5 -105t165.5 -41q241 0 285 246l35 201h-15q-36 -92 -126 -148.5t-202 -56.5q-161 0 -263.5 107.5t-102.5 277.5q0 67 12 141l22 138q34 205 153 323.5
t292 118.5q129 0 215.5 -60.5t115.5 -170.5h17l36 212h232zM943 462l23 133q8 48 8 85q0 103 -66.5 168.5t-170.5 65.5q-101 0 -172.5 -69t-93.5 -188l-20 -113q-9 -52 -9 -98q0 -107 63.5 -171t168.5 -64q101 0 175 69t94 182zM891 1296h-236l301 347h269z" />
    <glyph glyph-name="Ngrave" unicode="&#x1f8;" 
d="M349 0h-212l254 1443h220l360 -1028h16l184 1028h212l-254 -1443h-219l-361 1032h-16zM805 1918l204 -312h-223l-234 312h253z" />
    <glyph glyph-name="ngrave" unicode="&#x1f9;" 
d="M987 1296h-225l-213 347h259zM160 0l193 1095h225l-32 -184h14q43 95 130 150.5t201 55.5q156 0 248.5 -94t92.5 -248q0 -57 -15 -139l-111 -636h-233l109 616q9 54 9 98q0 89 -55 144t-148 55q-106 0 -182.5 -71.5t-98.5 -196.5l-114 -645h-233z" />
    <glyph glyph-name="Aringacute" unicode="&#x1fa;" 
d="M1229 2184l-163 -182h-193l139 182h217zM931 1839q-42 0 -70 -27.5t-28 -69.5q0 -41 28.5 -68.5t69.5 -27.5q43 0 71 27.5t28 68.5q0 42 -28.5 69.5t-70.5 27.5zM932 1547q-85 0 -142 56.5t-57 139.5t57 139t142 56q84 0 141 -56t57 -139t-57 -139.5t-141 -56.5zM560 571
h352l-60 619h-10zM748 1443h278l188 -1443h-247l-37 379h-458l-173 -379h-251z" />
    <glyph glyph-name="aringacute" unicode="&#x1fb;" 
d="M1032 1737h-179l204 241h212zM892 1226q-91 0 -152 60.5t-61 150.5t61 150t152 60t152.5 -60t61.5 -150t-61.5 -150.5t-152.5 -60.5zM892 1339q43 0 71 28t28 70t-28 70t-71 28q-42 0 -70 -28t-28 -70t28 -70t70 -28zM919 499l-220 -3q-120 -1 -185 -46.5t-66 -127.5
q-1 -68 49 -109t133 -41q100 0 176 63.5t94 163.5zM866 149h-17q-40 -79 -120.5 -122.5t-185.5 -43.5q-145 0 -237 85.5t-93 219.5q-2 173 121.5 266.5t355.5 97.5l256 4l10 61q6 29 6 55q0 70 -52 111.5t-139 41.5q-75 0 -133 -34t-79 -91h-229q26 137 156 225t306 88
q182 0 291.5 -87t109.5 -232q0 -52 -17 -141l-115 -653h-221z" />
    <glyph glyph-name="AEacute" unicode="&#x1fc;" 
d="M1519 1918l-342 -312h-236l313 312h265zM839 1217h-88l-261 -628h238zM3 0l634 1443h859l-35 -210h-400l-74 -407h364l-34 -199h-364l-76 -416h400l-35 -211h-619l69 387h-285l-161 -387h-243z" />
    <glyph glyph-name="aeacute" unicode="&#x1fd;" 
d="M619 486l-150 -11q-76 -5 -123.5 -52.5t-47.5 -117.5q0 -55 33 -89.5t85 -34.5q68 0 120 60t67 154zM835 651h317q8 64 8 103q0 79 -35 125t-96 46q-65 0 -114.5 -60t-70.5 -165q-9 -45 -9 -49zM1104 329h179q-29 -156 -126.5 -250.5t-227.5 -94.5q-98 0 -165 56.5
t-86 155.5h-5q-41 -99 -121 -155.5t-179 -56.5q-114 0 -189 81.5t-75 204.5q0 159 97.5 257.5t267.5 109.5l170 13l13 71q6 40 6 69q0 62 -32 98t-87 36t-94.5 -37t-52.5 -102h-184q21 148 116 240t226 92q182 0 234 -158h5q41 73 113 115.5t154 42.5q136 0 213 -109.5
t66 -286.5q0 -42 -14 -138q-3 -17 -16 -99h-506q-11 -56 -11 -110q0 -89 39.5 -141.5t106.5 -52.5q59 0 104 40.5t61 108.5zM935 1296h-236l301 347h269z" />
    <glyph glyph-name="Oslashacute" unicode="&#x1fe;" 
d="M1334 1918l-342 -312h-236l313 312h265zM1033 575l40 224q14 79 14 156q0 27 -3 51l-604 -701q72 -118 223 -118q261 0 330 388zM487 876l-38 -218q-15 -85 -15 -165q0 -30 3 -57l605 698q-73 122 -227 122q-260 0 -328 -380zM1460 1443l-191 -222q60 -114 60 -261
q0 -107 -15 -200l-40 -225q-50 -276 -199 -420t-386 -144q-228 0 -367 150l-104 -121h-158l191 220q-60 114 -60 256q0 136 15 210l40 225q48 270 199 415.5t381 145.5q236 0 375 -153l108 124h151z" />
    <glyph glyph-name="oslashacute" unicode="&#x1ff;" 
d="M1227 1643l-334 -347h-236l301 347h269zM965 446l26 147q6 41 6 84q0 75 -32 131l-394 -610q51 -27 119 -27q110 0 180.5 70.5t94.5 204.5zM478 655l-25 -144q-8 -45 -8 -91q0 -84 41 -147l397 618q-58 33 -131 33q-108 0 -179.5 -70t-94.5 -199zM1176 1134l-87 -134
q136 -123 136 -322q0 -52 -10 -112l-28 -156q-37 -205 -170.5 -318.5t-337.5 -113.5q-123 0 -220 46l-41 -63h-133l79 123q-70 60 -108 145t-38 185q0 60 10 116l27 156q35 200 170 315.5t331 115.5q134 0 238 -53l45 70h137z" />
    <glyph glyph-name="Adblgrave" unicode="&#x200;" 
d="M1217 1606h-198l-208 312h219zM814 1606h-198l-208 312h219zM560 571h352l-60 619h-10zM748 1443h278l188 -1443h-247l-37 379h-458l-173 -379h-251z" />
    <glyph glyph-name="adblgrave" unicode="&#x201;" 
d="M994 1644l148 -348h-197l-173 348h222zM588 1644l148 -348h-196l-174 348h222zM919 499l-220 -3q-120 -1 -185 -46.5t-66 -127.5q-1 -68 49 -109t133 -41q100 0 176 63.5t94 163.5zM866 149h-17q-40 -79 -120.5 -122.5t-185.5 -43.5q-145 0 -237 85.5t-93 219.5
q-2 173 121.5 266.5t355.5 97.5l256 4l10 61q6 29 6 55q0 70 -52 111.5t-139 41.5q-75 0 -133 -34t-79 -91h-229q26 137 156 225t306 88q182 0 291.5 -87t109.5 -232q0 -52 -17 -141l-115 -653h-221z" />
    <glyph glyph-name="Ainvertedbreve" unicode="&#x202;" 
d="M560 571h352l-60 619h-10zM748 1443h278l188 -1443h-247l-37 379h-458l-173 -379h-251zM748 1599h-177q26 146 139.5 235t273.5 89t255 -93.5t74 -230.5h-171q7 81 -39.5 130t-129.5 49q-85 0 -147 -49.5t-78 -129.5z" />
    <glyph glyph-name="ainvertedbreve" unicode="&#x203;" 
d="M543 -17q-145 0 -237 85.5t-93 219.5q-2 173 121.5 266.5t355.5 97.5l256 4l10 61q6 29 6 55q0 70 -52 111.5t-139 41.5q-75 0 -133 -34t-79 -91h-229q26 137 156 225t306 88q182 0 291.5 -87t109.5 -232q0 -52 -17 -141l-115 -653h-221l26 149h-17
q-40 -79 -120.5 -122.5t-185.5 -43.5zM630 172q100 0 176 63.5t94 163.5l19 100l-220 -3q-120 -1 -185 -46.5t-66 -127.5q-1 -68 49 -109t133 -41zM904 1603q165 0 264.5 -101t73.5 -243h-174q10 84 -39.5 135t-140.5 51q-88 0 -149 -51t-71 -135h-177q17 154 131.5 249
t281.5 95z" />
    <glyph glyph-name="Edblgrave" unicode="&#x204;" 
d="M1133 211l-35 -211h-887l254 1443h887l-36 -211h-644l-73 -402h608l-34 -197h-607l-77 -422h644zM1043 1918l187 -312h-198l-208 312h219zM640 1918l187 -312h-198l-208 312h219z" />
    <glyph glyph-name="edblgrave" unicode="&#x205;" 
d="M986 1644l148 -348h-197l-173 348h222zM580 1644l148 -348h-196l-174 348h222zM936 297h230q-25 -141 -156 -230t-315 -89q-206 0 -325 114t-119 310q0 59 16 159l23 131q33 196 172 310.5t344 114.5q197 0 319 -118.5t110 -297.5q0 -52 -11 -110l-15 -100h-725
q-10 -43 -10 -77q-8 -114 55.5 -182.5t177.5 -68.5q85 0 147.5 36.5t81.5 97.5zM508 647h500q6 27 6 55q10 103 -51 167.5t-169 64.5q-107 0 -180 -61.5t-96 -170.5q-5 -25 -10 -55z" />
    <glyph glyph-name="Einvertedbreve" unicode="&#x206;" 
d="M1133 211l-35 -211h-887l254 1443h887l-36 -211h-644l-73 -402h608l-34 -197h-607l-77 -422h644zM997 1923q160 0 255 -93.5t74 -230.5h-171q7 81 -39.5 130t-129.5 49q-85 0 -147 -49.5t-78 -129.5h-177q26 146 139.5 235t273.5 89z" />
    <glyph glyph-name="einvertedbreve" unicode="&#x207;" 
d="M794 934q-107 0 -180 -61.5t-96 -170.5q-5 -25 -10 -55h500q6 27 6 55q10 103 -51 167.5t-169 64.5zM1166 297q-25 -141 -156 -230t-315 -89q-206 0 -325 114t-119 310q0 59 16 159l23 131q33 196 172 310.5t344 114.5q197 0 319 -118.5t110 -297.5q0 -52 -11 -110
l-15 -100h-725q-10 -43 -10 -77q-8 -114 55.5 -182.5t177.5 -68.5q85 0 147.5 36.5t81.5 97.5h230zM896 1603q165 0 264.5 -101t73.5 -243h-174q10 84 -39.5 135t-140.5 51q-88 0 -149 -51t-71 -135h-177q17 154 131.5 249t281.5 95z" />
    <glyph glyph-name="Idblgrave" unicode="&#x208;" 
d="M1031 1918l187 -312h-198l-208 312h219zM628 1918l187 -312h-198l-208 312h219zM1050 0h-834l35 208h297l184 1027h-297l35 208h834l-35 -208h-296l-184 -1027h296z" />
    <glyph glyph-name="idblgrave" unicode="&#x209;" 
d="M1015 1644l148 -348h-197l-173 348h222zM609 1644l148 -348h-196l-174 348h222zM1115 0h-932l32 186h361l130 723h-349l31 186h576l-161 -909h344z" />
    <glyph glyph-name="Iinvertedbreve" unicode="&#x20a;" 
d="M1050 0h-834l35 208h297l184 1027h-297l35 208h834l-35 -208h-296l-184 -1027h296zM985 1923q160 0 255 -93.5t74 -230.5h-171q7 81 -39.5 130t-129.5 49q-85 0 -147 -49.5t-78 -129.5h-177q26 146 139.5 235t273.5 89z" />
    <glyph glyph-name="iinvertedbreve" unicode="&#x20b;" 
d="M1115 0h-932l32 186h361l130 723h-349l31 186h576l-161 -909h344zM925 1603q165 0 264.5 -101t73.5 -243h-174q10 84 -39.5 135t-140.5 51q-88 0 -149 -51t-71 -135h-177q17 154 131.5 249t281.5 95z" />
    <glyph glyph-name="Odblgrave" unicode="&#x20c;" 
d="M487 876l-38 -218q-15 -85 -15 -165q0 -142 72 -224t197 -82q261 0 330 388l40 224q14 79 14 156q0 137 -74 219t-198 82q-260 0 -328 -380zM1314 760l-40 -225q-50 -276 -199 -420t-386 -144q-220 0 -359 141t-139 364q0 136 15 210l40 225q48 270 199 415.5t381 145.5
q225 0 364 -141.5t139 -370.5q0 -107 -15 -200zM1030 1918l187 -312h-198l-208 312h219zM627 1918l187 -312h-198l-208 312h219z" />
    <glyph glyph-name="odblgrave" unicode="&#x20d;" 
d="M970 1644l148 -348h-197l-173 348h222zM564 1644l148 -348h-196l-174 348h222zM974 446l26 147q6 41 6 84q0 110 -68 178.5t-177 68.5q-108 0 -179.5 -70t-94.5 -199l-25 -144q-8 -45 -8 -91q0 -111 68 -180t177 -69q110 0 180.5 70.5t94.5 204.5zM1224 566l-28 -156
q-37 -205 -170.5 -318.5t-337.5 -113.5q-205 0 -333 123t-128 313q0 60 10 116l27 156q35 200 170 315.5t331 115.5q210 0 339.5 -123t129.5 -316q0 -52 -10 -112z" />
    <glyph glyph-name="Oinvertedbreve" unicode="&#x20e;" 
d="M984 1923q160 0 255 -93.5t74 -230.5h-171q7 81 -39.5 130t-129.5 49q-85 0 -147 -49.5t-78 -129.5h-177q26 146 139.5 235t273.5 89zM1274 535q-50 -276 -199 -420t-386 -144q-220 0 -359 141t-139 364q0 136 15 210l40 225q48 270 199 415.5t381 145.5
q225 0 364 -141.5t139 -370.5q0 -107 -15 -200zM703 187q261 0 330 388l40 224q14 79 14 156q0 137 -74 219t-198 82q-260 0 -328 -380l-38 -218q-15 -85 -15 -165q0 -142 72 -224t197 -82z" />
    <glyph glyph-name="oinvertedbreve" unicode="&#x20f;" 
d="M688 -22q-205 0 -333 123t-128 313q0 60 10 116l27 156q35 200 170 315.5t331 115.5q210 0 339.5 -123t129.5 -316q0 -52 -10 -112l-28 -156q-37 -205 -170.5 -318.5t-337.5 -113.5zM761 924q-108 0 -179.5 -70t-94.5 -199l-25 -144q-8 -45 -8 -91q0 -111 68 -180
t177 -69q110 0 180.5 70.5t94.5 204.5l26 147q6 41 6 84q0 110 -68 178.5t-177 68.5zM887 1603q165 0 264.5 -101t73.5 -243h-174q10 84 -39.5 135t-140.5 51q-88 0 -149 -51t-71 -135h-177q17 154 131.5 249t281.5 95z" />
    <glyph glyph-name="Rdblgrave" unicode="&#x210;" 
d="M399 0h-241l254 1443h485q197 0 318 -107.5t120 -289.5q0 -52 -8 -97q-23 -139 -108.5 -234t-221.5 -133l189 -582h-256l-172 551q-22 -2 -70 -2h-192zM619 1242l-90 -503h225q137 0 220.5 62.5t104.5 174.5q5 25 5 58q0 97 -61.5 152.5t-170.5 55.5h-233zM984 1918
l187 -312h-198l-208 312h219zM581 1918l187 -312h-198l-208 312h219z" />
    <glyph glyph-name="rdblgrave" unicode="&#x211;" 
d="M1150 1296h-197l-173 348h222zM744 1296h-196l-174 348h222zM747 815h35q107 309 396 309q99 0 172 -41l-44 -250q-74 46 -199 46q-166 0 -275.5 -101.5t-142.5 -284.5l-56 -319h327l-31 -174h-326h-224h-213l31 174h213l132 747h-234l30 174h458z" />
    <glyph glyph-name="Rinvertedbreve" unicode="&#x212;" 
d="M619 1242l-90 -503h225q137 0 220.5 62.5t104.5 174.5q5 25 5 58q0 97 -61.5 152.5t-170.5 55.5h-233zM399 0h-241l254 1443h485q197 0 318 -107.5t120 -289.5q0 -52 -8 -97q-23 -139 -108.5 -234t-221.5 -133l189 -582h-256l-172 551q-22 -2 -70 -2h-192zM938 1923
q160 0 255 -93.5t74 -230.5h-171q7 81 -39.5 130t-129.5 49q-85 0 -147 -49.5t-78 -129.5h-177q26 146 139.5 235t273.5 89z" />
    <glyph glyph-name="rinvertedbreve" unicode="&#x213;" 
d="M1250 1259h-174q10 84 -39.5 135t-140.5 51q-88 0 -149 -51t-71 -135h-177q17 154 131.5 249t281.5 95q165 0 264.5 -101t73.5 -243zM747 815h35q107 309 396 309q99 0 172 -41l-44 -250q-74 46 -199 46q-166 0 -275.5 -101.5t-142.5 -284.5l-56 -319h327l-31 -174h-326
h-224h-213l31 174h213l132 747h-234l30 174h458z" />
    <glyph glyph-name="Udblgrave" unicode="&#x214;" 
d="M207 546l158 897h242l-158 -893q-10 -57 -10 -94q0 -123 73 -195t191 -72q116 0 196.5 79t105.5 219l170 956h241l-177 -991q-41 -228 -184 -354.5t-358 -126.5q-225 0 -362.5 127t-137.5 338q0 51 10 110zM1034 1918l187 -312h-198l-208 312h219zM631 1918l187 -312
h-198l-208 312h219z" />
    <glyph glyph-name="udblgrave" unicode="&#x215;" 
d="M978 1644l148 -348h-197l-173 348h222zM572 1644l148 -348h-196l-174 348h222zM1299 1095l-193 -1095h-225l32 184h-14q-43 -95 -130 -150.5t-201 -55.5q-156 0 -248.5 94t-92.5 248q0 57 15 139l111 636h233l-109 -616q-9 -54 -9 -98q0 -89 55 -144t148 -55
q106 0 182.5 71.5t98.5 196.5l114 645h233z" />
    <glyph glyph-name="Uinvertedbreve" unicode="&#x216;" 
d="M207 546l158 897h242l-158 -893q-10 -57 -10 -94q0 -123 73 -195t191 -72q116 0 196.5 79t105.5 219l170 956h241l-177 -991q-41 -228 -184 -354.5t-358 -126.5q-225 0 -362.5 127t-137.5 338q0 51 10 110zM967 1923q160 0 255 -93.5t74 -230.5h-171q7 81 -39.5 130
t-129.5 49q-85 0 -147 -49.5t-78 -129.5h-177q26 146 139.5 235t273.5 89z" />
    <glyph glyph-name="uinvertedbreve" unicode="&#x217;" 
d="M1299 1095l-193 -1095h-225l32 184h-14q-43 -95 -130 -150.5t-201 -55.5q-156 0 -248.5 94t-92.5 248q0 57 15 139l111 636h233l-109 -616q-9 -54 -9 -98q0 -89 55 -144t148 -55q106 0 182.5 71.5t98.5 196.5l114 645h233zM888 1603q165 0 264.5 -101t73.5 -243h-174
q10 84 -39.5 135t-140.5 51q-88 0 -149 -51t-71 -135h-177q17 154 131.5 249t281.5 95z" />
    <glyph glyph-name="Scommaaccent" unicode="&#x218;" 
d="M177 424h233q-2 -20 -2 -25q0 -98 84.5 -160.5t217.5 -62.5q124 0 202.5 60t78.5 154q0 74 -52 124t-177 94l-114 40q-172 61 -254 155.5t-82 231.5q0 195 141 316t368 121q215 0 353 -110.5t138 -284.5q0 -27 -3 -40h-232q1 4 1 23q0 89 -72.5 148.5t-181.5 59.5
q-117 0 -190 -56.5t-73 -147.5q0 -74 50 -124t164 -90l118 -42q181 -64 263 -154t82 -224q0 -209 -144.5 -334t-386.5 -125q-230 0 -381.5 115.5t-151.5 292.5q0 29 3 45zM563 -513h-208l151 357h236z" />
    <glyph glyph-name="scommaaccent" unicode="&#x219;" 
d="M343 773q0 156 123 251.5t323 95.5q182 0 294.5 -81.5t117.5 -216.5q0 -15 -2 -31h-222v6q-6 67 -58 104.5t-140 37.5q-91 0 -147.5 -38t-56.5 -99q0 -46 35.5 -78t113.5 -57l146 -47q144 -46 208.5 -114.5t64.5 -174.5q0 -157 -129 -255.5t-334 -98.5q-198 0 -321 85
t-127 225q0 7 2 23h228v-5q8 -68 67.5 -107t157.5 -39t156.5 38.5t58.5 103.5q0 46 -35.5 78t-115.5 58l-147 48q-134 44 -197.5 114t-63.5 174zM570 -503h-208l151 357h236z" />
    <glyph glyph-name="Tcommaaccent" unicode="&#x21a;" 
d="M566 -503h-208l151 357h236zM754 0h-242l219 1232h-422l35 211h1086l-36 -211h-422z" />
    <glyph glyph-name="tcommaaccent" unicode="&#x21b;" 
d="M651 -503h-208l151 357h236zM668 1401h228l-54 -313h423l-33 -188h-418l-101 -552q-4 -23 -4 -41q0 -121 168 -121q192 0 219 3l-32 -186q-32 -6 -268 -6q-160 0 -242.5 64.5t-82.5 188.5q0 46 10 99l100 551h-288l33 188h288z" />
    <glyph glyph-name="Hcaron" unicode="&#x21e;" 
d="M1134 0h-238l112 629h-527l-111 -629h-238l254 1443h238l-107 -603h527l106 603h238zM797 1600l-226 324h210l129 -196h15l199 196h230l-339 -324h-218z" />
    <glyph glyph-name="hcaron" unicode="&#x21f;" 
d="M158 0l267 1518h226l-108 -607h14q46 94 135 149t199 55q155 0 249.5 -93t94.5 -247q0 -45 -15 -137l-111 -638h-233l109 616q10 58 10 95q0 88 -57.5 144t-150.5 56q-107 0 -184 -71t-99 -195l-114 -645h-232zM457 1675l-226 324h210l129 -196h15l199 196h230l-339 -324
h-218z" />
    <glyph glyph-name="Adotaccent" unicode="&#x226;" 
d="M943 1615q-59 0 -102 44t-43 105t43 104.5t102 43.5t102.5 -43.5t43.5 -104.5t-43.5 -105t-102.5 -44zM560 571h352l-60 619h-10zM967 0l-37 379h-458l-173 -379h-251l700 1443h278l188 -1443h-247z" />
    <glyph glyph-name="adotaccent" unicode="&#x227;" 
d="M543 -17q-145 0 -237 85.5t-93 219.5q-2 173 121.5 266.5t355.5 97.5l256 4l10 61q6 29 6 55q0 70 -52 111.5t-139 41.5q-75 0 -133 -34t-79 -91h-229q26 137 156 225t306 88q182 0 291.5 -87t109.5 -232q0 -52 -17 -141l-115 -653h-221l26 149h-17
q-40 -79 -120.5 -122.5t-185.5 -43.5zM630 172q100 0 176 63.5t94 163.5l19 100l-220 -3q-120 -1 -185 -46.5t-66 -127.5q-1 -68 49 -109t133 -41zM892 1289q-59 0 -102 44t-43 105t43 104.5t102 43.5t102.5 -43.5t43.5 -104.5t-43.5 -105t-102.5 -44z" />
    <glyph glyph-name="Ecedilla" unicode="&#x228;" 
d="M1316 1232h-644l-73 -402h608l-34 -197h-607l-77 -422h644l-35 -211h-362l-67 -122q82 -7 128 -47.5t46 -106.5q0 -99 -72.5 -155.5t-199.5 -56.5q-75 0 -152 23l21 124q51 -19 128 -19q54 0 84 17.5t30 48.5q0 63 -127 63h-55l12 104l70 127h-371l254 1443h887z" />
    <glyph glyph-name="ecedilla" unicode="&#x229;" 
d="M508 647h500q6 27 6 55q10 103 -51 167.5t-169 64.5q-107 0 -180 -61.5t-96 -170.5q-5 -25 -10 -55zM267 561l23 131q33 196 172 310.5t344 114.5q197 0 319 -118.5t110 -297.5q0 -52 -11 -110l-15 -100h-725q-10 -43 -10 -77q-8 -114 55.5 -182.5t177.5 -68.5
q85 0 147.5 36.5t81.5 97.5h230q-22 -129 -136.5 -216t-278.5 -101l-56 -102q82 -7 128 -47.5t46 -106.5q0 -99 -72.5 -155.5t-199.5 -56.5q-75 0 -152 23l21 124q51 -19 128 -19q54 0 84 17.5t30 48.5q0 63 -127 63h-55l12 104l62 112q-164 26 -256.5 135.5t-92.5 281.5
q0 59 16 159z" />
    <glyph glyph-name="Odieresismacron" unicode="&#x22a;" 
d="M1274 535q-50 -276 -199 -420t-386 -144q-220 0 -359 141t-139 364q0 136 15 210l40 225q48 270 199 415.5t381 145.5q225 0 364 -141.5t139 -370.5q0 -107 -15 -200zM703 187q261 0 330 388l40 224q14 79 14 156q0 137 -74 219t-198 82q-260 0 -328 -380l-38 -218
q-15 -85 -15 -165q0 -142 72 -224t197 -82zM1144 1827q53 0 90.5 -38.5t37.5 -93.5t-37.5 -93.5t-90.5 -38.5t-90.5 38.5t-37.5 93.5t37.5 93.5t90.5 38.5zM1335 2101l-25 -148h-704l26 148h703zM715 1827q53 0 90.5 -38.5t37.5 -93.5t-37.5 -93.5t-90.5 -38.5t-90.5 38.5
t-37.5 93.5t37.5 93.5t90.5 38.5z" />
    <glyph glyph-name="odieresismacron" unicode="&#x22b;" 
d="M1093 1567q54 0 94.5 -41t40.5 -98t-40.5 -98t-94.5 -41q-55 0 -95.5 41t-40.5 98t40.5 98t95.5 41zM654 1567q55 0 95 -41t40 -98t-40 -98t-95 -41t-95 41t-40 98t40 98t95 41zM603 1891h696l-29 -166h-696zM688 -22q-205 0 -333 123t-128 313q0 60 10 116l27 156
q35 200 170 315.5t331 115.5q210 0 339.5 -123t129.5 -316q0 -52 -10 -112l-28 -156q-37 -205 -170.5 -318.5t-337.5 -113.5zM761 924q-108 0 -179.5 -70t-94.5 -199l-25 -144q-8 -45 -8 -91q0 -111 68 -180t177 -69q110 0 180.5 70.5t94.5 204.5l26 147q6 41 6 84
q0 110 -68 178.5t-177 68.5z" />
    <glyph glyph-name="Otildemacron" unicode="&#x22c;" 
d="M1317 1962h-704l25 147h704zM797 1694q-77 0 -92 -119h-154q13 118 79.5 189t165.5 71q45 0 81.5 -13.5t59.5 -33t43 -39t42.5 -33t47.5 -13.5q75 0 92 115h153q-11 -112 -78.5 -184t-166.5 -72q-45 0 -81.5 13.5t-59 33t-42.5 39t-42.5 33t-47.5 13.5zM1274 535
q-50 -276 -199 -420t-386 -144q-220 0 -359 141t-139 364q0 136 15 210l40 225q48 270 199 415.5t381 145.5q225 0 364 -141.5t139 -370.5q0 -107 -15 -200zM703 187q261 0 330 388l40 224q14 79 14 156q0 137 -74 219t-198 82q-260 0 -328 -380l-38 -218q-15 -85 -15 -165
q0 -142 72 -224t197 -82z" />
    <glyph glyph-name="otildemacron" unicode="&#x22d;" 
d="M1233 1726h-696l29 166h696zM721 1420q-40 0 -62 -35.5t-28 -111.5h-167q14 143 82 224.5t176 81.5q45 0 83 -16t63.5 -38.5t48 -44.5t45.5 -38t46 -16q41 0 62.5 34.5t27.5 108.5h167q-13 -140 -82.5 -222t-175.5 -82q-45 0 -83 16t-63.5 38.5t-48 45.5t-45.5 39t-46 16
zM688 -22q-205 0 -333 123t-128 313q0 60 10 116l27 156q35 200 170 315.5t331 115.5q210 0 339.5 -123t129.5 -316q0 -52 -10 -112l-28 -156q-37 -205 -170.5 -318.5t-337.5 -113.5zM761 924q-108 0 -179.5 -70t-94.5 -199l-25 -144q-8 -45 -8 -91q0 -111 68 -180t177 -69
q110 0 180.5 70.5t94.5 204.5l26 147q6 41 6 84q0 110 -68 178.5t-177 68.5z" />
    <glyph glyph-name="Odotaccent" unicode="&#x22e;" 
d="M943 1615q-59 0 -102 44t-43 105t43 104.5t102 43.5t102.5 -43.5t43.5 -104.5t-43.5 -105t-102.5 -44zM1274 535q-50 -276 -199 -420t-386 -144q-220 0 -359 141t-139 364q0 136 15 210l40 225q48 270 199 415.5t381 145.5q225 0 364 -141.5t139 -370.5q0 -107 -15 -200z
M703 187q261 0 330 388l40 224q14 79 14 156q0 137 -74 219t-198 82q-260 0 -328 -380l-38 -218q-15 -85 -15 -165q0 -142 72 -224t197 -82z" />
    <glyph glyph-name="odotaccent" unicode="&#x22f;" 
d="M875 1289q-59 0 -102 44t-43 105t43 104.5t102 43.5t102.5 -43.5t43.5 -104.5t-43.5 -105t-102.5 -44zM688 -22q-205 0 -333 123t-128 313q0 60 10 116l27 156q35 200 170 315.5t331 115.5q210 0 339.5 -123t129.5 -316q0 -52 -10 -112l-28 -156q-37 -205 -170.5 -318.5
t-337.5 -113.5zM761 924q-108 0 -179.5 -70t-94.5 -199l-25 -144q-8 -45 -8 -91q0 -111 68 -180t177 -69q110 0 180.5 70.5t94.5 204.5l26 147q6 41 6 84q0 110 -68 178.5t-177 68.5z" />
    <glyph glyph-name="Odotaccentmacron" unicode="&#x230;" 
d="M487 876l-38 -218q-15 -85 -15 -165q0 -142 72 -224t197 -82q261 0 330 388l40 224q14 79 14 156q0 137 -74 219t-198 82q-260 0 -328 -380zM1314 760l-40 -225q-50 -276 -199 -420t-386 -144q-220 0 -359 141t-139 364q0 136 15 210l40 225q48 270 199 415.5t381 145.5
q225 0 364 -141.5t139 -370.5q0 -107 -15 -200zM922 1844q56 0 95 -40t39 -98q0 -57 -39 -97t-95 -40t-95 40t-39 97q0 58 39 98t95 40zM613 1953l26 148h704l-26 -148h-704z" />
    <glyph glyph-name="odotaccentmacron" unicode="&#x231;" 
d="M688 -22q-205 0 -333 123t-128 313q0 60 10 116l27 156q35 200 170 315.5t331 115.5q210 0 339.5 -123t129.5 -316q0 -52 -10 -112l-28 -156q-37 -205 -170.5 -318.5t-337.5 -113.5zM761 924q-108 0 -179.5 -70t-94.5 -199l-25 -144q-8 -45 -8 -91q0 -111 68 -180
t177 -69q110 0 180.5 70.5t94.5 204.5l26 147q6 41 6 84q0 110 -68 178.5t-177 68.5zM1274 1725h-696l29 166h696zM872 1272q-59 0 -102 44t-43 105t43 104.5t102 43.5t102.5 -43.5t43.5 -104.5t-43.5 -105t-102.5 -44z" />
    <glyph glyph-name="Ymacron" unicode="&#x232;" 
d="M754 0h-241l99 561l-327 882h253l221 -636h15l439 636h272l-632 -882zM1262 1672h-696l29 166h696z" />
    <glyph glyph-name="ymacron" unicode="&#x233;" 
d="M257 -393q-77 0 -97 2l33 193q11 -3 65 -3q79 0 127.5 31.5t89.5 112.5l24 49l-201 1103h248l116 -874h15l420 874h255l-589 -1120q-110 -211 -218 -289.5t-288 -78.5zM1204 1361h-696l29 166h696z" />
    <glyph glyph-name="dotlessj" unicode="&#x237;" 
d="M1086 1095l-189 -1067q-35 -200 -146 -287.5t-330 -87.5q-191 0 -302 10l35 204q99 -10 283 -10q109 0 163.5 42t70.5 136l156 874h-471l33 186h697z" />
    <glyph glyph-name="quoteright" unicode="&#x2bc;" 
d="M808 799h-217l238 644h241z" />
    <glyph glyph-name="quoteright" unicode="&#x2019;" 
d="M808 799h-217l238 644h241z" />
    <glyph glyph-name="circumflex" unicode="&#x2c6;" 
d="M793 1627h253l209 -351h-227l-117 216h-17l-192 -216h-240z" />
    <glyph glyph-name="caron" unicode="&#x2c7;" 
d="M986 1296h-253l-209 351h227l117 -216h17l192 216h240z" />
    <glyph glyph-name="breve" unicode="&#x2d8;" 
d="M876 1238q-165 0 -264.5 101t-73.5 243h174q-10 -84 39.5 -135t140.5 -51q88 0 149 51t71 135h177q-17 -154 -131.5 -249t-281.5 -95z" />
    <glyph glyph-name="dotaccent" unicode="&#x2d9;" 
d="M886 1289q-59 0 -102 44t-43 105t43 104.5t102 43.5t102.5 -43.5t43.5 -104.5t-43.5 -105t-102.5 -44z" />
    <glyph glyph-name="ring" unicode="&#x2da;" 
d="M894 1372q46 0 77.5 31.5t31.5 78.5t-31.5 78.5t-77.5 31.5t-77 -31.5t-31 -78.5t31 -78.5t77 -31.5zM894 1245q-96 0 -164.5 69.5t-68.5 167.5t68.5 167.5t164.5 69.5q97 0 165.5 -69.5t68.5 -167.5t-68.5 -167.5t-165.5 -69.5z" />
    <glyph glyph-name="ogonek" unicode="&#x2db;" 
d="M773 -284l-25 -147q-43 -20 -112 -20q-106 0 -171.5 51t-65.5 133q0 157 172 267h177q-69 -34 -111.5 -89t-42.5 -110q0 -44 30 -68t85 -24q43 0 64 7z" />
    <glyph glyph-name="tilde" unicode="&#x2dc;" 
d="M740 1425q-40 0 -62 -35.5t-28 -111.5h-167q14 143 82 224.5t176 81.5q45 0 83 -16t63.5 -38t48 -44.5t45.5 -38.5t46 -16q41 0 62.5 34.5t27.5 108.5h167q-13 -140 -82.5 -222t-175.5 -82q-45 0 -83 16t-63.5 39t-48 45.5t-45.5 38.5t-46 16z" />
    <glyph glyph-name="hungarumlaut" unicode="&#x2dd;" 
d="M895 1296l270 348h234l-295 -348h-209zM485 1296l270 348h234l-295 -348h-209z" />
    <glyph glyph-name="gravecmb" unicode="&#x300;" 
d="M1065 1296h-225l-213 347h259z" />
    <glyph glyph-name="acutecmb" unicode="&#x301;" 
d="M893 1296h-236l301 347h269z" />
    <glyph glyph-name="circumflexcmb" unicode="&#x302;" 
d="M793 1627h253l209 -351h-227l-117 216h-17l-192 -216h-240z" />
    <glyph glyph-name="tildecmb" unicode="&#x303;" 
d="M739 1418q-40 0 -62 -35.5t-28 -111.5h-167q14 143 82 224.5t176 81.5q45 0 83 -16t63.5 -38.5t48 -44.5t45.5 -38t46 -16q41 0 62.5 34.5t27.5 108.5h167q-13 -140 -82.5 -222t-175.5 -82q-45 0 -83 16t-63.5 38.5t-48 45.5t-45.5 39t-46 16z" />
    <glyph glyph-name="macroncmb" unicode="&#x304;" 
d="M1221 1361h-696l29 166h696z" />
    <glyph glyph-name="brevecmb" unicode="&#x306;" 
d="M876 1238q-165 0 -264.5 101t-73.5 243h174q-10 -84 39.5 -135t140.5 -51q88 0 149 51t71 135h177q-17 -154 -131.5 -249t-281.5 -95z" />
    <glyph glyph-name="dotaccentcmb" unicode="&#x307;" 
d="M886 1289q-59 0 -102 44t-43 105t43 104.5t102 43.5t102.5 -43.5t43.5 -104.5t-43.5 -105t-102.5 -44z" />
    <glyph glyph-name="dieresiscmb" unicode="&#x308;" 
d="M668 1292q-54 0 -94.5 41t-40.5 98t40.5 98t94.5 41q55 0 95.5 -41t40.5 -98t-40.5 -98t-95.5 -41zM1107 1292q-55 0 -95 41t-40 98t40 98t95 41t95 -41t40 -98t-40 -98t-95 -41z" />
    <glyph glyph-name="hookabovecmb" unicode="&#x309;" 
d="M709 1503l15 132q57 27 139 27q100 0 160.5 -52t60.5 -138q0 -80 -54 -143t-149 -94l-71 108q110 36 110 110q0 34 -27.5 54t-73.5 20q-59 0 -110 -24z" />
    <glyph glyph-name="ringcmb" unicode="&#x30a;" 
d="M894 1372q46 0 77.5 31.5t31.5 78.5t-31.5 78.5t-77.5 31.5t-77 -31.5t-31 -78.5t31 -78.5t77 -31.5zM894 1245q-96 0 -164.5 69.5t-68.5 167.5t68.5 167.5t164.5 69.5q97 0 165.5 -69.5t68.5 -167.5t-68.5 -167.5t-165.5 -69.5z" />
    <glyph glyph-name="hungarumlautcmb" unicode="&#x30b;" 
d="M845 1296l270 348h234l-295 -348h-209zM435 1296l270 348h234l-295 -348h-209z" />
    <glyph glyph-name="caroncmb" unicode="&#x30c;" 
d="M984 1296h-253l-209 351h227l117 -216h17l192 216h240z" />
    <glyph glyph-name="dblgravecmb" unicode="&#x30f;" 
d="M988 1644l148 -348h-197l-173 348h222zM582 1644l148 -348h-196l-174 348h222z" />
    <glyph glyph-name="invertedbrevecmb" unicode="&#x311;" 
d="M898 1603q165 0 264.5 -101t73.5 -243h-174q10 84 -39.5 135t-140.5 51q-88 0 -149 -51t-71 -135h-177q17 154 131.5 249t281.5 95z" />
    <glyph glyph-name="horncmb" unicode="&#x31b;" 
d="M634 940l20 173q22 -20 65 -20q55 0 83 32.5t32 103.5l12 150h190l-18 -198q-10 -122 -83 -194t-184 -72q-79 0 -117 25z" />
    <glyph glyph-name="dotbelowcmb" unicode="&#x323;" 
d="M577 -466q-59 0 -102 44t-43 105t43 104.5t102 43.5t102.5 -43.5t43.5 -104.5t-43.5 -105t-102.5 -44z" />
    <glyph glyph-name="dieresisbelowcmb" unicode="&#x324;" 
d="M357 -456q-54 0 -94.5 41t-40.5 98t40.5 98t94.5 41q55 0 95.5 -41t40.5 -98t-40.5 -98t-95.5 -41zM796 -456q-55 0 -95 41t-40 98t40 98t95 41t95 -41t40 -98t-40 -98t-95 -41z" />
    <glyph glyph-name="ringbelowcmb" unicode="&#x325;" 
d="M573 -467q46 0 77.5 31.5t31.5 78.5t-31.5 78.5t-77.5 31.5t-77 -31.5t-31 -78.5t31 -78.5t77 -31.5zM573 -594q-96 0 -164.5 69.5t-68.5 167.5t68.5 167.5t164.5 69.5q97 0 165.5 -69.5t68.5 -167.5t-68.5 -167.5t-165.5 -69.5z" />
    <glyph glyph-name="commabelowcmb" unicode="&#x326;" 
d="M568 -513h-208l151 357h236z" />
    <glyph glyph-name="cedillacmb" unicode="&#x327;" 
d="M479 -231l12 104l70 127h154l-67 -122q82 -7 128 -47.5t46 -106.5q0 -99 -72.5 -155.5t-199.5 -56.5q-75 0 -152 23l21 124q51 -19 128 -19q54 0 84 17.5t30 48.5q0 63 -127 63h-55z" />
    <glyph glyph-name="ogonekcmb" unicode="&#x328;" 
d="M854 -284l-25 -147q-43 -20 -112 -20q-106 0 -171.5 51t-65.5 133q0 157 172 267h177q-69 -34 -111.5 -89t-42.5 -110q0 -44 30 -68t85 -24q43 0 64 7z" />
    <glyph glyph-name="circumflexbelowcmb" unicode="&#x32d;" 
d="M478 -162h253l209 -351h-227l-117 216h-17l-192 -216h-240z" />
    <glyph glyph-name="brevebelowcmb" unicode="&#x32e;" 
d="M583 -475q-165 0 -264.5 101t-73.5 243h174q-10 -84 39.5 -135t140.5 -51q88 0 149 51t71 135h177q-17 -154 -131.5 -249t-281.5 -95z" />
    <glyph glyph-name="tildebelowcmb" unicode="&#x330;" 
d="M434 -315q-40 0 -62 -35.5t-28 -111.5h-167q14 143 82 224.5t176 81.5q45 0 83 -16t63.5 -38t48 -44.5t45.5 -38.5t46 -16q41 0 62.5 34.5t27.5 108.5h167q-13 -140 -82.5 -222t-175.5 -82q-45 0 -83 16t-63.5 39t-48 45.5t-45.5 38.5t-46 16z" />
    <glyph glyph-name="macronbelowcmb" unicode="&#x331;" 
d="M909 -407h-696l29 166h696z" />
    <glyph glyph-name="greekquestionmark" unicode="&#x37e;" 
d="M803 748q-84 0 -144.5 61.5t-60.5 147.5t60.5 147t144.5 61t144 -61t60 -147t-60 -147.5t-144 -61.5zM569 -328h-235l259 730h290z" />
    <glyph glyph-name="tonosgreek" unicode="&#x384;" 
d="M710 1282l115 361h247l-167 -361h-195z" />
    <glyph glyph-name="dieresistonosgreek" unicode="&#x385;" 
d="M542 1292q-55 0 -91.5 36t-36.5 90t36.5 90t91.5 36q54 0 91 -36t37 -90t-37 -90t-91 -36zM1224 1292q-54 0 -91 36t-37 90t37 90t91 36q55 0 91.5 -36t36.5 -90t-36.5 -90t-91.5 -36zM742 1282l94 361h227l-145 -361h-176z" />
    <glyph glyph-name="Alphatonosgreek" unicode="&#x386;" 
d="M633 1443l-185 -361h-182l147 361h220zM659 568h273l-23 610h-9zM954 0l-14 379h-356l-150 -379h-236l614 1443h277l106 -1443h-241z" />
    <glyph glyph-name="anoteleia" unicode="&#x387;" 
d="M799 783q-71 0 -114.5 43.5t-43.5 112.5t43.5 112.5t114.5 43.5q72 0 115 -43t43 -113t-43 -113t-115 -43z" />
    <glyph glyph-name="Epsilontonosgreek" unicode="&#x388;" 
d="M1181 211l-35 -211h-661l254 1443h661l-35 -211h-428l-73 -402h391l-34 -197h-390l-77 -422h427zM229 1082l147 361h220l-185 -361h-182z" />
    <glyph glyph-name="Etatonosgreek" unicode="&#x389;" 
d="M1195 0h-213l114 639h-330l-114 -639h-212l254 1443h212l-108 -614h330l108 614h213zM219 1082l147 361h220l-185 -361h-182z" />
    <glyph glyph-name="Iotatonosgreek" unicode="&#x38a;" 
d="M1184 0h-716l35 208h250l185 1027h-251l35 208h716l-35 -208h-252l-184 -1027h252zM275 1082l147 361h220l-185 -361h-182z" />
    <glyph glyph-name="Omicrontonosgreek" unicode="&#x38c;" 
d="M636 434q0 -119 50.5 -183t142.5 -64q191 0 257 364l49 282q19 105 19 176q0 118 -50 182.5t-140 64.5q-193 0 -260 -364l-49 -280q-19 -99 -19 -178zM1297 545q-53 -293 -172.5 -434t-315.5 -141q-182 0 -283.5 118.5t-101.5 331.5q0 93 24 230l44 248q100 575 485 575
q187 0 288 -117t101 -333q0 -86 -24 -230zM237 1082l147 361h220l-185 -361h-182z" />
    <glyph glyph-name="Upsilontonosgreek" unicode="&#x38e;" 
d="M927 0h-224l100 559l-182 884h239l88 -634h15l305 634h249l-491 -884zM222 1082l147 361h220l-185 -361h-182z" />
    <glyph glyph-name="Omegatonosgreek" unicode="&#x38f;" 
d="M959 1471q210 0 320.5 -124.5t110.5 -361.5q0 -63 -13 -152q-4 -39 -19 -117q-34 -192 -106.5 -312.5t-201.5 -201.5l-2 -17h227l-31 -185h-435l49 282q117 51 187.5 159.5t104.5 299.5q15 87 16 97q13 75 13 133q0 284 -236 284q-121 0 -195.5 -92t-108.5 -287
q-2 -10 -9 -48.5t-12.5 -71.5t-6.5 -42q-11 -75 -11 -124q2 -204 140 -300l-48 -290h-404l32 185h215l2 17q-69 63 -106.5 163.5t-37.5 222.5q0 59 10 139q1 13 13.5 86.5t13.5 79.5q50 285 184 431.5t345 146.5zM191 1082l147 361h220l-185 -361h-182z" />
    <glyph glyph-name="iotadieresistonosgreek" unicode="&#x390;" 
d="M920 -5q-178 0 -266.5 62t-88.5 172q0 36 10 101l104 579h-344l32 186h576l-128 -709q-11 -55 -11 -95q0 -106 169 -106q80 0 157 9l-28 -186q-68 -13 -182 -13zM540 1292q-55 0 -91.5 36t-36.5 90t36.5 90t91.5 36q54 0 91 -36t37 -90t-37 -90t-91 -36zM1222 1292
q-54 0 -91 36t-37 90t37 90t91 36q55 0 91.5 -36t36.5 -90t-36.5 -90t-91.5 -36zM740 1282l94 361h227l-145 -361h-176z" />
    <glyph glyph-name="Alphagreek" unicode="&#x391;" 
d="M560 571h352l-60 619h-10zM967 0l-37 379h-458l-173 -379h-251l700 1443h278l188 -1443h-247z" />
    <glyph glyph-name="Betagreek" unicode="&#x392;" 
d="M621 1252l-75 -415h231q122 0 199 64.5t78 165.5q0 90 -58 137.5t-168 47.5h-207zM431 194h267q144 0 229.5 68.5t85.5 183.5q0 101 -71 155t-205 54h-222zM161 0l254 1443h467q199 0 311.5 -89t111.5 -245q-1 -133 -86 -230t-224 -123l-3 -14q122 -21 196 -110t73 -215
q-1 -188 -144.5 -302.5t-380.5 -114.5h-575z" />
    <glyph glyph-name="Gammagreek" unicode="&#x393;" 
d="M244 0l254 1443h884l-35 -215h-645l-219 -1228h-239z" />
    <glyph glyph-name="Deltagreek" unicode="&#x394;" 
d="M74 0l25 147l648 1296h279l192 -1296l-26 -147h-1118zM371 211h601l3 15l-119 972h-16l-467 -972z" />
    <glyph glyph-name="Deltagreek" unicode="&#x2206;" 
d="M74 0l25 147l648 1296h279l192 -1296l-26 -147h-1118zM371 211h601l3 15l-119 972h-16l-467 -972z" />
    <glyph glyph-name="Epsilongreek" unicode="&#x395;" 
d="M1133 211l-35 -211h-887l254 1443h887l-36 -211h-644l-73 -402h608l-34 -197h-607l-77 -422h644z" />
    <glyph glyph-name="Zetagreek" unicode="&#x396;" 
d="M134 0l29 172l884 1046l2 14h-675l35 211h976l-29 -174l-885 -1044l-2 -14h714l-36 -211h-1013z" />
    <glyph glyph-name="Etagreek" unicode="&#x397;" 
d="M1134 0h-238l112 629h-527l-111 -629h-238l254 1443h238l-107 -603h527l106 603h238z" />
    <glyph glyph-name="Thetagreek" unicode="&#x398;" 
d="M530 616l34 207h424l-34 -207h-424zM1274 535q-50 -276 -199 -420t-386 -144q-220 0 -359 141t-139 364q0 139 15 210l40 225q48 270 199 415.5t381 145.5q225 0 364 -141.5t139 -370.5q0 -108 -15 -200zM700 187q135 0 223 98t123 290l42 224q14 78 14 156
q0 136 -77.5 218.5t-206.5 82.5q-135 0 -222 -95.5t-121 -284.5l-41 -218q-15 -82 -15 -165q0 -140 76 -223t205 -83z" />
    <glyph glyph-name="Iotagreek" unicode="&#x399;" 
d="M1050 0h-834l35 208h297l184 1027h-297l35 208h834l-35 -208h-296l-184 -1027h296z" />
    <glyph glyph-name="Kappagreek" unicode="&#x39a;" 
d="M881 803l376 -803h-268l-306 648l-188 -181l-83 -467h-231l254 1443h231l-122 -677h15l667 677h280z" />
    <glyph glyph-name="Lambdagreek" unicode="&#x39b;" 
d="M60 0l688 1443h278l180 -1443h-255l-102 1181h-10l-527 -1181h-252z" />
    <glyph glyph-name="Mugreek" unicode="&#x39c;" 
d="M389 508l-91 -508h-206l254 1443h253l127 -854h15l426 854h261l-254 -1443h-206l91 508l128 580h-18l-389 -749h-171l-125 749h-17z" />
    <glyph glyph-name="Nugreek" unicode="&#x39d;" 
d="M349 0h-212l254 1443h220l360 -1028h16l184 1028h212l-254 -1443h-219l-361 1032h-16z" />
    <glyph glyph-name="Xigreek" unicode="&#x39e;" 
d="M150 0l38 217h965l-37 -217h-966zM344 629l35 204h801l-34 -204h-802zM368 1226l36 217h966l-37 -217h-965z" />
    <glyph glyph-name="Omicrongreek" unicode="&#x39f;" 
d="M1274 535q-50 -276 -199 -420t-386 -144q-220 0 -359 141t-139 364q0 136 15 210l40 225q48 270 199 415.5t381 145.5q225 0 364 -141.5t139 -370.5q0 -107 -15 -200zM703 187q261 0 330 388l40 224q14 79 14 156q0 137 -74 219t-198 82q-260 0 -328 -380l-38 -218
q-15 -85 -15 -165q0 -142 72 -224t197 -82z" />
    <glyph glyph-name="Pigreek" unicode="&#x3a0;" 
d="M138 0l254 1443h990l-254 -1443h-242l219 1232h-506l-219 -1232h-242z" />
    <glyph glyph-name="Rhogreek" unicode="&#x3a1;" 
d="M422 1443h460q211 0 334.5 -112t123.5 -303q0 -245 -161.5 -395t-426.5 -150h-255l-87 -483h-242zM630 1241l-99 -556h216q163 0 256.5 87t93.5 239q0 110 -68 170t-193 60h-206z" />
    <glyph glyph-name="Sigmagreek" unicode="&#x3a3;" 
d="M134 0l30 173l465 554l-250 542l29 174h929l-35 -211h-636l-3 -15l226 -490l-6 -31l-400 -470l-2 -15h657l-36 -211h-968z" />
    <glyph glyph-name="Taugreek" unicode="&#x3a4;" 
d="M754 0h-242l219 1232h-422l35 211h1086l-36 -211h-422z" />
    <glyph glyph-name="Upsilongreek" unicode="&#x3a5;" 
d="M754 0h-241l99 561l-327 882h253l221 -636h15l439 636h272l-632 -882z" />
    <glyph glyph-name="Phigreek" unicode="&#x3a6;" 
d="M735 -95h-214l28 160q-184 28 -282 161t-98 353q0 113 22 223q49 269 203.5 420.5t384.5 151.5l26 151h214l-28 -166q182 -26 280.5 -158.5t98.5 -351.5q0 -85 -17 -198q-45 -281 -201.5 -441t-391.5 -160zM372 581q0 -289 213 -333l168 944q-137 -6 -232 -121t-131 -311
q-18 -94 -18 -179zM953 1178l-168 -944q142 7 239.5 127t128.5 321q14 95 14 158q0 291 -214 338z" />
    <glyph glyph-name="Chigreek" unicode="&#x3a7;" 
d="M38 0l568 728l-316 715h258l228 -546h12l422 546h269l-583 -722l329 -721h-252l-242 535h-12l-422 -535h-259z" />
    <glyph glyph-name="Psigreek" unicode="&#x3a8;" 
d="M518 0l56 323q-186 26 -272 115.5t-86 258.5q0 84 22 212l94 534h207l-95 -546q-21 -123 -21 -174q0 -97 47 -146.5t149 -63.5l164 930h209l-166 -942q134 3 202.5 81.5t103.5 275.5l102 585h208l-107 -615q-48 -274 -169.5 -391.5t-360.5 -126.5l-56 -310h-231z" />
    <glyph glyph-name="Omegagreek" unicode="&#x3a9;" 
d="M825 1473q246 0 381 -136t135 -385q0 -80 -18 -191q-16 -95 -34 -137q-38 -145 -114 -243.5t-197 -160.5q0 -1 -1 -7.5t-1 -7.5h259l-35 -205h-488l42 247q116 44 198.5 150t117.5 255q14 57 22 111q14 83 14 147q0 167 -75.5 255t-216.5 88q-131 0 -222.5 -87.5
t-129.5 -247.5q-19 -69 -30 -148q-12 -73 -12 -146q2 -255 168 -368l-43 -256h-467l36 205h254q0 1 1.5 7.5t1.5 7.5q-84 66 -130 179t-46 255q0 81 10 145q9 60 29 150q54 245 210.5 384.5t380.5 139.5z" />
    <glyph glyph-name="Omegagreek" unicode="&#x2126;" 
d="M825 1473q246 0 381 -136t135 -385q0 -80 -18 -191q-16 -95 -34 -137q-38 -145 -114 -243.5t-197 -160.5q0 -1 -1 -7.5t-1 -7.5h259l-35 -205h-488l42 247q116 44 198.5 150t117.5 255q14 57 22 111q14 83 14 147q0 167 -75.5 255t-216.5 88q-131 0 -222.5 -87.5
t-129.5 -247.5q-19 -69 -30 -148q-12 -73 -12 -146q2 -255 168 -368l-43 -256h-467l36 205h254q0 1 1.5 7.5t1.5 7.5q-84 66 -130 179t-46 255q0 81 10 145q9 60 29 150q54 245 210.5 384.5t380.5 139.5z" />
    <glyph glyph-name="Iotadieresisgreek" unicode="&#x3aa;" 
d="M1050 0h-834l35 208h297l184 1027h-297l35 208h834l-35 -208h-296l-184 -1027h296zM723 1632q-54 0 -94.5 41t-40.5 98t40.5 98t94.5 41q55 0 95.5 -41t40.5 -98t-40.5 -98t-95.5 -41zM1162 1632q-55 0 -95 41t-40 98t40 98t95 41t95 -41t40 -98t-40 -98t-95 -41z" />
    <glyph glyph-name="Upsilondieresisgreek" unicode="&#x3ab;" 
d="M754 0h-241l99 561l-327 882h253l221 -636h15l439 636h272l-632 -882zM711 1632q-54 0 -94.5 41t-40.5 98t40.5 98t94.5 41q55 0 95.5 -41t40.5 -98t-40.5 -98t-95.5 -41zM1150 1632q-55 0 -95 41t-40 98t40 98t95 41t95 -41t40 -98t-40 -98t-95 -41z" />
    <glyph glyph-name="alphatonosgreek" unicode="&#x3ac;" 
d="M953 678q0 105 -60 171t-155 66q-104 0 -183.5 -84t-110.5 -226q-23 -98 -23 -172q0 -111 58 -178t155 -67q103 0 177 69.5t106 199.5q36 143 36 221zM899 192h-13q-49 -99 -141 -154t-207 -55q-157 0 -255 110.5t-98 297.5q0 131 35 275q50 209 175 328.5t288 119.5
q121 0 201.5 -60.5t97.5 -164.5h15l37 206h225l-137 -784q-6 -42 -6 -61q0 -34 18.5 -52t52.5 -18q39 0 57 5l-33 -178q-43 -17 -120 -17q-92 0 -144.5 42.5t-52.5 116.5q0 23 5 43zM721 1282l115 361h247l-167 -361h-195z" />
    <glyph glyph-name="epsilontonosgreek" unicode="&#x3ad;" 
d="M754 1282l115 361h247l-167 -361h-195zM660 -22q-211 0 -331.5 86t-120.5 230q0 111 67 183.5t180 90.5l2 13q-138 76 -138 220q0 142 121.5 228.5t322.5 86.5q222 0 346 -91t136 -256h-225q-26 157 -252 157q-105 0 -166 -40t-61 -109q0 -62 55 -97t154 -35h118
l-31 -181h-190q-94 0 -147.5 -38t-54.5 -104q0 -73 62 -113.5t176 -40.5q112 0 186.5 44.5t104.5 132.5h238q-43 -176 -187 -271.5t-365 -95.5z" />
    <glyph glyph-name="etatonosgreek" unicode="&#x3ae;" 
d="M770 1282l115 361h247l-167 -361h-195zM451 0h-233l138 781q4 24 4 45q0 90 -80 90q-27 0 -48 -8l31 182q40 15 120 15q200 0 211 -187v-19h15q39 99 128 158.5t209 59.5q144 0 232.5 -90.5t88.5 -243.5q0 -43 -10 -111l-182 -1035h-233l175 995q10 50 10 89
q0 90 -52 140.5t-142 50.5q-101 0 -173.5 -72t-95.5 -198z" />
    <glyph glyph-name="iotatonosgreek" unicode="&#x3af;" 
d="M920 -5q-178 0 -266.5 62t-88.5 172q0 36 10 101l104 579h-344l32 186h576l-128 -709q-11 -55 -11 -95q0 -106 169 -106q80 0 157 9l-28 -186q-68 -13 -182 -13zM761 1282l115 361h247l-167 -361h-195z" />
    <glyph glyph-name="upsilondieresistonosgreek" unicode="&#x3b0;" 
d="M976 1095h225q39 -125 39 -296q0 -382 -155 -601.5t-428 -219.5q-196 0 -306 96t-110 270q0 65 11 125l110 626h222l-107 -603q-12 -66 -12 -116q2 -192 204 -192q162 0 254.5 160.5t92.5 455.5q0 161 -40 295zM713 1282l94 361h227l-145 -361h-176zM1195 1292
q-54 0 -91 36t-37 90t37 90t91 36q55 0 91.5 -36t36.5 -90t-36.5 -90t-91.5 -36zM513 1292q-55 0 -91.5 36t-36.5 90t36.5 90t91.5 36q54 0 91 -36t37 -90t-37 -90t-91 -36z" />
    <glyph glyph-name="alphagreek" unicode="&#x3b1;" 
d="M953 678q0 105 -60 171t-155 66q-104 0 -183.5 -84t-110.5 -226q-23 -98 -23 -172q0 -111 58 -178t155 -67q103 0 177 69.5t106 199.5q36 143 36 221zM899 192h-13q-49 -99 -141 -154t-207 -55q-157 0 -255 110.5t-98 297.5q0 131 35 275q50 209 175 328.5t288 119.5
q121 0 201.5 -60.5t97.5 -164.5h15l37 206h225l-137 -784q-6 -42 -6 -61q0 -34 18.5 -52t52.5 -18q39 0 57 5l-33 -178q-43 -17 -120 -17q-92 0 -144.5 42.5t-52.5 116.5q0 23 5 43z" />
    <glyph glyph-name="betagreek" unicode="&#x3b2;" 
d="M107 -363l249 1416q43 243 168.5 368t331.5 125q179 0 290 -99.5t111 -252.5q0 -138 -68 -233.5t-196 -135.5l-3 -14q115 -34 179 -125t64 -220q0 -209 -128 -346t-326 -137q-130 0 -221 57.5t-117 154.5h-12l-99 -558h-223zM730 185q123 0 199.5 77.5t76.5 205.5
q0 115 -73.5 182t-205.5 67h-66l32 188h81q129 0 201.5 68t72.5 180q0 92 -56 144t-151 52q-106 0 -171 -76t-95 -243l-85 -481q-14 -67 -14 -131q0 -99 72 -166t182 -67z" />
    <glyph glyph-name="gammagreek" unicode="&#x3b3;" 
d="M644 -352h-231l58 322l-177 1125h239l113 -865h13q379 413 382 797q0 47 -3 68h229q3 -18 3 -58q-1 -249 -132.5 -494.5t-434.5 -560.5z" />
    <glyph glyph-name="deltagreek" unicode="&#x3b4;" 
d="M677 -22q-212 0 -342 130.5t-130 342.5q0 233 127.5 382.5t341.5 168.5l13 1l2 15q-169 101 -169 247q0 123 100 199.5t261 76.5q113 0 221 -31t189 -86l-32 -184q-81 53 -171.5 83.5t-168.5 30.5q-77 0 -118.5 -27t-41.5 -77q0 -43 32.5 -80t120.5 -92
q177 -121 249 -237t72 -281q0 -258 -154.5 -420t-401.5 -162zM689 165q136 0 223 109t87 279q0 135 -66.5 215.5t-178.5 80.5q-148 0 -233 -107.5t-85 -292.5q0 -128 69.5 -206t183.5 -78z" />
    <glyph glyph-name="epsilongreek" unicode="&#x3b5;" 
d="M660 -22q-211 0 -331.5 86t-120.5 230q0 111 67 183.5t180 90.5l2 13q-138 76 -138 220q0 142 121.5 228.5t322.5 86.5q222 0 346 -91t136 -256h-225q-26 157 -252 157q-105 0 -166 -40t-61 -109q0 -62 55 -97t154 -35h118l-31 -181h-190q-94 0 -147.5 -38t-54.5 -104
q0 -73 62 -113.5t176 -40.5q112 0 186.5 44.5t104.5 132.5h238q-43 -176 -187 -271.5t-365 -95.5z" />
    <glyph glyph-name="zetagreek" unicode="&#x3b6;" 
d="M955 -377l-161 81q56 58 82.5 100.5t26.5 80.5q0 52 -45.5 90.5t-168.5 90.5q-205 86 -292.5 189.5t-87.5 261.5q0 206 162.5 405t489.5 381l3 14h-454l31 201h829l-27 -169q-415 -221 -604 -408t-189 -366q0 -113 60.5 -181.5t213.5 -132.5q171 -71 242 -142.5
t71 -165.5q0 -82 -43 -160t-139 -170z" />
    <glyph glyph-name="etagreek" unicode="&#x3b7;" 
d="M451 0h-233l138 781q4 24 4 45q0 90 -80 90q-27 0 -48 -8l31 182q40 15 120 15q200 0 211 -187v-19h15q39 99 128 158.5t209 59.5q144 0 232.5 -90.5t88.5 -243.5q0 -43 -10 -111l-182 -1035h-233l175 995q10 50 10 89q0 90 -52 140.5t-142 50.5q-101 0 -173.5 -72
t-95.5 -198z" />
    <glyph glyph-name="thetagreek" unicode="&#x3b8;" 
d="M854 1539q205 0 319 -126.5t114 -361.5q0 -139 -44 -382q-60 -351 -199 -521t-364 -170q-207 0 -321 126t-114 362q0 110 46 389q57 346 196.5 515t366.5 169zM845 1341q-130 0 -209 -111t-125 -368h543q20 134 20 198q0 138 -59 209.5t-170 71.5zM687 177q130 0 208 112
t127 378h-541q-23 -155 -23 -209q0 -139 59 -210t170 -71z" />
    <glyph glyph-name="iotagreek" unicode="&#x3b9;" 
d="M920 -5q-178 0 -266.5 62t-88.5 172q0 36 10 101l104 579h-344l32 186h576l-128 -709q-11 -55 -11 -95q0 -106 169 -106q80 0 157 9l-28 -186q-68 -13 -182 -13z" />
    <glyph glyph-name="kappagreek" unicode="&#x3ba;" 
d="M395 0h-221l193 1095h223l-93 -502h12l388 355q93 91 157 124t146 33q55 0 100 -12l-31 -185q-30 8 -61 8q-41 0 -73.5 -17.5t-88.5 -69.5l-194 -176l315 -653h-234l-250 509l-232 -199z" />
    <glyph glyph-name="lambdagreek" unicode="&#x3bb;" 
d="M327 0h-238l602 1023l-22 127q-21 119 -61.5 160t-133.5 41q-22 0 -47 -5l31 183q35 11 71 11q79 0 132.5 -16.5t96 -58.5t70.5 -112.5t48 -179.5l165 -876q12 -69 36.5 -93t80.5 -24q9 0 49 7l-30 -182q-32 -15 -103 -15q-109 0 -161 47t-72 160l-97 515h-13z" />
    <glyph glyph-name="nugreek" unicode="&#x3bd;" 
d="M725 0h-257l-175 1095h237l115 -871h13q197 224 285.5 408.5t88.5 372.5q0 47 -5 90h229q5 -30 5 -81q0 -242 -127 -481t-409 -533z" />
    <glyph glyph-name="xigreek" unicode="&#x3be;" 
d="M949 -377l-160 81q56 58 82.5 100.5t26.5 80.5q0 51 -48 92t-171 93q-199 85 -283 168.5t-84 201.5q0 134 99 227.5t268 119.5q-1 1 2 14q-99 39 -146 95t-47 134q0 102 80 176t222 98l3 13h-268l32 201h836l-28 -174l-125 -14q-277 -29 -397.5 -89.5t-120.5 -167.5
q0 -75 83.5 -117.5t228.5 -42.5h172l-30 -190h-212q-200 0 -301.5 -58t-101.5 -163q0 -74 57.5 -126.5t206.5 -117.5q174 -75 240.5 -141.5t66.5 -163.5q0 -82 -43.5 -160t-139.5 -170z" />
    <glyph glyph-name="omicrongreek" unicode="&#x3bf;" 
d="M688 -22q-205 0 -333 123t-128 313q0 60 10 116l27 156q35 200 170 315.5t331 115.5q210 0 339.5 -123t129.5 -316q0 -52 -10 -112l-28 -156q-37 -205 -170.5 -318.5t-337.5 -113.5zM761 924q-108 0 -179.5 -70t-94.5 -199l-25 -144q-8 -45 -8 -91q0 -111 68 -180
t177 -69q110 0 180.5 70.5t94.5 204.5l26 147q6 41 6 84q0 110 -68 178.5t-177 68.5z" />
    <glyph glyph-name="pigreek" unicode="&#x3c0;" 
d="M463 0h-214l159 895h-212l34 200h1186l-34 -200h-211l-103 -571q-8 -42 -8 -68q0 -75 83 -75q31 0 57 8l-31 -183q-48 -16 -119 -16q-95 0 -153.5 54t-58.5 143q0 41 10 106l108 602h-334z" />
    <glyph glyph-name="rhogreek" unicode="&#x3c1;" 
d="M496 644l-19 -102q-11 -62 -11 -109q0 -116 65 -183.5t176 -67.5q106 0 176.5 80.5t99.5 236.5q22 110 22 173q0 120 -61 185t-174 65q-102 0 -175 -72t-99 -206zM323 -363h-233l171 973q44 251 174.5 379t341.5 128q209 0 337 -116.5t128 -307.5q0 -107 -47 -324
q-38 -173 -158 -279.5t-276 -106.5q-128 0 -216 56.5t-109 153.5h-15z" />
    <glyph glyph-name="sigmafinalgreek" unicode="&#x3c2;" 
d="M1010 -49q0 -160 -168 -338l-160 82q100 107 100 190q0 52 -42 93t-149 93q-172 85 -252 195t-80 262q0 82 21 177q47 200 177.5 306t329.5 106q207 0 332 -109.5t125 -291.5h-222q0 91 -65 148t-169 57q-110 0 -181.5 -61t-96.5 -176q-17 -71 -17 -128
q0 -99 52.5 -166.5t179.5 -132.5q162 -83 223.5 -149.5t61.5 -156.5z" />
    <glyph glyph-name="sigmagreek" unicode="&#x3c3;" 
d="M688 -22q-205 0 -333 123t-128 313q0 57 10 116l24 138q35 200 169.5 315.5t330.5 115.5h658l-12 -203h-267l-2 -12q43 -37 67.5 -96.5t24.5 -126.5q0 -58 -10 -112l-24 -139q-35 -204 -169.5 -318t-338.5 -114zM758 906q-108 0 -179.5 -70t-94.5 -198l-22 -127
q-8 -43 -8 -91q0 -111 68 -180t177 -69q110 0 181 70.5t94 204.5l22 129q7 35 7 84q0 110 -68 178.5t-177 68.5z" />
    <glyph glyph-name="taugreek" unicode="&#x3c4;" 
d="M1025 195l-30 -183q-64 -17 -177 -17q-149 0 -226.5 57.5t-77.5 168.5q0 46 10 99l103 575h-374l34 200h1028l-34 -200h-422l-92 -515q-11 -56 -11 -88q0 -108 138 -108q76 0 131 11z" />
    <glyph glyph-name="upsilongreek" unicode="&#x3c5;" 
d="M976 1095h225q39 -125 39 -296q0 -382 -155 -601.5t-428 -219.5q-196 0 -306 96t-110 270q0 65 11 125l110 626h222l-107 -603q-12 -66 -12 -116q2 -192 204 -192q162 0 254.5 160.5t92.5 455.5q0 161 -40 295z" />
    <glyph glyph-name="phigreek" unicode="&#x3c6;" 
d="M562 158l140 786q-168 -9 -261.5 -139t-93.5 -349q0 -128 56 -205t159 -93zM897 944l-140 -786q169 9 263 139.5t94 349.5q0 127 -56 204.5t-161 92.5zM670 -363h-202l61 345q-181 21 -281.5 143.5t-100.5 324.5q0 83 14 163q81 491 568 510l43 240h202l-43 -242
q179 -21 280.5 -144t101.5 -323q0 -81 -14 -165q-80 -488 -569 -509z" />
    <glyph glyph-name="chigreek" unicode="&#x3c7;" 
d="M41 -363l554 737l-147 426q-25 71 -53.5 96.5t-81.5 25.5q-14 0 -52 -7l32 183q41 14 94 14q101 0 157 -41t89 -142l118 -339h10l381 505h231l-546 -731l151 -435q22 -64 50.5 -88t82.5 -24q18 0 51 7l-31 -182q-39 -16 -112 -16q-91 0 -144.5 41.5t-83.5 133.5l-116 350
h-11l-387 -514h-236z" />
    <glyph glyph-name="psigreek" unicode="&#x3c8;" 
d="M1093 1095h197q25 -97 25 -230q0 -119 -20 -244q-91 -624 -571 -633l-62 -351h-198l62 355q-172 20 -264 112t-92 242q0 65 25 209l95 540h200l-93 -527q-28 -161 -28 -205q0 -165 190 -189l209 1189h197l-209 -1192q139 7 225 129.5t116 347.5q17 134 17 216
q0 129 -21 231z" />
    <glyph glyph-name="omegagreek" unicode="&#x3c9;" 
d="M913 -22q-101 0 -164 58.5t-71 160.5h-11q-80 -219 -278 -219q-118 0 -183 89t-65 252q0 112 33 267q61 310 216 509h224q-176 -212 -244 -550q-26 -123 -26 -204q0 -156 104 -156q56 0 98 59.5t62 168.5l64 364h198l-62 -351q-11 -58 -11 -106q0 -135 100 -135
q64 0 107.5 67t70.5 214q23 127 23 265q0 201 -77 364h213q32 -57 51 -151.5t19 -195.5q0 -143 -27 -295q-43 -233 -135.5 -354t-228.5 -121z" />
    <glyph glyph-name="iotadieresisgreek" unicode="&#x3ca;" 
d="M920 -5q-178 0 -266.5 62t-88.5 172q0 36 10 101l104 579h-344l32 186h576l-128 -709q-11 -55 -11 -95q0 -106 169 -106q80 0 157 9l-28 -186q-68 -13 -182 -13zM666 1292q-54 0 -94.5 41t-40.5 98t40.5 98t94.5 41q55 0 95.5 -41t40.5 -98t-40.5 -98t-95.5 -41z
M1105 1292q-55 0 -95 41t-40 98t40 98t95 41t95 -41t40 -98t-40 -98t-95 -41z" />
    <glyph glyph-name="upsilondieresisgreek" unicode="&#x3cb;" 
d="M976 1095h225q39 -125 39 -296q0 -382 -155 -601.5t-428 -219.5q-196 0 -306 96t-110 270q0 65 11 125l110 626h222l-107 -603q-12 -66 -12 -116q2 -192 204 -192q162 0 254.5 160.5t92.5 455.5q0 161 -40 295zM1055 1292q-55 0 -95 41t-40 98t40 98t95 41t95 -41t40 -98
t-40 -98t-95 -41zM616 1292q-54 0 -94.5 41t-40.5 98t40.5 98t94.5 41q55 0 95.5 -41t40.5 -98t-40.5 -98t-95.5 -41z" />
    <glyph glyph-name="omicrontonosgreek" unicode="&#x3cc;" 
d="M688 -22q-205 0 -333 123t-128 313q0 60 10 116l27 156q35 200 170 315.5t331 115.5q210 0 339.5 -123t129.5 -316q0 -52 -10 -112l-28 -156q-37 -205 -170.5 -318.5t-337.5 -113.5zM761 924q-108 0 -179.5 -70t-94.5 -199l-25 -144q-8 -45 -8 -91q0 -111 68 -180
t177 -69q110 0 180.5 70.5t94.5 204.5l26 147q6 41 6 84q0 110 -68 178.5t-177 68.5zM735 1282l115 361h247l-167 -361h-195z" />
    <glyph glyph-name="upsilontonosgreek" unicode="&#x3cd;" 
d="M976 1095h225q39 -125 39 -296q0 -382 -155 -601.5t-428 -219.5q-196 0 -306 96t-110 270q0 65 11 125l110 626h222l-107 -603q-12 -66 -12 -116q2 -192 204 -192q162 0 254.5 160.5t92.5 455.5q0 161 -40 295zM700 1282l115 361h247l-167 -361h-195z" />
    <glyph glyph-name="omegatonosgreek" unicode="&#x3ce;" 
d="M913 -22q-101 0 -164 58.5t-71 160.5h-11q-80 -219 -278 -219q-118 0 -183 89t-65 252q0 112 33 267q61 310 216 509h224q-176 -212 -244 -550q-26 -123 -26 -204q0 -156 104 -156q56 0 98 59.5t62 168.5l64 364h198l-62 -351q-11 -58 -11 -106q0 -135 100 -135
q64 0 107.5 67t70.5 214q23 127 23 265q0 201 -77 364h213q32 -57 51 -151.5t19 -195.5q0 -143 -27 -295q-43 -233 -135.5 -354t-228.5 -121zM729 1282l115 361h247l-167 -361h-195z" />
    <glyph glyph-name="Iocyrillic" unicode="&#x401;" 
d="M735 1632q-54 0 -94.5 41t-40.5 98t40.5 98t94.5 41q55 0 95.5 -41t40.5 -98t-40.5 -98t-95.5 -41zM1174 1632q-55 0 -95 41t-40 98t40 98t95 41t95 -41t40 -98t-40 -98t-95 -41zM1133 211l-35 -211h-887l254 1443h887l-36 -211h-644l-73 -402h608l-34 -197h-607
l-77 -422h644z" />
    <glyph glyph-name="Djecyrillic" unicode="&#x402;" 
d="M1326 515q0 -245 -129 -404t-326 -159q-39 0 -83 6.5t-63 14.5l36 204q39 -13 88 -13q103 0 171 85.5t68 214.5q0 102 -51 158t-144 56q-66 0 -129 -34.5t-104 -93.5l-98 -550h-223l219 1233h-339l35 210h919l-35 -210h-357l-81 -448l9 -1q51 49 123 76.5t147 27.5
q160 0 253.5 -100.5t93.5 -272.5z" />
    <glyph glyph-name="Gjecyrillic" unicode="&#x403;" 
d="M670 1232l-218 -1232h-243l254 1443h927l-36 -211h-684zM823 1606l313 312h265l-342 -312h-236z" />
    <glyph glyph-name="Ecyrillic" unicode="&#x404;" 
d="M1043 437h234q-30 -202 -191 -334t-378 -132q-242 0 -382.5 151t-140.5 412q0 120 39 318q47 293 212.5 458t413.5 165q223 0 368 -132t145 -334q0 -26 -2 -56h-235v13q0 129 -80 209.5t-208 80.5q-136 0 -228 -95t-129 -275l-13 -57h525l-34 -199h-525q-9 -48 -9 -105
q0 -157 80 -246.5t220 -89.5q119 0 206 68t112 180z" />
    <glyph glyph-name="Dzecyrillic" unicode="&#x405;" 
d="M177 424h233q-2 -20 -2 -25q0 -98 84.5 -160.5t217.5 -62.5q124 0 202.5 60t78.5 154q0 74 -52 124t-177 94l-114 40q-172 61 -254 155.5t-82 231.5q0 195 141 316t368 121q215 0 353 -110.5t138 -284.5q0 -27 -3 -40h-232q1 4 1 23q0 89 -72.5 148.5t-181.5 59.5
q-117 0 -190 -56.5t-73 -147.5q0 -74 50 -124t164 -90l118 -42q181 -64 263 -154t82 -224q0 -209 -144.5 -334t-386.5 -125q-230 0 -381.5 115.5t-151.5 292.5q0 29 3 45z" />
    <glyph glyph-name="Icyrillic" unicode="&#x406;" 
d="M1050 0h-834l35 208h297l184 1027h-297l35 208h834l-35 -208h-296l-184 -1027h296z" />
    <glyph glyph-name="Yicyrillic" unicode="&#x407;" 
d="M1050 0h-834l35 208h297l184 1027h-297l35 208h834l-35 -208h-296l-184 -1027h296zM723 1632q-54 0 -94.5 41t-40.5 98t40.5 98t94.5 41q55 0 95.5 -41t40.5 -98t-40.5 -98t-95.5 -41zM1162 1632q-55 0 -95 41t-40 98t40 98t95 41t95 -41t40 -98t-40 -98t-95 -41z" />
    <glyph glyph-name="Jecyrillic" unicode="&#x408;" 
d="M639 -29q-197 0 -319.5 108.5t-122.5 283.5q0 29 4 50h227q-2 -16 -2 -26q0 -86 60.5 -141t156.5 -55q98 0 160.5 60.5t82.5 174.5l146 809h-509l34 208h752l-186 -1049q-37 -209 -159.5 -316t-324.5 -107z" />
    <glyph glyph-name="Ljecyrillic" unicode="&#x409;" 
d="M909 734l-96 -532h78q109 0 177 92.5t68 240.5q0 97 -38.5 148t-111.5 51h-77zM636 1270l-98 -510q-39 -193 -72.5 -320t-69 -219t-77.5 -140.5t-90 -70t-115 -21.5q-78 0 -112 12l38 215q24 -8 55 -8q53 0 91 50t74 168t82 343l129 674h573l-91 -509h85q143 0 223 -94
t80 -263q0 -258 -124 -417.5t-327 -159.5h-303l226 1270h-177z" />
    <glyph glyph-name="Njecyrillic" unicode="&#x40a;" 
d="M270 0h-197l254 1443h197l-106 -599h300l106 599h198l-106 -599h82q144 0 226.5 -92t82.5 -251q0 -238 -117.5 -369.5t-330.5 -131.5h-289l114 644h-300zM877 649l-83 -464h86q105 0 168 80t63 212q0 83 -39 127.5t-112 44.5h-83z" />
    <glyph glyph-name="Tshecyrillic" unicode="&#x40b;" 
d="M538 0h-233l219 1232h-305l35 211h874l-35 -211h-336l-79 -436h10q55 48 130.5 75.5t150.5 27.5q159 0 243.5 -86.5t84.5 -248.5q0 -74 -14 -147l-73 -417h-232l69 392q9 54 9 100q0 94 -46.5 144t-133.5 50q-62 0 -126.5 -28t-107.5 -74z" />
    <glyph glyph-name="Kjecyrillic" unicode="&#x40c;" 
d="M629 1443l-110 -627h39l623 627h280l-724 -720l498 -723h-283l-420 622h-46l-111 -622h-239l254 1443h239zM717 1606l313 312h265l-342 -312h-236z" />
    <glyph glyph-name="Ushortcyrillic" unicode="&#x40e;" 
d="M1472 1443l-601 -1051q-126 -222 -242.5 -313t-275.5 -91q-30 0 -67.5 4.5t-45.5 8.5l33 214q32 -10 83 -10q72 0 129 36t117 122l-306 1080h251l210 -825h11l440 825h264zM1171 1936h178q-17 -146 -124.5 -237t-267.5 -91q-104 0 -184.5 45t-117.5 120.5t-20 162.5h172
q-10 -84 34 -137t130 -53q81 0 134.5 52t65.5 138z" />
    <glyph glyph-name="Dzhecyrillic" unicode="&#x40f;" 
d="M469 -285l50 285h-425l254 1443h242l-219 -1232h595l218 1232h242l-254 -1443h-426l-50 -285h-227z" />
    <glyph glyph-name="Acyrillic" unicode="&#x410;" 
d="M560 571h352l-60 619h-10zM967 0l-37 379h-458l-173 -379h-251l700 1443h278l188 -1443h-247z" />
    <glyph glyph-name="Becyrillic" unicode="&#x411;" 
d="M705 0h-546l254 1443h890l-35 -211h-648l-63 -347h274q198 0 314 -108.5t116 -292.5q0 -211 -156.5 -347.5t-399.5 -136.5zM436 205h262q139 0 226.5 75.5t87.5 194.5q0 103 -65 159t-186 56h-237z" />
    <glyph glyph-name="Vecyrillic" unicode="&#x412;" 
d="M621 1252l-75 -415h231q122 0 199 64.5t78 165.5q0 90 -58 137.5t-168 47.5h-207zM431 194h267q144 0 229.5 68.5t85.5 183.5q0 101 -71 155t-205 54h-222zM161 0l254 1443h467q199 0 311.5 -89t111.5 -245q-1 -133 -86 -230t-224 -123l-3 -14q122 -21 196 -110t73 -215
q-1 -188 -144.5 -302.5t-380.5 -114.5h-575z" />
    <glyph glyph-name="Gecyrillic" unicode="&#x413;" 
d="M670 1232l-218 -1232h-243l254 1443h927l-36 -211h-684z" />
    <glyph glyph-name="Decyrillic" unicode="&#x414;" 
d="M1059 0h-806l-50 -285h-220l86 496h88q65 40 109.5 130t85.5 268l196 834h823l-218 -1232h161l-85 -496h-220zM729 1233l-154 -655q-63 -269 -146 -346l-3 -21h486l183 1022h-366z" />
    <glyph glyph-name="Iecyrillic" unicode="&#x415;" 
d="M1133 211l-35 -211h-887l254 1443h887l-36 -211h-644l-73 -402h608l-34 -197h-607l-77 -422h644z" />
    <glyph glyph-name="Zhecyrillic" unicode="&#x416;" 
d="M198 0h-227l466 742l-180 701h209l144 -629h62l111 629h207l-111 -629h54l365 629h221l-433 -720l204 -723h-215l-165 624h-63l-111 -624h-207l111 624h-55z" />
    <glyph glyph-name="Zecyrillic" unicode="&#x417;" 
d="M727 636h-166l35 204h171q131 0 212.5 65.5t81.5 171.5q0 92 -66.5 144.5t-182.5 52.5q-103 0 -173.5 -46.5t-90.5 -128.5h-225q33 173 167.5 273t334.5 100q212 0 341.5 -100t129.5 -263q0 -139 -94 -244.5t-231 -119.5l-2 -15q122 -23 192.5 -105t70.5 -200
q0 -202 -153.5 -328t-400.5 -126q-223 0 -361 107t-138 280q0 42 2 58h230q-1 -3 -1 -21q0 -94 78.5 -155.5t196.5 -61.5q136 0 217.5 70t81.5 186q0 92 -70 147t-187 55z" />
    <glyph glyph-name="Iicyrillic" unicode="&#x418;" 
d="M389 1443h211l-184 -1027h16l739 1027h214l-254 -1443h-211l183 1023h-16l-738 -1023h-214z" />
    <glyph glyph-name="Iishortcyrillic" unicode="&#x419;" 
d="M389 1443h211l-184 -1027h16l739 1027h214l-254 -1443h-211l183 1023h-16l-738 -1023h-214zM1158 1936h178q-17 -146 -124.5 -237t-267.5 -91q-104 0 -184.5 45t-117.5 120.5t-20 162.5h172q-10 -84 34 -137t130 -53q81 0 134.5 52t65.5 138z" />
    <glyph glyph-name="Kacyrillic" unicode="&#x41a;" 
d="M629 1443l-110 -627h39l623 627h280l-724 -720l498 -723h-283l-420 622h-46l-111 -622h-239l254 1443h239z" />
    <glyph glyph-name="Elcyrillic" unicode="&#x41b;" 
d="M1399 1443l-254 -1443h-238l219 1232h-413l-100 -462q-48 -198 -89 -329t-83.5 -224t-91.5 -141.5t-103.5 -69t-130.5 -20.5q-65 0 -105 14l39 227q30 -9 62 -9q29 0 49.5 6.5t42 30.5t39 59.5t41 103.5t47 153t58.5 218l145 654h866z" />
    <glyph glyph-name="Emcyrillic" unicode="&#x41c;" 
d="M389 508l-91 -508h-206l254 1443h253l127 -854h15l426 854h261l-254 -1443h-206l91 508l128 580h-18l-389 -749h-171l-125 749h-17z" />
    <glyph glyph-name="Encyrillic" unicode="&#x41d;" 
d="M1134 0h-238l112 629h-527l-111 -629h-238l254 1443h238l-107 -603h527l106 603h238z" />
    <glyph glyph-name="Ocyrillic" unicode="&#x41e;" 
d="M1274 535q-50 -276 -199 -420t-386 -144q-220 0 -359 141t-139 364q0 136 15 210l40 225q48 270 199 415.5t381 145.5q225 0 364 -141.5t139 -370.5q0 -107 -15 -200zM703 187q261 0 330 388l40 224q14 79 14 156q0 137 -74 219t-198 82q-260 0 -328 -380l-38 -218
q-15 -85 -15 -165q0 -142 72 -224t197 -82z" />
    <glyph glyph-name="Pecyrillic" unicode="&#x41f;" 
d="M1415 1443l-254 -1443h-242l219 1232h-573l-218 -1232h-242l254 1443h1056z" />
    <glyph glyph-name="Ercyrillic" unicode="&#x420;" 
d="M422 1443h460q211 0 334.5 -112t123.5 -303q0 -245 -161.5 -395t-426.5 -150h-255l-87 -483h-242zM630 1241l-99 -556h216q163 0 256.5 87t93.5 239q0 110 -68 170t-193 60h-206z" />
    <glyph glyph-name="Escyrillic" unicode="&#x421;" 
d="M1269 429q-29 -210 -179.5 -334.5t-374.5 -124.5q-233 0 -372.5 141t-139.5 377q0 74 14 154l45 258q48 278 202.5 425t399.5 147q219 0 357 -126t138 -327q0 -29 -6 -75h-243q3 33 3 63q0 111 -70.5 178t-188.5 67q-133 0 -221.5 -92.5t-120.5 -265.5l-48 -272
q-12 -70 -12 -137q0 -137 73.5 -215.5t203.5 -78.5q119 0 195.5 66.5t101.5 192.5q1 5 1 11h246q-2 -25 -4 -32z" />
    <glyph glyph-name="Tecyrillic" unicode="&#x422;" 
d="M754 0h-242l219 1232h-422l35 211h1086l-36 -211h-422z" />
    <glyph glyph-name="Ucyrillic" unicode="&#x423;" 
d="M1477 1443l-601 -1051q-126 -222 -242.5 -313t-275.5 -91q-30 0 -67.5 4.5t-45.5 8.5l33 214q32 -10 83 -10q72 0 129 36t117 122l-306 1080h251l210 -825h11l440 825h264z" />
    <glyph glyph-name="Efcyrillic" unicode="&#x424;" 
d="M379 771q-1 -5 -5 -34t-5 -37q-7 -50 -7 -93q0 -116 55 -184.5t158 -83.5l141 787q-143 -4 -226 -91.5t-111 -263.5zM1355 655q-86 -511 -577 -517l-28 -164h-241l32 180q-192 24 -293.5 138t-101.5 306q0 58 6 101q1 11 15 97q44 259 187 385.5t390 130.5l28 157h240
l-30 -173q190 -24 292 -138.5t102 -305.5q0 -61 -7 -102q-2 -25 -14 -95zM947 1109l-140 -785q143 5 225.5 93t110.5 263q6 30 9 69q8 52 8 92q0 235 -213 268z" />
    <glyph glyph-name="Xacyrillic" unicode="&#x425;" 
d="M38 0l568 728l-316 715h258l228 -546h12l422 546h269l-583 -722l329 -721h-252l-242 535h-12l-422 -535h-259z" />
    <glyph glyph-name="Tsecyrillic" unicode="&#x426;" 
d="M1301 211l-86 -496h-219l50 285h-948l254 1443h242l-219 -1232h536l218 1232h242l-218 -1232h148z" />
    <glyph glyph-name="Checyrillic" unicode="&#x427;" 
d="M1399 1443l-254 -1443h-241l113 636h-12q-155 -121 -348 -121q-220 0 -327.5 143t-66.5 379l71 406h242l-69 -396q-26 -148 34.5 -230.5t194.5 -82.5q184 0 322 141l100 568h241z" />
    <glyph glyph-name="Shacyrillic" unicode="&#x428;" 
d="M1193 0h-1120l254 1443h187l-220 -1242h279l220 1242h188l-221 -1242h280l220 1242h187z" />
    <glyph glyph-name="Shchacyrillic" unicode="&#x429;" 
d="M1057 -285l50 285h-1063l254 1443h187l-221 -1248h268l220 1248h188l-221 -1248h268l220 1248h187l-220 -1242h153l-84 -486h-186z" />
    <glyph glyph-name="Hardsigncyrillic" unicode="&#x42a;" 
d="M707 937h215q172 0 276 -109.5t104 -291.5q0 -246 -144 -391t-391 -145h-467l219 1233h-282l34 210h525zM667 734l-95 -528h184q141 0 222 84t81 228q0 102 -54 159t-151 57h-187z" />
    <glyph glyph-name="Yericyrillic" unicode="&#x42b;" 
d="M421 734l-95 -530h96q136 0 216 86.5t80 232.5q0 99 -51 155t-142 56h-104zM393 0h-308l254 1443h210l-89 -507h108q170 0 267.5 -101.5t97.5 -278.5q0 -263 -142 -409.5t-398 -146.5zM1181 0h-210l254 1443h210z" />
    <glyph glyph-name="Softsigncyrillic" unicode="&#x42c;" 
d="M530 734l-95 -530h266q152 0 235 82t83 232q0 103 -58 159.5t-162 56.5h-269zM714 0h-556l254 1443h242l-89 -508h305q179 0 287 -109t108 -290q0 -249 -147 -392.5t-404 -143.5z" />
    <glyph glyph-name="Ereversedcyrillic" unicode="&#x42d;" 
d="M465 991h-237q53 218 217.5 351t381.5 133q250 0 388 -149t138 -420q0 -106 -19 -226q-51 -340 -226 -524.5t-447 -184.5q-235 0 -380 131.5t-145 344.5q0 27 3 50h236q-1 -2 -1 -13q1 -138 79 -217t215 -79q157 0 261.5 114t145.5 331h-535l34 199h533q4 37 4 82
q0 164 -79.5 253.5t-222.5 89.5q-120 0 -210 -70t-134 -196z" />
    <glyph glyph-name="IUcyrillic" unicode="&#x42e;" 
d="M828 -30q-166 0 -265.5 132t-99.5 354q0 93 11 164h-137l-110 -620h-190l254 1443h190l-109 -612h137q8 60 24 122q54 250 177 384.5t300 134.5q183 0 284.5 -129t101.5 -363q0 -131 -22 -260q-19 -115 -39 -201q-59 -276 -185 -412.5t-322 -136.5zM1195 954
q0 143 -53 222.5t-147 79.5q-208 0 -286 -371q-28 -133 -34 -177q-21 -113 -21 -221q0 -142 53 -221t147 -79q212 0 290 383q3 12 16.5 86t16.5 92q18 106 18 206z" />
    <glyph glyph-name="IAcyrillic" unicode="&#x42f;" 
d="M1005 540h-215l-410 -540h-272l451 582q-108 44 -170 138t-62 215q0 234 155 371t420 137h500l-254 -1443h-239zM803 732h234l93 510h-242q-142 0 -228 -79t-86 -208q0 -100 63 -161.5t166 -61.5z" />
    <glyph glyph-name="acyrillic" unicode="&#x430;" 
d="M543 -17q-145 0 -237 85.5t-93 219.5q-2 173 121.5 266.5t355.5 97.5l256 4l10 61q6 29 6 55q0 70 -52 111.5t-139 41.5q-75 0 -133 -34t-79 -91h-229q26 137 156 225t306 88q182 0 291.5 -87t109.5 -232q0 -52 -17 -141l-115 -653h-221l26 149h-17
q-40 -79 -120.5 -122.5t-185.5 -43.5zM630 172q100 0 176 63.5t94 163.5l19 100l-220 -3q-120 -1 -185 -46.5t-66 -127.5q-1 -68 49 -109t133 -41z" />
    <glyph glyph-name="becyrillic" unicode="&#x431;" 
d="M706 176q109 0 188 82.5t108 224.5q12 58 12 133q0 119 -69.5 192t-182.5 73q-106 0 -184 -77t-108 -209q-15 -67 -15 -134q0 -130 68.5 -207.5t182.5 -77.5zM465 858h10q52 97 144 150.5t216 53.5q188 0 304 -120.5t116 -314.5q0 -71 -15 -150q-44 -235 -188.5 -367
t-358.5 -132q-219 0 -345 139.5t-126 383.5q0 110 28 238q77 381 242 551t463 176q287 7 410 55l-33 -196q-105 -48 -391 -51q-193 -1 -301 -96t-175 -320z" />
    <glyph glyph-name="vecyrillic" unicode="&#x432;" 
d="M701 0h-507l193 1095h462q172 0 261 -66.5t89 -182.5q0 -100 -68.5 -173t-171.5 -89l-3 -14q99 -14 155 -73.5t56 -151.5q0 -155 -127.5 -250t-338.5 -95zM446 161h243q112 0 176.5 50.5t64.5 133.5q0 70 -49.5 108t-140.5 38h-235zM531 640h205q100 0 162.5 46t62.5 119
q0 62 -42.5 95.5t-123.5 33.5h-212z" />
    <glyph glyph-name="gecyrillic" unicode="&#x433;" 
d="M1283 1095l-32 -187h-562l-161 -908h-232l192 1095h795z" />
    <glyph glyph-name="decyrillic" unicode="&#x434;" 
d="M257 0l-50 -285h-214l82 473h77q119 52 186 336q13 58 69.5 295.5t64.5 275.5h766l-162 -907h162l-82 -473h-213l50 285h-736zM410 188h443l129 720h-335q-13 -67 -53.5 -233t-53.5 -215q-49 -185 -127 -257z" />
    <glyph glyph-name="iecyrillic" unicode="&#x435;" 
d="M794 934q-107 0 -180 -61.5t-96 -170.5q-5 -25 -10 -55h500q6 27 6 55q10 103 -51 167.5t-169 64.5zM1166 297q-25 -141 -156 -230t-315 -89q-206 0 -325 114t-119 310q0 59 16 159l23 131q33 196 172 310.5t344 114.5q197 0 319 -118.5t110 -297.5q0 -52 -11 -110
l-15 -100h-725q-10 -43 -10 -77q-8 -114 55.5 -182.5t177.5 -68.5q85 0 147.5 36.5t81.5 97.5h230z" />
    <glyph glyph-name="zhecyrillic" unicode="&#x436;" 
d="M233 0h-230l423 581l-210 514h210l173 -444h57l74 444h192l-84 -444h58l324 444h226l-403 -527l220 -568h-220l-172 475h-64l-79 -475h-191l88 475h-60z" />
    <glyph glyph-name="zecyrillic" unicode="&#x437;" 
d="M969 576l-2 -13q89 -23 137 -83t48 -145q0 -156 -135.5 -257t-352.5 -101q-213 0 -339 98.5t-118 256.5q0 3 0.5 9.5t0.5 10.5h220q-4 -83 64 -133t181 -50q111 0 179.5 50t68.5 125q0 62 -53.5 98.5t-145.5 36.5h-168l29 165h164q98 0 156 40t58 107q0 62 -56 100
t-148 38q-89 0 -150.5 -40t-86.5 -112h-221q26 153 155 246.5t316 93.5q191 0 307.5 -81.5t116.5 -213.5q0 -91 -61.5 -159t-163.5 -87z" />
    <glyph glyph-name="iicyrillic" unicode="&#x438;" 
d="M1019 762l-637 -762h-227l192 1095h215l-135 -756h11l639 756h226l-193 -1095h-213l136 762h-14z" />
    <glyph glyph-name="iishortcyrillic" unicode="&#x439;" 
d="M1019 762l-637 -762h-227l192 1095h215l-135 -756h11l639 756h226l-193 -1095h-213l136 762h-14zM1074 1597h178q-17 -146 -124.5 -237t-267.5 -91q-104 0 -184.5 45t-117.5 120.5t-20 162.5h172q-10 -84 34 -137t130 -53q81 0 134.5 52t65.5 138z" />
    <glyph glyph-name="kacyrillic" unicode="&#x43a;" 
d="M625 1095l-79 -444h74l430 444h274l-529 -533l361 -562h-257l-307 474h-77l-82 -474h-227l190 1095h229z" />
    <glyph glyph-name="elcyrillic" unicode="&#x43b;" 
d="M682 908l-61 -283q-55 -255 -115 -392.5t-133 -190.5t-185 -53q-62 0 -103 13l35 207q27 -9 63 -9q79 0 125 90t101 348l95 457h780l-193 -1095h-231l161 908h-339z" />
    <glyph glyph-name="emcyrillic" unicode="&#x43c;" 
d="M419 777l-128 -777h-185l193 1095h237l143 -744h11l412 744h251l-193 -1095h-186l145 767h-11l-398 -687h-136l-144 697h-11z" />
    <glyph glyph-name="encyrillic" unicode="&#x43d;" 
d="M389 0h-228l192 1095h229l-78 -438h488l78 438h228l-193 -1095h-228l84 470h-489z" />
    <glyph glyph-name="ocyrillic" unicode="&#x43e;" 
d="M688 -22q-205 0 -333 123t-128 313q0 60 10 116l27 156q35 200 170 315.5t331 115.5q210 0 339.5 -123t129.5 -316q0 -52 -10 -112l-28 -156q-37 -205 -170.5 -318.5t-337.5 -113.5zM761 924q-108 0 -179.5 -70t-94.5 -199l-25 -144q-8 -45 -8 -91q0 -111 68 -180
t177 -69q110 0 180.5 70.5t94.5 204.5l26 147q6 41 6 84q0 110 -68 178.5t-177 68.5z" />
    <glyph glyph-name="pecyrillic" unicode="&#x43f;" 
d="M872 0l161 908h-478l-161 -908h-233l193 1095h944l-193 -1095h-233z" />
    <glyph glyph-name="ercyrillic" unicode="&#x440;" 
d="M772 -17q-129 0 -217.5 64t-102.5 164h-14l-102 -578h-238l257 1462h236l-34 -195h15q36 98 123.5 156t194.5 58q164 0 265.5 -101.5t101.5 -277.5q0 -61 -12 -135l-31 -178q-37 -208 -153.5 -323.5t-288.5 -115.5zM716 188q105 0 174 64.5t91 188.5l28 156q7 44 7 91
q0 100 -60 162.5t-161 62.5q-109 0 -185 -67t-98 -188l-29 -166q-4 -28 -4 -73q0 -100 66 -165.5t171 -65.5z" />
    <glyph glyph-name="escyrillic" unicode="&#x441;" 
d="M1245 716h-228v12q0 86 -62.5 141t-159.5 55q-235 0 -290 -297l-13 -78q-14 -75 -14 -126q0 -120 60.5 -184.5t172.5 -64.5q186 0 244 173h228q-35 -168 -166.5 -269t-318.5 -101q-208 0 -329.5 112t-121.5 303q0 66 12 143q10 69 26 152q36 202 174.5 317.5t344.5 115.5
q197 0 320 -101t123 -264q0 -11 -2 -39z" />
    <glyph glyph-name="tecyrillic" unicode="&#x442;" 
d="M333 1095h986l-32 -187h-376l-161 -908h-234l161 908h-376z" />
    <glyph glyph-name="ucyrillic" unicode="&#x443;" 
d="M257 -393q-77 0 -97 2l33 193q11 -3 65 -3q79 0 127.5 31.5t89.5 112.5l24 49l-201 1103h248l116 -874h15l420 874h255l-589 -1120q-110 -211 -218 -289.5t-288 -78.5z" />
    <glyph glyph-name="efcyrillic" unicode="&#x444;" 
d="M459 -363l62 350q-184 16 -288.5 137t-104.5 313q0 47 9 107q1 8 6.5 42.5t6.5 39.5q40 230 188 358t368 132h14l60 342h221l-61 -344q184 -15 288.5 -137t104.5 -315q0 -46 -9 -106q-1 -8 -6.5 -43t-5.5 -36q-41 -232 -187 -357.5t-369 -130.5h-14l-62 -352h-221z
M350 595q-7 -34 -9 -56q-6 -45 -6 -87q0 -129 56 -206.5t165 -81.5l138 774h-11q-128 -2 -216.5 -92.5t-116.5 -250.5zM905 938l-138 -774h11q130 2 218 92.5t116 250.5q0 5 4 28t4 28q6 36 6 86q0 129 -56 207t-165 82z" />
    <glyph glyph-name="hacyrillic" unicode="&#x445;" 
d="M712 390h-15l-311 -390h-256l454 545l-264 550h258l170 -388h16l302 388h263l-454 -540l264 -555h-250z" />
    <glyph glyph-name="tsecyrillic" unicode="&#x446;" 
d="M1284 188l-82 -473h-213l50 285h-872l193 1095h233l-161 -907h455l161 907h233l-161 -907h164z" />
    <glyph glyph-name="checyrillic" unicode="&#x447;" 
d="M1271 1095l-192 -1095h-234l86 482h-13q-53 -56 -133.5 -87t-172.5 -31q-157 0 -247.5 85t-90.5 234q0 51 8 96l56 316h233l-52 -296q-6 -36 -6 -57q0 -82 51.5 -127.5t141.5 -45.5q81 0 150 32t110 90l72 404h233z" />
    <glyph glyph-name="shacyrillic" unicode="&#x448;" 
d="M1198 0h-1130l193 1095h195l-161 -907h275l161 907h194l-160 -907h270l161 907h194z" />
    <glyph glyph-name="shchacyrillic" unicode="&#x449;" 
d="M1099 -285l50 285h-1072l193 1095h196l-162 -913h272l162 913h195l-162 -913h273l162 913h195l-162 -913h131l-81 -467h-190z" />
    <glyph glyph-name="hardsigncyrillic" unicode="&#x44a;" 
d="M589 188h181q113 0 181 61t68 160q0 74 -50.5 119t-137.5 45h-172zM689 759h187q175 0 275 -91.5t100 -242.5q0 -187 -132 -306t-346 -119h-445l161 908h-280l32 187h508z" />
    <glyph glyph-name="yericyrillic" unicode="&#x44b;" 
d="M344 188h135q108 0 173.5 61.5t65.5 161.5q0 74 -48.5 118t-133.5 44h-122zM445 760h110q172 0 268 -90.5t96 -240.5q0 -188 -126 -308.5t-334 -120.5h-352l193 1095h205zM1173 0h-213l193 1095h212z" />
    <glyph glyph-name="softsigncyrillic" unicode="&#x44c;" 
d="M474 188h245q113 0 180.5 61t67.5 160q0 74 -50.5 119t-137.5 45h-235zM575 759h241q181 0 282.5 -91.5t101.5 -242.5q0 -187 -133.5 -306t-353.5 -119h-504l193 1095h233z" />
    <glyph glyph-name="ereversedcyrillic" unicode="&#x44d;" 
d="M1220 525l-18 -100q-36 -214 -174 -330.5t-358 -116.5q-195 0 -323 102.5t-128 256.5q0 23 1 30h219v-8q0 -81 67.5 -132.5t173.5 -51.5q117 0 195 65.5t99 189.5l7 37h-448l27 165h445q4 20 4 44q0 117 -66.5 180.5t-187.5 63.5q-83 0 -152 -44t-93 -112h-221
q33 154 167.5 253.5t317.5 99.5q209 0 333 -127.5t124 -335.5q0 -58 -11 -129z" />
    <glyph glyph-name="iucyrillic" unicode="&#x44e;" 
d="M1098 484l14 76q13 97 13 144q0 103 -41.5 160.5t-115.5 57.5q-169 0 -221 -313l-13 -76q-14 -89 -14 -143q0 -102 41 -159t115 -57q172 0 222 310zM380 652h179q91 465 415 465q168 0 260.5 -109t92.5 -305q0 -81 -23 -206l-8 -43q-41 -245 -150 -360.5t-268 -115.5
q-168 0 -260.5 108.5t-92.5 304.5q0 37 4 73h-181l-82 -464h-198l194 1095h197z" />
    <glyph glyph-name="iacyrillic" unicode="&#x44f;" 
d="M974 908h-180q-117 0 -185 -53.5t-68 -144.5q0 -73 52.5 -116.5t149.5 -43.5h167zM1041 0h-229l67 375h-150l-330 -375h-272l387 422q-94 42 -148 117.5t-54 173.5q0 177 128.5 279.5t345.5 102.5h447z" />
    <glyph glyph-name="iocyrillic" unicode="&#x451;" 
d="M794 934q-107 0 -180 -61.5t-96 -170.5q-5 -25 -10 -55h500q6 27 6 55q10 103 -51 167.5t-169 64.5zM1166 297q-25 -141 -156 -230t-315 -89q-206 0 -325 114t-119 310q0 59 16 159l23 131q33 196 172 310.5t344 114.5q197 0 319 -118.5t110 -297.5q0 -52 -11 -110
l-15 -100h-725q-10 -43 -10 -77q-8 -114 55.5 -182.5t177.5 -68.5q85 0 147.5 36.5t81.5 97.5h230zM678 1305q-54 0 -94.5 41t-40.5 98t40.5 98t94.5 41q55 0 95.5 -41t40.5 -98t-40.5 -98t-95.5 -41zM1117 1305q-55 0 -95 41t-40 98t40 98t95 41t95 -41t40 -98t-40 -98
t-95 -41z" />
    <glyph glyph-name="djecyrillic" unicode="&#x452;" 
d="M543 911h14q46 94 135 149t199 55q155 0 249.5 -93t94.5 -247q0 -45 -15 -137l-111 -638h-1l-8 -49q-27 -159 -135 -241.5t-288 -82.5q-40 0 -58 4l32 184q10 -2 28 -2q85 0 130.5 34.5t58.5 109.5l51 309h4l62 350q10 58 10 95q0 88 -57.5 144t-150.5 56
q-107 0 -184 -71t-99 -195l-114 -645h-232l222 1263h-140l22 131h141l22 124h226l-22 -124h256l-22 -131h-257z" />
    <glyph glyph-name="gjecyrillic" unicode="&#x453;" 
d="M1283 1095l-32 -187h-562l-161 -908h-232l192 1095h795zM986 1296h-236l301 347h269z" />
    <glyph glyph-name="ecyrillic" unicode="&#x454;" 
d="M684 -22q-210 0 -337 114t-127 304q0 79 17 173l19 100q41 217 177.5 332.5t347.5 115.5q199 0 327 -105t128 -271v-13h-219v9q0 77 -68 130.5t-168 53.5q-115 0 -192 -64t-102 -180l-8 -38h447l-28 -165h-445q-9 -34 -9 -67q0 -109 67 -170t188 -61q97 0 163.5 41.5
t85.5 113.5h221q-32 -164 -162 -258.5t-323 -94.5z" />
    <glyph glyph-name="dzecyrillic" unicode="&#x455;" 
d="M343 773q0 156 123 251.5t323 95.5q182 0 294.5 -81.5t117.5 -216.5q0 -15 -2 -31h-222v6q-6 67 -58 104.5t-140 37.5q-91 0 -147.5 -38t-56.5 -99q0 -46 35.5 -78t113.5 -57l146 -47q144 -46 208.5 -114.5t64.5 -174.5q0 -157 -129 -255.5t-334 -98.5q-198 0 -321 85
t-127 225q0 7 2 23h228v-5q8 -68 67.5 -107t157.5 -39t156.5 38.5t58.5 103.5q0 46 -35.5 78t-115.5 58l-147 48q-134 44 -197.5 114t-63.5 174z" />
    <glyph glyph-name="icyrillic" unicode="&#x456;" 
d="M911 1338q-74 0 -121.5 44.5t-47.5 114.5t47.5 114.5t121.5 44.5q75 0 122.5 -44.5t47.5 -114.5t-47.5 -114.5t-122.5 -44.5zM1115 0h-932l32 186h361l130 723h-349l31 186h576l-161 -909h344z" />
    <glyph glyph-name="yicyrillic" unicode="&#x457;" 
d="M1115 0h-932l32 186h361l130 723h-349l31 186h576l-161 -909h344zM695 1299q-54 0 -94.5 41t-40.5 98t40.5 98t94.5 41q55 0 95.5 -41t40.5 -98t-40.5 -98t-95.5 -41zM1134 1299q-55 0 -95 41t-40 98t40 98t95 41t95 -41t40 -98t-40 -98t-95 -41z" />
    <glyph glyph-name="jecyrillic" unicode="&#x458;" 
d="M1028 1338q-74 0 -121.5 44.5t-47.5 114.5t47.5 114.5t121.5 44.5q75 0 122 -44t47 -115t-47 -115t-122 -44zM1086 1095l-189 -1067q-35 -200 -146 -287.5t-330 -87.5q-191 0 -302 10l35 204q99 -10 283 -10q109 0 163.5 42t70.5 136l156 874h-471l33 186h697z" />
    <glyph glyph-name="ljecyrillic" unicode="&#x459;" 
d="M527 918l-62 -313q-50 -245 -99 -375t-115.5 -185.5t-170.5 -55.5q-48 0 -79 12l34 206q12 -6 43 -6q64 0 105.5 88t90.5 329l94 477h612l-61 -336h91q145 0 230.5 -90t85.5 -237q0 -187 -118 -309.5t-307 -122.5h-320l163 918h-217zM811 188h108q92 0 147 62t55 165
q0 71 -39.5 114.5t-103.5 43.5h-97z" />
    <glyph glyph-name="njecyrillic" unicode="&#x45a;" 
d="M908 0h-331l89 498h-308l-88 -498h-197l193 1095h197l-74 -412h307l74 412h197l-73 -409h118q140 0 220 -83.5t80 -223.5q0 -166 -112 -272.5t-292 -106.5zM803 184h127q86 0 135.5 50.5t49.5 129.5q0 64 -34 101t-99 37h-121z" />
    <glyph glyph-name="tshecyrillic" unicode="&#x45b;" 
d="M543 911h14q46 94 135 149t199 55q155 0 249.5 -93t94.5 -247q0 -45 -15 -137l-111 -638h-233l109 616q10 58 10 95q0 88 -57.5 144t-150.5 56q-107 0 -184 -71t-99 -195l-114 -645h-232l222 1263h-140l22 131h141l22 124h226l-22 -124h256l-22 -131h-257z" />
    <glyph glyph-name="kjecyrillic" unicode="&#x45c;" 
d="M625 1095l-79 -444h74l430 444h274l-529 -533l361 -562h-257l-307 474h-77l-82 -474h-227l190 1095h229zM989 1296h-236l301 347h269z" />
    <glyph glyph-name="ushortcyrillic" unicode="&#x45e;" 
d="M257 -393q-77 0 -97 2l33 193q11 -3 65 -3q79 0 127.5 31.5t89.5 112.5l24 49l-201 1103h248l116 -874h15l420 874h255l-589 -1120q-110 -211 -218 -289.5t-288 -78.5zM876 1270q-104 0 -184.5 45t-117.5 120.5t-20 162.5h172q-10 -84 34 -137t130 -53q81 0 134.5 52
t65.5 138h178q-17 -146 -124.5 -237t-267.5 -91z" />
    <glyph glyph-name="dzhecyrillic" unicode="&#x45f;" 
d="M1322 1095l-193 -1095h-366l-50 -285h-214l50 285h-366l193 1095h233l-161 -907h480l161 907h233z" />
    <glyph glyph-name="Geupturncyrillic" unicode="&#x490;" 
d="M1354 1232h-685l-218 -1232h-242l254 1443h699l50 279h227z" />
    <glyph glyph-name="geupturncyrillic" unicode="&#x491;" 
d="M1333 1375l-82 -467h-556l-161 -908h-233l193 1095h574l50 280h215z" />
    <glyph glyph-name="baht" unicode="&#xe3f;" 
d="M879 1247l-72 -407q104 12 167 74t64 153q0 152 -159 180zM774 653l-81 -459q140 3 222 71t82 181q0 91 -57 143.5t-166 63.5zM415 194h156l82 461h-154zM605 1252l-75 -415h155l73 415h-153zM940 1591l-26 -149q177 -11 276.5 -99t98.5 -234q-1 -133 -86 -230t-224 -123
l-3 -14q122 -21 196 -110t73 -215q-1 -188 -144.5 -302.5t-380.5 -114.5h-61l-25 -142h-122l25 142h-392l254 1443h393l26 148h122z" />
    <glyph glyph-name="Aringbelow" unicode="&#x1e00;" 
d="M573 -467q46 0 77.5 31.5t31.5 78.5t-31.5 78.5t-77.5 31.5t-77 -31.5t-31 -78.5t31 -78.5t77 -31.5zM573 -120q97 0 165.5 -69.5t68.5 -167.5t-68.5 -167.5t-165.5 -69.5q-96 0 -164.5 69.5t-68.5 167.5t68.5 167.5t164.5 69.5zM560 571h352l-60 619h-10zM1214 0h-247
l-37 379h-458l-173 -379h-251l700 1443h278z" />
    <glyph glyph-name="aringbelow" unicode="&#x1e01;" 
d="M543 -17q-145 0 -237 85.5t-93 219.5q-2 173 121.5 266.5t355.5 97.5l256 4l10 61q6 29 6 55q0 70 -52 111.5t-139 41.5q-75 0 -133 -34t-79 -91h-229q26 137 156 225t306 88q182 0 291.5 -87t109.5 -232q0 -52 -17 -141l-115 -653h-221l26 149h-17
q-40 -79 -120.5 -122.5t-185.5 -43.5zM630 172q100 0 176 63.5t94 163.5l19 100l-220 -3q-120 -1 -185 -46.5t-66 -127.5q-1 -68 49 -109t133 -41zM562 -467q46 0 77.5 31.5t31.5 78.5t-31.5 78.5t-77.5 31.5t-77 -31.5t-31 -78.5t31 -78.5t77 -31.5zM562 -594
q-96 0 -164.5 69.5t-68.5 167.5t68.5 167.5t164.5 69.5q97 0 165.5 -69.5t68.5 -167.5t-68.5 -167.5t-165.5 -69.5z" />
    <glyph glyph-name="Bdotaccent" unicode="&#x1e02;" 
d="M897 1615q-59 0 -102 44t-43 105t43 104.5t102 43.5t102.5 -43.5t43.5 -104.5t-43.5 -105t-102.5 -44zM621 1252l-75 -415h231q122 0 199 64.5t78 165.5q0 90 -58 137.5t-168 47.5h-207zM431 194h267q144 0 229.5 68.5t85.5 183.5q0 101 -71 155t-205 54h-222zM161 0
l254 1443h467q199 0 311.5 -89t111.5 -245q-1 -133 -86 -230t-224 -123l-3 -14q122 -21 196 -110t73 -215q-1 -188 -144.5 -302.5t-380.5 -114.5h-575z" />
    <glyph glyph-name="bdotaccent" unicode="&#x1e03;" 
d="M1042 1289q-59 0 -102 44t-43 105t43 104.5t102 43.5t102.5 -43.5t43.5 -104.5t-43.5 -105t-102.5 -44zM780 -17q-128 0 -215 63t-107 171h-17l-38 -217h-241l268 1518h240l-105 -597h20q41 89 125 141t189 52q165 0 263 -104t98 -278q0 -50 -11 -116l-34 -190
q-37 -211 -151 -327t-284 -116zM719 186q102 0 172.5 66.5t91.5 182.5l30 169q6 41 6 89q0 102 -62 162.5t-168 60.5q-101 0 -176.5 -70t-96.5 -185l-30 -167q-6 -37 -6 -75q0 -100 67.5 -166.5t171.5 -66.5z" />
    <glyph glyph-name="Bdotbelow" unicode="&#x1e04;" 
d="M522 -472q-59 0 -102 44t-43 105t43 104.5t102 43.5t102.5 -43.5t43.5 -104.5t-43.5 -105t-102.5 -44zM621 1252l-75 -415h231q122 0 199 64.5t78 165.5q0 90 -58 137.5t-168 47.5h-207zM431 194h267q144 0 229.5 68.5t85.5 183.5q0 101 -71 155t-205 54h-222zM161 0
l254 1443h467q199 0 311.5 -89t111.5 -245q-1 -133 -86 -230t-224 -123l-3 -14q122 -21 196 -110t73 -215q-1 -188 -144.5 -302.5t-380.5 -114.5h-575z" />
    <glyph glyph-name="bdotbelow" unicode="&#x1e05;" 
d="M577 -466q-59 0 -102 44t-43 105t43 104.5t102 43.5t102.5 -43.5t43.5 -104.5t-43.5 -105t-102.5 -44zM780 -17q-128 0 -215 63t-107 171h-17l-38 -217h-241l268 1518h240l-105 -597h20q41 89 125 141t189 52q165 0 263 -104t98 -278q0 -50 -11 -116l-34 -190
q-37 -211 -151 -327t-284 -116zM719 186q102 0 172.5 66.5t91.5 182.5l30 169q6 41 6 89q0 102 -62 162.5t-168 60.5q-101 0 -176.5 -70t-96.5 -185l-30 -167q-6 -37 -6 -75q0 -100 67.5 -166.5t171.5 -66.5z" />
    <glyph glyph-name="Blinebelow" unicode="&#x1e06;" 
d="M621 1252l-75 -415h231q122 0 199 64.5t78 165.5q0 90 -58 137.5t-168 47.5h-207zM431 194h267q144 0 229.5 68.5t85.5 183.5q0 101 -71 155t-205 54h-222zM161 0l254 1443h467q199 0 311.5 -89t111.5 -245q-1 -133 -86 -230t-224 -123l-3 -14q122 -21 196 -110t73 -215
q-1 -188 -144.5 -302.5t-380.5 -114.5h-575zM854 -413h-696l29 166h696z" />
    <glyph glyph-name="blinebelow" unicode="&#x1e07;" 
d="M909 -407h-696l29 166h696zM780 -17q-128 0 -215 63t-107 171h-17l-38 -217h-241l268 1518h240l-105 -597h20q41 89 125 141t189 52q165 0 263 -104t98 -278q0 -50 -11 -116l-34 -190q-37 -211 -151 -327t-284 -116zM719 186q102 0 172.5 66.5t91.5 182.5l30 169
q6 41 6 89q0 102 -62 162.5t-168 60.5q-101 0 -176.5 -70t-96.5 -185l-30 -167q-6 -37 -6 -75q0 -100 67.5 -166.5t171.5 -66.5z" />
    <glyph glyph-name="Ccedillaacute" unicode="&#x1e08;" 
d="M1349 1918l-342 -312h-236l313 312h265zM1353 944h-243q3 33 3 63q0 111 -70.5 178t-188.5 67q-133 0 -221.5 -92.5t-120.5 -265.5l-48 -272q-12 -70 -12 -137q0 -137 73.5 -215.5t203.5 -78.5q119 0 195.5 66.5t101.5 192.5q1 5 1 11h246q-2 -25 -4 -32
q-28 -206 -173.5 -330t-363.5 -129l-51 -92q82 -7 128 -47.5t46 -106.5q0 -99 -72.5 -155.5t-199.5 -56.5q-75 0 -152 23l21 124q51 -19 128 -19q54 0 84 17.5t30 48.5q0 63 -127 63h-55l12 104l61 110q-178 37 -280 171t-102 334q0 74 14 154l45 258q48 278 202.5 425
t399.5 147q219 0 357 -126t138 -327q0 -29 -6 -75z" />
    <glyph glyph-name="ccedillaacute" unicode="&#x1e09;" 
d="M1272 1643l-334 -347h-236l301 347h269zM518 -127l63 115q-157 29 -245.5 136t-88.5 268q0 66 12 143q10 69 26 152q36 202 174.5 317.5t344.5 115.5q197 0 320 -101t123 -264q0 -11 -2 -39h-228v12q0 86 -62.5 141t-159.5 55q-235 0 -290 -297l-13 -78q-14 -75 -14 -126
q0 -120 60.5 -184.5t172.5 -64.5q186 0 244 173h228q-33 -160 -155.5 -260t-297.5 -109l-55 -100q82 -7 128 -47.5t46 -106.5q0 -99 -72.5 -155.5t-199.5 -56.5q-75 0 -152 23l21 124q51 -19 128 -19q54 0 84 17.5t30 48.5q0 63 -127 63h-55z" />
    <glyph glyph-name="Ddotaccent" unicode="&#x1e0a;" 
d="M881 1615q-59 0 -102 44t-43 105t43 104.5t102 43.5t102.5 -43.5t43.5 -104.5t-43.5 -105t-102.5 -44zM786 1443q259 0 400 -143t141 -405q0 -66 -7 -134q-1 -23 -21 -128q-110 -633 -690 -633h-473l254 1443h396zM743 1235h-146l-183 -1024h168q200 0 315.5 108.5
t153.5 330.5q16 80 18 109q7 61 7 119q0 175 -85 266t-248 91z" />
    <glyph glyph-name="ddotaccent" unicode="&#x1e0b;" 
d="M716 1289q-59 0 -102 44t-43 105t43 104.5t102 43.5t102.5 -43.5t43.5 -104.5t-43.5 -105t-102.5 -44zM690 1114q123 0 211.5 -63t105.5 -167h14l113 634h238l-268 -1518h-236l34 196h-15q-36 -97 -122.5 -155t-194.5 -58q-168 0 -267.5 102.5t-99.5 275.5q0 78 10 136
l31 177q36 207 154.5 323.5t291.5 116.5zM744 914q-106 0 -174.5 -65.5t-90.5 -187.5l-27 -156q-8 -48 -8 -91q0 -101 60.5 -163t160.5 -62q110 0 185.5 68t97.5 187l29 166q6 34 6 68q0 102 -68 169t-171 67z" />
    <glyph glyph-name="Ddotbelow" unicode="&#x1e0c;" 
d="M503 -466q-59 0 -102 44t-43 105t43 104.5t102 43.5t102.5 -43.5t43.5 -104.5t-43.5 -105t-102.5 -44zM786 1443q259 0 400 -143t141 -405q0 -66 -7 -134q-1 -23 -21 -128q-110 -633 -690 -633h-473l254 1443h396zM743 1235h-146l-183 -1024h168q200 0 315.5 108.5
t153.5 330.5q16 80 18 109q7 61 7 119q0 175 -85 266t-248 91z" />
    <glyph glyph-name="ddotbelow" unicode="&#x1e0d;" 
d="M577 -466q-59 0 -102 44t-43 105t43 104.5t102 43.5t102.5 -43.5t43.5 -104.5t-43.5 -105t-102.5 -44zM690 1114q123 0 211.5 -63t105.5 -167h14l113 634h238l-268 -1518h-236l34 196h-15q-36 -97 -122.5 -155t-194.5 -58q-168 0 -267.5 102.5t-99.5 275.5q0 78 10 136
l31 177q36 207 154.5 323.5t291.5 116.5zM744 914q-106 0 -174.5 -65.5t-90.5 -187.5l-27 -156q-8 -48 -8 -91q0 -101 60.5 -163t160.5 -62q110 0 185.5 68t97.5 187l29 166q6 34 6 68q0 102 -68 169t-171 67z" />
    <glyph glyph-name="Dlinebelow" unicode="&#x1e0e;" 
d="M835 -407h-696l29 166h696zM786 1443q259 0 400 -143t141 -405q0 -66 -7 -134q-1 -23 -21 -128q-110 -633 -690 -633h-473l254 1443h396zM743 1235h-146l-183 -1024h168q200 0 315.5 108.5t153.5 330.5q16 80 18 109q7 61 7 119q0 175 -85 266t-248 91z" />
    <glyph glyph-name="dlinebelow" unicode="&#x1e0f;" 
d="M909 -407h-696l29 166h696zM690 1114q123 0 211.5 -63t105.5 -167h14l113 634h238l-268 -1518h-236l34 196h-15q-36 -97 -122.5 -155t-194.5 -58q-168 0 -267.5 102.5t-99.5 275.5q0 78 10 136l31 177q36 207 154.5 323.5t291.5 116.5zM744 914q-106 0 -174.5 -65.5
t-90.5 -187.5l-27 -156q-8 -48 -8 -91q0 -101 60.5 -163t160.5 -62q110 0 185.5 68t97.5 187l29 166q6 34 6 68q0 102 -68 169t-171 67z" />
    <glyph glyph-name="Dcommaaccent" unicode="&#x1e10;" 
d="M494 -503h-208l151 357h236zM786 1443q259 0 400 -143t141 -405q0 -66 -7 -134q-1 -23 -21 -128q-110 -633 -690 -633h-473l254 1443h396zM743 1235h-146l-183 -1024h168q200 0 315.5 108.5t153.5 330.5q16 80 18 109q7 61 7 119q0 175 -85 266t-248 91z" />
    <glyph glyph-name="dcommaaccent" unicode="&#x1e11;" 
d="M590 -513h-208l151 357h236zM690 1114q123 0 211.5 -63t105.5 -167h14l113 634h238l-268 -1518h-236l34 196h-15q-36 -97 -122.5 -155t-194.5 -58q-168 0 -267.5 102.5t-99.5 275.5q0 78 10 136l31 177q36 207 154.5 323.5t291.5 116.5zM744 914q-106 0 -174.5 -65.5
t-90.5 -187.5l-27 -156q-8 -48 -8 -91q0 -101 60.5 -163t160.5 -62q110 0 185.5 68t97.5 187l29 166q6 34 6 68q0 102 -68 169t-171 67z" />
    <glyph glyph-name="Dcircumflexbelow" unicode="&#x1e12;" 
d="M786 1443q259 0 400 -143t141 -405q0 -66 -7 -134q-1 -23 -21 -128q-110 -633 -690 -633h-473l254 1443h396zM743 1235h-146l-183 -1024h168q200 0 315.5 108.5t153.5 330.5q16 80 18 109q7 61 7 119q0 175 -85 266t-248 91zM404 -162h253l209 -351h-227l-117 216h-17
l-192 -216h-240z" />
    <glyph glyph-name="dcircumflexbelow" unicode="&#x1e13;" 
d="M690 1114q123 0 211.5 -63t105.5 -167h14l113 634h238l-268 -1518h-236l34 196h-15q-36 -97 -122.5 -155t-194.5 -58q-168 0 -267.5 102.5t-99.5 275.5q0 78 10 136l31 177q36 207 154.5 323.5t291.5 116.5zM744 914q-106 0 -174.5 -65.5t-90.5 -187.5l-27 -156
q-8 -48 -8 -91q0 -101 60.5 -163t160.5 -62q110 0 185.5 68t97.5 187l29 166q6 34 6 68q0 102 -68 169t-171 67zM478 -162h253l209 -351h-227l-117 216h-17l-192 -216h-240z" />
    </font>
</defs>
</svg>
